<svg width="24" height="24" viewBox="0 0 24 24" fill="none" xmlns="http://www.w3.org/2000/svg">
<path d="M3.5625 2.10941C3.5625 2.10941 5.67187 3.51566 7.78124 3.51566C11.1517 3.51566 12.8483 0.703166 16.2187 0.703166C18.3281 0.703166 20.4375 2.10941 20.4375 2.10941V13.3594C20.4375 13.3594 18.3281 11.9531 16.2187 11.9531C12.8483 11.9531 11.1517 14.7656 7.78124 14.7656C5.67187 14.7656 3.5625 13.3594 3.5625 13.3594" fill="#009340"/>
<path d="M3.5625 2.10941C3.5625 2.10941 5.67187 3.51566 7.78124 3.51566C11.1517 3.51566 12.8483 0.703166 16.2187 0.703166C18.3281 0.703166 20.4375 2.10941 20.4375 2.10941V13.3594C20.4375 13.3594 18.3281 11.9531 16.2187 11.9531C12.8483 11.9531 11.1517 14.7656 7.78124 14.7656C5.67187 14.7656 3.5625 13.3594 3.5625 13.3594" stroke="#252525" stroke-miterlimit="10"/>
<path d="M3.5625 7.05719e-05V24" stroke="#252525" stroke-miterlimit="10"/>
</svg>
