<svg width="180" height="180" fill="none" xmlns="http://www.w3.org/2000/svg"><path d="M120.286 57.366a9.393 9.393 0 0 1 4.086-1.548h.216c.444-.027.888-.027 1.332 0l4.302-.576v-.504c-.306-2.988-1.602-5.4 1.44-5.094l2.106.198 1.44.144a5.4 5.4 0 0 0 3.258-.684 2.828 2.828 0 0 0 1.332-2.628V34.506a2.907 2.907 0 0 0 0-.396 3.406 3.406 0 0 0-2.61-3.024l-12.42 4.824a11.492 11.492 0 0 0-6.84 7.452l-4.014 1.692v.594l.09 3.978v.27a2.19 2.19 0 0 0 0 .324v.126a2.053 2.053 0 0 0 2.016 0l1.8-.954a2.44 2.44 0 0 0 0 .342l2.232 6.768.234.864Z" fill="#E1BA00"/><path d="m90.482 68.133-3.816 4.014-.612.648-1.386-.252H62.456l-4.986.162h-3.6l-15.768-1.638v-.54c.595.089 1.197.131 1.8.126h1.926v-3.78a4.445 4.445 0 0 1 2.61-4.068h43.794a3.133 3.133 0 0 1 2.25 5.328Z" fill="#252525"/><path d="m119.982 57.368.414 1.386c.062-.08.135-.153.216-.216a11.638 11.638 0 0 0-2.844 9.702l5.184 24.264a23.134 23.134 0 0 1-1.674 13.032 24.17 24.17 0 0 1-22.032 14.256h-.234a23.58 23.58 0 0 1-3.6.27h-.145a14.608 14.608 0 0 1-10.567-4.539 14.612 14.612 0 0 1-4.013-10.779 54.27 54.27 0 0 1 6.553-21.6 1.018 1.018 0 0 1 0-.144c2.088-3.384 1.8-9-1.44-10.206a3.797 3.797 0 0 0-1.386-.252H57.287a.252.252 0 0 0-.161 0h-.936c-.9 0-1.8 0-2.628.18l-8.514 1.638-1.962.378h2.502a49.429 49.429 0 0 0-12.979 6.354h-3.096l-.522.36h-.125a58.662 58.662 0 0 0-13.123 12.42l-.107.144.234.504.126-.126 1.043 2.25-.108.144c-.504.72-.99 1.458-1.476 2.196a41.238 41.238 0 0 0-4.967 11.268 43.923 43.923 0 0 0-1.8 12.15h6.534l.486 1.314v.63h46.98l.252 1.8c.071.7.107 1.403.108 2.106.004.921-.056 1.842-.18 2.754h45.738a42.13 42.13 0 0 0 8.082-.486 14.398 14.398 0 0 0 5.22-2.016l.324-.216.306-.252a16.348 16.348 0 0 0 3.6-3.6l17.298-28.332c.306-.828.576-1.224.828-1.368a.321.321 0 0 1 .36 0v-.468c-.126-.576-3.906-9.504-4.068-10.062l-10.674-29.052h-4.302a11.608 11.608 0 0 0-5.85 1.458l.252.756Z" fill="#FFD800"/><path d="M32.597 81.49h-.09l-8.514 6.822-6.912 8.64-1.8-3.726 7.668-11.88 9.648.144Z" fill="#ED1C24"/><path d="M145.094 94.734c.576.378.594 2.412 0 0Z" fill="#FFD800"/><path d="M69.58 124.111v.27H15.886c0-.216 0-.414-.09-.63-.09-.216-.162-.882-.216-1.314a35.225 35.225 0 0 1-.252-3.042v-1.53c0-1.064.053-2.127.162-3.186.126-1.134.306-2.25.522-3.348.126-.558.252-1.098.396-1.638.144-.54.18-.702.288-1.062.108-.36.234-.774.378-1.134a35.513 35.513 0 0 1 26.802-23.292 30.82 30.82 0 0 1 4.41-.558c4.09-.193 8.183.355 12.078 1.62 16.722 5.436 15.444 23.328 9.216 38.844Z" fill="#E1BA00"/><path d="M127.882 42.104a.867.867 0 0 1 0 .216 2.036 2.036 0 0 1-1.044 1.512l-10.638 5.76a2.033 2.033 0 0 1-2.142-.144c-.31-.205-.549-.5-.684-.846l-.45-1.098a2.02 2.02 0 0 1 1.044-2.628l4.014-1.692 7.092-2.88a2.017 2.017 0 0 1 2.646 1.08c.098.228.153.472.162.72Zm38.751 85.552a21.405 21.405 0 0 1-18.486 21.204l-2.52-.468a21.601 21.601 0 0 1-16.776-14.49l-.522-1.602a19.53 19.53 0 0 1-.522-3.798h-3.924l.198-.252 17.766-21.6 15.534 3.852.882.216a21.3 21.3 0 0 1 8.37 16.938Z" fill="#252525"/><path d="M149.207 112.664a14.815 14.815 0 1 1-14.832 14.796v-.252l9.468-11.142 5.364-3.402Z" fill="#CCC"/><path d="M163.663 110.701h-10.242a10.275 10.275 0 0 0-5.562 1.8h-.108c-.702.414-1.44.864-2.25 1.26a4.96 4.96 0 0 0-1.026.702c-.468.378-.936.81-1.35 1.134l-.27.198a14.076 14.076 0 0 0-5.4 6.66l-.918 2.016a3.423 3.423 0 0 1-.936 1.134c-.429.339-.887.64-1.368.9-.774.432-1.584.81-2.196 1.17a.928.928 0 0 1-.324 0h-.144c-.594 0-1.494 0-1.8.144a5.388 5.388 0 0 1-2.016.27h-3.87l.18-.252 2.25-3.888 16.326-27.846.828-1.44.216-.36c1.278-.27.504-.828 1.08-1.026.096-.01.192-.01.288 0h.432c2.446-.002 4.864.52 7.092 1.53a18.004 18.004 0 0 1 5.778 4.14 20.109 20.109 0 0 1 5.274 11.556l.036.198Z" fill="#E1BA00"/><path d="M59.364 128.503a21.416 21.416 0 0 1-18.486 21.222 21.454 21.454 0 0 1-20.322-25.362h38.412l.288 2.034v.126c.072.666.108 1.332.108 1.98Z" fill="#252525"/><path d="M55.771 124.381c.393 1.37.593 2.788.594 4.212a14.798 14.798 0 0 1-14.796 14.796 14.799 14.799 0 0 1-14.796-14.796c.002-1.43.202-2.854.594-4.23l28.404.018Zm88.05-90.341h-3.6a3.111 3.111 0 0 0-2.866 1.938 3.127 3.127 0 0 0-.23 1.193v6.012a3.095 3.095 0 0 0 3.096 3.096h3.456l.144-12.24Z" fill="#CCC"/><path d="m117.836 43.905.162-.666a11.49 11.49 0 0 1 6.84-7.452l12.42-4.824.738-.288c2.862-1.098 5.85.198 5.85 3.258v12.276c0 2.556-2.034 3.402-4.608 3.15h-.684l-2.862-.27c-1.116-.108-1.656.144-1.8.666-.414.972.306 2.844.432 4.968h-4.644a10.573 10.573 0 0 0-1.53.108 8.814 8.814 0 0 0-1.692.342 9.01 9.01 0 0 0-1.908.72 10.353 10.353 0 0 0-3.456 2.718l-.216.216-.594-1.458-.234-.864-2.016-6.822a2.44 2.44 0 0 1 0-.342M57.477 72.362l8.802-.216h22.194l1.386.251 4.446-4.68a3.114 3.114 0 0 0-2.268-5.273h-45.9a4.373 4.373 0 0 0-1.8.413 4.446 4.446 0 0 0-2.61 4.069v3.78m-24.622 26.01-1.044-2.25-.252-.522-.36-.792-.09-.18 7.452-11.538.234-.36h9.684" stroke="#252525" stroke-miterlimit="10"/><path d="m144.026 81.49.864 2.358c.162.558.306 1.134.432 1.8 1.008 4.554 1.368 4.302-.252 8.514v.198l-.27.45-.936 1.296-16.074 26.514a37.42 37.42 0 0 1-1.296 1.692 20.788 20.788 0 0 1-3.6 3.6l-.306.252a1.678 1.678 0 0 1-.324.216 11.883 11.883 0 0 1-5.292 2.034c-1.376.2-2.767.29-4.158.27H63.656l-.648-4.626-.252-1.8c.009-.09.009-.18 0-.27H15.884l-.126-.378-.486-1.314H8.684a31.465 31.465 0 0 1 1.188-9.99m130.956-39.511 1.476 4.014" stroke="#252525" stroke-miterlimit="10" stroke-linecap="round"/><path d="M12.75 103.988a40.54 40.54 0 0 1 2.718-4.878c.486-.738.972-1.476 1.476-2.196l.108-.144a60.607 60.607 0 0 1 15.066-15.228l.504-.36a49.644 49.644 0 0 1 13.014-6.354c.378-.144.774-.27 1.17-.378l8.82-1.746.684-.126.882-.18h.198a50.57 50.57 0 0 1 2.916-.198h28.08c.474-.003.944.083 1.386.252 3.222 1.224 3.6 6.84 1.458 10.242a1.018 1.018 0 0 0 0 .144 54.47 54.47 0 0 0-6.588 21.6 14.687 14.687 0 0 0 14.634 15.336h.234a24.228 24.228 0 0 0 22.086-14.256 22.819 22.819 0 0 0 1.674-13.014l-.504-3.6-2.484-10.26-.918-4.248-.432-1.998-.882-4.158a11.704 11.704 0 0 1 6.498-12.438 11.372 11.372 0 0 1 3.348-1.044 10.804 10.804 0 0 1 1.53-.108h4.644l4.662 12.708" stroke="#252525" stroke-miterlimit="10" stroke-linecap="round"/><path d="M42.721 124.112h31.932c6.912-15.588 8.514-33.714-9.882-39.204-26.316-7.83-54.09 13.212-48.888 39.186l26.838.018Zm85.178-81.342a2.012 2.012 0 0 1-1.062 1.8l-8.892 4.734-1.8.954a2.03 2.03 0 0 1-2.321-.287 2.036 2.036 0 0 1-.487-.666l-.45-1.099a1.995 1.995 0 0 1-.126-1.152 2.085 2.085 0 0 1 1.188-1.494l3.888-1.656 7.2-3.042a2.02 2.02 0 0 1 2.206.426c.188.187.338.41.44.655.053.128.095.26.126.396.046.14.077.285.09.431Zm-.111 85.501c-.009.09-.009.18 0 .27.054 1.256.229 2.504.522 3.726a21.473 21.473 0 0 0 19.8 16.596h1.08a21.46 21.46 0 0 0 20.24-14.329 21.457 21.457 0 0 0-6.794-23.849l-.378-.306" stroke="#252525" stroke-miterlimit="10"/><path d="M149.261 112.629a14.846 14.846 0 0 1 13.696 9.196 14.855 14.855 0 0 1-3.251 16.173 14.843 14.843 0 0 1-16.185 3.192 14.85 14.85 0 0 1-9.146-13.729v-.252" stroke="#252525" stroke-miterlimit="10"/><path d="M122.57 128.253h7.884a8.198 8.198 0 0 0 2.898-.576 7.575 7.575 0 0 0 1.026-.486 8.403 8.403 0 0 0 3.6-3.6 23.986 23.986 0 0 1 8.856-9.63c.45-.27.9-.522 1.368-.756a9.902 9.902 0 0 1 1.152-.576 22.815 22.815 0 0 1 6.264-1.926 16.041 16.041 0 0 1 1.8-.216 17.51 17.51 0 0 1 1.944 0h10.908a19.648 19.648 0 0 0-11.862-16.182 19.35 19.35 0 0 0-7.56-1.512 27.001 27.001 0 0 0-4.392.342l-.9.144-.486.738m-86.093 30.366h3.708l.252 1.8c.072.7.108 1.402.108 2.106a19.79 19.79 0 0 1-.18 2.754" stroke="#252525" stroke-miterlimit="10"/><path d="M58.98 124.383h3.708c.008-.09.008-.18 0-.27H20.603a1.234 1.234 0 0 0 0 .252 21.459 21.459 0 0 0 11.437 23.081 21.456 21.456 0 0 0 8.85 2.281h.774a21.471 21.471 0 0 0 21.276-18.702" stroke="#252525" stroke-miterlimit="10"/><path d="M55.894 124.112c.39 1.376.59 2.799.594 4.23a14.847 14.847 0 0 1-9.04 14.186 14.85 14.85 0 0 1-20.642-14.186c.01-1.437.216-2.867.612-4.248l28.476.018Zm87.953-90.126h-3.6a3.13 3.13 0 0 0-3.114 3.132v6.03a3.114 3.114 0 0 0 3.114 3.114h3.438l.162-12.276Z" stroke="#252525" stroke-miterlimit="10"/><path d="M23.984 109.838h28.764m-28.764 3.6h28.764m-28.764 3.601h28.764" stroke="#252525" stroke-miterlimit="10" stroke-linecap="round"/><path d="M57.278 72.957c.01.12.01.24 0 .36a1.8 1.8 0 0 1-1.8 1.458h-16.74a13.752 13.752 0 0 1-10.584-4.968l-4.788-5.778a1.907 1.907 0 0 1-.288-1.584c.104-.386.324-.732.63-.99a1.8 1.8 0 0 1 2.574.252l4.248 5.112a11.916 11.916 0 0 0 7.506 4.194c.553.087 1.113.13 1.674.126h15.768a1.8 1.8 0 0 1 1.8 1.278v.288a.795.795 0 0 1 0 .252Z" fill="#CCC"/><path d="M57.48 72.56a.235.235 0 0 1 0 .107c0 .224-.05.445-.144.648a1.8 1.8 0 0 1-1.674 1.08H38.868a13.77 13.77 0 0 1-10.62-5.004l-4.806-5.796a1.8 1.8 0 0 1-.36-1.152 1.8 1.8 0 0 1 3.258-1.17l4.248 5.13a11.988 11.988 0 0 0 7.452 4.194c.596.09 1.198.132 1.8.126h15.912a1.8 1.8 0 0 1 1.8 1.656.74.74 0 0 1-.072.18Z" stroke="#252525" stroke-miterlimit="10"/></svg>