<svg width="24" height="24" viewBox="0 0 24 24" fill="none" xmlns="http://www.w3.org/2000/svg">
<g clip-path="url(#clip0_712_13154)">
<rect width="22.2857" height="13.7143" transform="matrix(-1 0 0 1 23.1445 9.42969)" fill="#009340"/>
<path d="M22.6424 22.6419C22.9639 22.3204 23.1445 21.8843 23.1445 21.4297V9.42969H0.858818V21.4297C0.858818 21.8843 1.03951 22.3204 1.36093 22.6419C1.68236 22.9633 2.11847 23.144 2.5731 23.144H21.4302C21.8849 23.144 22.3209 22.9633 22.6424 22.6419Z" fill="#009340"/>
<path d="M22.6424 3.93178C22.3209 3.6103 21.8849 3.42969 21.4302 3.42969H2.5731C2.11847 3.42969 1.68236 3.6103 1.36093 3.93178C1.03951 4.25328 0.858818 4.68931 0.858818 5.14397V9.42969H23.1445V5.14397C23.1445 4.68931 22.9639 4.25328 22.6424 3.93178Z" fill="white"/>
<path d="M21.4302 3.42969C21.8849 3.42969 22.3209 3.6103 22.6424 3.93178C22.9639 4.25328 23.1445 4.68931 23.1445 5.14397V21.4297C23.1445 21.8843 22.9639 22.3204 22.6424 22.6419C22.3209 22.9633 21.8849 23.144 21.4302 23.144H2.5731C2.11848 23.144 1.68236 22.9633 1.36093 22.6419C1.0395 22.3204 0.858818 21.8843 0.858818 21.4297V5.14397C0.858818 4.68931 1.0395 4.25328 1.36093 3.93178C1.68236 3.6103 2.11848 3.42969 2.5731 3.42969H6.00168" stroke="#252525" stroke-linecap="round" stroke-linejoin="round"/>
<path d="M23.1445 9.42969H0.858818" stroke="#252525" stroke-linecap="round" stroke-linejoin="round"/>
<path d="M18 0.857422V6.00028" stroke="#252525" stroke-linecap="round" stroke-linejoin="round"/>
<path d="M6 0.857422V6.00028" stroke="#252525" stroke-linecap="round" stroke-linejoin="round"/>
<path d="M18 3.42969H9.42857" stroke="#252525" stroke-linecap="round" stroke-linejoin="round"/>
</g>
<defs>
<clipPath id="clip0_712_13154">
<rect width="24" height="24" fill="white" transform="matrix(-1 0 0 1 24 0)"/>
</clipPath>
</defs>
</svg>
