<svg width="80" height="80" fill="none" xmlns="http://www.w3.org/2000/svg"><path d="M62.68 10.815h3.24a4.86 4.86 0 0 1 4.86 4.86v48.602a4.86 4.86 0 0 1-4.86 4.86h-3.24V10.815Z" fill="#21393F"/><path d="M57.821 1.094a6.5 6.5 0 0 1 6.48 6.48v63.183a8.125 8.125 0 0 1-8.1 8.1H17.319a8.124 8.124 0 0 1-8.1-8.1V7.574a6.5 6.5 0 0 1 6.48-6.48h42.122Z" fill="#2F4B54"/><path d="M23.803 39.975h-6.48a1.62 1.62 0 0 0-1.62 1.62v3.24c0 .895.726 1.62 1.62 1.62h6.48a1.62 1.62 0 0 0 1.62-1.62v-3.24a1.62 1.62 0 0 0-1.62-1.62Zm16.196 0h-6.48a1.62 1.62 0 0 0-1.62 1.62v3.24c0 .895.725 1.62 1.62 1.62h6.48a1.62 1.62 0 0 0 1.62-1.62v-3.24a1.62 1.62 0 0 0-1.62-1.62Zm16.203 0h-6.48a1.62 1.62 0 0 0-1.62 1.62v3.24c0 .895.725 1.62 1.62 1.62h6.48a1.62 1.62 0 0 0 1.62-1.62v-3.24a1.62 1.62 0 0 0-1.62-1.62Zm-32.399 12.96h-6.48a1.62 1.62 0 0 0-1.62 1.62v3.24c0 .895.726 1.62 1.62 1.62h6.48a1.62 1.62 0 0 0 1.62-1.62v-3.24a1.62 1.62 0 0 0-1.62-1.62Zm16.196 0h-6.48a1.62 1.62 0 0 0-1.62 1.62v3.24c0 .895.725 1.62 1.62 1.62h6.48a1.62 1.62 0 0 0 1.62-1.62v-3.24a1.62 1.62 0 0 0-1.62-1.62Zm16.203 0h-6.48a1.62 1.62 0 0 0-1.62 1.62v3.24c0 .895.725 1.62 1.62 1.62h6.48a1.62 1.62 0 0 0 1.62-1.62v-3.24a1.62 1.62 0 0 0-1.62-1.62Z" fill="#C0DADC"/><path d="M17.323 65.894h6.48a1.62 1.62 0 0 1 1.62 1.62v3.24a1.62 1.62 0 0 1-1.62 1.62h-3.24a4.86 4.86 0 0 1-4.86-4.86 1.62 1.62 0 0 1 1.62-1.62Z" fill="#C74C5E"/><path d="M39.999 65.894h-6.48a1.62 1.62 0 0 0-1.62 1.62v3.24c0 .895.725 1.62 1.62 1.62h6.48a1.62 1.62 0 0 0 1.62-1.62v-3.24a1.62 1.62 0 0 0-1.62-1.62Z" fill="#F9C84E"/><path d="M49.722 65.894h6.48a1.62 1.62 0 0 1 1.62 1.62 4.86 4.86 0 0 1-4.86 4.86h-3.24a1.62 1.62 0 0 1-1.62-1.62v-3.24a1.62 1.62 0 0 1 1.62-1.62Z" fill="#29A084"/><path d="M56.205 7.574H17.323a1.62 1.62 0 0 0-1.62 1.62v22.681c0 .895.726 1.62 1.62 1.62h38.882a1.62 1.62 0 0 0 1.62-1.62V9.195a1.62 1.62 0 0 0-1.62-1.62Z" fill="#D4E6E7"/><path d="M22.182 17.295a1.62 1.62 0 0 1-1.145-2.765l1.62-1.62a1.62 1.62 0 0 1 2.29 2.29l-1.62 1.62a1.62 1.62 0 0 1-1.145.475Zm0 8.101a1.62 1.62 0 0 1-1.145-2.766l9.72-9.72a1.62 1.62 0 0 1 2.291 2.29l-9.72 9.721a1.62 1.62 0 0 1-1.146.475Z" fill="#fff"/></svg>