<svg width="126" height="126" viewBox="0 0 126 126" fill="none" xmlns="http://www.w3.org/2000/svg">
<path d="M112.472 73.2727C111.983 73.2727 111.495 73.0738 111.14 72.6832C110.471 71.9485 110.526 70.811 111.261 70.1437L117.885 64.1296C119.781 62.4078 120.684 59.9652 120.364 57.4259C120.042 54.8868 118.561 52.7444 116.297 51.5478L99.9 42.8819C99.0212 42.4176 98.6857 41.3297 99.151 40.4521C99.6146 39.5743 100.704 39.2387 101.581 39.7032L117.978 48.369C121.293 50.121 123.464 53.2579 123.934 56.9758C124.403 60.693 123.081 64.2713 120.305 66.7918L113.682 72.8059C113.337 73.1188 112.903 73.2727 112.472 73.2727Z" fill="#231F20"/>
<path d="M118.29 71.8216C117.259 69.2182 115.6 66.9087 113.46 65.1005C112.752 64.5023 111.728 64.4626 110.976 65.0019C110.068 65.6536 109.862 66.9156 110.512 67.8214L114.769 73.7439C115.42 74.6497 116.683 74.8572 117.589 74.2055C118.341 73.6661 118.63 72.6825 118.29 71.8216Z" fill="white"/>
<path d="M117.306 72.5269C116.275 69.9235 114.616 67.614 112.476 65.8058C111.928 65.3425 111.189 65.2163 110.535 65.4324C110.655 65.2716 110.802 65.1264 110.975 65.0019C111.727 64.4626 112.751 64.5023 113.459 65.1005C115.598 66.9087 117.257 69.2182 118.288 71.8216C118.629 72.6825 118.34 73.6661 117.588 74.2055C117.416 74.3299 117.231 74.4215 117.039 74.4855C117.454 73.9341 117.57 73.1942 117.306 72.5269Z" fill="#8ECAE6"/>
<path d="M117.274 73.7687C117.013 73.9572 116.703 74.0522 116.382 74.0453C115.909 74.035 115.48 73.8119 115.207 73.4299L110.952 67.5074C110.72 67.1876 110.628 66.7952 110.692 66.4045C110.758 66.0138 110.969 65.6715 111.291 65.4416C111.554 65.2532 111.863 65.1564 112.185 65.1633C112.524 65.1702 112.853 65.2947 113.11 65.5142C115.176 67.2585 116.793 69.5092 117.788 72.021C118.039 72.6537 117.828 73.3711 117.274 73.7687ZM118.791 71.6234C118.264 70.2923 117.57 69.0217 116.727 67.8497C115.885 66.6794 114.903 65.6145 113.808 64.6897C113.361 64.3111 112.792 64.0967 112.207 64.0846C111.65 64.0725 111.114 64.2385 110.661 64.5652C110.106 64.9628 109.739 65.554 109.628 66.2299C109.518 66.9058 109.675 67.5817 110.075 68.1367L114.33 74.0591C114.804 74.7178 115.544 75.1067 116.359 75.124C116.916 75.1361 117.451 74.9702 117.904 74.6452C118.859 73.9589 119.224 72.7177 118.791 71.6234Z" fill="#231F20"/>
<path d="M115.178 72.1329C115.178 72.1329 116.543 76.5186 114.253 79.6095C111.764 82.9666 107.979 84.6262 105.818 84.4308C105.818 84.4308 103.613 84.1715 103.915 82.3218C103.915 82.3218 99.8675 82.9182 101.184 79.3865C101.184 79.3865 99.3572 79.4539 98.9352 78.3527C98.5131 77.2498 98.629 76.3838 99.2431 75.9153C99.2431 75.9153 95.6485 72.9938 100.063 71.5642C100.063 71.5642 98.9162 68.7481 101.167 68.131C103.415 67.5139 105.427 65.6054 108.262 66.4369C111.144 67.2805 111.828 67.666 115.178 72.1329Z" fill="white"/>
<path d="M100.065 71.5648C100.065 71.5648 103.419 70.5846 103.89 70.0885L103.711 69.8223L99.7813 70.2735L100.065 71.5648Z" fill="#8ECAE6"/>
<path d="M105.184 82.3975C107.334 82.6775 111.181 81.1632 113.796 77.9046C115.139 76.2312 115.36 74.1136 115.295 72.5664C115.568 73.7488 116.113 77.1042 114.257 79.6091C111.767 82.9662 107.983 84.6258 105.822 84.4304C105.822 84.4304 103.616 84.1711 103.919 82.3214L105.184 82.3975Z" fill="#8ECAE6"/>
<path d="M115.695 71.9745C115.626 71.7515 115.423 71.5993 115.191 71.5941C115.133 71.5941 115.075 71.601 115.02 71.6183C114.736 71.7065 114.576 72.009 114.664 72.2925C114.678 72.334 115.909 76.469 113.82 79.2885C111.554 82.3466 108.158 83.9508 106.115 83.9076C106.032 83.9059 105.952 83.9007 105.873 83.8938C105.809 83.8851 104.991 83.7555 104.615 83.2576C104.446 83.0329 104.392 82.7546 104.449 82.4088L104.567 81.681L103.837 81.7882C103.666 81.8141 103.43 81.8262 103.211 81.8211C102.782 81.8124 102.008 81.7329 101.664 81.3059C101.384 80.9584 101.393 80.3759 101.692 79.5755L101.974 78.8183L101.169 78.8477C101.164 78.8477 101.137 78.8495 101.092 78.8477C100.858 78.8425 99.68 78.7872 99.4395 78.1597C99.251 77.6636 99.0157 76.7681 99.571 76.3446L100.116 75.928L99.5848 75.4975C99.2354 75.2123 98.2702 74.2183 98.4189 73.4283C98.521 72.8872 99.1299 72.4343 100.232 72.0782L100.784 71.8984L100.566 71.3625C100.56 71.3487 100.067 70.0919 100.467 69.2829C100.621 68.9717 100.896 68.766 101.31 68.6519C102.052 68.4479 102.763 68.116 103.449 67.7945C104.607 67.2551 105.698 66.7434 106.938 66.7693C107.331 66.778 107.715 66.8385 108.113 66.9543C109.421 67.3381 110.279 67.6199 111.15 68.3027C111.244 68.3753 111.355 68.4151 111.472 68.4168C111.642 68.4203 111.804 68.3425 111.908 68.2094C111.998 68.097 112.036 67.9552 112.019 67.8118C112.002 67.6683 111.931 67.5421 111.816 67.4522C110.794 66.6535 109.806 66.3268 108.416 65.9188C107.931 65.7771 107.442 65.701 106.959 65.6906C105.471 65.6595 104.212 66.2473 102.993 66.8178C102.316 67.1341 101.678 67.4332 101.024 67.6112C100.306 67.8083 99.7924 68.2111 99.4983 68.8075C99.0901 69.6355 99.2354 70.6295 99.3928 71.2346C98.201 71.7134 97.516 72.3859 97.3586 73.2312C97.151 74.3376 97.9294 75.3679 98.4864 75.9452C98.0574 76.5935 98.0349 77.5097 98.431 78.5452C98.7874 79.4735 99.789 79.7795 100.474 79.8797C100.279 80.7458 100.396 81.4546 100.825 81.9853C101.413 82.7113 102.43 82.8825 103.179 82.898C103.242 82.8998 103.302 82.8998 103.359 82.8998C103.397 83.2732 103.531 83.612 103.755 83.9093C104.428 84.7996 105.703 84.9604 105.76 84.9673C105.826 84.9725 105.892 84.9777 105.959 84.9811C105.996 84.9811 106.067 84.9846 106.067 84.9846C108.393 85.033 112.206 83.2783 114.686 79.9316C117.113 76.6575 115.754 72.1629 115.695 71.9745Z" fill="#231F20"/>
<path d="M104.121 69.7397C104.021 69.6169 103.872 69.5426 103.713 69.5391C103.585 69.5374 103.46 69.5789 103.362 69.6584C101.968 70.7821 100.022 71.0189 100.002 71.0224C99.7067 71.0552 99.4939 71.3231 99.5268 71.6187C99.5579 71.885 99.7724 72.0855 100.039 72.0976H100.053C100.077 72.0976 100.101 72.0959 100.124 72.0941C100.215 72.0838 102.391 71.8262 104.04 70.4986C104.152 70.4087 104.222 70.279 104.237 70.1355C104.253 69.9938 104.211 69.852 104.121 69.7397Z" fill="#231F20"/>
<path d="M52.3711 119.163C52.3711 121.885 54.7479 124.093 57.6782 124.093C60.6103 124.093 62.9871 121.885 62.9871 119.163C62.9871 116.44 60.6103 114.232 57.6782 114.232C54.7479 114.232 52.3711 116.44 52.3711 119.163Z" fill="white"/>
<path d="M55.2496 119.163C55.2496 116.903 56.8859 115 59.1174 114.417C58.6607 114.298 58.1781 114.232 57.6782 114.232C54.7479 114.232 52.3711 116.44 52.3711 119.163C52.3711 121.885 54.7479 124.093 57.6782 124.093C58.1781 124.093 58.6607 124.029 59.1174 123.908C56.8859 123.325 55.2496 121.422 55.2496 119.163Z" fill="#8ECAE6"/>
<path d="M52.1914 122.386C52.1914 123.523 53.1134 124.444 54.2517 124.444H60.2887C61.593 124.444 62.8714 124.076 63.975 123.383L68.5988 120.475C68.8773 120.301 69.0451 119.995 69.0451 119.668V107.965H62.4303L62.3507 110.933C62.3161 112.207 61.4581 113.313 60.2316 113.663L58.1939 114.245L56.023 122.107H52.4699C52.316 122.107 52.1914 122.232 52.1914 122.386Z" fill="white"/>
<path d="M60.2893 124.894H54.2522C52.8683 124.894 51.7422 123.771 51.7422 122.386C51.7422 121.985 52.0691 121.658 52.4704 121.658H56.0235C56.2726 121.658 56.4732 121.86 56.4732 122.108C56.4732 122.356 56.2726 122.557 56.0235 122.557H52.6504C52.7368 123.364 53.4219 123.995 54.2522 123.995H60.2893C61.5105 123.995 62.7023 123.653 63.7368 123.003L68.3606 120.095C68.5076 120.002 68.5959 119.843 68.5959 119.668V108.415H62.8684L62.801 110.945C62.7612 112.423 61.7787 113.689 60.355 114.095L58.3173 114.678C58.0785 114.747 57.8295 114.608 57.762 114.368C57.6928 114.13 57.8312 113.882 58.0699 113.813L60.1076 113.232C61.1524 112.933 61.8721 112.005 61.9015 110.921L61.9931 107.516H69.4954V119.668C69.4954 120.152 69.2497 120.597 68.8398 120.856L64.216 123.764C63.0379 124.503 61.68 124.894 60.2893 124.894Z" fill="#231F20"/>
<path d="M60.2924 122.558H53.5357C53.2866 122.558 53.0859 122.357 53.0859 122.108C53.0859 121.861 53.2866 121.659 53.5357 121.659H60.2924C61.5136 121.659 62.7055 121.317 63.7399 120.667L68.3637 117.759C68.5731 117.626 68.8516 117.69 68.983 117.899C69.1162 118.11 69.0522 118.387 68.8429 118.52L64.2191 121.427C63.0411 122.167 61.6832 122.558 60.2924 122.558Z" fill="#231F20"/>
<path d="M69.012 109.622C66.4172 110.272 63.7031 110.272 61.1084 109.622C60.2504 109.406 59.6484 108.635 59.6484 107.752C59.6484 106.687 60.5116 105.822 61.5772 105.822H68.5432C69.6088 105.822 70.472 106.687 70.472 107.752C70.472 108.635 69.87 109.406 69.012 109.622Z" fill="white"/>
<path d="M62.7558 110.393C62.7333 110.393 62.7125 110.391 62.69 110.388C62.1244 110.307 61.5553 110.196 60.9983 110.056C59.9396 109.79 59.1992 108.841 59.1992 107.75C59.1992 106.438 60.2665 105.371 61.5777 105.371H68.5438C69.855 105.371 70.9223 106.438 70.9223 107.75C70.9223 108.841 70.1819 109.79 69.1233 110.056C68.978 110.092 68.5714 110.179 68.3033 110.236L68.1251 110.274C67.883 110.327 67.6442 110.172 67.5906 109.93C67.5387 109.686 67.6927 109.447 67.9348 109.396L68.1148 109.356C68.3621 109.304 68.7756 109.216 68.9036 109.185C69.5626 109.019 70.0228 108.429 70.0228 107.75C70.0228 106.934 69.3585 106.27 68.5438 106.27H61.5777C60.763 106.27 60.0988 106.934 60.0988 107.75C60.0988 108.429 60.5589 109.019 61.218 109.185C61.7438 109.316 62.2835 109.421 62.818 109.499C63.0637 109.534 63.2349 109.762 63.2003 110.007C63.1675 110.23 62.9754 110.393 62.7558 110.393Z" fill="#231F20"/>
<path d="M53.4216 122.556C53.2902 122.556 53.1587 122.499 53.0705 122.389C52.318 121.452 51.9219 120.337 51.9219 119.163C51.9219 116.196 54.5045 113.783 57.6787 113.783C58.765 113.783 59.822 114.067 60.7371 114.603C60.9498 114.729 61.0225 115.004 60.8962 115.218C60.7717 115.432 60.4949 115.505 60.2804 115.379C59.5037 114.922 58.6042 114.682 57.6787 114.682C55.0009 114.682 52.8214 116.693 52.8214 119.163C52.8214 120.131 53.15 121.051 53.7728 121.827C53.9267 122.02 53.8956 122.302 53.7018 122.458C53.6188 122.525 53.5202 122.556 53.4216 122.556Z" fill="#231F20"/>
<path d="M67.9436 115.644C67.9436 116.837 67.4091 117.803 66.75 117.803C66.0892 117.803 65.5547 116.837 65.5547 115.644C65.5547 114.453 66.0892 113.486 66.75 113.486C67.4091 113.486 67.9436 114.453 67.9436 115.644Z" fill="#8ECAE6"/>
<path d="M97.2761 119.163C97.2761 121.885 94.8994 124.093 91.969 124.093C89.037 124.093 86.6602 121.885 86.6602 119.163C86.6602 116.44 89.037 114.232 91.969 114.232C94.8994 114.232 97.2761 116.44 97.2761 119.163Z" fill="white"/>
<path d="M94.3991 119.163C94.3991 116.903 92.7627 115 90.5313 114.417C90.9879 114.298 91.4706 114.232 91.9705 114.232C94.9008 114.232 97.2776 116.44 97.2776 119.163C97.2776 121.885 94.9008 124.093 91.9705 124.093C91.4706 124.093 90.9879 124.029 90.5313 123.908C92.7627 123.325 94.3991 121.422 94.3991 119.163Z" fill="#8ECAE6"/>
<path d="M97.4592 122.386C97.4592 123.523 96.5372 124.444 95.399 124.444H89.3619C88.0576 124.444 86.7792 124.076 85.6756 123.383L81.0518 120.475C80.7733 120.301 80.6055 119.995 80.6055 119.668V107.965H87.2203L87.2999 110.933C87.3345 112.207 88.1925 113.313 89.419 113.663L91.4567 114.245L93.6276 122.107H97.1807C97.3346 122.107 97.4592 122.232 97.4592 122.386Z" fill="white"/>
<path d="M89.3624 124.894H95.3995C96.7833 124.894 97.9094 123.771 97.9094 122.386C97.9094 121.985 97.5825 121.658 97.1812 121.658H93.6281C93.3808 121.658 93.1784 121.86 93.1784 122.108C93.1784 122.356 93.3808 122.557 93.6281 122.557H97.0013C96.9165 123.364 96.2298 123.995 95.3995 123.995H89.3624C88.1411 123.995 86.9493 123.653 85.9149 123.003L81.291 120.095C81.144 120.002 81.0558 119.843 81.0558 119.668V108.415H86.7832L86.8507 110.945C86.8905 112.423 87.873 113.689 89.2966 114.095L91.3344 114.678C91.5731 114.747 91.8222 114.608 91.8896 114.368C91.9588 114.13 91.8205 113.882 91.5818 113.813L89.544 113.232C88.4992 112.933 87.7796 112.005 87.7502 110.921L87.6585 107.516H80.1563V119.668C80.1563 120.152 80.4019 120.597 80.8119 120.856L85.4357 123.764C86.6137 124.503 87.9716 124.894 89.3624 124.894Z" fill="#231F20"/>
<path d="M89.3618 122.558H96.1185C96.3676 122.558 96.5683 122.357 96.5683 122.108C96.5683 121.861 96.3676 121.659 96.1185 121.659H89.3618C88.1406 121.659 86.9487 121.317 85.9143 120.667L81.2905 117.759C81.0812 117.626 80.8026 117.69 80.6712 117.899C80.538 118.11 80.602 118.387 80.8113 118.52L85.4351 121.427C86.6131 122.167 87.9711 122.558 89.3618 122.558Z" fill="#231F20"/>
<path d="M80.6397 109.622C83.2344 110.272 85.9485 110.272 88.5433 109.622C89.403 109.406 90.0032 108.635 90.0032 107.752C90.0032 106.687 89.1401 105.822 88.0745 105.822H81.1085C80.0429 105.822 79.1797 106.687 79.1797 107.752C79.1797 108.635 79.7817 109.406 80.6397 109.622Z" fill="white"/>
<path d="M86.8987 110.393C86.9195 110.393 86.9402 110.391 86.9627 110.388C87.5283 110.307 88.0975 110.196 88.6545 110.056C89.7131 109.79 90.4535 108.841 90.4535 107.75C90.4535 106.438 89.3862 105.371 88.075 105.371H81.109C79.7978 105.371 78.7305 106.438 78.7305 107.75C78.7305 108.841 79.4708 109.79 80.5295 110.056C80.6748 110.092 81.0813 110.179 81.3494 110.236L81.5276 110.274C81.7698 110.327 82.0102 110.172 82.0621 109.93C82.114 109.686 81.9601 109.447 81.7179 109.396L81.538 109.356C81.2906 109.304 80.8772 109.216 80.7492 109.185C80.0901 109.019 79.63 108.429 79.63 107.75C79.63 106.934 80.2942 106.27 81.109 106.27H88.075C88.8915 106.27 89.554 106.934 89.554 107.75C89.554 108.429 89.0938 109.019 88.4348 109.185C87.9089 109.316 87.3692 109.421 86.8347 109.499C86.5891 109.534 86.4178 109.762 86.4524 110.007C86.4853 110.23 86.6773 110.393 86.8987 110.393Z" fill="#231F20"/>
<path d="M96.2281 122.556C96.3595 122.556 96.491 122.499 96.5792 122.389C97.3317 121.452 97.7278 120.337 97.7278 119.163C97.7278 116.196 95.1452 113.783 91.971 113.783C90.8847 113.783 89.8277 114.067 88.9144 114.603C88.6999 114.729 88.6272 115.004 88.7535 115.218C88.8798 115.432 89.1548 115.505 89.3693 115.379C90.146 114.922 91.0455 114.682 91.971 114.682C94.6488 114.682 96.8283 116.693 96.8283 119.163C96.8283 120.131 96.4996 121.051 95.8786 121.827C95.723 122.02 95.7541 122.302 95.9479 122.458C96.0309 122.525 96.1295 122.556 96.2281 122.556Z" fill="#231F20"/>
<path d="M81.7031 115.644C81.7031 116.837 82.2376 117.803 82.8984 117.803C83.5575 117.803 84.092 116.837 84.092 115.644C84.092 114.453 83.5575 113.486 82.8984 113.486C82.2376 113.486 81.7031 114.453 81.7031 115.644Z" fill="#8ECAE6"/>
<path d="M65.2265 108.989C64.2319 108.989 63.4258 108.183 63.4258 107.191V58.9445C63.4258 57.9515 64.2319 57.1465 65.2265 57.1465C66.2194 57.1465 67.0255 57.9515 67.0255 58.9445V107.191C67.0255 108.183 66.2194 108.989 65.2265 108.989Z" fill="#231F20"/>
<path d="M84.3342 108.989C83.3412 108.989 82.5352 108.183 82.5352 107.191V58.9445C82.5352 57.9515 83.3412 57.1465 84.3342 57.1465C85.3288 57.1465 86.1332 57.9515 86.1332 58.9445V107.191C86.1332 108.183 85.3288 108.989 84.3342 108.989Z" fill="#231F20"/>
<path d="M40.2205 60.3295C32.9431 60.4401 26.5099 56.485 23.3149 49.8858L17.6065 38.0911C17.1723 37.1973 17.5477 36.1221 18.442 35.6898C19.3363 35.2571 20.4123 35.6313 20.8447 36.5252L26.5549 48.3199C29.2084 53.8019 34.6349 57.0199 40.7239 56.7155C46.8094 56.4117 51.8917 52.6705 53.9865 46.9516L55.1022 43.9052C55.443 42.9727 56.4757 42.4935 57.4098 42.8348C58.3422 43.176 58.8213 44.2086 58.4806 45.141L57.3648 48.1875C54.7649 55.2862 48.4579 59.9301 40.9038 60.307C40.6754 60.3174 40.4471 60.326 40.2205 60.3295Z" fill="#231F20"/>
<path d="M63.4258 96.4356V107.326C63.4258 108.319 64.2319 109.124 65.2265 109.124C66.2194 109.124 67.0255 108.319 67.0255 107.326V96.4356H63.4258Z" fill="#4361EE"/>
<path d="M67.0255 96.4356H63.4258V98.2351H67.0255V96.4356Z" fill="white"/>
<path d="M67.0255 100.061H63.4258V101.86H67.0255V100.061Z" fill="white"/>
<path d="M82.5352 96.4356V107.326C82.5352 108.319 83.3412 109.124 84.3342 109.124C85.3288 109.124 86.1332 108.319 86.1332 107.326V96.4356H82.5352Z" fill="#4361EE"/>
<path d="M86.1332 96.4356H82.5352V98.2351H86.1332V96.4356Z" fill="white"/>
<path d="M86.1332 100.061H82.5352V101.86H86.1332V100.061Z" fill="white"/>
<path d="M78.4582 3.15003L91.0876 25.2911L116.063 30.4528C119.296 31.1211 120.574 35.0513 118.351 37.4913L101.183 56.337L103.987 81.6683C104.35 84.9477 101.005 87.3765 97.9966 86.0177L74.7564 75.5246L51.5161 86.0177C48.5062 87.3765 45.1607 84.9477 45.524 81.6683L48.3298 56.337L31.1613 37.4913C28.9384 35.0513 30.215 31.1211 33.4498 30.4528L58.4233 25.2911L71.0528 3.15003C72.6875 0.283339 76.8235 0.283339 78.4582 3.15003Z" fill="#FCBF49"/>
<path d="M99.6958 35.877H50.1172V38.5277H99.6958V35.877Z" fill="#EF0405"/>
<path d="M67.4137 52.3265H57.6074C54.5317 52.3265 52.0391 49.8356 52.0391 46.763V38.5274H72.9804V46.763C72.9804 49.8356 70.4877 52.3265 67.4137 52.3265Z" fill="#231F20"/>
<path d="M92.2011 52.3265H82.3947C79.3208 52.3265 76.8281 49.8356 76.8281 46.763V38.5274H97.7694V46.763C97.7694 49.8356 95.2767 52.3265 92.2011 52.3265Z" fill="#231F20"/>
<path d="M66.8597 50.1472H63.8602C63.3292 50.1472 62.8984 49.7167 62.8984 49.1858C62.8984 48.655 63.3292 48.2245 63.8602 48.2245H66.8597C68.0014 48.2245 68.9321 47.295 68.9321 46.1523V41.0043C68.9321 40.4734 69.3628 40.043 69.8939 40.043C70.4249 40.043 70.8556 40.4734 70.8556 41.0043V46.1523C70.8556 48.355 69.0635 50.1472 66.8597 50.1472Z" fill="white"/>
<path d="M91.5221 50.1472H88.5243C87.9932 50.1472 87.5625 49.7167 87.5625 49.1858C87.5625 48.655 87.9932 48.2245 88.5243 48.2245H91.5221C92.6655 48.2245 93.5961 47.295 93.5961 46.1523V41.0043C93.5961 40.4734 94.0269 40.043 94.5579 40.043C95.089 40.043 95.5197 40.4734 95.5197 41.0043V46.1523C95.5197 48.355 93.7259 50.1472 91.5221 50.1472Z" fill="white"/>
<path d="M69.1997 33.2056H55.0652C54.4944 33.2056 54.0273 32.7388 54.0273 32.1683V31.9357C54.0273 31.3652 54.4944 30.8984 55.0652 30.8984H69.1997C69.7705 30.8984 70.2376 31.3652 70.2376 31.9357V32.1683C70.2376 32.7388 69.7705 33.2056 69.1997 33.2056Z" fill="#231F20"/>
<path d="M94.2075 33.2056H80.0731C79.5022 33.2056 79.0352 32.7388 79.0352 32.1683V31.9357C79.0352 31.3652 79.5022 30.8984 80.0731 30.8984H94.2075C94.7783 30.8984 95.2454 31.3652 95.2454 31.9357V32.1683C95.2454 32.7388 94.7783 33.2056 94.2075 33.2056Z" fill="#231F20"/>
<path d="M75.3471 69.6185C70.4845 69.8761 65.8122 68.2269 62.1917 64.9735C60.4636 63.4194 60.3218 60.7607 61.8751 59.0329C63.4303 57.3054 66.0908 57.1642 67.8206 58.7174C69.7684 60.4686 72.2835 61.3571 74.9008 61.2171C77.518 61.0788 79.9242 59.9292 81.6782 57.9818C83.2316 56.2544 85.8938 56.1131 87.6219 57.6665C89.35 59.2204 89.4919 61.8792 87.9368 63.6061C84.6812 67.226 80.2096 69.361 75.3471 69.6185Z" fill="white"/>
<path d="M75.9571 60.9043H74.293V69.9281H75.9571V60.9043Z" fill="#231F20"/>
<path d="M69.1923 59.5117L65.6289 67.8043L67.1598 68.4594L70.7215 60.1669L69.1923 59.5117Z" fill="#231F20"/>
<path d="M80.5607 58.9082L79.1094 59.7226L83.5308 67.5916L84.9821 66.7774L80.5607 58.9082Z" fill="#231F20"/>
<path d="M75.2644 68.0915C79.7205 67.8546 83.8167 65.8995 86.7989 62.5839C87.7866 61.4861 87.6967 59.7903 86.5983 58.8023C86.0655 58.3242 85.377 58.0825 84.6643 58.1195C83.9499 58.1574 83.2925 58.4713 82.8134 59.0032C80.7877 61.2545 78.0062 62.5821 74.9807 62.7429C71.957 62.9037 69.0492 61.8768 66.7952 59.8525C65.6968 58.8661 63.9998 58.9564 63.012 60.0548C62.5329 60.5855 62.2907 61.2718 62.3288 61.9875C62.3668 62.7014 62.6799 63.3583 63.2127 63.8354C66.5305 66.8174 70.8101 68.3283 75.2644 68.0915ZM74.3545 71.172C69.473 71.1737 64.8249 69.3966 61.1681 66.1087C60.0281 65.0853 59.3552 63.6781 59.2739 62.1482C59.1926 60.6183 59.7116 59.149 60.7373 58.0103C62.8529 55.6591 66.489 55.4658 68.8416 57.58C70.4866 59.0591 72.6074 59.8093 74.8181 59.69C77.0288 59.5742 79.0597 58.6035 80.5387 56.9592C81.5645 55.8202 82.9708 55.1481 84.5017 55.0668C86.0326 54.9859 87.5029 55.505 88.6429 56.5293C90.9954 58.6437 91.1892 62.2762 89.0736 64.6289C85.5448 68.5513 80.6978 70.8643 75.427 71.1443C75.0689 71.1633 74.7109 71.172 74.3545 71.172Z" fill="#F9696A"/>
<path d="M17.0124 41.673C19.7005 41.0922 22.2018 39.8565 24.2967 38.0759C24.9886 37.4871 25.1927 36.503 24.7897 35.6883C24.3036 34.7071 23.1152 34.3046 22.1326 34.7895L15.715 37.9589C14.7325 38.4438 14.3294 39.6324 14.8155 40.6138C15.2186 41.4284 16.1232 41.8651 17.0124 41.673Z" fill="white"/>
<path d="M16.4855 40.6083C19.1736 40.0275 21.675 38.792 23.7698 37.0114C24.306 36.5551 24.5482 35.8615 24.4427 35.1934C24.5793 35.3358 24.6969 35.5011 24.7886 35.6873C25.1917 36.502 24.9875 37.4861 24.2956 38.0749C22.2008 39.8555 19.6995 41.0912 17.0113 41.672C16.1222 41.864 15.2175 41.4274 14.8145 40.6128C14.7228 40.4265 14.6622 40.2329 14.6328 40.0379C15.0999 40.5274 15.797 40.7572 16.4855 40.6083Z" fill="#8ECAE6"/>
<path d="M24.4067 35.8765C24.7233 36.5172 24.5641 37.288 24.0193 37.7511C23.0073 38.6115 21.8864 39.348 20.6876 39.9405C19.4871 40.5329 18.2209 40.9754 16.9218 41.2562C16.2229 41.4071 15.5137 41.0653 15.1971 40.4247C14.8166 39.6554 15.1331 38.7202 15.9029 38.3401L22.3205 35.1707C23.0903 34.7905 24.0262 35.1072 24.4067 35.8765ZM14.4326 40.8019C14.9221 41.7931 16.0205 42.3223 17.1017 42.0885C18.4682 41.7931 19.8019 41.3274 21.0647 40.704C22.3275 40.0807 23.5072 39.3054 24.5711 38.3997C25.4152 37.6832 25.6608 36.4904 25.1713 35.4991C24.5814 34.3089 23.1353 33.819 21.9435 34.4071L15.5258 37.5765C14.3339 38.1648 13.8444 39.6117 14.4326 40.8019Z" fill="#231F20"/>
<path d="M19.8858 26.1515C19.8858 26.1515 17.3395 21.7627 16.7773 19.1038C16.7773 19.1038 14.7275 11.6847 12.7088 10.8746C11.4668 10.3757 10.9807 11.1849 10.7922 11.9457C10.6676 12.4496 10.6659 12.9755 10.761 13.4856C11.0291 14.9126 11.9529 19.5035 13.5564 23.7461C13.6083 23.8825 13.4423 23.996 13.3333 23.8989C11.9287 22.6444 7.41209 18.588 4.87097 15.9995C4.87097 15.9995 2.78652 14.0678 1.96139 16.2574C1.26946 18.0889 12.1345 30.4316 12.1345 30.4316L19.8858 26.1515Z" fill="white"/>
<path d="M11.9216 11.3893C11.797 11.8932 11.7936 12.4191 11.8904 12.9292C12.1568 14.3563 13.4335 20.1766 15.037 24.4191C15.0889 24.5555 14.9436 24.6387 14.8156 24.572C14.3416 24.3287 14.0164 24.1037 13.558 23.7462C12.3402 20.0689 10.9926 14.7141 10.7626 13.4857C10.6674 12.9756 10.6692 12.4497 10.7937 11.9458C10.9529 11.3037 11.3231 10.6273 12.1811 10.7314C12.06 10.931 11.977 11.1622 11.9216 11.3893Z" fill="#8ECAE6"/>
<path d="M1.96139 16.2575C2.28833 15.3886 2.81418 15.1691 3.32967 15.2197C3.24145 15.3518 3.16016 15.5105 3.08751 15.701C2.42153 17.4689 12.5203 29.0301 13.2226 29.831L12.1345 30.4317C12.1345 30.4317 1.26946 18.089 1.96139 16.2575Z" fill="#8ECAE6"/>
<path d="M12.2272 29.8931C11.5958 29.1669 9.30032 26.5137 7.12074 23.766C2.15614 17.5076 2.32392 16.502 2.35852 16.4078C2.49518 16.0475 2.67163 15.8112 2.88613 15.7058C2.92764 15.6849 2.97258 15.669 3.01755 15.6581C3.56937 15.5279 4.34779 16.0985 4.57786 16.3089C7.13108 18.9092 11.7065 23.0194 13.0489 24.217C13.2218 24.3714 13.4675 24.4049 13.675 24.3024C13.6993 24.2906 13.7235 24.277 13.7459 24.2614C13.9604 24.114 14.047 23.8405 13.9553 23.5962C12.4071 19.5029 11.4989 15.1073 11.1789 13.4075C11.0907 12.9343 11.0993 12.4771 11.2048 12.0484C11.3104 11.6224 11.4902 11.3258 11.7117 11.2126L11.6425 11.0556L11.7186 11.2091C11.921 11.1094 12.1995 11.1298 12.5489 11.27C13.874 11.8021 15.5934 16.4227 16.3649 19.2104C16.8406 21.4547 18.6362 24.7963 19.3022 25.9873L12.2272 29.8931ZM2.90167 19.4774C3.72334 20.7409 4.91865 22.3623 6.45301 24.2963C9.07024 27.5957 11.7861 30.6825 11.8137 30.7132L12.0386 30.9703L20.4715 26.3144L20.2536 25.9382C20.2294 25.8949 17.735 21.5794 17.1935 19.0162L17.1883 18.9948C17.1831 18.973 16.6676 17.1088 15.8961 15.1384C14.8219 12.3905 13.8307 10.8667 12.8672 10.4796C12.2825 10.2454 11.7705 10.234 11.3415 10.4454L11.3259 10.4532C10.8675 10.6884 10.5492 11.1559 10.378 11.8437C10.243 12.3921 10.2309 12.971 10.3417 13.5645C10.6323 15.1085 11.428 18.9837 12.7669 22.8199C10.8969 21.1391 7.31967 17.8862 5.17468 15.7015L5.16083 15.6875C5.11067 15.6415 3.93438 14.5676 2.82383 14.829C2.7114 14.8553 2.60413 14.894 2.50207 14.9441C2.0921 15.1462 1.77555 15.5376 1.56105 16.1077C1.4071 16.5186 1.44342 17.2403 2.90167 19.4774Z" fill="#231F20"/>
<path d="M23.7166 34.0819C23.7166 34.0819 23.6543 37.0505 19.5702 38.4651C17.9442 39.0287 16.5915 39.1514 15.5553 39.0951C14.3686 39.0308 13.2321 38.5986 12.2963 37.8673C10.6979 36.6184 7.30744 33.881 6.43906 32.4723C5.29046 30.6105 19.9681 27.7664 19.9681 27.7664C19.9681 27.7664 23.5851 27.1429 23.7166 34.0819Z" fill="white"/>
<path d="M6.02485 31.9073C6.13902 31.6475 6.40023 31.2851 7.41218 30.7852C7.77544 30.6063 8.21656 30.419 8.72513 30.2284C9.89796 29.7884 11.4669 29.3142 13.3887 28.8188C16.6547 27.9764 19.8617 27.3529 19.8963 27.3463C19.943 27.3382 21.057 27.1577 22.1416 28.0544C23.4148 29.1047 24.0877 31.1299 24.1431 34.0897C24.1431 34.1247 24.1189 34.9518 23.5463 35.9538C23.503 36.0274 23.4408 36.0864 23.3646 36.1241C23.2384 36.1868 23.0879 36.1825 22.965 36.112C22.7609 35.9955 22.69 35.7348 22.8059 35.531C23.2539 34.7484 23.2903 34.0986 23.292 34.0827C23.228 30.7565 22.3423 29.3303 21.6106 28.7197C20.8357 28.0736 20.0711 28.1809 20.0468 28.1847C19.9154 28.2101 16.8086 28.8167 13.6015 29.6434C10.8943 30.3418 8.93787 30.984 7.78581 31.5525C7.01603 31.9327 6.84652 32.1681 6.80501 32.2532C7.65435 33.6232 11.1106 36.4 12.5601 37.5314C12.5965 37.5597 12.6328 37.5874 12.6691 37.6147C13.6534 38.3451 14.8971 38.7064 16.1685 38.6322L17.5507 38.5515C17.6631 38.5449 17.7721 38.583 17.8586 38.6585C17.9433 38.7342 17.9935 38.8383 18.0004 38.9515C18.0108 39.1228 17.9174 39.2826 17.7635 39.3586C17.7116 39.3839 17.6562 39.3984 17.5991 39.4018L16.2187 39.4824C14.7466 39.5683 13.3074 39.1477 12.1605 38.2986C12.119 38.2671 12.0758 38.235 12.0343 38.2023C10.1885 36.7599 6.95897 34.1264 6.07676 32.695C5.92626 32.4525 5.90896 32.1726 6.02485 31.9073Z" fill="#231F20"/>
<path d="M13.1315 31.5933C13.1315 31.5933 14.8683 32.7181 14.4081 34.1751C14.1659 34.9438 13.346 35.0963 12.6247 35.0686C12.0313 35.046 11.4519 34.8925 10.9156 34.6392L6.81592 32.7055C5.9735 32.3077 5.48739 31.3782 5.70361 30.4715C5.83162 29.9341 6.20008 29.4077 7.05289 29.0996L13.1315 31.5933Z" fill="white"/>
<path d="M5.70361 30.4705C5.74167 30.3101 5.80223 30.1509 5.88872 29.9981C5.96656 30.6707 6.399 31.2799 7.04077 31.5821L11.1388 33.5158C11.675 33.769 12.2562 33.9225 12.8495 33.9452C13.4463 33.968 14.1123 33.8667 14.4618 33.3925C14.5033 33.6378 14.4946 33.9001 14.4081 34.1741C14.1659 34.9428 13.346 35.0953 12.6247 35.0676C12.0313 35.045 11.4519 34.8915 10.9156 34.6382L6.81592 32.7045C5.9735 32.3067 5.48739 31.3772 5.70361 30.4705Z" fill="#8ECAE6"/>
<path d="M6.93702 29.6096C6.97335 29.5918 7.01139 29.5745 7.04945 29.5579L12.9291 31.9695C13.1298 32.1119 14.3303 33.0099 14.0016 34.0463C13.9393 34.2479 13.8096 34.3945 13.609 34.494C13.3772 34.6083 13.052 34.6584 12.642 34.6427C12.1213 34.6226 11.6006 34.492 11.0973 34.2537L6.99754 32.32C6.32291 32.0011 5.95275 31.2652 6.11709 30.5697C6.21742 30.1521 6.49246 29.8292 6.93702 29.6096ZM6.63431 33.0902L10.734 35.0239C11.3429 35.3112 11.9726 35.4692 12.6091 35.4937C13.1644 35.515 13.6297 35.4348 13.993 35.2553C14.3978 35.0557 14.6815 34.7262 14.8147 34.3027C15.3665 32.5569 13.4463 31.2885 13.3633 31.2355L13.3305 31.214L7.06157 28.6426L6.90759 28.6988C6.78304 28.7437 6.66199 28.7945 6.55128 28.8497C5.87491 29.1838 5.44937 29.6961 5.28849 30.3727C5.03075 31.4574 5.59641 32.6002 6.63431 33.0902Z" fill="#231F20"/>
<path d="M8.69944 25.977C8.69944 25.977 15.7364 28.5255 16.373 30.0177C16.6117 30.5771 16.501 31.0417 16.2674 31.4039C15.8644 32.0318 15.0963 32.3232 14.3664 32.1643C12.5898 31.7773 8.32579 30.7299 7.05264 29.35C5.43006 27.5918 7.24813 26.2922 7.24813 26.2922C7.24813 26.2922 7.95735 25.6977 8.69944 25.977Z" fill="white"/>
<path d="M6.57136 27.1035C6.64055 27.4562 6.83083 27.8455 7.21312 28.2604C8.488 29.6402 12.752 30.6876 14.5286 31.0745C15.2568 31.2334 16.0249 30.9421 16.4279 30.3142C16.4383 30.2988 16.447 30.2829 16.4573 30.2672C16.5732 30.7174 16.4642 31.0985 16.267 31.4057C15.864 32.0336 15.096 32.325 14.366 32.1662C12.5894 31.7791 8.32541 30.7317 7.05226 29.3519C6.21156 28.4398 6.29459 27.6513 6.57136 27.1035Z" fill="#8ECAE6"/>
<path d="M15.9105 31.1744C15.7842 31.371 15.6026 31.531 15.3881 31.6375C15.1027 31.7779 14.774 31.8175 14.4592 31.749C13.1047 31.4541 8.59163 30.3885 7.36691 29.0621C6.95521 28.6166 6.77013 28.1781 6.81338 27.758C6.88084 27.0947 7.49146 26.6435 7.49838 26.639L7.51912 26.6229C7.52604 26.6176 7.62637 26.5374 7.77859 26.4617C7.97579 26.3643 8.2699 26.2706 8.55013 26.3764C11.8818 27.5831 15.6147 29.3268 15.9832 30.1854C16.1354 30.545 16.1129 30.8593 15.9105 31.1744ZM6.7407 29.6395C8.04844 31.0557 12.0236 32.0904 14.2776 32.581C14.7792 32.6903 15.3086 32.6262 15.7652 32.4002C16.1198 32.2253 16.4174 31.9606 16.6267 31.6351C16.9813 31.0844 17.0297 30.4676 16.7651 29.8513C16.6388 29.5543 16.3032 28.7655 12.4734 27.0501C10.6484 26.233 8.86495 25.5845 8.84765 25.5781C8.282 25.366 7.7492 25.5258 7.4015 25.6972C7.18008 25.8072 7.02615 25.9253 6.98636 25.9586C6.89814 26.0234 6.06952 26.6622 5.964 27.6709C5.89481 28.3442 6.15601 29.0065 6.7407 29.6395Z" fill="#231F20"/>
<path d="M10.7525 26.2696L14.4802 25.6832C14.4802 25.6832 18.2322 24.5328 19.4569 25.3842C20.6799 26.2356 25.264 27.7865 23.5584 34.8016C23.5584 34.8016 19.0435 34.0503 17.1857 30.2179C16.9954 29.8236 16.6598 29.5182 16.2481 29.3648L15.4731 29.0746C15.2621 28.9961 15.0338 28.9859 14.8176 29.0462C13.9976 29.2762 11.8042 29.7362 10.903 28.4033C9.78376 26.7479 10.7525 26.2696 10.7525 26.2696Z" fill="white"/>
<path d="M10.7525 26.2686L11.1313 26.209C11.1711 26.5138 11.3181 26.9064 11.6572 27.4072C12.4702 28.6095 14.335 28.3529 15.295 28.1223C15.7136 28.0217 16.153 28.0509 16.5577 28.2018C16.5664 28.2051 16.5733 28.2084 16.582 28.2115C17.2635 28.466 18.0385 28.9068 18.1371 29.6263C18.3983 31.5439 18.6958 31.9192 18.3014 31.8855C17.6683 31.8312 17.4988 30.8604 17.1909 30.2263C16.9972 29.829 16.6633 29.5186 16.2481 29.3639L15.4714 29.0734C15.2604 28.9946 15.0303 28.986 14.8141 29.0466C13.989 29.2769 11.8025 29.7326 10.903 28.4024C9.78376 26.747 10.7525 26.2686 10.7525 26.2686Z" fill="#8ECAE6"/>
<path d="M9.98563 26.6459C10.1257 26.1178 10.5202 25.9097 10.5651 25.8877L10.6222 25.859L14.3915 25.267C14.7669 25.176 18.1124 24.395 19.6139 24.9881C21.1413 25.5914 25.7911 27.427 23.9748 34.9022C23.9436 35.0249 23.8623 35.1274 23.7499 35.1832C23.6599 35.2273 23.5579 35.2387 23.4593 35.2154C23.2309 35.1599 23.0908 34.9291 23.1462 34.7011C24.7878 27.9471 20.8023 26.3728 19.3008 25.7802C18.2231 25.3544 15.5297 25.8644 14.5679 26.0997L10.9163 26.675C10.8817 26.7087 10.8315 26.7714 10.8073 26.8736C10.7658 27.0454 10.7675 27.4418 11.2571 28.1649C12.0165 29.2862 14.0871 28.809 14.7046 28.6362C15.009 28.5511 15.3256 28.5648 15.6231 28.6756L16.3998 28.9658C16.9153 29.1589 17.3322 29.538 17.5727 30.0347C17.59 30.0724 18.0259 30.9623 18.5102 31.475C18.5881 31.5578 18.6296 31.6661 18.6261 31.7798C18.6227 31.8935 18.5742 31.999 18.4912 32.0775C18.4618 32.1063 18.4255 32.1307 18.3891 32.1492C18.2196 32.2327 18.019 32.1966 17.8892 32.0597C17.3149 31.4507 16.8548 30.5085 16.8046 30.4036C16.6593 30.1066 16.4102 29.8793 16.1006 29.7635L15.3239 29.4734C15.1976 29.426 15.0627 29.4201 14.9347 29.4563C13.966 29.7275 11.5996 30.1913 10.5513 28.6419C10.0289 27.8705 9.83859 27.1991 9.98563 26.6459Z" fill="#231F20"/>
<path d="M23.6737 35.0287C23.7377 34.9966 23.7896 34.9367 23.8087 34.8605C25.5886 27.5305 21.0444 25.7361 19.5515 25.1465C18.0829 24.5669 14.6873 25.3703 14.4313 25.4324L10.6758 26.0231L10.6412 26.0404C10.6031 26.0587 10.271 26.2338 10.1517 26.6886C10.0185 27.1917 10.2001 27.8164 10.6931 28.5449C11.6791 30.0022 13.9555 29.5517 14.8879 29.2903C15.0523 29.2443 15.2235 29.2519 15.3844 29.3119L16.1611 29.6022C16.5123 29.7334 16.7959 29.9911 16.9585 30.3277C16.9776 30.3673 17.4429 31.335 18.0137 31.9409C18.1106 32.0433 18.2714 32.0479 18.3735 31.9516C18.4773 31.855 18.4808 31.6941 18.3856 31.5917C17.8684 31.0444 17.4221 30.1165 17.417 30.1071C17.1955 29.6509 16.8132 29.3028 16.3392 29.1252L15.5625 28.8352C15.2996 28.737 15.0194 28.7249 14.7513 28.8001C14.106 28.9807 11.9386 29.4756 11.1152 28.2597C10.6152 27.5207 10.5806 27.0754 10.6412 26.832C10.6862 26.6458 10.7934 26.5486 10.8436 26.512L14.542 25.9296C14.5766 25.9211 18.0207 25.0894 19.363 25.62C20.9026 26.2274 24.9884 27.8412 23.3122 34.7404C23.2793 34.8769 23.3641 35.0147 23.5007 35.0477C23.5613 35.0624 23.6218 35.0543 23.6737 35.0287Z" fill="#231F20"/>
<path d="M64.302 20.9668C64.1273 20.9668 63.9508 20.9226 63.7882 20.8296C63.29 20.5452 63.1188 19.9115 63.4025 19.4143L67.9519 11.4696C68.2373 10.9726 68.8704 10.7997 69.3686 11.0846C69.8651 11.3689 70.0381 12.0027 69.7544 12.4999L65.2049 20.4446C65.0129 20.7792 64.6635 20.9668 64.302 20.9668Z" fill="white"/>
<path d="M70.2324 10.5403C70.0577 10.5403 69.8813 10.4962 69.7187 10.4032C69.2205 10.1186 69.0475 9.48489 69.3329 8.98772L69.9557 7.90125C70.2394 7.40407 70.8742 7.23137 71.3707 7.51626C71.8689 7.80063 72.0418 8.43437 71.7564 8.93154L71.1354 10.018C70.9434 10.3529 70.5922 10.5403 70.2324 10.5403Z" fill="white"/>
</svg>
