<svg width="24" height="24" viewBox="0 0 24 24" fill="none" xmlns="http://www.w3.org/2000/svg">
<path d="M11.6412 13.3566C14.0081 13.3566 15.9269 11.4378 15.9269 9.07087C15.9269 6.70394 14.0081 4.78516 11.6412 4.78516C9.27425 4.78516 7.35547 6.70394 7.35547 9.07087C7.35547 11.4378 9.27425 13.3566 11.6412 13.3566Z" fill="#FFD800"/>
<path d="M18.9651 20.0413C17.0069 21.75 14.4457 22.7849 11.6428 22.7849C8.83979 22.7849 6.27854 21.75 4.32031 20.0413C5.82528 17.5745 8.54169 15.9277 11.6428 15.9277C14.7438 15.9277 17.4602 17.5745 18.9651 20.0413Z" fill="#FFD800"/>
<path d="M11.6412 13.3566C14.0081 13.3566 15.9269 11.4378 15.9269 9.07087C15.9269 6.70394 14.0081 4.78516 11.6412 4.78516C9.27425 4.78516 7.35547 6.70394 7.35547 9.07087C7.35547 11.4378 9.27425 13.3566 11.6412 13.3566Z" stroke="#252525" stroke-linecap="round" stroke-linejoin="round"/>
<path d="M4.32422 20.0436C5.0892 18.7879 6.16435 17.7501 7.44629 17.0301C8.72824 16.3099 10.1739 15.9316 11.6442 15.9316C13.1146 15.9316 14.5602 16.3099 15.8421 17.0301C17.1241 17.7501 18.1992 18.7879 18.9643 20.0436" stroke="#252525" stroke-linecap="round" stroke-linejoin="round"/>
<path d="M11.6429 22.7857C17.797 22.7857 22.7857 17.797 22.7857 11.6429C22.7857 5.48883 17.797 0.5 11.6429 0.5C5.48883 0.5 0.5 5.48883 0.5 11.6429C0.5 17.797 5.48883 22.7857 11.6429 22.7857Z" stroke="#252525" stroke-linecap="round" stroke-linejoin="round"/>
</svg>
