<svg width="126" height="126" viewBox="0 0 126 126" fill="none" xmlns="http://www.w3.org/2000/svg">
<g clip-path="url(#clip0_738_11613)">
<path d="M108.856 87.7638C103.715 108.504 90.3934 125.867 68.0878 125.867C53.0154 125.867 36.7854 118.145 27.6254 106.216C18.6985 94.5878 16.9944 85.2045 13.8945 70.0446C12.6877 64.1494 14.2389 46.6677 18.6985 42.612C17.5797 48.3988 28.6872 64.7222 33.758 64.4229C44.7774 63.765 39.0825 36.8638 39.6056 30.6177C39.963 26.3453 40.2893 20.899 41.8639 16.8923C42.8739 14.3201 44.5417 11.557 45.9298 9.6917C46.6135 18.0869 53.1941 32.5011 62.7193 34.2632C74.6088 36.4639 71.2422 5.43991 69.2688 -0.132801C79.2057 4.43114 85.895 14.4698 88.288 25.1069C89.9195 32.3489 87.9565 39.903 87.0786 47.1114C86.558 51.3812 86.4777 56.02 88.8396 59.6191C91.204 63.2181 96.8601 64.8847 99.9315 61.8636C102.736 59.103 103.713 54.6268 103.565 50.9555C103.469 48.5975 101.555 37.6507 99.9989 36.242C116.25 50.9529 113.538 68.8682 108.856 87.7638Z" fill="#FEE440"/>
<path d="M68.0898 118.125C55.2083 118.125 41.4256 111.448 33.7988 101.51C26.2341 91.6576 24.6569 83.9254 21.7926 69.8879L21.5078 68.4973C21.3835 67.8858 21.2773 66.6784 21.2695 65.0195C25.5297 69.826 29.5801 72.166 33.6201 72.166C33.8195 72.166 34.0215 72.1582 34.2183 72.1479C37.9139 71.9261 41.1382 70.342 43.5518 67.5659C49.2286 61.0309 48.7961 49.95 47.7162 37.205C47.597 35.8144 47.452 34.091 47.3821 32.8165C50.9637 37.2953 55.5968 40.8143 61.302 41.8721C62.1696 42.0321 63.0398 42.112 63.8866 42.112C68.1778 42.112 71.977 40.0894 74.5849 36.4155C77.2835 32.6178 78.5032 26.9651 78.8787 21.0957C79.6453 22.9068 80.2643 24.8186 80.7097 26.8C81.6524 30.9847 80.9013 35.8582 80.1063 41.0181C79.8499 42.6951 79.5806 44.4314 79.3682 46.1755C78.7389 51.3406 78.5084 58.0201 82.3413 63.8559C85.2599 68.2986 90.5741 71.1701 95.8805 71.1701C99.1203 71.1701 102.153 70.102 104.535 68.1387C104.142 73.3476 102.979 79.1938 101.314 85.9068C98.9209 95.5636 94.7799 103.618 89.3388 109.199C83.561 115.12 76.4133 118.125 68.0898 118.125Z" fill="#F77F00"/>
<path d="M35.7256 54.9497C35.7256 56.6086 34.3763 57.9528 32.7137 57.9528C31.0485 57.9528 29.6992 56.6086 29.6992 54.9497C29.6992 53.2934 31.0485 51.9492 32.7137 51.9492C34.3763 51.9492 35.7256 53.2934 35.7256 54.9497Z" fill="#FEE440"/>
<path d="M99.6969 23.0129C99.6969 24.6718 98.3477 26.0159 96.6825 26.0159C95.0172 26.0159 93.668 24.6718 93.668 23.0129C93.668 21.3539 95.0172 20.0098 96.6825 20.0098C98.3477 20.0098 99.6969 21.3539 99.6969 23.0129Z" fill="#FEE440"/>
<path d="M64.9743 26.0148C64.9743 27.6737 63.625 29.0178 61.9598 29.0178C60.2946 29.0178 58.9453 27.6737 58.9453 26.0148C58.9453 24.3559 60.2946 23.0117 61.9598 23.0117C63.625 23.0117 64.9743 24.3559 64.9743 26.0148Z" fill="#F77F00"/>
<path d="M36.1019 37.7397C36.1019 38.8826 35.1722 39.8088 34.0223 39.8088C32.875 39.8088 31.9453 38.8826 31.9453 37.7397C31.9453 36.5942 32.875 35.668 34.0223 35.668C35.1722 35.668 36.1019 36.5942 36.1019 37.7397Z" fill="#FFF4B3"/>
<path d="M54.9326 3.90962C54.9326 5.05254 54.0003 5.98133 52.853 5.98133C51.7058 5.98133 50.7734 5.05254 50.7734 3.90962C50.7734 2.76669 51.7058 1.8379 52.853 1.8379C54.0003 1.8379 54.9326 2.76669 54.9326 3.90962Z" fill="#FFF4B3"/>
<path d="M22.3681 33.8017C22.3681 35.8218 20.7261 37.4575 18.6984 37.4575C16.6732 37.4575 15.0313 35.8218 15.0313 33.8017C15.0313 31.7842 16.6732 30.1484 18.6984 30.1484C20.7261 30.1484 22.3681 31.7842 22.3681 33.8017Z" fill="#F77F00"/>
<path d="M99.1493 54.9501C99.1493 56.9702 97.5074 58.6059 95.4822 58.6059C93.4544 58.6059 91.8125 56.9702 91.8125 54.9501C91.8125 52.9326 93.4544 51.2969 95.4822 51.2969C97.5074 51.2969 99.1493 52.9326 99.1493 54.9501Z" fill="#F77F00"/>
<path d="M52.137 88.8757H48.5035C46.1391 88.8757 44.2227 86.9665 44.2227 84.611V66.7784C44.2227 64.4229 46.1391 62.5137 48.5035 62.5137H52.137C54.5014 62.5137 56.4204 64.4229 56.4204 66.7784V84.611C56.4204 86.9665 54.5014 88.8757 52.137 88.8757Z" fill="white"/>
<path d="M56.4196 82.7063H51.4576C49.9607 82.7063 48.7461 81.4963 48.7461 80.0051V71.3829C48.7461 69.8916 49.9607 68.6817 51.4576 68.6817H56.4196V82.7063Z" fill="#231F20"/>
<path d="M48.832 70.6438L52.5794 72.8496L49.451 69.5215C49.1583 69.8337 48.9434 70.2181 48.832 70.6438Z" fill="white"/>
<path d="M80.7034 88.8757H77.0699C74.7055 88.8757 72.7891 86.9665 72.7891 84.611V66.7784C72.7891 64.4229 74.7055 62.5137 77.0699 62.5137H80.7034C83.0678 62.5137 84.9842 64.4229 84.9842 66.7784V84.611C84.9842 86.9665 83.0678 88.8757 80.7034 88.8757Z" fill="white"/>
<path d="M84.9834 82.7063H80.4254C78.7058 82.7063 77.3125 81.3183 77.3125 79.6052V71.7827C77.3125 70.0696 78.7058 68.6817 80.4254 68.6817H84.9834V82.7063Z" fill="#231F20"/>
<path d="M77.3984 70.6457L81.1458 72.8516L78.0174 69.5234C77.7248 69.8356 77.5098 70.22 77.3984 70.6457Z" fill="white"/>
<path d="M57.9369 58.8631C55.9039 56.8378 53.2002 55.7207 50.323 55.7207C47.4457 55.7207 44.742 56.8378 42.7065 58.8631C42.4915 59.0772 42.375 59.3636 42.375 59.6654C42.375 59.9699 42.4915 60.2537 42.7065 60.4678C42.9214 60.6819 43.2089 60.8006 43.5119 60.8006C43.8175 60.8006 44.1024 60.6819 44.3173 60.4678C45.9204 58.8708 48.0543 57.9911 50.323 57.9911C52.5916 57.9911 54.723 58.8708 56.3286 60.4678C56.5436 60.6819 56.8285 60.8006 57.1315 60.8006C57.437 60.8006 57.7219 60.6819 57.9369 60.4678C58.1518 60.2537 58.271 59.9699 58.271 59.6654C58.271 59.3636 58.1518 59.0772 57.9369 58.8631Z" fill="#231F20"/>
<path d="M86.9004 58.8611C84.8648 56.8359 82.1611 55.7188 79.2839 55.7188C76.4093 55.7188 73.703 56.8359 71.67 58.8611C71.4551 59.0753 71.3359 59.3616 71.3359 59.6635C71.3359 59.9679 71.4551 60.2517 71.67 60.4659C71.885 60.68 72.1699 60.7987 72.4754 60.7987C72.7784 60.7987 73.0633 60.68 73.2809 60.4659C74.8839 58.8689 77.0153 57.9891 79.2839 57.9891C81.5525 57.9891 83.6865 58.8689 85.2896 60.4659C85.5045 60.68 85.7894 60.7987 86.095 60.7987C86.398 60.7987 86.6854 60.68 86.9004 60.4659C87.1153 60.2517 87.2345 59.9679 87.2345 59.6635C87.2345 59.3616 87.1153 59.0753 86.9004 58.8611Z" fill="#231F20"/>
<path d="M63.9934 109.546C58.138 109.546 52.6347 107.276 48.4937 103.15C46.5177 101.182 46.5177 97.9904 48.4937 96.0194C50.4697 94.0509 53.6732 94.0509 55.6518 96.0194C57.879 98.2407 60.8417 99.4636 63.9934 99.4636C67.1452 99.4636 70.1078 98.2407 72.335 96.0194C74.311 94.0509 77.5171 94.0509 79.4931 96.0219C81.4691 97.9905 81.4691 101.182 79.4931 103.15C75.3521 107.276 69.8489 109.546 63.9934 109.546Z" fill="white"/>
<path d="M64.2455 108.412C58.6931 108.412 53.4747 106.26 49.5513 102.349C48.0207 100.827 48.0207 98.3476 49.5513 96.8228C50.2893 96.0875 51.2734 95.6825 52.3249 95.6825C53.3737 95.6825 54.3579 96.0875 55.0959 96.8228C57.5407 99.2583 60.7882 100.597 64.2455 100.597C67.7003 100.597 70.9478 99.2583 73.3926 96.8228C74.1332 96.0849 75.1174 95.6799 76.1662 95.6799C77.2125 95.6799 78.1966 96.0849 78.9398 96.8228C80.4678 98.3476 80.4678 100.827 78.9398 102.349C75.0138 106.26 69.7954 108.412 64.2455 108.412ZM80.5481 95.2207C79.3775 94.0545 77.8211 93.4121 76.1662 93.4121C74.5088 93.4121 72.9523 94.0545 71.7817 95.2207C69.7695 97.2253 67.0917 98.3295 64.2455 98.3295C61.3968 98.3295 58.7216 97.2253 56.7068 95.2207C55.5388 94.0545 53.9823 93.4121 52.3249 93.4121C50.6648 93.4121 49.1084 94.0545 47.9404 95.2207C46.7699 96.3868 46.125 97.9373 46.125 99.5859C46.125 101.237 46.7699 102.788 47.9404 103.954C52.2964 108.293 58.0845 110.682 64.2455 110.682C70.404 110.682 76.1947 108.293 80.5481 103.954C82.9669 101.547 82.9669 97.6278 80.5481 95.2207Z" fill="#231F20"/>
<path d="M65.1306 98.957H62.8516V110.051H65.1306V98.957Z" fill="#231F20"/>
<path d="M57.19 96.877L52.2617 106.823L54.3025 107.826L59.2308 97.8806L57.19 96.877Z" fill="#231F20"/>
<path d="M71.0043 96.875L68.9609 97.8786L73.8893 107.824L75.9326 106.821L71.0043 96.875Z" fill="#231F20"/>
</g>
<defs>
<clipPath id="clip0_738_11613">
<rect width="126" height="126" fill="white" transform="matrix(-1 -8.74228e-08 -8.74228e-08 1 126 1.10153e-05)"/>
</clipPath>
</defs>
</svg>
