<svg width="20" height="20" viewBox="0 0 20 20" fill="none" xmlns="http://www.w3.org/2000/svg">
<g clip-path="url(#clip0_1329_26755)">
<path d="M1.42969 5H18.5725" stroke="#252525" stroke-linecap="round" stroke-linejoin="round"/>
<path d="M3.57422 5H16.4314V17.8571C16.4314 18.236 16.2808 18.5994 16.0129 18.8673C15.7451 19.1351 15.3816 19.2857 15.0028 19.2857H5.00279C4.6239 19.2857 4.26055 19.1351 3.99263 18.8673C3.72473 18.5994 3.57422 18.236 3.57422 17.8571V5Z" stroke="#252525" stroke-linecap="round" stroke-linejoin="round"/>
<path d="M6.42969 5.00056V4.28627C6.42969 3.33907 6.80596 2.43066 7.47573 1.76089C8.1455 1.09112 9.05392 0.714844 10.0011 0.714844C10.9483 0.714844 11.8567 1.09112 12.5265 1.76089C13.1963 2.43066 13.5725 3.33907 13.5725 4.28627V5.00056" stroke="#252525" stroke-linecap="round" stroke-linejoin="round"/>
<path d="M7.85938 9.28906V15.0055" stroke="#252525" stroke-linecap="round" stroke-linejoin="round"/>
<path d="M12.1445 9.28906V15.0055" stroke="#252525" stroke-linecap="round" stroke-linejoin="round"/>
</g>
<defs>
<clipPath id="clip0_1329_26755">
<rect width="20" height="20" fill="white"/>
</clipPath>
</defs>
</svg>
