<svg width="40" height="29" viewBox="0 0 40 29" fill="none" xmlns="http://www.w3.org/2000/svg">
<g clip-path="url(#clip0_836_11315)">
<path d="M14.0674 22.8244C9.52819 20.2028 5.40332 16.9632 1.80745 13.1959C0.574174 11.9041 -0.127717 9.90972 0.0193094 8.11548C0.132685 6.73026 0.740518 5.55389 1.73087 4.8019L1.75284 4.78522C1.55114 4.27143 1.48357 3.70627 1.56111 3.12843C1.68356 2.21596 2.15331 1.3927 2.88401 0.810059L2.92394 0.778162C4.04753 -0.117824 5.54346 -0.251606 6.73537 0.436798C7.06034 0.624496 7.34716 0.866642 7.58784 1.1567C7.83786 1.45803 8.09458 1.75976 8.35396 2.05709C9.24206 2.07263 10.105 2.31044 10.8742 2.75476C11.2964 2.99831 11.6812 3.30125 12.0178 3.65356C14.7308 6.49538 17.8428 8.93887 21.2674 10.9166C24.6919 12.895 28.383 14.3803 32.2383 15.3318C32.7168 15.4506 33.1737 15.6341 33.596 15.8776C34.3301 16.302 34.9396 16.8932 35.379 17.6031C35.7238 17.6712 36.0629 17.7346 36.3917 17.7926C36.7676 17.8587 37.123 17.9875 37.448 18.175C38.6399 18.8636 39.2418 20.2088 38.9812 21.6026L38.9717 21.654C38.6936 23.1413 37.5162 24.257 36.1193 24.5132C36.1137 24.65 36.0999 24.7861 36.078 24.9216L36.0637 25.0103C35.8756 26.1747 35.201 27.1615 34.1129 27.8635C32.6346 28.8177 30.4744 29.1366 28.6096 28.6762C23.4993 27.4144 18.6066 25.446 14.0674 22.8244Z" fill="white"/>
<path d="M29.9241 24.3082C20.4112 21.9608 11.7882 16.9804 5.0944 9.96762C3.39342 8.18605 3.62209 5.36157 5.59152 3.86692C5.61405 3.84957 5.63657 3.83289 5.65903 3.81554C7.38977 2.50219 9.85959 2.69523 11.3545 4.2606C16.9253 10.0957 24.101 14.24 32.0172 16.1951C34.1415 16.7195 35.5059 18.7407 35.1641 20.8565C35.1596 20.8839 35.1551 20.9119 35.1507 20.9392C34.7617 23.3467 32.3415 24.9054 29.9241 24.3082Z" fill="#F77F00"/>
<path d="M35.0852 23.6427C22.4027 21.4134 11.0943 14.8817 2.97768 5.09841C2.10255 4.04349 2.32296 2.40492 3.46026 1.49799C3.47371 1.48731 3.48716 1.47657 3.5006 1.46582C4.56986 0.613142 6.05978 0.724171 6.88263 1.71578C14.3027 10.658 24.6393 16.6279 36.2319 18.667C37.5174 18.8932 38.3357 20.1149 38.0876 21.4421C38.0845 21.4588 38.0814 21.4755 38.0783 21.4921C37.8144 22.9034 36.4525 23.8829 35.0852 23.6427Z" fill="#F9696A"/>
<path d="M28.8333 27.8135C18.7342 25.3207 9.57979 20.0334 2.47343 12.5888C0.667607 10.6972 0.198882 7.09067 2.28961 5.50394C2.31357 5.48593 2.33746 5.46791 2.36142 5.44922C4.1987 4.05533 7.07344 5.62671 8.66049 7.2895C14.5745 13.4843 22.1925 17.8841 30.5965 19.9586C32.8518 20.5158 35.5434 22.5362 35.1805 24.7822C35.1757 24.8116 35.171 24.8409 35.1663 24.8703C34.7534 27.4259 31.3997 28.4468 28.8333 27.8135Z" fill="#F77F00"/>
<path d="M30.5967 19.9582C22.1927 17.8837 14.5747 13.4839 8.66059 7.2891C8.09651 6.69791 7.36957 6.11874 6.58447 5.67969C6.26161 6.70659 5.55255 7.68946 5.64026 8.76374C5.65262 8.91453 5.68832 9.07734 5.80736 9.17409C6.04401 9.36693 6.40031 9.17009 6.60781 8.94723C6.81532 8.72503 7.04753 8.44746 7.35373 8.47882C7.66035 8.51085 7.8387 8.85982 7.81099 9.16008C7.78328 9.46034 7.6155 9.72791 7.49154 10.0035C7.1764 10.7061 7.14145 11.5242 7.39578 12.2495C7.43769 12.3689 7.48991 12.4897 7.58492 12.5758C7.80205 12.7713 8.16347 12.7065 8.39834 12.5317C8.63315 12.3569 8.78571 12.0993 8.97826 11.8805C9.54275 11.2399 10.6505 10.9904 11.2751 11.5755C11.8641 12.1274 11.7504 13.0595 11.5924 13.8415C11.4682 14.4567 11.3439 15.0719 11.2196 15.6878C11.1651 15.9574 11.1112 16.2403 11.1947 16.5032C11.2782 16.7654 11.549 16.993 11.8234 16.9329C11.969 16.9009 12.0865 16.7975 12.1854 16.688C12.5979 16.233 12.7991 15.6344 13.1308 15.12C13.4625 14.6055 14.0282 14.1418 14.6425 14.2385C15.1871 14.3246 15.5767 14.8424 15.6674 15.3749C15.7579 15.9067 15.6105 16.4485 15.4373 16.9603C15.3982 17.0764 15.357 17.1971 15.3749 17.3179C15.4209 17.6262 15.8314 17.7596 16.1368 17.6696C16.4421 17.5788 16.6777 17.3473 16.9421 17.1725C17.7405 16.6453 19.0785 16.8201 19.3674 17.7183C19.6714 18.6638 18.7063 19.8268 19.3367 20.6035C19.3828 20.6602 19.438 20.7122 19.5071 20.7389C19.7413 20.8277 19.959 20.5888 20.1023 20.3873C20.4816 19.8528 20.9746 19.3424 21.622 19.1929C22.2694 19.0441 23.0699 19.4137 23.1527 20.059C23.1864 20.3219 23.1022 20.5828 23.0313 20.8383C22.882 21.3755 22.7878 21.9273 22.7506 22.4824C22.7298 22.7914 22.7413 23.1384 22.9661 23.3559C23.3074 23.6862 23.8916 23.5027 24.2804 23.2271C25.2057 22.5725 25.8283 21.5076 26.8824 21.0779C27.2682 20.9204 27.7952 20.8997 28.0233 21.242C28.1072 21.3681 28.1338 21.5223 28.2072 21.6544C28.5203 22.2169 29.3892 22.0594 29.9698 21.7625C30.4779 21.5023 31.1101 21.196 31.5792 21.5183C31.6887 21.5937 31.7759 21.6978 31.8903 21.7658C32.3462 22.0374 32.8586 21.6237 33.1951 21.1813C32.3969 20.6041 31.4646 20.1724 30.5967 19.9582Z" fill="#EF0405"/>
<path d="M12.4206 20.0068C7.66814 17.2617 4.25635 13.3015 4.11281 13.1334C3.94107 12.9326 3.96851 12.6336 4.17404 12.4655C4.37963 12.298 4.68549 12.3247 4.85736 12.5255C4.89156 12.5656 8.31065 16.531 12.9158 19.1907C12.9356 19.2021 12.9547 19.2134 12.975 19.2247C13.2052 19.3575 13.282 19.6478 13.1466 19.8733C13.0109 20.0995 12.7137 20.1749 12.4826 20.0421C12.4621 20.0308 12.441 20.0181 12.4206 20.0068Z" fill="white"/>
<path d="M15.3594 21.7046L14.1329 20.996C13.9023 20.8626 13.8258 20.5723 13.962 20.3468C14.0983 20.1212 14.3959 20.0458 14.6265 20.1793L15.853 20.8879C16.0837 21.0207 16.1602 21.3116 16.0239 21.5371C15.8876 21.7627 15.5901 21.8374 15.3594 21.7046Z" fill="white"/>
<path d="M6.56636 3.12784C6.50521 3.92521 6.59612 4.85469 7.35037 5.32844C7.69814 5.5473 8.12175 5.586 8.52474 5.57265C8.6745 5.56798 8.82412 5.55731 8.97401 5.55797C9.01777 5.55797 9.06152 5.55864 9.1052 5.56131C9.11565 5.56198 9.2551 5.57866 9.15496 5.56332C9.05531 5.54797 9.19087 5.57265 9.20111 5.57465C9.228 5.58133 9.25462 5.58867 9.2809 5.59668C9.34479 5.61937 9.33312 5.61403 9.24609 5.58C9.2495 5.57666 9.30922 5.61536 9.31919 5.62003C9.44158 5.67742 9.23981 5.52928 9.30854 5.60869C9.32581 5.6287 9.35052 5.65406 9.371 5.67074C9.42342 5.71411 9.33079 5.70678 9.33045 5.61336C9.33052 5.62604 9.36697 5.67207 9.37475 5.68409C9.4267 5.76149 9.35182 5.7368 9.36376 5.64205C9.35912 5.67875 9.39741 5.76549 9.40888 5.80219C9.43441 5.8836 9.39543 5.74681 9.40246 5.7368C9.39543 5.74681 9.40881 5.81019 9.40949 5.82354C9.41202 5.87358 9.41182 5.92429 9.4099 5.97434C9.40758 6.03706 9.39933 6.09912 9.39503 6.16184C9.39182 6.20788 9.40854 6.24324 9.40362 6.10579C9.40513 6.14716 9.38997 6.1952 9.38308 6.2359C9.28984 6.78372 9.13128 7.3302 9.2252 7.88869C9.36397 8.71341 10.1694 9.16514 10.9847 9.0764C11.4242 9.02902 11.8068 8.8542 12.2243 8.72809C12.318 8.6994 12.4164 8.68539 12.5095 8.65737C12.5984 8.63068 12.3814 8.6587 12.5414 8.65269C12.594 8.65002 12.6461 8.64736 12.6988 8.64936C12.7337 8.65069 12.7683 8.65269 12.8031 8.65603C12.6662 8.64402 12.8321 8.66403 12.8528 8.6687C12.9037 8.68072 12.954 8.69473 13.0035 8.71074C13.031 8.71942 13.1667 8.78814 13.0485 8.72475C13.1417 8.7748 13.2352 8.81951 13.3234 8.87822C13.3527 8.89757 13.3813 8.91826 13.4095 8.93895C13.2928 8.8522 13.4286 8.9603 13.4441 8.97431C13.5094 9.03436 13.5659 9.09909 13.6262 9.16314C13.7389 9.28325 13.571 9.06772 13.6593 9.20518C13.6873 9.24855 13.7166 9.29125 13.7432 9.33596C13.7963 9.4247 13.8416 9.51678 13.8846 9.6102C13.8749 9.58951 13.8468 9.50611 13.8853 9.61287C13.9028 9.66158 13.92 9.70962 13.9354 9.75899C13.9612 9.84107 13.9832 9.92448 14.0022 10.0086C14.0136 10.0593 14.0236 10.11 14.0326 10.1613C14.0387 10.1954 14.0563 10.3182 14.0436 10.2161C14.0898 10.5877 14.0523 10.9621 14.0916 11.3337C14.1434 11.8235 14.3061 12.2692 14.7134 12.5828C15.1001 12.8804 15.6067 13.0159 16.0818 13.1153C16.5318 13.21 16.996 13.2647 17.4564 13.2694C17.8761 13.2748 18.2908 13.2194 18.7092 13.2C18.8948 13.1913 19.0797 13.1927 19.2649 13.208C19.1324 13.1967 19.3019 13.2147 19.3199 13.2187C19.3709 13.2287 19.4216 13.2407 19.4714 13.2561C19.5042 13.2654 19.5362 13.2768 19.5685 13.2881C19.4249 13.2387 19.6167 13.3228 19.6458 13.3375C19.7777 13.4042 19.6027 13.2828 19.6612 13.3455C19.6901 13.3768 19.7236 13.4089 19.7547 13.4376C19.8588 13.535 19.7104 13.3415 19.7745 13.4649C19.7923 13.4989 19.8138 13.5316 19.8312 13.5663C19.8471 13.5977 19.8796 13.6945 19.8384 13.5743C19.8536 13.6191 19.8688 13.6631 19.8816 13.7078C19.9076 13.7999 19.9272 13.8933 19.9439 13.9874C20.0053 14.333 20.0239 14.686 20.1463 15.019C20.4411 15.8203 21.0832 16.5343 21.9901 16.6304C22.4444 16.6791 22.8589 16.5036 23.2553 16.3081C23.3443 16.264 23.4342 16.2227 23.5245 16.1813C23.6113 16.1419 23.411 16.2087 23.5498 16.1746C23.5947 16.1633 23.6383 16.1486 23.6834 16.1386C23.6881 16.1379 23.8359 16.1052 23.7424 16.1246C23.6518 16.1433 23.7946 16.1206 23.8028 16.1206C23.8956 16.1152 23.9864 16.1219 24.0788 16.1273C23.9279 16.1186 24.0739 16.1286 24.1053 16.1353C24.1506 16.1439 24.1955 16.1553 24.2399 16.168C24.2696 16.176 24.299 16.1853 24.3281 16.1953C24.3427 16.2 24.3572 16.2053 24.3717 16.21C24.4365 16.2354 24.4294 16.232 24.3501 16.2007C24.4087 16.2067 24.5043 16.2774 24.5535 16.3074C24.5826 16.3248 24.6496 16.3548 24.6682 16.3828C24.6016 16.3301 24.595 16.3254 24.6485 16.3688C24.66 16.3788 24.6715 16.3888 24.6829 16.3988C24.7513 16.4595 24.8121 16.5263 24.8707 16.5963C24.8566 16.5797 24.8027 16.4916 24.8575 16.5823C24.8809 16.6217 24.9057 16.6591 24.9275 16.6991C24.9637 16.7651 24.9947 16.8332 25.0246 16.9019C24.9651 16.7652 25.0244 16.9073 25.0329 16.9313C25.0484 16.9747 25.063 17.0187 25.0773 17.0621C25.1935 17.4191 25.2848 17.784 25.4541 18.1223C25.6549 18.5234 25.985 18.8276 26.409 18.9911C27.1718 19.286 28.0178 18.9264 28.6681 18.5327C29.0171 18.3212 29.3604 18.101 29.7386 17.9409C29.6395 17.9829 29.7508 17.9368 29.7764 17.9282C29.8202 17.9128 29.8642 17.8988 29.9087 17.8855C29.9985 17.8594 30.0891 17.8414 30.1806 17.8234C30.3339 17.7927 30.069 17.8181 30.2266 17.8201C30.2773 17.8207 30.328 17.8167 30.3787 17.8187C30.4128 17.8194 30.4464 17.8228 30.4803 17.8241C30.5493 17.8314 30.5478 17.8308 30.4756 17.8227C30.5089 17.8288 30.5419 17.8354 30.5748 17.8428C30.6156 17.8521 30.6559 17.8634 30.6959 17.8761C30.731 17.8868 30.8338 17.9322 30.709 17.8755C30.7538 17.8955 30.7978 17.9168 30.8403 17.9415C30.8441 17.9435 30.9823 18.0243 30.8975 17.9729C30.8177 17.9242 30.9364 18.0076 30.9445 18.0156C30.9793 18.0483 31.012 18.0836 31.0417 18.121C30.963 18.0223 31.02 18.093 31.0303 18.117C31.0472 18.1457 31.0626 18.1751 31.0766 18.2051C31.0523 18.1417 31.0516 18.141 31.0742 18.2051C31.1793 18.5968 31.2067 18.9958 31.3802 19.3694C31.7376 20.1394 32.6049 20.6719 33.4686 20.6552C33.6903 20.6506 33.9129 20.6139 34.131 20.5772C34.2154 20.5632 34.3 20.5505 34.3843 20.5358C34.5494 20.5071 34.2662 20.5411 34.4321 20.5298C34.4824 20.5265 34.5322 20.5224 34.5826 20.5211C34.6328 20.5204 34.6823 20.5238 34.7323 20.5258C34.6083 20.5205 34.7134 20.5231 34.75 20.5311C34.8255 20.5478 34.899 20.5718 34.9719 20.5972C35.1196 20.6492 35.2637 20.712 35.4138 20.7573C35.8452 20.8888 36.2811 20.8461 36.6267 20.5438C36.8634 20.3376 36.873 19.9199 36.6415 19.7057C36.3948 19.4775 36.0372 19.4695 35.7837 19.6911C35.6819 19.7798 35.9013 19.623 35.7882 19.6824C35.9643 19.5896 35.7669 19.6657 35.8742 19.6524C35.979 19.639 35.8611 19.6463 35.8437 19.6463C35.718 19.6483 35.9727 19.6837 35.8484 19.6443C35.7007 19.5976 35.5551 19.5516 35.4099 19.4969C35.0037 19.3441 34.6131 19.3167 34.1832 19.3734C34.0138 19.3961 33.8447 19.4242 33.6765 19.4535C33.5112 19.4829 33.7938 19.4502 33.6269 19.4602C33.5929 19.4629 33.5592 19.4662 33.5251 19.4675C33.4749 19.4702 33.4245 19.4709 33.3743 19.4689C33.344 19.4675 33.2024 19.4395 33.3352 19.4689C33.2471 19.4495 33.1605 19.4322 33.0748 19.4035C33.0381 19.3908 32.9429 19.3421 33.0656 19.4028C33.0217 19.3808 32.9777 19.3601 32.9349 19.3361C32.8934 19.3134 32.7022 19.1753 32.8203 19.2714C32.7447 19.21 32.6737 19.1432 32.6091 19.0712C32.6067 19.0678 32.5132 18.9444 32.5649 19.0198C32.6175 19.0959 32.531 18.9637 32.5301 18.9624C32.5048 18.921 32.4845 18.8777 32.4605 18.8356C32.4466 18.8116 32.4223 18.7342 32.4605 18.8443C32.3966 18.6595 32.3655 18.4713 32.3327 18.2791C32.2615 17.8628 32.1118 17.4497 31.7817 17.1588C31.046 16.5116 30.0393 16.5383 29.1741 16.8946C28.8004 17.0481 28.4604 17.2629 28.1178 17.4724C27.974 17.5605 27.8279 17.6439 27.6764 17.7187C27.5962 17.758 27.5147 17.7954 27.4314 17.8281C27.4521 17.8201 27.5446 17.7901 27.4397 17.8227C27.379 17.8414 27.3192 17.8614 27.2575 17.8768C27.214 17.8881 26.9864 17.9142 27.1386 17.9055C27.0997 17.9082 26.947 17.9335 26.9148 17.9082C26.9374 17.9115 26.96 17.9155 26.9826 17.9188C26.9535 17.9142 26.9245 17.9088 26.8958 17.9021C26.8669 17.8955 26.8391 17.8855 26.8103 17.8781C26.6748 17.8448 26.9119 17.9475 26.7938 17.8695C26.7716 17.8548 26.6896 17.8261 26.6788 17.7981C26.6986 17.8134 26.7183 17.8281 26.738 17.8434C26.7163 17.8247 26.6952 17.8054 26.675 17.7854C26.6512 17.762 26.63 17.728 26.6037 17.708C26.5425 17.6599 26.6735 17.8254 26.6092 17.7127C26.5882 17.6753 26.5641 17.6399 26.5437 17.6026C26.5243 17.5672 26.4343 17.361 26.4914 17.5058C26.4584 17.4224 26.4291 17.337 26.4015 17.2516C26.2874 16.8973 26.1936 16.5376 26.0285 16.2013C25.854 15.8463 25.5759 15.5601 25.2476 15.3359C24.5475 14.8588 23.6465 14.8288 22.8848 15.1671C22.7119 15.2438 22.5472 15.3372 22.3724 15.41C22.4775 15.3659 22.3689 15.4093 22.341 15.418C22.2982 15.4306 22.2547 15.4393 22.2116 15.4507C22.0596 15.492 22.3124 15.4633 22.1747 15.454C22.136 15.4513 22.074 15.4673 22.0399 15.45C22.0625 15.4527 22.0852 15.4553 22.1078 15.4587C22.0788 15.4533 22.05 15.4473 22.0214 15.44C21.9928 15.4326 21.9653 15.4226 21.9369 15.4153C21.7979 15.3793 22.0471 15.482 21.9234 15.4086C21.8913 15.3899 21.8575 15.3739 21.8256 15.3546C21.8012 15.3399 21.7453 15.3165 21.7313 15.2932C21.7498 15.3072 21.7681 15.3219 21.7866 15.3366C21.7627 15.3172 21.7393 15.2972 21.7166 15.2765C21.6468 15.2138 21.5847 15.1451 21.5234 15.0743C21.4514 14.9916 21.5189 15.0677 21.5307 15.0857C21.504 15.0456 21.4768 15.0069 21.4518 14.9669C21.4099 14.8988 21.372 14.8288 21.3378 14.7574C21.3268 14.734 21.2761 14.5899 21.3209 14.7234C21.3109 14.6933 21.2995 14.6646 21.2898 14.6346C21.2608 14.5452 21.2389 14.4545 21.2213 14.363C21.1555 14.0174 21.1424 13.6591 21.0286 13.3228C20.8796 12.8837 20.6034 12.4867 20.1749 12.2665C19.7773 12.0624 19.3288 12.0016 18.8843 12.0083C18.4675 12.015 18.0542 12.077 17.6376 12.0837C17.4427 12.0864 17.2475 12.081 17.0531 12.0657C16.9948 12.061 16.9365 12.0557 16.8784 12.0497C16.8905 12.051 16.7005 12.0283 16.7821 12.039C16.8638 12.0503 16.6743 12.0223 16.6864 12.0243C16.6095 12.0116 16.5328 11.9976 16.4564 11.983C16.2653 11.9443 16.0761 11.8975 15.8897 11.8415C15.7953 11.8135 15.6981 11.7848 15.6074 11.7461C15.7235 11.7961 15.5486 11.7114 15.5414 11.7074C15.5239 11.6974 15.3951 11.5966 15.4769 11.6727C15.4568 11.6533 15.3418 11.5139 15.4284 11.6393C15.4107 11.614 15.3937 11.5879 15.3783 11.5606C15.3622 11.5326 15.3184 11.4011 15.3597 11.5339C15.3458 11.4892 15.3316 11.4451 15.3208 11.3998C15.3135 11.3691 15.3082 11.3384 15.302 11.307C15.271 11.1542 15.3065 11.4251 15.2977 11.2677C15.2921 11.1702 15.2871 11.0728 15.2859 10.9747C15.2763 10.1747 15.204 9.36332 14.7481 8.67138C14.2666 7.94007 13.4112 7.38892 12.4935 7.47099C12.055 7.51102 11.6729 7.6765 11.2602 7.80928C11.1743 7.83731 11.0876 7.862 10.9993 7.88135C10.9872 7.88402 10.8097 7.91004 10.9355 7.89737C10.8993 7.9007 10.8624 7.90337 10.8259 7.9047C10.7712 7.90671 10.7174 7.9047 10.6628 7.90203C10.791 7.90804 10.6323 7.8947 10.6088 7.88869C10.5752 7.88002 10.5416 7.87 10.5092 7.85732C10.5791 7.88602 10.5823 7.88468 10.5187 7.85266C10.4598 7.81329 10.4602 7.81529 10.52 7.85732C10.5068 7.84465 10.4904 7.8253 10.4761 7.81529C10.4127 7.77059 10.454 7.71454 10.4945 7.84799C10.4837 7.81262 10.4418 7.75857 10.4226 7.72521C10.3693 7.63246 10.4575 7.86533 10.4385 7.76124C10.4353 7.74323 10.4272 7.72388 10.4227 7.70653C10.4155 7.67851 10.4119 7.64981 10.4046 7.62179C10.3775 7.52103 10.4089 7.76258 10.4091 7.65582C10.4094 7.54172 10.4044 7.43095 10.4154 7.31618C10.4174 7.29483 10.4207 7.27348 10.4223 7.25213C10.4314 7.13069 10.399 7.39559 10.419 7.27415C10.4299 7.20809 10.4407 7.14203 10.4529 7.07664C10.5502 6.55151 10.6959 6.01305 10.5779 5.47991C10.5158 5.199 10.3581 4.93143 10.134 4.74593C9.79836 4.46769 9.39093 4.37093 8.95756 4.37226C8.79995 4.37226 8.64276 4.38427 8.48529 4.38828C8.41082 4.39028 8.33621 4.39095 8.26174 4.38761C8.22564 4.38628 8.16393 4.39229 8.13042 4.37828C8.15376 4.38094 8.17711 4.38428 8.20045 4.38695C8.17219 4.38228 8.14414 4.37694 8.11629 4.37027C8.09997 4.36627 8.00025 4.34891 7.99377 4.33357C7.99042 4.32556 8.13383 4.41297 8.02633 4.34291C8.01302 4.3349 7.9997 4.32756 7.98639 4.32022C7.92878 4.28152 7.935 4.28819 8.00523 4.34091C7.9782 4.3349 7.94694 4.28486 7.9264 4.26684C7.92148 4.2615 7.91657 4.25617 7.91165 4.25083C7.86926 4.20078 7.87404 4.20812 7.92605 4.27351C7.90141 4.2635 7.87377 4.18343 7.86019 4.16208C7.84455 4.13739 7.81828 4.05932 7.86401 4.18277C7.84319 4.12672 7.82469 4.07 7.80988 4.01195C7.80019 3.97392 7.76388 3.74639 7.78005 3.88851C7.77104 3.80977 7.76585 3.73037 7.7634 3.65097C7.75794 3.47815 7.76626 3.30533 7.77944 3.13318C7.80326 2.82291 7.48723 2.52558 7.17577 2.53745C6.82868 2.55073 6.59183 2.79622 6.56636 3.12784Z" fill="#FCBF49"/>
</g>
<defs>
<clipPath id="clip0_836_11315">
<rect width="39.0433" height="28.892" fill="white"/>
</clipPath>
</defs>
</svg>
