<svg width="24" height="24" viewBox="0 0 24 24" fill="none" xmlns="http://www.w3.org/2000/svg">
<g clip-path="url(#clip0_816_8721)">
<path d="M16.6114 14.2114C18.8571 17.5028 17.1428 20.5714 14.5028 23.1428L11.0742 17.4514" fill="#FFD800"/>
<path d="M9.7869 7.38853C6.49547 5.14282 3.4269 6.8571 0.855469 9.4971L6.5469 12.9257" fill="#FFD800"/>
<path d="M9.7869 7.38853C6.49547 5.14282 3.4269 6.8571 0.855469 9.4971L6.5469 12.9257" stroke="#252525" stroke-linecap="round" stroke-linejoin="round"/>
<path d="M16.6114 14.2114C18.8571 17.5028 17.1428 20.5714 14.5028 23.1428L11.0742 17.4514" stroke="#252525" stroke-linecap="round" stroke-linejoin="round"/>
<path d="M22.4544 1.54295C22.4544 1.54295 24.8201 7.13152 20.7401 11.2115C19.5875 12.4061 17.5958 13.6583 15.3915 14.9486L9.04688 8.60397C10.3363 6.40229 11.593 4.40824 12.7859 3.25723C16.8659 -0.822765 22.4544 1.54295 22.4544 1.54295Z" fill="#FFD800"/>
<path fill-rule="evenodd" clip-rule="evenodd" d="M11.0897 17.4516L6.54688 12.9087C7.04633 12.0723 7.54395 11.2075 8.03805 10.3488C9.68076 7.494 11.2845 4.70696 12.7869 3.25728C11.594 4.40828 10.3373 6.40234 9.0479 8.60401L15.3925 14.9486C14.8472 15.2677 14.2889 15.5892 13.7271 15.9128C12.8445 16.4211 11.9531 16.9344 11.0897 17.4516Z" fill="#FFD800"/>
<path d="M6.54688 12.9087L11.0897 17.4516C14.724 15.2744 18.8554 13.1658 20.7411 11.2115C24.8211 7.13152 22.4554 1.54295 22.4554 1.54295C22.4554 1.54295 16.8669 -0.822765 12.7869 3.25723C10.8326 5.14295 8.70688 9.29152 6.54688 12.9087Z" stroke="#252525" stroke-linecap="round" stroke-linejoin="round"/>
<path d="M9.05078 8.60596L15.3936 14.9488" stroke="#252525" stroke-linecap="round" stroke-linejoin="round"/>
<path d="M17.9978 6.85735C18.4711 6.85735 18.8549 6.47359 18.8549 6.00021C18.8549 5.52683 18.4711 5.14307 17.9978 5.14307C17.5245 5.14307 17.1406 5.52683 17.1406 6.00021C17.1406 6.47359 17.5245 6.85735 17.9978 6.85735Z" stroke="#252525" stroke-linecap="round" stroke-linejoin="round"/>
<path d="M6.3069 21.3257C5.31261 22.2857 0.855469 23.1428 0.855469 23.1428C0.855469 23.1428 1.71261 18.6857 2.67261 17.6914C2.90802 17.4389 3.1919 17.2363 3.50733 17.0957C3.82276 16.9551 4.16327 16.8795 4.50853 16.8734C4.8538 16.8674 5.19676 16.9309 5.51695 17.0602C5.83713 17.1895 6.12799 17.382 6.37218 17.6263C6.61634 17.8704 6.80884 18.1613 6.93818 18.4815C7.06751 18.8016 7.13102 19.1446 7.12492 19.4899C7.11883 19.8351 7.04327 20.1756 6.90271 20.491C6.76218 20.8064 6.55953 21.0903 6.3069 21.3257Z" fill="#FFD800"/>
<path d="M6.3069 21.3257C5.31261 22.2857 0.855469 23.1428 0.855469 23.1428C0.855469 23.1428 1.71261 18.6857 2.67261 17.6914C2.90802 17.4389 3.1919 17.2363 3.50733 17.0957C3.82276 16.9551 4.16327 16.8795 4.50853 16.8734C4.8538 16.8674 5.19676 16.9309 5.51695 17.0602C5.83713 17.1895 6.12799 17.382 6.37218 17.6263C6.61634 17.8704 6.80884 18.1613 6.93818 18.4815C7.06751 18.8016 7.13102 19.1446 7.12492 19.4899C7.11883 19.8351 7.04327 20.1756 6.90271 20.491C6.76218 20.8064 6.55953 21.0903 6.3069 21.3257Z" stroke="#252525" stroke-linecap="round" stroke-linejoin="round"/>
</g>
<defs>
<clipPath id="clip0_816_8721">
<rect width="24" height="24" fill="white"/>
</clipPath>
</defs>
</svg>
