<svg width="80" height="80" fill="none" xmlns="http://www.w3.org/2000/svg"><path d="M80 19.13v41.74a6.957 6.957 0 0 1-6.957 6.956H6.957A6.957 6.957 0 0 1 0 60.87V19.13a6.957 6.957 0 0 1 6.957-6.956h66.087A6.957 6.957 0 0 1 80 19.13Z" fill="#FE7D49"/><path d="M80 27.826V60.87a6.957 6.957 0 0 1-6.957 6.956H6.957A6.957 6.957 0 0 1 0 60.87V27.826h80Z" fill="#FE5A3A"/><path d="M24.227 34.782H10.554a1.86 1.86 0 0 1-1.859-1.859V22.728a1.86 1.86 0 0 1 1.86-1.859h13.672a1.86 1.86 0 0 1 1.86 1.86v10.194a1.86 1.86 0 0 1-1.86 1.86Z" fill="#FED76E"/><path d="M26.087 27.826v5.097a1.86 1.86 0 0 1-1.86 1.86H10.554a1.86 1.86 0 0 1-1.859-1.86v-5.097h17.392Z" fill="#FEAF50"/><path d="M20.442 53.912c0 .72-.584 1.304-1.304 1.304H8.703a1.304 1.304 0 0 1 0-2.609h10.435c.72 0 1.304.584 1.304 1.305Zm16.087-1.304H26.094a1.304 1.304 0 0 0 0 2.608H36.53a1.304 1.304 0 0 0 0-2.608Zm17.391 0H43.485a1.304 1.304 0 0 0 0 2.608H53.92a1.304 1.304 0 0 0 0-2.608Zm17.392 0H60.877a1.304 1.304 0 0 0 0 2.608h10.435a1.304 1.304 0 0 0 0-2.608Z" fill="#A62C18"/><path d="M18.27 30.436h-1.74a2.609 2.609 0 0 1 0-5.217h1.74a2.609 2.609 0 0 1 0 5.217Z" fill="#FEE66B"/><path d="M62.353 27.826c0 .72-.584 1.304-1.304 1.304h-.174a1.305 1.305 0 0 1 0-2.608h.174c.72 0 1.304.584 1.304 1.304Zm2.828-4.138a1.305 1.305 0 0 0-1.308 2.258 2.182 2.182 0 0 1 1.089 1.88 2.18 2.18 0 0 1-1.089 1.88 1.305 1.305 0 0 0 1.308 2.258 4.799 4.799 0 0 0 2.39-4.138 4.8 4.8 0 0 0-2.39-4.138Zm3.477-3.014a1.305 1.305 0 0 0-1.306 2.257 5.673 5.673 0 0 1 2.827 4.895 5.674 5.674 0 0 1-2.827 4.894 1.304 1.304 0 0 0 1.307 2.258 8.29 8.29 0 0 0 4.129-7.152 8.29 8.29 0 0 0-4.13-7.152Z" fill="#D4E8FF"/></svg>