<svg xmlns="http://www.w3.org/2000/svg">
    <symbol id="arrow-left" viewBox="0 0 24 24" xmlns="http://www.w3.org/2000/svg" fill="none">
        <path d="M3.94953 12.53L10.9495 19.53C11.1425 19.7176 11.4208 19.788 11.6797 19.7147C11.9386 19.6414 12.1387 19.4355 12.2047 19.1747C12.2707 18.9138 12.1925 18.6376 11.9995 18.45L6.28953 12.75L19.5195 12.75C19.9337 12.75 20.2695 12.4142 20.2695 12C20.2695 11.5858 19.9337 11.25 19.5195 11.25L6.29953 11.25L11.9995 5.55001C12.1425 5.41072 12.2231 5.21959 12.2231 5.02001C12.2231 4.82042 12.1425 4.62929 11.9995 4.49001C11.8617 4.34536 11.6693 4.2655 11.4695 4.27001C11.2705 4.26907 11.0794 4.34837 10.9395 4.49001L3.93953 11.49C3.64708 11.7828 3.64708 12.2572 3.93953 12.55L3.94953 12.53Z" fill="currentColor"/>
    </symbol>

    <symbol id="delete" viewBox="0 0 20 20" fill="none" xmlns="http://www.w3.org/2000/svg">
        <path d="M1.42969 5H18.5725" stroke="currentColor" stroke-width="0.833333" stroke-linecap="round" stroke-linejoin="round"/>
        <path d="M16.0107 5.41699V17.8574C16.0107 18.1255 15.9042 18.3826 15.7148 18.5723C15.5251 18.762 15.2673 18.8691 14.999 18.8691H4.99902C4.73069 18.8691 4.47302 18.762 4.2832 18.5723C4.0937 18.3827 3.98738 18.1256 3.9873 17.8574V5.41699H16.0107Z" stroke="currentColor" stroke-width="0.833333"/>
        <path d="M3.57031 5H16.4275V17.8571C16.4275 18.236 16.2769 18.5994 16.009 18.8673C15.7412 19.1351 15.3777 19.2857 14.9989 19.2857H4.99888C4.62 19.2857 4.25664 19.1351 3.98873 18.8673C3.72083 18.5994 3.57031 18.236 3.57031 17.8571V5Z" stroke="currentColor" stroke-width="0.833333" stroke-linecap="round" stroke-linejoin="round"/>
        <path d="M6.42969 4.99999V4.28571C6.42969 3.33851 6.80596 2.43009 7.47573 1.76032C8.1455 1.09055 9.05392 0.714279 10.0011 0.714279C10.9483 0.714279 11.8567 1.09055 12.5265 1.76032C13.1963 2.43009 13.5725 3.33851 13.5725 4.28571V4.99999" stroke="currentColor" stroke-width="0.833333" stroke-linecap="round" stroke-linejoin="round"/>
        <path d="M7.85938 9.2878V15.0043" stroke="currentColor" stroke-width="0.833333" stroke-linecap="round" stroke-linejoin="round"/>
        <path d="M12.1406 9.2878V15.0043" stroke="currentColor" stroke-width="0.833333" stroke-linecap="round" stroke-linejoin="round"/>
    </symbol>
</svg>