<svg width="80" height="80" fill="none" xmlns="http://www.w3.org/2000/svg"><path d="M68.654 31.657v17.98L80 45.327 64.278 5.84 0 31.657" fill="#6F9935"/><path d="M71.92 48.396V28.39H8.137l-4.871 1.956v1.313H68.65v17.98l3.269-1.242Z" fill="#658B30"/><path d="M0 31.66h68.654v42.5H0v-42.5Z" fill="#79A73A"/><path d="M6.54 45.896c3.698-1.106 6.592-4 7.698-7.699h40.18c1.106 3.7 4 6.593 7.698 7.7V59.92a11.466 11.466 0 0 0-7.699 7.7H14.236a11.467 11.467 0 0 0-7.697-7.7V45.896Z" fill="#AAC16B"/><path d="M34.33 61.083a8.173 8.173 0 1 0 0-16.347 8.173 8.173 0 0 0 0 16.347Z" fill="#79A73A"/><path d="m67.525 31.659-3.876-9.971-.176-.44a11.467 11.467 0 0 1-10.001-4.3l-.438.176-35.05 14.535h49.54Z" fill="#AAC16B"/><path d="m25.868 28.389-7.884 3.269h49.54l-1.27-3.27H25.869Z" fill="#89B140"/><path d="M16.346 54.543a1.635 1.635 0 1 0 0-3.27 1.635 1.635 0 0 0 0 3.27Zm35.96 0a1.635 1.635 0 1 0 0-3.27 1.635 1.635 0 0 0 0 3.27Z" fill="#79A73A"/></svg>