<svg width="20" height="20" viewBox="0 0 20 20" fill="none" xmlns="http://www.w3.org/2000/svg">
<g clip-path="url(#clip0_836_8137)">
<path fill-rule="evenodd" clip-rule="evenodd" d="M19.2863 9.99958C19.2863 15.128 15.129 19.2853 10.0006 19.2853C4.8722 19.2853 0.714844 15.128 0.714844 9.99958C0.714844 4.87122 4.8722 0.713867 10.0006 0.713867C15.129 0.713867 19.2863 4.87122 19.2863 9.99958ZM13.572 6.42815L10.7148 14.9996L8.57199 11.4282L5.00056 9.2853L13.572 6.42815Z" fill="white"/>
<path d="M10.583 13.8096L9 11.1709L8.93555 11.0635L8.8291 10.999L6.18848 9.41504L12.7803 7.21777L10.583 13.8096Z" fill="white" stroke="#252525"/>
<path d="M10.0006 19.2853C15.129 19.2853 19.2863 15.128 19.2863 9.99958C19.2863 4.87122 15.129 0.713867 10.0006 0.713867C4.8722 0.713867 0.714844 4.87122 0.714844 9.99958C0.714844 15.128 4.8722 19.2853 10.0006 19.2853Z" stroke="#252525" stroke-linecap="round" stroke-linejoin="round"/>
</g>
<defs>
<clipPath id="clip0_836_8137">
<rect width="20" height="20" fill="white"/>
</clipPath>
</defs>
</svg>
