<svg width="126" height="126" viewBox="0 0 126 126" fill="none" xmlns="http://www.w3.org/2000/svg">
<g clip-path="url(#clip0_738_11322)">
<path d="M13.0137 10.289C26.2794 2.60388 46.2808 11.3134 62.2816 30.1166C78.2823 11.3134 98.2838 2.60388 111.549 10.289C128.035 19.8392 127.873 51.0873 111.189 80.0836C99.6644 100.113 83.2711 113.826 68.8003 117.246C66.7327 117.831 64.5556 118.106 62.2964 118.081L62.2667 118.081C60.0075 118.106 57.8304 117.831 55.7628 117.246C41.292 113.826 24.8984 100.113 13.3737 80.0836C-3.31053 51.0873 -3.47173 19.8392 13.0137 10.289Z" fill="#EF0405"/>
<path d="M115.552 35.3241L115.662 35.2888C116.737 34.9437 117.416 33.875 117.264 32.7525C116.638 28.1173 115.16 23.5753 112.888 19.3528C112.354 18.3613 111.189 17.8946 110.121 18.2402C108.757 18.6813 108.112 20.2391 108.757 21.5232C110.657 25.3075 111.929 29.3279 112.535 33.428C112.747 34.8598 114.178 35.765 115.552 35.3241Z" fill="white"/>
<path d="M113.486 41.1017C113.605 42.3572 114.715 43.2783 115.967 43.1588C117.218 43.0393 118.136 41.9246 118.017 40.6691C117.898 39.4136 116.787 38.4925 115.536 38.612C114.284 38.7315 113.366 39.8463 113.486 41.1017Z" fill="white"/>
<path d="M69.8651 55.1109C69.8651 67.5543 75.3719 77.6415 82.1648 77.6415C88.9581 77.6415 94.4648 67.5543 94.4648 55.1109C94.4648 42.6673 88.9581 32.5801 82.1648 32.5801C75.3719 32.5801 69.8651 42.6673 69.8651 55.1109Z" fill="white"/>
<path d="M70.0033 51.72C70.8051 41.9914 75.0025 34.3025 80.3134 32.834C84.4816 34.183 87.6484 40.8458 87.6484 48.8683C87.6484 57.8639 83.6674 65.1565 78.7567 65.1565C74.3772 65.1565 70.7397 59.355 70.0033 51.72Z" fill="#231F20"/>
<path d="M86.7305 41.6611L79.4629 48.9948L85.8199 38.9785C86.1688 39.8128 86.4737 40.7108 86.7305 41.6611Z" fill="white"/>
<path d="M30.0333 55.1109C30.0333 67.5543 35.5401 77.6415 42.3331 77.6415C49.126 77.6415 54.6328 67.5543 54.6328 55.1109C54.6328 42.6673 49.126 32.5801 42.3331 32.5801C35.5401 32.5801 30.0333 42.6673 30.0333 55.1109Z" fill="white"/>
<path d="M30.1713 51.722C30.9728 41.9933 35.1704 34.3044 40.4813 32.8359C44.6493 34.1849 47.8164 40.8478 47.8164 48.8702C47.8164 57.8658 43.8353 65.1584 38.9244 65.1584C34.5449 65.1584 30.9077 59.3569 30.1713 51.722Z" fill="#231F20"/>
<path d="M46.8945 41.6611L39.6272 48.9948L45.9842 38.9785C46.3331 39.8128 46.638 40.7108 46.8945 41.6611Z" fill="white"/>
<path d="M92.5498 30.1393C92.8735 30.1393 93.1932 29.9905 93.4008 29.7095C93.7494 29.2384 93.6509 28.573 93.1813 28.2232C93.0649 28.1366 90.2824 26.0883 86.2491 25.0488C80.8302 23.6525 75.7594 24.763 71.5856 28.2612C71.1367 28.6373 71.0769 29.3074 71.4517 29.7579C71.8268 30.2078 72.4946 30.2681 72.943 29.892C81.7432 22.5174 91.8189 29.8548 91.9198 29.93C92.1093 30.071 92.3303 30.1393 92.5498 30.1393Z" fill="#231F20"/>
<path d="M62.5707 96.3981C68.1284 96.3981 73.3001 94.8677 77.7833 91.8598C78.2695 91.5337 78.4003 90.8739 78.0752 90.3863C77.7499 89.8984 77.0927 89.7671 76.6064 90.0936C70.7973 93.991 64.0065 95.1817 56.4236 93.633C50.6995 92.4638 46.6518 90.0867 46.6115 90.0628C46.1086 89.764 45.459 89.9305 45.1612 90.4351C44.8635 90.9395 45.0284 91.5908 45.531 91.8901C45.7055 91.9942 49.8747 94.451 55.9302 95.7004C58.1897 96.1665 60.4097 96.3981 62.5707 96.3981Z" fill="#231F20"/>
<path d="M52.8466 30.1393C53.1704 30.1393 53.4901 29.9905 53.6976 29.7095C54.0462 29.2384 53.9478 28.573 53.4782 28.2232C53.3617 28.1366 50.5792 26.0883 46.546 25.0488C41.1268 23.6525 36.0565 24.763 31.8825 28.2612C31.4336 28.6373 31.3737 29.3074 31.7486 29.7579C32.1236 30.2078 32.7917 30.2681 33.2399 29.892C42.04 22.5174 52.1158 29.8548 52.2166 29.93C52.4062 30.071 52.6272 30.1393 52.8466 30.1393Z" fill="#231F20"/>
<path d="M93.3761 79.812C93.3761 83.2762 96.175 86.0847 99.6275 86.0847C103.08 86.0847 105.879 83.2762 105.879 79.812C105.879 76.3475 103.08 73.5391 99.6275 73.5391C96.175 73.5391 93.3761 76.3475 93.3761 79.812Z" fill="#F9696A"/>
<path d="M19.2589 79.812C19.2589 83.2762 22.0579 86.0847 25.5103 86.0847C28.9628 86.0847 31.7617 83.2762 31.7617 79.812C31.7617 76.3475 28.9628 73.5391 25.5103 73.5391C22.0579 73.5391 19.2589 76.3475 19.2589 79.812Z" fill="#F9696A"/>
<path d="M79.4634 96.4027C79.5047 96.4027 79.5462 96.4003 79.5883 96.3953C80.1691 96.3267 80.5844 95.7987 80.5161 95.216C79.6847 88.1232 73.3412 85.7115 73.0714 85.6122C72.523 85.4101 71.9142 85.6929 71.713 86.244C71.5121 86.7941 71.7927 87.4031 72.3398 87.6063C72.564 87.6902 77.7368 89.6947 78.4131 95.4643C78.4763 96.0048 78.934 96.4024 79.4634 96.4027Z" fill="#231F20"/>
<path d="M-3.00068 52.9944C4.71793 55.4061 6.66638 57.3612 9.07011 65.1061C11.4736 57.3612 13.422 55.4061 21.1406 52.9945C13.422 50.5828 11.4736 48.6277 9.07011 40.8828C6.66638 48.6277 4.71793 50.5828 -3.00068 52.9944Z" fill="white"/>
</g>
<defs>
<clipPath id="clip0_738_11322">
<rect width="126" height="126" fill="white" transform="matrix(-1 -8.74228e-08 -8.74228e-08 1 126 1.10153e-05)"/>
</clipPath>
</defs>
</svg>
