<svg width="23" height="23" viewBox="0 0 23 23" fill="none" xmlns="http://www.w3.org/2000/svg">
<g clip-path="url(#clip0_683_13668)">
<path d="M17.1429 0H5.71428C2.56 0 0 2.56 0 5.71428V17.1429C0 20.2971 2.56 22.8571 5.71428 22.8571H17.1429C20.2971 22.8571 22.8571 20.2971 22.8571 17.1429V5.71428C22.8571 2.56 20.2971 0 17.1429 0ZM11.4286 17.1429C8.27428 17.1429 5.71428 14.5829 5.71428 11.4286C5.71428 8.27428 8.27428 5.71428 11.4286 5.71428C14.5829 5.71428 17.1429 8.27428 17.1429 11.4286C17.1429 14.5829 14.5829 17.1429 11.4286 17.1429ZM17.5429 6.42286C16.9143 6.42286 16.4 5.90857 16.4 5.28C16.4 4.65143 16.9143 4.13714 17.5429 4.13714C18.1714 4.13714 18.6857 4.65143 18.6857 5.28C18.6857 5.90857 18.1714 6.42286 17.5429 6.42286Z" fill="#252525"/>
<path d="M11.4286 14.8571C13.3221 14.8571 14.8571 13.3221 14.8571 11.4286C14.8571 9.53502 13.3221 8 11.4286 8C9.53502 8 8 9.53502 8 11.4286C8 13.3221 9.53502 14.8571 11.4286 14.8571Z" fill="#252525"/>
</g>
<defs>
<clipPath id="clip0_683_13668">
<rect width="22.8571" height="22.8571" fill="white"/>
</clipPath>
</defs>
</svg>
