<svg width="20" height="20" fill="none" xmlns="http://www.w3.org/2000/svg"><path d="M10.002 12.857a2.857 2.857 0 1 0 0-5.714 2.857 2.857 0 0 0 0 5.714Z" fill="#fff"/><path fill-rule="evenodd" clip-rule="evenodd" d="M2.143 3.571h15.715c.789 0 1.428.64 1.428 1.429v10c0 .789-.64 1.428-1.428 1.428H2.143c-.789 0-1.428-.64-1.428-1.428V5c0-.79.64-1.429 1.428-1.429Zm10 6.429a2.143 2.143 0 1 1-4.285 0 2.143 2.143 0 0 1 4.285 0Z" fill="#fff"/><path d="M10.002 12.857a2.857 2.857 0 1 0 0-5.714 2.857 2.857 0 0 0 0 5.714Z" stroke="#252525" stroke-linecap="round" stroke-linejoin="round"/><path d="M17.858 3.571H2.143C1.354 3.571.715 4.211.715 5v10c0 .789.64 1.428 1.428 1.428h15.715c.789 0 1.428-.64 1.428-1.428V5c0-.79-.64-1.429-1.428-1.429Z" stroke="#252525" stroke-linecap="round" stroke-linejoin="round"/><path d="M3.967 10.357a.357.357 0 0 1 0-.714" stroke="#252525" stroke-linecap="round" stroke-linejoin="round"/><path d="M3.965 10.357a.357.357 0 0 0 0-.714m12.072.714a.357.357 0 1 1 0-.714" stroke="#252525" stroke-linecap="round" stroke-linejoin="round"/><path d="M16.035 10.357a.357.357 0 0 0 0-.714" stroke="#252525" stroke-linecap="round" stroke-linejoin="round"/></svg>