<svg width="24" height="24" viewBox="0 0 24 24" fill="none" xmlns="http://www.w3.org/2000/svg">
<g clip-path="url(#clip0_1401_16095)">
<path d="M1.4165 11.1993L8.58911 8.59106L11.1973 1.41846C11.4693 0.670412 12.5273 0.670409 12.7993 1.41845L15.4075 8.59106L22.5801 11.1993C23.3282 11.4713 23.3282 12.5293 22.5801 12.8013L15.4075 15.4095L12.7993 22.5821C12.5273 23.3302 11.4693 23.3302 11.1973 22.5821L8.58911 15.4095L1.4165 12.8013C0.668459 12.5293 0.668456 11.4713 1.4165 11.1993Z" fill="#FFD800"/>
<path d="M1.4165 11.1993L8.58911 8.59106L11.1973 1.41846C11.4693 0.670412 12.5273 0.670409 12.7993 1.41845L15.4075 8.59106L22.5801 11.1993C23.3282 11.4713 23.3282 12.5293 22.5801 12.8013L15.4075 15.4095L12.7993 22.5821C12.5273 23.3302 11.4693 23.3302 11.1973 22.5821L8.58911 15.4095L1.4165 12.8013C0.668459 12.5293 0.668456 11.4713 1.4165 11.1993Z" stroke="#252525" stroke-linecap="round" stroke-linejoin="round"/>
</g>
<defs>
<clipPath id="clip0_1401_16095">
<rect width="24" height="24" fill="white"/>
</clipPath>
</defs>
</svg>
