<svg width="24" height="24" viewBox="0 0 24 24" fill="none" xmlns="http://www.w3.org/2000/svg">
<path d="M14.5703 0.857422C21.4275 4.28599 22.2846 13.7146 22.2846 17.1431H14.5703" fill="#FFD800"/>
<path d="M14.5703 23.1431V0.857422C21.4275 4.28599 22.2846 13.7146 22.2846 17.1431H14.5703" stroke="#252525" stroke-linecap="round" stroke-linejoin="round"/>
<path d="M6 0.857422V23.1431" stroke="#252525" stroke-linecap="round" stroke-linejoin="round"/>
<path d="M10.2863 0.857422V5.14314C10.2863 5.70594 10.1754 6.26323 9.96004 6.78321C9.74466 7.30317 9.42897 7.77563 9.03102 8.1736C8.63305 8.57155 8.16059 8.88724 7.64063 9.10262C7.12065 9.31801 6.56336 9.42885 6.00056 9.42885C4.86392 9.42885 3.77382 8.97733 2.9701 8.1736C2.16637 7.36987 1.71484 6.27978 1.71484 5.14314V0.857422" stroke="#252525" stroke-linecap="round" stroke-linejoin="round"/>
</svg>
