<svg width="20" height="20" viewBox="0 0 20 20" fill="none" xmlns="http://www.w3.org/2000/svg">
<path d="M2.14355 3H17.8574C18.3703 3 18.7861 3.41588 18.7861 3.92871V16.0713C18.7861 16.5841 18.3703 17 17.8574 17H2.14355C1.63071 17 1.21484 16.5841 1.21484 16.0713V3.92871C1.21484 3.41588 1.63072 3 2.14355 3Z" fill="white" stroke="#252525"/>
<path d="M17.8577 2.5H2.14342C1.35444 2.5 0.714844 3.1396 0.714844 3.92857V16.0714C0.714844 16.8604 1.35444 17.5 2.14342 17.5H17.8577C18.6467 17.5 19.2863 16.8604 19.2863 16.0714V3.92857C19.2863 3.1396 18.6467 2.5 17.8577 2.5Z" stroke="#252525" stroke-linecap="round" stroke-linejoin="round"/>
<path d="M0.714844 4.28613L9.08627 11.429C9.34297 11.6428 9.66649 11.7599 10.0006 11.7599C10.3346 11.7599 10.6581 11.6428 10.9148 11.429L19.2863 4.28613" stroke="#252525" stroke-linecap="round" stroke-linejoin="round"/>
</svg>
