<svg width="20" height="20" viewBox="0 0 20 20" fill="none" xmlns="http://www.w3.org/2000/svg">
<g clip-path="url(#clip0_836_10497)">
<path d="M2.14342 2.85645C1.76453 2.85645 1.40117 3.00696 1.13326 3.27486C0.865354 3.54277 0.714844 3.90613 0.714844 4.28502V17.8564C0.714844 18.2353 0.865354 18.5987 1.13326 18.8666C1.40117 19.1344 1.76453 19.285 2.14342 19.285H17.8577C18.2366 19.285 18.6 19.1344 18.8678 18.8666C19.1357 18.5987 19.2863 18.2353 19.2863 17.8564V4.28502C19.2863 3.90613 19.1357 3.54277 18.8678 3.27486C18.6 3.00696 18.2366 2.85645 17.8577 2.85645H2.14342Z" fill="white"/>
<path d="M2.14342 2.85645C1.76453 2.85645 1.40117 3.00696 1.13326 3.27486C0.865354 3.54277 0.714844 3.90613 0.714844 4.28502V17.8564C0.714844 18.2353 0.865354 18.5987 1.13326 18.8666C1.40117 19.1344 1.76453 19.285 2.14342 19.285H17.8577C18.2366 19.285 18.6 19.1344 18.8678 18.8666C19.1357 18.5987 19.2863 18.2353 19.2863 17.8564V4.28502C19.2863 3.90613 19.1357 3.54277 18.8678 3.27486C18.6 3.00696 18.2366 2.85645 17.8577 2.85645H15.0006" stroke="#252525" stroke-linecap="round" stroke-linejoin="round"/>
<path d="M5 0.713867V4.99958" stroke="#252525" stroke-linecap="round" stroke-linejoin="round"/>
<path d="M15 0.713867V4.99958" stroke="#252525" stroke-linecap="round" stroke-linejoin="round"/>
<path d="M5 2.85645H12.1429" stroke="#252525" stroke-linecap="round" stroke-linejoin="round"/>
</g>
<defs>
<clipPath id="clip0_836_10497">
<rect width="20" height="20" fill="white"/>
</clipPath>
</defs>
</svg>
