<svg width="32" height="32" viewBox="0 0 32 32" fill="none" xmlns="http://www.w3.org/2000/svg">
<path d="M30.0209 8.02344C28.1947 8.02344 26.5097 7.41844 25.1565 6.39781C23.6047 5.22781 22.4897 3.51156 22.0959 1.53344C21.9984 1.04469 21.9459 0.540313 21.9409 0.0234375H16.724V14.2784L16.7178 22.0866C16.7178 24.1741 15.3584 25.9441 13.474 26.5666C12.9272 26.7472 12.3365 26.8328 11.7215 26.7991C10.9365 26.7559 10.2009 26.5191 9.56155 26.1366C8.20092 25.3228 7.27842 23.8466 7.25342 22.1578C7.21405 19.5184 9.3478 17.3666 11.9853 17.3666C12.5059 17.3666 13.0059 17.4516 13.474 17.6059V13.7097V12.3091C12.9803 12.2359 12.4778 12.1978 11.9697 12.1978C9.0828 12.1978 6.3828 13.3978 4.4528 15.5597C2.99405 17.1934 2.11905 19.2778 1.98405 21.4634C1.80717 24.3347 2.8578 27.0641 4.8953 29.0778C5.19467 29.3734 5.50905 29.6478 5.8378 29.9009C7.58467 31.2453 9.7203 31.9741 11.9697 31.9741C12.4778 31.9741 12.9803 31.9366 13.474 31.8634C15.5753 31.5522 17.514 30.5903 19.044 29.0778C20.924 27.2197 21.9628 24.7528 21.974 22.1272L21.9472 10.4672C22.844 11.1591 23.8247 11.7316 24.8772 12.1759C26.514 12.8666 28.2497 13.2166 30.0359 13.2159V9.42781V8.02219C30.0372 8.02344 30.0222 8.02344 30.0209 8.02344Z" fill="#252525"/>
</svg>
