<svg width="24" height="24" viewBox="0 0 24 24" fill="none" xmlns="http://www.w3.org/2000/svg">
<path d="M6.76124 16.3775C6.44621 16.1097 6.23857 15.7371 6.17658 15.3283L5.28516 6.49976H20.9709C21.2572 6.48695 21.5422 6.54615 21.7997 6.67194C22.0572 6.79772 22.2792 6.98607 22.4452 7.21976C22.6044 7.43956 22.7093 7.69405 22.751 7.96228C22.7928 8.23052 22.7702 8.50482 22.6852 8.76262L20.4052 15.6198C20.2858 15.9746 20.0537 16.2806 19.7441 16.4911C19.4347 16.7016 19.0648 16.805 18.6909 16.7854H7.89087C7.47745 16.7901 7.07626 16.6452 6.76124 16.3775Z" fill="#FFD800"/>
<path d="M0.5 0.5H4.68658L6.17801 15.3286C6.24 15.7373 6.44763 16.1099 6.76267 16.3777C7.07768 16.6455 7.47888 16.7903 7.89229 16.7857H18.6923C19.0662 16.8053 19.4361 16.7018 19.7456 16.4914C20.0552 16.2809 20.2873 15.9748 20.4066 15.62L22.6866 8.76286C22.7716 8.50506 22.7942 8.23074 22.7524 7.96253C22.7108 7.69429 22.6058 7.43981 22.4466 7.22C22.2806 6.98631 22.0586 6.79796 21.8012 6.67217C21.5437 6.54639 21.2586 6.48719 20.9723 6.5H5.28658" stroke="#252525" stroke-linecap="round" stroke-linejoin="round"/>
<path d="M18.4001 22.7866C17.9268 22.7866 17.543 22.4027 17.543 21.9294C17.543 21.4561 17.9268 21.0723 18.4001 21.0723C18.8734 21.0723 19.2573 21.4561 19.2573 21.9294C19.2573 22.4027 18.8734 22.7866 18.4001 22.7866Z" stroke="#252525" stroke-linecap="round" stroke-linejoin="round"/>
<path d="M7.25949 22.7866C6.7861 22.7866 6.40234 22.4027 6.40234 21.9294C6.40234 21.4561 6.7861 21.0723 7.25949 21.0723C7.73287 21.0723 8.11663 21.4561 8.11663 21.9294C8.11663 22.4027 7.73287 22.7866 7.25949 22.7866Z" stroke="#252525" stroke-linecap="round" stroke-linejoin="round"/>
</svg>
