<svg width="28" height="28" viewBox="0 0 28 28" fill="none" xmlns="http://www.w3.org/2000/svg">
<path d="M6.65 7.18462C7.21667 6.48462 7.81667 6.10128 8.45 6.03462C9.11667 5.93462 9.68333 6.05128 10.15 6.38461C10.6167 6.71795 10.8667 7.20128 10.9 7.83462C10.9667 8.43462 10.7 9.10128 10.1 9.83461C9.26667 10.8013 8.7 11.7846 8.4 12.7846C8.13333 13.7513 8 14.6013 8 15.3346L7.7 12.9346C9.26667 12.9346 10.5167 13.3679 11.45 14.2346C12.3833 15.1013 12.85 16.2846 12.85 17.7846C12.85 19.2179 12.4167 20.3846 11.55 21.2846C10.6833 22.1513 9.46667 22.5846 7.9 22.5846C6.4 22.5846 5.2 22.0679 4.3 21.0346C3.43333 19.9679 3 18.5013 3 16.6346C3 15.7013 3.08333 14.7513 3.25 13.7846C3.41667 12.8179 3.76667 11.8013 4.3 10.7346C4.86667 9.63461 5.65 8.45128 6.65 7.18462ZM18.15 7.18462C18.7167 6.48462 19.3167 6.10128 19.95 6.03462C20.6167 5.93462 21.1833 6.05128 21.65 6.38461C22.1167 6.71795 22.3667 7.20128 22.4 7.83462C22.4667 8.43462 22.2 9.10128 21.6 9.83461C20.7667 10.8013 20.2 11.7846 19.9 12.7846C19.6333 13.7513 19.5 14.6013 19.5 15.3346L19.2 12.9346C20.7667 12.9346 22.0167 13.3679 22.95 14.2346C23.8833 15.1013 24.35 16.2846 24.35 17.7846C24.35 19.2179 23.9167 20.3846 23.05 21.2846C22.1833 22.1513 20.9667 22.5846 19.4 22.5846C17.9 22.5846 16.7 22.0679 15.8 21.0346C14.9333 19.9679 14.5 18.5013 14.5 16.6346C14.5 15.7013 14.5833 14.7513 14.75 13.7846C14.9167 12.8179 15.2667 11.8013 15.8 10.7346C16.3667 9.63461 17.15 8.45128 18.15 7.18462Z" fill="white"/>
</svg>