<svg width="24" height="24" viewBox="0 0 24 24" fill="none" xmlns="http://www.w3.org/2000/svg">
<g clip-path="url(#clip0_816_10048)">
<path d="M7.13234 16.7349C6.8173 16.4671 6.60967 16.0945 6.54768 15.6858L5.65625 6.85718H21.342C21.6283 6.84438 21.9133 6.90357 22.1708 7.02936C22.4283 7.15514 22.6503 7.34349 22.8163 7.57718C22.9755 7.79699 23.0804 8.05147 23.1221 8.31971C23.1639 8.58794 23.1413 8.86224 23.0563 9.12004L20.7763 15.9772C20.6569 16.332 20.4248 16.638 20.1152 16.8485C19.8058 17.059 19.4359 17.1624 19.062 17.1429H8.26196C7.84855 17.1475 7.44735 17.0027 7.13234 16.7349Z" fill="#FFD800"/>
<path d="M0.871094 0.857178H5.05767L6.5491 15.6857C6.61109 16.0945 6.81873 16.4671 7.13376 16.7349C7.44878 17.0027 7.84997 17.1475 8.26339 17.1429H19.0634C19.4373 17.1624 19.8072 17.059 20.1166 16.8485C20.4262 16.638 20.6584 16.332 20.7777 15.9772L23.0577 9.12003C23.1427 8.86224 23.1653 8.58792 23.1235 8.3197C23.0818 8.05147 22.9769 7.79698 22.8177 7.57718C22.6517 7.34349 22.4297 7.15514 22.1722 7.02934C21.9148 6.90357 21.6297 6.84437 21.3434 6.85718H5.65767" stroke="#252525" stroke-linecap="round" stroke-linejoin="round"/>
<path d="M18.7712 23.1429C18.2979 23.1429 17.9141 22.759 17.9141 22.2857C17.9141 21.8124 18.2979 21.4286 18.7712 21.4286C19.2445 21.4286 19.6283 21.8124 19.6283 22.2857C19.6283 22.759 19.2445 23.1429 18.7712 23.1429Z" stroke="#252525" stroke-linecap="round" stroke-linejoin="round"/>
<path d="M7.63058 23.1429C7.1572 23.1429 6.77344 22.759 6.77344 22.2857C6.77344 21.8124 7.1572 21.4286 7.63058 21.4286C8.10396 21.4286 8.48772 21.8124 8.48772 22.2857C8.48772 22.759 8.10396 23.1429 7.63058 23.1429Z" stroke="#252525" stroke-linecap="round" stroke-linejoin="round"/>
</g>
<defs>
<clipPath id="clip0_816_10048">
<rect width="24" height="24" fill="white"/>
</clipPath>
</defs>
</svg>
