<svg width="24" height="24" fill="none" xmlns="http://www.w3.org/2000/svg"><path d="M18.805 3.244h.972a1.458 1.458 0 0 1 1.458 1.458v14.58a1.458 1.458 0 0 1-1.458 1.459h-.972V3.244Z" fill="#21393F"/><path d="M17.346.328a1.95 1.95 0 0 1 1.944 1.944v18.955a2.437 2.437 0 0 1-2.43 2.43H5.196a2.437 2.437 0 0 1-2.43-2.43V2.272A1.95 1.95 0 0 1 4.71.328h12.636Z" fill="#2F4B54"/><path d="M7.141 11.992H5.197a.486.486 0 0 0-.486.486v.972c0 .269.218.486.486.486h1.944a.486.486 0 0 0 .486-.486v-.972a.486.486 0 0 0-.486-.486Zm4.859 0h-1.944a.486.486 0 0 0-.486.486v.972c0 .269.218.486.486.486H12a.486.486 0 0 0 .486-.486v-.972a.486.486 0 0 0-.486-.486Zm4.86 0h-1.944a.486.486 0 0 0-.486.486v.972c0 .269.217.486.486.486h1.944a.486.486 0 0 0 .486-.486v-.972a.486.486 0 0 0-.486-.486ZM7.141 15.88H5.197a.486.486 0 0 0-.486.487v.972c0 .268.218.486.486.486h1.944a.486.486 0 0 0 .486-.486v-.972a.486.486 0 0 0-.486-.486Zm4.859 0h-1.944a.486.486 0 0 0-.486.487v.972c0 .268.218.486.486.486H12a.486.486 0 0 0 .486-.486v-.972A.486.486 0 0 0 12 15.88Zm4.86 0h-1.944a.486.486 0 0 0-.486.487v.972c0 .268.217.486.486.486h1.944a.486.486 0 0 0 .486-.486v-.972a.486.486 0 0 0-.486-.486Z" fill="#C0DADC"/><path d="M5.197 19.769h1.944a.486.486 0 0 1 .486.486v.972a.486.486 0 0 1-.486.486H6.17a1.458 1.458 0 0 1-1.458-1.458.486.486 0 0 1 .486-.486Z" fill="#C74C5E"/><path d="M12 19.769h-1.944a.486.486 0 0 0-.486.486v.972c0 .268.218.486.486.486H12a.486.486 0 0 0 .486-.486v-.972a.486.486 0 0 0-.486-.486Z" fill="#F9C84E"/><path d="M14.916 19.769h1.944a.486.486 0 0 1 .486.486 1.458 1.458 0 0 1-1.458 1.458h-.972a.486.486 0 0 1-.486-.486v-.972a.486.486 0 0 1 .486-.486Z" fill="#29A084"/><path d="M16.861 2.272H5.197a.486.486 0 0 0-.486.486v6.805c0 .268.218.486.486.486h11.664a.486.486 0 0 0 .486-.486V2.758a.486.486 0 0 0-.486-.486Z" fill="#D4E6E7"/><path d="M6.654 5.188a.486.486 0 0 1-.344-.83l.486-.485a.486.486 0 0 1 .688.687l-.486.486a.486.486 0 0 1-.344.142Zm0 2.431a.486.486 0 0 1-.344-.83l2.916-2.916a.486.486 0 0 1 .688.687L6.998 7.476a.486.486 0 0 1-.344.143Z" fill="#fff"/></svg>