<svg width="20" height="20" viewBox="0 0 20 20" fill="none" xmlns="http://www.w3.org/2000/svg">
<g clip-path="url(#clip0_836_10343)">
<path d="M10.001 4.78516C11.6972 4.78516 13.0722 6.16021 13.0723 7.85645C13.0723 9.55275 11.6973 10.9277 10.001 10.9277C8.30474 10.9277 6.92969 9.5527 6.92969 7.85645C6.92976 6.16026 8.30479 4.78523 10.001 4.78516Z" fill="white" stroke="#252525"/>
<path d="M16.1025 16.9993C14.4706 18.4231 12.3363 19.2856 10.0005 19.2856C7.66467 19.2856 5.53029 18.4231 3.89844 16.9993C5.15258 14.9436 7.41625 13.5713 10.0005 13.5713C12.5847 13.5713 14.8483 14.9436 16.1025 16.9993Z" fill="white"/>
<path fill-rule="evenodd" clip-rule="evenodd" d="M3.89852 16.999C5.15266 14.9433 7.41634 13.571 10.0006 13.571C12.5848 13.571 14.8484 14.9433 16.1026 16.999C18.0536 15.2967 19.2863 12.7921 19.2863 9.99958C19.2863 4.87122 15.129 0.713867 10.0006 0.713867C4.8722 0.713867 0.714844 4.87122 0.714844 9.99958C0.714844 12.7921 1.94756 15.2967 3.89852 16.999ZM10.0006 11.4282C11.973 11.4282 13.572 9.82917 13.572 7.85672C13.572 5.88428 11.973 4.2853 10.0006 4.2853C8.02812 4.2853 6.42913 5.88428 6.42913 7.85672C6.42913 9.82917 8.02812 11.4282 10.0006 11.4282Z" fill="white"/>
<path d="M3.90234 16.9999C4.53983 15.9534 5.43579 15.0886 6.50407 14.4886C7.57236 13.8884 8.77704 13.5732 10.0023 13.5732C11.2276 13.5732 12.4323 13.8884 13.5006 14.4886C14.5689 15.0886 15.4648 15.9534 16.1024 16.9999" stroke="#252525" stroke-linecap="round" stroke-linejoin="round"/>
<path d="M10.0006 19.2853C15.129 19.2853 19.2863 15.128 19.2863 9.99958C19.2863 4.87122 15.129 0.713867 10.0006 0.713867C4.8722 0.713867 0.714844 4.87122 0.714844 9.99958C0.714844 15.128 4.8722 19.2853 10.0006 19.2853Z" stroke="#252525" stroke-linecap="round" stroke-linejoin="round"/>
</g>
<defs>
<clipPath id="clip0_836_10343">
<rect width="20" height="20" fill="white"/>
</clipPath>
</defs>
</svg>
