<svg width="10" height="10" viewBox="0 0 10 10" fill="none" xmlns="http://www.w3.org/2000/svg">
<path d="M4.53672 9.07195C4.27272 9.07195 4.06872 8.99995 3.92472 8.85595C3.78072 8.69995 3.70872 8.48995 3.70872 8.22595V5.27395H0.810719C0.558719 5.27395 0.360719 5.20795 0.216719 5.07595C0.0727188 4.93195 0.000718758 4.73395 0.000718758 4.48195C0.000718758 4.22995 0.0727188 4.03795 0.216719 3.90595C0.360719 3.76195 0.558719 3.68995 0.810719 3.68995H3.70872V0.827949C3.70872 0.563949 3.78072 0.359949 3.92472 0.215948C4.06872 0.0719488 4.27872 -5.10216e-05 4.55472 -5.10216e-05C4.81872 -5.10216e-05 5.01672 0.0719488 5.14872 0.215948C5.29272 0.359949 5.36472 0.563949 5.36472 0.827949V3.68995H8.26272C8.52672 3.68995 8.72472 3.76195 8.85672 3.90595C9.00072 4.03795 9.07272 4.22995 9.07272 4.48195C9.07272 4.73395 9.00072 4.93195 8.85672 5.07595C8.72472 5.20795 8.52672 5.27395 8.26272 5.27395H5.36472V8.22595C5.36472 8.48995 5.29272 8.69995 5.14872 8.85595C5.01672 8.99995 4.81272 9.07195 4.53672 9.07195Z" fill="#252525"/>
</svg>
