<svg width="37" height="37" viewBox="0 0 37 37" fill="none" xmlns="http://www.w3.org/2000/svg">
<g clip-path="url(#clip0_867_15129)">
<path d="M3.50781 3.82251C4.88543 3.82251 6.00781 4.94489 6.00781 6.32251C6.00781 7.70013 4.88543 8.82251 3.50781 8.82251C2.1302 8.82251 1.00781 7.70013 1.00781 6.32251C1.00781 4.94489 2.1302 3.82251 3.50781 3.82251Z" fill="#009340" stroke="white" stroke-width="2"/>
<path d="M3.50781 14.8225C4.88543 14.8225 6.00781 15.9449 6.00781 17.3225C6.00781 18.7001 4.88543 19.8225 3.50781 19.8225C2.1302 19.8225 1.00781 18.7001 1.00781 17.3225C1.00781 15.9449 2.1302 14.8225 3.50781 14.8225Z" fill="#009340" stroke="white" stroke-width="2"/>
<path d="M3.50781 26.8225C4.88543 26.8225 6.00781 27.9449 6.00781 29.3225C6.00781 30.7001 4.88543 31.8225 3.50781 31.8225C2.1302 31.8225 1.00781 30.7001 1.00781 29.3225C1.00781 27.9449 2.1302 26.8225 3.50781 26.8225Z" fill="#009340" stroke="white" stroke-width="2"/>
<path d="M16.2695 3.82251H32.7461C34.7366 3.82251 36.0078 5.11998 36.0078 6.32251C36.0078 7.52504 34.7366 8.82251 32.7461 8.82251H16.2695C14.279 8.82251 13.0078 7.52504 13.0078 6.32251C13.0078 5.11998 14.279 3.82251 16.2695 3.82251Z" fill="#009340" stroke="white" stroke-width="2"/>
<path d="M16.2695 14.8225H32.7461C34.7366 14.8225 36.0078 16.12 36.0078 17.3225C36.0078 18.525 34.7366 19.8225 32.7461 19.8225H16.2695C14.279 19.8225 13.0078 18.525 13.0078 17.3225C13.0078 16.12 14.279 14.8225 16.2695 14.8225Z" fill="#009340" stroke="white" stroke-width="2"/>
<path d="M16.2695 26.8225H32.7461C34.7366 26.8225 36.0078 28.12 36.0078 29.3225C36.0078 30.525 34.7366 31.8225 32.7461 31.8225H16.2695C14.279 31.8225 13.0078 30.525 13.0078 29.3225C13.0078 28.12 14.279 26.8225 16.2695 26.8225Z" fill="#009340" stroke="white" stroke-width="2"/>
</g>
<defs>
<clipPath id="clip0_867_15129">
<rect width="37" height="37" fill="white"/>
</clipPath>
</defs>
</svg>
