<svg width="24" height="24" viewBox="0 0 24 24" fill="none" xmlns="http://www.w3.org/2000/svg">
<path d="M3.5625 2.10944C3.5625 2.10944 5.67187 3.51569 7.78124 3.51569C11.1517 3.51569 12.8483 0.703197 16.2187 0.703197C18.3281 0.703197 20.4375 2.10944 20.4375 2.10944V13.3594C20.4375 13.3594 18.3281 11.9532 16.2187 11.9532C12.8483 11.9532 11.1517 14.7657 7.78124 14.7657C5.67187 14.7657 3.5625 13.3594 3.5625 13.3594" fill="#009340"/>
<path d="M3.5625 2.10944C3.5625 2.10944 5.67187 3.51569 7.78124 3.51569C11.1517 3.51569 12.8483 0.703197 16.2187 0.703197C18.3281 0.703197 20.4375 2.10944 20.4375 2.10944V13.3594C20.4375 13.3594 18.3281 11.9532 16.2187 11.9532C12.8483 11.9532 11.1517 14.7657 7.78124 14.7657C5.67187 14.7657 3.5625 13.3594 3.5625 13.3594" stroke="white" stroke-miterlimit="10"/>
<path d="M3.5625 7.05719e-05V24" stroke="white" stroke-miterlimit="10"/>
</svg>
