<svg width="20" height="20" viewBox="0 0 20 20" fill="none" xmlns="http://www.w3.org/2000/svg">
<path d="M4.28418 8.35938H15.7129C16.2256 8.35953 16.6416 8.77534 16.6416 9.28809V17.8594C16.6416 18.3721 16.2256 18.7879 15.7129 18.7881H4.28418C3.77134 18.7881 3.35547 18.3722 3.35547 17.8594V9.28809L3.36035 9.19336C3.40775 8.72496 3.80329 8.35938 4.28418 8.35938Z" fill="#FFD800" stroke="#252525"/>
<path d="M15 7.8577V5.71484C15 4.38876 14.4733 3.11699 13.5355 2.17932C12.5979 1.24163 11.3261 0.714844 10 0.714844C8.67391 0.714844 7.40214 1.24163 6.46447 2.17932C5.52679 3.11699 5 4.38876 5 5.71484V7.8577" stroke="#252525" stroke-linecap="round" stroke-linejoin="round"/>
<path d="M9.99944 14.2879C10.3939 14.2879 10.7137 13.9681 10.7137 13.5737C10.7137 13.1792 10.3939 12.8594 9.99944 12.8594C9.60496 12.8594 9.28516 13.1792 9.28516 13.5737C9.28516 13.9681 9.60496 14.2879 9.99944 14.2879Z" stroke="#252525" stroke-linecap="round" stroke-linejoin="round"/>
</svg>
