<svg width="20" height="20" fill="none" xmlns="http://www.w3.org/2000/svg"><path d="M17.496 12.09c0-7.156-6.319-10.466-9.295-11.241 1.114 2.785 1.053 4.847-.385 7.387-.232.412-.798.453-1.11.098L4.875 6.26c-4.784 5.083-2.03 13.26 5.546 12.88 5.796-.358 7.074-4.218 7.074-7.05Z" fill="#fff"/><path d="M17.496 12.09c0-7.156-6.319-10.466-9.295-11.241 1.114 2.785 1.053 4.847-.385 7.387-.232.412-.798.453-1.11.098L4.875 6.26c-4.784 5.083-2.03 13.26 5.546 12.88 5.796-.358 7.074-4.218 7.074-7.05Zm-9.398 3.515 4.69-4.69" stroke="#252525" stroke-linecap="round" stroke-linejoin="round"/><path d="M8.666 11.597a.357.357 0 1 1 0-.714" stroke="#252525" stroke-linecap="round" stroke-linejoin="round"/><path d="M8.664 11.597a.357.357 0 1 0 0-.714m3.799 4.755a.357.357 0 0 1 0-.714" stroke="#252525" stroke-linecap="round" stroke-linejoin="round"/><path d="M12.46 15.638a.357.357 0 0 0 0-.714" stroke="#252525" stroke-linecap="round" stroke-linejoin="round"/></svg>