<svg width="126" height="126" viewBox="0 0 126 126" fill="none" xmlns="http://www.w3.org/2000/svg">
<g clip-path="url(#clip0_738_11567)">
<path d="M84.0339 83.218H41.823C30.5623 83.218 21.4336 74.1257 21.4336 62.9099C21.4336 51.6939 30.5623 42.6016 41.823 42.6016H84.0339C95.2948 42.6016 104.423 51.6939 104.423 62.9099C104.423 74.1257 95.2948 83.218 84.0339 83.218Z" fill="#EF0405"/>
<path d="M100.202 59.8259C99.7585 59.7716 99.3042 59.7175 98.8676 59.8135C98.3073 59.9365 97.83 60.2939 97.2947 60.5002C95.1695 61.3187 92.7638 59.6212 90.5564 60.1845C89.7505 60.3902 89.0421 60.885 88.2356 61.0884C85.8083 61.7002 83.3102 59.5534 80.8853 60.1743C80.178 60.3554 79.5397 60.7642 78.8216 60.8962C76.8107 61.2663 74.8994 59.4024 72.8821 59.7359C71.5706 59.9525 70.4425 61.0799 69.1228 60.9197C68.2257 60.8109 67.505 60.122 66.6338 59.8822C65.0602 59.4489 63.4751 60.5489 61.8433 60.6008C60.1946 60.6532 58.6261 59.6298 56.9869 59.8125C55.6581 59.9605 54.4409 60.892 53.1145 60.7232C52.1314 60.5982 51.2915 59.8798 50.3035 59.8023C48.876 59.6903 47.6397 60.9319 46.2079 60.9467C45.1275 60.9579 44.1697 60.2718 43.1118 60.0545C41.5066 59.7251 39.8758 60.4998 38.2373 60.4589C36.0249 60.4038 34.0409 58.8779 31.8277 58.8731C29.6477 58.8683 27.7015 60.3371 25.5272 60.495C24.2468 60.5879 22.8688 60.243 21.5856 60.1741C21.4857 60.9832 21.4336 61.8069 21.4336 62.6427V63.176C21.4336 64.0759 21.4941 64.9615 21.6094 65.8299C22.7655 66.1398 23.9525 66.2995 25.0878 65.9768C26.1361 65.6787 27.0274 64.997 28.0193 64.547C29.6974 63.7858 31.6807 63.7197 33.406 64.3679C34.8943 64.9269 36.2988 66.0084 37.8805 65.8383C39.0398 65.7137 40.0729 64.9156 41.2388 64.9311C42.362 64.9463 43.3385 65.7123 44.4439 65.9107C46.1836 66.2228 47.9536 65.0967 49.6851 65.4499C50.2815 65.5715 50.8324 65.8638 51.4286 65.9854C53.7071 66.4502 56.0094 64.3671 58.2342 65.042C58.9214 65.2504 59.5154 65.7085 60.2112 65.8856C62.3294 66.4249 64.6224 64.2485 66.5854 65.2067C67.168 65.491 67.6084 66.0202 68.2065 66.2705C70.0051 67.0233 71.944 64.9373 73.8503 65.3517C74.7418 65.5455 75.4357 66.2578 76.3049 66.5343C78.484 67.2274 80.8095 65.0062 82.9874 65.7027C83.9174 66 84.6612 66.8015 85.6306 66.9195C87.0873 67.0966 88.3043 65.6759 89.7698 65.6032C90.6382 65.5603 91.4512 65.9978 92.3046 66.1629C94.4442 66.5764 96.5498 65.2616 98.7291 65.2356C100.587 65.2133 102.326 66.1248 104.166 66.3824C104.334 65.3383 104.423 64.2676 104.423 63.176V62.6427C104.423 61.8622 104.377 61.0924 104.29 60.3351C103.998 60.2919 103.705 60.2554 103.414 60.2199C102.344 60.0885 101.273 59.9573 100.202 59.8259Z" fill="white"/>
<path d="M28.8261 58.675C29.7914 58.3054 30.761 57.8985 31.7877 57.8354C34.0863 57.6944 36.0822 60.4277 38.5429 59.2916C39.0419 59.0612 39.4457 58.6445 39.9547 58.4386C41.8878 57.6569 43.7644 60.2107 45.8309 59.9869C47.2651 59.8315 48.3919 58.3561 49.8313 58.448C50.9237 58.5179 51.7937 59.4853 52.8783 59.6348C54.38 59.8421 55.7408 58.4388 57.2502 58.5756C58.2728 58.6684 59.1204 59.4517 60.1267 59.6594C62.0665 60.0597 63.9606 58.2523 65.9005 58.6516C67.0723 58.8928 68.0209 59.9102 69.2133 59.9926C70.7353 60.0979 71.9965 58.6544 73.5192 58.5566C75.3125 58.4414 76.8986 60.2137 78.6704 59.9074C79.7437 59.7217 80.6189 58.7928 81.7061 58.7381C83.1579 58.665 84.2663 60.15 85.7015 60.3856C87.9177 60.7494 89.9032 58.058 92.0677 58.6676C92.9909 58.9276 93.721 59.7638 94.6742 59.8557C96.2337 60.006 97.4726 58.1145 99.0279 58.3052C100.094 58.4358 100.942 59.5344 102.01 59.4276C102.727 59.3559 103.356 58.7375 104.069 58.8417C105.815 59.0967 106.055 61.8049 104.054 61.8899C102.488 61.9566 101.242 61.0202 99.8031 60.5072C99.6106 60.4387 99.407 60.372 99.2057 60.4068C99.0307 60.4371 98.8787 60.5407 98.7328 60.6416C97.481 61.5082 97.0456 61.9726 95.5148 61.5938C94.399 61.3177 93.2585 60.8169 92.0873 61.0749C91.1505 61.2815 90.7275 61.8546 89.7432 61.735C88.819 61.6228 88.5835 61.6232 87.6206 61.9027C86.694 62.1717 85.6905 62.1964 84.7643 61.8999C84.0677 61.6769 83.5464 61.1677 82.7754 61.1072C81.323 60.9934 80.0648 62.1012 78.612 62.101C77.0169 62.101 76.0394 61.7522 74.5338 61.1342C74.0331 60.9285 73.5066 60.7189 72.9678 60.773C72.5899 60.8107 72.239 60.9758 71.8862 61.1158C71.0374 61.4524 69.7071 62.0403 68.7763 61.9213C67.8738 61.8061 66.8235 61.0759 65.943 60.7754C65.6898 60.6889 65.4318 60.6062 65.1648 60.5909C64.8134 60.5707 64.4655 60.6685 64.1358 60.7911C62.7836 61.2941 61.193 62.4093 59.7725 61.4213C59.1318 60.9756 58.6146 60.2241 57.7523 60.2243C57.3616 60.2243 56.995 60.3988 56.6439 60.5693C56.0289 60.8682 55.4137 61.1671 54.7986 61.466C54.282 61.717 53.1573 61.7635 52.5974 61.6176C52.0658 61.4788 51.5899 60.9569 51.0197 60.7951C50.3092 60.5937 49.5206 60.6146 48.8586 60.9411C48.6299 61.0541 48.419 61.2011 48.1868 61.3071C47.9222 61.4281 47.6357 61.4932 47.3519 61.5577C45.9983 61.864 45.1884 62.099 43.8791 61.5721C42.9261 61.1883 42.0267 60.6831 40.9727 60.6478C40.5268 60.6328 40.0736 60.6893 39.6632 60.863C39.1762 61.0691 38.7715 61.4293 38.3034 61.6749C37.2421 62.2314 36.3544 61.5121 35.3825 61.1048C34.0169 60.5326 32.7577 59.3481 31.1824 59.4743C29.9728 59.5713 29.0729 60.4068 27.8911 60.5775C26.6143 60.762 25.4235 61.244 24.1579 61.4706C22.7839 61.7166 19.0278 60.7486 21.1212 58.8425C21.6947 58.3204 22.5676 58.33 23.3063 58.541C24.0452 58.7521 24.7377 59.1321 25.4938 59.263C26.5634 59.4483 27.6503 59.1195 28.6681 58.7351C28.7206 58.7153 28.7734 58.6952 28.8261 58.675Z" fill="#9F0000"/>
<path d="M28.8261 64.0832C29.7914 63.7136 30.761 63.3067 31.7877 63.2436C34.0863 63.1026 36.0822 65.8359 38.5429 64.6998C39.0419 64.4694 39.4457 64.0527 39.9547 63.8468C41.8878 63.0651 43.7644 65.6187 45.8309 65.3951C47.2651 65.2397 48.3919 63.7643 49.8313 63.8562C50.9237 63.9261 51.7937 64.8935 52.8783 65.043C54.38 65.2503 55.7408 63.847 57.2502 63.9838C58.2728 64.0766 59.1204 64.8597 60.1267 65.0676C62.0665 65.4679 63.9606 63.6605 65.9005 64.0598C67.0723 64.3008 68.0209 65.3184 69.2133 65.4008C70.7353 65.5061 71.9965 64.0626 73.5192 63.9648C75.3125 63.8496 76.8986 65.6219 78.6704 65.3156C79.7437 65.1299 80.6189 64.2008 81.7061 64.1461C83.1579 64.0732 84.2663 65.5582 85.7015 65.7938C87.9177 66.1576 89.9032 63.4662 92.0677 64.0758C92.9909 64.3358 93.721 65.172 94.6742 65.2639C96.2337 65.4142 97.4726 63.5227 99.0279 63.7134C100.094 63.844 100.942 64.9424 102.01 64.8358C102.727 64.7641 103.356 64.1457 104.069 64.2499C105.815 64.5049 106.055 67.2131 104.054 67.2981C102.488 67.3648 101.242 66.4284 99.8031 65.9154C99.6106 65.8469 99.407 65.7802 99.2057 65.815C99.0307 65.8453 98.8787 65.9487 98.7328 66.0498C97.481 66.9164 97.0456 67.3808 95.5148 67.002C94.399 66.7259 93.2585 66.2251 92.0873 66.4831C91.1505 66.6897 90.7275 67.2628 89.7432 67.1432C88.819 67.031 88.5835 67.0314 87.6206 67.3109C86.694 67.5799 85.6905 67.6046 84.7643 67.3081C84.0677 67.0851 83.5464 66.5759 82.7754 66.5154C81.323 66.4016 80.0648 67.5094 78.612 67.5092C77.0169 67.5092 76.0394 67.1604 74.5338 66.5422C74.0331 66.3367 73.5066 66.1271 72.9678 66.181C72.5899 66.2189 72.239 66.384 71.8862 66.5238C71.0374 66.8606 69.7071 67.4485 68.7763 67.3295C67.8738 67.2143 66.8235 66.4841 65.943 66.1836C65.6898 66.0971 65.4318 66.0144 65.1648 65.9991C64.8134 65.9789 64.4655 66.0767 64.1358 66.1993C62.7836 66.7023 61.193 67.8175 59.7725 66.8293C59.1318 66.3838 58.6146 65.6323 57.7523 65.6325C57.3616 65.6325 56.995 65.8068 56.6439 65.9775C56.0289 66.2764 55.4137 66.5753 54.7986 66.8742C54.282 67.1252 53.1573 67.1717 52.5974 67.0256C52.0658 66.887 51.5899 66.3651 51.0197 66.2031C50.3092 66.0017 49.5206 66.0228 48.8586 66.3493C48.6299 66.4621 48.419 66.6093 48.1868 66.7153C47.9222 66.8363 47.6357 66.9014 47.3519 66.9657C45.9983 67.2722 45.1884 67.5072 43.8791 66.9801C42.9261 66.5965 42.0267 66.0913 40.9727 66.056C40.5268 66.041 40.0736 66.0973 39.6632 66.2712C39.1762 66.4773 38.7715 66.8375 38.3034 67.0831C37.2421 67.6396 36.3544 66.9202 35.3825 66.513C34.0169 65.9408 32.7577 64.7563 31.1824 64.8825C29.9728 64.9795 29.0729 65.815 27.8911 65.9857C26.6143 66.1702 25.4235 66.6522 24.1579 66.8788C22.7839 67.1248 19.0278 66.1568 21.1212 64.2507C21.6947 63.7286 22.5676 63.738 23.3063 63.9492C24.0452 64.1603 24.7377 64.5403 25.4938 64.6712C26.5634 64.8565 27.6503 64.5277 28.6681 64.1433C28.7206 64.1233 28.7734 64.1034 28.8261 64.0832Z" fill="#9F0000"/>
<path d="M84.0339 123.82H41.823C30.5623 123.82 21.4336 114.727 21.4336 103.511C21.4336 92.2954 30.5623 83.2031 41.823 83.2031H84.0339C95.2948 83.2031 104.423 92.2954 104.423 103.511C104.423 114.727 95.2948 123.82 84.0339 123.82Z" fill="#FFD800"/>
<path d="M100.202 100.429C99.7585 100.375 99.3042 100.321 98.8676 100.417C98.3073 100.54 97.83 100.898 97.2947 101.104C95.1695 101.922 92.7638 100.225 90.5564 100.788C89.7505 100.994 89.0421 101.489 88.2356 101.692C85.8083 102.304 83.3102 100.157 80.8853 100.778C80.178 100.959 79.5397 101.368 78.8216 101.5C76.8107 101.87 74.8994 100.006 72.8821 100.339C71.5706 100.556 70.4425 101.684 69.1228 101.523C68.2257 101.414 67.505 100.726 66.6338 100.486C65.0602 100.052 63.4751 101.152 61.8433 101.204C60.1946 101.257 58.6261 100.234 56.9869 100.416C55.6581 100.564 54.4409 101.495 53.1145 101.327C52.1314 101.202 51.2915 100.483 50.3035 100.406C48.876 100.294 47.6397 101.536 46.2079 101.55C45.1275 101.562 44.1697 100.875 43.1118 100.658C41.5066 100.329 39.8758 101.103 38.2373 101.063C36.0249 101.007 34.0409 99.4816 31.8277 99.4766C29.6477 99.4718 27.7015 100.941 25.5272 101.099C24.2468 101.192 22.8688 100.847 21.5856 100.778C21.4857 101.587 21.4336 102.41 21.4336 103.246V103.78C21.4336 104.679 21.4941 105.565 21.6094 106.433C22.7655 106.743 23.9525 106.903 25.0878 106.58C26.1361 106.282 27.0274 105.601 28.0193 105.15C29.6974 104.389 31.6807 104.323 33.406 104.971C34.8943 105.53 36.2988 106.612 37.8805 106.442C39.0398 106.317 40.0729 105.519 41.2388 105.535C42.362 105.55 43.3385 106.316 44.4439 106.514C46.1836 106.826 47.9536 105.7 49.6851 106.053C50.2815 106.175 50.8324 106.467 51.4286 106.589C53.7071 107.054 56.0094 104.971 58.2342 105.645C58.9214 105.854 59.5154 106.312 60.2112 106.489C62.3294 107.028 64.6224 104.852 66.5854 105.81C67.168 106.095 67.6084 106.624 68.2065 106.874C70.0051 107.627 71.944 105.541 73.8503 105.955C74.7418 106.149 75.4357 106.861 76.3049 107.138C78.484 107.831 80.8095 105.61 82.9874 106.306C83.9174 106.603 84.6612 107.405 85.6306 107.523C87.0873 107.7 88.3043 106.279 89.7698 106.207C90.6382 106.164 91.4512 106.602 92.3046 106.766C94.4442 107.18 96.5498 105.865 98.7291 105.839C100.587 105.817 102.326 106.728 104.166 106.986C104.334 105.942 104.423 104.871 104.423 103.78V103.246C104.423 102.466 104.377 101.696 104.29 100.939C103.998 100.895 103.705 100.859 103.414 100.823C102.344 100.692 101.273 100.561 100.202 100.429Z" fill="white"/>
<path d="M28.8261 99.2764C29.7914 98.9068 30.761 98.4999 31.7877 98.437C34.0863 98.2958 36.0822 101.029 38.5429 99.893C39.0419 99.6625 39.4457 99.2458 39.9547 99.04C41.8878 98.2583 43.7644 100.812 45.8309 100.588C47.2651 100.433 48.3919 98.9575 49.8313 99.0496C50.9237 99.1192 51.7937 100.087 52.8783 100.236C54.38 100.444 55.7408 99.0402 57.2502 99.1769C58.2728 99.2698 59.1204 100.053 60.1267 100.261C62.0665 100.661 63.9606 98.8537 65.9005 99.253C67.0723 99.4942 68.0209 100.512 69.2133 100.594C70.7353 100.699 71.9965 99.2558 73.5192 99.158C75.3125 99.0428 76.8986 100.815 78.6704 100.509C79.7437 100.323 80.6189 99.3942 81.7061 99.3395C83.1579 99.2664 84.2663 100.751 85.7015 100.987C87.9177 101.351 89.9032 98.6594 92.0677 99.269C92.9909 99.529 93.721 100.365 94.6742 100.457C96.2337 100.607 97.4726 98.7159 99.0279 98.9066C100.094 99.0372 100.942 100.136 102.01 100.029C102.727 99.9573 103.356 99.3391 104.069 99.4431C105.815 99.6981 106.055 102.406 104.054 102.492C102.488 102.558 101.242 101.622 99.8031 101.109C99.6106 101.04 99.407 100.973 99.2057 101.008C99.0307 101.038 98.8787 101.142 98.7328 101.243C97.481 102.11 97.0456 102.574 95.5148 102.195C94.399 101.919 93.2585 101.418 92.0873 101.676C91.1505 101.883 90.7275 102.456 89.7432 102.336C88.819 102.224 88.5835 102.225 87.6206 102.504C86.694 102.773 85.6905 102.798 84.7643 102.501C84.0677 102.278 83.5464 101.769 82.7754 101.709C81.323 101.595 80.0648 102.703 78.612 102.703C77.0169 102.702 76.0394 102.354 74.5338 101.736C74.0331 101.53 73.5066 101.32 72.9678 101.374C72.5899 101.412 72.239 101.577 71.8862 101.717C71.0374 102.054 69.7071 102.642 68.7763 102.523C67.8738 102.407 66.8235 101.677 65.943 101.377C65.6898 101.29 65.4318 101.208 65.1648 101.192C64.8134 101.172 64.4655 101.27 64.1358 101.393C62.7836 101.895 61.193 103.011 59.7725 102.023C59.1318 101.577 58.6146 100.825 57.7523 100.826C57.3616 100.826 56.995 101 56.6439 101.171C56.0289 101.47 55.4137 101.768 54.7986 102.067C54.282 102.318 53.1573 102.365 52.5974 102.219C52.0658 102.08 51.5899 101.558 51.0197 101.397C50.3092 101.195 49.5206 101.216 48.8586 101.542C48.6299 101.655 48.419 101.802 48.1868 101.909C47.9222 102.03 47.6357 102.095 47.3519 102.159C45.9983 102.465 45.1884 102.7 43.8791 102.173C42.9261 101.79 42.0267 101.284 40.9727 101.249C40.5268 101.234 40.0736 101.291 39.6632 101.464C39.1762 101.67 38.7715 102.031 38.3034 102.276C37.2421 102.833 36.3544 102.114 35.3825 101.706C34.0169 101.134 32.7577 99.9495 31.1824 100.076C29.9728 100.173 29.0729 101.008 27.8911 101.179C26.6143 101.363 25.4235 101.846 24.1579 102.072C22.7839 102.318 19.0278 101.35 21.1212 99.4439C21.6947 98.9218 22.5676 98.9313 23.3063 99.1424C24.0452 99.3535 24.7377 99.7334 25.4938 99.8644C26.5634 100.05 27.6503 99.7209 28.6681 99.3365C28.7206 99.3167 28.7734 99.2965 28.8261 99.2764Z" fill="#E1BA00"/>
<path d="M28.8261 104.685C29.7914 104.315 30.761 103.908 31.7877 103.845C34.0863 103.704 36.0822 106.437 38.5429 105.301C39.0419 105.071 39.4457 104.654 39.9547 104.448C41.8878 103.667 43.7644 106.22 45.8309 105.997C47.2651 105.841 48.3919 104.366 49.8313 104.458C50.9237 104.528 51.7937 105.495 52.8783 105.645C54.38 105.852 55.7408 104.449 57.2502 104.585C58.2728 104.678 59.1204 105.461 60.1267 105.669C62.0665 106.069 63.9606 104.262 65.9005 104.661C67.0723 104.903 68.0209 105.92 69.2133 106.002C70.7353 106.108 71.9965 104.664 73.5192 104.566C75.3125 104.451 76.8986 106.223 78.6704 105.917C79.7437 105.731 80.6189 104.803 81.7061 104.748C83.1579 104.675 84.2663 106.16 85.7015 106.395C87.9177 106.759 89.9032 104.068 92.0677 104.677C92.9909 104.937 93.721 105.774 94.6742 105.865C96.2337 106.016 97.4726 104.124 99.0279 104.315C100.094 104.446 100.942 105.544 102.01 105.437C102.727 105.366 103.356 104.747 104.069 104.851C105.815 105.106 106.055 107.815 104.054 107.9C102.488 107.966 101.242 107.03 99.8031 106.517C99.6106 106.448 99.407 106.382 99.2057 106.417C99.0307 106.447 98.8787 106.551 98.7328 106.651C97.481 107.518 97.0456 107.982 95.5148 107.604C94.399 107.327 93.2585 106.827 92.0873 107.085C91.1505 107.291 90.7275 107.864 89.7432 107.745C88.819 107.633 88.5835 107.633 87.6206 107.912C86.694 108.181 85.6905 108.206 84.7643 107.91C84.0677 107.687 83.5464 107.177 82.7754 107.117C81.323 107.003 80.0648 108.111 78.612 108.111C77.0169 108.111 76.0394 107.762 74.5338 107.144C74.0331 106.938 73.5066 106.729 72.9678 106.783C72.5899 106.82 72.239 106.986 71.8862 107.126C71.0374 107.462 69.7071 108.05 68.7763 107.931C67.8738 107.816 66.8235 107.086 65.943 106.785C65.6898 106.699 65.4318 106.616 65.1648 106.601C64.8134 106.58 64.4655 106.678 64.1358 106.801C62.7836 107.304 61.193 108.419 59.7725 107.431C59.1318 106.985 58.6146 106.234 57.7523 106.234C57.3616 106.234 56.995 106.409 56.6439 106.579C56.0289 106.878 55.4137 107.177 54.7986 107.476C54.282 107.727 53.1573 107.773 52.5974 107.627C52.0658 107.489 51.5899 106.967 51.0197 106.805C50.3092 106.603 49.5206 106.624 48.8586 106.951C48.6299 107.064 48.419 107.211 48.1868 107.317C47.9222 107.438 47.6357 107.503 47.3519 107.567C45.9983 107.874 45.1884 108.109 43.8791 107.582C42.9261 107.198 42.0267 106.693 40.9727 106.658C40.5268 106.643 40.0736 106.699 39.6632 106.873C39.1762 107.079 38.7715 107.439 38.3034 107.685C37.2421 108.241 36.3544 107.522 35.3825 107.115C34.0169 106.542 32.7577 105.358 31.1824 105.484C29.9728 105.581 29.0729 106.417 27.8911 106.587C26.6143 106.772 25.4235 107.254 24.1579 107.48C22.7839 107.726 19.0278 106.758 21.1212 104.852C21.6947 104.33 22.5676 104.34 23.3063 104.551C24.0452 104.762 24.7377 105.142 25.4938 105.273C26.5634 105.458 27.6503 105.129 28.6681 104.745C28.7206 104.725 28.7734 104.705 28.8261 104.685Z" fill="#E1BA00"/>
<path d="M84.0339 42.6164H41.823C30.5623 42.6164 21.4336 33.5241 21.4336 22.3083C21.4336 11.0925 30.5623 2.00001 41.823 2.00001H84.0339C95.2948 2.00001 104.423 11.0923 104.423 22.3081C104.423 33.5239 95.2948 42.6164 84.0339 42.6164Z" fill="#F77F00"/>
<path d="M100.202 19.2243C99.7585 19.1698 99.3042 19.1159 98.8676 19.2118C98.3073 19.335 97.83 19.6924 97.2947 19.8984C95.1695 20.7169 92.7638 19.0197 90.5564 19.583C89.7505 19.7884 89.0421 20.2834 88.2356 20.4867C85.8083 21.0985 83.3102 18.9518 80.8853 19.5728C80.178 19.7539 79.5397 20.1624 78.8216 20.2946C76.8107 20.6648 74.8994 18.8008 72.8821 19.1343C71.5706 19.3509 70.4425 20.4783 69.1228 20.3182C68.2257 20.2091 67.505 19.5203 66.6338 19.2805C65.0602 18.8474 63.4751 19.9474 61.8433 19.9991C60.1946 20.0516 58.6261 19.0283 56.9869 19.2108C55.6581 19.3589 54.4409 20.2902 53.1145 20.1217C52.1314 19.9967 51.2915 19.2783 50.3035 19.2006C48.876 19.0886 47.6397 20.3303 46.2079 20.3451C45.1275 20.3563 44.1697 19.67 43.1118 19.453C41.5066 19.1235 39.8758 19.898 38.2373 19.8573C36.0249 19.8022 34.0409 18.2763 31.8277 18.2715C29.6477 18.2665 27.7015 19.7355 25.5272 19.8934C24.2468 19.9863 22.8688 19.6415 21.5856 19.5726C21.4857 20.3814 21.4336 21.2053 21.4336 22.0411V22.5745C21.4336 23.4742 21.4941 24.3599 21.6094 25.2283C22.7655 25.538 23.9525 25.6979 25.0878 25.3751C26.1361 25.0772 27.0274 24.3955 28.0193 23.9454C29.6974 23.1841 31.6807 23.1182 33.406 23.7663C34.8943 24.3254 36.2988 25.4066 37.8805 25.2367C39.0398 25.1119 40.0729 24.314 41.2388 24.3296C42.362 24.3448 43.3385 25.1107 44.4439 25.309C46.1836 25.6213 47.9536 24.4951 49.6851 24.8483C50.2815 24.9699 50.8324 25.2622 51.4286 25.3838C53.7071 25.8487 56.0094 23.7655 58.2342 24.4404C58.9214 24.6489 59.5154 25.1067 60.2112 25.284C62.3294 25.8231 64.6224 23.6469 66.5854 24.6051C67.168 24.8895 67.6084 25.4186 68.2065 25.669C70.0051 26.4217 71.944 24.3358 73.8503 24.7501C74.7418 24.9438 75.4357 25.6562 76.3049 25.9327C78.484 26.6256 80.8095 24.4047 82.9874 25.1011C83.9174 25.3984 84.6612 26.1999 85.6306 26.3179C87.0873 26.495 88.3043 25.0742 89.7698 25.0017C90.6382 24.9587 91.4512 25.3962 92.3046 25.5612C94.4442 25.9749 96.5498 24.66 98.7291 24.6339C100.587 24.6117 102.326 25.5232 104.166 25.7808C104.334 24.7365 104.423 23.6659 104.423 22.5745V22.0411C104.423 21.2606 104.377 20.4909 104.29 19.7335C103.998 19.6902 103.705 19.6538 103.414 19.6181C102.344 19.4869 101.273 19.3555 100.202 19.2243Z" fill="white"/>
<path d="M28.8261 18.0715C29.7914 17.7019 30.761 17.295 31.7877 17.2319C34.0863 17.0909 36.0822 19.8242 38.5429 18.6881C39.0419 18.4577 39.4457 18.0409 39.9547 17.8351C41.8878 17.0532 43.7644 19.607 45.8309 19.3833C47.2651 19.228 48.3919 17.7526 49.8313 17.8445C50.9237 17.9141 51.7937 18.8818 52.8783 19.0313C54.38 19.2386 55.7408 17.8351 57.2502 17.972C58.2728 18.0647 59.1204 18.848 60.1267 19.0557C62.0665 19.4562 63.9606 17.6488 65.9005 18.0479C67.0723 18.2891 68.0209 19.3065 69.2133 19.3891C70.7353 19.4944 71.9965 18.0509 73.5192 17.9531C75.3125 17.8379 76.8986 19.6102 78.6704 19.3039C79.7437 19.1182 80.6189 18.1891 81.7061 18.1344C83.1579 18.0615 84.2663 19.5465 85.7015 19.7821C87.9177 20.1457 89.9032 17.4545 92.0677 18.0641C92.9909 18.3241 93.721 19.1603 94.6742 19.2522C96.2337 19.4025 97.4726 17.511 99.0279 17.7017C100.094 17.8323 100.942 18.9307 102.01 18.8239C102.727 18.7524 103.356 18.134 104.069 18.2382C105.815 18.4932 106.055 21.2014 104.054 21.2864C102.488 21.3531 101.242 20.4166 99.8031 19.9037C99.6106 19.835 99.407 19.7683 99.2057 19.8032C99.0307 19.8336 98.8787 19.937 98.7328 20.0381C97.481 20.9046 97.0456 21.3691 95.5148 20.9903C94.399 20.7142 93.2585 20.2134 92.0873 20.4714C91.1505 20.6778 90.7275 21.2511 89.7432 21.1315C88.819 21.0191 88.5835 21.0197 87.6206 21.2992C86.694 21.5682 85.6905 21.5929 84.7643 21.2964C84.0677 21.0734 83.5464 20.5642 82.7754 20.5037C81.323 20.3899 80.0648 21.4977 78.612 21.4975C77.0169 21.4975 76.0394 21.1486 74.5338 20.5305C74.0331 20.325 73.5066 20.1153 72.9678 20.1692C72.5899 20.2072 72.239 20.3721 71.8862 20.5121C71.0374 20.8489 69.7071 21.4368 68.7763 21.3178C67.8738 21.2026 66.8235 20.4724 65.943 20.1718C65.6898 20.0854 65.4318 20.0025 65.1648 19.9873C64.8134 19.9672 64.4655 20.065 64.1358 20.1876C62.7836 20.6906 61.193 21.8058 59.7725 20.8176C59.1318 20.3721 58.6146 19.6205 57.7523 19.6207C57.3616 19.6207 56.995 19.7951 56.6439 19.9658C56.0289 20.2647 55.4137 20.5636 54.7986 20.8625C54.282 21.1133 53.1573 21.16 52.5974 21.0139C52.0658 20.8751 51.5899 20.3531 51.0197 20.1914C50.3092 19.9899 49.5206 20.0111 48.8586 20.3376C48.6299 20.4504 48.419 20.5975 48.1868 20.7036C47.9222 20.8246 47.6357 20.8897 47.3519 20.954C45.9983 21.2605 45.1884 21.4955 43.8791 20.9683C42.9261 20.5848 42.0267 20.0796 40.9727 20.0443C40.5268 20.0293 40.0736 20.0856 39.6632 20.2593C39.1762 20.4656 38.7715 20.8258 38.3034 21.0712C37.2421 21.6279 36.3544 20.9084 35.3825 20.5013C34.0169 19.929 32.7577 18.7444 31.1824 18.8708C29.9728 18.9678 29.0729 19.8032 27.8911 19.974C26.6143 20.1583 25.4235 20.6405 24.1579 20.8671C22.7839 21.1131 19.0278 20.1451 21.1212 18.239C21.6947 17.7167 22.5676 17.7263 23.3063 17.9373C24.0452 18.1486 24.7377 18.5285 25.4938 18.6595C26.5634 18.8448 27.6503 18.5158 28.6681 18.1316C28.7206 18.1116 28.7734 18.0917 28.8261 18.0715Z" fill="#C54D00"/>
<path d="M28.8261 23.4816C29.7914 23.112 30.761 22.7049 31.7877 22.642C34.0863 22.5011 36.0822 25.2344 38.5429 24.098C39.0419 23.8678 39.4457 23.4511 39.9547 23.245C41.8878 22.4633 43.7644 25.0171 45.8309 24.7935C47.2651 24.6381 48.3919 23.1626 49.8313 23.2546C50.9237 23.3243 51.7937 24.2919 52.8783 24.4415C54.38 24.6487 55.7408 23.2452 57.2502 23.3822C58.2728 23.4749 59.1204 24.2582 60.1267 24.4658C62.0665 24.8662 63.9606 23.0589 65.9005 23.4581C67.0723 23.6993 68.0209 24.7166 69.2133 24.7991C70.7353 24.9045 71.9965 23.4611 73.5192 23.3632C75.3125 23.248 76.8986 25.0203 78.6704 24.7138C79.7437 24.5283 80.6189 23.5993 81.7061 23.5445C83.1579 23.4715 84.2663 24.9566 85.7015 25.1922C87.9177 25.5558 89.9032 22.8645 92.0677 23.4741C92.9909 23.7342 93.721 24.5705 94.6742 24.6623C96.2337 24.8125 97.4726 22.9212 99.0279 23.1117C100.094 23.2424 100.942 24.3408 102.01 24.234C102.727 24.1623 103.356 23.5441 104.069 23.6482C105.815 23.9034 106.055 26.6115 104.054 26.6966C102.488 26.7633 101.242 25.8268 99.8031 25.3138C99.6106 25.2452 99.407 25.1785 99.2057 25.2134C99.0307 25.2438 98.8787 25.3472 98.7328 25.4482C97.481 26.3148 97.0456 26.7792 95.5148 26.4005C94.399 26.1241 93.2585 25.6235 92.0873 25.8815C91.1505 26.088 90.7275 26.6612 89.7432 26.5416C88.819 26.4292 88.5835 26.4298 87.6206 26.7092C86.694 26.9783 85.6905 27.0031 84.7643 26.7066C84.0677 26.4835 83.5464 25.9742 82.7754 25.9139C81.323 25.8 80.0648 26.9076 78.612 26.9076C77.0169 26.9076 76.0394 26.5588 74.5338 25.9406C74.0331 25.7351 73.5066 25.5255 72.9678 25.5794C72.5899 25.6173 72.239 25.7823 71.8862 25.9222C71.0374 26.2591 69.7071 26.8469 68.7763 26.7279C67.8738 26.6125 66.8235 25.8825 65.943 25.582C65.6898 25.4955 65.4318 25.4127 65.1648 25.3975C64.8134 25.3773 64.4655 25.4752 64.1358 25.5978C62.7836 26.1008 61.193 27.2159 59.7725 26.2277C59.1318 25.7823 58.6146 25.0307 57.7523 25.0309C57.3616 25.0309 56.995 25.2052 56.6439 25.3759C56.0289 25.6748 55.4137 25.9738 54.7986 26.2727C54.282 26.5235 53.1573 26.5702 52.5974 26.424C52.0658 26.2852 51.5899 25.7633 51.0197 25.6016C50.3092 25.4001 49.5206 25.4211 48.8586 25.7477C48.6299 25.8605 48.419 26.0077 48.1868 26.1137C47.9222 26.2347 47.6357 26.2998 47.3519 26.3641C45.9983 26.6706 45.1884 26.9056 43.8791 26.3785C42.9261 25.9949 42.0267 25.4898 40.9727 25.4544C40.5268 25.4394 40.0736 25.4957 39.6632 25.6695C39.1762 25.8757 38.7715 26.2359 38.3034 26.4813C37.2421 27.038 36.3544 26.3186 35.3825 25.9113C34.0169 25.339 32.7577 24.1545 31.1824 24.2809C29.9728 24.378 29.0729 25.2132 27.8911 25.3839C26.6143 25.5684 25.4235 26.0506 24.1579 26.2773C22.7839 26.5233 19.0278 25.5552 21.1212 23.6492C21.6947 23.1268 22.5676 23.1364 23.3063 23.3475C24.0452 23.5587 24.7377 23.9385 25.4938 24.0697C26.5634 24.255 27.6503 23.9259 28.6681 23.5417C28.7206 23.5218 28.7734 23.5018 28.8261 23.4816Z" fill="#C54D00"/>
<path d="M72.5046 56.8383C72.0659 53.1258 68.7211 51.8634 68.5789 51.8115C68.2895 51.7057 67.9685 51.8539 67.8625 52.1422C67.7564 52.4301 67.9046 52.749 68.193 52.8552C68.2662 52.8824 69.3355 53.2943 70.2264 54.3172C69.5178 54.6848 67.7133 55.5356 65.3794 56.0089C61.4804 56.7994 57.9798 56.2223 54.9677 54.3019C55.8558 53.2903 56.9145 52.8822 56.9873 52.8552C57.2757 52.749 57.4237 52.4301 57.3179 52.1422C57.2118 51.8539 56.8908 51.7057 56.6014 51.8115C56.4592 51.8634 53.1144 53.1258 52.6757 56.8383C52.6398 57.1434 52.859 57.4197 53.1651 57.4557C53.1873 57.4583 53.2092 57.4595 53.231 57.4595C53.5101 57.4595 53.7515 57.2512 53.7847 56.9683C53.8651 56.2882 54.0664 55.7087 54.3302 55.2176C56.6445 56.6999 59.2951 57.4561 62.138 57.4561C63.2775 57.4561 64.4482 57.3351 65.6396 57.0909C68.243 56.5578 70.1847 55.6047 70.8631 55.2413C71.1207 55.7273 71.3164 56.2992 71.3956 56.9683C71.4288 57.2512 71.6702 57.4595 71.9493 57.4595C71.9711 57.4595 71.993 57.4583 72.0152 57.4557C72.3213 57.4197 72.5405 57.1434 72.5046 56.8383Z" fill="#252525"/>
<path d="M50.1075 51.2769C50.1075 53.1231 48.6048 54.62 46.751 54.62C44.8973 54.62 43.3945 53.1231 43.3945 51.2769C43.3945 49.4305 44.8973 47.9336 46.751 47.9336C48.6048 47.9336 50.1075 49.4305 50.1075 51.2769Z" fill="#F9696A"/>
<path d="M53.4747 9.34899C53.4747 11.1954 51.972 12.6921 50.1182 12.6921C48.2645 12.6921 46.7617 11.1954 46.7617 9.34899C46.7617 7.50262 48.2645 6.00587 50.1182 6.00587C51.972 6.00587 53.4747 7.50262 53.4747 9.34899Z" fill="#F9696A"/>
<path d="M77.1232 9.34899C77.1232 11.1954 75.6204 12.6921 73.7667 12.6921C71.9129 12.6921 70.4102 11.1954 70.4102 9.34899C70.4102 7.50262 71.9129 6.00587 73.7667 6.00587C75.6204 6.00587 77.1232 7.50262 77.1232 9.34899Z" fill="#F9696A"/>
<path d="M47.872 50.2857C47.6027 50.2857 47.3594 50.1012 47.2964 49.8286C47.2232 49.5117 47.4219 49.1956 47.7401 49.1228L51.4638 48.269L48.3321 45.4055C48.0917 45.1856 48.0757 44.813 48.2964 44.5734C48.5173 44.3338 48.8914 44.318 49.1319 44.5379L52.8463 47.9343C53.0562 48.1264 53.1418 48.4165 53.0688 48.6913C52.996 48.966 52.7779 49.1765 52.4999 49.2402L48.0053 50.2705C47.9606 50.2807 47.9159 50.2857 47.872 50.2857Z" fill="#252525"/>
<path d="M75.3555 51.2769C75.3555 53.1231 76.8582 54.62 78.712 54.62C80.5657 54.62 82.0685 53.1231 82.0685 51.2769C82.0685 49.4305 80.5657 47.9336 78.712 47.9336C76.8582 47.9336 75.3555 49.4305 75.3555 51.2769Z" fill="#F9696A"/>
<path d="M77.5896 50.2857C77.5455 50.2857 77.501 50.2807 77.4565 50.2706L72.9619 49.2403C72.6837 49.1766 72.4656 48.9661 72.3928 48.6914C72.3198 48.4166 72.4054 48.1265 72.6155 47.9344L76.3297 44.538C76.5702 44.3179 76.9443 44.3339 77.1652 44.5735C77.386 44.8131 77.3699 45.1857 77.1296 45.4055L73.998 48.269L77.7217 49.1228C78.0399 49.1957 78.2386 49.5118 78.1654 49.8287C78.1024 50.1012 77.8589 50.2857 77.5896 50.2857Z" fill="#252525"/>
<path d="M50.1075 91.8099C50.1075 93.6563 48.6048 95.1532 46.751 95.1532C44.8973 95.1532 43.3945 93.6563 43.3945 91.8099C43.3945 89.9638 44.8973 88.4668 46.751 88.4668C48.6048 88.4668 50.1075 89.9638 50.1075 91.8099Z" fill="#F9696A"/>
<path d="M47.872 90.8189C47.6027 90.8189 47.3594 90.6344 47.2964 90.3618C47.2232 90.0449 47.4219 89.7288 47.7401 89.656L51.4638 88.8022L48.3321 85.9387C48.0917 85.7188 48.0757 85.3462 48.2964 85.1066C48.5173 84.867 48.8914 84.8512 49.1319 85.0711L52.8463 88.4675C53.0562 88.6596 53.1418 88.9497 53.0688 89.2245C52.996 89.4992 52.7779 89.7097 52.4999 89.7734L48.0053 90.8037C47.9606 90.8139 47.9159 90.8189 47.872 90.8189Z" fill="#252525"/>
<path d="M75.3555 91.8099C75.3555 93.6563 76.8582 95.1532 78.712 95.1532C80.5657 95.1532 82.0685 93.6563 82.0685 91.8099C82.0685 89.9638 80.5657 88.4668 78.712 88.4668C76.8582 88.4668 75.3555 89.9638 75.3555 91.8099Z" fill="#F9696A"/>
<path d="M77.5896 90.8189C77.5455 90.8189 77.501 90.8139 77.4565 90.8038L72.9619 89.7735C72.6837 89.7098 72.4656 89.4993 72.3928 89.2246C72.3198 88.9498 72.4054 88.6597 72.6155 88.4674L76.3297 85.0712C76.5702 84.8511 76.9443 84.8671 77.1652 85.1067C77.386 85.3463 77.3699 85.7189 77.1296 85.9387L73.998 88.8022L77.7217 89.656C78.0399 89.7289 78.2386 90.045 78.1654 90.3619C78.1024 90.6344 77.8589 90.8189 77.5896 90.8189Z" fill="#252525"/>
<path d="M68.8142 5.80525C68.8142 7.36529 68.0285 8.63002 67.0594 8.63002C66.0903 8.63002 65.3047 7.36529 65.3047 5.80525C65.3047 4.24521 66.0903 2.98048 67.0594 2.98048C68.0285 2.98048 68.8142 4.24521 68.8142 5.80525Z" fill="#252525"/>
<path d="M68.7085 4.85669C68.5321 4.0604 68.1408 3.43063 67.6462 3.1465C67.4121 3.36294 67.2539 3.76828 67.2539 4.23411C67.2539 4.92658 67.6027 5.48806 68.0329 5.48806C68.3222 5.48806 68.5742 5.23367 68.7085 4.85669Z" fill="white"/>
<path d="M57.5876 5.80525C57.5876 7.36529 56.8019 8.63002 55.8329 8.63002C54.8638 8.63002 54.0781 7.36529 54.0781 5.80525C54.0781 4.24521 54.8638 2.98048 55.8329 2.98048C56.8019 2.98048 57.5876 4.24521 57.5876 5.80525Z" fill="#252525"/>
<path d="M57.4859 4.85669C57.3095 4.0604 56.9181 3.43063 56.4234 3.1465C56.1894 3.36294 56.0313 3.76828 56.0313 4.23411C56.0313 4.92658 56.3801 5.48806 56.8103 5.48806C57.0996 5.48806 57.3516 5.23367 57.4859 4.85669Z" fill="white"/>
<path d="M62.2105 16.8996C58.2598 16.8996 54.5567 15.3593 51.7784 12.5589C51.4724 12.2504 51.4752 11.7534 51.785 11.4485C52.0945 11.1438 52.5937 11.1466 52.8998 11.4551C55.3794 13.9542 58.6846 15.3289 62.2105 15.3289H62.25C65.7909 15.3187 69.1035 13.9236 71.5777 11.4006C71.8821 11.0903 72.3812 11.0847 72.6926 11.3876C73.0041 11.6905 73.0099 12.1877 72.7058 12.498C69.9335 15.3247 66.2221 16.888 62.2546 16.8996H62.2105Z" fill="#252525"/>
<path d="M67.5236 93.5156C67.5236 96.2305 65.314 98.4315 62.588 98.4315C59.8621 98.4315 57.6523 96.2305 57.6523 93.5156C57.6523 90.8006 59.8621 88.5996 62.588 88.5996C65.314 88.5996 67.5236 90.8006 67.5236 93.5156Z" fill="#252525"/>
</g>
<defs>
<clipPath id="clip0_738_11567">
<rect width="85" height="122" fill="white" transform="translate(20.5 2.00001)"/>
</clipPath>
</defs>
</svg>
