<svg width="24" height="24" viewBox="0 0 24 24" fill="none" xmlns="http://www.w3.org/2000/svg">
<g clip-path="url(#clip0_816_6713)">
<path d="M7.12452 16.7349C6.80949 16.4671 6.60185 16.0945 6.53987 15.6858L5.64844 6.85718H21.3341C21.6205 6.84438 21.9055 6.90357 22.1629 7.02936C22.4206 7.15514 22.6424 7.34349 22.8084 7.57718C22.9678 7.79699 23.0725 8.05147 23.1144 8.31971C23.156 8.58794 23.1334 8.86224 23.0484 9.12004L20.7684 15.9772C20.6492 16.332 20.4169 16.638 20.1075 16.8485C19.7979 17.059 19.428 17.1624 19.0541 17.1429H8.25415C7.84072 17.1475 7.43954 17.0027 7.12452 16.7349Z" fill="#FFD800"/>
<path d="M0.863281 0.857422H5.04987L6.54129 15.686C6.60328 16.0948 6.81092 16.4674 7.12595 16.7351C7.44097 17.0029 7.84216 17.1478 8.25558 17.1431H19.0555C19.4294 17.1627 19.7993 17.0593 20.1089 16.8488C20.4184 16.6383 20.6507 16.3322 20.7698 15.9774L23.0498 9.12028C23.1348 8.86248 23.1575 8.58816 23.1158 8.31995C23.074 8.05171 22.9692 7.79723 22.8098 7.57742C22.6439 7.34373 22.422 7.15538 22.1644 7.02959C21.9069 6.90381 21.622 6.84462 21.3355 6.85742H5.64987" stroke="#252525" stroke-linecap="round" stroke-linejoin="round"/>
<path d="M18.7634 23.143C18.2901 23.143 17.9062 22.7592 17.9062 22.2859C17.9062 21.8125 18.2901 21.4287 18.7634 21.4287C19.2369 21.4287 19.6205 21.8125 19.6205 22.2859C19.6205 22.7592 19.2369 23.143 18.7634 23.143Z" stroke="#252525" stroke-linecap="round" stroke-linejoin="round"/>
<path d="M7.62277 23.143C7.14939 23.143 6.76562 22.7592 6.76562 22.2859C6.76562 21.8125 7.14939 21.4287 7.62277 21.4287C8.09617 21.4287 8.47991 21.8125 8.47991 22.2859C8.47991 22.7592 8.09617 23.143 7.62277 23.143Z" stroke="#252525" stroke-linecap="round" stroke-linejoin="round"/>
<path d="M16.1421 12H11.6445" stroke="#252525" stroke-linecap="round" stroke-linejoin="round"/>
<path d="M13.8945 9.75195V14.2495" stroke="#252525" stroke-linecap="round" stroke-linejoin="round"/>
</g>
<defs>
<clipPath id="clip0_816_6713">
<rect width="24" height="24" fill="white"/>
</clipPath>
</defs>
</svg>
