<svg width="20" height="20" viewBox="0 0 20 20" fill="none" xmlns="http://www.w3.org/2000/svg">
<path d="M10.0017 12.8569C11.5796 12.8569 12.8588 11.5777 12.8588 9.99972C12.8588 8.42176 11.5796 7.14258 10.0017 7.14258C8.42372 7.14258 7.14453 8.42176 7.14453 9.99972C7.14453 11.5777 8.42372 12.8569 10.0017 12.8569Z" fill="white"/>
<path fill-rule="evenodd" clip-rule="evenodd" d="M2.14342 3.57129H17.8577C18.6467 3.57129 19.2863 4.21089 19.2863 4.99986V14.9999C19.2863 15.7889 18.6467 16.4284 17.8577 16.4284H2.14342C1.35444 16.4284 0.714844 15.7889 0.714844 14.9999V4.99986C0.714844 4.21089 1.35444 3.57129 2.14342 3.57129ZM12.1434 9.99986C12.1434 11.1833 11.184 12.1427 10.0006 12.1427C8.81709 12.1427 7.8577 11.1833 7.8577 9.99986C7.8577 8.81639 8.81709 7.857 10.0006 7.857C11.184 7.857 12.1434 8.81639 12.1434 9.99986Z" fill="white"/>
<path d="M10.0017 12.8569C11.5796 12.8569 12.8588 11.5777 12.8588 9.99972C12.8588 8.42176 11.5796 7.14258 10.0017 7.14258C8.42372 7.14258 7.14453 8.42176 7.14453 9.99972C7.14453 11.5777 8.42372 12.8569 10.0017 12.8569Z" stroke="#252525" stroke-linecap="round" stroke-linejoin="round"/>
<path d="M17.8577 3.57129H2.14342C1.35444 3.57129 0.714844 4.21089 0.714844 4.99986V14.9999C0.714844 15.7889 1.35444 16.4284 2.14342 16.4284H17.8577C18.6467 16.4284 19.2863 15.7889 19.2863 14.9999V4.99986C19.2863 4.21089 18.6467 3.57129 17.8577 3.57129Z" stroke="#252525" stroke-linecap="round" stroke-linejoin="round"/>
<path d="M3.96652 10.3569C3.76928 10.3569 3.60938 10.197 3.60938 9.99972C3.60938 9.80248 3.76928 9.64258 3.96652 9.64258" stroke="#252525" stroke-linecap="round" stroke-linejoin="round"/>
<path d="M3.96484 10.3569C4.16209 10.3569 4.32199 10.197 4.32199 9.99972C4.32199 9.80248 4.16209 9.64258 3.96484 9.64258" stroke="#252525" stroke-linecap="round" stroke-linejoin="round"/>
<path d="M16.0368 10.3569C15.8395 10.3569 15.6797 10.197 15.6797 9.99972C15.6797 9.80248 15.8395 9.64258 16.0368 9.64258" stroke="#252525" stroke-linecap="round" stroke-linejoin="round"/>
<path d="M16.0352 10.3569C16.2324 10.3569 16.3923 10.197 16.3923 9.99972C16.3923 9.80248 16.2324 9.64258 16.0352 9.64258" stroke="#252525" stroke-linecap="round" stroke-linejoin="round"/>
</svg>
