<svg width="24" height="24" fill="none" xmlns="http://www.w3.org/2000/svg"><path d="M20.596 9.497v5.394L24 13.598 19.284 1.752 0 9.497" fill="#6F9935"/><path d="M21.577 14.519V8.517H2.442L.98 9.104v.393h19.616v5.395l.98-.373Z" fill="#658B30"/><path d="M0 9.498h20.596v12.75H0V9.498Z" fill="#79A73A"/><path d="M1.96 13.769a3.44 3.44 0 0 0 2.31-2.31h12.054a3.44 3.44 0 0 0 2.31 2.31v4.207a3.44 3.44 0 0 0-2.31 2.31H4.27a3.44 3.44 0 0 0-2.31-2.31V13.77Z" fill="#AAC16B"/><path d="M10.3 18.325a2.452 2.452 0 1 0 0-4.904 2.452 2.452 0 0 0 0 4.904Z" fill="#79A73A"/><path d="m20.257 9.497-1.163-2.99-.053-.133a3.44 3.44 0 0 1-3-1.29l-.132.053-10.514 4.36h14.862Z" fill="#AAC16B"/><path d="m7.76 8.517-2.365.98h14.862l-.381-.98H7.76Z" fill="#89B140"/><path d="M4.904 16.363a.49.49 0 1 0 0-.981.49.49 0 0 0 0 .98Zm10.79 0a.49.49 0 1 0 0-.981.49.49 0 0 0 0 .98Z" fill="#79A73A"/></svg>