<svg width="20" height="20" viewBox="0 0 20 20" fill="none" xmlns="http://www.w3.org/2000/svg">
<g clip-path="url(#clip0_1396_11738)">
<path d="M1.13326 18.8676C0.865354 18.5997 0.714844 18.2363 0.714844 17.8574V7.85742H19.2863V17.8574C19.2863 18.2363 19.1357 18.5997 18.8678 18.8676C18.6 19.1354 18.2366 19.286 17.8577 19.286H2.14342C1.76453 19.286 1.40117 19.1354 1.13326 18.8676Z" fill="#FFD800"/>
<path d="M1.13326 3.27584C1.40117 3.00794 1.76453 2.85742 2.14342 2.85742H17.8577C18.2366 2.85742 18.6 3.00794 18.8678 3.27584C19.1357 3.54375 19.2863 3.90711 19.2863 4.28599V7.85742H0.714844V4.28599C0.714844 3.90711 0.865354 3.54375 1.13326 3.27584Z" fill="white"/>
<path d="M2.14342 2.85742C1.76453 2.85742 1.40117 3.00794 1.13326 3.27584C0.865354 3.54375 0.714844 3.90711 0.714844 4.28599V17.8574C0.714844 18.2363 0.865354 18.5997 1.13326 18.8676C1.40117 19.1354 1.76453 19.286 2.14342 19.286H17.8577C18.2366 19.286 18.6 19.1354 18.8678 18.8676C19.1357 18.5997 19.2863 18.2363 19.2863 17.8574V4.28599C19.2863 3.90711 19.1357 3.54375 18.8678 3.27584C18.6 3.00794 18.2366 2.85742 17.8577 2.85742H15.0006" stroke="#252525" stroke-linecap="round" stroke-linejoin="round"/>
<path d="M0.714844 7.85742H19.2863" stroke="#252525" stroke-linecap="round" stroke-linejoin="round"/>
<path d="M5 0.714844V5.00056" stroke="#252525" stroke-linecap="round" stroke-linejoin="round"/>
<path d="M15 0.714844V5.00056" stroke="#252525" stroke-linecap="round" stroke-linejoin="round"/>
<path d="M5 2.85742H12.1429" stroke="#252525" stroke-linecap="round" stroke-linejoin="round"/>
</g>
<defs>
<clipPath id="clip0_1396_11738">
<rect width="20" height="20" fill="white"/>
</clipPath>
</defs>
</svg>
