<svg width="24" height="24" viewBox="0 0 24 24" fill="none" xmlns="http://www.w3.org/2000/svg">
<g clip-path="url(#clip0_683_13947)">
<path fill-rule="evenodd" clip-rule="evenodd" d="M23.1412 12.0003C23.1412 18.1544 18.1524 23.1431 11.9983 23.1431C5.8443 23.1431 0.855469 18.1544 0.855469 12.0003C0.855469 5.84625 5.8443 0.857422 11.9983 0.857422C18.1524 0.857422 23.1412 5.84625 23.1412 12.0003ZM16.284 7.71456L12.8555 18.0003L10.284 13.7146L5.99833 11.1431L16.284 7.71456Z" fill="#009340"/>
<path d="M12.8571 18.0006L16.2857 7.71484L6 11.1434L10.2857 13.7148L12.8571 18.0006Z" fill="white"/>
<path d="M11.9983 23.1431C18.1524 23.1431 23.1412 18.1544 23.1412 12.0003C23.1412 5.84625 18.1524 0.857422 11.9983 0.857422C5.8443 0.857422 0.855469 5.84625 0.855469 12.0003C0.855469 18.1544 5.8443 23.1431 11.9983 23.1431Z" stroke="#252525" stroke-linecap="round" stroke-linejoin="round"/>
</g>
<defs>
<clipPath id="clip0_683_13947">
<rect width="24" height="24" fill="white"/>
</clipPath>
</defs>
</svg>
