<svg width="20" height="20" viewBox="0 0 20 20" fill="none" xmlns="http://www.w3.org/2000/svg">
<g clip-path="url(#clip0_1329_26589)">
<path d="M15.3076 1.21289C15.4313 1.21289 15.554 1.23721 15.668 1.28516C15.782 1.33319 15.8853 1.40387 15.9717 1.49219L15.9746 1.49512L18.5029 4.03809L18.5059 4.04004C18.5929 4.12638 18.6618 4.22956 18.709 4.34277C18.7561 4.45578 18.7803 4.57752 18.7803 4.7002C18.7802 4.82269 18.756 4.94382 18.709 5.05664C18.6618 5.16985 18.5929 5.27305 18.5059 5.35938L18.5029 5.36133L6.88184 17.0391L1.43555 18.5635L2.96094 13.1172L14.6387 1.49707L14.6436 1.49219C14.7299 1.4039 14.8333 1.33319 14.9473 1.28516C15.0613 1.23718 15.184 1.2129 15.3076 1.21289Z" stroke="#252525"/>
</g>
<defs>
<clipPath id="clip0_1329_26589">
<rect width="20" height="20" fill="white"/>
</clipPath>
</defs>
</svg>
