<svg width="24" height="24" fill="none" xmlns="http://www.w3.org/2000/svg"><g clip-path="url(#a)"><path d="M2.086 1.941h5.46c.56 0 1.015.455 1.015 1.016v5.46c0 .56-.454 1.015-1.016 1.015H2.086A1.016 1.016 0 0 1 1.07 8.416V2.957c0-.56.455-1.016 1.016-1.016Z" fill="#FFDC6E"/><path opacity=".1" d="M8.566 2.958v5.457c0 .568-.456 1.016-1.016 1.016H2.934a6.605 6.605 0 0 0 2.192-1.648c1.76-2 1.784-4.449 1.608-5.84h.816c.56 0 1.016.455 1.016 1.015Z" fill="#000"/><path d="M5.693 1.944v1.823a.391.391 0 0 1-.392.392h-.968a.391.391 0 0 1-.392-.392V1.944h1.752Z" fill="#F7524B"/><path d="M4.909 23.126a3.03 3.03 0 1 0 0-6.06 3.03 3.03 0 0 0 0 6.06Z" fill="#404049"/><path d="M4.907 21.699a1.602 1.602 0 1 0 0-3.205 1.602 1.602 0 0 0 0 3.205Z" fill="#F0F0FC"/><path d="M19.87 23.126a3.03 3.03 0 1 0 0-6.06 3.03 3.03 0 0 0 0 6.06Z" fill="#404049"/><path d="M19.868 21.699a1.602 1.602 0 1 0 0-3.205 1.602 1.602 0 0 0 0 3.205Z" fill="#F0F0FC"/><path d="M11.65 10.439c0-.556-.45-1.006-1.006-1.006H2.621a.757.757 0 0 0-.684 1.08l.632 1.334v.991l9.081-.612V10.44Z" fill="#404049"/><path d="M21.668 15.018c-.28-2.098-1.083-4.752-3.982-8.01l-2.072-.132c.395.72 1.811 4.619 1.23 7.786-.236 1.289-1.403 2.197-2.713 2.188l-.62-.004c-1.107-.008-1.995-.972-1.848-2.069a6.11 6.11 0 0 1 .17-.835 6.7 6.7 0 0 1 .659-1.557c.339-.585-.102-1.318-.779-1.318H5.321c-2.378 0-4.486 1.602-5.044 3.914-.399 1.652-.25 3.164-.25 3.164l3.766 1.542h13.674v-.002c1.754-.005 3.28-.21 4.015-2.432a5.013 5.013 0 0 0 .186-2.235Z" fill="#F7524B"/><path opacity=".1" d="M21.213 12.943a12.894 12.894 0 0 0-4.632-3.152c-.32-1.432-.768-2.56-.96-2.912l2.072.128c1.368 1.552 2.28 2.968 2.872 4.248.272.592.488 1.152.648 1.688Z" fill="#000"/><path d="M8.088 19.68H1.612c-1.157 0-1.93-1.21-1.43-2.253 1.137-2.37 2.976-3.943 5.991-3.943.18 0 .36.006.54.018 2.762.175 3.818 2.654 3.292 4.72-.22.866-1.024 1.458-1.917 1.458Z" fill="#E14844"/><path opacity=".1" d="M10.004 18.22c-.216.864-1.024 1.456-1.911 1.456H5.14c1.256-.784 2.112-2.032 2.296-3.424.144-1.128-.184-2.088-.512-2.728.248.024.48.064.696.136 2.08.6 2.847 2.736 2.383 4.56Z" fill="#000"/><path d="M23.092 19.688h-6.447a.904.904 0 0 1-.834-1.253 4.416 4.416 0 0 1 4.06-2.678 4.406 4.406 0 0 1 4.056 2.679.904.904 0 0 1-.835 1.252Z" fill="#E14844"/><path opacity=".1" d="M23.09 19.686h-2.527c.335-.28.944-.912 1.135-1.912.128-.688 0-1.272-.144-1.68a4.425 4.425 0 0 1 2.376 2.344.904.904 0 0 1-.84 1.248Z" fill="#000"/><path d="m17.347 4.148-.952-1.674a1.347 1.347 0 0 0-.775-.616v-.584a.4.4 0 1 0-.8 0v1.834a.4.4 0 1 0 .8 0V2.79c.025.028.06.046.08.08l.952 1.673a.399.399 0 1 0 .695-.395Z" fill="#404049"/><path d="M15.395 6.136a1.89 1.89 0 0 1 1.416-1.831l2.244-.583a1.583 1.583 0 0 1 1.98 1.532v1.763a1.583 1.583 0 0 1-1.98 1.532l-2.244-.582a1.892 1.892 0 0 1-1.416-1.831Z" fill="#F7524B"/><path d="M21.034 5.253v1.763c0 .894-.734 1.586-1.58 1.586v-4.93c.846 0 1.58.686 1.58 1.58Z" fill="#FFDC6E"/><path d="M15.946 6.943h-1.037a.831.831 0 0 1 0-1.662h1.037a.831.831 0 0 1 0 1.662Z" fill="#404049"/></g><defs><clipPath id="a"><path fill="#fff" d="M0 0h24v24H0z"/></clipPath></defs></svg>