<svg width="24" height="24" fill="none" xmlns="http://www.w3.org/2000/svg"><g clip-path="url(#a)"><path d="M24 5.74v12.52a2.087 2.087 0 0 1-2.087 2.087H2.087A2.087 2.087 0 0 1 0 18.261V5.739c0-1.152.934-2.087 2.087-2.087h19.826c1.153 0 2.087.935 2.087 2.087Z" fill="#FE7D49"/><path d="M24 8.348v9.913a2.087 2.087 0 0 1-2.087 2.087H2.087A2.087 2.087 0 0 1 0 18.26V8.348h24Z" fill="#FE5A3A"/><path d="M7.269 10.435H3.167a.558.558 0 0 1-.558-.558V6.818c0-.308.25-.557.558-.557H7.27c.308 0 .558.25.558.557v3.059c0 .308-.25.558-.558.558Z" fill="#FED76E"/><path d="M7.827 8.348v1.529c0 .308-.25.558-.558.558H3.167a.558.558 0 0 1-.558-.558v-1.53h5.218Z" fill="#FEAF50"/><path d="M6.132 16.174a.391.391 0 0 1-.391.39H2.61a.391.391 0 0 1 0-.782h3.13a.39.39 0 0 1 .39.392Zm4.826-.392h-3.13a.391.391 0 0 0 0 .783h3.13a.391.391 0 0 0 0-.783Zm5.217 0h-3.13a.391.391 0 0 0 0 .783h3.13a.391.391 0 0 0 0-.783Zm5.218 0h-3.13a.391.391 0 0 0 0 .783h3.13a.391.391 0 0 0 0-.783Z" fill="#A62C18"/><path d="M5.48 9.13h-.522a.783.783 0 0 1 0-1.565h.522a.783.783 0 0 1 0 1.566Z" fill="#FEE66B"/><path d="M18.706 8.348a.391.391 0 0 1-.391.391h-.053a.391.391 0 0 1 0-.783h.053a.39.39 0 0 1 .39.392Zm.848-1.242a.391.391 0 0 0-.392.678.655.655 0 0 1 .326.564.655.655 0 0 1-.326.564.392.392 0 0 0 .392.677 1.44 1.44 0 0 0 .717-1.241c0-.51-.275-.985-.717-1.242Zm1.044-.904a.391.391 0 0 0-.392.677c.523.303.848.866.848 1.469 0 .603-.325 1.165-.848 1.468a.391.391 0 1 0 .392.677 2.487 2.487 0 0 0 1.238-2.145c0-.882-.474-1.704-1.238-2.146Z" fill="#D4E8FF"/></g><defs><clipPath id="a"><path fill="#fff" d="M0 0h24v24H0z"/></clipPath></defs></svg>