<svg width="24" height="24" viewBox="0 0 24 24" fill="none" xmlns="http://www.w3.org/2000/svg">
<g clip-path="url(#clip0_836_2724)">
<path d="M12.8431 22.4057C13.7318 22.9779 14.7895 23.2287 15.8406 23.1166C16.8915 23.0043 17.8725 22.5357 18.6202 21.7886L19.2717 21.1371C19.5606 20.8452 19.7227 20.4509 19.7227 20.04C19.7227 19.6293 19.5606 19.235 19.2717 18.9429L16.5288 16.2172C16.2397 15.9293 15.8483 15.7677 15.4402 15.7677C15.0322 15.7677 14.6408 15.9293 14.3517 16.2172C14.0596 16.5061 13.6653 16.6682 13.2545 16.6682C12.8437 16.6682 12.4494 16.5061 12.1574 16.2172L7.78595 11.8458C7.49701 11.5537 7.33494 11.1595 7.33494 10.7486C7.33494 10.3378 7.49701 9.94354 7.78595 9.65148C8.07383 9.36233 8.23545 8.97093 8.23545 8.56291C8.23545 8.15489 8.07383 7.76349 7.78595 7.47434L5.14595 4.73148C4.85383 4.44256 4.45955 4.28049 4.04881 4.28049C3.63789 4.28049 3.24378 4.44256 2.95166 4.73148L2.30023 5.38291C1.53978 6.12012 1.05515 7.09582 0.927263 8.1472C0.799377 9.19859 1.03595 10.262 1.59738 11.1601C4.58658 15.598 8.40518 19.4165 12.8431 22.4057Z" fill="#009340"/>
<path d="M12.8431 22.4057C13.7318 22.9779 14.7896 23.2287 15.8406 23.1166C16.8916 23.0043 17.8725 22.5357 18.6202 21.7886L19.2717 21.1371C19.5606 20.8452 19.7227 20.4509 19.7227 20.04C19.7227 19.6293 19.5606 19.235 19.2717 18.9429L16.5288 16.2172C16.2397 15.9293 15.8483 15.7677 15.4402 15.7677C15.0322 15.7677 14.6408 15.9293 14.3517 16.2172C14.0596 16.5061 13.6653 16.6682 13.2545 16.6682C12.8437 16.6682 12.4494 16.5061 12.1574 16.2172L7.78595 11.8458C7.49701 11.5537 7.33495 11.1595 7.33495 10.7486C7.33495 10.3378 7.49701 9.94355 7.78595 9.65148C8.07383 9.36233 8.23545 8.97093 8.23545 8.56291C8.23545 8.15489 8.07383 7.76349 7.78595 7.47434L5.14595 4.73148C4.85383 4.44256 4.45972 4.28049 4.04881 4.28049C3.63789 4.28049 3.24378 4.44256 2.95166 4.73148L2.30023 5.38291C1.53978 6.12012 1.05515 7.09582 0.927264 8.1472C0.799378 9.19858 1.03595 10.262 1.59738 11.1601C4.58658 15.598 8.40518 19.4165 12.8431 22.4057Z" stroke="#252525" stroke-linecap="round" stroke-linejoin="round"/>
<path d="M12.0017 0.857147C13.465 0.857147 14.914 1.14536 16.2659 1.70535C17.6178 2.26533 18.8461 3.08611 19.8809 4.12082C20.9156 5.15553 21.7363 6.3839 22.2963 7.73582C22.8563 9.08772 23.1445 10.5367 23.1445 12" stroke="#252525" stroke-linecap="round" stroke-linejoin="round"/>
<path d="M12.0022 5.14285C13.8209 5.14285 15.565 5.8653 16.851 7.15126C18.1369 8.43723 18.8594 10.1814 18.8594 12" stroke="#252525" stroke-linecap="round" stroke-linejoin="round"/>
</g>
<defs>
<clipPath id="clip0_836_2724">
<rect width="24" height="24" fill="white" transform="matrix(-1 0 0 1 24 0)"/>
</clipPath>
</defs>
</svg>
