<svg width="24" height="24" fill="none" xmlns="http://www.w3.org/2000/svg"><g clip-path="url(#a)"><path d="M12 12.414a6.62 6.62 0 0 1-1.613-.207l.786 10.965c.041.456.372.828.828.828.455 0 .786-.372.827-.828l.786-10.965a6.617 6.617 0 0 1-1.614.207Z" fill="#fff"/><path d="M18.207 6.207A6.199 6.199 0 0 0 12 0a6.199 6.199 0 0 0-6.207 6.207A6.199 6.199 0 0 0 12 12.414a6.199 6.199 0 0 0 6.207-6.207Z" fill="#EF0405"/><path d="M7.449 6.62c-.248 0-.414-.165-.414-.413a4.98 4.98 0 0 1 4.966-4.966c.248 0 .414.166.414.414 0 .248-.166.414-.414.414a4.15 4.15 0 0 0-4.138 4.138c0 .248-.166.414-.414.414Z" fill="#fff"/></g><defs><clipPath id="a"><path fill="#fff" d="M0 0h24v24H0z"/></clipPath></defs></svg>