<svg width="643" height="314" viewBox="0 0 643 314" fill="none" xmlns="http://www.w3.org/2000/svg">
<g clip-path="url(#clip0_1042_12281)">
<path d="M172.811 299.284C165.467 299.284 159.657 297.244 155.382 293.164C151.312 289.084 149.285 283.169 149.302 275.417L149.342 257.975H80.7976C73.2496 257.975 67.2353 256.343 62.7547 253.079C58.2745 249.611 56.0422 244.409 56.0578 237.473C56.067 233.393 56.9944 229.211 58.8401 224.927C60.6857 220.643 63.9617 215.339 68.6679 209.015L148.182 93.653C151.661 88.553 155.546 84.677 159.836 82.025C164.126 79.373 169.025 78.047 174.533 78.047C181.061 78.047 186.258 80.087 190.125 84.167C194.196 88.043 196.223 93.959 196.205 101.915L195.938 220.643H207.26C213.992 220.643 219.088 222.275 222.549 225.539C226.01 228.599 227.733 233.189 227.72 239.309C227.706 245.225 225.962 249.815 222.487 253.079C219.215 256.343 214.112 257.975 207.176 257.975H195.854L195.814 275.417C195.797 283.169 193.744 289.084 189.654 293.164C185.769 297.244 180.155 299.284 172.811 299.284ZM149.426 220.643L149.615 136.493H158.489L93.0955 232.271L93.1217 220.643H149.426ZM322.63 299.896C296.518 299.896 276.548 290.206 262.719 270.827C249.095 251.243 242.324 223.601 242.404 187.901C242.458 164.033 245.563 143.939 251.72 127.619C258.081 111.095 267.187 98.651 279.038 90.287C291.093 81.719 305.791 77.435 323.131 77.435C349.447 77.435 369.417 86.921 383.043 105.893C396.668 124.661 403.441 151.997 403.36 187.901C403.306 211.769 400.098 232.067 393.737 248.795C387.58 265.319 378.575 277.967 366.723 286.739C354.872 295.51 340.174 299.896 322.63 299.896ZM322.717 261.341C334.549 261.341 343.334 255.527 349.072 243.899C354.81 232.067 357.709 213.401 357.766 187.901C357.823 162.401 355.009 144.041 349.322 132.821C343.635 121.601 334.876 115.991 323.044 115.991C311.212 115.991 302.427 121.601 296.69 132.821C290.953 144.041 288.055 162.401 287.998 187.901C287.941 213.401 290.754 232.067 296.44 243.899C302.126 255.527 310.885 261.341 322.717 261.341ZM539.772 299.284C532.428 299.284 526.618 297.244 522.343 293.164C518.273 289.084 516.246 283.169 516.263 275.417L516.303 257.975H447.759C440.211 257.975 434.196 256.343 429.716 253.079C425.235 249.611 423.003 244.409 423.019 237.473C423.028 233.393 423.955 229.211 425.801 224.927C427.647 220.643 430.923 215.339 435.629 209.015L515.143 93.653C518.622 88.553 522.507 84.677 526.797 82.025C531.087 79.373 535.986 78.047 541.494 78.047C548.022 78.047 553.219 80.087 557.086 84.167C561.157 88.043 563.184 93.959 563.166 101.915L562.899 220.643H574.221C580.953 220.643 586.049 222.275 589.51 225.539C592.971 228.599 594.694 233.189 594.681 239.309C594.667 245.225 592.923 249.815 589.448 253.079C586.176 256.343 581.073 257.975 574.137 257.975H562.815L562.775 275.417C562.758 283.169 560.705 289.084 556.615 293.164C552.73 297.244 547.116 299.284 539.772 299.284ZM516.387 220.643L516.576 136.493H525.45L460.056 232.271L460.083 220.643H516.387Z" fill="#252525"/>
<path d="M578.742 255.208C581.329 247.038 592.469 243.594 598.95 250.156L598.951 250.155C598.972 250.176 598.992 250.198 599.013 250.218C605.707 247.823 613.068 251.916 614.842 258.69C615.083 259.583 615.206 260.449 615.239 261.278C615.442 261.316 615.643 261.357 615.842 261.403L615.872 261.41L615.903 261.418C619.945 262.438 623.718 264.914 625.668 269.121C625.67 269.125 625.671 269.127 625.677 269.139L625.697 269.182L625.698 269.184L625.7 269.188L625.703 269.195L625.71 269.211C625.715 269.22 625.72 269.233 625.727 269.248C627.672 273.509 627.094 278.244 625.916 282.333C624.855 286.018 623.168 289.62 621.827 292.47C622.435 294.851 622.361 297.221 621.873 299.352C620.053 307.293 612.395 311.906 604.674 310.137C603.212 309.802 601.733 309.246 600.336 308.421C598.462 308.635 596.725 308.44 595.308 308.116C592.627 307.501 589.216 305.99 586.853 302.591C586.304 302.89 585.72 303.173 585.099 303.417L585.097 303.418L585.054 303.434L585.032 303.443L585.01 303.451L584.982 303.461C581.856 304.647 578.923 304.361 576.936 303.905C575.322 303.536 573.656 302.867 572.094 301.785C571.154 301.134 570.288 300.36 569.525 299.471C568.736 299.672 567.936 299.836 567.127 299.958L567.11 299.961L567.092 299.963L566.995 299.977L566.992 299.977C563.7 300.431 560.425 300.205 557.252 299.478C552.978 298.498 548.964 296.621 545.595 293.592L545.58 293.578L545.565 293.563L545.565 293.564L545.538 293.54L545.523 293.527C542.24 290.518 539.939 286.777 538.725 282.499L538.724 282.492L538.722 282.486L538.712 282.452L538.705 282.429L538.698 282.406C537.509 278.061 537.608 273.645 538.584 269.386C539.317 266.189 540.536 263.116 542.374 260.325L542.383 260.311L542.41 260.269L542.466 260.188C544.287 257.507 546.584 255.197 549.369 253.409L549.421 253.375L549.46 253.35C552.299 251.57 555.414 250.47 558.686 250.013C561.997 249.525 565.292 249.735 568.484 250.467C572.178 251.314 575.686 252.835 578.742 255.208Z" fill="#009340" stroke="#252525" stroke-width="5.65844"/>
<mask id="path-3-outside-1_1042_12281" maskUnits="userSpaceOnUse" x="544.196" y="247.465" width="76.4149" height="55.3769" fill="black">
<rect fill="white" x="544.196" y="247.465" width="76.4149" height="55.3769"/>
<path d="M559.565 289.358C556.741 288.71 554.395 287.548 552.529 285.87C550.669 284.165 549.393 282.095 548.702 279.658C548.036 277.227 548.033 274.573 548.692 271.695C549.189 269.531 549.969 267.64 551.035 266.022C552.126 264.411 553.438 263.114 554.969 262.131C556.526 261.154 558.252 260.535 560.145 260.275C562.045 259.988 564.051 260.086 566.163 260.57C568.987 261.217 571.319 262.377 573.159 264.049C575.025 265.727 576.304 267.784 576.996 270.221C577.694 272.632 577.71 275.289 577.045 278.193C576.549 280.357 575.755 282.245 574.663 283.857C573.598 285.474 572.283 286.785 570.72 287.788C569.189 288.771 567.473 289.406 565.574 289.693C563.68 289.953 561.677 289.842 559.565 289.358ZM560.963 283.26C562.362 283.58 563.626 283.522 564.754 283.086C565.882 282.65 566.852 281.872 567.664 280.753C568.476 279.633 569.082 278.202 569.481 276.459C570.08 273.846 569.965 271.68 569.137 269.962C568.308 268.244 566.851 267.146 564.765 266.668C563.392 266.353 562.129 266.411 560.974 266.841C559.853 267.251 558.885 268.016 558.073 269.135C557.267 270.229 556.661 271.66 556.256 273.429C555.657 276.042 555.769 278.221 556.591 279.966C557.42 281.684 558.877 282.782 560.963 283.26ZM579.25 293.785C578.774 293.676 578.357 293.497 577.997 293.248C577.638 292.999 577.346 292.696 577.122 292.339C576.931 291.962 576.807 291.531 576.752 291.046C576.722 290.567 576.774 290.037 576.908 289.456L581.862 267.835C582.116 266.727 582.6 265.948 583.314 265.501C584.028 265.053 584.939 264.956 586.048 265.21C587.157 265.464 587.922 265.945 588.343 266.653C588.791 267.367 588.888 268.278 588.633 269.387L585.348 283.722L584.24 283.468L600.386 270.663C601.136 270.057 601.798 269.653 602.372 269.451C602.973 269.256 603.722 269.261 604.619 269.466C605.227 269.605 605.711 269.855 606.073 270.216C606.461 270.583 606.717 271.044 606.839 271.6C606.968 272.13 606.957 272.725 606.806 273.385L601.778 295.322C601.518 296.457 601.031 297.249 600.317 297.696C599.63 298.15 598.732 298.25 597.623 297.996C596.514 297.742 595.736 297.258 595.288 296.544C594.867 295.836 594.787 294.915 595.047 293.779L598.332 279.445L599.401 279.69L583.285 292.543C582.541 293.123 581.879 293.527 581.299 293.755C580.751 293.963 580.068 293.973 579.25 293.785ZM595.533 265.467C593.422 264.983 591.796 264.194 590.658 263.099C589.552 261.984 588.867 260.73 588.603 259.336C588.484 258.642 588.592 258.111 588.926 257.743C589.267 257.349 589.719 257.133 590.283 257.095C590.88 257.037 591.323 257.167 591.612 257.483C591.933 257.779 592.228 258.249 592.497 258.894C592.821 259.663 593.286 260.298 593.894 260.798C594.534 261.279 595.356 261.634 596.359 261.863C597.362 262.093 598.257 262.132 599.042 261.978C599.833 261.798 600.529 261.43 601.129 260.873C601.652 260.409 602.109 260.111 602.501 259.978C602.925 259.826 603.393 259.905 603.905 260.217C604.397 260.496 604.7 260.871 604.814 261.342C604.955 261.819 604.821 262.344 604.412 262.917C603.567 264.057 602.391 264.885 600.883 265.401C599.402 265.923 597.619 265.945 595.533 265.467ZM609.139 290.632C608.452 290.475 607.949 290.123 607.63 289.578C607.337 289.038 607.228 288.361 607.304 287.544L608.658 275.268C608.788 273.853 609.293 272.802 610.173 272.114C611.059 271.401 612.175 271.198 613.522 271.506C614.894 271.821 615.811 272.489 616.271 273.512C616.738 274.508 616.721 275.671 616.222 277.001L612.135 288.651C611.848 289.419 611.455 289.982 610.956 290.34C610.457 290.698 609.851 290.796 609.139 290.632ZM606.988 300.017C605.8 299.745 604.931 299.171 604.382 298.294C603.859 297.424 603.73 296.409 603.997 295.247C604.257 294.112 604.809 293.28 605.652 292.751C606.528 292.201 607.56 292.063 608.748 292.335C609.989 292.619 610.858 293.193 611.354 294.057C611.884 294.901 612.018 295.89 611.758 297.026C611.492 298.187 610.934 299.046 610.084 299.601C609.261 300.163 608.229 300.301 606.988 300.017Z"/>
</mask>
<path d="M559.565 289.358C556.741 288.71 554.395 287.548 552.529 285.87C550.669 284.165 549.393 282.095 548.702 279.658C548.036 277.227 548.033 274.573 548.692 271.695C549.189 269.531 549.969 267.64 551.035 266.022C552.126 264.411 553.438 263.114 554.969 262.131C556.526 261.154 558.252 260.535 560.145 260.275C562.045 259.988 564.051 260.086 566.163 260.57C568.987 261.217 571.319 262.377 573.159 264.049C575.025 265.727 576.304 267.784 576.996 270.221C577.694 272.632 577.71 275.289 577.045 278.193C576.549 280.357 575.755 282.245 574.663 283.857C573.598 285.474 572.283 286.785 570.72 287.788C569.189 288.771 567.473 289.406 565.574 289.693C563.68 289.953 561.677 289.842 559.565 289.358ZM560.963 283.26C562.362 283.58 563.626 283.522 564.754 283.086C565.882 282.65 566.852 281.872 567.664 280.753C568.476 279.633 569.082 278.202 569.481 276.459C570.08 273.846 569.965 271.68 569.137 269.962C568.308 268.244 566.851 267.146 564.765 266.668C563.392 266.353 562.129 266.411 560.974 266.841C559.853 267.251 558.885 268.016 558.073 269.135C557.267 270.229 556.661 271.66 556.256 273.429C555.657 276.042 555.769 278.221 556.591 279.966C557.42 281.684 558.877 282.782 560.963 283.26ZM579.25 293.785C578.774 293.676 578.357 293.497 577.997 293.248C577.638 292.999 577.346 292.696 577.122 292.339C576.931 291.962 576.807 291.531 576.752 291.046C576.722 290.567 576.774 290.037 576.908 289.456L581.862 267.835C582.116 266.727 582.6 265.948 583.314 265.501C584.028 265.053 584.939 264.956 586.048 265.21C587.157 265.464 587.922 265.945 588.343 266.653C588.791 267.367 588.888 268.278 588.633 269.387L585.348 283.722L584.24 283.468L600.386 270.663C601.136 270.057 601.798 269.653 602.372 269.451C602.973 269.256 603.722 269.261 604.619 269.466C605.227 269.605 605.711 269.855 606.073 270.216C606.461 270.583 606.717 271.044 606.839 271.6C606.968 272.13 606.957 272.725 606.806 273.385L601.778 295.322C601.518 296.457 601.031 297.249 600.317 297.696C599.63 298.15 598.732 298.25 597.623 297.996C596.514 297.742 595.736 297.258 595.288 296.544C594.867 295.836 594.787 294.915 595.047 293.779L598.332 279.445L599.401 279.69L583.285 292.543C582.541 293.123 581.879 293.527 581.299 293.755C580.751 293.963 580.068 293.973 579.25 293.785ZM595.533 265.467C593.422 264.983 591.796 264.194 590.658 263.099C589.552 261.984 588.867 260.73 588.603 259.336C588.484 258.642 588.592 258.111 588.926 257.743C589.267 257.349 589.719 257.133 590.283 257.095C590.88 257.037 591.323 257.167 591.612 257.483C591.933 257.779 592.228 258.249 592.497 258.894C592.821 259.663 593.286 260.298 593.894 260.798C594.534 261.279 595.356 261.634 596.359 261.863C597.362 262.093 598.257 262.132 599.042 261.978C599.833 261.798 600.529 261.43 601.129 260.873C601.652 260.409 602.109 260.111 602.501 259.978C602.925 259.826 603.393 259.905 603.905 260.217C604.397 260.496 604.7 260.871 604.814 261.342C604.955 261.819 604.821 262.344 604.412 262.917C603.567 264.057 602.391 264.885 600.883 265.401C599.402 265.923 597.619 265.945 595.533 265.467ZM609.139 290.632C608.452 290.475 607.949 290.123 607.63 289.578C607.337 289.038 607.228 288.361 607.304 287.544L608.658 275.268C608.788 273.853 609.293 272.802 610.173 272.114C611.059 271.401 612.175 271.198 613.522 271.506C614.894 271.821 615.811 272.489 616.271 273.512C616.738 274.508 616.721 275.671 616.222 277.001L612.135 288.651C611.848 289.419 611.455 289.982 610.956 290.34C610.457 290.698 609.851 290.796 609.139 290.632ZM606.988 300.017C605.8 299.745 604.931 299.171 604.382 298.294C603.859 297.424 603.73 296.409 603.997 295.247C604.257 294.112 604.809 293.28 605.652 292.751C606.528 292.201 607.56 292.063 608.748 292.335C609.989 292.619 610.858 293.193 611.354 294.057C611.884 294.901 612.018 295.89 611.758 297.026C611.492 298.187 610.934 299.046 610.084 299.601C609.261 300.163 608.229 300.301 606.988 300.017Z" fill="white"/>
<path d="M552.529 285.87L552.072 286.369L552.077 286.373L552.529 285.87ZM548.702 279.658L548.048 279.837L548.05 279.843L548.702 279.658ZM551.035 266.022L550.474 265.642L550.469 265.65L551.035 266.022ZM554.969 262.131L554.609 261.557L554.603 261.561L554.969 262.131ZM560.145 260.275L560.238 260.945L560.247 260.944L560.145 260.275ZM573.159 264.049L572.704 264.55L572.706 264.552L573.159 264.049ZM576.996 270.221L576.345 270.406L576.346 270.409L576.996 270.221ZM574.663 283.857L574.102 283.477L574.098 283.484L574.663 283.857ZM570.72 287.788L570.354 287.218L570.354 287.218L570.72 287.788ZM565.574 289.693L565.666 290.363L565.675 290.362L565.574 289.693ZM564.754 283.086L564.509 282.455L564.509 282.455L564.754 283.086ZM567.664 280.753L567.116 280.355L567.116 280.355L567.664 280.753ZM569.137 269.962L568.527 270.256L568.527 270.256L569.137 269.962ZM560.974 266.841L561.207 267.477L561.211 267.476L560.974 266.841ZM558.073 269.135L558.618 269.537L558.621 269.533L558.073 269.135ZM556.591 279.966L555.979 280.254L555.982 280.26L556.591 279.966ZM559.565 289.358L559.717 288.698C556.987 288.072 554.75 286.956 552.982 285.366L552.529 285.87L552.077 286.373C554.041 288.139 556.495 289.349 559.414 290.018L559.565 289.358ZM552.529 285.87L552.987 285.371C551.22 283.751 550.011 281.79 549.353 279.473L548.702 279.658L548.05 279.843C548.776 282.4 550.119 284.579 552.072 286.369L552.529 285.87ZM548.702 279.658L549.355 279.479C548.723 277.173 548.714 274.634 549.352 271.847L548.692 271.695L548.033 271.544C547.352 274.512 547.349 277.281 548.049 279.837L548.702 279.658ZM548.692 271.695L549.352 271.847C549.833 269.749 550.585 267.935 551.6 266.395L551.035 266.022L550.469 265.65C549.353 267.344 548.544 269.312 548.033 271.544L548.692 271.695ZM551.035 266.022L551.595 266.402C552.639 264.861 553.886 263.63 555.334 262.701L554.969 262.131L554.603 261.561C552.989 262.597 551.613 263.96 550.474 265.642L551.035 266.022ZM554.969 262.131L555.328 262.704C556.802 261.781 558.435 261.194 560.238 260.945L560.145 260.275L560.053 259.604C558.068 259.877 556.251 260.527 554.609 261.557L554.969 262.131ZM560.145 260.275L560.247 260.944C562.052 260.671 563.972 260.763 566.011 261.23L566.163 260.57L566.314 259.91C564.13 259.409 562.038 259.304 560.044 259.605L560.145 260.275ZM566.163 260.57L566.011 261.23C568.742 261.856 570.963 262.968 572.704 264.55L573.159 264.049L573.614 263.548C571.675 261.786 569.233 260.579 566.314 259.91L566.163 260.57ZM573.159 264.049L572.706 264.552C574.477 266.144 575.687 268.091 576.345 270.406L576.996 270.221L577.647 270.036C576.921 267.478 575.574 265.309 573.612 263.545L573.159 264.049ZM576.996 270.221L576.346 270.409C577.006 272.69 577.029 275.229 576.385 278.041L577.045 278.193L577.705 278.344C578.391 275.349 578.382 272.573 577.646 270.033L576.996 270.221ZM577.045 278.193L576.385 278.041C575.905 280.136 575.141 281.944 574.102 283.477L574.663 283.857L575.224 284.237C576.368 282.547 577.192 280.579 577.705 278.344L577.045 278.193ZM574.663 283.857L574.098 283.484C573.082 285.026 571.835 286.268 570.354 287.218L570.72 287.788L571.085 288.358C572.732 287.301 574.113 285.922 575.228 284.229L574.663 283.857ZM570.72 287.788L570.354 287.218C568.907 288.146 567.283 288.749 565.472 289.023L565.574 289.693L565.675 290.362C567.663 290.062 569.47 289.395 571.085 288.358L570.72 287.788ZM565.574 289.693L565.481 289.022C563.679 289.27 561.759 289.166 559.717 288.698L559.565 289.358L559.414 290.018C561.595 290.518 563.681 290.637 565.666 290.363L565.574 289.693ZM560.963 283.26L560.812 283.92C562.317 284.265 563.722 284.211 564.998 283.718L564.754 283.086L564.509 282.455C563.53 282.834 562.407 282.896 561.114 282.6L560.963 283.26ZM564.754 283.086L564.998 283.718C566.264 283.228 567.334 282.36 568.212 281.15L567.664 280.753L567.116 280.355C566.369 281.385 565.499 282.072 564.509 282.455L564.754 283.086ZM567.664 280.753L568.212 281.15C569.091 279.938 569.727 278.417 570.141 276.611L569.481 276.459L568.821 276.308C568.437 277.987 567.862 279.327 567.116 280.355L567.664 280.753ZM569.481 276.459L570.141 276.611C570.761 273.907 570.665 271.571 569.746 269.668L569.137 269.962L568.527 270.256C569.266 271.789 569.4 273.785 568.821 276.308L569.481 276.459ZM569.137 269.962L569.746 269.668C568.817 267.74 567.175 266.526 564.916 266.008L564.765 266.668L564.614 267.328C566.527 267.766 567.799 268.748 568.527 270.256L569.137 269.962ZM564.765 266.668L564.916 266.008C563.434 265.668 562.033 265.724 560.738 266.207L560.974 266.841L561.211 267.476C562.224 267.098 563.351 267.039 564.614 267.328L564.765 266.668ZM560.974 266.841L560.742 266.205C559.474 266.668 558.404 267.527 557.525 268.738L558.073 269.135L558.621 269.533C559.367 268.505 560.231 267.834 561.207 267.477L560.974 266.841ZM558.073 269.135L557.528 268.734C556.652 269.922 556.015 271.447 555.596 273.277L556.256 273.429L556.916 273.58C557.307 271.873 557.882 270.535 558.618 269.537L558.073 269.135ZM556.256 273.429L555.596 273.277C554.976 275.982 555.071 278.328 555.979 280.254L556.591 279.966L557.204 279.677C556.467 278.114 556.338 276.102 556.916 273.58L556.256 273.429ZM556.591 279.966L555.982 280.26C556.911 282.187 558.553 283.402 560.812 283.92L560.963 283.26L561.114 282.6C559.201 282.161 557.929 281.18 557.201 279.671L556.591 279.966ZM577.997 293.248L578.383 292.692L578.383 292.692L577.997 293.248ZM577.122 292.339L576.518 292.645L576.532 292.673L576.548 292.699L577.122 292.339ZM576.752 291.046L576.076 291.087L576.077 291.105L576.079 291.123L576.752 291.046ZM588.343 266.653L587.761 267L587.765 267.006L587.769 267.013L588.343 266.653ZM585.348 283.722L585.197 284.382L585.857 284.533L586.008 283.873L585.348 283.722ZM584.24 283.468L583.819 282.937L582.715 283.813L584.088 284.127L584.24 283.468ZM600.386 270.663L600.807 271.194L600.811 271.19L600.386 270.663ZM602.372 269.451L602.162 268.808L602.155 268.81L602.148 268.813L602.372 269.451ZM606.073 270.216L605.595 270.696L605.601 270.702L605.608 270.708L606.073 270.216ZM606.839 271.6L606.178 271.746L606.18 271.753L606.182 271.76L606.839 271.6ZM600.317 297.696L599.958 297.123L599.951 297.127L599.944 297.131L600.317 297.696ZM595.288 296.544L594.707 296.89L594.711 296.897L594.715 296.904L595.288 296.544ZM598.332 279.445L598.483 278.785L597.823 278.634L597.672 279.294L598.332 279.445ZM599.401 279.69L599.823 280.219L600.921 279.344L599.552 279.03L599.401 279.69ZM583.285 292.543L583.701 293.077L583.707 293.072L583.285 292.543ZM581.299 293.755L581.539 294.388L581.547 294.385L581.299 293.755ZM590.658 263.099L590.177 263.576L590.183 263.582L590.189 263.587L590.658 263.099ZM588.603 259.336L587.935 259.45L587.938 259.462L588.603 259.336ZM588.926 257.743L589.427 258.198L589.433 258.192L589.439 258.185L588.926 257.743ZM590.283 257.095L590.328 257.771L590.338 257.77L590.349 257.769L590.283 257.095ZM591.612 257.483L591.112 257.94L591.131 257.961L591.153 257.981L591.612 257.483ZM592.497 258.894L591.872 259.155L591.873 259.157L592.497 258.894ZM593.894 260.798L593.464 261.321L593.476 261.331L593.488 261.34L593.894 260.798ZM599.042 261.978L599.172 262.643L599.182 262.641L599.192 262.638L599.042 261.978ZM601.129 260.873L600.68 260.366L600.674 260.371L600.668 260.377L601.129 260.873ZM602.501 259.978L602.718 260.62L602.731 260.615L602.501 259.978ZM603.905 260.217L603.553 260.795L603.562 260.8L603.571 260.806L603.905 260.217ZM604.814 261.342L604.156 261.502L604.16 261.518L604.165 261.534L604.814 261.342ZM604.412 262.917L604.956 263.32L604.963 263.31L604.412 262.917ZM600.883 265.401L600.664 264.76L600.658 264.762L600.883 265.401ZM579.25 293.785L579.401 293.125C579 293.033 578.664 292.886 578.383 292.692L577.997 293.248L577.612 293.805C578.05 294.108 578.549 294.319 579.098 294.445L579.25 293.785ZM577.997 293.248L578.383 292.692C578.096 292.493 577.869 292.256 577.696 291.979L577.122 292.339L576.548 292.699C576.823 293.136 577.18 293.506 577.612 293.805L577.997 293.248ZM577.122 292.339L577.726 292.033C577.576 291.737 577.472 291.386 577.424 290.969L576.752 291.046L576.079 291.123C576.142 291.675 576.285 292.186 576.518 292.645L577.122 292.339ZM576.752 291.046L577.427 291.004C577.403 290.603 577.445 290.139 577.567 289.607L576.908 289.456L576.248 289.305C576.103 289.934 576.042 290.53 576.076 291.087L576.752 291.046ZM576.908 289.456L577.567 289.607L582.522 267.987L581.862 267.835L581.202 267.684L576.248 289.305L576.908 289.456ZM581.862 267.835L582.522 267.987C582.751 266.99 583.159 266.397 583.674 266.074L583.314 265.501L582.954 264.927C582.041 265.5 581.482 266.463 581.202 267.684L581.862 267.835ZM583.314 265.501L583.674 266.074C584.188 265.752 584.9 265.642 585.897 265.87L586.048 265.21L586.199 264.55C584.978 264.271 583.868 264.354 582.954 264.927L583.314 265.501ZM586.048 265.21L585.897 265.87C586.896 266.099 587.466 266.504 587.761 267L588.343 266.653L588.925 266.307C588.377 265.387 587.418 264.83 586.199 264.55L586.048 265.21ZM588.343 266.653L587.769 267.013C588.092 267.527 588.202 268.239 587.973 269.236L588.633 269.387L589.293 269.538C589.573 268.318 589.489 267.207 588.917 266.293L588.343 266.653ZM588.633 269.387L587.973 269.236L584.689 283.57L585.348 283.722L586.008 283.873L589.293 269.538L588.633 269.387ZM585.348 283.722L585.5 283.062L584.391 282.808L584.24 283.468L584.088 284.127L585.197 284.382L585.348 283.722ZM584.24 283.468L584.66 283.998L600.807 271.194L600.386 270.663L599.965 270.133L583.819 282.937L584.24 283.468ZM600.386 270.663L600.811 271.19C601.532 270.608 602.125 270.256 602.597 270.09L602.372 269.451L602.148 268.813C601.471 269.051 600.74 269.507 599.96 270.137L600.386 270.663ZM602.372 269.451L602.582 270.095C603.024 269.951 603.639 269.936 604.468 270.126L604.619 269.466L604.771 268.806C603.805 268.585 602.921 268.56 602.162 268.808L602.372 269.451ZM604.619 269.466L604.468 270.126C604.979 270.243 605.341 270.442 605.595 270.696L606.073 270.216L606.551 269.737C606.081 269.268 605.474 268.968 604.771 268.806L604.619 269.466ZM606.073 270.216L605.608 270.708C605.891 270.976 606.083 271.314 606.178 271.746L606.839 271.6L607.501 271.455C607.351 270.775 607.032 270.19 606.538 269.724L606.073 270.216ZM606.839 271.6L606.182 271.76C606.28 272.166 606.279 272.652 606.146 273.234L606.806 273.385L607.466 273.536C607.635 272.798 607.656 272.094 607.497 271.441L606.839 271.6ZM606.806 273.385L606.146 273.234L601.118 295.171L601.778 295.322L602.438 295.473L607.466 273.536L606.806 273.385ZM601.778 295.322L601.118 295.171C600.883 296.199 600.469 296.802 599.958 297.123L600.317 297.696L600.677 298.27C601.594 297.695 602.154 296.715 602.438 295.473L601.778 295.322ZM600.317 297.696L599.944 297.131C599.463 297.449 598.773 297.565 597.774 297.336L597.623 297.996L597.472 298.656C598.69 298.935 599.797 298.851 600.69 298.261L600.317 297.696ZM597.623 297.996L597.774 297.336C596.778 297.107 596.185 296.699 595.862 296.184L595.288 296.544L594.715 296.904C595.287 297.817 596.251 298.376 597.472 298.656L597.623 297.996ZM595.288 296.544L595.87 296.198C595.569 295.692 595.469 294.967 595.707 293.931L595.047 293.779L594.387 293.628C594.104 294.863 594.165 295.98 594.707 296.89L595.288 296.544ZM595.047 293.779L595.707 293.931L598.992 279.596L598.332 279.445L597.672 279.294L594.387 293.628L595.047 293.779ZM598.332 279.445L598.18 280.105L599.25 280.35L599.401 279.69L599.552 279.03L598.483 278.785L598.332 279.445ZM599.401 279.69L598.979 279.161L582.863 292.014L583.285 292.543L583.707 293.072L599.823 280.219L599.401 279.69ZM583.285 292.543L582.869 292.009C582.153 292.567 581.548 292.929 581.051 293.125L581.299 293.755L581.547 294.385C582.21 294.124 582.929 293.678 583.701 293.077L583.285 292.543ZM581.299 293.755L581.059 293.122C580.679 293.266 580.143 293.295 579.401 293.125L579.25 293.785L579.098 294.445C579.993 294.65 580.823 294.659 581.539 294.388L581.299 293.755ZM595.533 265.467L595.685 264.807C593.65 264.341 592.15 263.595 591.127 262.611L590.658 263.099L590.189 263.587C591.443 264.793 593.193 265.625 595.382 266.127L595.533 265.467ZM590.658 263.099L591.139 262.622C590.117 261.593 589.504 260.457 589.268 259.21L588.603 259.336L587.938 259.462C588.229 261.003 588.987 262.376 590.177 263.576L590.658 263.099ZM588.603 259.336L589.27 259.222C589.171 258.643 589.285 258.355 589.427 258.198L588.926 257.743L588.425 257.287C587.899 257.866 587.797 258.641 587.936 259.45L588.603 259.336ZM588.926 257.743L589.439 258.185C589.65 257.941 589.928 257.797 590.328 257.771L590.283 257.095L590.239 256.42C589.511 256.468 588.883 256.756 588.414 257.3L588.926 257.743ZM590.283 257.095L590.349 257.769C590.824 257.723 591.018 257.837 591.112 257.94L591.612 257.483L592.112 257.026C591.627 256.496 590.937 256.352 590.218 256.421L590.283 257.095ZM591.612 257.483L591.153 257.981C591.372 258.183 591.62 258.552 591.872 259.155L592.497 258.894L593.122 258.634C592.835 257.947 592.494 257.375 592.07 256.985L591.612 257.483ZM592.497 258.894L591.873 259.157C592.237 260.021 592.766 260.747 593.464 261.321L593.894 260.798L594.325 260.276C593.807 259.849 593.405 259.306 593.121 258.632L592.497 258.894ZM593.894 260.798L593.488 261.34C594.222 261.891 595.138 262.278 596.208 262.523L596.359 261.863L596.51 261.204C595.574 260.989 594.846 260.666 594.3 260.257L593.894 260.798ZM596.359 261.863L596.208 262.523C597.278 262.769 598.271 262.819 599.172 262.643L599.042 261.978L598.912 261.314C598.242 261.445 597.447 261.418 596.51 261.204L596.359 261.863ZM599.042 261.978L599.192 262.638C600.101 262.432 600.903 262.006 601.59 261.369L601.129 260.873L600.668 260.377C600.155 260.853 599.566 261.165 598.892 261.318L599.042 261.978ZM601.129 260.873L601.578 261.379C602.074 260.94 602.451 260.71 602.718 260.62L602.501 259.978L602.284 259.337C601.767 259.512 601.23 259.878 600.68 260.366L601.129 260.873ZM602.501 259.978L602.731 260.615C602.903 260.553 603.154 260.552 603.553 260.795L603.905 260.217L604.257 259.639C603.632 259.258 602.947 259.098 602.271 259.342L602.501 259.978ZM603.905 260.217L603.571 260.806C603.93 261.01 604.093 261.243 604.156 261.502L604.814 261.342L605.472 261.182C605.306 260.499 604.864 259.983 604.24 259.628L603.905 260.217ZM604.814 261.342L604.165 261.534C604.225 261.737 604.202 262.046 603.861 262.524L604.412 262.917L604.963 263.31C605.44 262.642 605.685 261.901 605.464 261.15L604.814 261.342ZM604.412 262.917L603.868 262.514C603.114 263.53 602.058 264.283 600.664 264.76L600.883 265.401L601.102 266.042C602.723 265.487 604.019 264.584 604.956 263.32L604.412 262.917ZM600.883 265.401L600.658 264.762C599.334 265.229 597.689 265.266 595.685 264.807L595.533 265.467L595.382 266.127C597.549 266.623 599.47 266.617 601.108 266.04L600.883 265.401ZM607.63 289.578L607.035 289.901L607.04 289.911L607.046 289.92L607.63 289.578ZM607.304 287.544L606.631 287.47L606.63 287.482L607.304 287.544ZM608.658 275.268L609.332 275.342L609.333 275.33L608.658 275.268ZM610.173 272.114L610.59 272.648L610.598 272.642L610.173 272.114ZM616.271 273.512L615.654 273.79L615.658 273.799L616.271 273.512ZM616.222 277.001L615.588 276.763L615.585 276.77L615.583 276.777L616.222 277.001ZM612.135 288.651L612.769 288.889L612.774 288.876L612.135 288.651ZM610.956 290.34L610.561 289.79L610.956 290.34ZM604.382 298.294L603.802 298.643L603.808 298.654L604.382 298.294ZM605.652 292.751L605.293 292.177L605.293 292.177L605.652 292.751ZM611.354 294.057L610.767 294.395L610.774 294.406L610.781 294.417L611.354 294.057ZM610.084 299.601L609.713 299.034L609.703 299.042L610.084 299.601ZM609.139 290.632L609.29 289.972C608.763 289.851 608.428 289.601 608.214 289.236L607.63 289.578L607.046 289.92C607.471 290.646 608.142 291.098 608.987 291.292L609.139 290.632ZM607.63 289.578L608.225 289.255C608.014 288.867 607.911 288.333 607.978 287.607L607.304 287.544L606.63 287.482C606.546 288.388 606.659 289.21 607.035 289.901L607.63 289.578ZM607.304 287.544L607.977 287.619L609.331 275.342L608.658 275.268L607.986 275.194L606.631 287.47L607.304 287.544ZM608.658 275.268L609.333 275.33C609.45 274.047 609.895 273.191 610.59 272.648L610.173 272.114L609.756 271.581C608.691 272.413 608.126 273.659 607.984 275.206L608.658 275.268ZM610.173 272.114L610.598 272.642C611.288 272.086 612.178 271.893 613.37 272.166L613.522 271.506L613.673 270.846C612.172 270.503 610.831 270.715 609.748 271.587L610.173 272.114ZM613.522 271.506L613.37 272.166C614.595 272.447 615.303 273.01 615.654 273.79L616.271 273.512L616.889 273.234C616.319 271.969 615.194 271.195 613.673 270.846L613.522 271.506ZM616.271 273.512L615.658 273.799C616.026 274.585 616.043 275.552 615.588 276.763L616.222 277.001L616.856 277.239C617.399 275.791 617.449 274.43 616.884 273.225L616.271 273.512ZM616.222 277.001L615.583 276.777L611.496 288.427L612.135 288.651L612.774 288.876L616.861 277.226L616.222 277.001ZM612.135 288.651L611.501 288.414C611.245 289.098 610.92 289.533 610.561 289.79L610.956 290.34L611.351 290.89C611.99 290.432 612.45 289.741 612.769 288.889L612.135 288.651ZM610.956 290.34L610.561 289.79C610.25 290.013 609.853 290.101 609.29 289.972L609.139 290.632L608.987 291.292C609.85 291.49 610.664 291.383 611.351 290.89L610.956 290.34ZM606.988 300.017L607.139 299.357C606.093 299.117 605.393 298.632 604.956 297.935L604.382 298.294L603.808 298.654C604.47 299.709 605.507 300.372 606.837 300.677L606.988 300.017ZM604.382 298.294L604.962 297.946C604.545 297.251 604.422 296.421 604.657 295.398L603.997 295.247L603.337 295.096C603.039 296.396 603.173 297.597 603.802 298.643L604.382 298.294ZM603.997 295.247L604.657 295.398C604.884 294.406 605.346 293.742 606.012 293.324L605.652 292.751L605.293 292.177C604.271 292.818 603.63 293.818 603.337 295.096L603.997 295.247ZM605.652 292.751L606.012 293.324C606.709 292.887 607.551 292.755 608.597 292.995L608.748 292.335L608.9 291.675C607.57 291.37 606.348 291.515 605.293 292.177L605.652 292.751ZM608.748 292.335L608.597 292.995C609.708 293.249 610.389 293.737 610.767 294.395L611.354 294.057L611.941 293.72C611.326 292.65 610.27 291.989 608.9 291.675L608.748 292.335ZM611.354 294.057L610.781 294.417C611.198 295.083 611.325 295.882 611.098 296.874L611.758 297.026L612.418 297.177C612.711 295.899 612.569 294.719 611.928 293.698L611.354 294.057ZM611.758 297.026L611.098 296.874C610.864 297.897 610.391 298.591 609.714 299.034L610.084 299.601L610.455 300.168C611.476 299.5 612.12 298.477 612.418 297.177L611.758 297.026ZM610.084 299.601L609.703 299.042C609.076 299.469 608.25 299.612 607.139 299.357L606.988 300.017L606.837 300.677C608.207 300.991 609.446 300.856 610.466 300.161L610.084 299.601Z" fill="#252525" mask="url(#path-3-outside-1_1042_12281)"/>
<path d="M109.99 13.1907C112.705 12.2645 115.449 11.6751 118.168 11.3496L118.169 11.3484C118.43 11.3139 118.692 11.2834 118.956 11.2542C121.028 9.82651 123.212 8.77562 125.336 8.05093L125.361 8.04242L125.387 8.03451L125.837 7.8862L125.865 7.87642L125.894 7.86757C140.367 3.28722 154.558 12.0232 157.679 26.6444L157.68 26.645L160.237 38.265C161.57 39.8906 162.643 41.6258 163.485 43.3871C165.066 42.4897 166.631 41.8162 168.08 41.322L183.789 35.9623L189.584 34.0534L189.744 34.0007L189.907 33.9585C192.475 33.2969 195.594 32.9007 198.986 33.2682C201.856 30.3043 205.326 28.1812 209.052 26.9097L209.138 26.8803L209.836 26.6568L209.878 26.6423L209.922 26.6296C214.2 25.3359 219.074 25.0761 224.027 26.5006L224.028 26.5003C225.275 26.8545 226.439 27.2924 227.521 27.7829L227.98 27.9968L228.542 28.2643L229.022 28.6596L238.247 36.2423L238.481 36.4349L238.691 36.6542L241.582 39.6715L241.582 39.6724L249.745 48.1983L254.621 53.2902L254.621 53.2911C260.167 59.0858 263.246 64.9033 263.708 70.675C264.18 76.576 261.848 81.542 258.381 85.3542C251.842 92.5444 240.697 96.3818 232.143 97.1891L225.432 98.7369C223.645 99.7906 221.947 100.496 220.571 100.966C219.207 101.431 217.7 101.816 216.078 102.059C214.588 102.884 213.127 103.506 211.787 103.963C208.848 104.966 205.104 105.663 200.995 105.247C197.873 108.202 194.377 109.903 191.607 110.848C189.841 111.45 187.801 111.936 185.573 112.144C184.266 112.831 183.018 113.344 181.914 113.72L167.266 118.718C165.777 119.226 164.049 119.672 162.144 119.93C160.042 121.355 157.89 122.351 155.92 123.023C152.629 124.146 148.316 124.891 143.616 124.108C142.424 125 140.848 126.019 139.305 126.953C137.675 127.942 135.941 128.923 134.485 129.687C133.762 130.066 133.061 130.416 132.451 130.691C132.2 130.804 131.699 131.032 131.107 131.221C129.989 131.788 128.878 132.25 127.803 132.616C126.299 133.129 124.464 133.609 122.386 133.86L115.907 136.879L115.422 137.106L114.9 137.226L107.862 138.848C106.075 139.902 104.377 140.609 103 141.079C101.891 141.457 100.692 141.778 99.4192 142.017C99.0228 142.218 98.6309 142.406 98.245 142.579L97.9935 142.692L97.7316 142.777L86.3847 146.452L75.2295 150.453L74.9673 150.547L74.6966 150.612C70.4693 151.625 65.4912 151.676 60.4146 149.755C58.9676 149.208 57.5848 148.526 56.283 147.723L56.2309 147.691L56.1804 147.658L55.4258 147.167L55.3731 147.133L55.3219 147.098C52.0663 144.866 49.3784 141.832 47.535 138.169L47.4179 137.937L47.3772 137.857L47.3401 137.776L47.2307 137.54L47.2298 137.537C46.4626 135.872 45.9306 134.212 45.5865 132.588L45.5143 132.246L45.4884 131.898L45.128 126.898L45.1037 126.557L45.1247 126.217C45.2324 124.469 45.5226 122.836 45.9095 121.358C44.822 120.48 43.7137 119.445 42.6625 118.235L42.4296 117.966L42.2351 117.668C40.7615 115.399 38.4031 112.172 37.4508 108.025L37.4304 107.935C36.2883 102.517 37.0335 96.964 39.4456 92.0875C38.984 90.8591 38.6704 89.6582 38.4288 88.596C38.2313 87.728 38.0617 86.8546 37.9128 86.1038C37.8793 85.9349 37.8444 85.7717 37.8123 85.6128L29.9571 79.0383L29.9285 79.0151L29.8822 78.9762L29.8366 78.936L29.8092 78.9134L29.8098 78.9121C26.4477 76.0547 22.7367 71.4188 21.522 64.8094L20.7275 60.4816L21.1305 60.3441C21.1608 55.8007 22.507 51.2373 25.2881 47.2287L25.2878 47.2278C28.7833 42.1782 33.5381 39.3705 37.7288 37.9406L37.7685 37.927L37.8086 37.9144L38.4461 37.7082L38.5244 37.6836C40.7317 37.0097 43.6334 36.4506 46.9224 36.6066L59.2434 30.7179L59.7091 30.495L60.2094 30.3708C61.3725 30.0809 62.5999 29.8622 63.8797 29.7387C65.0916 29.1229 66.2813 28.6335 67.4034 28.2506L87.2368 21.4839C89.9031 20.5742 93.3995 19.8506 97.3065 20.1078C97.3395 20.0812 97.3717 20.0534 97.4048 20.0269L97.4051 20.0278C101.295 16.8821 105.609 14.6853 109.99 13.1907ZM130.025 131.481C130.027 131.48 130.03 131.479 130.034 131.478C130.031 131.479 130.028 131.48 130.027 131.48L130.025 131.481Z" fill="#EF0405" stroke="#252525" stroke-width="10.2"/>
<path d="M62.7924 86.094C61.8706 86.4085 61.0142 86.4434 60.2232 86.1987C59.4322 85.954 58.832 85.4674 58.4226 84.7387C58.0033 83.9813 57.8666 83.0149 58.0123 81.8396L58.9045 75.264L59.6563 77.4677L43.1138 63.6226C42.3005 62.9353 41.8187 62.1831 41.6686 61.366C41.5086 60.5201 41.6669 59.7586 42.1434 59.0815C42.6389 58.3657 43.3907 57.8358 44.399 57.4918C45.436 57.138 46.3022 57.1319 46.9977 57.4735C47.7121 57.7765 48.4858 58.3005 49.3188 59.0454L61.099 69.1123L59.8027 69.5546L61.8214 54.828C61.9403 53.9513 62.1703 53.1171 62.5112 52.3254C62.8809 51.5239 63.6419 50.9265 64.7942 50.5334C65.716 50.2189 66.5724 50.184 67.3634 50.4287C68.1734 50.6347 68.788 51.1165 69.2073 51.8739C69.6455 52.5928 69.7678 53.5641 69.5743 54.7878L65.8085 81.7846C65.7085 82.6228 65.4641 83.4619 65.0754 84.302C64.7057 85.1035 63.9447 85.7009 62.7924 86.094ZM84.4262 78.713C83.1587 79.1454 82.0614 79.1339 81.1341 78.6784C80.197 78.1941 79.5074 77.3038 79.0651 76.0075L71.3253 53.3221C70.8732 51.997 70.8749 50.8708 71.3304 49.9436C71.8048 48.9777 72.719 48.2638 74.073 47.8019L93.9065 41.0351C95.2604 40.5731 96.4059 40.5843 97.343 41.0686C98.299 41.5143 99.0031 42.3997 99.4552 43.7248L107.195 66.4102C107.637 67.7065 107.636 68.8327 107.19 69.7887C106.763 70.7061 105.902 71.386 104.605 71.8282C103.338 72.2607 102.241 72.2492 101.313 71.7937C100.376 71.3094 99.6866 70.4191 99.2443 69.1228L92.3154 48.8139L80.0868 52.9861L87.0158 73.2949C87.4581 74.5912 87.4708 75.7125 87.0539 76.6587C86.6273 77.5761 85.7514 78.2609 84.4262 78.713ZM127.376 64.1558C124.006 65.3057 120.89 65.6453 118.028 65.1745C115.166 64.7038 112.684 63.5085 110.581 61.5886C108.508 59.6589 106.931 57.1096 105.849 53.9409C105.044 51.5787 104.671 49.3098 104.733 47.134C104.824 44.9484 105.324 42.9284 106.235 41.0739C107.175 39.2095 108.516 37.5782 110.258 36.1799C112.019 34.7429 114.152 33.5969 116.659 32.7419C117.984 32.2898 119.406 31.9814 120.926 31.8166C122.464 31.6133 123.884 31.6274 125.185 31.8588C126.139 32.0157 126.888 32.3714 127.431 32.9259C127.974 33.4803 128.305 34.1229 128.426 34.8536C128.576 35.5744 128.542 36.2773 128.325 36.9622C128.109 37.6471 127.718 38.1985 127.153 38.6164C126.578 39.0055 125.853 39.1405 124.976 39.0216C123.974 38.9131 123.007 38.9055 122.074 38.9987C121.16 39.0533 120.242 39.2378 119.32 39.5523C117.534 40.1617 116.154 41.0184 115.18 42.1226C114.225 43.1881 113.666 44.4722 113.503 45.9749C113.341 47.4776 113.584 49.1796 114.232 51.0809C114.881 52.9821 115.734 54.4921 116.791 55.6108C117.838 56.7007 119.07 57.3899 120.487 57.6783C121.923 57.9281 123.534 57.7483 125.32 57.1389C126.069 56.8834 126.846 56.5218 127.651 56.0541C128.447 55.5576 129.193 54.9652 129.891 54.2769C130.628 53.6075 131.357 53.2462 132.078 53.193C132.828 53.13 133.494 53.2889 134.074 53.6699C134.683 54.041 135.163 54.5525 135.514 55.2046C135.855 55.8278 135.981 56.5248 135.89 57.2955C135.828 58.0563 135.491 58.7661 134.88 59.425C134.078 60.3739 132.987 61.2767 131.607 62.1335C130.256 62.9804 128.846 63.6545 127.376 64.1558ZM139.126 48.473C138.377 48.7285 137.688 48.6901 137.06 48.3576C136.461 48.0153 135.956 47.4317 135.546 46.6068L129.582 34.0733C128.869 32.6442 128.73 31.3409 129.164 30.1635C129.589 28.9574 130.536 28.1037 132.005 27.6024C133.503 27.0914 134.774 27.1883 135.819 27.8932C136.854 28.5693 137.526 29.6907 137.835 31.2575L140.818 44.8083C140.998 45.7118 140.955 46.4821 140.69 47.1192C140.425 47.7564 139.904 48.2076 139.126 48.473ZM142.62 58.7138C141.323 59.1561 140.154 59.121 139.111 58.6086C138.096 58.0864 137.373 57.1915 136.94 55.924C136.518 54.6853 136.553 53.5637 137.047 52.5592C137.559 51.516 138.463 50.7733 139.76 50.3311C141.114 49.8691 142.283 49.9042 143.269 50.4363C144.273 50.9297 144.987 51.7958 145.41 53.0345C145.842 54.302 145.816 55.4524 145.333 56.4857C144.878 57.5092 143.974 58.2519 142.62 58.7138ZM70.539 130.998C69.5308 131.342 68.602 131.353 67.7527 131.032C66.9034 130.711 66.2786 130.152 65.8784 129.356C65.507 128.55 65.5051 127.602 65.8728 126.512L70.9055 111.287L72.1291 114.874L59.2031 106.114C58.2359 105.448 57.6529 104.682 57.4543 103.817C57.2846 102.942 57.4376 102.118 57.9134 101.345C58.3892 100.571 59.1312 100.012 60.1395 99.6685C60.9749 99.3835 61.7782 99.3345 62.5496 99.5216C63.3209 99.7087 64.1758 100.141 65.1143 100.817L74.6043 107.565L72.0117 108.45L75.4415 97.2939C75.7608 96.1559 76.1734 95.2915 76.6794 94.7008C77.1755 94.0813 77.8413 93.629 78.6767 93.344C79.7137 92.9902 80.6569 92.9739 81.5062 93.2952C82.3457 93.5877 82.9511 94.1368 83.3226 94.9428C83.7228 95.7388 83.7345 96.7157 83.3577 97.8734L78.4378 112.722L77.2142 109.135L90.5027 118.109C91.4889 118.737 92.0669 119.488 92.2367 120.363C92.4353 121.228 92.2967 122.047 91.8208 122.821C91.345 123.594 90.5886 124.158 89.5515 124.511C88.745 124.787 87.9609 124.845 87.1994 124.687C86.428 124.5 85.5538 124.058 84.5768 123.362L74.7822 116.429L77.2884 115.574L73.8174 127.033C73.4693 128.181 73.0472 129.065 72.5511 129.684C72.0451 130.275 71.3744 130.713 70.539 130.998ZM96.5341 122.129C95.641 122.434 94.8233 122.488 94.0807 122.291C93.3284 122.065 92.7573 121.617 92.3676 120.946C91.968 120.246 91.8126 119.366 91.9014 118.307L94.7588 91.4751C94.894 90.1747 95.2477 89.1375 95.8197 88.3635C96.4206 87.5796 97.2108 87.0205 98.1902 86.6864C99.1696 86.3522 100.108 86.3215 101.005 86.5944C101.931 86.8574 102.859 87.4572 103.79 88.3939L122.451 107.884C123.226 108.648 123.67 109.43 123.781 110.228C123.922 111.016 123.758 111.715 123.291 112.325C122.852 112.925 122.201 113.372 121.337 113.667C120.184 114.06 119.203 114.105 118.392 113.803C117.611 113.491 116.778 112.842 115.895 111.857L111.69 107.166L115.466 108.337L97.6636 114.411L99.9797 111.161L99.5186 117.445C99.3932 118.774 99.1453 119.791 98.7749 120.496C98.4045 121.201 97.6575 121.746 96.5341 122.129ZM101.067 95.4011L100.138 109.081L98.2208 107.419L110.795 103.129L110.293 105.616L101.153 95.3717L101.067 95.4011ZM149.454 104.074C148.186 104.506 147.089 104.495 146.161 104.039C145.224 103.555 144.535 102.665 144.092 101.369L137.163 81.0597L129.213 83.7723L130.908 88.7415C131.665 90.9596 132.19 93.0639 132.483 95.0543C132.776 97.0447 132.857 98.9307 132.725 100.712C132.593 102.494 132.249 104.171 131.692 105.744C131.135 107.317 130.39 108.761 129.456 110.077C128.808 111.005 127.993 111.54 127.013 111.682C126.042 111.853 125.063 111.624 124.077 110.995C123.11 110.328 122.574 109.514 122.471 108.552C122.368 107.59 122.631 106.616 123.259 105.63C123.888 104.644 124.333 103.592 124.594 102.473C124.875 101.316 124.996 100.069 124.958 98.7312C124.938 97.355 124.755 95.8739 124.407 94.2882C124.059 92.7025 123.57 90.9878 122.941 89.1441L121.143 83.8725C120.69 82.5474 120.692 81.4212 121.148 80.4939C121.622 79.5281 122.522 78.8191 123.847 78.367L138.755 73.2808C140.08 72.8287 141.225 72.8399 142.191 73.3144C143.147 73.76 143.851 74.6454 144.303 75.9705L152.043 98.6559C152.485 99.9522 152.484 101.078 152.038 102.034C151.583 102.962 150.721 103.642 149.454 104.074ZM160.8 99.7688C159.446 100.231 158.291 100.239 157.335 99.7932C156.398 99.3089 155.703 98.4042 155.251 97.0791L147.658 74.8258C147.206 73.5007 147.208 72.3745 147.664 71.4473C148.138 70.4814 149.052 69.7675 150.406 69.3055L165.054 64.3078C166.091 63.954 166.958 63.9479 167.653 64.2895C168.349 64.6312 168.863 65.2917 169.198 66.2711C169.542 67.2794 169.548 68.1456 169.216 68.8698C168.874 69.5653 168.185 70.0899 167.148 70.4437L155.956 74.262L157.932 80.0522L168.173 76.5582C169.181 76.2142 170.033 76.213 170.728 76.5547C171.452 76.8864 171.987 77.5565 172.331 78.5647C172.675 79.5729 172.661 80.4297 172.291 81.135C171.949 81.8304 171.274 82.3501 170.266 82.6941L160.025 86.1881L162.163 92.4535L173.354 88.6353C174.391 88.2814 175.263 88.2897 175.968 88.6602C176.663 89.0018 177.178 89.6623 177.512 90.6417C177.856 91.65 177.857 92.5018 177.516 93.1972C177.174 93.8927 176.485 94.4173 175.448 94.7711L160.8 99.7688ZM185.141 91.8981C183.874 92.3306 182.776 92.319 181.849 91.8636C180.912 91.3793 180.222 90.489 179.78 89.1927L172.04 66.5073C171.588 65.1821 171.59 64.056 172.045 63.1287C172.52 62.1628 173.434 61.4489 174.788 60.987L194.621 54.2202C195.975 53.7583 197.121 53.7695 198.058 54.2537C199.014 54.6994 199.718 55.5848 200.17 56.9099L207.91 79.5953C208.352 80.8916 208.351 82.0178 207.905 82.9739C207.478 83.8913 206.617 84.5711 205.32 85.0134C204.053 85.4458 202.956 85.4343 202.028 84.9788C201.091 84.4945 200.402 83.6042 199.959 82.3079L193.03 61.9991L180.802 66.1712L187.731 86.48C188.173 87.7764 188.186 88.8976 187.769 89.8438C187.342 90.7613 186.466 91.446 185.141 91.8981ZM214.105 82.0163C213.212 82.321 212.394 82.3749 211.652 82.178C210.899 81.9523 210.328 81.5039 209.938 80.8329C209.539 80.133 209.383 79.2534 209.472 78.194L212.33 51.3624C212.465 50.062 212.819 49.0248 213.391 48.2507C213.991 47.4668 214.782 46.9078 215.761 46.5736C216.74 46.2395 217.679 46.2088 218.576 46.4816C219.502 46.7446 220.43 47.3445 221.361 48.2812L240.022 67.7711C240.797 68.5356 241.241 69.317 241.352 70.1151C241.493 70.9034 241.329 71.6024 240.862 72.2121C240.423 72.8119 239.772 73.2593 238.908 73.5541C237.755 73.9473 236.774 73.9927 235.963 73.6904C235.181 73.3782 234.349 72.7296 233.466 71.7444L229.261 67.0528L233.037 68.2245L215.234 74.2984L217.551 71.048L217.089 77.3318C216.964 78.661 216.716 79.6782 216.346 80.3834C215.975 81.0887 215.228 81.633 214.105 82.0163ZM218.638 55.2884L217.709 68.9678L215.792 67.3065L228.366 63.0164L227.864 65.5033L218.724 55.2589L218.638 55.2884Z" fill="white"/>
</g>
<defs>
<clipPath id="clip0_1042_12281">
<rect width="643" height="314" fill="white"/>
</clipPath>
</defs>
</svg>
