<svg width="117" height="160" viewBox="0 0 117 160" fill="none" xmlns="http://www.w3.org/2000/svg">
<g clip-path="url(#clip0_627_9244)">
<path d="M52.3512 148.297C39.7746 147.859 27.5028 144.319 16.6253 137.991C13.0283 135.9 11.3157 131.629 12.4694 127.63C13.8584 122.815 18.8898 120.036 23.705 121.425L55.1827 130.506C59.9979 131.895 62.7764 136.926 61.3873 141.741C60.2336 145.741 56.5092 148.443 52.3512 148.297Z" fill="white"/>
<path d="M53.8586 143.077C41.282 142.639 29.0103 139.099 18.1327 132.771C15.3456 131.151 13.6961 128.22 13.6275 125.124C13.1299 125.877 12.7342 126.717 12.4708 127.63C11.3171 131.629 13.0297 135.9 16.6267 137.991C27.5043 144.319 39.776 147.859 52.3526 148.297C56.5107 148.443 60.2351 145.741 61.3888 141.741C61.6521 140.828 61.7643 139.907 61.7421 139.003C60.0348 141.588 57.0805 143.19 53.8586 143.077Z" fill="#8ECAE6"/>
<path d="M23.3833 122.547C19.1924 121.338 14.7995 123.762 13.5906 127.953C12.5832 131.445 14.0747 135.156 17.2143 136.983C27.8863 143.193 40.0537 146.702 52.3931 147.131C56.0235 147.257 59.2627 144.91 60.2701 141.418C61.479 137.227 59.052 132.836 54.8611 131.627L23.3833 122.547ZM33.5323 146.465C27.4313 144.705 21.5447 142.201 16.0401 138.999C11.9755 136.633 10.046 131.825 11.3497 127.306C12.9145 121.882 18.6027 118.74 24.0298 120.306L55.5076 129.386C60.9321 130.951 64.0733 136.639 62.5085 142.064C61.2049 146.583 57.0109 149.625 52.3107 149.462C45.949 149.241 39.6334 148.225 33.5323 146.465Z" fill="#231F20"/>
<path d="M26.8147 80.6734C26.8147 80.6734 34.7246 58.829 35.0962 46.3895C35.0962 46.3895 38.3164 11.2895 46.7467 6.00265C51.9396 2.74816 54.7812 6.00071 56.2474 9.27678C57.2162 11.4475 57.6539 13.8154 57.6365 16.192C57.5883 22.8407 57.1532 44.2792 53.3716 64.7012C53.2501 65.3558 54.089 65.7352 54.4992 65.2097C59.8135 58.4151 76.8583 36.4712 86.2032 22.7461C86.2032 22.7461 94.0271 12.3513 99.5239 21.548C104.12 29.2429 65.2055 93.6771 65.2055 93.6771L26.8147 80.6734Z" fill="white"/>
<path d="M50.7203 7.68165C51.6915 9.85312 52.1292 12.2209 52.1118 14.5975C52.0636 21.2463 51.0362 48.5111 47.2546 68.9331C47.1356 69.5885 47.8532 69.8467 48.3847 69.4423C50.3182 67.9606 51.5973 66.6834 53.3734 64.701C55.8769 47.1406 57.5957 21.9153 57.6383 16.1918C57.6558 13.8152 57.218 11.4474 56.2493 9.27661C55.0122 6.51385 52.7958 3.76499 49.0141 4.9291C49.7229 5.73166 50.2829 6.70413 50.7203 7.68165Z" fill="#8ECAE6"/>
<path d="M99.5253 21.5479C97.3425 17.8981 94.7945 17.3355 92.5172 17.9825C93.0236 18.5058 93.518 19.1549 93.9963 19.953C98.4352 27.3815 62.3314 87.6748 59.8169 91.8527L65.207 93.677C65.207 93.677 104.122 29.2429 99.5253 21.5479Z" fill="#8ECAE6"/>
<path d="M28.3081 79.9486L64.6885 92.2726C66.7636 88.8057 75.1765 74.6501 83.0622 59.9409C99.7564 28.8086 99.1148 23.1408 98.5203 22.1476C97.2924 20.0907 95.8757 19.0058 94.3132 18.9215C91.3687 18.7618 88.1594 22.0981 87.1486 23.4258C77.7441 37.2361 60.485 59.4467 55.4175 65.9273C54.9053 66.5824 54.0172 66.8031 53.2568 66.4598C52.4981 66.1197 52.0724 65.3072 52.2249 64.4891C55.8829 44.7292 56.4111 24.1258 56.4712 16.1846C56.4877 13.867 56.0527 11.7047 55.1823 9.75364C54.5356 8.30623 53.412 6.47608 51.7347 5.96796C51.7205 5.96117 51.7055 5.95686 51.6906 5.95256C50.4769 5.60243 49.0231 5.95358 47.3664 6.98977C40.8604 11.0698 37.1473 36.8297 36.2601 46.4614C35.9202 57.474 29.9407 75.2791 28.3081 79.9486ZM65.7178 95.0832L25.3123 81.3959L25.7187 80.2766C25.7975 80.0595 33.5684 58.4633 33.9307 46.3552L33.9351 46.2837C33.9439 46.1973 34.7661 37.3418 36.6144 27.9551C39.1469 15.1044 42.3464 7.38447 46.1279 5.01603C48.3684 3.6094 50.4585 3.17239 52.3339 3.71337L52.411 3.73562C54.4319 4.35093 56.0796 6.05478 57.3103 8.80223C58.3186 11.0598 58.8211 13.5487 58.8026 16.1998C58.746 23.9238 58.2448 43.5274 54.895 62.8076C61.1479 54.7858 76.5705 34.823 85.2384 22.0907L85.2701 22.046C85.4457 21.811 89.6252 16.3352 94.4326 16.5931C96.821 16.719 98.871 18.186 100.523 20.9498C101.4 22.4181 101.811 25.5137 97.1741 36.5179C94.5036 42.852 90.4469 51.1059 85.1132 61.0498C76.0514 77.9495 66.3002 94.1196 66.2027 94.2801L65.7178 95.0832Z" fill="#231F20"/>
<path d="M15.9977 119.522C15.9977 119.522 18.6807 132.851 38.2237 135.916C46.0108 137.135 52.1963 136.595 56.823 135.499C62.115 134.245 66.8806 131.38 70.5046 127.325C76.6918 120.4 89.7406 105.313 92.5111 98.2585C96.167 88.938 27.7546 88.0216 27.7546 88.0216C27.7546 88.0216 10.9595 88.1421 15.9977 119.522Z" fill="white"/>
<path d="M47.3104 137.726C46.8751 137.6 46.5344 137.222 46.4756 136.744C46.3986 136.105 46.8548 135.523 47.494 135.446L53.7821 134.689C59.7515 133.973 65.225 131.25 69.1944 127.025C69.342 126.868 69.4878 126.708 69.6344 126.546C75.2756 120.234 88.6895 104.797 91.4234 97.8317C91.5118 97.6093 91.5258 97.4113 91.3278 97.1171C90.4571 95.8206 85.4689 92.5846 58.0107 90.537C42.9771 89.4171 28.3686 89.1957 27.757 89.1863C27.4771 89.1945 23.6991 89.3655 20.5366 93.1464C17.6302 96.6186 14.6869 103.973 17.1422 119.305C17.197 119.545 17.9165 122.533 20.6752 125.821C21.0879 126.314 21.0238 127.05 20.5303 127.463C20.036 127.878 19.3009 127.811 18.8883 127.318C15.6212 123.42 14.8831 119.898 14.8526 119.752L14.8441 119.707C12.7451 106.633 14.0759 97.1721 18.8007 91.5895C22.7299 86.944 27.5428 86.856 27.7451 86.8551C27.9172 86.8563 42.8326 87.0692 58.1827 88.213C67.2214 88.8861 74.6457 89.748 80.2529 90.7728C90.0856 92.5693 92.3862 94.5127 93.263 95.8164C93.8641 96.7118 93.9793 97.7041 93.5942 98.6842C90.8269 105.737 78.4835 120.143 71.3709 128.1C71.2151 128.276 71.0543 128.451 70.8942 128.623C66.5487 133.245 60.5711 136.222 54.0621 137.006L47.774 137.763C47.6125 137.781 47.4571 137.768 47.3104 137.726Z" fill="#231F20"/>
<path d="M61.6372 99.7254C61.6372 99.7254 54.7304 106.203 57.9816 112.398C59.6982 115.665 63.5177 115.687 66.7421 114.979C69.394 114.397 71.8828 113.231 74.0935 111.657L90.9858 99.6188C94.4621 97.1407 95.8943 92.5589 94.1858 88.6472C93.1733 86.3291 91.0853 84.2558 86.9973 83.5588L61.6372 99.7254Z" fill="white"/>
<path d="M94.1866 88.647C93.8847 87.9564 93.4853 87.2862 92.966 86.6676C93.1639 89.7637 91.7078 92.8595 89.0665 94.7405L72.1766 106.78C69.9659 108.354 67.4747 109.518 64.8228 110.1C62.1481 110.687 59.0661 110.77 57.1141 108.917C57.119 110.058 57.3703 111.232 57.9824 112.397C59.699 115.665 63.5185 115.686 66.7429 114.978C69.3948 114.396 71.8836 113.231 74.0943 111.657L90.9866 99.6185C94.4629 97.1405 95.8951 92.5587 94.1866 88.647Z" fill="#8ECAE6"/>
<path d="M62.3674 100.644C61.684 101.323 56.3822 106.841 59.0149 111.855C60.1487 114.014 62.6641 114.68 66.4925 113.839C68.9203 113.306 71.2531 112.252 73.42 110.708L90.3098 98.669C93.3961 96.4692 94.5769 92.4506 93.1197 89.1152C92.1252 86.8374 90.1463 85.3855 87.2363 84.7885L62.3674 100.644ZM60.9525 116.177C58.8284 115.565 57.63 114.227 56.9512 112.938C53.3263 106.04 60.5339 99.1642 60.8408 98.8756L60.9213 98.8018L86.7509 82.3342L87.193 82.4079C91.1655 83.085 93.8782 85.0288 95.2558 88.1823C97.1531 92.523 95.6418 97.734 91.6639 100.568L74.7724 112.604C72.3476 114.332 69.73 115.514 66.9913 116.117C64.4223 116.683 62.4547 116.611 60.9525 116.177Z" fill="#231F20"/>
<path d="M77.0531 70.8236C77.0531 70.8236 47.4321 88.0134 45.7712 95.2558C45.1492 97.9725 46.0291 99.9749 47.372 101.418C49.6996 103.922 53.3908 104.612 56.5481 103.306C64.2344 100.121 82.5889 91.9424 87.2053 84.6905C93.0905 75.45 83.8443 71.0692 83.8443 71.0692C83.8443 71.0692 80.1737 68.9623 77.0531 70.8236Z" fill="white"/>
<path d="M87.5526 74.1677C87.5281 75.8121 86.9828 77.7212 85.594 79.9016C80.9776 87.1535 62.6231 95.3322 54.9368 98.5167C51.7795 99.8232 48.0883 99.1329 45.7607 96.6294C45.7025 96.5696 45.6483 96.5054 45.5915 96.4406C45.4311 98.5658 46.2334 100.193 47.3724 101.418C49.7 103.922 53.3912 104.612 56.5485 103.306C64.2348 100.121 82.5894 91.9426 87.2057 84.6907C90.2588 79.8975 89.2379 76.4131 87.5526 74.1677Z" fill="#8ECAE6"/>
<path d="M81.8175 71.5054C80.6833 71.1782 79.0671 70.9814 77.6515 71.8258L77.6387 71.8329C65.9084 78.641 48.0439 90.5659 46.9095 95.5165C46.4528 97.5105 46.8817 99.1806 48.227 100.625C50.1809 102.724 53.346 103.37 56.1028 102.229C62.0151 99.777 81.6638 91.2307 86.2231 84.0648C87.8421 81.5251 88.3565 79.1814 87.7552 77.1005C86.8046 73.7927 83.3811 72.1369 83.3477 72.1219L83.2657 72.0794C83.254 72.0733 82.6731 71.7522 81.8175 71.5054ZM50.665 104.744C49.0981 104.292 47.658 103.438 46.5191 102.212C44.662 100.216 44.0109 97.7194 44.6376 94.9959C44.9174 93.7645 45.7753 90.0246 61.3787 79.363C68.8424 74.2607 76.2008 69.9714 76.4626 69.8205C79.976 67.7277 83.9162 69.7776 84.3863 70.0345C84.8579 70.2675 88.8056 72.3197 89.9973 76.4541C90.79 79.2072 90.1829 82.1896 88.1922 85.3171C83.5712 92.5758 66.662 100.377 56.9955 104.383C54.9338 105.235 52.6945 105.33 50.665 104.744Z" fill="#231F20"/>
<path d="M68.0449 73.8017L50.7788 74.1823C50.7788 74.1823 32.9448 72.039 28.1244 76.8693C23.3048 81.6971 3.91902 92.4045 17.2866 122.639C17.2866 122.639 37.0179 115.59 42.2702 96.8132C42.8114 94.8813 44.076 93.2336 45.7996 92.2086L49.0613 90.2694C49.9419 89.7476 50.963 89.514 51.9829 89.6116C55.8659 89.9827 66.1156 90.2776 69.0965 83.54C72.798 75.1729 68.0449 73.8017 68.0449 73.8017Z" fill="white"/>
<path d="M68.0419 73.8018L66.2903 73.8407C66.3511 75.2457 66.0081 77.1351 64.8894 79.6682C62.2011 85.7466 53.596 86.1013 49.0859 85.8402C47.1174 85.7249 45.1605 86.2138 43.4657 87.2229C43.4305 87.2424 43.3945 87.2643 43.3586 87.2863C40.5008 88.9836 37.3675 91.5983 37.5084 94.9205C37.8823 103.776 36.8505 105.709 38.5976 105.238C41.4053 104.48 41.3795 99.9652 42.2536 96.8605C42.8022 94.9119 44.0577 93.24 45.7966 92.2086L49.0583 90.2695C49.9453 89.7441 50.9774 89.5191 52.003 89.6156C55.9023 89.9861 66.1187 90.266 69.0935 83.5401C72.795 75.1729 68.0419 73.8018 68.0419 73.8018Z" fill="#8ECAE6"/>
<path d="M16.964 123.758C16.6432 123.666 16.3643 123.437 16.219 123.11C2.25434 91.5173 21.2655 79.7454 27.5107 75.8785C33.6536 72.0763 49.5953 72.9436 50.8027 73.0171L68.1965 72.6329L68.3681 72.6824C68.5522 72.7355 70.1858 73.2553 71.0964 75.2072C72.1057 77.3681 71.7902 80.3296 70.1623 84.0117C66.905 91.3808 56.287 91.1952 51.8743 90.7736C51.0986 90.698 50.3316 90.8728 49.6557 91.2732L46.3948 93.2099C44.9215 94.0862 43.8545 95.4784 43.3927 97.126C43.3392 97.3207 42.0289 102.059 39.946 105.254C39.5937 105.794 38.8715 105.944 38.3312 105.594C37.7916 105.242 37.6416 104.519 37.9915 103.979C39.8741 101.095 41.1341 96.5499 41.147 96.5051C41.7707 94.2684 43.2127 92.3889 45.2051 91.2071L48.4668 89.268C49.5689 88.6133 50.8223 88.331 52.0939 88.4526C55.1461 88.7431 65.3122 89.2159 68.0305 83.0707C69.6824 79.3336 69.4747 77.2988 69.0098 76.2487C68.6559 75.4488 68.0917 75.0975 67.8367 74.9728L50.7071 75.3469C50.5461 75.3355 34.3607 74.379 28.7388 77.86C22.3034 81.8445 5.20505 92.4305 18.3531 122.165C18.6115 122.754 18.3455 123.443 17.7582 123.705C17.4966 123.818 17.2177 123.832 16.964 123.758Z" fill="#231F20"/>
</g>
<defs>
<clipPath id="clip0_627_9244">
<rect width="80.5055" height="142.373" fill="white" transform="translate(39.4614) rotate(16.0913)"/>
</clipPath>
</defs>
</svg>
