<svg width="279" height="158" viewBox="0 0 279 158" fill="none" xmlns="http://www.w3.org/2000/svg">
<path d="M138.719 25.7942C145.706 20.9506 155.357 22.1051 161.135 28.3446L174.181 25.1885C175.181 24.9466 176.34 24.7493 177.611 24.6691C178.785 24.1623 179.934 23.7967 181 23.5388L193.664 20.475C195.591 20.0088 198.278 19.6679 201.271 20.163C206.765 16.5226 213.385 14.6729 219.91 14.7683C225.004 11.4708 230.278 10.466 235.122 11.7142C239.573 12.8612 243.231 15.8006 245.811 19.7582C256.237 20.2306 265.38 27.638 267.832 37.7688C269.053 42.8168 268.885 48.5707 266.182 53.9211L266.438 54.0773L264.242 57.0893C260.154 62.6981 254.367 65.4685 249.13 66.7354L239.642 69.0308C239.221 69.1328 238.777 69.2255 238.313 69.3071C238.458 70.0323 238.563 70.7589 238.634 71.4832L238.636 71.5097L238.638 71.5353C238.849 74.0967 238.544 76.6965 237.693 79.194C237.755 79.3162 237.824 79.4554 237.906 79.6108C238.364 80.4846 239.306 82.1717 240.052 83.628C240.856 85.1963 241.711 87.0119 242.305 88.8178C242.873 90.5426 243.353 92.6877 242.975 94.7525L242.974 94.7517C242.281 98.688 240.282 102.239 237.442 104.928L237.444 104.928C236.474 105.867 235.457 106.686 234.433 107.405L234.625 107.636L230.772 109.586C228.539 110.715 226.185 111.593 223.725 112.188C220.578 112.949 217.243 113.336 213.825 113.13C211.641 114.676 209.338 115.589 207.263 116.091L207.262 116.091C205.777 116.45 203.915 116.733 201.831 116.67L196.213 117.574L190.753 119.383C188.927 120.382 187.177 120.951 185.82 121.279C184.645 121.563 183.354 121.76 181.981 121.818C180.695 122.407 179.433 122.824 178.269 123.105C175.73 123.72 172.417 124.013 168.895 123.138C166.099 125.585 162.96 126.809 160.526 127.398C156.191 128.447 151.456 128.027 147.375 125.991C143.376 130.143 138.203 132.878 132.722 134.204C126.163 135.791 119.113 135.29 112.933 132.347C110.385 137.196 105.716 140.658 100.428 141.937C98.9378 142.298 97.2278 142.534 95.3885 142.511C93.7261 143.391 92.0813 143.957 90.6298 144.308L90.6289 144.308C88.0809 144.925 84.851 145.189 81.4369 144.368C78.6698 146.748 75.5844 147.948 73.1839 148.529C68.3604 149.695 62.8765 149.086 58.4621 146.243L58.4618 146.242C53.439 143.028 51.1582 138.246 50.2423 134.46L47.1124 121.523C45.1685 121.25 43.2694 120.664 41.5062 119.784C38.2892 124.238 33.7943 126.107 30.7097 126.854C24.214 128.425 17.0481 126.55 12.4705 121.296C11.0512 119.667 10.113 117.289 9.45217 115.116C8.75489 112.823 8.22178 110.25 7.82909 107.851C7.43472 105.441 7.1702 103.131 7.0248 101.337C6.95232 100.442 6.90715 99.6465 6.89279 99.0134C6.88569 98.7005 6.88459 98.3909 6.89657 98.1113C6.90312 97.9586 6.92168 97.4144 7.0927 96.8662L7.25879 96.3608C7.66659 95.181 8.21934 93.9902 8.94687 92.8146C9.04257 92.66 9.13997 92.5083 9.23859 92.3592C9.11344 91.3908 8.89005 90.1378 8.50952 88.5649L7.67802 85.1279C6.44654 80.0375 7.19459 74.7018 10.0451 70.1765L10.0597 70.1539L10.0741 70.1303C13.2792 65.2176 18.0103 62.9706 21.7569 62.0642L34.6449 58.9462C36.2738 58.5522 38.2422 58.2827 40.3944 58.3791C42.5147 56.9888 44.7201 56.1521 46.6739 55.6794C48.4966 55.2384 50.7585 54.9536 53.23 55.1774C53.7459 54.901 54.2678 54.6382 54.7959 54.3906L54.8068 54.386L54.8456 54.3676C57.1338 53.3049 59.5025 52.4975 61.9169 51.9133C64.7646 51.2244 68.0122 50.7731 71.4327 51.0077C75.9851 47.8872 81.9799 46.7168 87.4136 48.0739C92.2119 43.9148 99.2817 42.2417 105.441 43.8754C109.344 40.3778 114.616 38.5652 119.833 38.8864C119.847 38.8318 119.859 38.7767 119.873 38.7221L119.985 38.307C121.199 34.0466 124.181 30.5779 127.736 28.3879C130.937 26.4166 134.841 25.3372 138.719 25.7942Z" fill="#4147D5" stroke="#252525" stroke-width="6.86915"/>
<path d="M27.1294 112.056C26.1582 112.291 25.3478 112.21 24.6983 111.814C24.0737 111.411 23.6439 110.725 23.4089 109.753L21.9268 103.627C21.4388 101.61 22.2158 100.354 24.2579 99.8601L26.4619 99.3269L23.1107 101.166C24.2222 99.6578 24.8129 97.5774 24.8828 94.9243C24.9467 92.2463 24.5147 88.9897 23.5868 85.1545L22.7554 81.7178C22.4782 80.5722 22.5662 79.6283 23.0193 78.886C23.4913 78.1128 24.3001 77.5876 25.4456 77.3104L38.3334 74.1925C39.5039 73.9093 40.4633 74.0067 41.2116 74.4847C41.9788 74.9318 42.501 75.7281 42.7782 76.8737L47.6042 96.8218L44.5048 94.9618L47.6801 94.1936C48.6763 93.9526 49.4991 94.0303 50.1486 94.4268C50.7921 94.7984 51.2343 95.4822 51.4753 96.4784L52.9575 102.605C53.4455 104.622 52.7058 105.869 50.7384 106.345C49.7671 106.579 48.9567 106.499 48.3072 106.102C47.6826 105.7 47.2528 105.013 47.0179 104.042L46.087 100.194L28.4177 104.469L29.3485 108.316C29.8365 110.334 29.0968 111.58 27.1294 112.056ZM30.6458 98.3147L40.1342 96.0192L36.3294 80.2923L29.4933 81.9462L30.0807 84.3743C30.8218 87.4375 31.2333 90.1191 31.3152 92.4191C31.3911 94.6942 31.168 96.6594 30.6458 98.3147ZM56.8977 97.9345C55.8019 98.1996 54.8829 98.1056 54.1406 97.6525C53.3922 97.1745 52.8825 96.3752 52.6114 95.2545L47.7764 75.2691C47.4992 74.1235 47.5872 73.1796 48.0403 72.4373C48.4934 71.695 49.2678 71.1913 50.3636 70.9262C51.4843 70.6551 52.4033 70.7491 53.1207 71.2082C53.863 71.6613 54.3727 72.4606 54.6499 73.6062L59.4849 93.5916C59.756 94.7123 59.6805 95.6532 59.2583 96.4144C58.8301 97.1507 58.0432 97.6574 56.8977 97.9345ZM71.8403 94.3985C70.2215 94.7902 68.6787 95.0053 67.2118 95.0438C65.7698 95.0763 64.4067 94.9448 63.1225 94.6491C62.3469 94.4941 61.7434 94.1788 61.312 93.7032C60.9055 93.2216 60.6609 92.7008 60.5781 92.1409C60.4954 91.5809 60.5771 91.0471 60.8234 90.5394C61.0696 90.0317 61.461 89.6338 61.9977 89.3458C62.5343 89.0578 63.2029 88.9883 64.0034 89.1373C64.6116 89.2538 65.2356 89.3269 65.8754 89.3567C66.5153 89.3864 67.168 89.3603 67.8336 89.2784C68.5241 89.1904 69.1931 89.0681 69.8406 88.9114C70.9862 88.6343 71.896 88.3087 72.57 87.9348C73.238 87.5359 73.6921 87.0702 73.9323 86.5376C74.1725 86.0049 74.2113 85.4024 74.0486 84.73C73.8437 83.8833 73.3943 83.333 72.7002 83.0791C72.0249 82.7943 71.0523 82.8056 69.7822 83.1128L65.8598 84.0618C64.9633 84.2787 64.2242 84.2202 63.6426 83.8864C63.0609 83.5526 62.6647 82.9499 62.4538 82.0783C62.249 81.2315 62.3289 80.5268 62.6936 79.9641C63.0584 79.4013 63.689 79.0115 64.5855 78.7946L67.7981 78.0174C69.0682 77.7101 69.9415 77.2879 70.4179 76.7509C70.8943 76.2139 71.03 75.522 70.8252 74.6753C70.6987 74.1523 70.4502 73.7247 70.0799 73.3925C69.7035 73.0354 69.1924 72.8295 68.5465 72.7749C67.8946 72.6954 67.083 72.7731 66.1117 73.0081C65.2899 73.2069 64.4643 73.4989 63.6348 73.8841C62.7993 74.2444 62.0472 74.6768 61.3784 75.1813C60.7096 75.6858 60.0737 75.9451 59.4708 75.9591C58.8619 75.9483 58.3319 75.7734 57.8808 75.4343C57.4237 75.0704 57.0915 74.6235 56.8842 74.0937C56.671 73.539 56.638 72.967 56.7854 72.3778C56.9578 71.7825 57.344 71.2541 57.9441 70.7926C58.976 69.9366 60.1312 69.209 61.4098 68.6097C62.7132 68.0044 64.112 67.521 65.6063 67.1595C67.8227 66.6232 69.7409 66.4887 71.3609 66.7558C73.0057 67.0169 74.3218 67.608 75.3091 68.529C76.2965 69.4501 76.9558 70.5955 77.2872 71.9652C77.6607 73.5092 77.5318 74.9376 76.9003 76.2503C76.2938 77.5569 75.2792 78.5932 73.8564 79.3592L73.7118 78.7615C75.5832 78.6515 77.1401 79.0393 78.3825 79.925C79.6249 80.8107 80.4569 82.1252 80.8787 83.8685C81.2462 85.3876 81.1761 86.8413 80.6684 88.2295C80.1855 89.6116 79.2161 90.8347 77.76 91.8988C76.3039 92.9628 74.3307 93.7961 71.8403 94.3985ZM88.2562 90.348C87.1604 90.6131 86.2414 90.5191 85.4991 90.066C84.7508 89.588 84.2411 88.7887 83.9699 87.668L79.1349 67.6826C78.8578 66.537 78.9457 65.5931 79.3988 64.8508C79.8519 64.1085 80.6264 63.6048 81.7221 63.3397C82.8428 63.0685 83.7618 63.1625 84.4792 63.6217C85.2215 64.0748 85.7312 64.8741 86.0084 66.0197L87.6984 73.0052L98.569 70.3753L96.879 63.3898C96.6018 62.2442 96.6773 61.3033 97.1055 60.567C97.5586 59.8247 98.3455 59.318 99.4662 59.0469C100.562 58.7818 101.469 58.8788 102.186 59.3379C102.928 59.791 103.438 60.5903 103.715 61.7359L108.55 81.7213C108.821 82.842 108.733 83.786 108.286 84.5532C107.858 85.2894 107.096 85.7901 106 86.0552C104.88 86.3263 103.948 86.2353 103.206 85.7822C102.482 85.2982 101.985 84.4959 101.714 83.3752L99.9336 76.0161L89.063 78.646L90.8434 86.0051C91.1145 87.1258 91.039 88.0667 90.6169 88.8279C90.1887 89.5641 89.4018 90.0708 88.2562 90.348ZM113.551 84.2284C112.779 84.4152 112.089 84.3975 111.482 84.1754C110.869 83.9284 110.424 83.5086 110.149 82.9161C109.868 82.2988 109.806 81.5494 109.961 80.6682L114.419 58.3951C114.632 57.3154 115.008 56.4731 115.547 55.8681C116.111 55.2572 116.817 54.8493 117.663 54.6444C118.51 54.4396 119.299 54.486 120.03 54.7836C120.786 55.0753 121.518 55.6495 122.226 56.5062L136.372 74.2787C136.963 74.9792 137.275 75.6683 137.307 76.3459C137.364 77.0175 137.173 77.5909 136.735 78.0661C136.321 78.5352 135.741 78.8602 134.993 79.0409C133.997 79.2819 133.171 79.2446 132.515 78.9289C131.883 78.6071 131.235 77.9994 130.571 77.1056L127.406 72.8495L130.482 74.122L115.091 77.8454L117.283 75.2986L116.413 80.5308C116.206 81.6354 115.92 82.4691 115.555 83.0319C115.19 83.5946 114.522 83.9935 113.551 84.2284ZM119.405 62.1711L117.575 73.567L116.096 72.027L126.966 69.3971L126.354 71.4432L119.48 62.153L119.405 62.1711ZM141.93 77.3627C141.482 77.4712 141.053 77.4959 140.643 77.4368C140.234 77.3778 139.859 77.2444 139.518 77.0368C139.197 76.7982 138.91 76.4852 138.659 76.098C138.432 75.7048 138.252 75.2342 138.119 74.6863L133.185 54.29C132.932 53.244 133.013 52.3808 133.428 51.7004C133.844 51.02 134.574 50.5532 135.62 50.3002C136.666 50.0471 137.517 50.1313 138.173 50.5527C138.853 50.968 139.32 51.6986 139.573 52.7446L142.844 66.2674L141.798 66.5205L150.061 48.8627C150.441 48.0328 150.831 47.4112 151.231 46.9979C151.657 46.5786 152.293 46.2665 153.14 46.0616C153.713 45.923 154.229 45.9301 154.687 46.0827C155.171 46.2293 155.582 46.5121 155.921 46.9311C156.253 47.3251 156.495 47.8334 156.646 48.456L161.652 69.1512C161.911 70.2221 161.833 71.0977 161.418 71.7782C161.028 72.4526 160.309 72.9163 159.263 73.1694C158.217 73.4224 157.354 73.3413 156.674 72.9259C156.018 72.5046 155.561 71.7584 155.302 70.6876L152.03 57.1647L153.039 56.9207L144.822 74.6069C144.437 75.4118 144.047 76.0334 143.652 76.4716C143.276 76.8789 142.702 77.176 141.93 77.3627ZM143.759 46.5122C141.767 46.9942 140.058 47.0123 138.632 46.5664C137.225 46.0896 136.115 45.3168 135.303 44.2479C134.909 43.7105 134.776 43.2154 134.904 42.7627C135.026 42.2851 135.317 41.9114 135.779 41.6415C136.26 41.3406 136.69 41.2631 137.068 41.4089C137.464 41.5238 137.913 41.7975 138.413 42.2301C139.012 42.7443 139.674 43.0849 140.4 43.252C141.145 43.3882 141.99 43.3418 142.937 43.1128C143.883 42.8839 144.656 42.5387 145.256 42.0771C145.85 41.5907 146.284 40.985 146.557 40.26C146.804 39.6466 147.065 39.2012 147.34 38.9236C147.635 38.6151 148.065 38.4848 148.63 38.5326C149.164 38.5615 149.579 38.7511 149.875 39.1014C150.195 39.4456 150.303 39.9467 150.199 40.6046C149.965 41.9265 149.319 43.1241 148.26 44.1974C147.227 45.2646 145.726 46.0363 143.759 46.5122ZM175.021 69.3572C173.925 69.6223 173.006 69.5283 172.263 69.0752C171.515 68.5972 171.008 67.8104 170.743 66.7146L166.487 49.12L160.622 50.5388C159.7 50.7618 158.933 50.6969 158.321 50.3442C157.727 49.9606 157.322 49.3205 157.105 48.424C156.882 47.5025 156.95 46.748 157.309 46.1603C157.692 45.5667 158.345 45.1584 159.266 44.9354L177.869 40.4348C178.791 40.2119 179.545 40.2798 180.133 40.6385C180.746 40.9911 181.163 41.6282 181.386 42.5496C181.603 43.4462 181.523 44.2037 181.145 44.8223C180.787 45.41 180.147 45.8153 179.225 46.0382L173.36 47.4571L177.617 65.0517C177.882 66.1475 177.803 67.0759 177.381 67.8371C176.953 68.5734 176.166 69.0801 175.021 69.3572ZM191.06 65.1209C189.89 65.4041 188.921 65.3221 188.154 64.875C187.405 64.397 186.893 63.5853 186.616 62.4397L181.961 43.2014C181.684 42.0558 181.772 41.1119 182.225 40.3696C182.697 39.5963 183.518 39.0681 184.689 38.785L197.353 35.7213C198.249 35.5044 198.976 35.5658 199.532 35.9057C200.089 36.2455 200.47 36.8388 200.675 37.6855C200.886 38.5571 200.824 39.2838 200.49 39.8654C200.151 40.4221 199.532 40.8089 198.636 41.0258L188.961 43.3665L190.172 48.3722L199.025 46.2303C199.897 46.0195 200.611 46.0839 201.168 46.4237C201.749 46.7575 202.146 47.3603 202.356 48.2319C202.567 49.1035 202.49 49.8207 202.126 50.3835C201.786 50.9402 201.18 51.324 200.308 51.5349L191.455 53.6767L192.765 59.0934L202.441 56.7527C203.337 56.5358 204.067 56.6097 204.63 56.9744C205.186 57.3142 205.567 57.9075 205.772 58.7542C205.983 59.6259 205.918 60.34 205.579 60.8968C205.239 61.4535 204.621 61.8403 203.724 62.0572L191.06 65.1209ZM222.024 58.065C219.11 58.7699 216.471 58.815 214.108 58.2005C211.745 57.5859 209.756 56.3931 208.142 54.6221C206.552 52.8451 205.426 50.5868 204.763 47.8474C204.269 45.8053 204.131 43.8746 204.35 42.0554C204.594 40.2302 205.169 38.5753 206.075 37.0907C207.006 35.6001 208.256 34.3357 209.823 33.2973C211.41 32.2281 213.287 31.4314 215.453 30.9072C216.599 30.6301 217.815 30.4808 219.102 30.4596C220.407 30.4074 221.596 30.5283 222.669 30.8223C223.457 31.0272 224.057 31.3829 224.469 31.8894C224.882 32.3959 225.111 32.96 225.156 33.5818C225.226 34.1976 225.143 34.7843 224.909 35.3418C224.675 35.8993 224.305 36.3315 223.799 36.6384C223.288 36.9203 222.669 36.9778 221.943 36.8107C221.112 36.6428 220.301 36.562 219.512 36.5685C218.741 36.5439 217.958 36.6281 217.161 36.8209C215.617 37.1944 214.394 37.8066 213.493 38.6573C212.61 39.4771 212.043 40.5107 211.791 41.7579C211.539 43.0051 211.612 44.4505 212.01 46.0941C212.408 47.7378 213.006 49.0692 213.807 50.0882C214.601 51.0824 215.581 51.7548 216.746 52.1055C217.931 52.4252 219.295 52.3983 220.839 52.0247C221.487 51.8681 222.166 51.6247 222.877 51.2945C223.582 50.9394 224.253 50.5002 224.891 49.9768C225.56 49.4723 226.199 49.2255 226.808 49.2364C227.441 49.2412 227.987 49.4256 228.444 49.7895C228.926 50.1474 229.289 50.6131 229.533 51.1867C229.772 51.7354 229.823 52.3293 229.688 52.9683C229.577 53.6014 229.24 54.1706 228.677 54.6759C227.932 55.4097 226.948 56.0827 225.725 56.6949C224.528 57.301 223.294 57.7577 222.024 58.065ZM236.063 54.2336C234.892 54.5168 233.923 54.4348 233.156 53.9877C232.408 53.5097 231.895 52.6979 231.618 51.5524L226.873 31.9405C226.596 30.7949 226.684 29.851 227.137 29.1087C227.59 28.3664 228.365 27.8627 229.46 27.5976C230.581 27.3265 231.5 27.4205 232.217 27.8796C232.96 28.3327 233.469 29.132 233.747 30.2776L235.455 37.3379L241.656 35.8377C243.573 35.3737 245.292 35.2874 246.813 35.5786C248.358 35.8638 249.649 36.5137 250.685 37.5284C251.721 38.543 252.447 39.9095 252.863 41.6279C253.49 44.2179 253.137 46.4121 251.806 48.2104C250.5 50.0026 248.415 51.2452 245.551 51.9381L236.063 54.2336ZM238.094 48.2458L243.361 46.9715C244.631 46.6643 245.495 46.2047 245.953 45.593C246.437 44.9752 246.561 44.1807 246.326 43.2095C246.091 42.2382 245.62 41.6007 244.914 41.2971C244.227 40.9625 243.248 40.9488 241.978 41.2561L236.711 42.5304L238.094 48.2458ZM69.6563 133.944C68.5605 134.209 67.6415 134.115 66.8992 133.662C66.1509 133.184 65.6412 132.385 65.37 131.264L60.6254 111.652C60.3482 110.507 60.4362 109.563 60.8893 108.82C61.3613 108.047 62.1825 107.519 63.353 107.236L80.4994 103.088C81.6698 102.804 82.6292 102.902 83.3776 103.38C84.1448 103.827 84.6669 104.623 84.9441 105.769L89.6887 125.381C89.9599 126.501 89.8719 127.445 89.4248 128.212C88.9966 128.949 88.2222 129.452 87.1015 129.724C86.0057 129.989 85.0867 129.895 84.3444 129.442C83.5961 128.964 83.0864 128.164 82.8153 127.044L78.5677 109.486L67.9959 112.044L72.2435 129.601C72.5147 130.722 72.4391 131.663 72.017 132.424C71.5888 133.16 70.8019 133.667 69.6563 133.944ZM96.8999 127.353C95.8041 127.618 94.885 127.524 94.1428 127.071C93.3944 126.593 92.8877 125.806 92.6226 124.71L87.8509 104.987C87.5797 103.866 87.6707 102.934 88.1238 102.192C88.6018 101.444 89.3887 100.937 90.4845 100.672L99.674 98.4487C102.662 97.7257 105.153 97.9404 107.145 99.0929C109.156 100.214 110.487 102.12 111.138 104.81C111.789 107.499 111.479 109.815 110.209 111.757C108.958 113.667 106.838 114.984 103.849 115.707L98.0592 117.108L99.4961 123.048C99.7612 124.143 99.6827 125.072 99.2605 125.833C98.8323 126.569 98.0454 127.076 96.8999 127.353ZM96.7849 111.841L101.38 110.729C102.675 110.416 103.605 109.901 104.169 109.184C104.728 108.443 104.872 107.512 104.601 106.391C104.324 105.246 103.77 104.483 102.94 104.104C102.11 103.725 101.048 103.692 99.7529 104.005L95.1581 105.117L96.7849 111.841ZM129.194 119.619C126.529 120.264 124.053 120.27 121.764 119.637C119.47 118.98 117.516 117.765 115.901 115.994C114.311 114.217 113.188 111.972 112.531 109.257C112.037 107.215 111.899 105.284 112.118 103.465C112.362 101.64 112.925 99.9881 113.806 98.5095C114.712 97.0249 115.912 95.7725 117.405 94.7523C118.892 93.7071 120.631 92.9436 122.624 92.4616C125.289 91.8169 127.753 91.8139 130.016 92.4526C132.304 93.0852 134.256 94.2871 135.871 96.0581C137.479 97.8041 138.615 100.047 139.278 102.786C139.772 104.828 139.897 106.762 139.653 108.587C139.434 110.407 138.875 112.071 137.974 113.58C137.093 115.059 135.909 116.321 134.422 117.366C132.929 118.386 131.186 119.137 129.194 119.619ZM127.802 113.866C129.122 113.547 130.168 112.965 130.938 112.119C131.709 111.274 132.202 110.205 132.417 108.914C132.632 107.623 132.54 106.156 132.143 104.512C131.546 102.047 130.535 100.262 129.107 99.1573C127.68 98.0527 125.983 97.7384 124.016 98.2144C122.721 98.5277 121.675 99.1101 120.879 99.9616C120.103 100.782 119.607 101.838 119.392 103.129C119.171 104.395 119.262 105.862 119.666 107.531C120.262 109.996 121.277 111.794 122.71 112.924C124.138 114.028 125.835 114.342 127.802 113.866ZM156.998 112.814C155.902 113.079 154.983 112.985 154.241 112.532C153.492 112.054 152.982 111.254 152.711 110.134L147.876 90.1483C147.599 89.0027 147.687 88.0588 148.14 87.3165C148.593 86.5742 149.368 86.0705 150.464 85.8054C151.584 85.5343 152.503 85.6283 153.221 86.0874C153.963 86.5405 154.473 87.3398 154.75 88.4854L156.44 95.471L167.31 92.8411L165.62 85.8555C165.343 84.7099 165.419 83.769 165.847 83.0328C166.3 82.2905 167.087 81.7837 168.208 81.5126C169.303 81.2475 170.21 81.3445 170.927 81.8037C171.67 82.2568 172.179 83.0561 172.457 84.2017L177.292 104.187C177.563 105.308 177.475 106.252 177.028 107.019C176.599 107.755 175.837 108.256 174.742 108.521C173.621 108.792 172.69 108.701 171.947 108.248C171.224 107.764 170.727 106.962 170.455 105.841L168.675 98.4818L157.804 101.112L159.585 108.471C159.856 109.592 159.78 110.532 159.358 111.294C158.93 112.03 158.143 112.537 156.998 112.814ZM182.293 106.694C181.521 106.881 180.831 106.863 180.224 106.641C179.61 106.394 179.166 105.974 178.891 105.382C178.61 104.765 178.547 104.015 178.703 103.134L183.16 80.8608C183.374 79.7811 183.75 78.9388 184.289 78.3339C184.853 77.7229 185.558 77.315 186.405 77.1102C187.252 76.9053 188.041 76.9517 188.772 77.2494C189.528 77.541 190.26 78.1152 190.968 78.972L205.113 96.7444C205.705 97.445 206.016 98.134 206.049 98.8117C206.106 99.4833 205.915 100.057 205.476 100.532C205.062 101.001 204.482 101.326 203.735 101.507C202.739 101.748 201.912 101.71 201.256 101.395C200.625 101.073 199.977 100.465 199.312 99.5714L196.147 95.3152L199.223 96.5877L183.833 100.311L186.024 97.7644L185.155 102.997C184.947 104.101 184.661 104.935 184.297 105.498C183.932 106.06 183.264 106.459 182.293 106.694ZM188.147 84.6368L186.317 96.0327L184.837 94.4927L195.708 91.8628L195.095 93.9089L188.221 84.6187L188.147 84.6368ZM220.197 97.603C217.284 98.3079 214.645 98.3531 212.282 97.7385C209.919 97.1239 207.93 95.9312 206.315 94.1602C204.726 92.3831 203.599 90.1249 202.937 87.3855C202.443 85.3433 202.305 83.4127 202.524 81.5935C202.768 79.7683 203.343 78.1134 204.249 76.6288C205.18 75.1382 206.43 73.8737 207.997 72.8354C209.584 71.7662 211.461 70.9694 213.627 70.4453C214.773 70.1681 215.989 70.0189 217.275 69.9976C218.581 69.9454 219.77 70.0663 220.843 70.3604C221.631 70.5652 222.231 70.9209 222.643 71.4274C223.056 71.9339 223.284 72.4981 223.329 73.1199C223.399 73.7357 223.317 74.3223 223.083 74.8798C222.849 75.4374 222.479 75.8696 221.973 76.1764C221.461 76.4584 220.843 76.5158 220.117 76.3487C219.285 76.1808 218.475 76.1001 217.686 76.1065C216.915 76.082 216.132 76.1662 215.335 76.359C213.791 76.7325 212.568 77.3446 211.667 78.1954C210.784 79.0152 210.217 80.0487 209.965 81.2959C209.713 82.5431 209.786 83.9885 210.184 85.6322C210.581 87.2759 211.18 88.6072 211.98 89.6263C212.774 90.6204 213.754 91.2928 214.92 91.6435C216.105 91.9633 217.469 91.9364 219.013 91.5628C219.66 91.4062 220.34 91.1628 221.051 90.8326C221.756 90.4775 222.427 90.0383 223.065 89.5149C223.734 89.0104 224.372 88.7636 224.981 88.7744C225.615 88.7792 226.161 88.9636 226.618 89.3275C227.1 89.6854 227.463 90.1512 227.707 90.7248C227.945 91.2735 227.997 91.8673 227.861 92.5064C227.751 93.1394 227.414 93.7086 226.851 94.2139C226.106 94.9478 225.122 95.6208 223.899 96.2329C222.701 96.839 221.467 97.2957 220.197 97.603Z" fill="white"/>
</svg>
