<svg width="201" height="119" viewBox="0 0 201 119" fill="none" xmlns="http://www.w3.org/2000/svg">
<path d="M175.162 45.8541C177.093 46.2297 179.452 47.0991 181.539 48.0603C183.479 48.9536 185.577 50.1059 187.124 51.3358L187.426 51.5833L187.436 51.5916C187.459 51.6116 187.485 51.6348 187.513 51.6597C191.041 54.661 193.574 58.4747 194.99 62.8618L195.224 63.6086C199.918 79.2794 191.493 94.4207 175.401 97.403L175.395 97.4033L175.341 97.414L175.304 97.4201L175.25 97.4296L175.236 97.4324C171.814 98.0201 168.421 97.8909 165.167 97.2583C161.344 96.5151 157.52 94.9869 154.226 92.5862L152.52 92.8212C152.494 92.8247 152.472 92.8277 152.458 92.8294C152.451 92.8303 152.445 92.8314 152.441 92.8319C152.437 92.8323 152.434 92.832 152.433 92.8322C144.646 93.8542 134.435 92.2242 127.665 86.7678L127.649 86.7551L127.62 86.731L127.609 86.7211C123.931 83.7231 121.212 79.8264 119.755 75.2074C119.592 74.6907 119.447 74.173 119.32 73.6549C119.066 74.4345 118.777 75.2645 118.496 75.9291C118.366 76.2371 118.141 76.7455 117.834 77.215C117.752 77.3396 117.478 77.7586 117 78.1819C112.695 83.5234 106.1 84.9949 100.205 84.577C94.0766 84.1424 87.8151 81.6568 83.5069 78.1455C83.2832 77.9631 83.0646 77.776 82.8484 77.5871C78.8815 79.7206 74.8232 79.6161 72.0407 79.0752C69.7957 78.6387 67.166 77.6761 64.8087 75.7917C62.0803 76.4934 59.5579 76.3062 57.7576 75.9562L45.3553 73.5435L45.356 73.5447C44.0516 73.2911 42.591 72.8613 41.1139 72.1609C39.0971 72.4326 37.1979 72.3005 35.5725 71.9844C32.2793 71.3441 29.1017 69.694 26.7137 67.1653C26.6639 67.1885 26.6027 67.215 26.5329 67.2438C23.1565 68.7704 18.9244 69.3115 14.6357 67.7078L14.6354 67.7088C14.6325 67.7077 14.6294 67.7058 14.6265 67.7047C14.6185 67.7018 14.6103 67.6996 14.6024 67.6967L14.6027 67.6957C10.3904 66.1391 7.61429 63.0975 6.01153 60.0393L6.00845 60.0331L5.93731 59.8981L5.90559 59.836L5.87511 59.7732L5.8083 59.6345L5.80522 59.6283C4.18171 56.2352 3.37247 51.5285 5.49156 46.7073C6.98716 43.3048 9.42683 40.9573 11.9182 39.4323C11.9913 39.2429 12.0694 39.0067 12.1704 38.6857C12.3432 38.1362 12.5223 37.4691 12.698 36.6708L12.8722 35.828L13.74 31.3647C14.5697 27.0978 16.9495 23.1835 20.8072 20.6801L20.8285 20.6656L20.8504 20.6524C25.0218 18.0173 29.4449 17.939 32.7059 18.5729L45.3279 21.0273C46.825 21.3184 48.4779 21.8352 50.1109 22.6933C51.9709 22.5091 53.7079 22.6568 55.1924 22.9453L55.1933 22.9456L67.5959 25.3575L67.6299 25.3637L67.6644 25.3711C68.4656 25.5407 69.3088 25.7626 70.167 26.0724C71.1229 26.105 72.0191 26.2169 72.8319 26.375L91.0515 29.9175C92.6622 30.2307 94.6443 30.8579 96.5873 32.0694C99.8231 31.6459 103.027 31.8282 106.106 32.4268C107.775 32.7512 109.385 33.2296 110.931 33.8288C114.343 32.0576 118.2 31.7791 121.613 32.4427L121.646 32.4487L121.68 32.4558L122.118 32.5491L122.15 32.5556L122.182 32.5631C124.853 33.1704 128.452 34.6263 131.196 38.0501L131.458 38.3883L131.477 38.4121L131.495 38.4378L131.698 38.7138L131.738 38.7673L131.775 38.823L131.974 39.1132L131.994 39.1414L132.012 39.1692C132.785 40.336 133.343 41.5234 133.733 42.695C135.854 41.7551 138.071 41.1376 140.327 40.8079L140.407 40.7957C143.945 40.2739 147.459 40.4676 150.83 41.1231C152.88 41.5217 154.869 42.1212 156.79 42.8931L164.227 45.8816C164.457 45.8339 164.688 45.7893 164.92 45.7479L164.92 45.747C164.926 45.746 164.931 45.7452 164.936 45.7443C164.93 45.7455 164.927 45.7456 164.933 45.7443C164.938 45.7434 164.958 45.7398 164.981 45.7354C165.005 45.7306 165.042 45.7236 165.086 45.7161L165.086 45.717C168.509 45.1057 171.904 45.2208 175.162 45.8541ZM140.219 40.8263C140.212 40.8274 140.206 40.8278 140.201 40.8287C140.211 40.8269 140.225 40.8255 140.241 40.8226L140.219 40.8263Z" fill="#A009BE" stroke="black" stroke-width="8.4238"/>
<path d="M41.9599 61.1628C40.8867 60.9541 40.1143 60.5002 39.6428 59.801C39.176 59.0774 39.0493 58.1669 39.2627 57.0693L42.606 39.8743L35.8743 38.5654L35.0563 42.7727C34.6911 44.6507 34.2081 46.354 33.6071 47.8824C33.0062 49.4109 32.2972 50.7791 31.4802 51.9871C30.6631 53.1951 29.738 54.2429 28.7048 55.1304C27.6716 56.0179 26.5571 56.7378 25.3613 57.29C24.5253 57.6843 23.7313 57.7324 22.9793 57.4343C22.2225 57.1606 21.6225 56.601 21.1795 55.7555C20.7655 54.8903 20.7174 54.0963 21.0351 53.3734C21.3529 52.6505 21.9345 52.0675 22.78 51.6244C23.6255 51.1813 24.3681 50.6169 25.0076 49.9313C25.6763 49.226 26.2688 48.392 26.785 47.4293C27.3304 46.4469 27.8019 45.3236 28.1996 44.0593C28.5973 42.7951 28.9479 41.3825 29.2514 39.8216L30.1192 35.3582C30.3374 34.2362 30.796 33.4395 31.4952 32.9679C32.2235 32.4767 33.1487 32.3402 34.2706 32.5583L46.8925 35.0125C48.0144 35.2306 48.821 35.7039 49.3122 36.4322C49.8081 37.1361 49.947 38.049 49.7289 39.171L45.9944 58.3782C45.781 59.4757 45.3223 60.2725 44.6184 60.7684C43.9192 61.24 43.033 61.3714 41.9599 61.1628ZM51.7427 62.7232C50.5963 62.5003 49.7752 62.0369 49.2793 61.333C48.8125 60.6094 48.6881 59.6866 48.9063 58.5647L52.5697 39.7233C52.7878 38.6014 53.2465 37.8046 53.9457 37.3331C54.674 36.8419 55.6113 36.7077 56.7576 36.9306L69.16 39.3421C70.0381 39.5128 70.6539 39.8603 71.0076 40.3847C71.3612 40.9091 71.4574 41.5859 71.2962 42.4152C71.1302 43.2688 70.7827 43.8847 70.2536 44.2627C69.7292 44.6164 69.028 44.7079 68.1499 44.5372L58.6743 42.6948L57.7211 47.5972L66.3918 49.2831C67.2455 49.4491 67.8491 49.7942 68.2028 50.3186C68.5809 50.8477 68.6869 51.5391 68.5209 52.3928C68.3549 53.2464 67.9976 53.8477 67.4488 54.1966C66.9244 54.5503 66.2354 54.6441 65.3817 54.4782L56.711 52.7923L55.6796 58.0971L65.1552 59.9395C66.0332 60.1102 66.6467 60.47 66.9956 61.0188C67.3493 61.5431 67.4455 62.22 67.2842 63.0492C67.1183 63.9029 66.7731 64.5065 66.2487 64.8602C65.7243 65.2139 65.0231 65.3053 64.1451 65.1346L51.7427 62.7232ZM78.4276 68.2533C77.3544 68.0447 76.5821 67.5908 76.1105 66.8916C75.6437 66.168 75.5146 65.2697 75.7233 64.1965L79.0737 46.9649L73.3298 45.8481C72.4274 45.6726 71.7773 45.3057 71.3796 44.7475C71.0111 44.1696 70.9121 43.4416 71.0829 42.5635C71.2583 41.6611 71.6228 41.0232 72.1763 40.6499C72.7542 40.2814 73.4944 40.1848 74.3968 40.3603L92.6163 43.9028C93.5187 44.0782 94.1566 44.4427 94.5299 44.9962C94.9276 45.5545 95.0387 46.2848 94.8632 47.1873C94.6925 48.0653 94.3158 48.7008 93.7332 49.0938C93.1797 49.4671 92.4517 49.566 91.5493 49.3905L85.8054 48.2737L82.455 65.5054C82.2463 66.5785 81.8022 67.3654 81.1227 67.8661C80.4479 68.3424 79.5495 68.4715 78.4276 68.2533ZM102.499 73.0096C99.6456 72.4548 97.3011 71.4294 95.4657 69.9335C93.6304 68.4376 92.3583 66.583 91.6497 64.3696C90.9654 62.1609 90.884 59.7151 91.4057 57.0322C91.7946 55.0322 92.4527 53.2744 93.3802 51.7589C94.3321 50.248 95.5072 49.021 96.9056 48.078C98.3283 47.1396 99.9404 46.5292 101.742 46.2466C103.573 45.9444 105.549 45.9996 107.671 46.4122C108.793 46.6304 109.925 46.9898 111.068 47.4904C112.24 47.9714 113.24 48.5581 114.067 49.2505C114.679 49.7492 115.064 50.3051 115.224 50.9182C115.383 51.5313 115.357 52.1211 115.145 52.6875C114.958 53.2586 114.649 53.7427 114.218 54.1397C113.786 54.5368 113.285 54.7685 112.715 54.8349C112.15 54.8769 111.582 54.6777 111.009 54.2373C110.344 53.7536 109.662 53.3552 108.963 53.0422C108.294 52.7096 107.569 52.4674 106.789 52.3156C105.276 52.0216 103.951 52.0677 102.813 52.4539C101.704 52.8204 100.787 53.5027 100.061 54.5006C99.3355 55.4986 98.8162 56.8025 98.5032 58.4122C98.1902 60.022 98.1808 61.4376 98.4748 62.6591C98.7736 63.8563 99.3661 64.8448 100.252 65.6246C101.168 66.3847 102.381 66.9118 103.894 67.2058C104.528 67.3291 105.225 67.3887 105.985 67.3846C106.75 67.3562 107.519 67.24 108.293 67.0361C109.086 66.8612 109.749 66.9016 110.282 67.157C110.839 67.4171 111.245 67.7999 111.501 68.3053C111.782 68.8155 111.914 69.3727 111.898 69.9771C111.886 70.557 111.692 71.1014 111.314 71.6102C110.961 72.1237 110.435 72.4896 109.734 72.7077C108.781 73.054 107.642 73.2501 106.316 73.2962C105.016 73.347 103.743 73.2515 102.499 73.0096ZM123.177 54.6288C122.818 54.9134 122.438 55.0421 122.039 55.015C121.639 54.9879 121.309 54.8605 121.05 54.6329C120.79 54.4053 120.657 54.1136 120.651 53.7579C120.649 53.3778 120.849 52.9991 121.251 52.6217C121.508 52.3426 121.735 52.0198 121.933 51.6532C122.131 51.2867 122.258 50.9571 122.315 50.6644L122.219 51.7467C121.145 51.5381 120.371 51.1597 119.895 50.6116C119.449 50.0438 119.311 49.321 119.482 48.4429C119.648 47.5893 120.042 46.9951 120.664 46.6604C121.29 46.3013 122.128 46.2237 123.177 46.4276C124.226 46.6316 124.969 47.0418 125.406 47.6583C125.843 48.2748 125.964 49.0831 125.769 50.0831C125.66 50.6441 125.488 51.2054 125.252 51.767C125.016 52.3287 124.724 52.8541 124.376 53.3432C124.052 53.8371 123.653 54.2657 123.177 54.6288ZM143.267 80.9362C140.315 80.3624 137.91 79.3252 136.05 77.8245C134.215 76.3286 132.953 74.4885 132.264 72.3043C131.574 70.12 131.486 67.7108 131.998 65.0767C132.397 63.0279 133.072 61.2481 134.024 59.7373C135.005 58.2068 136.219 56.9747 137.666 56.0411C139.118 55.0831 140.781 54.47 142.656 54.2016C144.559 53.9137 146.633 53.9879 148.877 54.4241C150.097 54.6613 151.317 55.0251 152.538 55.5156C153.763 55.9817 154.924 56.6504 156.02 57.5216C156.598 57.9376 156.944 58.4352 157.059 59.0145C157.203 59.5741 157.17 60.1371 156.958 60.7035C156.776 61.2502 156.467 61.7343 156.031 62.1557C155.623 62.5575 155.123 62.7892 154.529 62.8509C153.939 62.8881 153.322 62.6795 152.676 62.2249C152.011 61.7411 151.268 61.3309 150.447 60.9942C149.632 60.6331 148.748 60.3601 147.797 60.1751C146.163 59.8574 144.74 59.8845 143.529 60.2565C142.342 60.6332 141.368 61.3425 140.609 62.3845C139.849 63.4265 139.308 64.7768 138.986 66.4353C138.502 68.9231 138.747 70.9197 139.72 72.4251C140.693 73.9305 142.374 74.9156 144.765 75.3803C145.496 75.5226 146.303 75.6036 147.185 75.6232C148.092 75.6476 149.01 75.611 149.94 75.5134L148.206 77.7959L149.422 71.5399L146.861 71.0419C146.032 70.8807 145.426 70.5477 145.043 70.043C144.685 69.543 144.579 68.9149 144.726 68.1588C144.873 67.4028 145.204 66.8723 145.719 66.5674C146.263 66.2429 146.949 66.1612 147.779 66.3224L153.193 67.3752C154.047 67.5412 154.648 67.8986 154.997 68.4474C155.375 68.9765 155.481 69.6679 155.315 70.5215L153.743 78.6069C153.601 79.3386 153.321 79.9297 152.905 80.3802C152.512 80.8355 151.966 81.1089 151.265 81.2004C150.042 81.3677 148.739 81.4307 147.355 81.3894C145.971 81.3481 144.608 81.197 143.267 80.9362ZM168.037 85.7525C165.428 85.2451 163.242 84.2505 161.479 82.7688C159.722 81.2628 158.489 79.403 157.78 77.1896C157.096 74.981 157.012 72.5474 157.529 69.8889C157.918 67.8889 158.576 66.1311 159.504 64.6155C160.456 63.1047 161.618 61.8754 162.992 60.9275C164.391 59.9844 165.954 59.3645 167.682 59.0677C169.415 58.7466 171.258 58.7757 173.209 59.1551C175.819 59.6625 177.992 60.6547 179.73 62.1316C181.492 63.6133 182.728 65.4608 183.436 67.6742C184.15 69.8632 184.246 72.2992 183.724 74.9821C183.335 76.9821 182.665 78.7375 181.713 80.2483C180.786 81.7639 179.62 83.0055 178.217 83.9729C176.843 84.9208 175.29 85.5553 173.557 85.8764C171.828 86.1732 169.989 86.1319 168.037 85.7525ZM169.133 80.1184C170.425 80.3697 171.582 80.2782 172.603 79.844C173.624 79.4097 174.49 78.6668 175.201 77.6153C175.912 76.5638 176.423 75.2332 176.736 73.6234C177.206 71.2088 177.034 69.2264 176.222 67.6763C175.41 66.1262 174.04 65.1638 172.113 64.7892C170.845 64.5426 169.688 64.6341 168.643 65.0636C167.627 65.4735 166.763 66.2042 166.052 67.2557C165.346 68.2828 164.835 69.6134 164.517 71.2476C164.047 73.6622 164.216 75.6567 165.024 77.2312C165.836 78.7814 167.206 79.7437 169.133 80.1184Z" fill="white"/>
</svg>
