<svg width="342" height="293" viewBox="0 0 342 293" fill="none" xmlns="http://www.w3.org/2000/svg">
<g clip-path="url(#clip0_943_12276)">
<path d="M276.364 29.303L231.27 59.601L232.632 68.2323L260.019 88.2184L215.217 117.448L216.58 126.079L304.535 93.8447L303.173 85.2135L271.959 70.0718L300.402 46.8449L299.039 38.2136L276.364 29.303Z" fill="#E1BA00"/>
<path d="M275.002 20.6717L231.27 59.601L258.656 79.5872L215.217 117.448L303.173 85.2135L270.597 61.4406L299.039 38.2136L275.002 20.6717Z" fill="#FFD800"/>
</g>
<g clip-path="url(#clip1_943_12276)">
<path d="M200.687 3.87284L189.034 35.8392L192.906 39.7058L214.14 39.7229L202.241 71.0404L206.114 74.907L238.748 26.1542L234.875 22.2876L213.492 26.1339L219.323 3.88783L215.45 0.0212287L200.687 3.87284Z" fill="#E1BA00"/>
<path d="M196.814 0.00623596L189.034 35.8392L210.267 35.8563L202.241 71.0404L234.875 22.2876L209.619 22.2673L215.45 0.0212287L196.814 0.00623596Z" fill="#FFD800"/>
</g>
<g clip-path="url(#clip2_943_12276)">
<path d="M218.374 213.023C218.374 247.441 246.05 275.335 280.187 275.335C314.325 275.335 342 247.441 342 213.023C342 178.611 314.325 150.717 280.187 150.717C246.05 150.717 218.374 178.611 218.374 213.023Z" fill="#FFD800"/>
<path d="M280.266 260.006C290.983 260.006 301.026 255.777 308.556 248.093C309.39 247.248 309.38 245.879 308.54 245.044C307.701 244.209 306.349 244.214 305.515 245.06C298.791 251.919 289.828 255.696 280.266 255.696H280.159C270.56 255.669 261.575 251.838 254.862 244.915C254.039 244.063 252.687 244.047 251.842 244.877C250.998 245.707 250.982 247.075 251.805 247.926C259.325 255.685 269.389 259.974 280.149 260.006H280.266Z" fill="#231F20"/>
<path d="M315.57 174.074C315.96 174.074 316.351 173.966 316.703 173.745C317.703 173.115 318.007 171.784 317.382 170.777C314.79 166.596 310.728 163.702 305.949 162.641C301.177 161.574 296.286 162.468 292.187 165.157C291.198 165.804 290.914 167.14 291.556 168.136C292.203 169.133 293.523 169.419 294.517 168.767C297.649 166.714 301.38 166.035 305.03 166.849C308.675 167.662 311.775 169.866 313.758 173.061C314.159 173.713 314.859 174.074 315.57 174.074Z" fill="#231F20"/>
<path d="M244.835 174.441C245.572 174.441 246.289 174.053 246.684 173.363C248.555 170.103 251.58 167.792 255.199 166.854C258.817 165.911 262.569 166.466 265.771 168.411C266.781 169.026 268.096 168.697 268.705 167.679C269.314 166.655 268.988 165.33 267.973 164.715C263.782 162.172 258.865 161.45 254.13 162.679C249.394 163.907 245.434 166.935 242.986 171.202C242.392 172.237 242.745 173.551 243.766 174.15C244.103 174.344 244.471 174.441 244.835 174.441Z" fill="#231F20"/>
<path d="M304.978 187.237C305.571 187.237 306.047 186.752 306.047 186.159V178.061C306.047 177.468 305.571 176.983 304.978 176.983C304.39 176.983 303.909 177.468 303.909 178.061V186.159C303.909 186.752 304.39 187.237 304.978 187.237Z" fill="#231F20"/>
<path d="M301.715 189.855C301.987 189.855 302.26 189.747 302.468 189.537C302.891 189.117 302.891 188.438 302.468 188.018L296.792 182.29C296.375 181.87 295.697 181.87 295.28 182.29C294.863 182.711 294.863 183.395 295.28 183.815L300.961 189.537C301.17 189.747 301.442 189.855 301.715 189.855Z" fill="#231F20"/>
<path d="M308.24 189.855C308.513 189.855 308.786 189.747 308.994 189.537L314.676 183.815C315.093 183.395 315.093 182.711 314.676 182.29C314.259 181.87 313.58 181.87 313.163 182.29L307.481 188.018C307.065 188.438 307.065 189.117 307.481 189.537C307.69 189.747 307.962 189.855 308.24 189.855Z" fill="#231F20"/>
<path d="M256.337 187.237C255.749 187.237 255.268 186.752 255.268 186.159V178.061C255.268 177.468 255.749 176.983 256.337 176.983C256.931 176.983 257.406 177.468 257.406 178.061V186.159C257.406 186.752 256.931 187.237 256.337 187.237Z" fill="#231F20"/>
<path d="M259.604 189.855C259.326 189.855 259.053 189.747 258.845 189.537C258.428 189.117 258.428 188.438 258.845 188.018L264.526 182.29C264.943 181.87 265.622 181.87 266.039 182.29C266.456 182.711 266.456 183.395 266.039 183.815L260.357 189.537C260.149 189.747 259.876 189.855 259.604 189.855Z" fill="#231F20"/>
<path d="M253.078 189.855C252.806 189.855 252.533 189.747 252.324 189.537L246.643 183.815C246.226 183.395 246.226 182.711 246.643 182.29C247.06 181.87 247.739 181.87 248.156 182.29L253.832 188.018C254.254 188.438 254.254 189.117 253.832 189.537C253.623 189.747 253.351 189.855 253.078 189.855Z" fill="#231F20"/>
<path d="M299.943 224.607C299.943 232.964 306.661 239.742 314.951 239.742C323.241 239.742 329.965 232.964 329.965 224.607C329.965 216.251 323.241 209.478 314.951 209.478C306.661 209.478 299.943 216.251 299.943 224.607Z" fill="#F9696A"/>
<path d="M230.459 224.607C230.459 232.964 237.177 239.742 245.467 239.742C253.757 239.742 260.48 232.964 260.48 224.607C260.48 216.251 253.757 209.478 245.467 209.478C237.177 209.478 230.459 216.251 230.459 224.607Z" fill="#F9696A"/>
<path d="M293.382 200.814C293.382 211.143 298.331 219.521 304.44 219.521C310.549 219.521 315.504 211.143 315.504 200.814C315.504 190.486 310.549 182.113 304.44 182.113C298.331 182.113 293.382 190.486 293.382 200.814Z" fill="white"/>
<path d="M306.688 182.495C310.996 183.998 314.39 189.737 315.277 197.021C314.486 202.129 311.739 205.9 308.473 205.9C304.588 205.9 301.44 200.577 301.44 194.004C301.44 188.476 303.668 183.831 306.688 182.495Z" fill="#231F20"/>
<path d="M301.668 190.971C301.887 189.559 302.262 188.255 302.748 187.102L307.617 193.519L301.668 190.971Z" fill="white"/>
<path d="M245.28 200.814C245.28 211.143 250.229 219.521 256.338 219.521C262.448 219.521 267.402 211.143 267.402 200.814C267.402 190.486 262.448 182.113 256.338 182.113C250.229 182.113 245.28 190.486 245.28 200.814Z" fill="white"/>
<path d="M258.583 182.495C262.891 183.998 266.285 189.737 267.172 197.021C266.381 202.129 263.634 205.9 260.368 205.9C256.482 205.9 253.334 200.577 253.334 194.004C253.334 188.476 255.563 183.831 258.583 182.495Z" fill="#231F20"/>
<path d="M253.563 190.971C253.782 189.559 254.156 188.255 254.643 187.102L259.512 193.519L253.563 190.971Z" fill="white"/>
</g>
<g clip-path="url(#clip3_943_12276)">
<path d="M118.527 218.845L54.4116 196.089C37.3074 190.018 28.3524 171.26 34.4102 154.193C40.4681 137.125 59.2447 128.21 76.3489 134.281L140.464 157.037C157.569 163.108 166.524 181.865 160.466 198.933C154.408 216.001 135.632 224.916 118.527 218.845Z" fill="#EF0405"/>
<path d="M155.719 191.966C155.075 191.644 154.414 191.317 153.699 191.227C152.781 191.112 151.863 191.399 150.939 191.424C147.269 191.524 144.531 187.644 140.874 187.311C139.539 187.19 138.196 187.561 136.861 187.436C132.843 187.058 130.209 182.444 126.19 182.082C125.018 181.976 123.828 182.254 122.666 182.068C119.411 181.547 117.515 177.68 114.27 177.1C112.161 176.723 109.839 177.83 107.921 176.875C106.617 176.226 105.894 174.789 104.701 173.954C102.545 172.447 99.5428 173.266 97.0361 172.465C94.5036 171.656 92.6739 169.253 90.0853 168.648C87.9872 168.156 85.6351 168.918 83.7117 167.946C82.2859 167.226 81.3981 165.679 79.9393 165.029C77.8314 164.089 75.283 165.312 73.1003 164.562C71.4533 163.997 70.3689 162.437 68.8794 161.536C66.6192 160.169 63.7236 160.469 61.257 159.523C57.9263 158.246 55.7368 154.855 52.3777 153.654C49.0691 152.472 45.3197 153.658 41.9317 152.726C39.9367 152.177 38.0298 150.909 36.1179 150.113C35.5293 151.29 35.0053 152.515 34.5538 153.787L34.2658 154.599C33.7797 155.968 33.3934 157.348 33.0995 158.732C34.6881 159.827 36.4048 160.71 38.3035 160.831C40.0568 160.942 41.7788 160.386 43.5285 160.235C46.4886 159.982 49.5368 160.95 51.8072 162.867C53.7659 164.52 55.3152 166.923 57.8096 167.517C59.6378 167.952 61.6379 167.295 63.4005 167.947C65.0985 168.575 66.168 170.267 67.7398 171.165C70.2137 172.578 73.5104 171.819 75.9496 173.29C76.7899 173.796 77.4687 174.538 78.3087 175.045C81.5186 176.98 86.1406 175.051 89.1555 177.278C90.0867 177.966 90.7416 178.983 91.7028 179.627C94.6289 181.59 99.2873 179.514 101.751 182.031C102.483 182.777 102.866 183.82 103.639 184.524C105.964 186.639 110.036 184.51 112.708 186.168C113.957 186.944 114.627 188.401 115.798 189.291C118.733 191.52 123.465 189.394 126.397 191.628C127.649 192.582 128.346 194.202 129.755 194.905C131.872 195.959 134.488 194.454 136.753 195.133C138.095 195.536 139.093 196.64 140.301 197.351C143.327 199.134 147.235 198.268 150.56 199.404C153.394 200.371 155.543 202.696 158.198 204.08C159.018 202.582 159.732 201.001 160.322 199.339L160.61 198.528C161.031 197.34 161.376 196.144 161.653 194.944C161.233 194.721 160.808 194.508 160.386 194.297C158.83 193.52 157.275 192.743 155.719 191.966Z" fill="white"/>
<path d="M47.9287 151.734C49.5945 151.692 51.2871 151.595 52.8806 152.053C56.4481 153.077 58.0035 158.313 62.3549 157.911C63.2372 157.829 64.0756 157.413 64.9599 157.374C68.3184 157.226 69.7895 162.124 73.0492 162.898C75.3116 163.434 77.82 161.797 79.9567 162.713C81.5782 163.408 82.3773 165.349 83.9438 166.161C86.1129 167.286 88.9378 165.884 91.1565 166.906C92.6597 167.599 93.524 169.248 94.9405 170.106C97.6706 171.761 101.524 170.032 104.255 171.686C105.904 172.684 106.796 174.744 108.562 175.512C110.817 176.493 113.513 174.976 115.878 175.648C118.664 176.44 120.116 179.992 122.973 180.481C124.704 180.777 126.535 179.835 128.216 180.338C130.46 181.009 131.342 183.867 133.395 184.999C136.564 186.747 141.034 183.722 143.992 185.817C145.254 186.71 145.911 188.376 147.31 189.03C149.597 190.099 152.501 187.889 154.76 189.018C156.308 189.791 157.003 191.92 158.683 192.333C159.811 192.61 161.101 192.009 162.128 192.552C164.642 193.881 163.544 198.132 160.458 197.182C158.044 196.44 156.657 194.343 154.748 192.786C154.493 192.578 154.219 192.367 153.895 192.311C153.613 192.263 153.326 192.339 153.05 192.414C150.68 193.058 149.768 193.53 147.648 192.128C146.102 191.106 144.64 189.729 142.722 189.491C141.187 189.3 140.235 189.944 138.805 189.231C137.462 188.562 137.104 188.436 135.49 188.342C133.937 188.252 132.4 187.749 131.153 186.798C130.215 186.083 129.699 185.027 128.56 184.52C126.416 183.563 123.906 184.571 121.7 183.787C119.277 182.927 117.98 181.87 116.027 180.118C115.378 179.535 114.691 178.932 113.844 178.724C113.249 178.577 112.627 178.639 112.016 178.662C110.545 178.717 108.206 178.894 106.857 178.211C105.548 177.55 104.347 175.872 103.172 174.94C102.834 174.672 102.487 174.407 102.09 174.24C101.567 174.02 100.986 173.981 100.419 173.99C98.0931 174.026 95.0749 174.866 93.4508 172.597C92.7183 171.573 92.3386 170.15 91.0289 169.686C90.4354 169.475 89.7842 169.543 89.1589 169.613C88.0633 169.737 86.9673 169.86 85.8716 169.983C84.9514 170.087 83.218 169.551 82.4463 169.027C81.7138 168.529 81.2728 167.478 80.4941 166.925C79.5238 166.235 78.3145 165.842 77.1328 165.982C76.7243 166.031 76.3246 166.141 75.9147 166.177C75.4474 166.218 74.9771 166.163 74.5111 166.108C72.2896 165.844 70.9325 165.765 69.2284 164.258C67.9881 163.16 66.8949 161.906 65.313 161.284C64.6438 161.021 63.9248 160.863 63.2077 160.906C62.3568 160.957 61.5474 161.287 60.7038 161.408C58.7912 161.683 57.8313 160.11 56.5751 158.966C54.8099 157.359 53.537 154.878 51.0761 154.221C49.1863 153.716 47.3682 154.502 45.4809 154.125C43.4419 153.717 41.3728 153.809 39.3281 153.471C37.1082 153.105 31.9258 149.607 36.1349 147.835C37.2881 147.35 38.6088 147.835 39.6169 148.554C40.6253 149.274 41.4718 150.225 42.5496 150.832C44.0741 151.691 45.9027 151.776 47.6563 151.74C47.7467 151.738 47.8377 151.736 47.9287 151.734Z" fill="#9F0000"/>
<path d="M45.0068 159.964C46.6726 159.922 48.3653 159.826 49.9587 160.283C53.5263 161.308 55.0816 166.543 59.433 166.141C60.3154 166.059 61.1537 165.643 62.038 165.604C65.3965 165.457 66.8678 170.354 70.1274 171.128C72.3897 171.665 74.8982 170.027 77.0349 170.943C78.6564 171.638 79.4554 173.579 81.022 174.392C83.1911 175.517 86.0159 174.115 88.2347 175.137C89.7378 175.829 90.6023 177.478 92.0186 178.337C94.7487 179.992 98.6019 178.262 101.333 179.916C102.983 180.914 103.874 182.974 105.64 183.743C107.895 184.723 110.591 183.207 112.957 183.879C115.743 184.67 117.194 188.222 120.051 188.711C121.782 189.007 123.613 188.065 125.294 188.568C127.538 189.24 128.42 192.097 130.473 193.23C133.642 194.978 138.112 191.953 141.07 194.047C142.332 194.941 142.989 196.607 144.388 197.26C146.675 198.33 149.579 196.119 151.838 197.248C153.386 198.021 154.081 200.15 155.761 200.564C156.889 200.841 158.179 200.239 159.206 200.782C161.72 202.112 160.622 206.362 157.536 205.413C155.122 204.67 153.735 202.573 151.826 201.017C151.571 200.809 151.298 200.598 150.973 200.542C150.691 200.494 150.404 200.569 150.128 200.644C147.759 201.288 146.846 201.76 144.726 200.359C143.18 199.337 141.718 197.96 139.8 197.721C138.265 197.531 137.313 198.175 135.883 197.462C134.54 196.793 134.182 196.666 132.568 196.573C131.016 196.483 129.478 195.979 128.231 195.029C127.294 194.314 126.777 193.258 125.638 192.75C123.494 191.794 120.984 192.801 118.778 192.018C116.355 191.158 115.058 190.1 113.106 188.348C112.456 187.765 111.769 187.162 110.922 186.954C110.327 186.808 109.705 186.87 109.094 186.892C107.623 186.947 105.285 187.125 103.935 186.442C102.626 185.78 101.425 184.103 100.25 183.171C99.9125 182.903 99.5652 182.638 99.1679 182.47C98.6451 182.25 98.0639 182.212 97.4968 182.22C95.1712 182.257 92.153 183.096 90.529 180.827C89.7964 179.803 89.4168 178.381 88.107 177.916C87.5135 177.706 86.8624 177.773 86.237 177.844C85.1414 177.967 84.0454 178.09 82.9498 178.214C82.0295 178.317 80.2961 177.782 79.5246 177.257C78.7919 176.76 78.3509 175.709 77.5724 175.155C76.602 174.466 75.3927 174.073 74.2109 174.212C73.8025 174.261 73.4027 174.371 72.9928 174.407C72.5255 174.449 72.0552 174.393 71.5893 174.338C69.3678 174.075 68.0107 173.996 66.3067 172.488C65.0662 171.39 63.9731 170.137 62.3911 169.515C61.722 169.252 61.0031 169.093 60.2858 169.136C59.4349 169.187 58.6255 169.517 57.7819 169.639C55.8693 169.913 54.9095 168.34 53.6532 167.197C51.888 165.589 50.6152 163.108 48.1542 162.451C46.2644 161.947 44.4463 162.733 42.5591 162.355C40.52 161.948 38.4509 162.039 36.4062 161.702C34.1863 161.336 29.004 157.838 33.2131 156.065C34.3663 155.58 35.687 156.065 36.695 156.785C37.7034 157.504 38.5499 158.456 39.6278 159.063C41.1522 159.921 42.9808 160.007 44.7344 159.971C44.825 159.969 44.9158 159.967 45.0068 159.964Z" fill="#9F0000"/>
<path d="M96.5972 280.632L32.4818 257.876C15.3776 251.805 6.42265 233.047 12.4805 215.979C18.5384 198.911 37.315 189.997 54.4192 196.067L118.535 218.824C135.639 224.894 144.594 243.652 138.536 260.72C132.478 277.788 113.702 286.703 96.5972 280.632Z" fill="#FFD800"/>
<path d="M133.79 253.752C133.145 253.43 132.484 253.103 131.769 253.013C130.851 252.899 129.933 253.185 129.009 253.21C125.339 253.31 122.602 249.43 118.945 249.097C117.609 248.976 116.266 249.347 114.931 249.222C110.914 248.844 108.279 244.231 104.26 243.868C103.088 243.762 101.898 244.04 100.736 243.854C97.4814 243.333 95.5849 239.467 92.3407 238.886C90.2316 238.509 87.9092 239.617 85.9913 238.661C84.6874 238.012 83.9648 236.575 82.7709 235.74C80.6149 234.233 77.6131 235.052 75.1064 234.251C72.5739 233.442 70.7441 231.04 68.1556 230.434C66.0575 229.942 63.7054 230.704 61.782 229.732C60.3562 229.012 59.4684 227.466 58.0096 226.815C55.9018 225.875 53.3532 227.098 51.1705 226.349C49.5235 225.783 48.4392 224.223 46.9497 223.322C44.6894 221.955 41.7939 222.255 39.3272 221.309C35.9966 220.033 33.807 216.641 30.448 215.44C27.1394 214.258 23.3899 215.444 20.0021 214.512C18.007 213.963 16.1 212.696 14.1882 211.899C13.5996 213.076 13.0756 214.301 12.6241 215.573L12.3361 216.385C11.85 217.754 11.4637 219.135 11.1698 220.518C12.7585 221.613 14.4751 222.496 16.3738 222.617C18.1271 222.729 19.849 222.172 21.5988 222.022C24.5589 221.768 27.607 222.737 29.8775 224.653C31.8362 226.306 33.3855 228.709 35.8799 229.303C37.7081 229.738 39.7083 229.081 41.4707 229.733C43.1688 230.362 44.2383 232.054 45.8101 232.952C48.284 234.364 51.5807 233.605 54.0199 235.076C54.8601 235.583 55.5391 236.324 56.379 236.831C59.5888 238.767 64.2109 236.838 67.2258 239.064C68.157 239.752 68.8119 240.769 69.7731 241.414C72.6992 243.376 77.3576 241.3 79.8217 243.817C80.553 244.564 80.9363 245.606 81.7094 246.31C84.0348 248.425 88.1066 246.296 90.7783 247.954C92.0277 248.73 92.6969 250.188 93.8679 251.077C96.8035 253.306 101.535 251.18 104.467 253.414C105.719 254.368 106.416 255.989 107.825 256.691C109.942 257.746 112.558 256.24 114.823 256.919C116.165 257.322 117.164 258.426 118.371 259.137C121.397 260.92 125.306 260.055 128.63 261.19C131.464 262.157 133.613 264.482 136.269 265.866C137.089 264.368 137.802 262.787 138.392 261.126L138.68 260.314C139.101 259.126 139.447 257.93 139.723 256.73C139.303 256.507 138.878 256.294 138.456 256.083C136.901 255.306 135.345 254.529 133.79 253.752Z" fill="white"/>
<path d="M25.9991 213.52C27.6649 213.478 29.3576 213.382 30.9509 213.839C34.5185 214.864 36.0739 220.099 40.4253 219.697C41.3076 219.615 42.146 219.199 43.0303 219.16C46.3888 219.013 47.86 223.911 51.1197 224.684C53.382 225.221 55.8904 223.583 58.0271 224.499C59.6486 225.194 60.4477 227.135 62.0141 227.948C64.1832 229.073 67.0082 227.671 69.227 228.693C70.7301 229.385 71.5944 231.034 73.0109 231.893C75.741 233.548 79.5942 231.818 82.3252 233.472C83.9747 234.471 84.8661 236.53 86.6328 237.298C88.8876 238.279 91.583 236.762 93.9488 237.435C96.7348 238.226 98.1867 241.778 101.043 242.267C102.774 242.563 104.605 241.622 106.286 242.124C108.531 242.796 109.412 245.653 111.465 246.785C114.635 248.534 119.104 245.509 122.063 247.603C123.324 248.496 123.982 250.163 125.38 250.816C127.668 251.886 130.571 249.675 132.83 250.804C134.379 251.577 135.074 253.706 136.754 254.12C137.881 254.397 139.171 253.795 140.198 254.338C142.712 255.668 141.614 259.918 138.529 258.969C136.115 258.226 134.727 256.129 132.819 254.573C132.563 254.365 132.29 254.153 131.965 254.098C131.683 254.05 131.396 254.125 131.12 254.2C128.751 254.844 127.839 255.316 125.718 253.914C124.172 252.893 122.711 251.516 120.792 251.277C119.258 251.086 118.306 251.731 116.875 251.018C115.532 250.349 115.174 250.222 113.561 250.129C112.008 250.038 110.47 249.535 109.223 248.585C108.286 247.87 107.769 246.814 106.631 246.306C104.486 245.35 101.977 246.357 99.7699 245.574C97.3471 244.714 96.0506 243.656 94.0977 241.904C93.4481 241.321 92.7618 240.718 91.914 240.51C91.3196 240.364 90.6976 240.426 90.0861 240.449C88.6149 240.504 86.2768 240.681 84.9272 239.998C83.6186 239.336 82.4176 237.659 81.2427 236.727C80.9048 236.458 80.5575 236.194 80.1602 236.026C79.6373 235.806 79.0562 235.767 78.489 235.777C76.1635 235.813 73.1453 236.652 71.5212 234.383C70.7887 233.359 70.409 231.937 69.0993 231.472C68.5057 231.262 67.8546 231.329 67.2293 231.4C66.1337 231.523 65.0377 231.646 63.942 231.769C63.0218 231.873 61.2883 231.338 60.5168 230.813C59.7842 230.316 59.3432 229.265 58.5645 228.711C57.5942 228.022 56.385 227.628 55.2032 227.768C54.7947 227.817 54.395 227.927 53.985 227.963C53.5177 228.005 53.0474 227.95 52.5815 227.894C50.3601 227.631 49.0029 227.552 47.2988 226.044C46.0585 224.946 44.9654 223.693 43.3834 223.071C42.7142 222.807 41.9953 222.649 41.2781 222.692C40.4272 222.743 39.6178 223.073 38.7742 223.195C36.8615 223.47 35.9017 221.896 34.6455 220.752C32.8803 219.145 31.6074 216.664 29.1465 216.007C27.2567 215.502 25.4386 216.289 23.5513 215.911C21.5123 215.504 19.4431 215.595 17.3984 215.258C15.1785 214.892 9.99626 211.393 14.2054 209.621C15.3586 209.136 16.6792 209.621 17.6873 210.341C18.6957 211.06 19.5422 212.012 20.62 212.619C22.1445 213.477 23.9731 213.563 25.7267 213.527C25.8171 213.525 25.9081 213.522 25.9991 213.52Z" fill="#E1BA00"/>
<path d="M23.0771 221.75C24.7429 221.708 26.4356 221.612 28.029 222.069C31.5966 223.094 33.1519 228.329 37.5033 227.927C38.3857 227.846 39.224 227.429 40.1083 227.39C43.4669 227.243 44.938 232.141 48.1977 232.914C50.46 233.451 52.9685 231.813 55.1052 232.729C56.7267 233.424 57.5257 235.366 59.0922 236.178C61.2614 237.303 64.0863 235.901 66.305 236.923C67.8081 237.615 68.6725 239.264 70.0889 240.123C72.819 241.778 76.6722 240.049 79.4032 241.702C81.0527 242.701 81.9442 244.76 83.7108 245.529C85.9657 246.509 88.661 244.993 91.0268 245.665C93.8128 246.456 95.2648 250.008 98.1214 250.497C99.852 250.793 101.683 249.852 103.364 250.355C105.609 251.026 106.49 253.883 108.543 255.016C111.713 256.764 116.182 253.739 119.141 255.833C120.402 256.727 121.06 258.393 122.458 259.046C124.746 260.116 127.649 257.906 129.908 259.034C131.457 259.807 132.152 261.936 133.832 262.35C134.959 262.627 136.249 262.026 137.276 262.568C139.79 263.898 138.692 268.148 135.607 267.199C133.193 266.456 131.805 264.359 129.897 262.803C129.641 262.595 129.368 262.384 129.043 262.328C128.761 262.28 128.474 262.356 128.198 262.43C125.829 263.074 124.917 263.546 122.796 262.145C121.25 261.123 119.789 259.746 117.87 259.507C116.336 259.317 115.384 259.961 113.953 259.248C112.61 258.579 112.252 258.453 110.639 258.359C109.086 258.269 107.548 257.765 106.301 256.815C105.364 256.1 104.847 255.044 103.709 254.536C101.564 253.58 99.0547 254.588 96.848 253.804C94.4251 252.944 93.1287 251.887 91.1757 250.134C90.5262 249.551 89.8398 248.948 88.9921 248.74C88.3977 248.594 87.7756 248.656 87.1641 248.679C85.693 248.734 83.3548 248.911 82.0053 248.228C80.6967 247.566 79.4958 245.889 78.3207 244.957C77.9828 244.689 77.6356 244.424 77.2383 244.256C76.7154 244.036 76.1342 243.998 75.567 244.007C73.2416 244.043 70.2233 244.882 68.5992 242.613C67.8667 241.59 67.4871 240.167 66.1773 239.702C65.5838 239.492 64.9326 239.56 64.3073 239.63C63.2117 239.753 62.1157 239.876 61.0201 240C60.0998 240.103 58.3664 239.568 57.5948 239.044C56.8622 238.546 56.4212 237.495 55.6426 236.942C54.6722 236.252 53.463 235.859 52.2812 235.999C51.8727 236.047 51.473 236.157 51.0631 236.193C50.5957 236.235 50.1255 236.18 49.6595 236.125C47.4381 235.861 46.081 235.782 44.3769 234.274C43.1365 233.176 42.0434 231.923 40.4614 231.301C39.7923 231.038 39.0733 230.879 38.3561 230.922C37.5052 230.974 36.6959 231.303 35.8522 231.425C33.9396 231.7 32.9797 230.126 31.7235 228.983C29.9583 227.376 28.6855 224.894 26.2245 224.237C24.3347 223.733 22.5166 224.519 20.6294 224.142C18.5903 223.734 16.5213 223.825 14.4765 223.488C12.2566 223.122 7.07428 219.624 11.2834 217.852C12.4366 217.366 13.7572 217.851 14.7653 218.571C15.7737 219.29 16.6202 220.242 17.6981 220.849C19.2225 221.707 21.0511 221.793 22.8047 221.757C22.8952 221.755 22.9861 221.753 23.0771 221.75Z" fill="#E1BA00"/>
<path d="M140.457 157.059L76.3413 134.302C59.2371 128.232 50.2821 109.474 56.3399 92.4065C62.3977 75.3389 81.1744 66.4238 98.2786 72.4945L162.394 95.2508C179.499 101.322 188.454 120.079 182.396 137.147C176.338 154.214 157.561 163.13 140.457 157.059Z" fill="#F77F00"/>
<path d="M177.649 130.179C177.004 129.857 176.343 129.53 175.628 129.44C174.711 129.326 173.793 129.612 172.868 129.637C169.198 129.737 166.461 125.857 162.804 125.525C161.469 125.403 160.125 125.774 158.791 125.649C154.773 125.271 152.138 120.658 148.12 120.295C146.948 120.19 145.757 120.467 144.595 120.281C141.341 119.76 139.444 115.894 136.2 115.313C134.091 114.936 131.769 116.043 129.851 115.088C128.547 114.439 127.824 113.002 126.63 112.167C124.474 110.66 121.472 111.479 118.966 110.678C116.433 109.869 114.604 107.467 112.015 106.861C109.917 106.37 107.565 107.131 105.641 106.159C104.216 105.439 103.328 103.893 101.869 103.242C99.7612 102.302 97.2127 103.525 95.03 102.776C93.383 102.21 92.2987 100.65 90.8091 99.749C88.5489 98.3823 85.6534 98.6817 83.1867 97.7364C79.856 96.4598 77.6665 93.0682 74.3074 91.8677C70.9989 90.6849 67.2494 91.8711 63.8614 90.9393C61.8664 90.3903 59.9595 89.1226 58.0476 88.326C57.4591 89.5031 56.935 90.7287 56.4835 92.0006L56.1955 92.8122C55.7095 94.1813 55.3231 95.5619 55.0291 96.9454C56.6179 98.04 58.3345 98.9233 60.2333 99.044C61.9864 99.1558 63.7084 98.5989 65.4582 98.4488C68.4184 98.1949 71.4664 99.1639 73.7369 101.08C75.6956 102.733 77.2449 105.136 79.7392 105.73C81.5676 106.165 83.5676 105.508 85.3302 106.16C87.0281 106.789 88.0977 108.481 89.6696 109.379C92.1434 110.792 95.4401 110.032 97.8793 111.503C98.7195 112.01 99.3984 112.751 100.238 113.258C103.448 115.194 108.07 113.265 111.085 115.491C112.016 116.179 112.671 117.196 113.633 117.841C116.559 119.803 121.217 117.728 123.681 120.244C124.412 120.991 124.796 122.034 125.569 122.737C127.894 124.852 131.966 122.723 134.638 124.381C135.887 125.157 136.556 126.615 137.727 127.504C140.663 129.733 145.395 127.607 148.327 129.841C149.579 130.795 150.276 132.416 151.684 133.118C153.801 134.173 156.417 132.667 158.682 133.346C160.025 133.749 161.023 134.853 162.23 135.564C165.257 137.347 169.165 136.482 172.49 137.617C175.324 138.585 177.472 140.909 180.128 142.293C180.948 140.795 181.662 139.214 182.251 137.553L182.539 136.741C182.961 135.553 183.306 134.357 183.583 133.157C183.163 132.934 182.738 132.721 182.315 132.51C180.76 131.733 179.205 130.956 177.649 130.179Z" fill="white"/>
<path d="M69.8584 89.9473C71.5242 89.9052 73.2168 89.8087 74.8103 90.2662C78.3778 91.2909 79.9332 96.5263 84.2846 96.124C85.1669 96.0424 86.0053 95.6259 86.8896 95.587C90.2482 95.4393 91.7193 100.337 94.9789 101.111C97.2412 101.648 99.7497 100.01 101.886 100.926C103.508 101.621 104.307 103.562 105.874 104.375C108.043 105.5 110.868 104.097 113.086 105.12C114.589 105.812 115.454 107.461 116.87 108.319C119.6 109.975 123.453 108.245 126.185 109.899C127.834 110.897 128.726 112.957 130.492 113.726C132.747 114.706 135.442 113.19 137.808 113.862C140.594 114.653 142.046 118.205 144.903 118.694C146.633 118.99 148.465 118.048 150.145 118.551C152.39 119.223 153.272 122.08 155.324 123.212C158.494 124.961 162.963 121.936 165.922 124.03C167.184 124.923 167.841 126.59 169.239 127.243C171.527 128.313 174.43 126.102 176.69 127.231C178.238 128.004 178.933 130.133 180.613 130.546C181.74 130.824 183.03 130.222 184.057 130.765C186.572 132.095 185.473 136.345 182.388 135.396C179.974 134.653 178.587 132.556 176.678 131C176.423 130.791 176.149 130.58 175.825 130.525C175.542 130.477 175.256 130.552 174.98 130.627C172.61 131.271 171.698 131.743 169.577 130.341C168.032 129.32 166.57 127.943 164.652 127.704C163.117 127.513 162.165 128.157 160.734 127.445C159.391 126.775 159.033 126.649 157.42 126.556C155.867 126.465 154.329 125.962 153.083 125.012C152.145 124.297 151.628 123.241 150.49 122.733C148.345 121.777 145.836 122.784 143.629 122.001C141.206 121.141 139.91 120.083 137.957 118.331C137.307 117.748 136.621 117.145 135.773 116.937C135.179 116.791 134.557 116.853 133.945 116.875C132.474 116.93 130.136 117.108 128.787 116.425C127.478 115.763 126.277 114.086 125.102 113.154C124.764 112.885 124.417 112.62 124.02 112.453C123.497 112.233 122.915 112.194 122.348 112.203C120.023 112.24 117.005 113.079 115.381 110.81C114.648 109.786 114.268 108.364 112.959 107.899C112.365 107.689 111.714 107.756 111.089 107.827C109.993 107.95 108.897 108.073 107.801 108.197C106.881 108.3 105.148 107.764 104.376 107.24C103.644 106.742 103.203 105.692 102.424 105.138C101.454 104.448 100.244 104.055 99.0624 104.195C98.6541 104.244 98.2542 104.354 97.8444 104.39C97.3771 104.432 96.9068 104.376 96.4409 104.321C94.2193 104.058 92.8622 103.979 91.1582 102.471C89.9178 101.373 88.8246 100.12 87.2426 99.4976C86.5735 99.2345 85.8546 99.0758 85.1375 99.1189C84.2865 99.1703 83.4771 99.5002 82.6336 99.6213C80.7208 99.8963 79.7611 98.323 78.5047 97.1795C76.7396 95.5724 75.4668 93.0908 73.0058 92.4339C71.116 91.9294 69.2979 92.7156 67.4106 92.3383C65.3717 91.9304 63.3025 92.0222 61.2578 91.6848C59.0379 91.3184 53.8555 87.8204 58.0646 86.0484C59.2179 85.5627 60.5386 86.0479 61.5467 86.7673C62.555 87.4871 63.4015 88.4387 64.4793 89.0457C66.0038 89.9042 67.8325 89.9895 69.5859 89.9536C69.6765 89.9515 69.7674 89.9495 69.8584 89.9473Z" fill="#C54D00"/>
<path d="M66.9365 98.1782C68.6023 98.1362 70.2951 98.0394 71.8884 98.4971C75.4559 99.5218 77.0113 104.757 81.3628 104.355C82.245 104.273 83.0834 103.857 83.9678 103.818C87.3263 103.67 88.7975 108.568 92.0571 109.342C94.3194 109.879 96.8279 108.241 98.9646 109.157C100.586 109.852 101.385 111.793 102.952 112.606C105.121 113.731 107.946 112.328 110.164 113.351C111.668 114.043 112.532 115.692 113.948 116.55C116.679 118.205 120.532 116.476 123.263 118.13C124.912 119.128 125.804 121.188 127.57 121.956C129.825 122.937 132.52 121.42 134.886 122.093C137.672 122.884 139.124 126.436 141.981 126.925C143.711 127.221 145.543 126.279 147.224 126.782C149.468 127.454 150.35 130.311 152.402 131.443C155.572 133.191 160.042 130.166 163 132.261C164.262 133.154 164.919 134.821 166.317 135.474C168.605 136.543 171.508 134.333 173.768 135.462C175.316 136.235 176.011 138.364 177.691 138.777C178.818 139.054 180.109 138.453 181.135 138.996C183.65 140.326 182.552 144.576 179.466 143.627C177.052 142.884 175.665 140.787 173.756 139.231C173.501 139.022 173.227 138.811 172.903 138.756C172.621 138.708 172.334 138.783 172.058 138.858C169.688 139.502 168.776 139.974 166.655 138.572C165.11 137.55 163.648 136.174 161.73 135.935C160.195 135.744 159.243 136.388 157.813 135.676C156.47 135.006 156.111 134.88 154.498 134.786C152.945 134.696 151.408 134.193 150.161 133.243C149.223 132.528 148.707 131.471 147.568 130.964C145.423 130.008 142.914 131.015 140.707 130.232C138.284 129.372 136.988 128.314 135.035 126.562C134.386 125.979 133.699 125.376 132.852 125.168C132.257 125.022 131.635 125.084 131.024 125.106C129.552 125.161 127.214 125.339 125.865 124.656C124.556 123.994 123.355 122.316 122.18 121.385C121.842 121.116 121.495 120.851 121.098 120.684C120.575 120.464 119.994 120.425 119.426 120.434C117.101 120.471 114.083 121.31 112.459 119.041C111.726 118.017 111.346 116.595 110.037 116.13C109.443 115.92 108.792 115.987 108.167 116.058C107.071 116.181 105.975 116.304 104.879 116.427C103.959 116.531 102.226 115.995 101.454 115.471C100.722 114.973 100.281 113.922 99.502 113.369C98.5317 112.679 97.3225 112.286 96.1406 112.426C95.7322 112.475 95.3324 112.585 94.9225 112.621C94.4552 112.663 93.9849 112.607 93.519 112.552C91.2975 112.289 89.9403 112.21 88.2363 110.702C86.9959 109.604 85.9028 108.351 84.3208 107.729C83.6516 107.465 82.9328 107.307 82.2156 107.35C81.3646 107.401 80.5552 107.731 79.7117 107.852C77.799 108.127 76.8392 106.554 75.583 105.41C73.8178 103.803 72.5449 101.322 70.0839 100.665C68.1941 100.16 66.3761 100.946 64.4888 100.569C62.4498 100.161 60.3806 100.253 58.3359 99.9158C56.116 99.5494 50.9337 96.0514 55.1428 94.2794C56.2961 93.7937 57.6167 94.2788 58.6248 94.9983C59.6331 95.7181 60.4797 96.6693 61.5574 97.2766C63.0819 98.1352 64.9106 98.2204 66.6641 98.1845C66.7546 98.1824 66.8455 98.1805 66.9365 98.1782Z" fill="#C54D00"/>
<path d="M115.262 172.488C116.601 166.602 112.202 162.878 112.014 162.722C111.632 162.405 111.064 162.457 110.747 162.839C110.431 163.22 110.484 163.785 110.864 164.102C110.961 164.183 112.363 165.386 113.163 167.423C111.888 167.6 108.688 167.922 104.887 167.384C98.5383 166.485 93.5327 163.72 89.9948 159.174C91.8901 158.113 93.7186 158.063 93.8437 158.061C94.3393 158.055 94.7362 157.649 94.7309 157.154C94.7256 156.658 94.3181 156.26 93.8212 156.265C93.5773 156.267 87.8149 156.385 85.1435 161.798C84.9242 162.243 85.1077 162.781 85.5533 163.001C85.5857 163.017 85.6182 163.031 85.6514 163.042C86.0753 163.193 86.5544 163.006 86.7578 162.593C87.2472 161.602 87.8659 160.829 88.5319 160.223C91.2464 163.727 94.8642 166.306 99.1823 167.839C100.913 168.453 102.757 168.9 104.698 169.171C108.941 169.763 112.405 169.36 113.631 169.173C113.76 170.051 113.749 171.027 113.507 172.088C113.405 172.536 113.659 172.983 114.083 173.134C114.116 173.145 114.15 173.155 114.185 173.163C114.67 173.274 115.152 172.971 115.262 172.488Z" fill="#252525"/>
<path d="M84.2502 151.949C83.253 154.758 80.162 156.226 77.3463 155.227C74.5305 154.227 73.0565 151.139 74.0536 148.33C75.0509 145.52 78.1419 144.052 80.9577 145.052C83.7734 146.051 85.2474 149.139 84.2502 151.949Z" fill="#F9696A"/>
<path d="M112.004 89.9608C111.007 92.7705 107.916 94.2381 105.1 93.2387C102.285 92.2393 100.81 89.1515 101.808 86.3418C102.805 83.5321 105.896 82.0645 108.712 83.0639C111.527 84.0633 113.001 87.1511 112.004 89.9608Z" fill="#F9696A"/>
<path d="M147.93 102.711C146.933 105.521 143.842 106.989 141.026 105.989C138.21 104.99 136.736 101.902 137.733 99.0923C138.731 96.2826 141.822 94.815 144.637 95.8144C147.453 96.8138 148.927 99.9016 147.93 102.711Z" fill="#F9696A"/>
<path d="M81.3888 149.236C80.9798 149.091 80.7098 148.679 80.7614 148.23C80.8214 147.708 81.2939 147.334 81.8165 147.395L87.9338 148.103L84.7234 142.057C84.4771 141.593 84.654 141.018 85.1186 140.772C85.5836 140.526 86.1603 140.704 86.407 141.168L90.2144 148.339C90.4294 148.745 90.4028 149.232 90.1435 149.611C89.8846 149.99 89.4396 150.193 88.9829 150.14L81.5995 149.284C81.5261 149.276 81.4555 149.259 81.3888 149.236Z" fill="#252525"/>
<path d="M122.597 165.559C121.599 168.368 123.073 171.456 125.889 172.456C128.705 173.455 131.796 171.987 132.793 169.178C133.79 166.368 132.316 163.28 129.501 162.281C126.685 161.281 123.594 162.749 122.597 165.559Z" fill="#F9696A"/>
<path d="M126.526 165.257C126.459 165.233 126.394 165.202 126.332 165.162L120.061 161.171C119.673 160.924 119.455 160.487 119.493 160.029C119.531 159.572 119.817 159.176 120.24 158.997L127.716 155.831C128.2 155.626 128.76 155.852 128.966 156.336C129.172 156.819 128.946 157.378 128.463 157.583L122.159 160.252L127.354 163.559C127.798 163.841 127.929 164.429 127.647 164.872C127.404 165.253 126.935 165.402 126.526 165.257Z" fill="#252525"/>
<path d="M62.3558 213.63C61.3585 216.44 58.2675 217.908 55.4517 216.908C52.636 215.909 51.162 212.821 52.1592 210.011C53.1563 207.202 56.2474 205.734 59.0631 206.733C61.8789 207.733 63.3529 210.821 62.3558 213.63Z" fill="#F9696A"/>
<path d="M59.4942 210.918C59.0853 210.773 58.8153 210.361 58.8669 209.912C58.9269 209.39 59.3994 209.016 59.922 209.077L66.0392 209.785L62.8289 203.739C62.5826 203.275 62.7594 202.7 63.2241 202.454C63.6891 202.208 64.2658 202.386 64.5125 202.85L68.3198 210.021C68.5349 210.427 68.5082 210.914 68.249 211.293C67.9901 211.672 67.5451 211.875 67.0884 211.822L59.7049 210.967C59.6315 210.958 59.5609 210.941 59.4942 210.918Z" fill="#252525"/>
<path d="M100.702 227.24C99.7049 230.05 101.179 233.138 103.995 234.137C106.81 235.137 109.901 233.669 110.899 230.859C111.896 228.05 110.422 224.962 107.606 223.962C104.79 222.963 101.699 224.431 100.702 227.24Z" fill="#F9696A"/>
<path d="M104.635 226.939C104.568 226.915 104.503 226.883 104.441 226.844L98.1705 222.853C97.7822 222.606 97.5646 222.168 97.6025 221.711C97.64 221.253 97.9267 220.858 98.3497 220.679L105.826 217.513C106.31 217.308 106.869 217.534 107.076 218.017C107.281 218.501 107.056 219.059 106.572 219.264L100.269 221.934L105.464 225.24C105.908 225.523 106.039 226.111 105.756 226.554C105.513 226.935 105.044 227.084 104.635 226.939Z" fill="#252525"/>
<path d="M137.219 92.8375C136.376 95.2115 134.5 96.7126 133.028 96.1901C131.556 95.6677 131.046 93.3195 131.888 90.9456C132.731 88.5716 134.607 87.0705 136.079 87.593C137.551 88.1154 138.062 90.4635 137.219 92.8375Z" fill="#252525"/>
<path d="M137.575 91.3393C137.737 90.0325 137.483 88.8631 136.885 88.1641C136.412 88.3673 135.953 88.8988 135.702 89.6077C135.328 90.6615 135.554 91.704 136.208 91.9359C136.647 92.0918 137.167 91.8406 137.575 91.3393Z" fill="white"/>
<path d="M120.168 86.7863C119.326 89.1603 117.449 90.6613 115.977 90.1389C114.505 89.6164 113.995 87.2683 114.838 84.8943C115.68 82.5203 117.557 81.0193 119.029 81.5417C120.501 82.0641 121.011 84.4123 120.168 86.7863Z" fill="#252525"/>
<path d="M120.524 85.2876C120.686 83.9807 120.432 82.8114 119.834 82.1123C119.362 82.3155 118.902 82.8471 118.651 83.556C118.277 84.6097 118.503 85.6522 119.157 85.8841C119.596 86.0401 120.116 85.7888 120.524 85.2876Z" fill="white"/>
<path d="M121.199 106.162C115.198 104.032 110.405 99.6921 107.698 93.9327C107.4 93.2983 107.672 92.5436 108.308 92.2466C108.942 91.9498 109.699 92.2231 109.997 92.8576C112.414 97.9974 116.692 101.871 122.047 103.772L122.107 103.793C127.491 105.687 133.276 105.35 138.397 102.844C139.027 102.536 139.788 102.797 140.098 103.425C140.407 104.054 140.148 104.814 139.518 105.122C133.78 107.929 127.299 108.307 121.266 106.186L121.199 106.162Z" fill="#252525"/>
<path d="M87.8893 225.616C86.423 229.747 81.878 231.906 77.7373 230.436C73.597 228.966 71.4293 224.426 72.8956 220.294C74.362 216.163 78.9073 214.005 83.0476 215.474C87.1883 216.944 89.3557 221.485 87.8893 225.616Z" fill="#252525"/>
</g>
<defs>
<clipPath id="clip0_943_12276">
<rect width="79.5229" height="119.678" fill="white" transform="translate(265.004 13.3755) rotate(36.121)"/>
</clipPath>
<clipPath id="clip1_943_12276">
<rect width="49.8033" height="74.9516" fill="white" transform="translate(189.062) rotate(0.0460936)"/>
</clipPath>
<clipPath id="clip2_943_12276">
<rect width="124" height="125" fill="white" transform="matrix(-1 0 0 1 342 150.717)"/>
</clipPath>
<clipPath id="clip3_943_12276">
<rect width="137" height="197" fill="white" transform="translate(65.8945 61) rotate(19.5412)"/>
</clipPath>
</defs>
</svg>
