<svg width="250" height="213" viewBox="0 0 250 213" fill="none" xmlns="http://www.w3.org/2000/svg">
<mask id="path-1-outside-1_627_9270" maskUnits="userSpaceOnUse" x="8.09468" y="13.8942" width="233.456" height="184.819" fill="black">
<rect fill="white" x="8.09468" y="13.8942" width="233.456" height="184.819"/>
<path d="M207.099 43.8078C208.986 43.3702 211.386 43.1733 213.982 43.8422C216.98 44.5683 219.416 46.2528 221.153 48.3943L224.516 55.6456L225.152 58.1091L225.462 59.3095L228.538 71.2207C230.758 79.8163 227.193 86.494 218.39 88.7674C216.009 89.3822 212.935 89.5866 209.814 88.4707C207.926 90.5997 205.654 91.8041 203.709 92.4905C203.451 93.2951 203.105 94.1118 202.65 94.9271C202.633 94.9567 202.614 94.9854 202.598 95.0147L196.727 100.472C195.688 100.98 194.674 101.33 193.771 101.564C192.942 101.778 192.043 101.935 191.096 102.006C191.442 102.833 191.701 103.632 191.89 104.365L196.05 120.476C196.752 123.193 197.101 127.112 195.16 131.071C192.883 135.713 188.753 137.733 185.685 138.525C182.433 139.365 178.095 139.392 174.077 136.744C172.987 136.026 172.071 135.208 171.302 134.341C169.48 134.532 167.586 134.538 165.678 134.264L166.959 136.031L163.146 137.015L162.017 143.901L162.016 143.904C161.828 145.052 161.478 146.614 160.741 148.266C160.005 149.919 154.004 156.603 148.007 156.875C145.356 156.996 143.6 156.667 141.331 155.609C138.689 154.377 136.655 152.425 135.301 150.1C134.064 151.007 131.379 152.351 131.379 152.351C133.704 154.578 122.332 163.799 119.544 164.519C116.48 165.31 112.319 165.455 108.322 163.099C106.279 161.895 104.816 160.339 103.769 158.732C101.57 160.031 99.2209 160.952 96.8184 161.572C92.9661 162.567 88.8733 162.81 84.7696 161.845L84.7313 161.835L84.694 161.826C84.5361 161.788 84.3797 161.744 84.2233 161.703C81.9466 164.589 78.8967 166.101 76.2174 166.793C73.9521 167.378 70.9765 167.633 67.9098 166.657C65.6995 168.995 62.974 170.212 60.7092 170.797C57.6447 171.588 53.4833 171.733 49.4867 169.377L49.3649 169.306L49.2454 169.231C45.3844 166.819 43.6113 163.155 42.8567 160.233L38.8041 144.539C38.0207 141.506 37.7948 137.324 40.0715 133.248L40.1339 133.136L40.1991 133.026C40.7123 132.156 41.2889 131.383 41.9091 130.698C41.5616 130.615 41.2154 130.524 40.87 130.427C38.4836 129.792 35.6556 128.459 33.4181 125.776C30.2519 121.979 29.4555 114.837 31.5682 110.529C31.9853 109.679 32.4781 108.904 33.0248 108.199C32.9083 107.849 32.8078 107.507 32.7222 107.176C32.6081 106.734 32.51 106.261 32.4309 105.764C32.0717 105.576 31.7175 105.373 31.3716 105.151C29.0723 103.556 27.2311 101.453 26.1099 98.8681L25.9962 98.607L25.897 98.3396C24.0597 93.4222 25.8229 86.41 29.6354 82.8436L29.6474 82.8332L29.6595 82.8217C31.7193 80.9062 34.0224 79.3194 36.5079 78.035C38.9305 76.7832 41.4797 75.823 44.1303 75.1386C47.7393 74.2067 51.6733 73.7188 55.6013 74.3419C55.6092 74.3431 55.6185 74.3444 55.6264 74.3456C55.6415 74.3481 55.6567 74.3502 55.6718 74.3526L55.6707 74.3535C59.303 74.9291 62.9745 76.3714 66.0702 79.137L66.0713 79.1361C66.6438 79.6431 67.1761 80.1763 67.6697 80.7312C68.3567 80.3503 69.0592 79.9944 69.7781 79.6718L69.8173 79.6545C71.5011 78.9069 73.2432 78.2685 75.0228 77.8089C78.2785 76.9683 81.948 76.5134 85.6696 77.162L85.6707 77.1611C86.3208 77.2673 86.9608 77.4054 87.589 77.5752C89.8098 75.0716 92.6213 73.7601 95.0256 73.1393L104.589 70.6693C107.348 69.9569 110.596 69.4454 113.902 69.8702C114.201 69.9048 114.503 69.9442 114.808 69.9947C115.626 69.1282 116.568 68.3459 117.635 67.6794L117.702 67.6377L117.77 67.597C120.299 66.0664 123.094 65.4432 125.816 65.5716C126.795 65.6076 127.72 65.7453 128.588 65.96C130.639 64.0227 133.059 62.9218 135.233 62.3604L135.832 62.2181C137.878 61.7706 140.287 61.6542 142.765 62.2855C143.352 61.7327 144.008 61.2106 144.741 60.736L144.805 60.6948L144.868 60.6547C147.336 59.1046 150.225 58.3121 153.14 58.4459C154.673 58.5214 156.179 58.8286 157.603 59.3764C159.871 56.9553 162.685 55.6673 165.117 55.0395L175.981 52.2344L176.587 52.089C178.643 51.6358 181.099 51.487 183.642 52.104C185.693 49.9256 188.238 48.6734 190.595 48.0647L191.19 47.9231C193.464 47.4304 196.278 47.3532 199.119 48.3862C201.482 45.7327 204.44 44.4892 206.706 43.904L207.099 43.8078Z"/>
</mask>
<path d="M207.099 43.8078C208.986 43.3702 211.386 43.1733 213.982 43.8422C216.98 44.5683 219.416 46.2528 221.153 48.3943L224.516 55.6456L225.152 58.1091L225.462 59.3095L228.538 71.2207C230.758 79.8163 227.193 86.494 218.39 88.7674C216.009 89.3822 212.935 89.5866 209.814 88.4707C207.926 90.5997 205.654 91.8041 203.709 92.4905C203.451 93.2951 203.105 94.1118 202.65 94.9271C202.633 94.9567 202.614 94.9854 202.598 95.0147L196.727 100.472C195.688 100.98 194.674 101.33 193.771 101.564C192.942 101.778 192.043 101.935 191.096 102.006C191.442 102.833 191.701 103.632 191.89 104.365L196.05 120.476C196.752 123.193 197.101 127.112 195.16 131.071C192.883 135.713 188.753 137.733 185.685 138.525C182.433 139.365 178.095 139.392 174.077 136.744C172.987 136.026 172.071 135.208 171.302 134.341C169.48 134.532 167.586 134.538 165.678 134.264L166.959 136.031L163.146 137.015L162.017 143.901L162.016 143.904C161.828 145.052 161.478 146.614 160.741 148.266C160.005 149.919 154.004 156.603 148.007 156.875C145.356 156.996 143.6 156.667 141.331 155.609C138.689 154.377 136.655 152.425 135.301 150.1C134.064 151.007 131.379 152.351 131.379 152.351C133.704 154.578 122.332 163.799 119.544 164.519C116.48 165.31 112.319 165.455 108.322 163.099C106.279 161.895 104.816 160.339 103.769 158.732C101.57 160.031 99.2209 160.952 96.8184 161.572C92.9661 162.567 88.8733 162.81 84.7696 161.845L84.7313 161.835L84.694 161.826C84.5361 161.788 84.3797 161.744 84.2233 161.703C81.9466 164.589 78.8967 166.101 76.2174 166.793C73.9521 167.378 70.9765 167.633 67.9098 166.657C65.6995 168.995 62.974 170.212 60.7092 170.797C57.6447 171.588 53.4833 171.733 49.4867 169.377L49.3649 169.306L49.2454 169.231C45.3844 166.819 43.6113 163.155 42.8567 160.233L38.8041 144.539C38.0207 141.506 37.7948 137.324 40.0715 133.248L40.1339 133.136L40.1991 133.026C40.7123 132.156 41.2889 131.383 41.9091 130.698C41.5616 130.615 41.2154 130.524 40.87 130.427C38.4836 129.792 35.6556 128.459 33.4181 125.776C30.2519 121.979 29.4555 114.837 31.5682 110.529C31.9853 109.679 32.4781 108.904 33.0248 108.199C32.9083 107.849 32.8078 107.507 32.7222 107.176C32.6081 106.734 32.51 106.261 32.4309 105.764C32.0717 105.576 31.7175 105.373 31.3716 105.151C29.0723 103.556 27.2311 101.453 26.1099 98.8681L25.9962 98.607L25.897 98.3396C24.0597 93.4222 25.8229 86.41 29.6354 82.8436L29.6474 82.8332L29.6595 82.8217C31.7193 80.9062 34.0224 79.3194 36.5079 78.035C38.9305 76.7832 41.4797 75.823 44.1303 75.1386C47.7393 74.2067 51.6733 73.7188 55.6013 74.3419C55.6092 74.3431 55.6185 74.3444 55.6264 74.3456C55.6415 74.3481 55.6567 74.3502 55.6718 74.3526L55.6707 74.3535C59.303 74.9291 62.9745 76.3714 66.0702 79.137L66.0713 79.1361C66.6438 79.6431 67.1761 80.1763 67.6697 80.7312C68.3567 80.3503 69.0592 79.9944 69.7781 79.6718L69.8173 79.6545C71.5011 78.9069 73.2432 78.2685 75.0228 77.8089C78.2785 76.9683 81.948 76.5134 85.6696 77.162L85.6707 77.1611C86.3208 77.2673 86.9608 77.4054 87.589 77.5752C89.8098 75.0716 92.6213 73.7601 95.0256 73.1393L104.589 70.6693C107.348 69.9569 110.596 69.4454 113.902 69.8702C114.201 69.9048 114.503 69.9442 114.808 69.9947C115.626 69.1282 116.568 68.3459 117.635 67.6794L117.702 67.6377L117.77 67.597C120.299 66.0664 123.094 65.4432 125.816 65.5716C126.795 65.6076 127.72 65.7453 128.588 65.96C130.639 64.0227 133.059 62.9218 135.233 62.3604L135.832 62.2181C137.878 61.7706 140.287 61.6542 142.765 62.2855C143.352 61.7327 144.008 61.2106 144.741 60.736L144.805 60.6948L144.868 60.6547C147.336 59.1046 150.225 58.3121 153.14 58.4459C154.673 58.5214 156.179 58.8286 157.603 59.3764C159.871 56.9553 162.685 55.6673 165.117 55.0395L175.981 52.2344L176.587 52.089C178.643 51.6358 181.099 51.487 183.642 52.104C185.693 49.9256 188.238 48.6734 190.595 48.0647L191.19 47.9231C193.464 47.4304 196.278 47.3532 199.119 48.3862C201.482 45.7327 204.44 44.4892 206.706 43.904L207.099 43.8078Z" fill="#4147D5"/>
<path d="M207.099 43.8078C208.986 43.3702 211.386 43.1733 213.982 43.8422C216.98 44.5683 219.416 46.2528 221.153 48.3943L224.516 55.6456L225.152 58.1091L225.462 59.3095L228.538 71.2207C230.758 79.8163 227.193 86.494 218.39 88.7674C216.009 89.3822 212.935 89.5866 209.814 88.4707C207.926 90.5997 205.654 91.8041 203.709 92.4905C203.451 93.2951 203.105 94.1118 202.65 94.9271C202.633 94.9567 202.614 94.9854 202.598 95.0147L196.727 100.472C195.688 100.98 194.674 101.33 193.771 101.564C192.942 101.778 192.043 101.935 191.096 102.006C191.442 102.833 191.701 103.632 191.89 104.365L196.05 120.476C196.752 123.193 197.101 127.112 195.16 131.071C192.883 135.713 188.753 137.733 185.685 138.525C182.433 139.365 178.095 139.392 174.077 136.744C172.987 136.026 172.071 135.208 171.302 134.341C169.48 134.532 167.586 134.538 165.678 134.264L166.959 136.031L163.146 137.015L162.017 143.901L162.016 143.904C161.828 145.052 161.478 146.614 160.741 148.266C160.005 149.919 154.004 156.603 148.007 156.875C145.356 156.996 143.6 156.667 141.331 155.609C138.689 154.377 136.655 152.425 135.301 150.1C134.064 151.007 131.379 152.351 131.379 152.351C133.704 154.578 122.332 163.799 119.544 164.519C116.48 165.31 112.319 165.455 108.322 163.099C106.279 161.895 104.816 160.339 103.769 158.732C101.57 160.031 99.2209 160.952 96.8184 161.572C92.9661 162.567 88.8733 162.81 84.7696 161.845L84.7313 161.835L84.694 161.826C84.5361 161.788 84.3797 161.744 84.2233 161.703C81.9466 164.589 78.8967 166.101 76.2174 166.793C73.9521 167.378 70.9765 167.633 67.9098 166.657C65.6995 168.995 62.974 170.212 60.7092 170.797C57.6447 171.588 53.4833 171.733 49.4867 169.377L49.3649 169.306L49.2454 169.231C45.3844 166.819 43.6113 163.155 42.8567 160.233L38.8041 144.539C38.0207 141.506 37.7948 137.324 40.0715 133.248L40.1339 133.136L40.1991 133.026C40.7123 132.156 41.2889 131.383 41.9091 130.698C41.5616 130.615 41.2154 130.524 40.87 130.427C38.4836 129.792 35.6556 128.459 33.4181 125.776C30.2519 121.979 29.4555 114.837 31.5682 110.529C31.9853 109.679 32.4781 108.904 33.0248 108.199C32.9083 107.849 32.8078 107.507 32.7222 107.176C32.6081 106.734 32.51 106.261 32.4309 105.764C32.0717 105.576 31.7175 105.373 31.3716 105.151C29.0723 103.556 27.2311 101.453 26.1099 98.8681L25.9962 98.607L25.897 98.3396C24.0597 93.4222 25.8229 86.41 29.6354 82.8436L29.6474 82.8332L29.6595 82.8217C31.7193 80.9062 34.0224 79.3194 36.5079 78.035C38.9305 76.7832 41.4797 75.823 44.1303 75.1386C47.7393 74.2067 51.6733 73.7188 55.6013 74.3419C55.6092 74.3431 55.6185 74.3444 55.6264 74.3456C55.6415 74.3481 55.6567 74.3502 55.6718 74.3526L55.6707 74.3535C59.303 74.9291 62.9745 76.3714 66.0702 79.137L66.0713 79.1361C66.6438 79.6431 67.1761 80.1763 67.6697 80.7312C68.3567 80.3503 69.0592 79.9944 69.7781 79.6718L69.8173 79.6545C71.5011 78.9069 73.2432 78.2685 75.0228 77.8089C78.2785 76.9683 81.948 76.5134 85.6696 77.162L85.6707 77.1611C86.3208 77.2673 86.9608 77.4054 87.589 77.5752C89.8098 75.0716 92.6213 73.7601 95.0256 73.1393L104.589 70.6693C107.348 69.9569 110.596 69.4454 113.902 69.8702C114.201 69.9048 114.503 69.9442 114.808 69.9947C115.626 69.1282 116.568 68.3459 117.635 67.6794L117.702 67.6377L117.77 67.597C120.299 66.0664 123.094 65.4432 125.816 65.5716C126.795 65.6076 127.72 65.7453 128.588 65.96C130.639 64.0227 133.059 62.9218 135.233 62.3604L135.832 62.2181C137.878 61.7706 140.287 61.6542 142.765 62.2855C143.352 61.7327 144.008 61.2106 144.741 60.736L144.805 60.6948L144.868 60.6547C147.336 59.1046 150.225 58.3121 153.14 58.4459C154.673 58.5214 156.179 58.8286 157.603 59.3764C159.871 56.9553 162.685 55.6673 165.117 55.0395L175.981 52.2344L176.587 52.089C178.643 51.6358 181.099 51.487 183.642 52.104C185.693 49.9256 188.238 48.6734 190.595 48.0647L191.19 47.9231C193.464 47.4304 196.278 47.3532 199.119 48.3862C201.482 45.7327 204.44 44.4892 206.706 43.904L207.099 43.8078Z" stroke="black" stroke-width="16" mask="url(#path-1-outside-1_627_9270)"/>
<path d="M55.2731 119.628C53.1373 120.179 51.1004 120.474 49.1622 120.512C47.2161 120.52 45.4232 120.289 43.7836 119.821C42.9368 119.611 42.2982 119.247 41.8677 118.731C41.4373 118.215 41.1965 117.666 41.1455 117.085C41.0865 116.473 41.1868 115.902 41.4463 115.373C41.7059 114.844 42.1292 114.437 42.7163 114.154C43.3034 113.87 44.0318 113.814 44.9015 113.986C45.7483 114.196 46.6101 114.337 47.4868 114.408C48.3865 114.439 49.3011 114.401 50.2307 114.293C51.1913 114.177 52.1513 113.995 53.1109 113.748C54.6895 113.34 55.9341 112.854 56.8447 112.288C57.7472 111.692 58.3622 111.005 58.6896 110.227C59.017 109.449 59.0528 108.565 58.7971 107.574C58.4614 106.274 57.7802 105.427 56.7537 105.031C55.7192 104.605 54.2733 104.632 52.4161 105.111L47.0767 106.49C46.1171 106.738 45.3143 106.698 44.6682 106.369C44.0451 106.002 43.6136 105.354 43.3738 104.425C43.142 103.528 43.2138 102.783 43.5892 102.191C43.9875 101.56 44.6664 101.12 45.626 100.872L50.1761 99.6973C51.9714 99.2337 53.2224 98.5805 53.9292 97.7376C54.6361 96.8948 54.8216 95.8233 54.4859 94.5233C54.2781 93.7185 53.8816 93.078 53.2964 92.6018C52.7341 92.0866 51.9757 91.7707 51.0211 91.654C50.0974 91.5294 48.9392 91.6469 47.5463 92.0065C46.3701 92.3103 45.2143 92.7573 44.0791 93.3476C42.9439 93.9379 41.9295 94.6126 41.0359 95.3716C40.335 95.9818 39.6591 96.3049 39.008 96.341C38.3879 96.369 37.8208 96.2183 37.3065 95.8889C36.8151 95.5205 36.4471 95.0542 36.2024 94.4901C35.9886 93.918 35.9491 93.3174 36.0838 92.6883C36.2105 92.0282 36.5664 91.4246 37.1514 90.8773C38.4294 89.6889 39.8985 88.6656 41.559 87.8076C43.2194 86.9497 44.9937 86.2769 46.8818 85.7893C49.6057 85.0859 51.9497 84.8934 53.9139 85.2116C55.909 85.5218 57.5312 86.242 58.7805 87.3722C60.0219 88.4714 60.8703 89.9031 61.3259 91.6675C61.8295 93.6175 61.6845 95.4214 60.8909 97.079C60.1283 98.7287 58.8473 100.033 57.0481 100.993L56.8563 100.25C59.1888 100.077 61.154 100.527 62.7518 101.601C64.3726 102.635 65.4667 104.251 66.0342 106.448C66.5298 108.368 66.4896 110.194 65.9137 111.927C65.3299 113.63 64.1553 115.155 62.3901 116.502C60.6479 117.811 58.2756 118.852 55.2731 119.628ZM81.4983 112.856C79.8268 113.287 78.2417 113.35 76.7428 113.044C75.244 112.737 73.9793 112.123 72.9486 111.2C71.918 110.278 71.2229 109.12 70.8632 107.727C70.4316 106.056 70.5252 104.628 71.1441 103.445C71.755 102.231 72.9836 101.171 74.8297 100.265C76.6678 99.3278 79.1965 98.4437 82.4156 97.6124L84.8764 96.977L85.8116 100.599L83.3972 101.222C81.8186 101.63 80.558 102.054 79.6155 102.496C78.6959 102.898 78.0714 103.357 77.7419 103.871C77.4435 104.377 77.3861 104.986 77.57 105.698C77.7938 106.565 78.2717 107.201 79.0037 107.606C79.7666 108.004 80.7207 108.054 81.866 107.759C82.7636 107.527 83.501 107.122 84.078 106.544C84.678 105.926 85.0873 105.21 85.3059 104.394C85.5164 103.547 85.5018 102.66 85.262 101.731L83.8833 96.3915C83.5316 95.0296 82.9743 94.15 82.2113 93.7527C81.4404 93.3244 80.3121 93.3021 78.8263 93.6858C77.9906 93.9016 77.1054 94.2457 76.1709 94.7182C75.2593 95.1517 74.2753 95.7524 73.219 96.5205C72.618 97.0058 72.0344 97.2391 71.4682 97.2202C70.894 97.1704 70.4117 96.9647 70.0212 96.6033C69.6228 96.211 69.3556 95.7517 69.2197 95.2255C69.0758 94.6683 69.0947 94.1021 69.2764 93.527C69.45 92.9208 69.8608 92.402 70.5088 91.9706C71.8117 91.0068 73.0698 90.2527 74.2829 89.7083C75.527 89.156 76.6907 88.7399 77.7741 88.4601C80.1575 87.8447 82.1994 87.6971 83.9 88.0174C85.6235 88.2987 87.06 89.0668 88.2095 90.3218C89.351 91.5458 90.2135 93.2876 90.7969 95.5472L93.4586 105.855C93.7543 107 93.7035 107.954 93.3062 108.717C92.9089 109.48 92.1841 109.997 91.1317 110.269C90.0793 110.541 89.1791 110.443 88.4311 109.976C87.7141 109.501 87.2077 108.69 86.912 107.545L86.4684 105.827L86.8653 106.022C86.9514 107.122 86.7848 108.139 86.3655 109.073C85.9693 109.968 85.3628 110.752 84.5461 111.425C83.7214 112.067 82.7055 112.544 81.4983 112.856ZM103.664 106.587C102.581 106.867 101.669 106.789 100.929 106.352C100.189 105.916 99.6751 105.141 99.3873 104.027L95.275 88.1011C94.9872 86.9868 95.0615 86.0596 95.4977 85.3197C95.934 84.5797 96.6938 84.0698 97.7771 83.7901L107.342 81.3203C109.416 80.7847 111.135 80.6047 112.501 80.7803C113.89 80.9169 114.979 81.362 115.768 82.1158C116.549 82.8386 117.104 83.8346 117.431 85.1036C117.791 86.4965 117.619 87.8121 116.915 89.0504C116.203 90.2577 115.09 91.189 113.576 91.8443L113.396 91.1479C115.51 90.7671 117.194 90.9596 118.448 91.7252C119.702 92.4909 120.537 93.6785 120.953 95.2881C121.456 97.2382 121.086 99.0011 119.842 100.577C118.621 102.114 116.54 103.262 113.6 104.021L103.664 106.587ZM105.649 101.617L111.824 100.023C112.939 99.7348 113.718 99.3023 114.164 98.7251C114.632 98.1089 114.75 97.352 114.518 96.4544C114.287 95.5567 113.821 94.9672 113.121 94.6857C112.444 94.3653 111.548 94.3489 110.434 94.6367L104.258 96.2313L105.649 101.617ZM103.191 92.099L108.949 90.6123C109.877 90.3725 110.549 89.968 110.963 89.3988C111.369 88.7986 111.473 88.1116 111.273 87.3378C111.065 86.533 110.646 85.9974 110.016 85.7309C109.386 85.4643 108.606 85.451 107.678 85.6908L101.921 87.1775L103.191 92.099ZM144.075 96.5975C142.961 96.8852 142.014 96.7995 141.236 96.3403C140.488 95.8731 139.966 95.0669 139.67 93.9216L138.183 88.1643L136.187 88.6799C135.63 88.8237 135.154 89.029 134.761 89.2957C134.391 89.5234 134.079 89.8515 133.827 90.2799C133.566 90.6773 133.345 91.2295 133.165 91.9365L131.674 97.6703C131.448 98.587 131.031 99.2725 130.422 99.727C129.844 100.173 129.198 100.423 128.485 100.475C127.773 100.527 127.101 100.419 126.471 100.153C125.864 99.8475 125.399 99.3897 125.076 98.7797C124.777 98.1307 124.743 97.3633 124.977 96.4776L126.321 91.3265C126.593 90.3319 126.923 89.4377 127.312 88.6438C127.702 87.8499 128.185 87.1638 128.762 86.5856C129.339 86.0074 130.018 85.5679 130.799 85.2672L130.133 87.866L123.249 82.1155C122.539 81.5395 122.116 80.9224 121.979 80.2644C121.842 79.6064 121.915 78.9933 122.197 78.4251C122.503 77.818 122.926 77.3456 123.466 77.008C124.037 76.6624 124.675 76.5141 125.381 76.5629C126.079 76.5807 126.768 76.8817 127.447 77.4657L134.564 83.354L136.793 82.7785L135.426 77.4855C135.13 76.3402 135.196 75.3821 135.624 74.6112C136.084 73.8323 136.87 73.2989 137.985 73.0112C139.099 72.7234 140.046 72.8092 140.825 73.2684C141.604 73.7276 142.141 74.5298 142.437 75.6751L143.803 80.9681L146.032 80.3926L149.362 71.8067C149.673 70.9669 150.126 70.3548 150.72 69.9702C151.345 69.5777 151.976 69.3984 152.612 69.4322C153.279 69.4581 153.877 69.6667 154.408 70.058C154.93 70.4184 155.29 70.9196 155.489 71.5617C155.688 72.2037 155.636 72.9601 155.332 73.8308L152.047 82.207L150.16 80.2676C151.02 80.1447 151.842 80.1965 152.627 80.423C153.412 80.6496 154.167 81.0159 154.892 81.5221C155.64 81.9893 156.362 82.6117 157.058 83.3895L160.728 87.2457C161.33 87.9157 161.642 88.6111 161.663 89.332C161.707 90.014 161.522 90.6396 161.107 91.2089C160.716 91.7391 160.196 92.1541 159.547 92.4538C158.929 92.7454 158.243 92.8399 157.491 92.7371C156.769 92.6264 156.087 92.2246 155.446 91.5317L151.365 87.2367C150.865 86.7055 150.4 86.3137 149.972 86.0611C149.544 85.8086 149.112 85.6723 148.678 85.6524C148.244 85.6325 147.732 85.6985 147.144 85.8504L145.194 86.3539L146.681 92.1112C146.977 93.2565 146.895 94.2186 146.436 94.9975C145.976 95.7764 145.19 96.3098 144.075 96.5975ZM169.571 96.4521C168.643 96.6919 167.844 96.6011 167.173 96.1798C166.511 95.7895 166.052 95.0991 165.797 94.1086L164.37 88.5835C163.818 86.4477 164.595 85.1081 166.7 84.5645L169.532 83.8332L165.737 86.398C166.239 85.1458 166.563 83.9065 166.709 82.6803C166.877 81.4152 166.866 80.0312 166.676 78.5284C166.509 76.9867 166.154 75.1635 165.611 73.0587L164.987 70.6443C164.66 69.3752 164.733 68.3163 165.207 67.4675C165.712 66.6107 166.599 66.0184 167.868 65.6907L178.733 62.8852C180.002 62.5575 181.065 62.6462 181.922 63.1513C182.778 63.6564 183.371 64.5435 183.698 65.8126L188.027 82.5737L183.879 80.1285L187.779 79.1214C188.8 78.8576 189.646 78.9363 190.316 79.3576C191.009 79.74 191.492 80.4573 191.763 81.5097L193.19 87.0349C193.726 89.1087 193.003 90.4014 191.022 90.913C190.062 91.1608 189.248 91.074 188.578 90.6527C187.946 90.2544 187.503 89.56 187.247 88.5695L186.384 85.2266L170.83 89.243L171.693 92.586C172.229 94.6598 171.521 95.9485 169.571 96.4521ZM172.469 83.1243L180.641 81.0142L177.512 68.896L171.29 70.5026L172.009 73.2884C172.449 74.9908 172.714 76.7217 172.805 78.4811C172.897 80.2405 172.784 81.7882 172.469 83.1243ZM199.53 82.2777C198.818 82.4615 198.178 82.4781 197.611 82.3274C197.044 82.1767 196.569 81.8702 196.185 81.408C195.825 80.9068 195.532 80.2228 195.309 79.3561L191.052 62.8736C190.773 61.7902 190.839 60.898 191.253 60.197C191.658 59.465 192.356 58.9711 193.346 58.7153C194.368 58.4516 195.218 58.5458 195.896 58.998C196.597 59.4113 197.087 60.1596 197.367 61.243L200.592 73.7326L199.338 74.0563L206.087 57.8027C206.33 57.2116 206.682 56.5924 207.142 55.9453C207.602 55.2982 208.374 54.8348 209.458 54.555C210.169 54.3712 210.794 54.3586 211.33 54.5173C211.889 54.637 212.349 54.9475 212.709 55.4487C213.093 55.911 213.397 56.5754 213.62 57.4421L217.889 73.9711C218.16 75.0235 218.094 75.9157 217.688 76.6477C217.314 77.3717 216.632 77.8616 215.641 78.1173C214.589 78.3891 213.708 78.3029 212.999 77.8586C212.321 77.4064 211.846 76.6541 211.574 75.6017L208.337 63.0656L209.637 62.7299L202.843 78.9955C202.607 79.6176 202.259 80.2522 201.799 80.8994C201.37 81.5385 200.613 81.9979 199.53 82.2777ZM57.9607 160.147C56.8154 160.442 55.8533 160.361 55.0744 159.902C54.3264 159.434 53.8045 158.628 53.5088 157.483L49.4564 141.79C49.1287 140.52 49.2019 139.462 49.6761 138.613C50.1812 137.756 51.0683 137.164 52.3374 136.836L67.0556 133.035C68.3247 132.708 69.3876 132.796 70.2445 133.301C71.1013 133.807 71.6935 134.694 72.0212 135.963L76.0737 151.656C76.3694 152.801 76.2877 153.763 75.8285 154.542C75.3693 155.321 74.5825 155.855 73.4682 156.142C72.3229 156.438 71.3763 156.352 70.6283 155.885C69.8804 155.418 69.3585 154.612 69.0628 153.466L65.394 139.259L56.8509 141.465L60.5197 155.672C60.8154 156.818 60.7492 157.776 60.3209 158.547C59.8927 159.318 59.1059 159.851 57.9607 160.147ZM94.0692 150.922C91.6239 151.553 89.3643 151.625 87.2903 151.137C85.2472 150.641 83.4986 149.623 82.0445 148.084C80.5904 146.544 79.5477 144.552 78.9162 142.106C78.4447 140.28 78.2996 138.568 78.4811 136.969C78.6626 135.37 79.1477 133.924 79.9363 132.631C80.7479 131.299 81.8286 130.178 83.1785 129.268C84.5204 128.327 86.1044 127.621 87.9307 127.15C90.376 126.518 92.6202 126.45 94.6632 126.946C96.7372 127.434 98.4973 128.433 99.9434 129.941C101.42 131.442 102.475 133.415 103.106 135.86C103.586 137.717 103.719 139.449 103.507 141.056C103.325 142.654 102.844 144.116 102.064 145.44C101.283 146.764 100.206 147.901 98.8334 148.849C97.4835 149.759 95.8955 150.45 94.0692 150.922ZM92.7144 145.675C93.7359 145.411 94.5541 144.936 95.1691 144.249C95.7841 143.562 96.1844 142.682 96.3699 141.611C96.5475 140.509 96.4405 139.199 96.0488 137.682C95.4653 135.423 94.5734 133.887 93.3731 133.074C92.1647 132.23 90.8022 132.004 89.2855 132.396C88.295 132.652 87.4728 133.112 86.8188 133.776C86.1958 134.432 85.7956 135.311 85.618 136.414C85.4634 137.477 85.5819 138.767 85.9736 140.284C86.557 142.544 87.457 144.111 88.6733 144.985C89.8816 145.829 91.2287 146.059 92.7144 145.675ZM116.796 153.869C115.65 154.164 114.688 154.083 113.909 153.623C113.169 153.187 112.648 152.381 112.344 151.205L105.93 126.365C105.634 125.219 105.704 124.277 106.14 123.537C106.599 122.758 107.371 122.229 108.454 121.949C109.599 121.653 110.546 121.739 111.294 122.206C112.034 122.642 112.552 123.433 112.848 124.578L113.663 127.736L112.684 126.057C112.765 124.451 113.386 123.02 114.547 121.762C115.731 120.466 117.236 119.582 119.063 119.11C121.044 118.599 122.901 118.631 124.634 119.207C126.399 119.775 127.927 120.833 129.218 122.382C130.509 123.93 131.471 125.927 132.102 128.372C132.734 130.818 132.863 133.046 132.491 135.057C132.119 137.068 131.314 138.745 130.076 140.088C128.838 141.432 127.213 142.363 125.201 142.882C123.406 143.346 121.7 143.324 120.083 142.817C118.458 142.279 117.215 141.362 116.352 140.066L116.909 139.923L119.355 149.394C119.658 150.571 119.577 151.533 119.11 152.281C118.681 153.051 117.91 153.581 116.796 153.869ZM121.757 138.175C122.747 137.92 123.55 137.448 124.165 136.761C124.811 136.066 125.211 135.187 125.366 134.123C125.544 133.021 125.437 131.711 125.045 130.195C124.461 127.935 123.57 126.399 122.369 125.586C121.161 124.743 119.814 124.513 118.328 124.897C117.338 125.152 116.515 125.612 115.861 126.276C115.238 126.933 114.838 127.812 114.661 128.914C114.475 129.986 114.578 131.28 114.97 132.796C115.553 135.056 116.453 136.623 117.669 137.498C118.878 138.341 120.24 138.567 121.757 138.175ZM148.144 145.773C147.34 145.981 146.618 145.936 145.98 145.639C145.342 145.342 144.885 144.849 144.608 144.161C144.339 143.504 144.275 142.745 144.416 141.883L145.752 134.208L146.496 137.087L133.41 120.358C132.892 119.633 132.592 118.918 132.509 118.213C132.449 117.47 132.646 116.825 133.099 116.278C133.575 115.693 134.324 115.269 135.346 115.005C136.181 114.789 136.899 114.818 137.498 115.093C138.12 115.328 138.788 115.932 139.501 116.903L148.576 129.418L147.091 129.801L149.146 114.363C149.308 113.199 149.604 112.363 150.034 111.856C150.487 111.309 151.178 110.916 152.107 110.677C152.912 110.469 153.602 110.522 154.178 110.835C154.777 111.11 155.211 111.575 155.48 112.232C155.78 112.881 155.848 113.656 155.684 114.557L151.163 142.121C150.971 143.294 150.629 144.142 150.136 144.665C149.675 145.18 149.011 145.55 148.144 145.773ZM182.936 127.875C181.822 128.162 180.887 128.057 180.131 127.559C179.375 127.061 178.841 126.208 178.53 125.001L177.415 120.683C176.698 121.231 175.941 121.691 175.146 122.061C174.381 122.424 173.596 122.709 172.791 122.917C169.324 123.812 166.524 123.644 164.39 122.412C162.248 121.149 160.745 118.846 159.882 115.503L159.139 112.625C158.843 111.479 158.913 110.537 159.349 109.797C159.809 109.018 160.595 108.485 161.71 108.197C162.824 107.909 163.771 107.995 164.55 108.454C165.321 108.882 165.854 109.669 166.15 110.814L166.725 113.043C167.189 114.838 167.865 116.05 168.754 116.679C169.673 117.3 170.984 117.391 172.687 116.951C173.337 116.783 173.925 116.566 174.45 116.298C174.998 115.991 175.464 115.623 175.848 115.194L174.23 108.926C173.59 106.45 174.447 104.908 176.799 104.3C177.976 103.997 178.926 104.098 179.651 104.604C180.399 105.071 180.929 105.908 181.241 107.115L185.401 123.227C185.713 124.434 185.674 125.434 185.285 126.228C184.895 127.022 184.113 127.571 182.936 127.875Z" fill="white"/>
</svg>
