<svg width="217" height="239" viewBox="0 0 217 239" fill="none" xmlns="http://www.w3.org/2000/svg">
<g clip-path="url(#clip0_706_24882)">
<path d="M153.948 131.052L94.8637 164.781C79.1016 173.779 59.045 168.323 50.0662 152.595C41.0874 136.866 46.5864 116.821 62.3485 107.823L121.433 74.094C137.196 65.0959 157.252 70.552 166.231 86.2807C175.21 102.009 169.711 122.054 153.948 131.052Z" fill="#EF0405"/>
<path d="M157.855 85.329C157.19 85.6075 156.511 85.8946 155.977 86.3782C155.291 86.9984 154.909 87.8811 154.325 88.598C152.005 91.4439 147.279 90.9858 144.64 93.5396C143.677 94.472 143.081 95.7319 142.115 96.6617C139.207 99.4592 133.992 98.4447 131.095 101.253C130.25 102.072 129.684 103.155 128.784 103.914C126.266 106.04 122.098 104.954 119.541 107.033C117.879 108.385 117.203 110.867 115.227 111.697C113.884 112.262 112.324 111.871 110.913 112.231C108.363 112.881 107.025 115.69 104.782 117.067C102.517 118.458 99.5018 118.276 97.3536 119.842C95.6121 121.111 94.6539 123.39 92.6624 124.213C91.1862 124.824 89.4353 124.487 87.9904 125.168C85.9025 126.152 85.166 128.881 83.1737 130.046C81.6704 130.924 79.7804 130.728 78.1257 131.268C75.6152 132.089 73.9526 134.479 71.6264 135.73C68.4855 137.421 64.4868 136.867 61.385 138.628C58.3298 140.363 56.7815 143.978 53.8644 145.937C52.1465 147.091 49.9415 147.708 48.0902 148.637C48.5982 149.851 49.1846 151.048 49.8537 152.22L50.2806 152.968C51.0011 154.23 51.7947 155.423 52.6512 156.549C54.5176 156.06 56.307 155.335 57.6377 153.976C58.8664 152.72 59.5683 151.052 60.5964 149.628C62.3361 147.22 65.0593 145.542 67.993 145.073C70.5239 144.667 73.3555 145.062 75.4333 143.559C76.9564 142.458 77.7634 140.514 79.4079 139.604C80.9923 138.727 82.9724 139.021 84.6785 138.416C87.3635 137.464 88.9395 134.47 91.6459 133.582C92.578 133.276 93.5831 133.246 94.515 132.94C98.0766 131.771 99.6314 127.01 103.286 126.179C104.415 125.922 105.613 126.09 106.729 125.782C110.125 124.846 111.593 119.961 115.107 119.737C116.15 119.67 117.191 120.06 118.228 119.933C121.348 119.552 122.392 115.077 125.392 114.135C126.796 113.694 128.337 114.139 129.775 113.832C133.38 113.063 134.857 108.09 138.463 107.326C140.003 107 141.686 107.529 143.137 106.92C145.318 106.005 145.884 103.04 147.877 101.767C149.058 101.013 150.546 100.977 151.873 100.526C155.199 99.3967 157.094 95.8704 160.123 94.0926C162.706 92.5766 165.87 92.4655 168.652 91.3563C168.052 89.7574 167.319 88.1849 166.445 86.6541L166.018 85.9062C165.394 84.8116 164.712 83.7694 163.984 82.777C163.541 82.9496 163.102 83.1324 162.667 83.3148C161.063 83.9861 159.459 84.6577 157.855 85.329Z" fill="white"/>
<path d="M57.0261 140.747C58.0814 139.457 59.1129 138.112 60.4994 137.203C63.604 135.168 68.5859 137.407 71.1208 133.847C71.6348 133.125 71.8664 132.218 72.414 131.523C74.4942 128.882 79.1654 130.964 81.8787 128.999C83.7618 127.635 84.158 124.665 86.2463 123.644C87.8313 122.869 89.8236 123.531 91.4615 122.874C93.7294 121.964 94.5108 118.909 96.733 117.895C98.2387 117.208 100.052 117.629 101.627 117.116C104.663 116.128 105.867 112.079 108.902 111.089C110.735 110.491 112.878 111.16 114.613 110.323C116.827 109.254 117.437 106.222 119.49 104.868C121.908 103.274 125.547 104.492 127.782 102.646C129.136 101.528 129.617 99.5264 131.095 98.581C133.069 97.3184 135.809 98.5152 138.007 97.6988C141.4 96.4381 142.025 91.0773 145.542 90.2026C147.043 89.8295 148.734 90.4188 150.142 89.7859C152.445 88.7507 152.665 85.1082 154.995 84.1328C156.591 83.4644 158.658 84.3272 160.067 83.3239C161.013 82.6507 161.399 81.2806 162.481 80.8569C165.129 79.8193 167.633 83.4253 164.9 85.1436C162.762 86.4882 160.268 86.1708 157.843 86.6013C157.518 86.6591 157.18 86.7283 156.926 86.9378C156.705 87.1202 156.576 87.387 156.452 87.645C155.394 89.8605 155.156 90.8597 152.71 91.5517C150.927 92.0561 148.93 92.2651 147.497 93.5627C146.351 94.6011 146.218 95.7427 144.744 96.3615C143.361 96.9426 143.031 97.1314 141.907 98.2928C140.826 99.4104 139.441 100.247 137.907 100.571C136.753 100.815 135.616 100.518 134.489 101.049C132.364 102.05 131.49 104.609 129.456 105.769C127.224 107.044 125.576 107.336 122.974 107.672C122.108 107.784 121.204 107.911 120.493 108.417C119.994 108.772 119.635 109.284 119.253 109.762C118.335 110.912 116.943 112.8 115.545 113.377C114.189 113.936 112.135 113.751 110.662 114.034C110.238 114.115 109.811 114.205 109.425 114.397C108.917 114.649 108.508 115.064 108.145 115.5C106.655 117.286 105.321 120.12 102.542 119.87C101.288 119.757 99.9625 119.116 98.7558 119.806C98.2089 120.118 97.8353 120.656 97.4805 121.175C96.8589 122.086 96.237 122.997 95.6154 123.907C95.0932 124.672 93.5562 125.636 92.6556 125.879C91.8003 126.109 90.7163 125.757 89.7888 125.986C88.633 126.271 87.5459 126.931 86.8807 127.917C86.651 128.259 86.4734 128.633 86.2333 128.967C85.9598 129.349 85.6109 129.669 85.2652 129.986C83.6157 131.497 82.6702 132.474 80.4157 132.781C78.7745 133.005 77.1113 133.015 75.6075 133.807C74.9714 134.143 74.3822 134.584 73.9469 135.156C73.4302 135.834 73.1521 136.662 72.6934 137.381C71.6534 139.009 69.8351 138.71 68.1486 138.915C65.779 139.204 63.0683 138.549 60.9643 139.985C59.3487 141.087 58.7579 142.978 57.2404 144.162C55.6009 145.441 54.3199 147.068 52.7298 148.397C51.0035 149.84 44.971 151.484 46.3753 147.138C46.7601 145.948 47.9895 145.264 49.1925 144.97C50.3958 144.675 51.6692 144.655 52.8326 144.234C54.4779 143.639 55.7361 142.31 56.8531 140.957C56.9108 140.888 56.9684 140.817 57.0261 140.747Z" fill="#9F0000"/>
<path d="M61.3542 148.331C62.4095 147.041 63.441 145.696 64.8275 144.787C67.9321 142.752 72.914 144.991 75.449 141.431C75.9629 140.709 76.1945 139.802 76.7422 139.107C78.8223 136.466 83.4933 138.547 86.2068 136.583C88.09 135.219 88.4862 132.249 90.5745 131.228C92.1595 130.453 94.1518 131.115 95.7896 130.458C98.0575 129.548 98.8389 126.493 101.061 125.479C102.567 124.792 104.38 125.213 105.955 124.7C108.991 123.712 110.195 119.663 113.23 118.673C115.063 118.075 117.206 118.744 118.941 117.907C121.156 116.838 121.765 113.806 123.819 112.452C126.236 110.858 129.875 112.076 132.11 110.23C133.464 109.112 133.945 107.11 135.423 106.165C137.397 104.902 140.137 106.099 142.335 105.283C145.728 104.022 146.353 98.6613 149.871 97.7866C151.371 97.4135 153.062 98.0028 154.47 97.3699C156.773 96.3346 156.993 92.6921 159.323 91.7168C160.919 91.0484 162.986 91.9109 164.395 90.9079C165.341 90.2347 165.727 88.8645 166.809 88.4409C169.457 87.4032 171.961 91.0093 169.228 92.7276C167.09 94.0721 164.596 93.7548 162.171 94.1853C161.847 94.243 161.508 94.3123 161.254 94.5218C161.033 94.7042 160.904 94.9707 160.78 95.229C159.722 97.4444 159.484 98.4437 157.038 99.1357C155.255 99.6401 153.258 99.8491 151.825 101.147C150.679 102.185 150.546 103.327 149.072 103.946C147.689 104.527 147.36 104.715 146.236 105.877C145.154 106.994 143.769 107.831 142.235 108.155C141.082 108.399 139.944 108.102 138.817 108.633C136.693 109.634 135.818 112.193 133.785 113.353C131.552 114.628 129.904 114.92 127.302 115.256C126.437 115.368 125.532 115.495 124.821 116.001C124.322 116.356 123.963 116.868 123.581 117.346C122.663 118.496 121.271 120.384 119.873 120.961C118.518 121.52 116.463 121.335 114.99 121.618C114.566 121.699 114.139 121.789 113.753 121.981C113.245 122.233 112.836 122.648 112.473 123.084C110.983 124.87 109.649 127.704 106.87 127.454C105.616 127.341 104.291 126.7 103.084 127.39C102.537 127.702 102.163 128.239 101.809 128.759C101.187 129.67 100.565 130.581 99.9435 131.491C99.4213 132.256 97.8843 133.22 96.9836 133.462C96.1284 133.693 95.0444 133.341 94.1168 133.57C92.961 133.855 91.874 134.515 91.2088 135.501C90.9789 135.842 90.8015 136.217 90.5615 136.551C90.2879 136.933 89.939 137.253 89.5932 137.57C87.9439 139.081 86.9983 140.058 84.7437 140.365C83.1026 140.589 81.4394 140.599 79.9356 141.391C79.2996 141.727 78.7102 142.168 78.275 142.74C77.7584 143.418 77.4802 144.246 77.0216 144.965C75.9815 146.593 74.1631 146.294 72.4767 146.499C70.1071 146.788 67.3964 146.133 65.2924 147.569C63.6769 148.671 63.086 150.562 61.5685 151.746C59.929 153.025 58.648 154.652 57.058 155.981C55.3316 157.424 49.2992 159.068 50.7034 154.722C51.0882 153.532 52.3175 152.848 53.5207 152.554C54.724 152.259 55.9974 152.239 57.1607 151.818C58.8061 151.223 60.0643 149.894 61.1812 148.541C61.2388 148.471 61.2966 148.401 61.3542 148.331Z" fill="#9F0000"/>
<path d="M186.452 187.99L127.368 221.719C111.606 230.717 91.549 225.261 82.5701 209.532C73.5913 193.803 79.0903 173.759 94.8524 164.761L153.937 131.032C169.699 122.033 189.756 127.49 198.735 143.218C207.714 158.947 202.215 178.992 186.452 187.99Z" fill="#FFD800"/>
<path d="M190.359 142.267C189.694 142.545 189.015 142.832 188.481 143.316C187.795 143.936 187.413 144.819 186.829 145.536C184.509 148.381 179.783 147.923 177.144 150.477C176.181 151.409 175.585 152.67 174.619 153.599C171.711 156.397 166.496 155.382 163.599 158.191C162.754 159.01 162.188 160.093 161.288 160.852C158.77 162.978 154.602 161.891 152.045 163.971C150.383 165.323 149.707 167.805 147.731 168.635C146.388 169.199 144.828 168.809 143.416 169.169C140.867 169.819 139.529 172.628 137.286 174.004C135.02 175.395 132.006 175.214 129.857 176.78C128.116 178.049 127.158 180.328 125.166 181.151C123.69 181.761 121.939 181.425 120.494 182.106C118.406 183.089 117.67 185.819 115.678 186.983C114.174 187.862 112.284 187.665 110.63 188.206C108.119 189.027 106.457 191.416 104.13 192.668C100.989 194.358 96.9908 193.804 93.8889 195.566C90.8337 197.301 89.2855 200.916 86.3683 202.875C84.6506 204.028 82.4456 204.646 80.5941 205.574C81.1021 206.789 81.6885 207.985 82.3576 209.158L82.7845 209.905C83.505 211.167 84.2986 212.361 85.1552 213.487C87.0215 212.997 88.8109 212.273 90.1417 210.913C91.3703 209.658 92.0723 207.99 93.1004 206.566C94.84 204.157 97.5633 202.48 100.497 202.01C103.028 201.605 105.859 201.999 107.937 200.497C109.46 199.396 110.267 197.451 111.912 196.541C113.496 195.665 115.476 195.959 117.182 195.354C119.867 194.401 121.443 191.408 124.15 190.52C125.082 190.214 126.087 190.183 127.019 189.877C130.581 188.709 132.135 183.948 135.79 183.116C136.919 182.859 138.117 183.027 139.233 182.72C142.629 181.783 144.096 176.899 147.611 176.674C148.655 176.608 149.694 176.997 150.732 176.871C153.852 176.489 154.896 172.015 157.896 171.072C159.299 170.632 160.841 171.076 162.279 170.769C165.884 170 167.361 165.027 170.967 164.264C172.507 163.937 174.19 164.467 175.641 163.858C177.822 162.942 178.388 159.977 180.381 158.705C181.562 157.95 183.05 157.915 184.377 157.464C187.703 156.334 189.598 152.808 192.627 151.03C195.21 149.514 198.374 149.403 201.156 148.294C200.556 146.695 199.823 145.122 198.949 143.592L198.522 142.844C197.898 141.749 197.216 140.707 196.488 139.714C196.045 139.887 195.606 140.07 195.17 140.252C193.567 140.924 191.963 141.595 190.359 142.267Z" fill="white"/>
<path d="M89.5299 197.684C90.5851 196.394 91.6167 195.049 93.0033 194.14C96.1078 192.106 101.09 194.344 103.625 190.784C104.139 190.063 104.37 189.156 104.918 188.46C106.998 185.819 111.669 187.901 114.382 185.936C116.266 184.572 116.662 181.603 118.75 180.582C120.335 179.806 122.327 180.468 123.965 179.811C126.233 178.902 127.015 175.846 129.237 174.832C130.742 174.145 132.556 174.566 134.131 174.053C137.167 173.065 138.371 169.017 141.406 168.027C143.239 167.429 145.381 168.097 147.117 167.26C149.331 166.192 149.941 163.16 151.994 161.806C154.412 160.211 158.051 161.429 160.286 159.584C161.64 158.466 162.121 156.464 163.599 155.518C165.573 154.256 168.313 155.452 170.51 154.636C173.904 153.375 174.528 148.015 178.046 147.14C179.546 146.767 181.238 147.356 182.646 146.723C184.949 145.688 185.169 142.045 187.498 141.07C189.095 140.402 191.161 141.264 192.571 140.261C193.517 139.588 193.903 138.218 194.985 137.794C197.633 136.756 200.137 140.363 197.404 142.081C195.265 143.425 192.771 143.108 190.346 143.539C190.022 143.596 189.684 143.666 189.43 143.875C189.209 144.057 189.079 144.324 188.956 144.582C187.897 146.798 187.66 147.797 185.214 148.489C183.431 148.993 181.434 149.202 180.001 150.5C178.855 151.538 178.722 152.68 177.248 153.299C175.865 153.88 175.535 154.069 174.411 155.23C173.33 156.348 171.945 157.184 170.411 157.509C169.257 157.752 168.12 157.455 166.992 157.986C164.868 158.987 163.994 161.546 161.96 162.707C159.727 163.981 158.08 164.273 155.478 164.609C154.612 164.721 153.707 164.848 152.996 165.354C152.498 165.709 152.139 166.221 151.757 166.699C150.839 167.85 149.447 169.737 148.049 170.314C146.693 170.873 144.639 170.689 143.166 170.971C142.742 171.052 142.315 171.142 141.929 171.334C141.42 171.586 141.012 172.002 140.649 172.437C139.158 174.223 137.825 177.058 135.046 176.807C133.792 176.694 132.466 176.054 131.26 176.743C130.713 177.055 130.339 177.593 129.984 178.112C129.363 179.023 128.741 179.934 128.119 180.844C127.597 181.609 126.06 182.573 125.159 182.816C124.304 183.046 123.22 182.694 122.293 182.923C121.137 183.208 120.05 183.868 119.384 184.855C119.155 185.196 118.977 185.571 118.737 185.905C118.464 186.286 118.115 186.606 117.769 186.923C116.119 188.434 115.174 189.411 112.919 189.718C111.278 189.942 109.615 189.952 108.111 190.745C107.475 191.08 106.886 191.521 106.451 192.093C105.934 192.771 105.656 193.6 105.197 194.318C104.157 195.947 102.339 195.647 100.652 195.853C98.2827 196.141 95.572 195.486 93.468 196.922C91.8525 198.025 91.2616 199.915 89.7441 201.099C88.1046 202.378 86.8238 204.006 85.2338 205.335C83.5074 206.778 77.4748 208.421 78.879 204.076C79.2639 202.885 80.4933 202.201 81.6963 201.907C82.8996 201.612 84.173 201.592 85.3363 201.171C86.9817 200.577 88.2399 199.247 89.3569 197.895C89.4146 197.825 89.4722 197.754 89.5299 197.684Z" fill="#E1BA00"/>
<path d="M93.8581 205.268C94.9134 203.979 95.9449 202.633 97.3314 201.724C100.436 199.69 105.418 201.928 107.953 198.369C108.467 197.647 108.698 196.74 109.246 196.044C111.326 193.403 115.997 195.485 118.711 193.52C120.594 192.156 120.99 189.187 123.078 188.165C124.663 187.391 126.656 188.052 128.294 187.395C130.561 186.486 131.343 183.431 133.565 182.416C135.071 181.729 136.884 182.151 138.459 181.638C141.495 180.649 142.699 176.601 145.734 175.611C147.567 175.013 149.71 175.681 151.445 174.844C153.659 173.776 154.269 170.744 156.322 169.39C158.74 167.795 162.379 169.013 164.614 167.168C165.968 166.05 166.449 164.048 167.927 163.102C169.901 161.84 172.641 163.037 174.839 162.22C178.232 160.96 178.857 155.599 182.374 154.724C183.875 154.351 185.566 154.94 186.974 154.307C189.277 153.272 189.497 149.63 191.827 148.654C193.423 147.986 195.49 148.849 196.899 147.845C197.845 147.172 198.231 145.802 199.313 145.378C201.961 144.341 204.465 147.947 201.732 149.665C199.594 151.01 197.1 150.692 194.675 151.123C194.35 151.181 194.012 151.25 193.758 151.459C193.537 151.642 193.408 151.908 193.284 152.166C192.226 154.382 191.988 155.381 189.542 156.073C187.759 156.578 185.762 156.787 184.329 158.084C183.183 159.123 183.05 160.264 181.576 160.883C180.193 161.464 179.863 161.653 178.739 162.814C177.658 163.932 176.273 164.768 174.739 165.093C173.585 165.337 172.448 165.039 171.321 165.57C169.196 166.571 168.322 169.13 166.288 170.291C164.056 171.565 162.408 171.858 159.806 172.194C158.94 172.305 158.036 172.432 157.325 172.939C156.826 173.293 156.467 173.805 156.085 174.284C155.167 175.434 153.775 177.321 152.377 177.898C151.022 178.458 148.967 178.273 147.494 178.555C147.07 178.636 146.643 178.726 146.257 178.918C145.749 179.171 145.34 179.586 144.977 180.022C143.487 181.807 142.153 184.642 139.374 184.392C138.12 184.278 136.795 183.638 135.588 184.327C135.041 184.639 134.667 185.177 134.313 185.697C133.691 186.607 133.069 187.518 132.447 188.429C131.925 189.193 130.388 190.157 129.488 190.4C128.632 190.63 127.548 190.279 126.621 190.507C125.465 190.793 124.378 191.452 123.713 192.439C123.483 192.78 123.305 193.155 123.065 193.489C122.792 193.87 122.443 194.19 122.097 194.508C120.448 196.019 119.502 196.995 117.248 197.303C115.607 197.526 113.943 197.536 112.44 198.329C111.803 198.664 111.214 199.106 110.779 199.677C110.262 200.355 109.984 201.184 109.525 201.902C108.485 203.531 106.667 203.231 104.981 203.437C102.611 203.725 99.9003 203.071 97.7963 204.506C96.1808 205.609 95.5899 207.5 94.0724 208.683C92.4329 209.962 91.1519 211.59 89.5619 212.919C87.8355 214.362 81.8031 216.006 83.2073 211.66C83.5921 210.469 84.8216 209.785 86.0246 209.491C87.2279 209.197 88.5013 209.176 89.6646 208.756C91.31 208.161 92.5682 206.831 93.6851 205.479C93.7428 205.409 93.8005 205.339 93.8581 205.268Z" fill="#E1BA00"/>
<path d="M121.444 74.1127L62.3598 107.842C46.5977 116.84 26.5411 111.384 17.5623 95.6551C8.58361 79.9267 14.0825 59.8816 29.8446 50.8836L88.9292 17.1546C104.692 8.15643 124.748 13.6126 133.727 29.341C142.706 45.0694 137.207 65.1145 121.444 74.1127Z" fill="#F77F00"/>
<path d="M125.351 28.3896C124.686 28.6678 124.007 28.9552 123.473 29.4385C122.787 30.059 122.405 30.9416 121.821 31.6583C119.501 34.5042 114.775 34.0464 112.136 36.6001C111.173 37.5322 110.577 38.7925 109.611 39.722C106.703 42.5195 101.488 41.5052 98.591 44.3137C97.746 45.1328 97.1796 46.2157 96.2803 46.9749C93.7618 49.1009 89.5943 48.0142 87.0375 50.0938C85.3752 51.4456 84.6987 53.9279 82.7232 54.7579C81.3802 55.3218 79.82 54.9317 78.4085 55.2916C75.8593 55.9416 74.5211 58.7507 72.2783 60.1272C70.0126 61.5182 66.9979 61.3365 64.8495 62.9023C63.1082 64.1718 62.1499 66.4504 60.1585 67.2739C58.6823 67.8842 56.9314 67.5479 55.4864 68.2284C53.3985 69.212 52.662 71.9413 50.6698 73.1061C49.1665 73.985 47.2764 73.788 45.6218 74.3289C43.1113 75.1496 41.4485 77.5389 39.1225 78.791C35.9816 80.4815 31.9828 79.9271 28.8811 81.6888C25.8257 83.4237 24.2776 87.0389 21.3605 88.9978C19.6426 90.1511 17.4376 90.7687 15.5863 91.6974C16.0941 92.9115 16.6807 94.1085 17.3498 95.2806L17.7767 96.0285C18.497 97.2902 19.2908 98.484 20.1473 99.6096C22.0135 99.1201 23.8031 98.3959 25.1337 97.036C26.3625 95.7806 27.0644 94.1124 28.0925 92.6887C29.832 90.2801 32.5553 88.6029 35.4891 88.1333C38.0199 87.728 40.8515 88.122 42.9294 86.6198C44.4523 85.5184 45.2595 83.5741 46.904 82.6643C48.4884 81.788 50.4685 82.0818 52.1745 81.4766C54.8596 80.5244 56.4356 77.5309 59.1419 76.6426C60.0741 76.3366 61.0792 76.3063 62.0111 76.0005C65.5727 74.8316 67.1275 70.0707 70.782 69.2393C71.9108 68.9825 73.1088 69.15 74.2247 68.8426C77.6212 67.9061 79.0886 63.022 82.6035 62.7972C83.6466 62.7304 84.6866 63.1205 85.7242 62.9938C88.8444 62.6122 89.8885 58.1376 92.8885 57.1954C94.2915 56.7546 95.833 57.1993 97.2711 56.8925C100.876 56.1229 102.353 51.1502 105.959 50.3866C107.499 50.0604 109.182 50.59 110.633 49.9809C112.814 49.0653 113.38 46.1002 115.373 44.8276C116.554 44.0735 118.042 44.0374 119.369 43.5868C122.695 42.4572 124.59 38.9309 127.619 37.1528C130.202 35.6371 133.366 35.526 136.148 34.4169C135.548 32.8177 134.815 31.2452 133.941 29.7147L133.515 28.9667C132.89 27.8722 132.208 26.8299 131.48 25.8375C131.037 26.0098 130.598 26.1929 130.162 26.3751C128.559 27.0467 126.955 27.718 125.351 28.3896Z" fill="white"/>
<path d="M24.5222 83.8074C25.5775 82.5178 26.609 81.1723 27.9955 80.2635C31.1001 78.229 36.082 80.4673 38.6169 76.9077C39.1309 76.1858 39.3625 75.2788 39.9101 74.5834C41.9901 71.9422 46.6613 74.024 49.3748 72.0592C51.2579 70.6953 51.6541 67.7259 53.7424 66.7046C55.3273 65.9294 57.3197 66.5911 58.9575 65.9342C61.2255 65.0249 62.0067 61.9694 64.2291 60.9554C65.7346 60.2682 67.5481 60.6894 69.123 60.1764C72.1589 59.1881 73.3631 55.14 76.3981 54.1496C78.2314 53.5516 80.3737 54.2202 82.1089 53.3833C84.3235 52.3147 84.9333 49.2828 86.9865 47.9288C89.4043 46.3344 93.0433 47.5523 95.2781 45.707C96.6318 44.589 97.1132 42.5867 98.5912 41.6413C100.565 40.379 103.305 41.5757 105.503 40.7593C108.896 39.4983 109.521 34.1379 113.038 33.2632C114.539 32.8901 116.23 33.4794 117.638 32.8465C119.941 31.8112 120.161 28.1687 122.491 27.1934C124.087 26.5249 126.154 27.3875 127.563 26.3842C128.509 25.7113 128.895 24.3411 129.977 23.9175C132.625 22.8798 135.129 26.4858 132.396 28.2041C130.258 29.5487 127.764 29.2314 125.339 29.6619C125.014 29.7193 124.676 29.7885 124.422 29.9984C124.201 30.1808 124.072 30.4472 123.948 30.7056C122.89 32.921 122.652 33.9202 120.206 34.6123C118.423 35.1166 116.426 35.3257 114.993 36.6233C113.847 37.6614 113.714 38.8033 112.24 39.4221C110.857 40.0029 110.528 40.192 109.404 41.3534C108.322 42.4709 106.937 43.3076 105.403 43.6318C104.25 43.8757 103.112 43.5782 101.985 44.1094C99.8605 45.1104 98.9863 47.6692 96.9525 48.8298C94.7197 50.1044 93.0722 50.3963 90.4699 50.7325C89.6045 50.8445 88.6998 50.9711 87.9887 51.4773C87.4901 51.8325 87.1311 52.3441 86.7492 52.8223C85.8308 53.9729 84.4393 55.8603 83.0411 56.4372C81.6856 56.9968 79.6309 56.812 78.1579 57.0941C77.7343 57.1752 77.3068 57.2652 76.9209 57.4573C76.4128 57.7098 76.0043 58.1249 75.6408 58.5604C74.1508 60.3462 72.8172 63.181 70.0377 62.9303C68.7842 62.8176 67.4586 62.1769 66.2519 62.8661C65.705 63.1783 65.3313 63.7158 64.9766 64.2357C64.355 65.1463 63.7331 66.0571 63.1115 66.9677C62.5891 67.7322 61.0523 68.6964 60.1515 68.9389C59.2963 69.1691 58.2122 68.8174 57.2847 69.0462C56.129 69.3314 55.042 69.9912 54.3768 70.978C54.1469 71.319 53.9695 71.6939 53.7294 72.028C53.4559 72.4092 53.107 72.7294 52.7611 73.0464C51.1118 74.5578 50.1663 75.5345 47.9117 75.8415C46.2706 76.0651 44.6073 76.0753 43.1036 76.868C42.4675 77.2033 41.8782 77.6444 41.4428 78.2159C40.9263 78.8943 40.6482 79.7228 40.1894 80.441C39.1495 82.0697 37.331 81.7702 35.6447 81.9758C33.2751 82.2645 30.5642 81.6094 28.4603 83.0454C26.8448 84.148 26.254 86.0387 24.7365 87.2224C23.0968 88.5011 21.816 90.1288 20.2259 91.4579C18.4996 92.9008 12.4671 94.5446 13.8714 90.199C14.256 89.0082 15.4855 88.3242 16.6885 88.0298C17.8919 87.7356 19.1653 87.7152 20.3287 87.2946C21.974 86.6999 23.2321 85.3699 24.3492 84.0179C24.4067 83.9479 24.4645 83.8778 24.5222 83.8074Z" fill="#C54D00"/>
<path d="M28.8503 91.3913C29.9056 90.1017 30.937 88.756 32.3236 87.8474C35.4282 85.813 40.4101 88.0512 42.9449 84.4914C43.459 83.7698 43.6906 82.8628 44.2381 82.1671C46.3182 79.5262 50.9894 81.608 53.7029 79.6431C55.5861 78.2793 55.9821 75.3096 58.0706 74.2885C59.6554 73.5134 61.6478 74.1751 63.2857 73.5182C65.5536 72.6089 66.3348 69.5533 68.5572 68.5394C70.0628 67.8522 71.8763 68.2734 73.4512 67.7604C76.4868 66.7719 77.6913 62.724 80.7263 61.7336C82.5595 61.1356 84.7018 61.8042 86.4369 60.967C88.6516 59.8987 89.2614 56.8668 91.3146 55.5128C93.7324 53.9183 97.3714 55.1363 99.6061 53.2907C100.96 52.1729 101.441 50.1707 102.919 49.2253C104.893 47.9627 107.633 49.1597 109.831 48.3433C113.224 47.0823 113.849 41.7216 117.366 40.8469C118.867 40.4741 120.558 41.0633 121.966 40.4304C124.269 39.3949 124.489 35.7527 126.819 34.7771C128.415 34.1089 130.482 34.9715 131.891 33.9682C132.837 33.295 133.223 31.9251 134.305 31.5012C136.953 30.4638 139.457 34.0698 136.724 35.7881C134.586 37.1327 132.092 36.8154 129.667 37.2458C129.342 37.3033 129.004 37.3725 128.75 37.5824C128.53 37.7648 128.4 38.0312 128.276 38.2895C127.218 40.505 126.98 41.5042 124.534 42.1963C122.751 42.7003 120.754 42.9097 119.321 44.2073C118.175 45.2454 118.042 46.3873 116.568 47.0061C115.185 47.5869 114.856 47.7759 113.732 48.9371C112.65 50.0549 111.265 50.8915 109.731 51.2158C108.578 51.4597 107.44 51.1619 106.313 51.6934C104.189 52.6944 103.314 55.2529 101.281 56.4138C99.0478 57.6884 97.4003 57.9803 94.7981 58.3164C93.9326 58.4285 93.0279 58.5551 92.3168 59.0613C91.8182 59.4165 91.4592 59.9281 91.0774 60.4063C90.1589 61.5569 88.7674 63.4443 87.3692 64.0211C86.0135 64.5805 83.959 64.396 82.486 64.6781C82.0624 64.7592 81.6349 64.8492 81.249 65.0412C80.741 65.2938 80.3324 65.7089 79.969 66.1443C78.4789 67.9302 77.1453 70.765 74.3658 70.5143C73.1124 70.4015 71.7867 69.7609 70.58 70.4501C70.0331 70.7623 69.6594 71.2998 69.3047 71.8197C68.6831 72.7303 68.0612 73.6411 67.4396 74.5517C66.9172 75.3162 65.3804 76.2804 64.4797 76.5229C63.6244 76.7531 62.5404 76.4014 61.6128 76.6302C60.4571 76.9154 59.37 77.5749 58.7049 78.562C58.475 78.903 58.2976 79.2778 58.0576 79.612C57.784 79.9932 57.4351 80.3134 57.0893 80.6304C55.44 82.1418 54.4944 83.1185 52.2398 83.4255C50.5987 83.6491 48.9355 83.6593 47.4317 84.452C46.7957 84.7873 46.2063 85.2284 45.7709 85.7999C45.2545 86.4783 44.9763 87.3068 44.5175 88.025C43.4776 89.6537 41.6591 89.3541 39.9727 89.5595C37.603 89.8482 34.8923 89.1934 32.7885 90.6294C31.173 91.732 30.5819 93.6224 29.0644 94.8061C27.4249 96.0851 26.1441 97.7128 24.5541 99.0419C22.8277 100.485 16.7953 102.129 18.1995 97.783C18.5842 96.5922 19.8136 95.9081 21.0166 95.6138C22.22 95.3196 23.4933 95.2989 24.6568 94.8786C26.3022 94.2839 27.5602 92.9539 28.6773 91.6019C28.7349 91.5319 28.7927 91.4618 28.8503 91.3913Z" fill="#C54D00"/>
<path d="M116.691 103.273C113.105 98.4175 107.413 99.3201 107.172 99.3608C106.682 99.4437 106.352 99.908 106.434 100.397C106.516 100.886 106.979 101.214 107.467 101.133C107.592 101.112 109.418 100.836 111.484 101.558C110.786 102.64 108.942 105.275 106.054 107.804C101.229 112.028 95.867 114.016 90.1135 113.729C90.5468 111.601 91.702 110.183 91.7822 110.087C92.101 109.707 92.0528 109.142 91.6742 108.823C91.2949 108.503 90.727 108.552 90.4065 108.932C90.2492 109.118 86.5777 113.561 88.9358 119.118C89.1298 119.574 89.6577 119.787 90.115 119.592C90.1482 119.578 90.1798 119.563 90.2104 119.545C90.601 119.322 90.7721 118.837 90.5922 118.414C90.1603 117.396 89.9781 116.422 89.9542 115.523C94.3802 115.752 98.6958 114.695 102.675 112.423C104.27 111.513 105.812 110.407 107.284 109.113C110.501 106.285 112.456 103.397 113.115 102.345C113.865 102.821 114.596 103.467 115.243 104.342C115.516 104.712 116.021 104.811 116.411 104.588C116.442 104.571 116.471 104.551 116.5 104.53C116.9 104.235 116.986 103.672 116.691 103.273Z" fill="#252525"/>
<path d="M80.8933 113.366C82.3712 115.955 81.4661 119.255 78.8713 120.736C76.2765 122.217 72.9747 121.319 71.4968 118.73C70.0187 116.14 70.9238 112.84 73.5186 111.359C76.1134 109.878 79.4152 110.776 80.8933 113.366Z" fill="#F9696A"/>
<path d="M52.0376 51.8809C53.5157 54.4702 52.6105 57.7699 50.0157 59.2511C47.4209 60.7324 44.1192 59.8342 42.6411 57.245C41.1631 54.6557 42.0683 51.356 44.6631 49.8747C47.2579 48.3935 50.5595 49.2917 52.0376 51.8809Z" fill="#F9696A"/>
<path d="M85.1431 32.9825C86.6212 35.5717 85.716 38.8714 83.1212 40.3527C80.5264 41.834 77.2247 40.9358 75.7466 38.3466C74.2685 35.7573 75.1738 32.4576 77.7686 30.9763C80.3633 29.4951 83.665 30.3932 85.1431 32.9825Z" fill="#F9696A"/>
<path d="M76.9664 113.765C76.5895 113.98 76.1012 113.916 75.7949 113.584C75.4388 113.198 75.4638 112.596 75.8508 112.24L80.3796 108.067L73.7036 106.554C73.1911 106.437 72.8704 105.928 72.9876 105.415C73.105 104.903 73.616 104.582 74.1287 104.698L82.0468 106.493C82.4944 106.594 82.8465 106.933 82.9643 107.376C83.0823 107.82 82.9455 108.289 82.6073 108.601L77.1408 113.637C77.0864 113.687 77.0278 113.73 76.9664 113.765Z" fill="#252525"/>
<path d="M116.227 93.1945C117.705 95.7835 121.007 96.6819 123.602 95.2006C126.197 93.7194 127.102 90.4194 125.624 87.8304C124.146 85.2412 120.844 84.3427 118.249 85.824C115.654 87.3052 114.749 90.6052 116.227 93.1945Z" fill="#F9696A"/>
<path d="M118.567 90.0171C118.505 90.0524 118.439 90.0809 118.368 90.1022L111.252 92.2488C110.812 92.3818 110.338 92.261 110.016 91.9338C109.694 91.6068 109.582 91.1316 109.722 90.6943L112.202 82.9636C112.362 82.4628 112.899 82.1862 113.4 82.3457C113.901 82.5054 114.177 83.0407 114.016 83.541L111.925 90.059L117.821 88.2808C118.325 88.1288 118.856 88.4133 119.007 88.9161C119.137 89.3486 118.944 89.802 118.567 90.0171Z" fill="#252525"/>
<path d="M113.338 170.207C114.817 172.796 113.911 176.096 111.317 177.578C108.722 179.059 105.42 178.16 103.942 175.571C102.464 172.982 103.369 169.682 105.964 168.201C108.559 166.72 111.86 167.618 113.338 170.207Z" fill="#F9696A"/>
<path d="M109.416 170.607C109.039 170.822 108.55 170.758 108.244 170.426C107.888 170.04 107.913 169.438 108.3 169.081L112.829 164.909L106.153 163.395C105.64 163.279 105.32 162.769 105.437 162.257C105.554 161.745 106.065 161.424 106.578 161.54L114.496 163.335C114.944 163.436 115.296 163.775 115.413 164.218C115.532 164.662 115.395 165.131 115.057 165.443L109.59 170.479C109.536 170.529 109.477 170.572 109.416 170.607Z" fill="#252525"/>
<path d="M148.676 150.036C150.154 152.625 153.456 153.524 156.051 152.042C158.646 150.561 159.551 147.261 158.073 144.672C156.595 142.083 153.293 141.185 150.698 142.666C148.103 144.147 147.198 147.447 148.676 150.036Z" fill="#F9696A"/>
<path d="M151.016 146.859C150.954 146.894 150.888 146.923 150.818 146.944L143.702 149.091C143.261 149.224 142.787 149.103 142.465 148.776C142.143 148.449 142.031 147.973 142.171 147.536L144.651 139.805C144.812 139.305 145.348 139.028 145.849 139.188C146.35 139.347 146.626 139.882 146.465 140.383L144.374 146.901L150.27 145.123C150.774 144.971 151.305 145.255 151.456 145.758C151.586 146.19 151.393 146.644 151.016 146.859Z" fill="#252525"/>
<path d="M70.6737 34.6552C71.9226 36.8429 71.8353 39.2443 70.4789 40.0187C69.1224 40.793 67.0102 39.6472 65.7613 37.4595C64.5125 35.2718 64.5997 32.8704 65.9562 32.0961C67.3126 31.3217 69.4248 32.4675 70.6737 34.6552Z" fill="#252525"/>
<path d="M69.7685 33.408C68.8841 32.4323 67.8322 31.8618 66.9124 31.8585C66.758 32.3492 66.861 33.044 67.234 33.6972C67.7883 34.6683 68.7261 35.177 69.3283 34.8332C69.7332 34.602 69.8823 34.044 69.7685 33.408Z" fill="white"/>
<path d="M54.9588 43.624C56.2077 45.8117 56.1205 48.2131 54.764 48.9874C53.4076 49.7618 51.2954 48.616 50.0465 46.4282C48.7976 44.2405 48.8849 41.8392 50.2413 41.0648C51.5978 40.2905 53.71 41.4363 54.9588 43.624Z" fill="#252525"/>
<path d="M54.0575 42.3767C53.1731 41.401 52.1212 40.8306 51.2012 40.8274C51.047 41.3179 51.1501 42.0127 51.523 42.666C52.0774 43.6371 53.0151 44.1457 53.6173 43.802C54.0222 43.5708 54.1713 43.0127 54.0575 42.3767Z" fill="white"/>
<path d="M70.3132 55.4864C64.7832 58.6433 58.3667 59.4423 52.2359 57.7352C51.5607 57.5471 51.1668 56.8479 51.3563 56.1728C51.5456 55.4982 52.2466 55.1032 52.922 55.2912C58.3935 56.8145 64.1205 56.1013 69.0558 53.2839L69.1111 53.2523C74.0593 50.4086 77.5793 45.8052 79.0228 40.29C79.2003 39.6117 79.8946 39.205 80.5728 39.381C81.2514 39.5568 81.6575 40.2494 81.4803 40.9275C79.8627 47.1069 75.9192 52.2647 70.3749 55.4512L70.3132 55.4864Z" fill="#252525"/>
<path d="M139.085 158.684C141.258 162.491 139.927 167.343 136.111 169.522C132.296 171.7 127.441 170.379 125.267 166.572C123.094 162.764 124.425 157.912 128.241 155.734C132.056 153.556 136.911 154.877 139.085 158.684Z" fill="#252525"/>
</g>
<defs>
<clipPath id="clip0_706_24882">
<rect width="137" height="197" fill="white" transform="translate(0 67.9201) rotate(-29.7203)"/>
</clipPath>
</defs>
</svg>
