<svg width="178" height="201" viewBox="0 0 178 201" fill="none" xmlns="http://www.w3.org/2000/svg">
<g clip-path="url(#clip0_1071_12330)">
<path d="M118.48 52.1466L63.143 84.1467L64.0315 94.3772L94.4894 119.967L39.5833 150.737L40.4718 160.967L146.201 130.058L145.313 119.827L109.973 99.6192L145.213 74.6069L144.325 64.3764L118.48 52.1466Z" fill="#E1BA00"/>
<path d="M117.592 41.9161L63.143 84.1467L93.6008 109.736L39.5833 150.737L145.313 119.827L109.084 89.3887L144.325 64.3764L117.592 41.9161Z" fill="#FFD800"/>
</g>
<g clip-path="url(#clip1_1071_12330)">
<path d="M36.512 8.2439L12.6871 41.5975L15.9181 47.335L40.4849 54.2007L16.5857 86.7218L19.8167 92.4593L73.3519 46.3826L70.1209 40.6452L44.1304 38.216L58.0744 14.27L54.8434 8.53257L36.512 8.2439Z" fill="#E1BA00"/>
<path d="M33.281 2.50645L12.6871 41.5975L37.2539 48.4633L16.5857 86.7218L70.1209 40.6452L40.8994 32.4785L54.8434 8.53257L33.281 2.50645Z" fill="#FFD800"/>
</g>
<defs>
<clipPath id="clip0_1071_12330">
<rect width="93.3075" height="140.869" fill="white" transform="translate(106.473 32.5742) rotate(40.036)"/>
</clipPath>
<clipPath id="clip1_1071_12330">
<rect width="59.8304" height="90.3275" fill="white" transform="translate(24.3125) rotate(15.6143)"/>
</clipPath>
</defs>
</svg>
