<svg width="264" height="176" viewBox="0 0 264 176" fill="none" xmlns="http://www.w3.org/2000/svg">
<path d="M74.4121 163.816C74.425 163.808 74.4384 163.8 74.4513 163.791L74.4511 163.79C74.4556 163.787 74.4605 163.785 74.4651 163.782C74.4924 163.764 74.5187 163.747 74.5433 163.73C74.5446 163.729 74.5465 163.729 74.5478 163.728L75.3915 163.157C78.0036 163.062 80.3701 162.483 82.3386 161.736C85.7295 160.45 90.1393 157.826 93.0243 152.911C98.309 154.616 103.283 153.791 106.864 152.433C108.112 151.959 109.459 151.317 110.81 150.469C112.348 150.216 113.773 149.811 115.056 149.324C116.883 148.631 119.33 147.442 121.661 145.421C124.112 144.6 126.663 143.921 129.424 143.178C132.498 142.35 135.834 141.442 139.079 140.21C140.361 139.724 141.696 139.08 143.015 138.243C144.591 137.981 146.05 137.566 147.353 137.072C149.875 136.115 153.029 134.419 155.709 131.533C159.6 131.925 163.637 131.269 167.383 129.37L167.936 129.079C169.778 128.077 171.456 126.817 172.928 125.328C177.07 125.251 181.051 124.385 184.77 122.974L184.771 122.974C188.67 121.494 192.411 119.373 195.719 116.445L195.733 116.432L195.749 116.418L195.86 116.318L195.872 116.308L195.884 116.297C195.899 116.283 195.913 116.268 195.928 116.254C199.675 116.646 203.081 115.931 205.733 114.925C210.108 113.265 214.019 110.196 216.484 105.969C219.845 106.733 223.372 106.232 226.263 105.5C230.26 104.487 234.379 102.685 237.956 100.826C241.564 98.9507 244.84 96.9016 247.193 95.2483C248.352 94.4339 249.39 93.6436 250.16 92.9661C250.499 92.6672 251.013 92.1957 251.455 91.6344C251.616 91.4301 252.164 90.7332 252.495 89.714C252.544 89.5622 252.599 89.366 252.649 89.1329C253.37 86.9138 253.478 84.5357 253.329 82.3519C253.154 79.8052 252.598 77.0831 251.806 74.3631C250.223 68.9239 247.547 62.9945 244.31 57.6454C241.099 52.3388 237.124 47.2519 232.774 43.7661C228.609 40.4293 222.723 37.5345 216.554 39.8744C214.97 40.4754 213.361 41.2842 211.823 42.3327C209.93 42.5685 208.208 43.04 206.728 43.6014C204.014 44.6312 200.417 46.5544 197.514 50.1621C197.175 50.4732 196.952 50.7469 196.848 50.8767C196.456 51.367 196.164 51.8762 195.996 52.1852C195.542 52.0535 195.074 51.934 194.593 51.8306L194.594 51.8303C194.584 51.828 194.573 51.8258 194.563 51.8235C194.552 51.8211 194.541 51.8188 194.529 51.8164L194.528 51.8167C188.058 50.3913 181.055 52.3364 176.05 56.5189L163.47 53.0769C163.283 52.887 163.098 52.7024 162.913 52.526L156.69 46.4505L156.689 46.4496L156.148 45.9131C154.884 44.6449 153.62 43.2616 152.242 41.7546C150.708 40.0774 149.036 38.2502 147.264 36.5334C143.771 33.148 139.432 29.725 133.84 28.2227C133.82 28.2165 133.797 28.2092 133.773 28.2023C133.735 28.1913 133.569 28.1458 133.349 28.0987C124.774 26.0107 115.61 29.6039 110.575 36.6523L110.562 36.6715L110.505 36.7522L110.474 36.7945L110.445 36.8374L110.39 36.9207L110.39 36.9217C110.362 36.963 110.334 37.0045 110.306 37.0459C109.628 36.8995 108.9 36.7601 108.242 36.6763C107.853 36.6267 107.182 36.5542 106.461 36.5993C106.294 36.6098 106.01 36.6333 105.654 36.7001C98.2133 36.6946 91.5354 39.4027 85.8879 42.8898L85.8624 42.9048L85.838 42.9206C82.6017 44.9656 78.9096 47.8926 76.3406 51.8746C75.3869 51.6369 74.4183 51.4435 73.4366 51.2937C73.2236 51.256 73.0747 51.2404 73.0574 51.2386C73.0486 51.2376 73.0398 51.2365 73.0316 51.2356C70.8911 50.9658 68.3774 51.2638 66.1973 51.6581C63.7735 52.0964 61.1028 52.7813 58.5275 53.5847C55.9516 54.3883 53.3662 55.3436 51.1222 56.357C49.0261 57.3036 46.7182 58.5221 45.1044 59.9892C44.6265 60.4182 44.1623 60.861 43.7116 61.3167C41.1392 61.16 38.5254 61.2954 35.9047 61.7757L35.9056 61.7755C35.8925 61.7778 35.8793 61.7805 35.8662 61.7828C35.8601 61.7839 35.854 61.7849 35.8479 61.7861L35.847 61.7863C25.469 63.611 14.6621 69.6361 9.24065 79.9397C8.84384 80.376 8.58275 80.7822 8.4313 81.0354C7.93458 81.8656 7.62961 82.7491 7.44967 83.3245C7.05408 84.5895 6.73393 86.1333 6.48937 87.4967C6.0288 90.0644 5.64282 93.1421 5.61175 94.1999L5.6089 94.2006L5.60712 94.2442L5.60463 94.3401L5.60595 94.4351L5.6063 94.4791C5.58305 99.0182 6.51571 103.326 8.01796 107.286C9.99221 112.49 13.0886 117.411 17.6621 121.347C19.3635 122.811 21.1857 124.061 23.1045 125.097C21.8589 128.548 21.2584 132.124 21.231 135.715L21.2301 135.732L21.2301 135.749L21.2306 135.802L21.2298 135.875L21.2301 135.906L21.2302 135.936C21.2543 140.372 22.1714 144.593 23.6541 148.502C25.6212 153.687 28.6837 158.61 33.2093 162.569L33.2103 162.569L33.251 162.605L33.3172 162.665L33.3849 162.722L33.4011 162.735L33.4013 162.736C38.0773 166.725 43.634 169.142 49.6508 169.924C58.4003 171.061 67.3632 168.526 74.3992 163.825M74.4121 163.816C74.391 163.83 74.3715 163.841 74.3543 163.852C74.3456 163.858 74.3372 163.864 74.3282 163.869L74.3992 163.825M74.4121 163.816C74.4077 163.819 74.4035 163.823 74.3992 163.825M74.4121 163.816C74.4149 163.815 74.418 163.813 74.4209 163.811C74.4134 163.816 74.4062 163.821 74.3992 163.825" fill="#4147D5" stroke="#252525" stroke-width="11.208"/>
<path d="M45.5507 110.632C42.1748 111.912 39.0629 112.375 36.2151 112.019C33.3952 111.653 30.9427 110.572 28.8578 108.778C26.7729 106.984 25.1588 104.58 24.0157 101.567C23.1267 99.2231 22.6903 96.9791 22.7065 94.8345C22.7401 92.6515 23.2004 90.6258 24.0874 88.7574C24.9638 86.8611 26.2741 85.1831 28.0183 83.7235C29.7798 82.2255 31.944 80.9896 34.5108 80.0158C35.9059 79.4866 37.3817 79.0863 38.9384 78.815C40.4844 78.5157 42.0926 78.4641 43.7628 78.6603C44.6152 78.72 45.2834 79.009 45.7674 79.5276C46.2686 80.0076 46.5905 80.6037 46.7329 81.3156C46.8926 81.9891 46.883 82.6789 46.7041 83.3851C46.5425 84.0528 46.1779 84.606 45.6103 85.0447C45.0321 85.4556 44.2696 85.6331 43.3229 85.5774C42.3377 85.5043 41.3198 85.5553 40.2692 85.7305C39.208 85.8777 38.1334 86.1577 37.0453 86.5705C35.176 87.2796 33.7405 88.2072 32.739 89.3531C31.7655 90.4884 31.2205 91.8281 31.1041 93.3723C30.9878 94.9165 31.2895 96.6372 32.0092 98.5344C33.0888 101.38 34.6013 103.264 36.5467 104.186C38.4921 105.107 40.8319 105.049 43.5661 104.012C44.4031 103.695 45.2782 103.267 46.1912 102.729C47.1321 102.181 48.0465 101.562 48.9345 100.874L48.6071 104.302L45.8922 97.1455L42.9627 98.2568C42.014 98.6167 41.1847 98.66 40.4747 98.3868C39.7925 98.103 39.2874 97.5287 38.9593 96.6638C38.6312 95.7989 38.6336 95.048 38.9664 94.411C39.3166 93.7356 39.966 93.218 40.9146 92.8581L47.1085 90.5084C48.085 90.138 48.9249 90.1225 49.6282 90.4621C50.3489 90.7632 50.8944 91.4021 51.2648 92.3786L54.7735 101.628C55.091 102.465 55.1796 103.245 55.0391 103.968C54.9266 104.681 54.5413 105.306 53.8833 105.843C52.7413 106.787 51.4507 107.675 50.0114 108.509C48.5722 109.342 47.0853 110.05 45.5507 110.632ZM73.8865 99.8823C70.9012 101.015 68.0404 101.382 65.3042 100.984C62.5574 100.558 60.1222 99.4389 57.9988 97.6273C55.9033 95.8052 54.2787 93.3736 53.125 90.3324C52.2571 88.0446 51.8173 85.8337 51.8057 83.6998C51.822 81.5553 52.2317 79.5647 53.035 77.728C53.8662 75.8807 55.0702 74.2591 56.647 72.863C58.2132 71.439 60.1124 70.3037 62.3444 69.457C65.3297 68.3244 68.1766 67.9626 70.8849 68.3714C73.6211 68.7695 76.0509 69.8744 78.1744 71.686C80.2872 73.4696 81.9258 75.8959 83.09 78.965C83.9579 81.2528 84.3837 83.469 84.3675 85.6135C84.3791 87.7474 83.9746 89.752 83.154 91.6271C82.3508 93.4638 81.166 95.0941 79.5998 96.5181C78.023 97.9142 76.1185 99.0356 73.8865 99.8823ZM71.4416 93.4373C72.9203 92.8764 74.0435 92.0513 74.8112 90.9622C75.5789 89.8731 75.993 88.567 76.0536 87.044C76.1141 85.521 75.7951 83.8388 75.0966 81.9974C74.0487 79.2352 72.6199 77.3197 70.8102 76.2509C69.0004 75.1821 66.9935 75.0658 64.7894 75.9019C63.3385 76.4523 62.2153 77.2774 61.4197 78.3771C60.6414 79.4383 60.222 80.7304 60.1615 82.2534C60.0903 83.7485 60.4093 85.4307 61.1185 87.3001C62.1663 90.0622 63.6004 91.9916 65.4207 93.0883C67.2305 94.1571 69.2374 94.2735 71.4416 93.4373ZM110.831 85.8671C109.018 86.5551 107.266 87.028 105.577 87.2859C103.915 87.5333 102.321 87.5795 100.794 87.4247C99.8753 87.3583 99.132 87.0817 98.5644 86.595C98.0246 86.0976 97.6662 85.5314 97.4892 84.8964C97.3121 84.2614 97.3289 83.6327 97.5396 83.0102C97.7503 82.3877 98.1447 81.8711 98.7229 81.4602C99.3011 81.0494 100.064 80.8719 101.01 80.9276C101.73 80.9738 102.462 80.9675 103.205 80.9088C103.949 80.85 104.699 80.7249 105.457 80.5335C106.242 80.3314 106.997 80.0927 107.722 79.8176C109.006 79.3307 110.01 78.8222 110.734 78.292C111.448 77.734 111.905 77.1298 112.105 76.4794C112.305 75.829 112.262 75.1271 111.976 74.3738C111.617 73.4252 111.017 72.8547 110.178 72.6623C109.357 72.4315 108.234 72.5859 106.811 73.1257L102.417 74.7927C101.413 75.1738 100.55 75.2137 99.8295 74.9126C99.1089 74.6115 98.5634 73.9727 98.1929 72.9962C97.833 72.0476 97.8229 71.2216 98.1625 70.5183C98.5021 69.815 99.1741 69.2728 100.179 68.8918L103.778 67.5264C105.201 66.9867 106.148 66.3718 106.621 65.682C107.093 64.9921 107.149 64.1729 106.789 63.2243C106.567 62.6384 106.218 62.1805 105.742 61.8505C105.255 61.4926 104.634 61.3291 103.88 61.3599C103.115 61.3628 102.189 61.5707 101.1 61.9834C100.18 62.3327 99.2681 62.7902 98.3657 63.356C97.4527 63.8938 96.6465 64.5029 95.947 65.1831C95.2476 65.8633 94.5506 66.2554 93.856 66.3594C93.1508 66.4354 92.5129 66.3103 91.9424 65.9842C91.3612 65.6302 90.9124 65.1622 90.5958 64.5801C90.2687 63.9701 90.1475 63.314 90.2321 62.6117C90.3446 61.8987 90.714 61.232 91.3403 60.6114C92.4082 59.4722 93.6373 58.4634 95.0274 57.585C96.4455 56.6959 97.9916 55.9339 99.6656 55.2988C102.149 54.3569 104.346 53.9224 106.256 53.9954C108.195 54.0579 109.802 54.5494 111.077 55.4701C112.351 56.3908 113.28 57.6184 113.862 59.1529C114.518 60.8827 114.577 62.552 114.038 64.1606C113.527 65.7587 112.506 67.1037 110.973 68.1958L110.719 67.5262C112.866 67.1268 114.721 67.3485 116.285 68.1912C117.85 69.034 119.002 70.4318 119.743 72.3849C120.389 74.0868 120.519 75.7767 120.135 77.4546C119.778 79.1219 118.836 80.6762 117.308 82.1175C115.78 83.5588 113.621 84.8087 110.831 85.8671ZM126.333 79.8907C125.468 80.2188 124.668 80.2987 123.934 80.1303C123.19 79.9341 122.615 79.5137 122.211 78.8691C121.796 78.1966 121.615 77.3399 121.667 76.2989L123.578 49.9138C123.667 48.6351 123.98 47.6071 124.514 46.8297C125.077 46.0417 125.833 45.4678 126.782 45.108C127.73 44.7481 128.648 44.687 129.537 44.9246C130.452 45.1516 131.382 45.7086 132.325 46.5956L151.255 65.0743C152.04 65.7978 152.501 66.5487 152.636 67.327C152.8 68.0947 152.663 68.785 152.225 69.3979C151.815 70.0002 151.192 70.4601 150.355 70.7776C149.239 71.201 148.279 71.278 147.474 71.0087C146.698 70.7287 145.861 70.1207 144.963 69.1846L140.687 64.7269L144.426 65.75L127.184 72.291L129.346 69.0294L129.102 75.2018C129.023 76.5083 128.814 77.5132 128.474 78.2165C128.135 78.9198 127.421 79.4779 126.333 79.8907ZM129.889 53.5517L129.432 66.9859L127.498 65.4216L139.677 60.8016L139.267 63.255L129.973 53.5199L129.889 53.5517ZM60.9898 151.834C57.7255 153.073 54.6834 153.509 51.8634 153.142C49.0435 152.776 46.5718 151.687 44.4484 149.875C42.3529 148.053 40.723 145.608 39.5587 142.539C38.6908 140.251 38.2511 138.04 38.2394 135.906C38.2557 133.761 38.6794 131.766 39.5106 129.918C40.3697 128.06 41.6295 126.418 43.29 124.99C44.9678 123.523 47.0204 122.33 49.4477 121.409C50.7311 120.922 52.1146 120.573 53.5982 120.361C55.099 120.111 56.4907 120.078 57.7732 120.261C58.7132 120.384 59.4583 120.707 60.0087 121.233C60.559 121.758 60.9054 122.376 61.0478 123.088C61.2181 123.79 61.2085 124.48 61.019 125.158C60.8295 125.836 60.4649 126.389 59.9252 126.818C59.3749 127.218 58.6682 127.374 57.8052 127.287C56.82 127.214 55.8719 127.238 54.9608 127.36C54.067 127.444 53.1737 127.655 52.2809 127.994C50.5511 128.65 49.2273 129.535 48.3095 130.65C47.409 131.725 46.9039 133.002 46.7943 134.48C46.6847 135.958 46.9792 137.617 47.6777 139.459C48.3763 141.3 49.262 142.751 50.3348 143.812C51.397 144.846 52.627 145.48 54.025 145.716C55.4402 145.913 57.0128 145.683 58.7426 145.027C59.468 144.752 60.2174 144.372 60.9909 143.887C61.7539 143.374 62.4658 142.769 63.1267 142.071C63.8261 141.391 64.5285 141.013 65.2337 140.937C65.9668 140.85 66.6239 140.984 67.205 141.338C67.814 141.682 68.3014 142.167 68.667 142.794C69.022 143.394 69.1678 144.072 69.1044 144.831C69.0688 145.578 68.7624 146.285 68.1852 146.951C67.4309 147.907 66.3919 148.828 65.0681 149.713C63.7722 150.587 62.4128 151.295 60.9898 151.834ZM76.3372 145.917C75.2212 146.34 74.2398 146.361 73.3932 145.98C72.5744 145.589 71.9533 144.835 71.53 143.719L62.7186 120.492C62.2846 119.348 62.2774 118.361 62.6968 117.532C63.1057 116.675 63.896 116.024 65.0678 115.579C66.0444 115.209 66.8857 115.113 67.5919 115.292C68.3154 115.432 69.0784 115.845 69.8808 116.53L85.0069 129.271L83.5421 129.827L86.3699 110.275C86.544 109.219 86.8412 108.404 87.2617 107.83C87.6994 107.217 88.4065 106.726 89.383 106.355C90.499 105.932 91.4664 105.916 92.2852 106.307C93.1213 106.66 93.7563 107.409 94.1902 108.553L103.002 131.78C103.425 132.896 103.46 133.872 103.107 134.708C102.754 135.544 102.006 136.179 100.862 136.613C99.7456 137.036 98.7643 137.058 97.9176 136.677C97.0988 136.285 96.4778 135.531 96.0544 134.415L90.5929 120.019L91.4718 119.685L89.1792 133.96C89.0215 134.722 88.7776 135.341 88.4476 135.817C88.1456 136.283 87.6318 136.653 86.9064 136.928C86.2089 137.193 85.5787 137.256 85.0159 137.119C84.4531 136.981 83.8739 136.674 83.2783 136.198L72.0373 127.01L72.9998 126.645L78.4772 141.083C78.9005 142.199 78.9357 143.175 78.5826 144.012C78.2296 144.848 77.4811 145.483 76.3372 145.917ZM109.055 133.505C108.191 133.833 107.391 133.913 106.657 133.744C105.912 133.548 105.338 133.128 104.934 132.483C104.519 131.811 104.338 130.954 104.39 129.913L106.301 103.528C106.39 102.249 106.702 101.221 107.237 100.444C107.8 99.6557 108.556 99.0818 109.504 98.7219C110.453 98.362 111.371 98.3009 112.259 98.5385C113.175 98.7655 114.105 99.3225 115.047 100.21L133.978 118.688C134.763 119.412 135.223 120.163 135.359 120.941C135.523 121.709 135.386 122.399 134.948 123.012C134.538 123.614 133.915 124.074 133.078 124.392C131.962 124.815 131.002 124.892 130.197 124.623C129.421 124.343 128.584 123.735 127.686 122.799L123.41 118.341L127.149 119.364L109.907 125.905L112.068 122.643L111.825 128.816C111.746 130.122 111.537 131.127 111.197 131.83C110.857 132.534 110.144 133.092 109.055 133.505ZM112.612 107.166L112.155 120.6L110.221 119.036L122.399 114.416L121.99 116.869L112.695 107.134L112.612 107.166ZM141.351 121.253C140.124 121.719 139.048 121.744 138.124 121.328C137.19 120.885 136.49 120.049 136.025 118.821L127.499 96.3477C127.012 95.0643 126.982 93.9747 127.408 93.079C127.824 92.1553 128.645 91.4607 129.873 90.995C131.128 90.5187 132.204 90.4936 133.1 90.9198C134.013 91.3075 134.713 92.143 135.2 93.4264L138.343 101.713L141.9 100.363L141.098 101.529L143.467 88.0879C143.669 87.0219 144.08 86.2118 144.699 85.6576C145.308 85.0755 145.993 84.7358 146.754 84.6386C147.543 84.5309 148.289 84.6468 148.993 84.9864C149.713 85.2875 150.264 85.8127 150.644 86.5622C151.013 87.2838 151.088 88.1968 150.869 89.3013L148.565 100.516L144.69 99.6402C146.781 99.262 148.663 99.3457 150.338 99.8911C152.041 100.426 153.757 101.499 155.485 103.109L160.464 107.779C161.358 108.621 161.855 109.469 161.956 110.325C162.085 111.169 161.933 111.945 161.499 112.652C161.065 113.36 160.473 113.903 159.724 114.283C158.974 114.663 158.163 114.796 157.289 114.68C156.416 114.565 155.6 114.14 154.843 113.406L149.616 108.208C148.652 107.265 147.689 106.705 146.728 106.527C145.767 106.349 144.672 106.493 143.445 106.958L140.724 107.99L143.725 115.9C144.191 117.128 144.235 118.212 143.858 119.153C143.47 120.066 142.635 120.766 141.351 121.253ZM178.769 107.154C175.783 108.287 172.923 108.654 170.186 108.256C167.44 107.829 165.004 106.711 162.881 104.899C160.786 103.077 159.161 100.645 158.007 97.6042C157.139 95.3164 156.7 93.1055 156.688 90.9716C156.704 88.8271 157.114 86.8365 157.917 84.9998C158.748 83.1525 159.952 81.5309 161.529 80.1348C163.095 78.7108 164.995 77.5755 167.227 76.7287C170.212 75.5962 173.059 75.2343 175.767 75.6431C178.503 76.0413 180.933 77.1462 183.057 78.9577C185.169 80.7414 186.808 83.1677 187.972 86.2367C188.84 88.5246 189.266 90.7407 189.25 92.8853C189.261 95.0192 188.857 97.0237 188.036 98.8989C187.233 100.736 186.048 102.366 184.482 103.79C182.905 105.186 181.001 106.307 178.769 107.154ZM176.324 100.709C177.803 100.148 178.926 99.3231 179.693 98.234C180.461 97.1448 180.875 95.8388 180.936 94.3158C180.996 92.7928 180.677 91.1106 179.979 89.2691C178.931 86.507 177.502 84.5915 175.692 83.5227C173.883 82.4539 171.876 82.3376 169.672 83.1737C168.221 83.7241 167.098 84.5491 166.302 85.6488C165.524 86.7101 165.104 88.0022 165.044 89.5252C164.973 91.0203 165.292 92.7025 166.001 94.5718C167.049 97.334 168.483 99.2634 170.303 100.36C172.113 101.429 174.12 101.545 176.324 100.709ZM199.731 99.1062C198.615 99.5295 197.634 99.5507 196.787 99.1698C195.968 98.7782 195.347 98.0245 194.924 96.9085L186.112 73.6814C185.678 72.5375 185.671 71.5508 186.091 70.7215C186.499 69.8643 187.29 69.2134 188.462 68.7688C189.438 68.3984 190.279 68.3026 190.986 68.4815C191.709 68.622 192.472 69.0347 193.275 69.7197L208.401 82.4606L206.936 83.0162L209.764 63.4644C209.938 62.4089 210.235 61.594 210.655 61.0196C211.093 60.4068 211.8 59.9151 212.777 59.5447C213.893 59.1213 214.86 59.1054 215.679 59.4969C216.515 59.85 217.15 60.5985 217.584 61.7424L226.395 84.9694C226.819 86.0855 226.854 87.0615 226.501 87.8976C226.148 88.7337 225.399 89.3687 224.255 89.8026C223.139 90.226 222.158 90.2472 221.311 89.8662C220.493 89.4747 219.872 88.7209 219.448 87.6049L213.987 73.2083L214.866 72.8749L212.573 87.1492C212.415 87.9112 212.171 88.5303 211.841 89.0065C211.539 89.4722 211.026 89.8426 210.3 90.1178C209.603 90.3824 208.972 90.4459 208.41 90.3084C207.847 90.1708 207.268 89.8639 206.672 89.3877L195.431 80.1997L196.394 79.8345L201.871 94.273C202.294 95.389 202.329 96.365 201.976 97.2011C201.623 98.0372 200.875 98.6722 199.731 99.1062ZM230.271 76.0309C229.546 76.3061 228.87 76.2912 228.243 75.9862C227.645 75.6707 227.131 75.1156 226.702 74.3209L220.443 62.2377C219.697 60.861 219.518 59.5886 219.904 58.4206C220.28 57.2247 221.18 56.3569 222.603 55.8171C224.054 55.2667 225.302 55.3196 226.349 55.9757C227.385 56.6039 228.081 57.6804 228.436 59.2053L231.808 72.384C232.014 73.2634 231.997 74.0196 231.759 74.6526C231.52 75.2857 231.024 75.7451 230.271 76.0309ZM234.034 85.9495C232.778 86.4258 231.631 86.4301 230.592 85.9626C229.581 85.4845 228.842 84.6316 228.377 83.404C227.921 82.2043 227.919 81.1041 228.369 80.1035C228.837 79.0645 229.698 78.3068 230.954 77.8305C232.265 77.333 233.412 77.3286 234.396 77.8173C235.396 78.2676 236.124 79.0925 236.579 80.2922C237.045 81.5199 237.058 82.6479 236.618 83.6764C236.207 84.6943 235.345 85.452 234.034 85.9495Z" fill="white"/>
</svg>
