<svg width="134" height="160" viewBox="0 0 134 160" fill="none" xmlns="http://www.w3.org/2000/svg">
<g clip-path="url(#clip0_712_22530)">
<path d="M118.065 91.2458C121.677 110.63 117.147 130.289 98.4632 138.778C85.8381 144.514 69.2955 144.202 57.0685 137.663C45.152 131.29 40.1424 124.054 31.7584 112.495C28.4969 108.001 23.1224 92.7205 25.3095 87.6155C26.5816 92.9038 42.1172 102.393 46.2504 100.212C55.2294 95.4656 40.1893 75.0281 38.2429 69.5806C36.9112 65.8545 35.1054 61.1539 34.8947 57.1879C34.7587 54.6422 35.1009 51.6857 35.5515 49.59C39.3291 56.3842 50.344 65.9919 58.9952 63.8478C69.7944 61.1723 55.1306 36.3845 51.3501 32.4529C61.4159 32.5063 70.8515 38.396 76.9167 46.4235C81.0481 51.8879 82.2877 58.9826 84.3042 65.3738C85.4983 69.1597 87.2019 73.0882 90.5543 75.2136C93.9088 77.338 99.2827 76.586 100.702 72.8785C101.998 69.4915 101.106 65.3587 99.5812 62.3299C98.6007 60.3849 92.8186 51.9149 90.9771 51.3235C110.205 57.5005 114.773 73.5863 118.065 91.2458Z" fill="#FFD800"/>
<path d="M95.5103 132.274C84.7204 137.177 70.6267 136.811 60.4443 131.363C50.3464 125.962 46.0735 120.065 38.3153 109.36L37.5458 108.3C37.2082 107.833 36.6583 106.859 36.0185 105.468C41.4219 107.886 45.7079 108.311 49.0919 106.773C49.259 106.697 49.4252 106.614 49.5862 106.53C52.597 104.937 54.6929 102.379 55.6549 99.1282C57.915 91.4766 53.3225 82.3301 47.5523 72.0316C46.9217 70.9085 46.1423 69.5155 45.5971 68.4712C50.3071 70.8716 55.5313 72.0655 60.714 70.7832C61.5018 70.5874 62.2611 70.3235 62.9705 70.0012C66.5649 68.3681 68.9751 65.2227 69.757 61.1432C70.5675 56.9251 69.4312 51.711 67.505 46.6362C68.8385 47.8663 70.0868 49.2372 71.2164 50.7326C73.6035 53.8902 74.835 58.2711 76.1389 62.9095C76.5644 64.4162 77.0016 65.9777 77.4896 67.524C78.9343 72.1036 81.2912 77.804 86.7296 81.2492C90.8704 83.8716 96.418 84.2621 100.863 82.2427C103.577 81.0098 105.709 78.9582 106.955 76.4017C108.614 80.9285 109.872 86.2835 111.04 92.5581C112.722 101.583 112.328 109.927 109.901 116.687C107.322 123.861 102.482 129.107 95.5103 132.274Z" fill="#F77F00"/>
<path d="M44.2793 91.5033C44.9126 92.8973 44.2956 94.5402 42.9029 95.173C41.5081 95.8067 39.8647 95.1907 39.2314 93.7967C38.5991 92.4049 39.2161 90.762 40.611 90.1283C42.0036 89.4955 43.6469 90.1115 44.2793 91.5033Z" fill="#FEE440"/>
<path d="M85.6691 40.3229C86.3025 41.7168 85.6854 43.3598 84.2906 43.9935C82.8958 44.6272 81.2524 44.0112 80.6191 42.6172C79.9858 41.2233 80.6028 39.5803 81.9977 38.9466C83.3925 38.3129 85.0358 38.9289 85.6691 40.3229Z" fill="#FEE440"/>
<path d="M57.7355 56.0596C58.3688 57.4535 57.7518 59.0964 56.357 59.7301C54.9622 60.3638 53.3188 59.7479 52.6855 58.3539C52.0522 56.96 52.6692 55.317 54.0641 54.6833C55.4589 54.0496 57.1022 54.6656 57.7355 56.0596Z" fill="#F77F00"/>
<path d="M38.0264 76.8974C38.4628 77.8578 38.0376 78.9899 37.0745 79.4274C36.1135 79.864 34.9811 79.4396 34.5448 78.4792C34.1075 77.5167 34.5327 76.3846 35.4937 75.948C36.4568 75.5104 37.5891 75.9349 38.0264 76.8974Z" fill="#FFF4B3"/>
<path d="M40.8841 41.3038C41.3204 42.2642 40.8941 43.3994 39.9331 43.836C38.9721 44.2726 37.8366 43.847 37.4003 42.8866C36.964 41.9262 37.3903 40.791 38.3513 40.3544C39.3123 39.9178 40.4478 40.3434 40.8841 41.3038Z" fill="#FFF4B3"/>
<path d="M25.0207 78.8156C25.7919 80.513 25.041 82.5123 23.3425 83.284C21.6461 84.0547 19.6463 83.3051 18.8751 81.6077C18.1049 79.9124 18.8558 77.9131 20.5521 77.1424C22.2507 76.3707 24.2504 77.1203 25.0207 78.8156Z" fill="#F77F00"/>
<path d="M97.4035 67.3672C98.1747 69.0646 97.4238 71.0639 95.7274 71.8346C94.0289 72.6063 92.0291 71.8567 91.2579 70.1592C90.4877 68.4639 91.2386 66.4647 92.9371 65.693C94.6335 64.9223 96.6332 65.6719 97.4035 67.3672Z" fill="#F77F00"/>
<path d="M70.9784 113.766L67.935 115.148C65.9544 116.048 63.6204 115.173 62.7211 113.194L55.9133 98.2095C55.014 96.2303 55.8904 93.8967 57.8709 92.9969L60.9144 91.6142C62.8949 90.7144 65.2312 91.5883 66.1304 93.5676L72.9383 108.552C73.8375 110.531 72.959 112.866 70.9784 113.766Z" fill="white"/>
<path d="M72.2113 106.952L68.055 108.841C66.8012 109.41 65.3218 108.856 64.7526 107.603L61.4609 100.358C60.8916 99.1045 61.4471 97.6255 62.7009 97.0559L66.8572 95.1676L72.2113 106.952Z" fill="#231F20"/>
<path d="M61.2527 99.7018L65.2337 100.129L61.3427 98.5232C61.2167 98.8969 61.1834 99.3017 61.2527 99.7018Z" fill="white"/>
<path d="M94.9042 102.895L91.8608 104.278C89.8802 105.178 87.5462 104.303 86.6469 102.323L79.839 87.3389C78.9398 85.3597 79.8162 83.0261 81.7967 82.1263L84.8402 80.7436C86.8207 79.8437 89.1548 80.7187 90.054 82.698L96.8619 97.6825C97.7612 99.6618 96.8848 101.995 94.9042 102.895Z" fill="white"/>
<path d="M96.1349 96.0826L92.317 97.8171C90.8766 98.4715 89.1797 97.8354 88.5257 96.3959L85.5394 89.8229C84.8854 88.3834 85.5225 86.6868 86.9629 86.0324L90.7808 84.2979L96.1349 96.0826Z" fill="#231F20"/>
<path d="M85.1784 88.8312L89.1595 89.2586L85.2685 87.6526C85.1425 88.0263 85.1092 88.4311 85.1784 88.8312Z" fill="white"/>
<path d="M64.3792 86.3378C61.9032 85.4096 59.212 85.4999 56.802 86.5948C54.3919 87.6898 52.5537 89.6574 51.6218 92.1338C51.5235 92.3956 51.5353 92.6805 51.6505 92.9342C51.7667 93.19 51.9726 93.3841 52.2344 93.4822C52.4962 93.5804 52.7824 93.5707 53.0362 93.4554C53.2921 93.3391 53.4854 93.131 53.5837 92.8692C54.3168 90.9172 55.7684 89.3659 57.6687 88.5026C59.569 87.6392 61.6901 87.5674 63.6447 88.2982C63.9065 88.3964 64.1905 88.3877 64.4443 88.2724C64.7002 88.1561 64.8935 87.948 64.9918 87.6862C65.0901 87.4245 65.0816 87.1407 64.9654 86.8849C64.8501 86.6312 64.641 86.4359 64.3792 86.3378Z" fill="#231F20"/>
<path d="M88.6392 75.3144C86.161 74.3872 83.4698 74.4775 81.0598 75.5724C78.6519 76.6664 76.8115 78.635 75.8818 81.1104C75.7835 81.3722 75.7931 81.6581 75.9083 81.9118C76.0245 82.1676 76.2327 82.3607 76.4945 82.4588C76.7563 82.557 77.0402 82.5483 77.2962 82.432C77.55 82.3167 77.7433 82.1086 77.8437 81.8458C78.5768 79.8939 80.0262 78.3435 81.9265 77.4802C83.8268 76.6168 85.9501 76.544 87.9026 77.2758C88.1643 77.374 88.4483 77.3653 88.7042 77.249C88.958 77.1337 89.1535 76.9246 89.2518 76.6628C89.3501 76.4011 89.3416 76.1173 89.2253 75.8615C89.1101 75.6078 88.901 75.4125 88.6392 75.3144Z" fill="#231F20"/>
<path d="M88.8035 126.622C83.8988 128.85 78.4225 129.037 73.3789 127.146C70.9723 126.244 69.7539 123.563 70.6565 121.154C71.5602 118.748 74.2435 117.529 76.6523 118.43C79.3659 119.449 82.3144 119.349 84.9544 118.15C87.5944 116.951 89.6091 114.796 90.6267 112.081C91.5303 109.675 94.2159 108.455 96.6235 109.359C99.0301 110.262 100.248 112.943 99.3449 115.349C97.4511 120.392 93.7082 124.394 88.8035 126.622Z" fill="white"/>
<path d="M88.5805 125.572C83.9296 127.685 78.7371 127.863 73.9575 126.069C72.0944 125.372 71.1478 123.289 71.8478 121.425C72.1853 120.527 72.855 119.812 73.7357 119.412C74.6142 119.013 75.5932 118.978 76.4922 119.315C79.4697 120.432 82.7011 120.321 85.5971 119.005C88.4909 117.69 90.6999 115.329 91.8179 112.352C92.1566 111.451 92.8263 110.736 93.7049 110.337C94.5812 109.938 95.5602 109.904 96.4645 110.241C98.3264 110.941 99.2729 113.025 98.5742 114.885C96.7788 119.666 93.2292 123.46 88.5805 125.572ZM97.1999 108.283C95.7742 107.749 94.2253 107.801 92.8391 108.431C91.4508 109.062 90.3923 110.194 89.857 111.619C88.9368 114.069 87.1153 116.016 84.7313 117.099C82.3451 118.184 79.6828 118.274 77.2298 117.356C75.8063 116.821 74.2573 116.873 72.869 117.504C71.4785 118.136 70.42 119.268 69.8869 120.692C69.3516 122.118 69.4034 123.666 70.0327 125.051C70.6631 126.439 71.7952 127.496 73.2209 128.031C78.5262 130.019 84.2865 129.824 89.4472 127.479C94.6057 125.136 98.5441 120.925 100.534 115.621C101.641 112.678 100.145 109.385 97.1999 108.283Z" fill="#231F20"/>
<path d="M85.7136 117.291L83.8047 118.159L88.0399 127.481L89.9489 126.613L85.7136 117.291Z" fill="#231F20"/>
<path d="M78.2648 118.567L77.9336 128.799L80.0262 128.866L80.3573 118.633L78.2648 118.567Z" fill="#231F20"/>
<path d="M89.8326 113.31L88.5042 114.931L96.4293 121.412L97.7577 119.791L89.8326 113.31Z" fill="#231F20"/>
</g>
<defs>
<clipPath id="clip0_712_22530">
<rect width="105.074" height="127.63" fill="white" transform="translate(0 43.4628) rotate(-24.4336)"/>
</clipPath>
</defs>
</svg>
