<svg width="151" height="154" viewBox="0 0 151 154" fill="none" xmlns="http://www.w3.org/2000/svg">
<g clip-path="url(#clip0_712_16106)">
<path d="M0.455719 76.761C0.455719 119.164 34.1573 153.529 75.7279 153.529C117.298 153.529 151 119.164 151 76.761C151 34.3646 117.298 0 75.7279 0C34.1573 0 0.455719 34.3646 0.455719 76.761Z" fill="#FFD800"/>
<path d="M75.8229 134.645C88.8727 134.645 101.102 129.434 110.273 119.968C111.288 118.926 111.275 117.24 110.254 116.211C109.232 115.183 107.585 115.189 106.57 116.231C98.3817 124.681 87.4668 129.335 75.8229 129.335H75.6927C64.0032 129.301 53.0622 124.582 44.8874 116.052C43.885 115.003 42.2384 114.983 41.2101 116.006C40.1817 117.028 40.1621 118.714 41.1645 119.763C50.3221 129.321 62.5778 134.605 75.6797 134.645H75.8229Z" fill="#231F20"/>
<path d="M118.812 28.7784C119.287 28.7784 119.762 28.6457 120.192 28.3735C121.409 27.5969 121.78 25.9573 121.018 24.716C117.862 19.565 112.915 16.0004 107.096 14.6927C101.284 13.3784 95.3288 14.4804 90.3367 17.7927C89.1326 18.5892 88.7877 20.2354 89.5687 21.4634C90.3562 22.6914 91.9639 23.0433 93.1745 22.2401C96.9885 19.711 101.532 18.8747 105.977 19.877C110.416 20.8793 114.191 23.5942 116.606 27.5305C117.094 28.3337 117.946 28.7784 118.812 28.7784Z" fill="#231F20"/>
<path d="M32.6799 29.2262C33.5781 29.2262 34.4504 28.7483 34.932 27.8987C37.2101 23.8827 40.8939 21.035 45.3002 19.88C49.7066 18.7184 54.2756 19.4021 58.1743 21.7984C59.4044 22.5551 61.0055 22.1502 61.7475 20.8956C62.4895 19.6344 62.0924 18.0015 60.8558 17.2447C55.753 14.1116 49.7651 13.2221 43.9985 14.7356C38.2319 16.249 33.4089 19.9796 30.428 25.2368C29.7055 26.5113 30.1351 28.131 31.3782 28.8678C31.7882 29.1067 32.2373 29.2262 32.6799 29.2262Z" fill="#231F20"/>
<path d="M105.913 44.9933C106.636 44.9933 107.215 44.3959 107.215 43.6657V33.6889C107.215 32.9587 106.636 32.3613 105.913 32.3613C105.197 32.3613 104.611 32.9587 104.611 33.6889V43.6657C104.611 44.3959 105.197 44.9933 105.913 44.9933Z" fill="#231F20"/>
<path d="M101.943 48.2178C102.275 48.2178 102.607 48.085 102.86 47.8262C103.375 47.3084 103.375 46.472 102.86 45.9542L95.9484 38.8981C95.4407 38.3803 94.6141 38.3803 94.1064 38.8981C93.5987 39.4158 93.5987 40.2589 94.1064 40.7767L101.025 47.8262C101.279 48.085 101.611 48.2178 101.943 48.2178Z" fill="#231F20"/>
<path d="M109.888 48.2178C110.22 48.2178 110.552 48.085 110.806 47.8262L117.725 40.7767C118.232 40.2589 118.232 39.4158 117.725 38.8981C117.217 38.3803 116.39 38.3803 115.883 38.8981L108.964 45.9542C108.456 46.472 108.456 47.3084 108.964 47.8262C109.218 48.085 109.55 48.2178 109.888 48.2178Z" fill="#231F20"/>
<path d="M46.6827 44.9933C45.9667 44.9933 45.3809 44.3959 45.3809 43.6657V33.6889C45.3809 32.9587 45.9667 32.3613 46.6827 32.3613C47.4051 32.3613 47.9844 32.9587 47.9844 33.6889V43.6657C47.9844 44.3959 47.4051 44.9933 46.6827 44.9933Z" fill="#231F20"/>
<path d="M50.6578 48.2178C50.3194 48.2178 49.9875 48.085 49.7337 47.8262C49.226 47.3084 49.226 46.472 49.7337 45.9542L56.6523 38.8981C57.1599 38.3803 57.9866 38.3803 58.4942 38.8981C59.0019 39.4158 59.0019 40.2589 58.4942 40.7767L51.5755 47.8262C51.3217 48.085 50.9898 48.2178 50.6578 48.2178Z" fill="#231F20"/>
<path d="M42.7162 48.2178C42.3843 48.2178 42.0523 48.085 41.7984 47.8262L34.8798 40.7767C34.3722 40.2589 34.3722 39.4158 34.8798 38.8981C35.3875 38.3803 36.2142 38.3803 36.7218 38.8981L43.6339 45.9542C44.1481 46.472 44.1481 47.3084 43.6339 47.8262C43.3801 48.085 43.0482 48.2178 42.7162 48.2178Z" fill="#231F20"/>
<path d="M99.7771 91.0319C99.7771 101.327 107.958 109.678 118.053 109.678C128.148 109.678 136.336 101.327 136.336 91.0319C136.336 80.7364 128.148 72.3926 118.053 72.3926C107.958 72.3926 99.7771 80.7364 99.7771 91.0319Z" fill="#F9696A"/>
<path d="M15.1677 91.0319C15.1677 101.327 23.3491 109.678 33.4439 109.678C43.5388 109.678 51.7266 101.327 51.7266 91.0319C51.7266 80.7364 43.5388 72.3926 33.4439 72.3926C23.3491 72.3926 15.1677 80.7364 15.1677 91.0319Z" fill="#F9696A"/>
<path d="M91.7951 61.7199C91.7951 74.4448 97.822 84.7668 105.261 84.7668C112.701 84.7668 118.734 74.4448 118.734 61.7199C118.734 48.995 112.701 38.6797 105.261 38.6797C97.822 38.6797 91.7951 48.995 91.7951 61.7199Z" fill="white"/>
<path d="M107.994 39.1504C113.24 41.0024 117.373 48.0718 118.453 57.0463C117.49 63.3391 114.144 67.9856 110.168 67.9856C105.436 67.9856 101.602 61.4273 101.602 53.329C101.602 46.5185 104.317 40.7966 107.994 39.1504Z" fill="#231F20"/>
<path d="M101.885 49.5922C102.152 47.853 102.607 46.2467 103.199 44.8262L109.129 52.732L101.885 49.5922Z" fill="white"/>
<path d="M33.217 61.7199C33.217 74.4448 39.2439 84.7668 46.6833 84.7668C54.1226 84.7668 60.1562 74.4448 60.1562 61.7199C60.1562 48.995 54.1226 38.6797 46.6833 38.6797C39.2439 38.6797 33.217 48.995 33.217 61.7199Z" fill="white"/>
<path d="M49.4158 39.1504C54.6617 41.0024 58.7946 48.0718 59.875 57.0463C58.9117 63.3391 55.5663 67.9856 51.5895 67.9856C46.8578 67.9856 43.0243 61.4273 43.0243 53.329C43.0243 46.5185 45.7384 40.7966 49.4158 39.1504Z" fill="#231F20"/>
<path d="M43.3027 49.5922C43.5696 47.853 44.0252 46.2467 44.6175 44.8262L50.5469 52.732L43.3027 49.5922Z" fill="white"/>
</g>
<defs>
<clipPath id="clip0_712_16106">
<rect width="151" height="154" fill="white" transform="matrix(-1 0 0 1 151 0)"/>
</clipPath>
</defs>
</svg>
