<svg width="68" height="47" viewBox="0 0 68 47" fill="none" xmlns="http://www.w3.org/2000/svg">
<path d="M27.7842 10.0922C28.2822 3.97722 35.5063 -0.208176 41.0781 3.33436L41.0791 3.33338C41.097 3.34446 41.1141 3.35738 41.1318 3.36854C45.4201 0.626314 51.2108 2.30502 53.5322 6.74842H53.5332C53.844 7.33283 54.0681 7.91723 54.2236 8.49061C54.3715 8.48491 54.519 8.48182 54.665 8.48182H54.709C57.6935 8.54741 60.7222 9.67192 62.7559 12.2963L62.7646 12.307C62.7689 12.3124 62.7755 12.3215 62.7832 12.3314C62.7831 12.3313 62.783 12.3318 62.7842 12.3334H62.7852L62.792 12.3422C62.7942 12.345 62.797 12.3483 62.7998 12.3519C62.8046 12.3581 62.8104 12.3663 62.8174 12.3754L63.0039 12.6264C64.8778 15.249 65.2034 18.5289 65.041 21.475C64.8899 24.2166 64.289 26.9999 63.8086 29.2035C64.6137 30.7675 64.9414 32.4339 64.9414 33.9984C64.9412 39.8311 60.336 44.2745 54.665 44.2748C53.5924 44.2748 52.4725 44.121 51.3672 43.7699C50.0921 44.2197 48.848 44.3617 47.8066 44.3617C45.8375 44.3617 43.215 43.8529 41.0225 41.8588C40.6868 42.1548 40.3248 42.4465 39.9307 42.7162L39.9287 42.7172L39.9023 42.7357L39.8877 42.7445L39.874 42.7543L39.8555 42.765C37.8636 44.0929 35.7706 44.3617 34.3115 44.3617C33.1263 44.3617 31.8569 44.1618 30.5938 43.6566C29.8337 43.3526 29.1065 42.951 28.4316 42.4525C27.9135 42.7194 27.3815 42.9612 26.8359 43.1762L26.8125 43.1859L26.7471 43.2103L26.7451 43.2113C24.5205 44.054 22.1989 44.4202 19.8682 44.4203C16.7294 44.4203 13.6277 43.752 10.793 42.1771L10.7793 42.1693L10.7666 42.1615L10.7441 42.1498L10.7324 42.143C7.95988 40.5684 5.75621 38.3255 4.22461 35.5346L4.22266 35.5306L4.20996 35.5082V35.5072L4.20801 35.5043L4.19922 35.4896L4.19141 35.474C2.66684 32.6328 2.02936 29.5352 2.0293 26.4076C2.02931 24.067 2.38701 21.7346 3.21777 19.4994L3.22852 19.4672L3.24121 19.433L3.25391 19.4008L3.26758 19.3676C4.10948 17.2053 5.34235 15.2265 7 13.5336L7.03125 13.5014L7.05469 13.4779C8.75093 11.7817 10.7488 10.5153 12.959 9.67323C15.1911 8.80332 17.5244 8.42323 19.8682 8.42323C22.5813 8.42328 25.2721 8.92505 27.7842 10.0922Z" fill="#009340" stroke="black" stroke-width="4.0509"/>
<path d="M19.8668 37.3633C17.7922 37.3633 15.9697 36.9271 14.3992 36.0546C12.8287 35.1627 11.6072 33.9218 10.7347 32.3319C9.88157 30.742 9.45502 28.8904 9.45502 26.777C9.45502 25.1871 9.69738 23.7427 10.1821 22.4436C10.6862 21.1446 11.3939 20.0297 12.3052 19.0991C13.2358 18.1684 14.341 17.4607 15.6207 16.976C16.9003 16.4719 18.3157 16.2198 19.8668 16.2198C21.9414 16.2198 23.7543 16.6561 25.3054 17.5286C26.8759 18.4011 28.0974 19.6322 28.9699 21.2221C29.8424 22.7926 30.2786 24.6443 30.2786 26.777C30.2786 28.3669 30.0266 29.8114 29.5225 31.1104C29.0377 32.4095 28.33 33.534 27.3994 34.4841C26.4881 35.4148 25.3926 36.1321 24.113 36.6363C22.8333 37.121 21.4179 37.3633 19.8668 37.3633ZM19.8668 32.8845C20.8944 32.8845 21.7669 32.6422 22.4843 32.1574C23.2017 31.6727 23.7543 30.9747 24.1421 30.0634C24.5298 29.1522 24.7237 28.0567 24.7237 26.777C24.7237 24.8575 24.2972 23.3646 23.4441 22.2982C22.5909 21.2318 21.3985 20.6986 19.8668 20.6986C18.8586 20.6986 17.9861 20.941 17.2493 21.4257C16.5319 21.891 15.9794 22.5794 15.5916 23.4906C15.2038 24.3825 15.0099 25.478 15.0099 26.777C15.0099 28.6965 15.4365 30.1992 16.2896 31.2849C17.1427 32.3513 18.3351 32.8845 19.8668 32.8845ZM34.3107 37.3052C33.9617 37.3052 33.6418 37.247 33.351 37.1307C33.0602 37.0143 32.8081 36.8495 32.5948 36.6363C32.4009 36.4036 32.2458 36.1224 32.1295 35.7928C32.0325 35.4632 31.9841 35.0851 31.9841 34.6586L31.9841 18.7791C31.9841 17.9648 32.1974 17.3444 32.6239 16.9178C33.0505 16.4913 33.6709 16.278 34.4852 16.278C35.2996 16.278 35.9103 16.4913 36.3175 16.9178C36.744 17.3444 36.9573 17.9648 36.9573 18.7791L36.9573 29.3073H36.143L45.3624 17.7903C45.7889 17.2474 46.1864 16.8596 46.5548 16.627C46.9426 16.3943 47.4661 16.278 48.1253 16.278C48.5712 16.278 48.9493 16.3749 49.2595 16.5688C49.5891 16.7627 49.8412 17.0438 50.0157 17.4122C50.1902 17.7612 50.2774 18.1781 50.2774 18.6628L50.2774 34.7749C50.2774 35.6086 50.0642 36.2388 49.6376 36.6653C49.2304 37.0919 48.6197 37.3052 47.8054 37.3052C46.991 37.3052 46.3706 37.0919 45.944 36.6653C45.5369 36.2388 45.3333 35.6086 45.3333 34.7749L45.3333 24.2468H46.1185L36.9282 35.7928C36.5017 36.3163 36.1042 36.7041 35.7358 36.9562C35.3868 37.1888 34.9118 37.3052 34.3107 37.3052ZM41.1453 14.9402C39.5942 14.9402 38.3339 14.6493 37.3645 14.0677C36.4144 13.4666 35.7358 12.7007 35.3287 11.7701C35.1348 11.3047 35.1251 10.917 35.2996 10.6067C35.4741 10.2771 35.7552 10.0542 36.143 9.93783C36.5501 9.80211 36.8798 9.8215 37.1318 9.996C37.4033 10.1511 37.6844 10.4322 37.9752 10.8394C38.3242 11.3241 38.7508 11.6925 39.2549 11.9446C39.7784 12.1772 40.4085 12.2936 41.1453 12.2936C41.8821 12.2936 42.5122 12.1772 43.0357 11.9446C43.5592 11.6925 43.9858 11.3241 44.3154 10.8394C44.6062 10.4322 44.8777 10.1511 45.1297 9.996C45.4012 9.8215 45.7405 9.80211 46.1476 9.93783C46.5354 10.0542 46.8068 10.2674 46.962 10.5777C47.1364 10.8879 47.1268 11.2757 46.9329 11.741C46.5257 12.6717 45.8374 13.4375 44.868 14.0386C43.9179 14.6396 42.677 14.9402 41.1453 14.9402ZM54.6636 30.3252C54.1594 30.3252 53.7523 30.1604 53.4421 29.8308C53.1512 29.5012 52.967 29.0455 52.8895 28.4639L51.8716 19.6807C51.7358 18.6725 51.92 17.8582 52.4241 17.2377C52.9283 16.5979 53.6747 16.278 54.6636 16.278C55.6718 16.278 56.4182 16.5979 56.903 17.2377C57.3877 17.8582 57.5622 18.6725 57.4265 19.6807L56.4376 28.4639C56.3601 29.0455 56.1759 29.5012 55.8851 29.8308C55.5942 30.1604 55.1871 30.3252 54.6636 30.3252ZM54.6636 37.2179C53.7911 37.2179 53.0931 36.9562 52.5696 36.4327C52.0655 35.9092 51.8134 35.2209 51.8134 34.3678C51.8134 33.534 52.0655 32.8651 52.5696 32.361C53.0931 31.8375 53.7911 31.5758 54.6636 31.5758C55.5748 31.5758 56.2728 31.8375 56.7575 32.361C57.2617 32.8651 57.5137 33.534 57.5137 34.3678C57.5137 35.2209 57.2617 35.9092 56.7575 36.4327C56.2728 36.9562 55.5748 37.2179 54.6636 37.2179Z" fill="white"/>
</svg>
