<svg width="166" height="114" fill="none" xmlns="http://www.w3.org/2000/svg"><g clip-path="url(#a)"><path d="M162.178 53.095c-7.383 25.055-50.11 50.873-89.97 39.128-39.86-11.745-61.761-56.604-54.379-81.66 7.383-25.055 31.628 11.847 71.49 23.592 39.859 11.744 80.241-6.115 72.859 18.94Z" fill="#EF0405"/><path d="M73.726 87.073c-8.794-2.59-17.017-7.023-24.444-13.175-6.732-5.577-12.743-12.592-17.381-20.285-8.767-14.541-12.186-30.455-8.922-41.533 1.015-3.443 2.073-4.311 2.374-4.495.66-.405 2.073-.078 2.858.153 4.137 1.22 10.096 5.155 16.996 9.712 11.334 7.484 25.438 16.8 42.594 21.854 17.154 5.055 34.056 4.876 47.638 4.732 8.267-.088 15.408-.163 19.549 1.057.782.23 2.149.722 2.484 1.419.152.318.571 1.621-.444 5.066-3.263 11.077-14.764 22.595-30.015 30.059-8.068 3.95-16.923 6.584-25.604 7.62-9.574 1.142-18.89.407-27.683-2.184Z" fill="#231F20"/><path d="M49.281 73.898c7.426 6.152 15.65 10.585 24.444 13.176 8.793 2.59 18.108 3.326 27.683 2.183 5.049-.603 10.159-1.75 15.136-3.38-2.212-7.519-8.584-14.023-17.329-16.6-7.276-2.144-14.65-1.111-20.34 2.245-2.768-6.454-8.672-11.85-16.448-14.14-9.096-2.68-18.34-.399-24.263 5.184 3.36 4.179 7.109 8.012 11.117 11.332Z" fill="#F15BB5"/><path d="M73.314 75.633c1.804-1.876 4.417-3.48 5.552-4.134a22.94 22.94 0 0 0-1.042-2.109c-1.172.665-4.106 2.437-6.201 4.616a1.174 1.174 0 0 0 1.69 1.627Z" fill="#231F20"/><path d="m61.219 27.538-3.837 13.02a5.676 5.676 0 0 0 3.84 7.05l13.18 3.883a5.676 5.676 0 0 0 7.05-3.84l2.79-9.471c-8.433-2.834-16.095-6.64-23.023-10.642Z" fill="#fff"/><path d="m61.219 27.538-1.518 5.15c6.929 4.002 14.59 7.808 23.024 10.642l1.517-5.15c-8.433-2.834-16.095-6.64-23.023-10.642Z" fill="#8ECAE6"/><path d="M116.071 43.81c-7.99-.415-16.484-1.4-25.088-3.626l-2.786 9.455a5.675 5.675 0 0 0 3.839 7.048l13.181 3.884a5.674 5.674 0 0 0 7.047-3.841l3.807-12.92Z" fill="#fff"/><path d="m90.983 40.184-1.518 5.15c8.604 2.226 17.098 3.211 25.089 3.625l1.517-5.15c-7.99-.414-16.484-1.399-25.088-3.625Z" fill="#8ECAE6"/></g><defs><clipPath id="a"><path fill="#fff" transform="rotate(16.417 10.47 72.584)" d="M0 0h150.591v74.088H0z"/></clipPath></defs></svg>