<svg width="176" height="119" fill="none" xmlns="http://www.w3.org/2000/svg"><path d="M149.806 45.854c1.932.376 4.29 1.245 6.378 2.206 1.939.894 4.037 2.046 5.584 3.276l.303.247.009.009.077.068a24.42 24.42 0 0 1 7.478 11.202l.234.747c4.693 15.67-3.732 30.812-19.824 33.794h-.005l-.054.011-.037.006-.055.01-.013.002c-3.423.588-6.816.459-10.07-.174-3.822-.743-7.647-2.271-10.941-4.672l-1.706.235-.061.008-.017.003h-.009c-7.787 1.022-17.998-.608-24.767-6.064l-.017-.013-.029-.024-.011-.01c-3.678-2.998-6.397-6.895-7.854-11.514a25.144 25.144 0 0 1-.435-1.552c-.253.78-.543 1.61-.823 2.274-.13.308-.355.817-.663 1.286a4.717 4.717 0 0 1-.833.967c-4.306 5.341-10.9 6.813-16.796 6.395-6.128-.435-12.39-2.92-16.698-6.431-.223-.183-.442-.37-.658-.559-3.967 2.134-8.025 2.03-10.808 1.488-2.245-.436-4.875-1.399-7.232-3.283-2.728.701-5.25.514-7.05.164L20 73.543v.002a17.902 17.902 0 0 1-4.242-1.384c-2.016.272-3.916.14-5.541-.177-3.293-.64-6.47-2.29-8.859-4.819a4.53 4.53 0 0 1-.18.079c-3.377 1.526-7.609 2.067-11.898.464l-.009-.003-.024-.008v-.001c-4.212-1.557-6.988-4.599-8.59-7.657l-.004-.006-.071-.135-.032-.062-.03-.063-.067-.139-.003-.006c-1.624-3.393-2.433-8.1-.314-12.92 1.496-3.403 3.935-5.75 6.427-7.276.073-.19.15-.425.252-.746.173-.55.352-1.217.527-2.015l.175-.843.867-4.463c.83-4.267 3.21-8.181 7.068-10.685l.021-.014.022-.014c4.171-2.635 8.594-2.713 11.855-2.08l12.623 2.455c1.497.291 3.15.808 4.782 1.666a17.628 17.628 0 0 1 5.082.252l12.403 2.413.034.006.035.007c.801.17 1.644.392 2.503.701.955.033 1.852.145 2.665.303l18.22 3.543c1.61.313 3.592.94 5.535 2.151 3.236-.423 6.44-.24 9.519.358a28.31 28.31 0 0 1 4.825 1.402c3.412-1.771 7.269-2.05 10.682-1.386l.033.006.034.007.438.093.032.007.031.007c2.671.607 6.27 2.063 9.014 5.487l.263.338.019.024.018.026.203.276.04.053.037.056.199.29.019.028.019.028a14.863 14.863 0 0 1 1.72 3.526 25.276 25.276 0 0 1 6.594-1.887l.081-.012c3.538-.522 7.051-.328 10.423.327 2.049.399 4.039.998 5.96 1.77l7.437 2.989c.23-.048.461-.093.692-.134l.001-.001.016-.003c-.006.002-.01.002-.003 0l.047-.009.106-.019-.001.001c3.424-.611 6.819-.496 10.076.137Zm-34.943-5.028-.017.003.04-.006-.023.003Z" fill="#A009BE" stroke="#000" stroke-width="8.424"/><path d="M16.604 61.163c-1.073-.209-1.845-.663-2.317-1.362-.467-.724-.593-1.634-.38-2.732l3.343-17.195-6.731-1.309-.818 4.208c-.365 1.878-.848 3.581-1.45 5.11-.6 1.528-1.31 2.896-2.126 4.104a15.73 15.73 0 0 1-2.776 3.143 14.345 14.345 0 0 1-3.343 2.16c-.836.394-1.63.442-2.382.144-.757-.273-1.357-.833-1.8-1.678-.414-.866-.462-1.66-.144-2.383.317-.722.899-1.305 1.745-1.749a8.274 8.274 0 0 0 2.227-1.693A11.528 11.528 0 0 0 1.43 47.43c.545-.982 1.016-2.105 1.414-3.37a38.968 38.968 0 0 0 1.052-4.237l.868-4.464c.218-1.122.677-1.918 1.376-2.39.728-.491 1.653-.628 2.775-.41l12.622 2.455c1.122.218 1.928.69 2.42 1.42.496.703.635 1.616.416 2.738L20.64 58.378c-.213 1.098-.672 1.895-1.376 2.39-.7.472-1.585.603-2.659.395Zm9.783 1.56c-1.146-.223-1.967-.686-2.463-1.39-.467-.724-.591-1.646-.373-2.768l3.663-18.842c.218-1.122.677-1.918 1.376-2.39.729-.491 1.666-.625 2.812-.402l12.402 2.411c.879.17 1.494.518 1.848 1.043.354.524.45 1.2.289 2.03-.166.854-.514 1.47-1.043 1.848-.524.353-1.226.445-2.104.274l-9.475-1.842-.953 4.902 8.67 1.686c.854.166 1.458.511 1.811 1.036.378.529.484 1.22.318 2.074-.166.853-.523 1.455-1.072 1.804-.524.353-1.213.447-2.067.281l-8.67-1.686-1.032 5.305L39.8 59.94c.878.17 1.491.53 1.84 1.079.354.524.45 1.201.289 2.03-.166.854-.511 1.458-1.036 1.811-.524.354-1.225.445-2.103.275l-12.403-2.412Zm26.685 5.53c-1.073-.208-1.845-.662-2.317-1.361-.467-.724-.596-1.622-.387-2.695l3.35-17.232-5.744-1.117c-.902-.175-1.552-.542-1.95-1.1-.368-.578-.467-1.306-.297-2.184.176-.903.54-1.54 1.094-1.914.578-.369 1.318-.465 2.22-.29l18.22 3.543c.902.175 1.54.54 1.913 1.093.398.558.51 1.289.334 2.191-.171.878-.548 1.514-1.13 1.907-.554.373-1.282.472-2.184.297l-5.744-1.117-3.35 17.231c-.21 1.074-.653 1.86-1.333 2.361-.675.476-1.573.606-2.695.387Zm24.072 4.757c-2.854-.555-5.198-1.58-7.034-3.077-1.835-1.495-3.107-3.35-3.816-5.563-.684-2.21-.765-4.655-.244-7.338.39-2 1.047-3.758 1.975-5.273.952-1.511 2.127-2.738 3.525-3.681 1.423-.938 3.035-1.549 4.836-1.831 1.831-.303 3.807-.247 5.93.165 1.121.218 2.254.578 3.397 1.078 1.172.481 2.171 1.068 2.999 1.76.611.5.997 1.055 1.156 1.668.16.613.133 1.203-.078 1.77a3.358 3.358 0 0 1-.928 1.452 2.616 2.616 0 0 1-1.502.695c-.565.042-1.134-.157-1.706-.598a11.426 11.426 0 0 0-2.046-1.195 8.516 8.516 0 0 0-2.175-.726c-1.512-.294-2.837-.248-3.975.138-1.11.366-2.027 1.049-2.752 2.047-.726.998-1.245 2.302-1.558 3.911-.313 1.61-.323 3.026-.029 4.247.3 1.197.892 2.186 1.778 2.966.915.76 2.129 1.287 3.641 1.58.634.124 1.331.184 2.091.18a10.575 10.575 0 0 0 2.308-.349c.794-.175 1.457-.134 1.99.121.556.26.963.643 1.219 1.148.28.51.412 1.068.396 1.672-.011.58-.206 1.124-.583 1.633-.353.514-.88.88-1.58 1.098-.954.346-2.093.542-3.418.588a16.585 16.585 0 0 1-3.817-.286ZM97.82 54.629c-.359.284-.738.413-1.138.386-.4-.027-.729-.154-.989-.382a1.142 1.142 0 0 1-.399-.875c-.002-.38.198-.759.6-1.136a4.78 4.78 0 0 0 .683-.969c.197-.366.325-.696.382-.989l-.097 1.083c-1.073-.209-1.847-.587-2.323-1.135-.447-.568-.584-1.291-.414-2.17.166-.853.56-1.447 1.182-1.782.627-.359 1.465-.436 2.513-.232 1.05.204 1.792.614 2.229 1.23.437.617.558 1.425.364 2.425a8.594 8.594 0 0 1-1.393 3.26 5.183 5.183 0 0 1-1.2 1.286Zm20.09 26.307c-2.951-.574-5.357-1.61-7.216-3.112-1.836-1.495-3.098-3.335-3.787-5.52-.689-2.184-.777-4.593-.265-7.227.398-2.05 1.073-3.829 2.025-5.34.981-1.53 2.195-2.762 3.642-3.696 1.452-.958 3.115-1.571 4.99-1.84 1.904-.287 3.978-.213 6.222.223a20.12 20.12 0 0 1 3.66 1.092 13.022 13.022 0 0 1 3.483 2.006c.577.416.923.913 1.039 1.492.144.56.11 1.123-.101 1.69a3.57 3.57 0 0 1-.928 1.452 2.43 2.43 0 0 1-1.502.695c-.589.037-1.207-.172-1.853-.626a10.636 10.636 0 0 0-2.228-1.23 12.348 12.348 0 0 0-2.651-.82c-1.634-.318-3.057-.29-4.268.082-1.187.376-2.16 1.086-2.92 2.128-.759 1.041-1.3 2.392-1.622 4.05-.484 2.488-.24 4.485.733 5.99s2.655 2.49 5.045 2.955c.732.143 1.539.224 2.421.243.906.025 1.825-.012 2.755-.11l-1.735 2.283 1.216-6.256-2.56-.498c-.83-.161-1.436-.494-1.819-.999-.358-.5-.464-1.128-.317-1.884.147-.756.478-1.287.993-1.592.544-.324 1.231-.406 2.06-.245l5.415 1.053c.853.166 1.455.524 1.804 1.072.378.53.484 1.22.318 2.075l-1.572 8.085c-.143.732-.422 1.323-.839 1.773-.392.456-.939.729-1.64.82-1.222.168-2.525.23-3.909.19a25.352 25.352 0 0 1-4.089-.454Zm24.771 4.816c-2.61-.507-4.796-1.501-6.558-2.983a12.043 12.043 0 0 1-3.699-5.58c-.685-2.208-.768-4.642-.251-7.3.389-2 1.047-3.758 1.974-5.273.952-1.511 2.115-2.74 3.489-3.688 1.398-.944 2.962-1.563 4.69-1.86 1.733-.321 3.575-.292 5.526.087 2.61.508 4.784 1.5 6.522 2.977 1.762 1.481 2.997 3.329 3.706 5.542.713 2.19.809 4.625.288 7.308-.389 2-1.06 3.755-2.011 5.266-.928 1.516-2.093 2.757-3.496 3.725-1.374.948-2.928 1.582-4.661 1.903-1.728.297-3.568.256-5.519-.124Zm1.095-5.634c1.293.252 2.45.16 3.471-.274 1.021-.434 1.887-1.177 2.597-2.229.711-1.051 1.223-2.382 1.536-3.992.469-2.414.298-4.397-.514-5.947-.813-1.55-2.182-2.512-4.109-2.887-1.268-.246-2.425-.155-3.471.275-1.016.41-1.879 1.14-2.59 2.192-.706 1.027-1.218 2.357-1.536 3.992-.469 2.414-.3 4.409.508 5.983.812 1.55 2.182 2.513 4.108 2.887Z" fill="#fff"/></svg>