<svg width="264" height="176" fill="none" xmlns="http://www.w3.org/2000/svg"><path d="m74.412 163.818.04-.025v-.001l.013-.009c.027-.018.054-.034.078-.051l.005-.002.843-.571a21.97 21.97 0 0 0 6.948-1.421c3.39-1.287 7.8-3.911 10.685-8.825 5.285 1.705 10.259.88 13.84-.479a22.417 22.417 0 0 0 3.946-1.963 22.086 22.086 0 0 0 4.246-1.145c1.827-.693 4.274-1.883 6.605-3.903 2.451-.822 5.002-1.5 7.763-2.244 3.074-.827 6.41-1.736 9.655-2.967a21.796 21.796 0 0 0 3.936-1.967 22.757 22.757 0 0 0 4.338-1.172c2.522-.956 5.676-2.652 8.356-5.538a21.039 21.039 0 0 0 11.674-2.164l.553-.291a21.36 21.36 0 0 0 4.992-3.75c4.142-.077 8.123-.944 11.842-2.354l.001-.001c3.899-1.479 7.64-3.6 10.948-6.528l.014-.014.016-.014.111-.099.012-.011.012-.011.044-.042c3.747.391 7.153-.323 9.805-1.329 4.375-1.66 8.286-4.729 10.751-8.957 3.361.765 6.888.263 9.779-.469 3.997-1.012 8.116-2.814 11.693-4.673 3.608-1.876 6.884-3.925 9.237-5.578 1.159-.814 2.197-1.605 2.967-2.282.339-.3.853-.77 1.295-1.332a6.216 6.216 0 0 0 1.04-1.92 6.01 6.01 0 0 0 .154-.581c.721-2.22.829-4.598.68-6.782-.175-2.546-.731-5.268-1.523-7.988-1.583-5.44-4.259-11.369-7.496-16.718-3.211-5.307-7.186-10.394-11.536-13.88-4.165-3.336-10.051-6.23-16.22-3.891a22.718 22.718 0 0 0-4.731 2.458 22.135 22.135 0 0 0-5.095 1.269c-2.714 1.03-6.311 2.953-9.214 6.56a6.262 6.262 0 0 0-.666.715c-.392.49-.684 1-.852 1.309a20.562 20.562 0 0 0-1.403-.355h.001l-.031-.007a1.966 1.966 0 0 0-.034-.007h-.001c-6.47-1.425-13.473.52-18.478 4.703l-12.58-3.443a23.87 23.87 0 0 0-.557-.55l-6.223-6.076h-.001l-.541-.537c-1.264-1.268-2.528-2.652-3.906-4.159-1.534-1.677-3.206-3.504-4.978-5.221-3.493-3.385-7.832-6.808-13.424-8.31l-.067-.021a7.02 7.02 0 0 0-.424-.104c-8.575-2.088-17.739 1.505-22.774 8.554l-.013.02-.057.08-.031.042-.029.043-.055.083v.001l-.084.124a25.192 25.192 0 0 0-2.064-.37 9.56 9.56 0 0 0-1.781-.076c-.167.01-.451.034-.807.1-7.44-.005-14.119 2.703-19.766 6.19l-.026.015-.024.016c-3.236 2.045-6.928 4.972-9.497 8.954a31.904 31.904 0 0 0-3.284-.636l-.025-.003c-2.14-.27-4.655.028-6.835.423-2.424.438-5.094 1.123-7.67 1.926-2.575.804-5.16 1.76-7.405 2.773-2.096.946-4.404 2.165-6.018 3.632-.477.429-.942.872-1.392 1.327a32.319 32.319 0 0 0-7.807.46l-.039.006-.018.004h-.001c-10.378 1.825-21.185 7.85-26.606 18.153a6.82 6.82 0 0 0-.81 1.096c-.496.83-.801 1.714-.981 2.289-.396 1.265-.716 2.809-.96 4.172-.461 2.568-.847 5.646-.878 6.703l-.003.001-.002.044-.002.096v.095l.001.044c-.023 4.539.91 8.846 2.412 12.807 1.974 5.204 5.07 10.125 9.644 14.061a30.685 30.685 0 0 0 5.443 3.749c-1.246 3.452-1.847 7.027-1.874 10.618v.087l-.001.074v.061c.024 4.436.941 8.657 2.424 12.565 1.967 5.185 5.03 10.109 9.555 14.067h.001l.041.037.066.059.068.058.016.013v.001c4.676 3.989 10.233 6.405 16.25 7.187 8.75 1.137 17.712-1.397 24.748-6.098m.013-.009-.058.036-.026.017.071-.044m.013-.009-.013.009m.013-.009.009-.005-.022.014" fill="#4147D5" stroke="#252525" stroke-width="11.208"/><path d="M45.55 110.632c-3.375 1.281-6.487 1.743-9.335 1.387-2.82-.366-5.272-1.446-7.357-3.241-2.085-1.794-3.7-4.198-4.842-7.211-.89-2.343-1.326-4.588-1.31-6.732.034-2.183.494-4.209 1.381-6.077.877-1.897 2.187-3.575 3.931-5.034 1.762-1.498 3.926-2.734 6.493-3.708 1.395-.529 2.87-.93 4.427-1.2 1.546-.3 3.155-.352 4.825-.155.852.06 1.52.348 2.004.867a3.31 3.31 0 0 1 .966 1.788c.16.673.15 1.363-.029 2.07-.162.667-.526 1.22-1.094 1.66-.578.41-1.34.587-2.287.532a12.78 12.78 0 0 0-3.054.153 14.831 14.831 0 0 0-3.224.84c-1.869.709-3.305 1.636-4.306 2.782-.973 1.136-1.518 2.476-1.635 4.02-.116 1.544.186 3.264.905 5.162 1.08 2.846 2.592 4.729 4.538 5.651 1.945.922 4.285.864 7.02-.174a17.228 17.228 0 0 0 2.624-1.283 25.122 25.122 0 0 0 2.743-1.854l-.327 3.427-2.715-7.156-2.93 1.111c-.948.36-1.777.403-2.487.13-.683-.284-1.188-.858-1.516-1.723-.328-.865-.325-1.616.007-2.253.35-.675 1-1.193 1.949-1.552l6.194-2.35c.976-.37 1.816-.386 2.52-.046.72.3 1.265.94 1.636 1.916l3.508 9.249c.318.837.407 1.617.266 2.341-.112.713-.498 1.338-1.156 1.874a28.354 28.354 0 0 1-3.872 2.666 30.445 30.445 0 0 1-4.46 2.123Zm28.337-10.75c-2.986 1.133-5.847 1.5-8.583 1.102-2.747-.426-5.182-1.545-7.305-3.356-2.096-1.822-3.72-4.254-4.874-7.295-.868-2.288-1.308-4.499-1.32-6.633.017-2.144.427-4.135 1.23-5.972.831-1.847 2.035-3.468 3.612-4.865 1.566-1.424 3.465-2.559 5.697-3.406 2.986-1.132 5.833-1.494 8.54-1.085 2.737.398 5.167 1.503 7.29 3.314 2.113 1.784 3.752 4.21 4.916 7.28.868 2.287 1.294 4.503 1.278 6.648.011 2.134-.393 4.138-1.214 6.013-.803 1.837-1.988 3.468-3.554 4.892-1.577 1.395-3.481 2.517-5.713 3.364Zm-2.445-6.444c1.478-.561 2.602-1.386 3.37-2.475.767-1.09 1.181-2.396 1.242-3.919.06-1.523-.259-3.205-.957-5.046-1.048-2.762-2.477-4.678-4.287-5.747s-3.817-1.185-6.02-.349c-1.452.55-2.575 1.376-3.37 2.475-.779 1.062-1.198 2.354-1.259 3.877-.07 1.495.248 3.177.957 5.046 1.048 2.763 2.482 4.692 4.303 5.789 1.81 1.069 3.816 1.185 6.02.349Zm39.389-7.57c-1.813.687-3.565 1.16-5.254 1.418-1.662.248-3.256.294-4.783.139-.919-.066-1.662-.343-2.23-.83-.54-.497-.898-1.063-1.075-1.698a3.131 3.131 0 0 1 .05-1.886c.211-.623.606-1.14 1.184-1.55.578-.411 1.341-.589 2.287-.533.72.046 1.452.04 2.195-.019a13.523 13.523 0 0 0 2.252-.375c.785-.202 1.54-.44 2.265-.716 1.284-.487 2.288-.995 3.012-1.526.714-.558 1.171-1.162 1.371-1.812.2-.65.157-1.353-.129-2.106-.359-.948-.959-1.519-1.798-1.711-.821-.231-1.944-.077-3.367.463l-4.394 1.667c-1.004.381-1.867.421-2.588.12-.72-.301-1.266-.94-1.636-1.916-.36-.949-.37-1.775-.03-2.478.34-.704 1.011-1.246 2.016-1.627l3.599-1.365c1.423-.54 2.37-1.155 2.843-1.845.472-.69.528-1.509.168-2.457-.222-.586-.571-1.044-1.047-1.374-.487-.358-1.108-.522-1.862-.49-.765.002-1.691.21-2.78.623-.92.35-1.832.807-2.734 1.372a12.676 12.676 0 0 0-2.419 1.827c-.7.68-1.396 1.073-2.091 1.177-.705.076-1.343-.05-1.914-.375a3.682 3.682 0 0 1-1.346-1.404 3.247 3.247 0 0 1-.364-1.969c.113-.713.482-1.38 1.108-2a18.754 18.754 0 0 1 3.687-3.027 26.198 26.198 0 0 1 4.639-2.286c2.483-.942 4.68-1.376 6.59-1.303 1.939.062 3.546.554 4.821 1.474 1.274.921 2.203 2.149 2.785 3.683.656 1.73.715 3.4.176 5.008-.511 1.598-1.532 2.943-3.065 4.035l-.254-.67c2.147-.399 4.002-.177 5.566.666 1.565.842 2.717 2.24 3.458 4.193.646 1.702.776 3.392.392 5.07-.357 1.667-1.299 3.222-2.827 4.663-1.528 1.441-3.687 2.691-6.477 3.75Zm15.502-5.977c-.865.328-1.665.408-2.399.24a2.807 2.807 0 0 1-1.723-1.261c-.415-.673-.596-1.53-.544-2.57l1.911-26.386c.089-1.279.402-2.306.936-3.084.563-.788 1.319-1.362 2.268-1.722.948-.36 1.866-.42 2.755-.183.915.227 1.845.784 2.788 1.671l18.93 18.479c.785.723 1.246 1.474 1.381 2.252.164.768.027 1.458-.411 2.071-.41.603-1.033 1.063-1.87 1.38-1.116.423-2.076.5-2.881.231-.776-.28-1.613-.888-2.511-1.824l-4.276-4.458 3.739 1.023-17.242 6.541 2.162-3.261-.244 6.172c-.079 1.307-.288 2.312-.628 3.015-.339.703-1.053 1.261-2.141 1.674Zm3.556-26.339-.457 13.434-1.934-1.564 12.179-4.62-.41 2.453-9.294-9.735-.084.032Zm-68.9 98.283c-3.264 1.238-6.306 1.674-9.126 1.308-2.82-.367-5.291-1.456-7.415-3.267-2.095-1.822-3.725-4.268-4.89-7.337-.867-2.288-1.307-4.499-1.319-6.633.017-2.144.44-4.14 1.272-5.987.859-1.858 2.118-3.501 3.779-4.929 1.678-1.466 3.73-2.66 6.158-3.581a19.401 19.401 0 0 1 4.15-1.047c1.501-.251 2.893-.284 4.175-.1.94.122 1.685.446 2.236.971a3.46 3.46 0 0 1 1.039 1.856 4.03 4.03 0 0 1-.029 2.069 3.14 3.14 0 0 1-1.094 1.66c-.55.4-1.257.557-2.12.469a13.741 13.741 0 0 0-2.844.074 10.26 10.26 0 0 0-2.68.633c-1.73.657-3.054 1.542-3.971 2.656-.901 1.076-1.406 2.352-1.516 3.83-.11 1.478.185 3.138.884 4.979.698 1.841 1.584 3.293 2.657 4.354 1.062 1.033 2.292 1.668 3.69 1.903 1.415.197 2.988-.032 4.718-.688a12.882 12.882 0 0 0 2.248-1.141 12.682 12.682 0 0 0 2.136-1.815c.7-.68 1.401-1.059 2.107-1.135.733-.086 1.39.048 1.971.402a3.867 3.867 0 0 1 1.462 1.456c.355.599.5 1.278.437 2.036-.035.747-.342 1.454-.919 2.12-.754.956-1.793 1.877-3.117 2.762a19.864 19.864 0 0 1-4.078 2.122Zm15.348-5.918c-1.116.423-2.097.445-2.944.064-.819-.392-1.44-1.146-1.863-2.262l-8.811-23.227c-.434-1.144-.442-2.13-.022-2.96.409-.857 1.199-1.508 2.37-1.952.977-.371 1.819-.467 2.525-.288.723.141 1.486.553 2.289 1.238l15.126 12.741-1.465.556 2.828-19.552c.174-1.055.471-1.87.892-2.445.437-.612 1.144-1.104 2.121-1.475 1.116-.423 2.083-.439 2.902-.047.836.353 1.471 1.101 1.905 2.245l8.812 23.227c.423 1.116.458 2.092.105 2.928-.353.836-1.101 1.471-2.245 1.905-1.116.424-2.098.445-2.944.064-.82-.392-1.44-1.145-1.864-2.261l-5.461-14.397.879-.333-2.293 14.274c-.157.762-.401 1.381-.731 1.857-.302.466-.816.836-1.542 1.112-.697.264-1.327.328-1.89.19-.563-.137-1.142-.444-1.738-.92l-11.24-9.189.962-.365 5.477 14.439c.423 1.116.459 2.092.106 2.928-.353.836-1.102 1.471-2.246 1.905Zm32.718-12.412c-.864.328-1.664.408-2.398.24a2.807 2.807 0 0 1-1.723-1.262c-.415-.672-.596-1.529-.544-2.57l1.911-26.385c.089-1.279.401-2.307.936-3.084.563-.788 1.319-1.362 2.267-1.722.949-.36 1.867-.42 2.755-.183.916.227 1.846.784 2.788 1.671l18.931 18.479c.785.723 1.245 1.474 1.381 2.252.164.768.027 1.458-.411 2.071-.41.603-1.033 1.062-1.87 1.38-1.116.423-2.076.5-2.881.231-.776-.28-1.613-.888-2.511-1.824l-4.276-4.458 3.739 1.023-17.242 6.541 2.161-3.261-.243 6.172c-.079 1.307-.288 2.312-.628 3.015-.34.703-1.053 1.261-2.142 1.674Zm3.557-26.339-.457 13.434-1.934-1.564 12.178-4.62-.409 2.453-9.295-9.735-.083.032Zm28.739 14.087c-1.227.466-2.303.491-3.227.075-.934-.443-1.634-1.279-2.099-2.506l-8.526-22.474c-.487-1.283-.517-2.373-.091-3.269.416-.923 1.237-1.618 2.465-2.084 1.255-.476 2.331-.501 3.227-.075.913.388 1.613 1.223 2.1 2.507l3.143 8.286 3.557-1.349-.802 1.166 2.369-13.442c.202-1.066.613-1.876 1.232-2.43.609-.582 1.294-.922 2.055-1.019a3.845 3.845 0 0 1 2.239.348c.72.3 1.271.826 1.651 1.576.369.721.444 1.634.225 2.739l-2.304 11.214-3.875-.875c2.091-.379 3.973-.295 5.648.25 1.703.535 3.419 1.608 5.147 3.218l4.979 4.67c.894.842 1.391 1.691 1.492 2.546.129.845-.023 1.621-.457 2.328a4.352 4.352 0 0 1-1.775 1.631c-.75.38-1.561.512-2.435.397-.873-.116-1.689-.541-2.446-1.275l-5.227-5.198c-.964-.942-1.927-1.503-2.888-1.681-.961-.178-2.056-.034-3.283.432l-2.721 1.032 3.001 7.91c.466 1.227.51 2.311.133 3.252-.388.913-1.223 1.613-2.507 2.1Zm37.418-14.099c-2.986 1.133-5.846 1.5-8.583 1.102-2.746-.426-5.182-1.545-7.305-3.357-2.095-1.822-3.72-4.253-4.874-7.294-.868-2.288-1.307-4.5-1.319-6.633.016-2.145.426-4.135 1.229-5.972.831-1.847 2.035-3.469 3.612-4.865 1.566-1.424 3.466-2.56 5.698-3.406 2.985-1.132 5.832-1.494 8.54-1.085 2.736.398 5.166 1.503 7.29 3.314 2.112 1.784 3.751 4.21 4.915 7.28.868 2.287 1.294 4.503 1.278 6.648.011 2.134-.393 4.138-1.214 6.013-.803 1.837-1.988 3.467-3.554 4.891-1.577 1.396-3.481 2.518-5.713 3.364Zm-2.445-6.445c1.479-.56 2.602-1.386 3.369-2.475.768-1.089 1.182-2.395 1.243-3.918.06-1.523-.259-3.205-.957-5.047-1.048-2.762-2.477-4.677-4.287-5.746-1.809-1.069-3.816-1.185-6.02-.349-1.451.55-2.574 1.375-3.37 2.475-.778 1.061-1.198 2.354-1.258 3.877-.071 1.495.248 3.177.957 5.046 1.048 2.762 2.482 4.692 4.302 5.788 1.81 1.069 3.817 1.186 6.021.349Zm23.407-1.603c-1.116.424-2.097.445-2.944.064-.819-.391-1.44-1.145-1.863-2.261l-8.812-23.227c-.434-1.144-.441-2.13-.021-2.96.408-.857 1.199-1.508 2.371-1.953.976-.37 1.817-.466 2.524-.287.723.14 1.486.553 2.289 1.238l15.126 12.74-1.465.557 2.828-19.552c.174-1.056.471-1.87.891-2.445.438-.613 1.145-1.105 2.122-1.475 1.116-.423 2.083-.44 2.902-.048.836.353 1.471 1.102 1.905 2.246l8.811 23.227c.424 1.116.459 2.092.106 2.928-.353.836-1.102 1.471-2.246 1.905-1.116.423-2.097.445-2.944.064-.818-.392-1.439-1.146-1.863-2.262l-5.461-14.396.879-.334-2.293 14.275c-.158.761-.402 1.38-.732 1.857-.302.466-.815.836-1.541 1.111-.697.265-1.328.328-1.89.19-.563-.137-1.142-.444-1.738-.92L195.431 80.2l.963-.365 5.477 14.438c.423 1.116.458 2.092.105 2.928-.353.837-1.101 1.472-2.245 1.906Zm30.54-23.075c-.725.275-1.401.26-2.028-.044-.598-.316-1.112-.871-1.541-1.666l-6.259-12.083c-.746-1.377-.925-2.649-.539-3.817.376-1.196 1.276-2.064 2.699-2.604 1.451-.55 2.699-.497 3.746.159 1.036.628 1.732 1.705 2.087 3.23l3.372 13.178c.206.88.189 1.636-.049 2.269-.239.633-.735 1.093-1.488 1.378Zm3.763 9.919c-1.256.476-2.403.48-3.442.013-1.011-.478-1.75-1.331-2.215-2.559-.456-1.2-.458-2.3-.008-3.3.468-1.04 1.329-1.797 2.585-2.273 1.311-.498 2.458-.502 3.442-.013 1 .45 1.728 1.275 2.183 2.475.466 1.227.479 2.355.039 3.384-.411 1.018-1.273 1.775-2.584 2.273Z" fill="#fff"/></svg>