<svg width="163" height="113" viewBox="0 0 163 113" fill="none" xmlns="http://www.w3.org/2000/svg">
<path d="M20.9622 51.5628C16.1535 54.7235 15.203 56.4392 15.075 62.1922C11.9142 57.3836 10.1984 56.4334 4.44545 56.3054C9.25411 53.1447 10.2045 51.429 10.3325 45.676C13.4932 50.4847 15.2092 51.4348 20.9622 51.5628Z" fill="#FFD800"/>
<path d="M157.916 54.7876L152.054 56.4708L150.371 50.6087L148.468 51.1551L150.151 57.0172L144.289 58.7005L144.835 60.6038L150.697 58.9206L152.381 64.7827L154.284 64.2363L152.6 58.3742L158.463 56.6909L157.916 54.7876Z" fill="#FFD800"/>
<path d="M50.5907 104.014C48.3084 104.669 45.8326 104.114 43.9675 102.526C42.9551 101.664 42.2064 100.582 41.749 99.3977C40.5893 99.1465 39.4823 98.6058 38.5335 97.7981C37.5217 96.9379 36.7725 95.8534 36.3151 94.6693C35.1559 94.42 34.0489 93.8792 33.0999 93.0716C32.0875 92.2096 31.3384 91.1251 30.881 89.9411C29.7218 89.6917 28.6148 89.151 27.6658 88.3433C26.6534 87.4814 25.9048 86.3986 25.4469 85.2128C24.2879 84.9634 23.1809 84.4226 22.2319 83.615C19.1807 81.0194 18.5856 76.4836 20.8778 73.2908C28.2009 63.092 37.1034 53.6707 47.3394 45.2917C55.485 38.6245 64.4899 32.5945 74.1049 27.3735C86.1049 20.8541 95.9825 17.2455 100.671 15.7092L100.86 14.9315C101.354 12.8979 102.911 11.2767 104.922 10.6991C106.933 10.1216 109.113 10.67 110.611 12.1315L118.261 19.5954L128.917 18.786C131.004 18.6278 133.027 19.6072 134.198 21.3429C135.369 23.0769 135.52 25.3191 134.593 27.1948L129.859 36.7775L133.92 46.6616C134.551 48.1976 134.5 49.9297 133.78 51.4184C133.054 52.9166 131.726 54.0391 130.134 54.4961L130.134 54.4962C129.335 54.7256 128.509 54.7806 127.677 54.6586L117.102 53.1178L108.955 60.0344C108.315 60.5788 107.586 60.9707 106.787 61.2001C105.195 61.6571 103.473 61.4105 102.063 60.5255C101.922 60.4366 101.786 60.3425 101.654 60.2431C87.5059 68.0714 68.7996 81.2153 54.3348 101.363C53.4852 102.546 52.3212 103.421 50.9681 103.894C50.8441 103.937 50.7181 103.977 50.5907 104.014Z" fill="white"/>
<path d="M27.99 81.4272C26.9187 81.8014 25.6681 81.5901 24.6762 80.7458C23.1299 79.4294 22.8006 77.0756 23.9406 75.4878C31.0714 65.5559 39.7477 56.378 49.7284 48.2075C57.6907 41.6909 66.4975 35.7944 75.905 30.6839C91.9406 21.9745 104.053 18.5945 104.561 18.4546C106.394 17.9498 108.346 19.1615 108.921 21.1626C109.495 23.1618 108.475 25.1916 106.641 25.6945C106.44 25.7523 94.5346 29.1022 79.159 37.475C64.9976 45.1875 44.8939 58.8699 29.5401 80.2528C29.1313 80.8231 28.5884 81.2161 27.99 81.4272Z" fill="#F15BB5"/>
<path d="M33.4313 86.1518C32.3607 86.5278 31.1094 86.3147 30.1182 85.4721C28.5717 84.1558 28.2426 81.8019 29.3826 80.2142C36.5132 70.2823 45.1895 61.1044 55.1702 52.934C63.132 46.4156 71.9395 40.5207 81.347 35.4102C97.3824 26.701 109.495 23.319 110.003 23.1792C111.836 22.6762 113.788 23.8879 114.362 25.8871C114.937 27.8864 113.917 29.9158 112.083 30.4209C111.882 30.4768 99.9764 33.8287 84.6008 42.2015C70.4395 49.9139 50.3352 63.5945 34.982 84.9793C34.5731 85.5495 34.0304 85.9425 33.4313 86.1518Z" fill="#F23637"/>
<path d="M38.8649 90.8822C37.7943 91.2582 36.5431 91.0451 35.5514 90.2008C34.0054 88.8863 33.6761 86.5324 34.8161 84.9446C41.9468 75.0128 50.6232 65.8349 60.6039 57.6644C68.5656 51.146 77.3731 45.2512 86.7805 40.1407C102.816 31.4314 114.928 28.0496 115.436 27.9097C117.269 27.4049 119.221 28.6184 119.796 30.6176C120.37 32.6169 119.349 34.6449 117.519 35.1509C117.399 35.1831 105.465 38.5297 90.0345 46.9319C75.8731 54.6444 55.7689 68.325 40.4156 89.7097C40.0062 90.2781 39.4639 90.673 38.8649 90.8822Z" fill="#FFD800"/>
<path d="M44.2906 95.6089C43.2195 95.9831 41.9687 95.7718 40.977 94.9274C39.4307 93.611 39.1014 91.2572 40.2414 89.6694C47.372 79.7376 56.0483 70.5597 66.029 62.3892C73.9915 55.8726 82.7983 49.976 92.2063 44.8673C108.241 36.1562 120.354 32.7761 120.862 32.6362C122.695 32.1315 124.646 33.3432 125.221 35.3442C125.795 37.3416 124.774 39.3677 122.944 39.8775C122.825 39.9097 110.89 43.2546 95.4596 51.6567C81.2982 59.3692 61.1945 73.0516 45.8407 94.4345C45.432 95.0047 44.8892 95.3978 44.2906 95.6089Z" fill="#00BBF9"/>
<path d="M49.7247 100.338C48.6544 100.714 47.4034 100.503 46.4117 99.6583C44.8654 98.342 44.5361 95.9882 45.6761 94.4003C55.6767 80.4727 68.5631 68.1746 83.9782 57.8517C96.9387 49.1726 109.028 43.6921 116.887 40.6238C116.922 40.6098 116.958 40.5976 116.993 40.5837C118.738 39.9727 120.712 40.9859 121.443 42.8893C122.188 44.8317 121.357 46.9677 119.586 47.6585C103.328 54.007 72.8329 69.1402 51.2754 99.1655C50.8667 99.7357 50.3239 100.129 49.7247 100.338Z" fill="#7209B7"/>
<path d="M107.984 14.8275L116.853 23.4802L129.207 22.5438C130.807 22.4217 131.931 24.0868 131.22 25.5257L125.732 36.6327L130.44 48.0932C131.05 49.5766 129.814 51.1606 128.226 50.9303L115.966 49.1422L106.522 57.1625C105.299 58.1998 103.411 57.5129 103.14 55.9321L101.051 43.7194L90.5061 37.2164C89.1405 36.3735 89.2099 34.3658 90.6305 33.6208L101.6 27.86L104.526 15.8204C104.906 14.2629 106.837 13.7084 107.984 14.8275Z" fill="#FFD800"/>
<path d="M115.713 48.2476L128.352 50.0913C128.792 50.1552 129.219 49.9838 129.492 49.6327C129.766 49.2816 129.828 48.8266 129.66 48.4163L124.805 36.6016L130.463 25.15C130.66 24.7504 130.63 24.2927 130.38 23.9232C130.132 23.5554 129.718 23.3547 129.275 23.3898L116.539 24.3554L107.396 15.4345C107.078 15.124 106.633 15.0127 106.205 15.1355C105.777 15.2583 105.459 15.5888 105.354 16.0209L102.337 28.4334L91.0284 34.372C90.6341 34.5773 90.39 34.9669 90.3743 35.4106C90.3593 35.8559 90.5759 36.2603 90.9547 36.4946L101.826 43.1999L103.98 55.79C104.054 56.2273 104.349 56.5799 104.767 56.7323C105.185 56.8847 105.638 56.8038 105.977 56.5163L115.713 48.2476ZM129.342 51.689C128.951 51.8014 128.532 51.8296 128.108 51.769L116.226 50.0368L107.074 57.8086C106.265 58.4959 105.186 58.69 104.188 58.3258C103.19 57.9634 102.487 57.1223 102.308 56.0759L100.284 44.2406L90.0646 37.9381C89.1609 37.3802 88.643 36.4135 88.6797 35.3522C88.7163 34.291 89.2996 33.3629 90.2396 32.8695L100.87 27.2883L103.706 15.6198C103.957 14.5891 104.716 13.7987 105.737 13.5056C106.757 13.2126 107.82 13.4798 108.58 14.2203L108.58 14.2202L117.175 22.6066L129.147 21.6977C130.205 21.6172 131.192 22.0945 131.786 22.9746C132.38 23.8547 132.454 24.9489 131.984 25.9013L126.665 36.6655L131.228 47.7718C131.632 48.7537 131.482 49.8395 130.829 50.6759C130.44 51.1759 129.921 51.5229 129.342 51.689Z" fill="#231F20"/>
<path d="M114.963 44.3857C114.132 44.6242 113.279 44.6926 112.428 44.5882C111.607 44.4888 110.821 44.2341 110.094 43.8313C109.367 43.4285 108.734 42.8985 108.214 42.254C107.919 41.8897 107.976 41.3559 108.34 41.063C108.704 40.7683 109.238 40.8248 109.533 41.1891C109.915 41.6616 110.38 42.0514 110.916 42.3486C111.451 42.6457 112.028 42.8327 112.632 42.9046C113.256 42.98 113.884 42.9313 114.495 42.7558C115.106 42.5803 115.664 42.2907 116.153 41.8936C116.626 41.5125 117.016 41.0476 117.313 40.5117C117.609 39.9758 117.796 39.3986 117.87 38.7953C117.926 38.3303 118.348 37.9992 118.813 38.0558C119.278 38.1107 119.609 38.5331 119.553 38.9981C119.453 39.8206 119.199 40.6053 118.796 41.3326C118.393 42.0598 117.863 42.6924 117.219 43.2125C116.553 43.7527 115.793 44.1471 114.963 44.3857Z" fill="#231F20"/>
<path d="M108.191 35.8332C108.576 37.1751 107.801 38.5739 106.46 38.959C105.119 39.3441 103.719 38.5698 103.334 37.2278C102.949 35.8859 103.724 34.4871 105.065 34.102C106.406 33.7168 107.806 34.4912 108.191 35.8332Z" fill="#F9696A"/>
<path d="M120.867 32.1945C121.252 33.5364 120.477 34.9352 119.136 35.3204C117.794 35.7055 116.395 34.9311 116.01 33.5891C115.625 32.2472 116.4 30.8484 117.741 30.4633C119.082 30.0782 120.482 30.8526 120.867 32.1945Z" fill="#F9696A"/>
<path d="M108.055 32.7978C108.356 33.8464 108.02 34.8603 107.305 35.0656C106.59 35.2709 105.767 34.5898 105.466 33.5412C105.165 32.4945 105.501 31.4805 106.216 31.2752C106.932 31.0699 107.754 31.751 108.055 32.7978Z" fill="#231F20"/>
<path d="M117.102 30.1982C117.403 31.2467 117.067 32.2607 116.352 32.466C115.637 32.6713 114.814 31.9902 114.513 30.9416C114.212 29.8949 114.548 28.8809 115.263 28.6756C115.978 28.4703 116.801 29.1514 117.102 30.1982Z" fill="#231F20"/>
</svg>
