<svg width="263" height="174" viewBox="0 0 263 174" fill="none" xmlns="http://www.w3.org/2000/svg">
<path d="M44.2753 129.999C44.2907 129.997 44.3063 129.996 44.3217 129.994L44.3219 129.993C44.3273 129.992 44.3328 129.993 44.3383 129.992C44.3707 129.988 44.4018 129.986 44.4313 129.982C44.4329 129.982 44.4347 129.982 44.4363 129.982L45.4476 129.859C47.8157 130.965 50.1856 131.53 52.278 131.764C55.8823 132.166 61.0034 131.843 65.8128 128.786C69.7376 132.714 74.5399 134.249 78.3463 134.674C79.673 134.822 81.1648 134.865 82.7542 134.727C84.238 135.203 85.6905 135.493 87.055 135.645C88.9963 135.862 91.7169 135.92 94.7124 135.185C97.2689 135.573 99.8485 136.133 102.645 136.731C105.757 137.396 109.14 138.11 112.59 138.495C113.952 138.647 115.435 138.683 116.99 138.54C118.511 139.026 119.999 139.322 121.385 139.477C124.066 139.776 127.645 139.706 131.347 138.36C134.631 140.484 138.523 141.742 142.722 141.761L143.347 141.754C145.443 141.703 147.512 141.348 149.5 140.694C153.221 142.515 157.159 143.561 161.112 144.002L161.113 144.002C165.258 144.465 169.555 144.284 173.834 143.187L173.853 143.182L173.873 143.177L174.018 143.139L174.033 143.135L174.049 143.131C174.068 143.125 174.088 143.118 174.107 143.113C177.262 145.171 180.62 146.089 183.438 146.403C188.089 146.922 192.969 145.975 197.091 143.338C199.734 145.552 203.102 146.715 206.007 147.382C210.026 148.305 214.514 148.58 218.545 148.558C222.611 148.535 226.461 148.206 229.309 147.809C230.712 147.613 231.997 147.383 232.991 147.131C233.429 147.02 234.102 146.835 234.751 146.537C234.988 146.429 235.792 146.058 236.552 145.303C236.665 145.19 236.804 145.041 236.954 144.856C238.609 143.21 239.79 141.143 240.653 139.132C241.659 136.786 242.407 134.11 242.943 131.328C244.015 125.766 244.34 119.269 243.9 113.032C243.463 106.845 242.247 100.505 239.966 95.418C237.782 90.5487 233.864 85.2871 227.308 84.5553C225.624 84.3674 223.823 84.3531 221.976 84.5843C220.184 83.9304 218.437 83.5645 216.864 83.3889C213.978 83.0669 209.901 83.1375 205.671 85.0232C205.227 85.1454 204.904 85.2874 204.753 85.3555C204.18 85.613 203.688 85.9328 203.397 86.131C203.053 85.8067 202.692 85.4871 202.311 85.1754L202.311 85.1756C202.303 85.1689 202.295 85.1622 202.287 85.1555C202.278 85.1483 202.269 85.1411 202.26 85.1338L202.26 85.1336C197.152 80.9131 190.032 79.449 183.671 80.8876L174.047 72.0856C173.967 71.8314 173.887 71.5827 173.802 71.3411L171.036 63.0955L171.036 63.0946L170.799 62.3699C170.253 60.665 169.759 58.8574 169.221 56.8877C168.621 54.6955 167.967 52.3066 167.173 49.9706C165.609 45.3642 163.31 40.3389 159.019 36.4508C159.004 36.4359 158.987 36.4192 158.969 36.4022C158.94 36.375 158.813 36.2587 158.638 36.1162C151.961 30.3464 142.166 29.3627 134.471 33.3381L134.45 33.349L134.362 33.3947L134.316 33.4186L134.271 33.4435L134.183 33.4923L134.183 33.4933C134.139 33.5171 134.095 33.5413 134.052 33.5654C133.515 33.1259 132.931 32.6699 132.384 32.2951C132.06 32.0733 131.496 31.7024 130.834 31.414C130.68 31.3469 130.416 31.2381 130.07 31.1356C123.451 27.7359 116.273 27.0991 109.657 27.6256L109.627 27.6274L109.598 27.6303C105.785 27.9736 101.164 28.8938 97.0617 31.2652C96.3215 30.6186 95.5478 30.0046 94.7426 29.4234C94.5703 29.2927 94.4448 29.2109 94.4303 29.2014C94.4229 29.1965 94.4156 29.1915 94.4087 29.187C92.627 27.9703 90.2542 27.0887 88.1344 26.445C85.7775 25.7292 83.0885 25.1202 80.4303 24.6603C77.7714 24.2002 75.0349 23.8708 72.5758 23.7488C70.2787 23.6348 67.669 23.6662 65.5636 24.2355C64.9427 24.3992 64.3275 24.5814 63.7186 24.7814C61.501 23.4684 59.1132 22.3964 56.562 21.6281L56.563 21.6284C56.5503 21.6244 56.5373 21.6208 56.5246 21.6169C56.5187 21.6151 56.5127 21.6132 56.5068 21.6115L56.5059 21.6112C46.4384 18.5004 34.0729 18.9315 24.5479 25.6269C23.9957 25.8341 23.578 26.0765 23.3278 26.2327C22.507 26.7449 21.8325 27.3919 21.4099 27.8218C20.4807 28.7671 19.4915 29.9948 18.6519 31.0965C17.0706 33.1713 15.323 35.7339 14.8128 36.6611L14.8099 36.6604L14.7885 36.6983L14.7425 36.7825L14.7003 36.8677L14.6806 36.907C12.5891 40.9355 11.4537 45.1943 10.9839 49.4036C10.3665 54.9352 10.8765 60.7273 13.1507 66.3162C13.9968 68.3953 15.0483 70.3384 16.2833 72.1355C13.6 74.6388 11.4344 77.5466 9.77199 80.7293L9.76326 80.7443L9.75549 80.7594L9.73169 80.8069L9.69752 80.8719L9.68362 80.8996L9.66995 80.9264C7.66781 84.8846 6.5582 89.059 6.09445 93.2136C5.47927 98.7252 5.95828 104.504 8.17952 110.091L8.18047 110.091L8.20002 110.142L8.23174 110.225L8.26583 110.307L8.27417 110.327L8.27394 110.327C10.6151 116.01 14.4573 120.696 19.4548 124.137C26.7219 129.14 35.8539 130.974 44.2597 130.001M44.2753 129.999C44.2505 130.001 44.2277 130.002 44.2076 130.004C44.1973 130.005 44.187 130.007 44.1766 130.007L44.2597 130.001M44.2753 129.999C44.2701 129.999 44.2649 130 44.2597 130.001M44.2753 129.999C44.2786 129.998 44.2821 129.998 44.2855 129.998C44.2766 129.999 44.268 130 44.2597 130.001" fill="#4147D5" stroke="#252525" stroke-width="11.208"/>
<path d="M42.8569 69.503C39.2685 69.1025 36.2884 68.0942 33.9165 66.4783C31.5744 64.8657 29.8849 62.7855 28.8481 60.2377C27.8114 57.6899 27.4718 54.8145 27.8293 51.6117C28.1073 49.1205 28.7428 46.9245 29.7356 45.0236C30.7615 43.0963 32.0952 41.5037 33.7369 40.2457C35.3819 38.9581 37.3135 38.0627 39.5315 37.5596C41.7824 37.0302 44.2721 36.9178 47.0005 37.2223C48.4833 37.3878 49.9793 37.7049 51.4883 38.1736C53.0006 38.6127 54.4552 39.3005 55.8519 40.237C56.5833 40.679 57.046 41.2411 57.2401 41.9233C57.4671 42.5792 57.4816 43.2564 57.2835 43.9549C57.1184 44.6271 56.7952 45.2365 56.3138 45.7833C55.8653 46.3038 55.2885 46.6297 54.5832 46.7612C53.8813 46.863 53.1218 46.6731 52.3048 46.1916C51.4614 45.6771 50.5324 45.2581 49.5176 44.9347C48.5061 44.5816 47.422 44.3405 46.2654 44.2114C44.2785 43.9896 42.578 44.1601 41.164 44.7229C39.7797 45.289 38.6835 46.2325 37.8755 47.5536C37.0675 48.8746 36.5509 50.5434 36.3258 52.56C35.9882 55.585 36.4747 57.9513 37.7854 59.6589C39.0961 61.3666 41.2046 62.3826 44.1109 62.707C45.0006 62.8063 45.9744 62.8249 47.0322 62.7628C48.1197 62.7041 49.2154 62.5711 50.3195 62.3641L48.4644 65.2647L49.3135 57.6579L46.1996 57.3103C45.1912 57.1977 44.4335 56.8579 43.9263 56.2909C43.4487 55.7271 43.2613 54.9856 43.3639 54.0662C43.4665 53.1469 43.8112 52.4798 44.398 52.0648C45.0177 51.6236 45.8318 51.4592 46.8401 51.5718L53.4238 52.3066C54.4618 52.4225 55.2162 52.792 55.6871 53.415C56.191 54.0117 56.385 54.8291 56.2692 55.867L55.1718 65.6981C55.0725 66.5878 54.7954 67.3225 54.3403 67.9023C53.9149 68.4853 53.287 68.8656 52.4564 69.0432C51.0096 69.3621 49.4558 69.564 47.7949 69.6488C46.134 69.7337 44.488 69.685 42.8569 69.503ZM72.9761 72.8649C69.8028 72.5107 67.0896 71.5322 64.8364 69.9296C62.5865 68.2973 60.93 66.1907 59.8669 63.6099C58.8335 61.0325 58.4972 58.1274 58.858 54.8949C59.1294 52.4631 59.7467 50.2951 60.7099 48.3908C61.7028 46.4899 62.9756 44.9055 64.5283 43.6376C66.1107 42.373 67.9219 41.4792 69.962 40.9563C72.0054 40.4037 74.2133 40.2598 76.5859 40.5246C79.7591 40.8788 82.4575 41.8556 84.681 43.4549C86.9342 45.0576 88.5924 47.1493 89.6555 49.7301C90.7219 52.2812 91.073 55.1879 90.7089 58.4501C90.4375 60.8819 89.8053 63.0483 88.8125 64.9492C87.8493 66.8534 86.5748 68.4526 84.9891 69.7469C83.4364 71.0148 81.6383 71.9251 79.5949 72.4777C77.5549 73.0006 75.3486 73.1297 72.9761 72.8649ZM73.7407 66.0142C75.3125 66.1897 76.6884 65.9679 77.8685 65.349C79.0485 64.7301 80.0129 63.7568 80.7616 62.4291C81.5103 61.1015 81.9939 59.459 82.2124 57.5017C82.5401 54.5657 82.1425 52.2094 81.0197 50.4326C79.8969 48.6559 78.164 47.6367 75.8212 47.3752C74.2791 47.2031 72.9031 47.4248 71.6935 48.0405C70.5167 48.6297 69.554 49.5882 68.8053 50.9158C68.0599 52.2138 67.5763 53.8563 67.3545 55.8433C67.0268 58.7793 67.4227 61.1505 68.5422 62.9569C69.665 64.7336 71.3979 65.7527 73.7407 66.0142ZM112.246 77.2481C110.318 77.033 108.544 76.6547 106.923 76.1135C105.331 75.5756 103.892 74.8894 102.604 74.055C101.816 73.5768 101.281 72.9916 100.998 72.2995C100.745 71.6106 100.684 70.9433 100.816 70.2975C100.948 69.6516 101.25 69.0998 101.722 68.642C102.193 68.1842 102.78 67.9044 103.482 67.8026C104.184 67.7008 104.943 67.8906 105.76 68.3722C106.379 68.7416 107.033 69.0698 107.722 69.3568C108.411 69.6439 109.135 69.8749 109.897 70.0499C110.687 70.2283 111.468 70.3605 112.239 70.4465C113.604 70.5988 114.729 70.6043 115.615 70.4631C116.505 70.2922 117.188 69.963 117.662 69.4755C118.137 68.988 118.419 68.3439 118.509 67.5432C118.621 66.5349 118.348 65.7538 117.689 65.1998C117.063 64.6195 115.994 64.245 114.482 64.0761L109.811 63.5548C108.743 63.4356 107.957 63.0777 107.454 62.481C106.95 61.8843 106.756 61.0669 106.872 60.0289C106.984 59.0206 107.352 58.281 107.975 57.8101C108.598 57.3392 109.443 57.1633 110.511 57.2825L114.337 57.7095C115.849 57.8783 116.973 57.7635 117.708 57.3652C118.443 56.9668 118.867 56.2635 118.979 55.2551C119.049 54.6324 118.947 54.0655 118.674 53.5546C118.404 53.014 117.926 52.5854 117.241 52.2687C116.559 51.9223 115.64 51.6846 114.483 51.5555C113.504 51.4463 112.485 51.4375 111.423 51.5293C110.366 51.5913 109.37 51.7655 108.438 52.0517C107.505 52.3379 106.706 52.3689 106.04 52.1444C105.378 51.8904 104.867 51.4881 104.508 50.9376C104.153 50.3574 103.967 49.7362 103.951 49.0738C103.938 48.3818 104.129 47.7426 104.525 47.1562C104.951 46.5731 105.583 46.1483 106.424 45.8818C107.894 45.3553 109.448 45.0183 111.086 44.8709C112.753 44.7267 114.477 44.7539 116.256 44.9526C118.895 45.2472 121.049 45.8628 122.716 46.7995C124.412 47.7396 125.618 48.91 126.332 50.3109C127.046 51.7118 127.313 53.2277 127.131 54.8588C126.925 56.6975 126.216 58.2097 125.003 59.3955C123.819 60.5845 122.296 61.3153 120.434 61.5879L120.514 60.8761C122.606 61.5 124.156 62.5437 125.164 64.0074C126.171 65.471 126.559 67.2408 126.327 69.3167C126.126 71.1258 125.471 72.6891 124.363 74.0066C123.285 75.3275 121.737 76.2808 119.72 76.8663C117.703 77.4519 115.211 77.5791 112.246 77.2481ZM128.767 79.0021C127.847 78.8995 127.1 78.6058 126.523 78.1211C125.95 77.6068 125.631 76.9706 125.565 76.2126C125.503 75.425 125.732 74.5799 126.253 73.6772L139.992 51.0699C140.654 49.9729 141.401 49.2005 142.232 48.7527C143.092 48.3083 144.027 48.1424 145.035 48.2549C146.043 48.3674 146.888 48.732 147.57 49.3486C148.282 49.9685 148.854 50.8881 149.289 52.1076L157.704 77.1877C158.073 78.1897 158.14 79.0679 157.905 79.8224C157.701 80.5803 157.264 81.132 156.595 81.4777C155.955 81.8267 155.191 81.9515 154.301 81.8522C153.115 81.7198 152.225 81.3503 151.632 80.7436C151.069 80.1403 150.602 79.2174 150.23 77.9748L148.458 72.0572L151.319 74.6735L132.991 72.6277L136.403 70.7116L133.37 76.093C132.704 77.2196 132.059 78.0184 131.436 78.4894C130.813 78.9603 129.923 79.1312 128.767 79.0021ZM143.948 57.1864L137.412 68.9326L136.405 66.6583L149.35 68.1032L147.866 70.0994L144.037 57.1963L143.948 57.1864ZM37.798 113.212C34.3282 112.824 31.4223 111.824 29.0801 110.212C26.7379 108.599 25.0353 106.502 23.9722 103.922C22.9387 101.344 22.6041 98.4244 22.9682 95.1622C23.2396 92.7303 23.857 90.5623 24.8202 88.6581C25.813 86.7572 27.1006 85.1744 28.683 83.9098C30.2951 82.6485 32.1656 81.7614 34.2947 81.2484C36.4567 80.709 38.8277 80.5833 41.4078 80.8713C42.772 81.0236 44.1625 81.3439 45.5792 81.8323C47.029 82.2944 48.2825 82.8997 49.34 83.6483C50.1207 84.1858 50.6361 84.8139 50.8862 85.5324C51.1363 86.2509 51.1623 86.9594 50.9642 87.6579C50.7958 88.3597 50.4725 88.9692 49.9944 89.4863C49.5164 90.0035 48.9395 90.3294 48.2639 90.4642C47.5916 90.5693 46.8914 90.386 46.1634 89.9144C45.3201 89.4 44.4651 88.9893 43.5986 88.6824C42.7651 88.3491 41.8738 88.1295 40.9248 88.0236C39.0861 87.8184 37.5042 88.0021 36.1792 88.5748C34.8872 89.1212 33.8553 90.0269 33.0835 91.2919C32.3118 92.5569 31.8167 94.1681 31.5982 96.1254C31.3797 98.0828 31.5057 99.7783 31.9763 101.212C32.4501 102.616 33.2552 103.742 34.3917 104.589C35.5611 105.41 37.0652 105.924 38.9039 106.129C39.6749 106.215 40.5153 106.219 41.4248 106.14C42.3377 106.032 43.2473 105.818 44.1537 105.499C45.0864 105.212 45.8839 105.196 46.5461 105.45C47.238 105.708 47.7617 106.127 48.1173 106.707C48.5026 107.29 48.7148 107.945 48.754 108.669C48.7965 109.365 48.6166 110.035 48.2142 110.681C47.8415 111.33 47.2465 111.819 46.4291 112.148C45.3216 112.655 43.9769 113 42.395 113.184C40.8428 113.371 39.3105 113.38 37.798 113.212ZM54.155 114.947C52.9687 114.815 52.0858 114.386 51.5062 113.661C50.9562 112.939 50.7475 111.985 50.8799 110.798L53.6356 86.1095C53.7713 84.8936 54.215 84.0123 54.9666 83.4657C55.7215 82.8894 56.7218 82.6707 57.9673 82.8097C59.0053 82.9256 59.7977 83.2242 60.3445 83.7056C60.9242 84.1607 61.4149 84.876 61.8164 85.8516L69.464 104.09L67.907 103.916L79.3433 87.808C79.9798 86.9482 80.616 86.3587 81.2522 86.0393C81.9213 85.6936 82.7749 85.5787 83.8129 85.6946C84.9991 85.827 85.8672 86.2542 86.4172 86.9761C87.0001 87.6718 87.2237 88.6275 87.088 89.8434L84.3322 114.532C84.1998 115.719 83.7858 116.603 83.0902 117.186C82.3946 117.769 81.4388 117.993 80.2229 117.857C79.0367 117.725 78.1537 117.296 77.5741 116.57C77.0242 115.848 76.8154 114.894 76.9478 113.708L78.6559 98.4054L79.59 98.5097L71.0377 110.166C70.5497 110.772 70.0503 111.212 69.5394 111.485C69.0581 111.762 68.4319 111.857 67.6609 111.771C66.9195 111.688 66.3297 111.457 65.8916 111.078C65.4535 110.699 65.0781 110.161 64.7654 109.466L58.9542 96.1613L59.9773 96.2755L58.2643 111.623C58.1319 112.809 57.7179 113.693 57.0223 114.276C56.3267 114.859 55.3709 115.083 54.155 114.947ZM88.9325 118.829C88.0132 118.726 87.2653 118.433 86.6888 117.948C86.1157 117.434 85.7964 116.798 85.7308 116.04C85.6686 115.252 85.8981 114.407 86.4192 113.504L100.157 90.8969C100.82 89.7998 101.567 89.0275 102.398 88.5797C103.258 88.1353 104.192 87.9693 105.201 88.0819C106.209 88.1944 107.054 88.559 107.736 89.1755C108.447 89.7954 109.02 90.7151 109.455 91.9346L117.87 117.015C118.238 118.017 118.305 118.895 118.071 119.649C117.866 120.407 117.429 120.959 116.76 121.305C116.121 121.654 115.356 121.778 114.467 121.679C113.28 121.547 112.391 121.177 111.798 120.571C111.235 119.967 110.767 119.044 110.396 117.802L108.624 111.884L111.485 114.5L93.157 112.455L96.5687 110.539L93.5359 115.92C92.8697 117.047 92.225 117.845 91.602 118.316C90.9789 118.787 90.0891 118.958 88.9325 118.829ZM104.114 97.0133L97.5779 108.76L96.5707 106.485L109.516 107.93L108.032 109.926L104.202 97.0233L104.114 97.0133ZM123.261 122.661C121.956 122.515 120.988 122.047 120.355 121.256C119.726 120.435 119.485 119.372 119.63 118.067L122.297 94.1787C122.449 92.8145 122.919 91.8311 123.707 91.2285C124.498 90.5962 125.546 90.3528 126.851 90.4985C128.185 90.6474 129.154 91.1159 129.757 91.9037C130.392 92.6653 130.634 93.7281 130.482 95.0923L129.499 103.9L133.28 104.322L132.034 104.994L140.274 94.1136C140.94 93.2571 141.676 92.7237 142.48 92.5132C143.287 92.273 144.052 92.2833 144.773 92.544C145.524 92.808 146.135 93.2515 146.606 93.8746C147.11 94.4713 147.36 95.1898 147.357 96.0301C147.356 96.8407 147.007 97.6875 146.307 98.5703L139.141 107.499L136.092 104.952C138.125 105.569 139.762 106.502 141.004 107.752C142.275 109.005 143.313 110.742 144.115 112.963L146.416 119.39C146.827 120.547 146.883 121.529 146.582 122.336C146.312 123.147 145.822 123.768 145.113 124.199C144.405 124.63 143.63 124.844 142.79 124.841C141.949 124.837 141.167 124.584 140.442 124.083C139.717 123.582 139.186 122.832 138.847 121.833L136.567 114.823C136.139 113.544 135.538 112.606 134.764 112.009C133.99 111.413 132.95 111.041 131.645 110.896L128.754 110.573L127.815 118.981C127.67 120.285 127.214 121.27 126.45 121.936C125.688 122.571 124.625 122.813 123.261 122.661ZM162.99 127.185C159.816 126.831 157.103 125.853 154.85 124.25C152.6 122.618 150.944 120.511 149.881 117.93C148.847 115.353 148.511 112.448 148.872 109.215C149.143 106.784 149.76 104.616 150.724 102.711C151.716 100.81 152.989 99.226 154.542 97.9581C156.124 96.6935 157.936 95.7997 159.976 95.2767C162.019 94.7242 164.227 94.5803 166.599 94.8451C169.773 95.1993 172.471 96.1761 174.695 97.7754C176.948 99.3781 178.606 101.47 179.669 104.051C180.735 106.602 181.087 109.508 180.722 112.771C180.451 115.202 179.819 117.369 178.826 119.27C177.863 121.174 176.588 122.773 175.003 124.067C173.45 125.335 171.652 126.246 169.609 126.798C167.568 127.321 165.362 127.45 162.99 127.185ZM163.754 120.335C165.326 120.51 166.702 120.288 167.882 119.669C169.062 119.051 170.026 118.077 170.775 116.75C171.524 115.422 172.007 113.78 172.226 111.822C172.554 108.886 172.156 106.53 171.033 104.753C169.91 102.976 168.178 101.957 165.835 101.696C164.293 101.524 162.917 101.745 161.707 102.361C160.53 102.95 159.568 103.909 158.819 105.236C158.073 106.534 157.59 108.177 157.368 110.164C157.04 113.1 157.436 115.471 158.556 117.277C159.679 119.054 161.411 120.073 163.754 120.335ZM185.315 129.587C184.129 129.455 183.246 129.026 182.666 128.301C182.116 127.579 181.907 126.625 182.04 125.438L184.795 100.749C184.931 99.5335 185.375 98.6523 186.126 98.1056C186.881 97.5293 187.882 97.3107 189.127 97.4497C190.165 97.5656 190.958 97.8642 191.504 98.3456C192.084 98.8006 192.575 99.516 192.976 100.492L200.624 118.73L199.067 118.556L210.503 102.448C211.14 101.588 211.776 100.999 212.412 100.679C213.081 100.334 213.935 100.219 214.973 100.335C216.159 100.467 217.027 100.894 217.577 101.616C218.16 102.312 218.384 103.267 218.248 104.483L215.492 129.172C215.36 130.359 214.946 131.243 214.25 131.826C213.554 132.409 212.599 132.633 211.383 132.497C210.197 132.364 209.314 131.936 208.734 131.21C208.184 130.488 207.975 129.534 208.108 128.348L209.816 113.045L210.75 113.15L202.198 124.806C201.71 125.412 201.21 125.852 200.699 126.125C200.218 126.401 199.592 126.497 198.821 126.411C198.079 126.328 197.49 126.097 197.051 125.718C196.613 125.339 196.238 124.801 195.925 124.106L190.114 110.801L191.137 110.915L189.424 126.263C189.292 127.449 188.878 128.333 188.182 128.916C187.487 129.499 186.531 129.723 185.315 129.587ZM223.019 122.986C222.248 122.9 221.653 122.579 221.235 122.022C220.846 121.468 220.642 120.739 220.623 119.836L220.566 106.228C220.53 104.663 220.951 103.449 221.828 102.586C222.708 101.693 223.905 101.332 225.417 101.5C226.959 101.672 228.046 102.289 228.679 103.351C229.314 104.382 229.442 105.658 229.062 107.177L226.05 120.442C225.832 121.319 225.473 121.984 224.972 122.439C224.471 122.893 223.82 123.076 223.019 122.986ZM221.842 133.529C220.508 133.38 219.485 132.861 218.773 131.971C218.092 131.084 217.824 129.988 217.969 128.683C218.112 127.408 218.611 126.428 219.468 125.743C220.359 125.031 221.471 124.75 222.805 124.899C224.199 125.055 225.222 125.574 225.874 126.458C226.559 127.315 226.831 128.381 226.688 129.656C226.543 130.961 226.04 131.971 225.179 132.686C224.348 133.404 223.236 133.685 221.842 133.529Z" fill="white"/>
</svg>
