<svg width="82" height="119" viewBox="0 0 82 119" fill="none" xmlns="http://www.w3.org/2000/svg">
<g clip-path="url(#clip0_627_9444)">
<path d="M41.1297 118.166C39.5004 118.112 37.941 118.088 36.3848 118.001C35.2475 117.936 34.1125 117.815 32.9803 117.686C31.7098 117.54 30.438 117.389 29.1767 117.181C26.7997 116.79 24.4445 116.285 22.1385 115.581C19.6361 114.815 17.1932 113.9 14.9193 112.583C13.8751 111.979 12.8817 111.304 11.9695 110.508C11.5502 110.144 11.3457 109.71 11.312 109.156C11.2267 107.767 11.1076 106.38 11.0136 104.99C10.9232 103.652 10.8521 102.311 10.7638 100.973C10.6996 99.9987 10.6159 99.0274 10.5497 98.056C10.4587 96.7177 10.3788 95.3767 10.2897 94.0384C10.2289 93.1291 10.1579 92.2198 10.0958 91.3105C10.0294 90.3364 9.96806 89.3651 9.9038 88.391C9.87031 87.8864 9.83656 87.3819 9.79957 86.8746C9.70371 85.5633 9.60029 84.2492 9.51118 82.9352C9.42126 81.6104 9.35079 80.2829 9.26168 78.9553C9.17338 77.6413 9.06834 76.33 8.97761 75.016C8.91577 74.1201 8.87095 73.2216 8.80884 72.3231C8.71676 70.9983 8.61226 69.6735 8.52099 68.346C8.46104 67.4745 8.41622 66.6029 8.36249 65.7314C8.33521 65.2889 8.3047 64.8464 8.27284 64.4039C8.18049 63.1168 8.08382 61.8298 7.99471 60.54C7.93422 59.6685 7.88535 58.797 7.82783 57.9255C7.76599 56.9892 7.6993 56.0556 7.63584 55.1193C7.55348 53.9078 7.47221 52.6936 7.3912 51.4821C7.33017 50.5728 7.27076 49.6635 7.21055 48.7515C7.12252 47.4267 7.0353 46.0992 6.94511 44.7743C6.88598 43.9028 6.82009 43.0313 6.76014 42.1598C6.69615 41.2262 6.63701 40.2899 6.57328 39.3563C6.51631 38.5226 6.45636 37.6888 6.39696 36.8551C6.36401 36.3883 6.32675 35.9215 6.29651 35.4547C6.21766 34.2405 6.14664 33.029 6.06267 31.8148C5.97599 30.5656 5.87634 29.3163 5.78453 28.067C5.75861 27.7108 5.73971 27.3574 5.72027 27.0039C5.70758 26.7745 5.77266 26.5776 5.97923 26.4481C6.02162 26.4211 6.06105 26.3887 6.09696 26.3536C6.40938 26.046 6.58868 25.9786 6.96374 26.2079C8.16644 26.9445 9.53062 27.209 10.86 27.5597C12.9565 28.1102 15.0813 28.5419 17.2202 28.9007C18.907 29.1814 20.5931 29.4728 22.2845 29.7264C23.5496 29.9153 24.8223 30.0529 26.0927 30.2067C27.0484 30.32 28.0051 30.4279 28.9628 30.5251C29.7945 30.6087 30.6284 30.6708 31.4614 30.741C32.3452 30.8138 33.2287 30.8839 34.1128 30.9514C34.6053 30.9892 35.0984 31.0269 35.592 31.0485C36.984 31.1133 38.3763 31.1888 39.7693 31.2266C41.4162 31.2752 43.0645 31.3238 44.7119 31.3103C46.9934 31.2914 49.2751 31.2347 51.5555 31.1565C52.8972 31.1106 54.2374 31.0027 55.577 30.9055C56.6382 30.8273 57.6994 30.7409 58.756 30.6195C59.926 30.4846 61.0982 30.3497 62.2561 30.1392C63.5768 29.8991 64.8918 29.6158 66.1923 29.2839C68.1216 28.7928 69.9281 27.9995 71.6144 26.9364C72.1183 26.6181 72.6305 26.3132 73.1455 26.0137C73.3526 25.8922 73.5697 25.7789 73.7954 25.7034C74.1073 25.5954 74.4141 25.5927 74.6838 25.8464C74.7546 25.9138 74.8834 25.9435 74.9865 25.9435C75.3689 25.9516 75.5366 26.1135 75.5177 26.5074C75.499 26.8987 75.4618 27.2899 75.4321 27.6812C75.3292 29.033 75.2287 30.3848 75.1223 31.7339C75.0519 32.6297 74.9698 33.5255 74.8982 34.4213C74.8318 35.255 74.7724 36.0888 74.7092 36.9198C74.6401 37.8291 74.5683 38.7384 74.5007 39.6477C74.4278 40.6326 74.3617 41.6174 74.2866 42.6023C74.2229 43.436 74.1478 44.2671 74.0827 45.1008C74.005 46.0965 73.9342 47.0948 73.8567 48.0932C73.79 48.9512 73.716 49.8092 73.6491 50.6673C73.6037 51.2474 73.5654 51.8275 73.5224 52.4103C73.4898 52.8501 73.4549 53.2926 73.4212 53.7351C73.3075 55.2245 73.1971 56.7139 73.0796 58.2034C72.9794 59.4769 72.8668 60.7505 72.768 62.0267C72.6635 63.3759 72.5736 64.7277 72.4685 66.0795C72.3654 67.4043 72.2463 68.7291 72.1442 70.0539C72.0451 71.341 71.9625 72.6307 71.8656 73.9178C71.798 74.8136 71.7154 75.7094 71.6449 76.6052C71.5683 77.5766 71.4983 78.5506 71.4235 79.522C71.3782 80.1156 71.329 80.7092 71.2823 81.3001C71.2088 82.2364 71.1357 83.1699 71.063 84.1035C70.9847 85.1127 70.9067 86.1218 70.8295 87.1337C70.7266 88.4828 70.6259 89.8345 70.5224 91.1863C70.4487 92.1442 70.3718 93.1048 70.2967 94.0626C70.2206 95.034 70.1441 96.0081 70.0693 96.9794C69.9948 97.9508 69.9224 98.9221 69.8487 99.8962C69.7699 100.93 69.6908 101.966 69.6116 102.999C69.5768 103.455 69.5412 103.908 69.5074 104.364C69.4226 105.511 69.3403 106.661 69.2533 107.81C69.216 108.301 69.1437 108.792 69.134 109.286C69.1234 109.809 68.8434 110.155 68.48 110.468C68.3655 110.565 68.2499 110.665 68.1446 110.773C67.0564 111.895 65.7754 112.753 64.4109 113.498C62.5202 114.526 60.5136 115.271 58.4555 115.88C56.2653 116.528 54.0351 117.006 51.775 117.335C50.7227 117.491 49.6704 117.653 48.6124 117.758C47.4284 117.877 46.2389 117.955 45.05 118.017C43.7214 118.088 42.3908 118.12 41.1297 118.166Z" fill="#8ECAE6"/>
<path d="M36.3186 112.532C34.6893 112.478 33.1299 112.453 31.5737 112.367C30.4364 112.302 29.3015 112.181 28.1692 112.051C26.8988 111.906 30.1724 111.755 28.9111 111.547C26.534 111.156 24.1789 110.651 21.8728 109.947C19.3705 109.181 16.9276 108.266 14.6537 106.949C13.6095 106.345 12.616 105.67 11.7039 104.874C11.2845 104.51 11.0801 104.076 11.0464 103.522C10.961 102.133 10.842 100.746 10.748 99.3564C10.6575 98.0181 10.5865 96.677 10.4982 95.3387C10.4339 94.3647 10.3502 93.3933 10.2841 92.422C10.1931 91.0837 10.1132 89.7426 10.024 88.4043C9.96329 87.495 9.89227 86.5857 9.83016 85.6764C9.76374 84.7024 9.70244 83.731 9.63817 82.7569C9.60469 82.2524 9.57094 81.7478 9.53394 81.2405C9.43808 79.9292 9.33466 78.6152 9.24556 77.3012C9.15564 75.9763 9.08516 74.6488 8.99605 73.3213C8.90775 72.0073 8.80271 70.6959 8.71198 69.3819C8.65015 68.4861 8.60532 67.5876 8.54322 66.6891C8.45114 65.3643 8.34663 64.0394 8.25536 62.7119C8.19542 61.8404 8.1506 60.9689 8.09686 60.0973C8.06959 59.6548 8.03907 59.2123 8.00721 58.7698C7.91486 57.4827 7.81819 56.1957 7.72908 54.906C7.6686 54.0345 7.61972 53.1629 7.5622 52.2914C7.50037 51.3551 7.43367 50.4215 7.37022 49.4853C7.28786 48.2738 7.20658 47.0596 7.12557 45.8481C7.06455 44.9388 7.00514 44.0295 6.94492 43.1175C6.8569 41.7927 6.76968 40.4651 6.67949 39.1403C6.62035 38.2688 6.55446 37.3973 6.49452 36.5257C6.43052 35.5921 6.37139 34.6559 6.30766 33.7223C6.25068 32.8885 6.19074 32.0548 6.13133 31.221C6.09839 30.7542 6.06113 30.2875 6.03088 29.8207C5.95204 28.6065 5.88102 27.395 5.79704 26.1808C5.71036 24.9315 5.61072 23.6822 5.51891 22.433C5.49299 22.0768 5.47409 21.7233 5.45465 21.3698C5.44195 21.1405 5.50703 20.9435 5.7136 20.814C5.756 20.787 5.79542 20.7547 5.83133 20.7196C6.14376 20.412 6.32305 20.3445 6.69812 20.5739C7.90082 21.3105 9.265 21.5749 10.5943 21.9257C12.6908 22.4761 14.8157 22.9078 16.9546 23.2667C18.6414 23.5473 20.3275 23.8387 22.0189 24.0924C23.284 24.2812 24.5566 24.4188 25.8271 24.5726C26.7827 24.6859 27.7394 24.7939 28.6972 24.891C29.5289 24.9747 25.8173 25.0367 26.6503 25.1069C27.5341 25.1798 28.4177 25.2499 29.3017 25.3173C29.7943 25.3551 30.2873 25.3929 30.7809 25.4145C32.1729 25.4792 33.5652 25.5548 34.9583 25.5926C36.6051 25.6411 38.2534 25.6897 39.9008 25.6762C42.1823 25.6573 44.464 25.6006 46.7444 25.5224C48.0862 25.4765 49.4263 25.3686 50.7659 25.2715C51.8271 25.1932 52.8883 25.1069 53.9449 24.9855C55.115 24.8505 56.2871 24.7156 57.445 24.5052C60.0001 25.0376 61.3152 24.7543 62.6156 24.4224C64.545 23.9313 66.3514 23.138 68.0377 22.0749C68.5416 21.7566 69.0539 21.4517 69.5688 21.1522C69.7759 21.0307 69.993 20.9174 70.2188 20.8419C70.5306 20.7339 70.8374 20.7312 71.1071 20.9849C71.1779 21.0523 71.3067 21.082 71.4098 21.082C71.7922 21.0901 71.9599 21.252 71.941 21.6459C71.9224 22.0372 71.8851 22.4284 71.8554 22.8197C71.7525 24.1715 71.6521 25.5233 71.5457 26.8724C71.4752 27.7682 71.3931 28.664 71.3215 29.5598C71.2551 30.3935 71.1957 31.2273 71.1325 32.0583C71.0634 32.9676 70.9916 33.8769 70.9241 34.7862C70.8512 35.7711 70.785 36.7559 70.7099 37.7408C70.6462 38.5745 70.5711 39.4056 70.5061 40.2393C70.4283 41.235 70.3576 42.2333 70.2801 43.2317C70.2134 44.0897 70.1394 44.9477 70.0724 45.8058C70.027 46.3859 69.9887 46.966 69.9458 47.5488C69.9131 47.9886 69.8783 48.4311 69.8445 48.8736C69.7308 50.363 69.6204 51.8524 69.5029 53.3419C69.4027 54.6154 69.2901 55.889 69.1913 57.1652C69.0868 58.5144 68.9969 59.8662 68.8918 61.218C68.7887 62.5428 68.6696 63.8676 68.5675 65.1924C68.4684 66.4795 68.3858 67.7692 68.2889 69.0563C68.2214 69.9521 68.1387 70.8479 68.0683 71.7437C67.9916 72.7151 67.9216 73.6891 67.8468 74.6605C67.8015 75.2541 67.7523 75.8477 67.7056 76.4386C67.6322 77.3749 67.559 78.3084 67.4864 79.242C67.408 80.2512 67.33 81.2603 67.2528 82.2722C67.1499 83.6213 67.0492 84.973 66.9458 86.3248C66.872 87.2827 66.7951 88.2433 66.72 89.2011C66.6439 90.1725 66.5675 91.1466 66.4927 92.1179C66.4181 93.0893 66.3458 94.0606 66.272 95.0347C66.1932 96.0681 66.1141 97.1042 66.035 98.1376C66.0001 98.5936 65.9645 99.047 65.9307 99.503C65.8459 100.65 65.7636 101.799 65.6766 102.949C65.6394 103.44 65.567 103.931 65.5573 104.424C65.5468 104.948 65.2667 105.293 64.9033 105.606C64.7888 105.703 64.6732 105.803 64.5679 105.911C63.4797 107.034 62.1987 107.892 60.8342 108.636C58.9435 109.664 55.6946 110.299 53.6365 110.909C51.4463 111.557 49.224 111.372 46.9639 111.701C45.9116 111.857 44.8593 112.019 43.8014 112.124C42.6173 112.243 41.4278 112.321 40.2389 112.383C38.9104 112.454 37.5797 112.486 36.3186 112.532Z" fill="white"/>
<path d="M74.9519 50.4003C74.8963 50.9723 74.8377 51.5443 74.7858 52.1164C74.7245 52.7882 74.6773 53.4655 74.6092 54.1373C74.5037 55.1815 74.38 56.2257 74.2752 57.27C74.2069 57.9499 74.1626 58.6325 74.0997 59.3125C74.0003 60.3837 73.8891 61.4522 73.7932 62.5234C73.7335 63.1925 73.6987 63.8617 73.6428 64.5309C73.5497 65.6398 73.4435 66.7488 73.3525 67.8577C73.2948 68.5647 73.2599 69.2716 73.2051 69.9785C73.1203 71.0767 73.0231 72.1722 72.9397 73.2704C72.8813 74.0394 72.8406 74.811 72.7858 75.58C72.7239 76.4516 72.6588 77.3231 72.5884 78.1919C72.5009 79.2712 72.4023 80.3478 72.3162 81.4271C72.2603 82.1259 72.2252 82.8274 72.1674 83.529C72.0761 84.6325 71.9697 85.7334 71.8776 86.837C71.8193 87.5358 71.7785 88.2374 71.7237 88.9362C71.684 89.4408 71.6325 89.9453 71.5893 90.4499C71.5633 90.7521 71.5404 91.0543 71.5215 91.3565C71.5107 91.5319 71.4254 91.6533 71.2704 91.7288C70.1673 92.2685 69.0839 92.854 67.956 93.337C66.7404 93.8578 65.495 94.3164 64.241 94.7374C62.3776 95.3633 60.4785 95.8733 58.5421 96.2241C56.9217 96.5155 55.298 96.7988 53.6673 97.0254C52.2124 97.2278 50.7478 97.3654 49.2845 97.4976C48.2063 97.5975 47.1235 97.6379 46.0425 97.7054C43.9353 97.8403 41.8258 97.8889 39.715 97.8592C38.5112 97.843 37.308 97.7971 36.105 97.7513C34.9979 97.7081 33.8902 97.6622 32.7848 97.5894C32.0144 97.5381 31.2459 97.4491 30.4779 97.3654C29.4453 97.2521 28.4106 97.1523 27.3834 97.0012C26.067 96.8069 24.7552 96.5802 23.4453 96.3482C21.8527 96.0622 20.2812 95.6791 18.7396 95.1934C17.5871 94.8291 16.4519 94.4055 15.3243 93.9711C13.6938 93.3397 12.1458 92.5383 10.686 91.5778C9.98368 91.1164 9.32778 90.5848 8.64974 90.0856C8.50744 89.9804 8.43642 89.8428 8.424 89.6674C8.33327 88.348 8.23849 87.0286 8.14669 85.7091C8.08296 84.7944 8.01842 83.8797 7.96198 82.9623C7.91554 82.2122 7.88611 81.4594 7.83885 80.7066C7.77863 79.7461 7.70735 78.7882 7.64254 77.8276C7.59664 77.145 7.55343 76.465 7.50888 75.7824C7.43894 74.7166 7.36901 73.6481 7.29934 72.5823C7.25695 71.9321 7.21725 71.2818 7.17189 70.6315C7.10087 69.6143 7.0231 68.5997 6.95343 67.5825C6.90402 66.8621 6.8627 66.1444 6.81896 65.4239C6.77333 64.6792 6.7339 63.9319 6.68287 63.1872C6.62076 62.2806 6.54974 61.3712 6.48197 60.4619C6.41851 59.6093 6.34776 58.7594 6.29295 57.9067C6.24893 57.2241 6.23084 56.5414 6.18953 55.8588C6.14767 55.1653 6.09151 54.4719 6.04155 53.7784C6.01914 53.4681 5.99565 53.1606 5.97405 52.8503C5.92247 52.1137 5.87117 51.3744 5.82094 50.635C5.78233 50.0684 5.68377 49.4964 5.72454 48.9325C5.77018 48.3038 6.02238 47.7318 6.61833 47.3891C6.81383 47.2785 7.05685 47.3513 7.10573 47.5753C7.16729 47.8559 7.17458 48.15 7.20051 48.4387C7.23777 48.8542 7.27936 49.267 7.30204 49.6853C7.31284 49.8849 7.39952 50.028 7.53183 50.1656C8.07108 50.7214 8.69916 51.1558 9.37125 51.5308C10.9709 52.4293 12.6896 53.0068 14.4623 53.4439C15.3912 53.6732 16.3147 53.9269 17.2504 54.1238C18.155 54.3154 19.069 54.4692 19.9844 54.5987C21.4396 54.8065 22.8964 55.0088 24.3578 55.1626C25.7681 55.3137 27.1849 55.4028 28.5993 55.5134C29.502 55.5836 30.4058 55.6456 31.3096 55.6996C31.9925 55.7401 32.6762 55.7671 33.3596 55.794C34.5056 55.8372 35.6511 55.8993 36.7976 55.9181C38.4389 55.9478 40.0806 55.9667 41.7218 55.9532C42.9953 55.9424 44.2685 55.875 45.5419 55.8345C46.2067 55.8129 46.8723 55.8075 47.5366 55.7751C48.7193 55.7131 49.9012 55.6375 51.0834 55.5674C51.6146 55.5377 52.1465 55.5215 52.6771 55.4837C53.2641 55.4406 53.8509 55.3866 54.4366 55.3272C55.6968 55.1977 56.9581 55.0763 58.2151 54.9225C59.2523 54.793 60.2865 54.6338 61.3164 54.4584C63.1223 54.1481 64.9172 53.7785 66.6731 53.2496C67.7092 52.9393 68.7391 52.5966 69.7471 52.2054C70.9417 51.7413 72.0853 51.1666 73.1303 50.4111C73.413 50.206 73.5137 49.9551 73.547 49.6286C73.5942 49.1591 73.6755 48.6923 73.7584 48.2282C73.7808 48.1041 73.8351 47.9611 73.9223 47.8748C74.0163 47.783 74.1669 47.694 74.292 47.6967C74.5088 47.6994 74.6773 47.8505 74.731 48.0609C74.8001 48.3254 74.8528 48.6033 74.8642 48.8785C74.8847 49.3831 74.8701 49.8903 74.8701 50.3949C74.8974 50.3976 74.9246 50.3976 74.9519 50.4003Z" fill="#009340"/>
<path d="M40.429 0C42.4693 0.0485679 44.511 0.0731198 46.5503 0.153257C48.05 0.212078 49.5476 0.337546 51.0454 0.444125C52.0499 0.515628 53.0541 0.594146 54.0565 0.690742C54.8568 0.767911 55.6548 0.87476 56.453 0.973245C57.1067 1.05392 57.7599 1.13675 58.4123 1.22768C58.9642 1.30485 59.5159 1.3866 60.0651 1.48104C60.7577 1.6003 61.4501 1.72443 62.1389 1.8642C63.07 2.05334 64.0016 2.24329 64.9261 2.46158C66.4691 2.82638 67.992 3.26375 69.4707 3.84036C70.7196 4.32766 71.9352 4.88268 72.9913 5.7283C73.4739 6.11496 73.8262 6.6098 74.1921 7.1087C74.6755 7.76788 74.6871 8.52851 74.848 9.25729C75.0225 10.0468 75.1399 10.849 75.2711 11.6474C75.3724 12.2647 75.4558 12.8853 75.5487 13.5043C75.6022 13.8607 75.6621 14.2161 75.7121 14.5728C75.7329 14.7204 75.7248 14.8723 75.7507 15.0185C75.7615 15.0798 75.8142 15.1545 75.8687 15.1837C76.2195 15.3714 76.5964 15.518 76.9256 15.7365C77.3779 16.0371 77.8099 16.3728 78.2207 16.7281C78.3778 16.8641 78.4896 17.0832 78.5571 17.2861C78.8882 18.2817 79.1971 19.2849 79.5141 20.2854C79.5886 20.5202 79.6748 20.7522 79.7358 20.9924C79.8362 21.3863 80.0603 21.6993 80.3355 21.988C80.5923 22.2578 80.881 22.5142 81.0743 22.8272C81.7334 23.8903 81.6827 24.9776 81.0605 26.0434C80.5145 26.9797 79.7058 27.6597 78.8234 28.2587C77.7495 28.9845 76.5875 29.5484 75.3951 30.0557C73.9348 30.6736 72.4418 31.2024 70.9153 31.6314C69.7137 31.966 68.5021 32.2682 67.2902 32.565C66.4723 32.7674 65.6495 32.9536 64.8222 33.1101C63.6648 33.3286 62.5016 33.5175 61.3391 33.7117C60.7272 33.8143 60.1137 33.906 59.4986 33.987C58.789 34.0787 58.0769 34.1516 57.3659 34.2325C57.0138 34.2703 56.6612 34.3081 56.309 34.3486C55.7425 34.4133 55.1768 34.4862 54.6095 34.5428C54.0484 34.5968 53.4862 34.6373 52.9237 34.6777C52.3993 34.7128 51.8738 34.7317 51.3492 34.7641C50.6598 34.8072 49.9715 34.8639 49.2819 34.899C48.5163 34.9367 47.75 34.9718 46.9834 34.9853C45.1202 35.015 43.2567 35.0528 41.3936 35.0474C38.9339 35.0366 36.4739 35.0123 34.0151 34.9502C32.318 34.9071 30.6222 34.7937 28.9264 34.702C28.0094 34.6507 27.0932 34.5833 26.1775 34.5104C25.5967 34.4673 25.0178 34.3998 24.4378 34.3432C23.8834 34.2892 23.3282 34.2406 22.7741 34.1839C22.327 34.1354 21.8803 34.0814 21.4342 34.0247C20.7246 33.9357 20.0144 33.8467 19.3059 33.7468C18.6792 33.6605 18.0535 33.5634 17.4281 33.4662C16.8905 33.3799 16.3526 33.2935 15.8169 33.1991C15.1685 33.0831 14.5205 32.9644 13.8762 32.8295C13.1136 32.6703 12.3516 32.5057 11.5958 32.3195C10.6807 32.0901 9.76692 31.8527 8.8626 31.5856C8.04982 31.3481 7.24243 31.0837 6.44774 30.7896C4.93667 30.2311 3.46854 29.5754 2.1589 28.6175C1.43226 28.086 0.780957 27.4816 0.361875 26.6667C0.0859078 26.1298 -0.0609888 25.5578 0.0240697 24.9615C0.12398 24.2653 0.391576 23.6204 0.865473 23.0835C1.13739 22.7759 1.44495 22.5007 1.72659 22.2012C1.81435 22.1094 1.904 21.9934 1.93262 21.872C2.05765 21.3512 2.16107 20.8251 2.27124 20.2989C2.38789 19.742 2.45782 19.1703 2.63172 18.632C2.81129 18.077 3.00895 17.5352 3.46827 17.0905C3.98996 16.5856 4.50949 16.0954 5.12353 15.7076C5.1608 15.6842 5.19968 15.6335 5.20373 15.5922C5.28177 14.807 5.34847 14.0207 5.43028 13.2361C5.53694 12.2102 5.65387 11.1852 5.76782 10.1601C5.84613 9.45562 5.89527 8.74599 6.01678 8.04904C6.11966 7.45921 6.38591 6.92469 6.78609 6.4633C7.43685 5.71212 8.25314 5.18407 9.12128 4.72861C10.2632 4.12934 11.4657 3.67846 12.6943 3.29046C14.1948 2.81638 15.7243 2.45322 17.2607 2.127C18.5301 1.85745 19.813 1.6486 21.0929 1.43166C21.9792 1.28137 22.8689 1.14511 23.7608 1.03421C24.8666 0.896602 25.9764 0.790032 27.0848 0.67266C27.6578 0.61168 28.2311 0.552309 28.8049 0.500234C29.335 0.451936 29.8656 0.407686 30.3964 0.373689C31.1933 0.322962 31.9904 0.274666 32.7881 0.240129C34.4215 0.169435 36.0551 0.0960507 37.6896 0.0480224C38.6018 0.0210403 39.5153 0.0431642 40.4282 0.0431642L40.429 0Z" fill="#252525"/>
<path d="M5.97061 16.5798C5.89905 16.9173 5.85665 17.1893 5.7824 17.4524C5.67951 17.8161 5.78698 18.1234 5.98653 18.4192C6.33352 18.9329 6.79581 19.3223 7.30616 19.6622C8.32632 20.3422 9.44153 20.8279 10.5878 21.2407C13.4009 22.2552 16.3121 22.8785 19.2554 23.3615C20.4802 23.5639 21.7105 23.7338 22.9407 23.8984C23.7943 24.0118 24.6519 24.0954 25.5084 24.1844C26.1384 24.2492 26.7694 24.3005 27.4002 24.3544C28.1071 24.4165 28.8135 24.484 29.5215 24.5271C30.4448 24.5811 31.3691 24.6243 32.2934 24.6539C34.244 24.7214 36.1947 24.7942 38.1459 24.8293C40.9737 24.8806 43.799 24.7592 46.624 24.6539C47.4848 24.6189 48.3451 24.5622 49.2044 24.4974C50.0506 24.4354 50.8953 24.3463 51.7407 24.2708C52.2578 24.2222 52.7752 24.179 53.2918 24.1251C54.1985 24.0306 55.1061 23.9443 56.0104 23.831C56.9026 23.7177 57.7909 23.572 58.681 23.4424C59.571 23.3129 60.4637 23.1969 61.3502 23.0458C62.1243 22.9163 62.8918 22.7436 63.6619 22.5898C65.9023 22.1392 68.1076 21.5618 70.2524 20.7685C71.5269 20.2963 72.772 19.7605 73.901 18.9896C74.363 18.6742 74.7997 18.3274 75.1477 17.8833C75.3932 17.57 75.5911 17.2314 75.6284 16.8251C75.6578 16.5064 75.6214 16.1999 75.3894 15.9263C75.3125 15.9722 75.2479 16.0078 75.1866 16.048C74.6887 16.3736 74.2056 16.7241 73.6917 17.0218C72.192 17.89 70.5756 18.4861 68.9314 19.0136C67.4344 19.4944 65.9169 19.8973 64.3783 20.2208C63.4367 20.4204 62.497 20.6309 61.5497 20.8009C60.0411 21.0707 58.5316 21.3432 57.0138 21.551C55.5089 21.7561 53.9933 21.8883 52.4817 22.0448C51.8895 22.1068 51.2965 22.1635 50.7025 22.2013C49.7417 22.266 48.7801 22.3173 47.8183 22.3659C46.1603 22.4495 44.5026 22.5709 42.8436 22.5979C40.6132 22.633 38.3809 22.6222 36.1504 22.5817C34.3515 22.5493 32.5521 22.4765 30.7558 22.3712C29.1756 22.2795 27.5971 22.1419 26.022 21.9854C24.5733 21.8397 23.1254 21.6697 21.6862 21.4512C20.0587 21.2056 18.4369 20.9142 16.8211 20.5985C14.5167 20.1506 12.2517 19.5481 10.0558 18.7095C8.76268 18.2157 7.50598 17.645 6.37403 16.8329C6.27304 16.7606 6.16367 16.7004 5.97061 16.5798ZM39.4931 25.8843C37.6515 25.8519 35.5596 25.825 33.4688 25.7656C32.3927 25.7359 31.3178 25.6496 30.2431 25.5794C29.0166 25.5012 27.7896 25.4283 26.565 25.3258C25.6059 25.2475 24.6486 25.1369 23.6933 25.0209C22.4612 24.8671 21.2304 24.7052 20.0017 24.5271C18.0311 24.2411 16.0791 23.8553 14.1468 23.375C12.5458 22.9756 10.9666 22.5089 9.44018 21.8775C8.51291 21.4916 7.61372 21.0572 6.78312 20.4879C6.05296 19.9871 5.39545 19.4167 4.99338 18.6094C4.61399 17.8472 4.62938 17.0725 4.96421 16.2951C5.07222 16.0437 5.16241 15.7841 5.25125 15.5251C5.26989 15.4708 5.25017 15.4017 5.2418 15.3405C5.18942 14.9652 5.13352 14.5907 5.08249 14.2153C5.03982 13.9021 5.10895 13.7437 5.30796 13.6819C5.50481 13.6207 5.67357 13.7121 5.82641 13.9669C5.976 14.2162 6.10859 14.4771 6.27439 14.7153C7.01615 15.78 8.00823 16.5485 9.15746 17.1321C10.2592 17.6915 11.4276 18.0727 12.6057 18.4256C14.4648 18.9826 16.3507 19.4313 18.2636 19.7594C19.7614 20.016 21.2587 20.2801 22.7633 20.4906C24.0667 20.6741 25.3791 20.7955 26.6895 20.9223C28.0132 21.0518 29.3387 21.1651 30.6648 21.2677C31.4987 21.3324 32.3344 21.3783 33.1702 21.4053C36.0721 21.4997 38.9747 21.605 41.8783 21.524C43.8289 21.47 45.7783 21.3621 47.7281 21.2704C48.6643 21.2272 49.6005 21.1732 50.5356 21.1085C51.2306 21.0599 51.9243 20.9925 52.6178 20.925C53.3236 20.8575 54.0295 20.7874 54.7337 20.7037C55.274 20.639 55.8116 20.5527 56.3503 20.4771C57.1159 20.3692 57.8811 20.2612 58.6469 20.1536C61.8127 19.7119 64.9459 19.1121 68.0085 18.1831C68.3682 18.0741 68.7079 17.8995 69.0578 17.7584C69.1866 17.7063 69.3187 17.6626 69.4491 17.6151C71.0782 17.0218 72.5871 16.1977 74.0158 15.2237C74.4686 14.915 74.8591 14.5343 75.1818 14.088C75.2412 14.006 75.2992 13.9215 75.3694 13.8492C75.5598 13.6533 75.8058 13.6512 76.0113 13.8357C76.1746 13.9825 76.2408 14.1719 76.2197 14.3832C76.2049 14.5327 76.1752 14.687 76.1169 14.8243C76.0502 14.9819 76.062 15.1066 76.1509 15.2507C76.8602 16.4009 76.7069 17.4934 75.9073 18.5311C75.4048 19.1838 74.7554 19.6695 74.0606 20.0964C72.7242 20.9169 71.2823 21.5051 69.8007 22.0043C67.8038 22.6761 65.7681 23.2023 63.7032 23.6178C62.4859 23.8634 61.2721 24.1305 60.0468 24.3274C58.6334 24.5514 57.2093 24.7106 55.7895 24.8941C55.2114 24.9696 54.6327 25.0398 54.0535 25.1045C53.575 25.1585 53.0957 25.2044 52.6161 25.2475C51.9219 25.3069 51.2277 25.3636 50.5326 25.4148C49.496 25.4877 48.4591 25.5605 47.4214 25.6172C46.2062 25.6847 44.9903 25.7413 43.7741 25.7818C42.4313 25.825 41.0873 25.8465 39.4931 25.8843Z" fill="#252525"/>
<path d="M79.3512 20.3638C79.446 20.5176 79.5033 20.5985 79.5465 20.6849C79.6426 20.8764 79.7104 21.0869 79.8286 21.265C79.9982 21.5159 79.9504 21.7183 79.7908 21.9557C79.2097 22.8245 78.4477 23.5045 77.599 24.0927C76.1104 25.1261 74.4786 25.8789 72.7904 26.5184C71.0463 27.1822 69.2682 27.7353 67.4565 28.1778C66.1402 28.4989 64.8216 28.8173 63.4939 29.0871C62.0174 29.3893 60.5331 29.6564 59.0455 29.8966C58.1209 30.0477 57.1842 30.1232 56.2529 30.2285C55.7374 30.2878 55.2214 30.3472 54.7056 30.4039C53.9125 30.4929 53.1203 30.5927 52.3259 30.6656C51.5058 30.7438 50.6844 30.8086 49.8621 30.8544C47.8126 30.9705 45.7623 31.0757 43.712 31.1809C43.3701 31.1998 43.0275 31.1998 42.6853 31.2025C41.2526 31.2079 39.8195 31.2349 38.3871 31.2133C36.1442 31.1782 33.9008 31.1297 31.6628 30.957C30.6524 30.8787 29.639 30.8436 28.6277 30.7762C28.0591 30.7384 27.4912 30.6844 26.9247 30.6224C25.8038 30.4983 24.681 30.3877 23.565 30.2285C21.785 29.9775 20.0025 29.7293 18.2339 29.4082C15.0613 28.8335 11.9376 28.0591 8.92522 26.8881C7.15789 26.2027 5.48346 25.3393 3.95996 24.1979C3.35672 23.7446 2.81829 23.232 2.3876 22.6114C2.25799 22.4252 2.13269 22.2309 2.04466 22.0232C1.91856 21.7264 2.02981 21.4161 2.27068 21.2947C2.49453 21.184 2.71514 21.2569 2.91118 21.5429C3.31595 22.1392 3.81901 22.633 4.39255 23.0593C5.47536 23.8634 6.64673 24.5163 7.87644 25.0668C9.72099 25.8924 11.6263 26.5508 13.5875 27.0284C15.4091 27.4709 17.2421 27.8702 19.0799 28.2399C20.1713 28.4584 21.2806 28.5933 22.3836 28.7525C23.3611 28.8928 24.34 29.0251 25.3207 29.1438C26.0498 29.2301 26.7821 29.2922 27.5136 29.3542C28.1825 29.4136 28.8527 29.4595 29.5215 29.5161C31.2516 29.6645 32.9863 29.7239 34.7201 29.8075C37.281 29.9343 39.8406 29.9209 42.401 29.8966C43.7312 29.8858 45.0616 29.8156 46.3904 29.7455C47.9336 29.6618 49.4755 29.5566 51.0173 29.4514C51.8892 29.392 52.7603 29.3191 53.6304 29.2382C54.2482 29.1815 54.8644 29.106 55.4803 29.0304C56.1835 28.9441 56.8866 28.855 57.5884 28.7579C58.052 28.6932 58.5133 28.6095 58.975 28.5313C60.2241 28.3181 61.4706 28.0915 62.7219 27.8945C65.4322 27.4628 68.0833 26.7909 70.6888 25.9437C72.6076 25.3177 74.4837 24.5784 76.2208 23.5342C76.6977 23.2455 77.1616 22.9298 77.5982 22.5871C78.3297 22.0097 78.9827 21.3567 79.3512 20.3638Z" fill="#252525"/>
<path d="M49.4078 9.55346L49.4099 9.58316C50.0672 9.54052 50.7247 9.49978 51.3817 9.45445C52.5441 9.37432 53.7093 9.31872 54.8683 9.2027C56.2794 9.06131 57.6876 8.88405 59.0928 8.69301C60.5378 8.49685 61.9713 8.23027 63.3625 7.78371C63.8056 7.64152 64.2417 7.45319 64.6489 7.22843C65.1244 6.96589 65.1077 6.73897 64.647 6.43596C64.6154 6.41518 64.583 6.39441 64.5485 6.37903C64.2363 6.24007 63.9317 6.08006 63.6101 5.96863C62.0232 5.41738 60.3747 5.1346 58.7199 4.88987C57.7179 4.74174 56.7112 4.62357 55.7045 4.50997C54.7732 4.40474 53.8403 4.31354 52.9065 4.23448C52.0103 4.15866 51.1108 4.1217 50.216 4.03563C49.8828 4.00379 49.6311 4.08285 49.3883 4.30329C48.4632 5.14378 47.8908 6.16883 47.692 7.4065C47.5797 8.10561 47.6988 8.76505 47.9615 9.41127C48.0358 9.59394 48.1549 9.65384 48.3463 9.63469C48.6995 9.59934 49.0538 9.57964 49.4078 9.55346ZM48.4789 3.97384C48.2545 3.94874 48.109 3.92176 47.9629 3.91771C45.9738 3.86456 43.9851 3.78604 41.9958 3.77066C39.5877 3.75178 37.1793 3.78387 34.771 3.8006C34.2136 3.80438 33.656 3.82894 33.0992 3.85376C32.0739 3.89963 31.0486 3.94576 30.0242 4.00458C28.7342 4.07878 27.4432 4.14301 26.1563 4.25364C24.9455 4.35779 23.739 4.51429 22.5312 4.6519C21.0069 4.82539 19.4958 5.07902 18.0044 5.44032C17.2157 5.63162 16.4313 5.84559 15.7211 6.25599C15.1557 6.58247 15.1597 6.79265 15.7257 7.1186C16.2906 7.44346 16.9025 7.65905 17.5319 7.80422C18.6296 8.05785 19.7297 8.30933 20.8395 8.49956C22.0368 8.70489 23.2446 8.85572 24.4519 8.99791C25.3821 9.10773 26.3178 9.17302 27.2521 9.24776C28.5522 9.35137 29.8522 9.47495 31.1545 9.53647C32.8883 9.61849 34.6241 9.66275 36.3595 9.69837C38.2095 9.73641 40.0603 9.76555 41.9105 9.76097C43.545 9.75692 45.1794 9.7016 46.8142 9.66652C46.8838 9.6649 46.953 9.63819 47.0396 9.6193C46.3972 7.46829 47.0002 5.64052 48.4789 3.97384ZM39.5756 2.79688C41.7139 2.84167 43.8431 2.87593 45.9714 2.9361C47.0224 2.96551 48.0725 3.03243 49.1218 3.10123C50.8146 3.21186 52.5096 3.30414 54.1978 3.46576C56.682 3.70375 59.1603 4.0054 61.6014 4.54477C62.6774 4.78248 63.7559 5.02937 64.7488 5.52989C65.0504 5.68207 65.3461 5.8723 65.5932 6.10029C66.0506 6.5231 66.0541 7.15207 65.5951 7.57838C65.3402 7.81502 65.0297 8.00794 64.7151 8.16093C63.8442 8.58428 62.9091 8.82252 61.9678 9.03136C60.0857 9.4485 58.1818 9.7302 56.2646 9.9215C54.8405 10.064 53.4177 10.2278 51.9903 10.3233C50.2462 10.4398 48.4975 10.4884 46.7515 10.5788C43.4961 10.7472 40.2379 10.7175 36.9809 10.6902C35.4363 10.6775 33.8923 10.5602 32.3486 10.4852C31.5514 10.4466 30.7546 10.4037 29.958 10.3513C29.0864 10.2939 28.2147 10.2299 27.3441 10.1568C26.4231 10.0794 25.5017 9.99976 24.5831 9.89884C23.6893 9.80036 22.7936 9.70268 21.9077 9.55266C20.5846 9.32897 19.263 9.08695 17.9529 8.79905C17.2508 8.64471 16.569 8.39081 15.8866 8.15688C15.4654 8.01252 15.0814 7.78479 14.7522 7.47746C14.2503 7.00878 14.2276 6.38441 14.7225 5.90872C14.9202 5.71903 15.1643 5.56928 15.4065 5.43653C16.0783 5.06876 16.8101 4.85507 17.5476 4.66835C19.2201 4.24527 20.9186 3.95953 22.6311 3.75905C23.8133 3.62063 24.9946 3.47034 26.1801 3.3643C27.4035 3.25475 28.6308 3.18569 29.8573 3.11095C30.9701 3.04349 32.0834 2.97118 33.1975 2.9388C35.3259 2.87701 37.455 2.84247 39.5756 2.79688Z" fill="#252525"/>
<path d="M74.2467 7.18592C74.3887 7.48245 74.491 7.71397 74.6093 7.93657C74.7027 8.1125 74.6676 8.25711 74.5294 8.3788C74.2064 8.66239 73.8981 8.96836 73.5478 9.21444C72.4072 10.0158 71.1268 10.5339 69.8185 10.9891C67.924 11.6482 65.9825 12.1339 64.0167 12.5206C62.7864 12.7626 61.5489 12.9655 60.3149 13.1881C58.5678 13.5038 56.8081 13.7164 55.0386 13.8602C54.0289 13.9423 53.0225 14.0718 52.0124 14.1462C50.6606 14.2458 49.307 14.3257 47.9531 14.391C46.3199 14.4695 44.686 14.5297 43.0521 14.5855C42.3681 14.609 41.6828 14.6133 40.9985 14.6041C38.5143 14.5715 36.0297 14.5429 33.546 14.4843C32.5078 14.46 31.4711 14.3683 30.4342 14.3C29.2715 14.2237 28.1082 14.1514 26.9471 14.0542C26.0261 13.9771 25.1069 13.8726 24.1885 13.7666C23.2826 13.6622 22.3766 13.5551 21.4747 13.4226C20.2591 13.2445 19.0434 13.0632 17.8348 12.8435C15.9014 12.492 13.9866 12.054 12.1126 11.4556C10.6974 11.0036 9.313 10.478 8.04604 9.6842C7.51624 9.35232 7.03074 8.96945 6.63596 8.48053C6.57223 8.40174 6.50958 8.32161 6.45341 8.23742C6.15963 7.79734 6.1599 7.79572 6.46314 7.37695C6.60328 7.18349 6.74586 6.99193 6.91921 6.7561C6.95297 6.83948 6.98429 6.8794 6.98267 6.91745C6.95918 7.41365 7.2076 7.78923 7.52191 8.13326C7.95612 8.60814 8.49698 8.93976 9.05594 9.24115C10.3799 9.95537 11.7975 10.4303 13.237 10.8423C15.2736 11.4251 17.3441 11.8581 19.4363 12.1873C20.5623 12.3643 21.6875 12.5492 22.8179 12.6949C23.9225 12.8371 25.0326 12.9404 26.1414 13.0486C27.2004 13.1517 28.2605 13.2429 29.3207 13.3308C29.99 13.3864 30.66 13.4326 31.3305 13.4717C32.0895 13.5157 32.8491 13.5588 33.609 13.5818C36.5107 13.6697 39.4132 13.7577 42.3168 13.6946C44.0144 13.6576 45.711 13.5715 47.4079 13.5019C48.2941 13.4655 49.1803 13.4247 50.0655 13.3708C50.7859 13.3271 51.5053 13.262 52.2246 13.2035C52.8686 13.1511 53.5129 13.1047 54.1553 13.0378C54.9108 12.959 55.6645 12.8643 56.4184 12.7707C57.7259 12.6085 59.0352 12.4561 60.3397 12.2718C61.217 12.1477 62.093 12.0017 62.9598 11.819C64.3477 11.5268 65.7341 11.2225 67.1088 10.8738C68.6085 10.4934 70.081 10.0153 71.4786 9.34126C71.9906 9.09411 72.4842 8.80458 72.9678 8.50481C73.4774 8.18884 73.9045 7.77656 74.2467 7.18592Z" fill="#252525"/>
<path d="M18.5293 92.9025C18.5347 93.283 18.3611 93.5258 18.0686 93.5771C17.7495 93.6337 17.4749 93.4692 17.3879 93.1184C17.291 92.7245 17.2335 92.3224 17.1657 91.9231C16.8551 90.0883 16.5489 88.2535 16.2379 86.4187C15.9289 84.5974 15.6144 82.7761 15.3052 80.9522C15.0322 79.3413 14.7649 77.7305 14.4913 76.1223C14.1821 74.2983 13.8681 72.4771 13.5578 70.6558C13.3283 69.3067 13.1023 67.9602 12.8736 66.6111C12.592 64.9517 12.3079 63.2923 12.0276 61.6329C11.7554 60.0221 11.4873 58.4113 11.2156 56.8004C11.0579 55.8641 10.8956 54.9279 10.739 53.9916C10.7163 53.8567 10.6956 53.7137 10.7058 53.5787C10.7269 53.2954 10.9143 53.085 11.16 53.0364C11.4338 52.9851 11.6898 53.1093 11.7921 53.4034C11.8872 53.6732 11.9353 53.9646 11.9841 54.2506C12.3857 56.5953 12.7842 58.9428 13.1806 61.2903C13.5241 63.3247 13.8616 65.3592 14.2062 67.3936C14.5148 69.2149 14.8318 71.0362 15.1407 72.8602C15.4159 74.4818 15.683 76.1061 15.9578 77.7278C16.1928 79.112 16.4369 80.4961 16.6718 81.883C16.9445 83.4912 17.2097 85.1047 17.4819 86.7128C17.7163 88.0997 17.9563 89.4839 18.1926 90.8681C18.3011 91.5049 18.4073 92.1416 18.5136 92.7784C18.522 92.8297 18.5263 92.8782 18.5293 92.9025Z" fill="#252525"/>
<path d="M25.9103 94.4648C25.9066 94.8884 25.7264 95.1285 25.4324 95.169C25.1186 95.2149 24.8553 95.0368 24.7719 94.678C24.652 94.1599 24.5586 93.6364 24.4611 93.113C24.1411 91.3942 23.8238 89.6755 23.5071 87.9567C23.1604 86.0787 22.8172 84.1954 22.4691 82.3174C22.1602 80.6472 21.8451 78.9797 21.5356 77.3123C21.2305 75.669 20.93 74.0231 20.6259 72.3799C20.2735 70.475 19.9182 68.57 19.5658 66.6651C19.2596 65.0084 18.9563 63.3517 18.6509 61.6977C18.3482 60.0518 18.0436 58.4086 17.7431 56.7653C17.7207 56.6412 17.7064 56.5117 17.7204 56.3903C17.7539 56.1016 17.9426 55.9019 18.193 55.8668C18.4516 55.8291 18.6968 55.9505 18.8008 56.2203C18.8904 56.455 18.9377 56.706 18.9841 56.9542C19.3103 58.6973 19.6325 60.4403 19.9538 62.1833C20.3327 64.2394 20.708 66.2927 21.0879 68.3488C21.4357 70.2294 21.7897 72.1074 22.1378 73.988C22.4443 75.642 22.7445 77.3015 23.051 78.9555C23.3991 80.8361 23.7528 82.7168 24.1006 84.5947C24.4093 86.2649 24.7117 87.9324 25.0201 89.6026C25.2917 91.0704 25.5682 92.541 25.8409 94.0088C25.8733 94.1842 25.8944 94.3596 25.9103 94.4648Z" fill="#252525"/>
<path d="M34.0457 96.0998C34.0468 96.483 33.8659 96.7258 33.571 96.7717C33.2702 96.8203 33.0018 96.6611 32.91 96.3319C32.809 95.9649 32.7463 95.5899 32.6764 95.2175C32.2211 92.7891 31.7707 90.3634 31.3141 87.9377C30.895 85.709 30.4676 83.4857 30.049 81.257C29.5209 78.4454 29.0008 75.6339 28.4718 72.8223C27.9803 70.2078 27.4803 67.5986 26.9866 64.9867C26.5848 62.8578 26.1866 60.7316 25.7894 58.6027C25.764 58.4678 25.748 58.3248 25.7502 58.1872C25.7548 57.885 25.9349 57.6611 26.2006 57.6098C26.482 57.5531 26.7666 57.7015 26.8587 57.9983C26.9524 58.2978 27.0074 58.6108 27.066 58.9238C27.6139 61.8217 28.1605 64.7196 28.7043 67.6175C29.1571 70.0324 29.6029 72.4473 30.0571 74.8595C30.5135 77.2852 30.9787 79.7109 31.4351 82.1366C31.889 84.5488 32.334 86.9637 32.7876 89.3786C33.1713 91.4184 33.5623 93.4556 33.9485 95.4954C33.9884 95.7086 34.0168 95.9218 34.0457 96.0998Z" fill="#252525"/>
<path d="M42.4693 96.0164C42.4739 96.3887 42.3019 96.6424 42.0367 96.7071C41.7438 96.78 41.4602 96.6424 41.3536 96.3078C41.2342 95.9355 41.1613 95.5496 41.0833 95.1637C40.4498 92.05 39.8222 88.9363 39.1882 85.8225C38.6576 83.2187 38.1176 80.615 37.587 78.0112C37.0231 75.2428 36.468 72.4772 35.9044 69.7088C35.3762 67.1185 34.8411 64.5255 34.3107 61.9353C34.1414 61.1042 33.9753 60.2705 33.8163 59.4394C33.7888 59.2937 33.7852 59.1345 33.8077 58.9888C33.8436 58.754 33.9924 58.603 34.2294 58.5571C34.4792 58.5085 34.6877 58.5894 34.8203 58.8053C34.8913 58.9186 34.9369 59.0562 34.9645 59.1912C35.4054 61.3362 35.8404 63.4813 36.2792 65.6291C36.6648 67.5124 37.0561 69.3958 37.4403 71.2819C37.8926 73.5025 38.3376 75.7231 38.7899 77.9438C39.1739 79.8298 39.5657 81.7131 39.95 83.5992C40.3318 85.4718 40.7063 87.347 41.0879 89.2196C41.4694 91.0922 41.8561 92.9647 42.239 94.8373C42.3227 95.2447 42.3994 95.6575 42.4693 96.0164Z" fill="#252525"/>
<path d="M51.2864 94.937C51.2918 95.3363 51.1106 95.5873 50.8214 95.6304C50.5236 95.679 50.2463 95.5171 50.159 95.1879C50.023 94.6753 49.9198 94.1545 49.8096 93.6337C49.3846 91.6263 48.9615 89.6215 48.5389 87.614C48.119 85.62 47.7021 83.6234 47.2814 81.6294C46.8971 79.8081 46.5083 77.9895 46.1235 76.1682C45.7101 74.212 45.3002 72.2531 44.887 70.2969C44.4266 68.1167 43.9638 65.9366 43.5037 63.7564C43.2107 62.3695 42.9194 60.9799 42.6312 59.5931C42.6059 59.4716 42.5945 59.3394 42.6061 59.2153C42.631 58.9536 42.8116 58.7593 43.0506 58.7107C43.2939 58.6622 43.5399 58.762 43.6627 58.9914C43.7332 59.1236 43.7756 59.2747 43.8069 59.4204C44.2746 61.614 44.7401 63.805 45.2019 65.9959C45.729 68.4999 46.2493 71.0038 46.777 73.5051C47.2681 75.8336 47.768 78.1595 48.2591 80.488C48.8597 83.3374 49.4537 86.1894 50.0537 89.036C50.4347 90.8465 50.8222 92.6543 51.2051 94.4621C51.2416 94.6348 51.2648 94.8102 51.2864 94.937Z" fill="#252525"/>
<path d="M51.7579 57.9903C52.028 57.993 52.2426 58.1576 52.3269 58.4625C52.4111 58.7674 52.4735 59.0776 52.5389 59.3879C52.9358 61.2713 53.3325 63.1546 53.7262 65.0353C54.1768 67.1912 54.6221 69.3497 55.0736 71.5056C55.4573 73.3377 55.8488 75.1698 56.2328 77.0046C56.687 79.1712 57.1352 81.3406 57.5894 83.51C57.9707 85.3313 58.3579 87.1499 58.7406 88.9712C59.0478 90.4336 59.3516 91.896 59.6587 93.3558C59.7027 93.5662 59.7575 93.7767 59.8047 93.9844C59.8876 94.3514 59.7167 94.6833 59.3994 94.7723C59.0419 94.8749 58.7279 94.7022 58.6258 94.3001C58.5078 93.836 58.4327 93.3585 58.335 92.889C57.9904 91.2269 57.6453 89.5675 57.2978 87.9081C56.953 86.2595 56.6038 84.6135 56.259 82.9649C55.8777 81.1436 55.5002 79.3223 55.119 77.501C54.735 75.6663 54.3483 73.8342 53.963 71.9994C53.4996 69.7949 53.0365 67.5905 52.5734 65.3861C52.1311 63.2787 51.6864 61.1742 51.2511 59.0669C51.2084 58.8618 51.1933 58.6378 51.2211 58.4301C51.2584 58.1522 51.4884 57.9876 51.7579 57.9903Z" fill="#252525"/>
<path d="M66.5833 91.5724C66.5692 91.7693 66.5457 91.9501 66.3948 92.0985C66.0762 92.4088 65.5736 92.2685 65.4421 91.8044C65.3425 91.4536 65.2904 91.0867 65.2256 90.7251C64.9377 89.117 64.6512 87.5115 64.3672 85.9034C64.0612 84.1712 63.7612 82.4362 63.4542 80.7039C63.1807 79.1579 62.8993 77.6145 62.6252 76.0684C62.3182 74.3362 62.0171 72.6039 61.7106 70.869C61.4374 69.3256 61.1584 67.7795 60.8846 66.2334C60.6108 64.6873 60.3413 63.1413 60.0681 61.5979C59.8345 60.2758 59.5977 58.9536 59.3644 57.6342C59.3357 57.4723 59.3058 57.3077 59.3012 57.1459C59.2912 56.787 59.4694 56.5576 59.7718 56.5117C60.0802 56.4659 60.3375 56.6224 60.428 56.9543C60.5144 57.2699 60.5671 57.5965 60.6248 57.9202C60.9875 59.952 61.3493 61.9837 61.7079 64.0155C62.0862 66.1579 62.4581 68.3029 62.8377 70.448C63.1464 72.1911 63.4644 73.9341 63.7742 75.6799C64.0858 77.4364 64.3901 79.1957 64.7014 80.9522C64.9731 82.4875 65.2523 84.0173 65.5237 85.5499C65.7953 87.0852 66.061 88.6178 66.3302 90.1504C66.4134 90.6253 66.4987 91.0975 66.5833 91.5724Z" fill="#252525"/>
<path d="M71.7165 77.5038C71.7194 77.9355 71.5315 78.181 71.2196 78.2161C70.9018 78.2512 70.642 78.0731 70.5672 77.7143C70.4082 76.9453 70.2699 76.1709 70.1284 75.3992C69.8938 74.1175 69.6643 72.8332 69.4307 71.5515C69.1566 70.0432 68.879 68.5376 68.6052 67.0293C68.3743 65.7612 68.1481 64.4903 67.9172 63.2194C67.6815 61.9243 67.4403 60.6292 67.2051 59.334C66.9656 58.0146 66.7293 56.6924 66.4939 55.373C66.4739 55.2597 66.4553 55.1464 66.4626 55.033C66.4833 54.7093 66.6834 54.4826 66.9602 54.4503C67.2451 54.4206 67.4965 54.5825 67.5956 54.8847C67.6507 55.0519 67.6842 55.2273 67.7157 55.4027C68.0603 57.3076 68.3997 59.2153 68.7462 61.1202C69.1269 63.2113 69.5155 65.3025 69.8965 67.3936C70.2049 69.0881 70.5051 70.7825 70.8124 72.477C71.0838 73.9718 71.3606 75.4666 71.633 76.9587C71.6695 77.1584 71.6949 77.3608 71.7165 77.5038Z" fill="#252525"/>
<path d="M65.5221 5.24878C65.9693 5.3192 66.4175 5.38262 66.8631 5.46141C67.7974 5.62627 68.729 5.8084 69.6649 5.96274C69.9262 6.00591 70.0669 6.12032 70.1458 6.36747C70.2875 6.81241 70.3216 7.27002 70.2416 7.71846C70.1253 8.369 69.7002 8.79882 69.093 9.02628C68.2459 9.34332 67.3699 9.4321 66.481 9.23135C66.2887 9.18791 66.0938 9.09832 65.9336 8.98338C65.5983 8.74216 65.5694 8.369 65.8424 8.0606C65.9339 7.95752 66.0422 7.86525 66.1559 7.7862C66.8401 7.30996 66.6838 6.49374 66.2501 6.07363C66.1146 5.94222 65.9533 5.83781 65.8129 5.71072C65.6876 5.5974 65.5753 5.46978 65.457 5.34863C65.4786 5.31517 65.5005 5.28197 65.5221 5.24878Z" fill="#252525"/>
</g>
<defs>
<clipPath id="clip0_627_9444">
<rect width="81.8182" height="118.182" fill="white"/>
</clipPath>
</defs>
</svg>
