<svg width="122" height="108" viewBox="0 0 122 108" fill="none" xmlns="http://www.w3.org/2000/svg">
<g clip-path="url(#clip0_627_9465)">
<path d="M15.4906 2.71209C28.1271 -4.76042 47.1801 3.70817 62.422 21.9911C77.664 3.70817 96.7169 -4.76042 109.353 2.71209C125.057 11.9981 124.903 42.3816 109.01 70.5758C98.0321 90.0508 82.4162 103.385 68.6316 106.71C66.6621 107.279 64.5882 107.546 62.4361 107.522H62.4079C60.2558 107.546 58.1819 107.279 56.2124 106.71C42.4279 103.385 26.8117 90.0508 15.8335 70.5758C-0.0595016 42.3816 -0.213051 11.9981 15.4906 2.71209Z" fill="#FFD800"/>
<path d="M113.166 27.0556L113.27 27.0212C114.294 26.6857 114.941 25.6465 114.796 24.5552C114.2 20.0482 112.792 15.6318 110.628 11.5261C110.119 10.5621 109.01 10.1083 107.992 10.4443C106.693 10.8732 106.079 12.3879 106.693 13.6365C108.502 17.3161 109.714 21.2253 110.291 25.2119C110.493 26.6041 111.857 27.4843 113.166 27.0556Z" fill="white"/>
<path d="M111.197 32.6715C111.311 33.8922 112.369 34.7879 113.561 34.6716C114.753 34.5554 115.627 33.4715 115.514 32.2508C115.4 31.03 114.342 30.1344 113.15 30.2506C111.958 30.3668 111.084 31.4507 111.197 32.6715Z" fill="white"/>
<path d="M69.6449 46.2945C69.6449 58.3936 74.8906 68.2017 81.3614 68.2017C87.8325 68.2017 93.0781 58.3936 93.0781 46.2945C93.0781 34.1951 87.8325 24.387 81.3614 24.387C74.8906 24.387 69.6449 34.1951 69.6449 46.2945Z" fill="white"/>
<path d="M69.7776 47.2563C69.1611 36.2845 73.1314 28.7822 79.5987 28.8928C83.5693 30.2045 86.5859 36.683 86.5859 44.4835C86.5859 53.2302 82.7937 60.321 78.1158 60.321C73.9441 60.321 70.4791 54.68 69.7776 47.2563Z" fill="#231F20"/>
<path d="M85.7109 37.476L78.788 44.6069L84.8436 34.8677C85.1759 35.6788 85.4664 36.552 85.7109 37.476Z" fill="white"/>
<path d="M31.6999 46.2945C31.6999 58.3936 36.9455 68.2017 43.4164 68.2017C49.8872 68.2017 55.1328 58.3936 55.1328 46.2945C55.1328 34.1951 49.8872 24.387 43.4164 24.387C36.9455 24.387 31.6999 34.1951 31.6999 46.2945Z" fill="white"/>
<path d="M31.8323 47.2563C31.1218 36.0008 34.7646 28.8928 41.6534 28.8928C45.6237 30.2045 48.6406 36.683 48.6406 44.4835C48.6406 53.2302 44.8484 60.3211 40.1703 60.3211C35.9985 60.3211 32.5338 54.6801 31.8323 47.2563Z" fill="#231F20"/>
<path d="M47.7656 37.476L40.843 44.6069L46.8985 34.8677C47.2308 35.6788 47.5213 36.552 47.7656 37.476Z" fill="white"/>
<path d="M91.2563 22.0125C91.5646 22.0125 91.8692 21.8679 92.0669 21.5946C92.399 21.1365 92.3052 20.4896 91.8579 20.1495C91.7469 20.0653 89.0964 18.0736 85.2544 17.0628C80.0925 15.7052 75.2621 16.785 71.2863 20.1864C70.8587 20.5521 70.8017 21.2036 71.1587 21.6416C71.516 22.0791 72.1522 22.1377 72.5793 21.7721C80.9621 14.6014 90.5601 21.7359 90.6561 21.809C90.8367 21.9461 91.0472 22.0125 91.2563 22.0125Z" fill="#231F20"/>
<path d="M62.6973 86.4372C67.9914 86.4372 72.9178 84.9492 77.1884 82.0245C77.6516 81.7073 77.7761 81.0658 77.4665 80.5917C77.1566 80.1173 76.5305 79.9897 76.0673 80.3071C70.5337 84.0967 64.0649 85.2544 56.8417 83.7486C51.3891 82.6117 47.5332 80.3004 47.4949 80.2772C47.0158 79.9866 46.3971 80.1485 46.1134 80.6392C45.8297 81.1296 45.9868 81.7629 46.4657 82.0539C46.6318 82.1552 50.6034 84.544 56.3717 85.7588C58.524 86.212 60.6388 86.4372 62.6973 86.4372Z" fill="#231F20"/>
<path d="M53.4359 22.0125C53.7443 22.0125 54.0489 21.8679 54.2466 21.5946C54.5787 21.1365 54.4849 20.4896 54.0376 20.1495C53.9266 20.0653 51.2761 18.0736 47.4341 17.0628C42.2719 15.7052 37.4421 16.785 33.466 20.1864C33.0383 20.5521 32.9814 21.2036 33.3384 21.6416C33.6957 22.0791 34.3321 22.1377 34.759 21.7721C43.1418 14.6014 52.7398 21.7359 52.8358 21.809C53.0164 21.9461 53.2269 22.0125 53.4359 22.0125Z" fill="#231F20"/>
<path d="M92.0433 70.312C92.0433 73.6804 94.7095 76.4112 97.9982 76.4112C101.287 76.4112 103.953 73.6804 103.953 70.312C103.953 66.9434 101.287 64.2126 97.9982 64.2126C94.7095 64.2126 92.0433 66.9434 92.0433 70.312Z" fill="#F9696A"/>
<path d="M21.4417 70.312C21.4417 73.6804 24.1079 76.4112 27.3966 76.4112C30.6854 76.4112 33.3516 73.6804 33.3516 70.312C33.3516 66.9434 30.6854 64.2126 27.3966 64.2126C24.1079 64.2126 21.4417 66.9434 21.4417 70.312Z" fill="#F9696A"/>
<path d="M78.7871 86.4434C78.8264 86.4434 78.866 86.4411 78.9061 86.4362C79.4593 86.3696 79.8549 85.8562 79.7899 85.2895C78.9979 78.3929 72.9552 76.048 72.6983 75.9514C72.1758 75.7549 71.5959 76.0299 71.4043 76.5658C71.2129 77.1006 71.4802 77.6928 72.0013 77.8904C72.2149 77.972 77.1423 79.921 77.7866 85.531C77.8468 86.0566 78.2828 86.4431 78.7871 86.4434Z" fill="#231F20"/>
<path d="M0.237928 44.2377C7.5905 46.5827 9.44655 48.4836 11.7363 56.0143C14.0258 48.4836 15.8818 46.5827 23.2344 44.2377C15.8818 41.8928 14.0258 39.9918 11.7363 32.4612C9.44655 39.9918 7.5905 41.8928 0.237928 44.2377Z" fill="white"/>
</g>
<defs>
<clipPath id="clip0_627_9465">
<rect width="121.03" height="107.691" fill="white" transform="matrix(-1 0 0 1 121.031 0)"/>
</clipPath>
</defs>
</svg>
