<svg width="79" height="127" viewBox="0 0 79 127" fill="none" xmlns="http://www.w3.org/2000/svg">
<g clip-path="url(#clip0_627_9418)">
<path d="M48.9085 122.706C37.75 125.562 26.0683 125.562 14.9099 122.706C11.2181 121.762 8.62891 118.381 8.62891 114.502C8.62891 109.831 12.3452 106.044 16.9294 106.044H46.889C51.4731 106.044 55.187 109.831 55.187 114.502C55.187 118.381 52.6002 121.762 48.9085 122.706Z" fill="white"/>
<path d="M48.9085 117.643C37.75 120.499 26.0683 120.499 14.9099 117.643C12.0494 116.911 9.85626 114.714 9.01277 111.958C8.76339 112.761 8.62891 113.615 8.62891 114.502C8.62891 118.381 11.2181 121.762 14.9099 122.706C26.0683 125.562 37.75 125.562 48.9085 122.706C52.6002 121.762 55.187 118.381 55.187 114.502C55.187 113.615 55.0525 112.761 54.8056 111.958C53.9596 114.714 51.769 116.911 48.9085 117.643Z" fill="#8ECAE6"/>
<path d="M16.9328 107.13C12.9452 107.13 9.69834 110.437 9.69834 114.502C9.69834 117.887 11.9501 120.827 15.1724 121.652C26.1231 124.455 37.7021 124.453 48.6528 121.652C51.8752 120.827 54.1244 117.887 54.1244 114.502C54.1244 110.437 50.88 107.13 46.8924 107.13H16.9328ZM31.9126 125.925C26.106 125.925 20.2994 125.205 14.6517 123.76C10.4807 122.691 7.56641 118.884 7.56641 114.502C7.56641 109.239 11.7692 104.957 16.9328 104.957H46.8924C52.056 104.957 56.2564 109.239 56.2564 114.502C56.2564 118.884 53.3445 122.691 49.1735 123.76C43.5258 125.205 37.7192 125.925 31.9126 125.925Z" fill="#231F20"/>
<path d="M48.6523 75.6102C48.6523 75.6102 56.432 57.555 57.427 47.0415C57.427 47.0415 62.043 17.4951 69.341 13.4918C73.8371 11.0268 76.018 13.9423 77.0546 16.8C77.7416 18.6924 77.9739 20.722 77.8272 22.7343C77.4213 28.3624 72.2969 55.1793 68.7982 72.4431C66.0648 85.9421 48.6523 75.6102 48.6523 75.6102Z" fill="white"/>
<path d="M9.67531 106.33C9.67531 106.33 15.4135 117.573 33.3614 115.268C40.5127 114.35 48.1774 112.266 51.9645 110.091C56.2969 107.603 59.7564 103.803 61.9128 99.2369C65.5948 91.4375 69.135 74.5035 69.7805 67.4731C70.6313 58.1813 12.0224 75.0861 12.0224 75.0861C12.0224 75.0861 -2.70315 79.5337 9.67531 106.33Z" fill="white"/>
<path d="M77.0546 16.8C76.0179 13.9423 73.8371 11.0268 69.3409 13.4918C69.1331 13.6069 68.9253 13.7452 68.7199 13.9009C70.5658 14.393 71.6685 16.2104 72.3212 18.0062C73.0058 19.8986 73.2406 21.9283 73.0939 23.9405C72.7222 29.0718 68.429 51.816 65.0257 68.8753C64.3338 76.0189 60.8229 92.7146 57.1752 100.443C55.0212 105.009 51.5593 108.809 47.2269 111.297C45.5204 112.278 49.3686 111.58 51.9626 110.091C56.295 107.603 59.7545 103.803 61.9109 99.2368C65.5587 91.5084 69.0671 74.8127 69.759 67.6691C73.1647 50.6098 77.4555 27.8656 77.8271 22.7343C77.9738 20.722 77.7416 18.6924 77.0546 16.8Z" fill="#8ECAE6"/>
<path d="M47.9327 66.4722C39.2143 68.0574 29.5863 70.4002 22.4961 72.2428C30.2611 70.3046 39.7399 68.1416 47.7812 66.9057C47.8301 66.7632 47.8814 66.6162 47.9327 66.4722Z" fill="#8ECAE6"/>
<path d="M7.90773 75.1348C7.90773 75.1348 10.7732 53.6814 8.71211 42.2762C8.71211 42.2762 4.83208 9.66603 11.3526 3.19473C15.3696 -0.790162 18.5333 1.61702 20.4745 4.31472C21.7605 6.10123 22.6064 8.17228 23.0489 10.3415C24.286 16.4082 26.8165 46.294 28.237 65.5945C29.3494 80.6861 7.90773 75.1348 7.90773 75.1348Z" fill="white"/>
<path d="M28.2362 65.5944C26.8157 46.2939 24.2852 16.4081 23.0481 10.3414C22.6056 8.17221 21.7597 6.10116 20.4737 4.31465C18.7916 1.97698 16.1902 -0.139419 12.9141 1.92939C13.826 2.5386 14.6157 3.40968 15.2661 4.31465C16.5521 6.10116 17.398 8.17221 17.8406 10.3414C19.0777 16.4081 21.6081 46.2939 23.0286 65.5944C23.5811 73.0858 18.574 75.4895 13.3933 76.0118C19.6644 76.5445 28.9795 75.6724 28.2362 65.5944Z" fill="#8ECAE6"/>
<path d="M9.08804 74.2884C11.9217 74.8729 20.5765 76.274 24.8184 72.6432C26.635 71.0871 27.4052 68.8083 27.1753 65.6758C25.8502 47.6739 23.2757 16.7922 22.0068 10.5621C21.5741 8.44844 20.7697 6.56251 19.6158 4.95614C18.7576 3.76564 17.4031 2.31774 15.8041 2.1822C14.6379 2.08278 13.3935 2.68601 12.0953 3.9722C7.06369 8.9657 8.7042 33.1638 9.76528 42.1128C11.5941 52.2927 9.63081 69.8859 9.08804 74.2884ZM16.0779 77.2213C11.7285 77.2213 7.92668 76.2595 7.64307 76.1865L6.72141 75.9481L6.85093 74.9881C6.88027 74.7753 9.66991 53.5744 7.66265 42.4726L7.65286 42.4068C7.64308 42.3246 6.67494 34.0954 6.52091 25.1811C6.31065 12.9768 7.68711 5.31794 10.6088 2.41691C12.3666 0.672514 14.1758 -0.136274 15.9802 0.0187061C17.9043 0.18166 19.7062 1.41104 21.3345 3.67245C22.6694 5.53122 23.5984 7.7007 24.0923 10.1206C25.3808 16.4516 27.9699 47.4569 29.2999 65.5131C29.5811 69.34 28.5347 72.2986 26.1851 74.3078C23.5251 76.5835 19.6206 77.2213 16.0779 77.2213Z" fill="#231F20"/>
<path d="M15.6071 113.282C15.4188 113.282 15.2281 113.231 15.057 113.125C10.5657 110.358 8.80541 106.974 8.73206 106.831L8.71249 106.793C3.55377 95.6281 2.32645 86.8134 5.06228 80.5936C7.33603 75.4207 11.5412 74.0988 11.7197 74.0453C12.2845 73.8743 12.8761 74.2025 13.0448 74.7776C13.2111 75.3509 12.8908 75.9531 12.3309 76.1255C12.1793 76.1726 8.82982 77.2709 6.97904 81.5401C5.30673 85.3987 4.58309 92.7466 10.6293 105.842C10.7442 106.057 12.3456 108.917 16.1596 111.267C16.6633 111.577 16.8246 112.245 16.519 112.758C16.3185 113.095 15.9665 113.282 15.6071 113.282Z" fill="#231F20"/>
<path d="M43.9237 114.237C43.4543 114.237 43.0264 113.919 42.8968 113.435C42.7428 112.857 43.0777 112.26 43.6449 112.103C46.9358 111.194 49.7034 110.144 51.4417 109.145C55.5809 106.768 58.8693 103.179 60.9523 98.7662C64.715 90.7937 68.1207 73.9091 68.7197 67.372L68.7369 67.2556L70.1182 60.3695C70.2356 59.7819 70.7979 59.4037 71.3749 59.5233C71.9519 59.6434 72.3235 60.217 72.2061 60.8043L70.8346 67.6331C70.2087 74.3493 66.7272 91.5414 62.8716 99.7076C60.6003 104.522 57.0087 108.44 52.4881 111.037C50.5738 112.137 47.7083 113.23 44.2024 114.199C44.1095 114.225 44.0166 114.237 43.9237 114.237Z" fill="#231F20"/>
<path d="M42.0039 76.97C42.0039 76.97 43.3144 85.6945 49.6662 86.4599C53.0206 86.8641 55.0107 83.9411 56.1452 81.0907C57.0791 78.7453 57.4899 76.2185 57.4459 73.6882L57.1084 54.3616C57.04 50.3851 54.3261 46.8667 50.4926 46.1167C48.2213 45.6722 45.5759 46.1835 42.9354 48.9584L42.0039 76.97Z" fill="white"/>
<path d="M50.4933 46.1168C49.8161 45.9842 49.1047 45.9394 48.3687 46.0117C50.8063 47.4909 52.3857 50.2437 52.4395 53.2646L52.7769 72.591C52.8209 75.1213 52.4077 77.6481 51.4762 79.9935C50.5349 82.3583 49.002 84.7709 46.5938 85.2944C47.4568 85.8904 48.4739 86.316 49.667 86.46C53.0214 86.8642 55.0115 83.9412 56.146 81.0908C57.0799 78.7454 57.4907 76.2186 57.4467 73.6883L57.1092 54.3617C57.0408 50.3852 54.3269 46.8668 50.4933 46.1168Z" fill="#8ECAE6"/>
<path d="M43.0768 76.895C43.2332 77.7775 44.6513 84.7614 49.7953 85.3813C52.0079 85.6479 53.8147 84.0672 55.1594 80.6825C56.0127 78.534 56.4258 76.1873 56.3818 73.7074L56.0445 54.381C55.9834 50.8506 53.5654 47.8237 50.2941 47.1839C48.0644 46.7473 45.9446 47.5013 43.9887 49.4241L43.0768 76.895ZM54.0567 86.1719C52.4945 87.481 50.8662 87.6983 49.5435 87.5388C42.4655 86.6859 41.0109 77.5241 40.9522 77.1344L40.9375 77.0343L41.8861 48.5027L42.1722 48.202C44.7369 45.5053 47.6071 44.4451 50.695 45.05C54.9516 45.8825 58.0957 49.7906 58.1764 54.3424L58.5138 73.6688C58.5627 76.443 58.0982 79.0772 57.1349 81.4986C56.2303 83.7719 55.1594 85.2455 54.0567 86.1719Z" fill="#231F20"/>
<path d="M28.1893 49.8856C28.1893 49.8856 25.8251 81.7113 30.4264 86.8055C32.1525 88.7159 34.1181 89.0963 35.9005 88.8257C38.9908 88.3568 41.4235 85.8846 42.0714 82.769C43.6459 75.1832 46.9782 56.766 43.8977 49.3949C39.9761 40.0022 31.8884 44.7949 31.8884 44.7949C31.8884 44.7949 28.3995 46.5059 28.1893 49.8856Z" fill="white"/>
<path d="M36.1432 43.5806C37.3705 44.4667 38.5294 45.8924 39.4536 48.1084C42.5342 55.4795 39.2018 73.8965 37.6273 81.4825C36.9794 84.5981 34.5467 87.07 31.4564 87.5392C31.3806 87.5507 31.3048 87.5592 31.2266 87.5684C32.7448 88.8122 34.3878 89.0551 35.9012 88.8257C38.9915 88.3565 41.4242 85.8845 42.0721 82.769C43.6466 75.1832 46.9789 56.7659 43.8984 49.3949C41.8642 44.523 38.7103 43.468 36.1432 43.5806Z" fill="#8ECAE6"/>
<path d="M31.1662 46.5835C30.3325 47.2826 29.3472 48.4221 29.2518 49.9547V49.9676C28.3154 62.5719 28.0636 82.588 31.2102 86.0698C32.4766 87.4719 33.9582 88.022 35.743 87.7512C38.337 87.3575 40.4616 85.265 41.0264 82.5441C42.239 76.709 45.9602 57.1042 42.9163 49.8204C41.8381 47.2388 40.3394 45.607 38.4592 44.9702C35.4716 43.9593 32.4522 45.7164 32.4228 45.7341L32.3495 45.774C32.3372 45.7794 31.7945 46.0563 31.1662 46.5835ZM40.1095 88.0502C38.958 89.0152 37.5669 89.671 36.056 89.9005C33.5915 90.2745 31.3716 89.4587 29.6406 87.5414C28.8606 86.6765 26.4818 84.0449 26.516 66.4332C26.5307 58.0087 27.1052 50.0902 27.1248 49.8107C27.3668 46.0072 30.951 44.0587 31.3862 43.8352C31.8067 43.5955 35.3958 41.6441 39.1291 42.9083C41.6156 43.75 43.5495 45.7894 44.8795 48.9695C47.9601 56.348 45.0947 73.4541 43.1119 82.9944C42.6889 85.0286 41.6009 86.7991 40.1095 88.0502Z" fill="#231F20"/>
<path d="M43.8185 51.9468L28.7457 56.7474C28.7457 56.7474 12.5313 59.4354 9.5216 65.0045C6.51194 70.5736 -7.81023 85.1679 11.5973 108.787C11.5973 108.787 27.1493 97.3802 27.005 79.2096C26.9903 77.3406 27.6847 75.5372 28.9389 74.1743L31.3129 71.5971C31.9534 70.901 32.7945 70.4296 33.7138 70.2532C37.2197 69.5824 46.3001 67.1986 47.212 60.3959C48.3415 51.9468 43.8185 51.9468 43.8185 51.9468Z" fill="white"/>
<path d="M43.8193 51.9463L42.2888 52.4337C42.702 53.6772 42.878 55.4565 42.5357 58.0132C41.7143 64.1501 34.2426 66.6909 30.2159 67.6217C28.4556 68.0284 26.8615 68.971 25.6269 70.3115C25.6024 70.3396 25.5756 70.3683 25.5487 70.3967C23.4681 72.6561 21.3801 75.806 22.3434 78.7447C24.9179 86.5777 24.5022 88.5737 25.9178 87.7006C28.1916 86.2969 27.0254 82.2624 27.0058 79.2542C26.9936 77.3695 27.6732 75.5482 28.9397 74.174L31.3137 71.5959C31.9591 70.8955 32.81 70.4271 33.7366 70.2492C37.2548 69.5729 46.3033 67.1854 47.2128 60.3957C48.3423 51.9463 43.8193 51.9463 43.8193 51.9463Z" fill="#8ECAE6"/>
<path d="M11.5987 109.874C11.2931 109.874 10.9899 109.741 10.7796 109.485C-9.49827 84.8048 4.22248 69.3531 8.73086 64.2756C13.161 59.2843 27.3903 55.944 28.4684 55.6969L43.6561 50.8604H43.8175C43.9935 50.8604 45.5607 50.904 46.8565 52.4164C48.2892 54.09 48.7635 56.8241 48.2672 60.5426C47.2696 67.9814 37.8959 70.5583 33.9108 71.3207C33.2091 71.4548 32.5808 71.8076 32.0893 72.3408L29.7153 74.9177C28.642 76.0838 28.0577 77.6049 28.0699 79.2008C28.0723 79.3882 28.1212 83.9693 27.0993 87.3684C26.9281 87.942 26.3316 88.2644 25.7693 88.0893C25.207 87.9136 24.8891 87.3061 25.0627 86.7323C25.9844 83.6626 25.938 79.2683 25.938 79.2242C25.9208 77.0612 26.7106 75.0059 28.1604 73.4309L30.5344 70.8538C31.3387 69.982 32.368 69.4052 33.5171 69.1852C36.2725 68.6582 45.3235 66.4558 46.1547 60.2491C46.6584 56.4773 45.9616 54.7087 45.2869 53.8892C44.771 53.2628 44.1866 53.0941 43.9299 53.049L28.9769 57.8078C28.8302 57.8409 14.3663 61.1653 10.3102 65.7332C5.66496 70.9647 -6.67199 84.8603 12.4153 108.09C12.7918 108.55 12.7331 109.235 12.2808 109.62C12.0828 109.79 11.8383 109.874 11.5987 109.874Z" fill="#231F20"/>
<path d="M72.1426 61.1525L70.0522 60.7354C73.1108 44.8133 76.5165 26.105 76.7659 22.6543C76.9077 20.7079 76.6681 18.8648 76.0544 17.1762C75.6046 15.9339 74.788 14.3452 73.4555 13.8319C72.4874 13.4587 71.2722 13.6657 69.8469 14.4479C64.2481 17.5176 59.7519 39.0832 58.4855 47.1796C58.3559 48.5159 58.1163 50.0368 57.7691 51.7007L55.6836 51.2482C56.0185 49.6508 56.2484 48.2002 56.3682 46.9372L56.3755 46.8709C56.3877 46.7966 57.5613 39.3381 59.6174 31.488C62.4388 20.7201 65.5414 14.3437 68.8371 12.5358C70.8297 11.4429 72.6365 11.1955 74.2085 11.801C75.8808 12.4451 77.1742 14.0004 78.0543 16.4232C78.7731 18.4053 79.0543 20.5556 78.8905 22.8143C78.5947 26.8812 74.5093 48.8266 72.1426 61.1525Z" fill="#231F20"/>
</g>
<defs>
<clipPath id="clip0_627_9418">
<rect width="78.9699" height="126.077" fill="white"/>
</clipPath>
</defs>
</svg>
