<svg width="122" height="124" viewBox="0 0 122 124" fill="none" xmlns="http://www.w3.org/2000/svg">
<g clip-path="url(#clip0_627_9361)">
<path d="M60.5574 42.1644C49.9505 42.1644 41.3196 50.9658 41.3196 61.7844C41.3196 72.6028 49.9505 81.4041 60.5574 81.4041C71.1607 81.4041 79.7916 72.6028 79.7916 61.7844C79.7916 50.9658 71.1607 42.1644 60.5574 42.1644ZM60.5574 123.439C27.2265 123.439 0.109375 95.7809 0.109375 61.7844C0.109375 27.7873 27.2265 0.128906 60.5574 0.128906C93.8848 0.128906 121.002 27.7873 121.002 61.7844C121.002 95.7809 93.8848 123.439 60.5574 123.439Z" fill="white"/>
<path d="M60.5537 86.3186C47.2722 86.3186 36.503 75.3344 36.503 61.7843C36.503 48.2339 47.2722 37.2497 60.5537 37.2497C73.8388 37.2497 84.608 48.2339 84.608 61.7843C84.608 75.3344 73.8388 86.3186 60.5537 86.3186ZM60.5537 5.04346C29.834 5.04346 4.92578 30.4473 4.92578 61.7843C4.92578 93.121 29.834 118.526 60.5537 118.526C91.277 118.526 116.185 93.121 116.185 61.7843C116.185 30.4473 91.277 5.04346 60.5537 5.04346Z" fill="#E36B00"/>
<path d="M58.3343 91.5389C43.1579 91.5389 30.8538 78.9894 30.8538 63.5095C30.8538 48.0292 43.1579 35.4801 58.3343 35.4801C73.5107 35.4801 85.8149 48.0292 85.8149 63.5095C85.8149 78.9894 73.5107 91.5389 58.3343 91.5389ZM97.2651 92.4556C96.8487 90.0284 96.2736 87.6101 96.7358 85.2419C97.1239 83.2573 98.4048 81.5765 99.8127 80.1523C101.605 78.3412 103.666 76.8091 105.331 74.8785C107 72.9479 108.278 70.4677 108.052 67.9055C107.837 65.4746 106.312 63.3688 104.601 61.662C103.006 60.0694 101.094 58.5117 100.681 56.2738C100.035 52.7689 103.38 49.7658 103.779 46.2231C104.17 42.7449 101.782 40.1654 99.5021 37.9707C97.0674 35.6294 95.1021 35.2565 91.8628 34.3424C90.2467 33.8863 88.613 33.0657 87.7732 31.584C86.4782 29.2928 87.4133 26.0398 85.709 24.0463C84.5799 22.7225 82.6462 22.4573 80.9384 22.679C79.2305 22.9007 77.5791 23.514 75.8572 23.5968C73.2672 23.722 70.6455 22.5548 68.9765 20.5321C66.6652 17.7345 66.1996 13.9572 62.4416 12.7482C59.3083 11.7404 56.1572 13.0944 54.1389 15.62C52.1735 18.0771 50.7055 21.2717 47.805 22.4144C42.3675 24.5556 36.3619 17.918 30.9209 20.0458C27.6181 21.3368 26.2066 25.2768 25.575 28.8263C24.9434 32.3754 24.5729 36.2711 22.1347 38.8816C19.4953 41.7019 15.3175 42.1047 11.6831 43.3143C8.32387 44.4333 4.78822 47.2194 5.08815 51.1799C5.36691 54.8845 10.2681 56.7071 11.9936 59.888C13.4897 62.6504 13.4015 66.0105 12.971 69.1368C12.5405 72.2626 11.8101 75.4047 12.1665 78.5403C12.4417 80.9643 13.5356 83.5117 15.5292 84.9647C18.0063 86.7704 20.8926 85.8436 23.6308 86.6657C27.9533 87.9607 27.8828 92.9574 28.7084 96.7271C29.2307 99.1061 29.7953 101.578 31.2878 103.478C33.9696 106.89 38.8249 107.495 43.098 107.139C46.0126 106.898 49.0436 106.347 51.7888 107.376C55.2821 108.683 57.5122 112.246 60.8396 113.948C64.5341 115.838 69.033 114.852 72.0217 112.098C74.7845 109.554 74.8833 104.097 78.5389 102.633C82.004 101.24 85.6984 104.792 89.3681 104.483C92.9143 104.184 97.0251 101.089 97.5333 97.3343C97.7556 95.7118 97.5474 94.0817 97.2651 92.4556Z" fill="#B95F00"/>
<path d="M60.5534 86.3187C47.2719 86.3187 36.5027 75.3341 36.5027 61.7844C36.5027 48.234 47.2719 37.2497 60.5534 37.2497C73.8385 37.2497 84.6077 48.234 84.6077 61.7844C84.6077 75.3341 73.8385 86.3187 60.5534 86.3187ZM99.4877 90.7305C99.0714 88.3029 98.4962 85.885 98.9584 83.5167C99.3466 81.5322 100.624 79.8514 102.035 78.4268C103.824 76.6161 105.885 75.0839 107.554 73.1534C109.219 71.2228 110.5 68.7426 110.275 66.1804C110.059 63.7495 108.535 61.6437 106.824 59.9369C105.229 58.3443 103.313 56.7866 102.903 54.5486C102.258 51.0438 105.603 48.0407 106.001 44.498C106.393 41.0195 104.004 38.4403 101.721 36.2456C99.2901 33.9043 97.3247 33.5311 94.0855 32.6173C92.4694 32.1612 90.8321 31.3406 89.9958 29.8589C88.7008 27.5677 89.636 24.3147 87.9317 22.3212C86.8025 20.9974 84.8689 20.7322 83.161 20.9539C81.4532 21.1756 79.7982 21.7889 78.0798 21.8716C75.4899 21.9969 72.8681 20.8297 71.1991 18.8066C68.8879 16.0094 68.4221 12.2321 64.6642 11.0231C61.5308 10.0153 58.3798 11.3693 56.3615 13.8945C54.396 16.352 52.9282 19.5466 50.0277 20.689C44.5901 22.8305 38.581 16.1929 33.14 18.3204C29.8408 19.6117 28.4258 23.5517 27.7977 27.1012C27.1661 30.6503 26.7956 34.546 24.3538 37.1565C21.7179 39.9768 17.5401 40.3795 13.9057 41.5892C10.5465 42.7082 7.01088 45.4943 7.31081 49.4548C7.58956 53.1594 12.4907 54.982 14.2162 58.1629C15.7123 60.9253 15.6206 64.2854 15.1901 67.4113C14.7596 70.5375 14.0292 73.6795 14.3891 76.8151C14.6643 79.2391 15.7582 81.7863 17.7483 83.2396C20.2289 85.0453 23.1117 84.1185 25.8534 84.9406C30.1724 86.2355 30.1019 91.2322 30.9311 95.002C31.4533 97.381 32.0143 99.8511 33.5104 101.754C36.1921 105.163 41.0475 105.771 45.3206 105.415C48.2352 105.174 51.2662 104.623 54.0115 105.649C57.5047 106.955 59.7313 110.522 63.0588 112.224C66.7532 114.11 71.2556 113.128 74.2443 110.371C77.0072 107.826 77.106 102.373 80.758 100.907C84.2266 99.516 87.921 103.068 91.5907 102.758C95.137 102.46 99.2478 99.3627 99.7559 95.6091C99.9782 93.9866 99.7665 92.3566 99.4877 90.7305Z" fill="#F15BB5"/>
<path d="M62.8613 27.7091H58.2494C57.6813 27.7091 57.2227 27.2415 57.2227 26.665C57.2227 26.0884 57.6813 25.6208 58.2494 25.6208H62.8613C63.4294 25.6208 63.8846 26.0884 63.8846 26.665C63.8846 27.2415 63.4294 27.7091 62.8613 27.7091Z" fill="white"/>
<path d="M98.1462 41.9158L96.7489 46.4022C96.5796 46.9518 96.0008 47.2559 95.4645 47.0813C94.9246 46.9068 94.6283 46.3198 94.7976 45.7702L96.1949 41.2838C96.3678 40.7342 96.9429 40.4301 97.4793 40.6047C98.0192 40.7792 98.3156 41.3662 98.1462 41.9158Z" fill="#FCBF49"/>
<path d="M96.2519 54.5404H91.6366C91.072 54.5404 90.6133 54.0728 90.6133 53.4963C90.6133 52.9197 91.072 52.4521 91.6366 52.4521H96.2519C96.8165 52.4521 97.2753 52.9197 97.2753 53.4963C97.2753 54.0728 96.8165 54.5404 96.2519 54.5404Z" fill="white"/>
<path d="M94.1075 66.4503H89.4921C88.9275 66.4503 88.4688 65.9828 88.4688 65.4062C88.4688 64.8296 88.9275 64.3621 89.4921 64.3621H94.1075C94.6721 64.3621 95.1307 64.8296 95.1307 65.4062C95.1307 65.9828 94.6721 66.4503 94.1075 66.4503Z" fill="#FCBF49"/>
<path d="M83.0293 97.6222H78.4139C77.8493 97.6222 77.3906 97.1546 77.3906 96.578C77.3906 96.0015 77.8493 95.5339 78.4139 95.5339H83.0293C83.5938 95.5339 84.0526 96.0015 84.0526 96.578C84.0526 97.1546 83.5938 97.6222 83.0293 97.6222Z" fill="white"/>
<path d="M33.3228 82.8885L31.3785 87.1578C31.1386 87.6807 30.5316 87.9075 30.0164 87.6649C29.5048 87.4223 29.2825 86.8007 29.5225 86.2778L31.4667 82.0089C31.7031 81.4859 32.3135 81.2588 32.8252 81.5017C33.3368 81.7447 33.5592 82.3655 33.3228 82.8885Z" fill="white"/>
<path d="M29.8262 40.3966H25.2108C24.6463 40.3966 24.1875 39.929 24.1875 39.3525C24.1875 38.7759 24.6463 38.3083 25.2108 38.3083H29.8262C30.3907 38.3083 30.8495 38.7759 30.8495 39.3525C30.8495 39.929 30.3907 40.3966 29.8262 40.3966Z" fill="white"/>
<path d="M50.6855 36.1146H46.0701C45.5056 36.1146 45.0469 35.6471 45.0469 35.0705C45.0469 34.4939 45.5056 34.0264 46.0701 34.0264H50.6855C51.2536 34.0264 51.7088 34.4939 51.7088 35.0705C51.7088 35.6471 51.2536 36.1146 50.6855 36.1146Z" fill="#52151E"/>
<path d="M83.8887 40.0621H79.2733C78.7088 40.0621 78.25 39.5946 78.25 39.018C78.25 38.4414 78.7088 37.9739 79.2733 37.9739H83.8887C84.4532 37.9739 84.912 38.4414 84.912 39.018C84.912 39.5946 84.4532 40.0621 83.8887 40.0621Z" fill="#52151E"/>
<path d="M70.041 111.472H65.4257C64.8611 111.472 64.4023 111.004 64.4023 110.428C64.4023 109.849 64.8611 109.385 65.4257 109.385H70.041C70.6091 109.385 71.0643 109.849 71.0643 110.428C71.0643 111.004 70.6091 111.472 70.041 111.472Z" fill="#52151E"/>
<path d="M49.3065 85.3928L46.0426 88.7216C45.6439 89.1291 44.9947 89.1291 44.5959 88.7216C44.1972 88.3139 44.1972 87.6527 44.5959 87.2449L47.8599 83.9164C48.2586 83.5086 48.9078 83.5086 49.3065 83.9164C49.7052 84.3242 49.7052 84.9854 49.3065 85.3928Z" fill="white"/>
<path d="M88.1699 47.2227L84.906 50.5512C84.5072 50.959 83.8579 50.959 83.4592 50.5512C83.0605 50.1434 83.0605 49.4826 83.4592 49.0749L86.7231 45.746C87.1219 45.3386 87.7712 45.3386 88.1699 45.746C88.5686 46.1538 88.5686 46.815 88.1699 47.2227Z" fill="#FCBF49"/>
<path d="M24.2832 78.3585H19.6678C19.1033 78.3585 18.6445 77.891 18.6445 77.3144C18.6445 76.7378 19.1033 76.2703 19.6678 76.2703H24.2832C24.8478 76.2703 25.3064 76.7378 25.3064 77.3144C25.3064 77.891 24.8478 78.3585 24.2832 78.3585Z" fill="#FCBF49"/>
<path d="M93.2207 90.0186H88.6053C88.0407 90.0186 87.582 89.5511 87.582 88.9745C87.582 88.3979 88.0407 87.9304 88.6053 87.9304H93.2207C93.7853 87.9304 94.2439 88.3979 94.2439 88.9745C94.2439 89.5511 93.7853 90.0186 93.2207 90.0186Z" fill="white"/>
<path d="M14.5357 49.0146L12.228 53.091C11.9457 53.5906 11.3176 53.7616 10.8271 53.4733C10.3402 53.185 10.1709 52.5465 10.4531 52.0469L12.7608 47.9705C13.0431 47.471 13.6712 47.3 14.1581 47.5883C14.6486 47.8766 14.818 48.5151 14.5357 49.0146Z" fill="#52151E"/>
<path d="M18.8984 47.0329L16.9294 42.7758C16.6895 42.2543 16.9083 41.632 17.4164 41.3858C17.928 41.14 18.5385 41.3632 18.7819 41.8847L20.7509 46.1414C20.9908 46.6629 20.772 47.2852 20.2604 47.5314C19.7487 47.7776 19.1418 47.5544 18.8984 47.0329Z" fill="#FCBF49"/>
<path d="M31.8118 53.1555L28.2903 50.1146C27.8562 49.7421 27.8033 49.0835 28.1667 48.6433C28.5337 48.2031 29.1794 48.1484 29.6099 48.5206L33.135 51.5615C33.5655 51.934 33.6183 52.593 33.2549 53.0332C32.8879 53.473 32.2422 53.5281 31.8118 53.1555Z" fill="white"/>
<path d="M89.8564 73.3291L86.8748 76.9225C86.5113 77.3627 85.8656 77.4174 85.4316 77.0449C85.0011 76.6723 84.9481 76.0137 85.3116 75.5735L88.2932 71.9802C88.6602 71.54 89.3059 71.4853 89.7364 71.8578C90.1669 72.2303 90.2234 72.8889 89.8564 73.3291Z" fill="white"/>
<path d="M58.5248 20.9587L55.0033 17.9178C54.5728 17.5453 54.5164 16.8866 54.8833 16.4465C55.2468 16.0063 55.8925 15.9516 56.3265 16.3241L59.848 19.3646C60.2785 19.7375 60.335 20.3962 59.9681 20.8363C59.6046 21.2765 58.9588 21.3312 58.5248 20.9587Z" fill="#FCBF49"/>
<path d="M70.1633 20.7625L66.6206 23.779C66.1865 24.1486 65.5408 24.0892 65.1809 23.6465C64.8174 23.2038 64.8739 22.5455 65.3079 22.1759L68.8542 19.1594C69.2882 18.7902 69.9304 18.8492 70.2939 19.2923C70.6573 19.7346 70.5973 20.3932 70.1633 20.7625Z" fill="#FCBF49"/>
<path d="M86.4817 24.914L82.939 27.9304C82.505 28.3001 81.8593 28.2407 81.4959 27.798C81.1324 27.3553 81.1924 26.697 81.6264 26.3274L85.1691 23.3109C85.6031 22.9417 86.2488 23.001 86.6123 23.4437C86.9722 23.8864 86.9157 24.5447 86.4817 24.914Z" fill="#52151E"/>
<path d="M23.0768 59.3384L19.5552 56.2975C19.1212 55.925 19.0683 55.266 19.4353 54.8262C19.7987 54.3856 20.4444 54.3309 20.8749 54.7034L24.4 57.7444C24.8305 58.1169 24.8834 58.7755 24.5199 59.2157C24.153 59.6559 23.5073 59.7109 23.0768 59.3384Z" fill="#FCBF49"/>
<path d="M96.9644 80.676L93.4394 77.635C93.0089 77.2625 92.9559 76.6039 93.3194 76.1637C93.6863 75.7235 94.3321 75.6685 94.7626 76.041L98.2841 79.0819C98.7181 79.4544 98.7711 80.1134 98.4041 80.5536C98.0407 80.9934 97.3949 81.0485 96.9644 80.676Z" fill="#52151E"/>
<path d="M64.2361 12.1883L62.8388 16.675C62.6694 17.2246 62.0943 17.5284 61.5544 17.3538C61.0145 17.1792 60.7181 16.5922 60.8875 16.0426L62.2848 11.5563C62.4577 11.0067 63.0329 10.7026 63.5727 10.8771C64.1091 11.0517 64.409 11.6387 64.2361 12.1883Z" fill="white"/>
<path d="M34.6497 23.3149L31.1035 26.3314C30.6695 26.7006 30.0272 26.6413 29.6638 26.1986C29.3003 25.7559 29.3604 25.0976 29.7944 24.7283L33.337 21.7119C33.771 21.3422 34.4168 21.4016 34.7767 21.8443C35.1401 22.287 35.0837 22.9453 34.6497 23.3149Z" fill="#FCBF49"/>
<path d="M48.6296 27.2615L48.3649 22.5621C48.3332 21.9862 48.7637 21.4928 49.3282 21.46C49.8928 21.4269 50.3762 21.8667 50.408 22.4422L50.6726 27.142C50.7079 27.7175 50.2739 28.2109 49.7093 28.244C49.1448 28.2771 48.6613 27.8373 48.6296 27.2615Z" fill="#52151E"/>
<path d="M52.6092 89.9525L57.094 88.8357C57.6409 88.6989 58.1949 89.0423 58.329 89.6023C58.4631 90.1627 58.1279 90.7274 57.5775 90.8642L53.0961 91.981C52.5456 92.1178 51.9917 91.7744 51.8576 91.2144C51.7236 90.654 52.0587 90.0893 52.6092 89.9525Z" fill="#FCBF49"/>
<path d="M56.5358 106.628L56.2712 101.927C56.2394 101.351 56.67 100.86 57.2346 100.826C57.7991 100.793 58.2825 101.232 58.3178 101.808L58.5824 106.509C58.6142 107.085 58.1802 107.578 57.6191 107.61C57.0545 107.643 56.5676 107.203 56.5358 106.628Z" fill="white"/>
<path d="M38.4968 92.818L38.2321 88.1182C38.2004 87.5427 38.6308 87.0489 39.1954 87.0162C39.76 86.983 40.2434 87.4229 40.2752 87.9984L40.5398 92.6981C40.5716 93.2736 40.1411 93.7671 39.5765 93.8002C39.012 93.8333 38.5285 93.3935 38.4968 92.818Z" fill="#52151E"/>
<path d="M80.1843 84.1622L79.9196 79.4628C79.8879 78.8869 80.3183 78.3935 80.8829 78.3604C81.4475 78.3273 81.9309 78.7671 81.9627 79.343L82.2273 84.0424C82.2626 84.6182 81.8286 85.1117 81.264 85.1448C80.6995 85.1775 80.216 84.7377 80.1843 84.1622Z" fill="#FCBF49"/>
<path d="M28.5358 75.2862L28.2712 70.5865C28.2394 70.011 28.6699 69.5175 29.2345 69.4844C29.799 69.4513 30.2825 69.8911 30.3178 70.467L30.5824 75.1664C30.6142 75.7422 30.1837 76.2357 29.6191 76.2688C29.0545 76.3019 28.5711 75.8617 28.5358 75.2862Z" fill="#FCBF49"/>
<path d="M38.9147 46.8685L38.6501 42.1687C38.6183 41.5932 39.0488 41.0998 39.6134 41.0667C40.178 41.0336 40.6614 41.4734 40.6931 42.0493L40.9578 46.7487C40.9931 47.3245 40.5591 47.818 39.998 47.8511C39.4335 47.8838 38.9465 47.444 38.9147 46.8685Z" fill="#FCBF49"/>
<path d="M103.087 73.9945L102.822 69.2951C102.787 68.7192 103.221 68.2258 103.786 68.1927C104.347 68.1596 104.834 68.5994 104.865 69.1752L105.13 73.8746C105.162 74.4505 104.731 74.9439 104.167 74.977C103.602 75.0102 103.119 74.57 103.087 73.9945Z" fill="white"/>
<path d="M70.7857 103.05L66.2691 102.085C65.7151 101.967 65.3587 101.412 65.4752 100.85C65.5916 100.285 66.135 99.9238 66.689 100.042L71.2056 101.007C71.756 101.125 72.1124 101.679 71.996 102.244C71.8795 102.809 71.3362 103.169 70.7857 103.05Z" fill="#FCBF49"/>
<path d="M42.8494 27.5662L38.4528 26.1413C37.9129 25.9667 37.6165 25.3797 37.7859 24.8302C37.9588 24.2806 38.5339 23.9768 39.0738 24.1513L43.4705 25.5763C44.0103 25.7508 44.3067 26.3378 44.1373 26.8874C43.9644 27.437 43.3893 27.7408 42.8494 27.5662Z" fill="white"/>
<path d="M39.9862 102.532L35.5896 101.107C35.0497 100.933 34.7532 100.346 34.9226 99.7962C35.0955 99.2469 35.6707 98.9428 36.2071 99.1174L40.6072 100.542C41.1471 100.717 41.4434 101.305 41.2741 101.852C41.1012 102.402 40.526 102.708 39.9862 102.532Z" fill="#FCBF49"/>
<path d="M73.076 33.7263L70.5425 29.792C70.232 29.3101 70.366 28.6626 70.8388 28.3463C71.3081 28.0295 71.9433 28.1634 72.2538 28.6454L74.7874 32.5799C75.0979 33.0619 74.9673 33.709 74.4945 34.0257C74.0216 34.3424 73.3865 34.2082 73.076 33.7263Z" fill="#FCBF49"/>
<path d="M91.327 37.6109L88.7936 33.6767C88.483 33.1948 88.6135 32.5476 89.0864 32.2309C89.5592 31.9142 90.1943 32.0485 90.5049 32.5304L93.0384 36.4646C93.349 36.9465 93.2184 37.594 92.7455 37.9104C92.2727 38.2271 91.6376 38.0932 91.327 37.6109Z" fill="white"/>
<path d="M103.517 43.2912L100.984 39.357C100.673 38.8751 100.807 38.2276 101.28 37.9112C101.75 37.5945 102.385 37.7284 102.695 38.2103L105.229 42.1449C105.539 42.6268 105.409 43.2739 104.936 43.5907C104.463 43.907 103.828 43.7731 103.517 43.2912Z" fill="white"/>
<path d="M64.1632 33.665L60.4194 36.4151C59.9606 36.752 59.3185 36.6458 58.9904 36.1779C58.6587 35.71 58.7645 35.0575 59.2232 34.7206L62.9671 31.9701C63.4258 31.6333 64.0644 31.7398 64.3961 32.2077C64.7278 32.6756 64.6219 33.3281 64.1632 33.665Z" fill="#FCBF49"/>
<path d="M104.431 60.4079L100.684 63.158C100.225 63.4949 99.5861 63.3887 99.2544 62.9208C98.9263 62.4529 99.0286 61.8004 99.4874 61.4635L103.235 58.7131C103.693 58.3762 104.332 58.4827 104.664 58.9506C104.992 59.4185 104.89 60.071 104.431 60.4079Z" fill="#FCBF49"/>
<path d="M66.8761 93.1162L63.1288 95.8666C62.6701 96.2035 62.0314 96.0973 61.6998 95.6291C61.3716 95.1612 61.4739 94.5087 61.9326 94.1718L65.68 91.4217C66.1387 91.0848 66.7774 91.191 67.1091 91.6589C67.4372 92.1271 67.3349 92.7793 66.8761 93.1162Z" fill="#52151E"/>
<path d="M93.3879 98.5537L89.6405 101.304C89.1818 101.639 88.5431 101.535 88.2114 101.067C87.8833 100.599 87.9857 99.9462 88.4444 99.6093L92.1917 96.8592C92.6504 96.5223 93.2891 96.6285 93.6172 97.0964C93.9489 97.5643 93.8466 98.2168 93.3879 98.5537Z" fill="#FCBF49"/>
<path d="M51.0094 99.7032L47.0115 97.3494C46.521 97.0611 46.3552 96.4226 46.6375 95.9234C46.9198 95.4238 47.5443 95.2529 48.0348 95.5412L52.0327 97.895C52.5197 98.183 52.689 98.8218 52.4067 99.321C52.1244 99.8206 51.4963 99.9915 51.0094 99.7032Z" fill="#FCBF49"/>
<path d="M40.7673 79.7347L36.3707 78.3098C35.8309 78.1353 35.5345 77.5483 35.7039 76.9987C35.8768 76.4491 36.4519 76.145 36.9882 76.3195L41.3884 77.7448C41.9282 77.9193 42.2247 78.5064 42.0518 79.0559C41.8824 79.6052 41.3072 79.9093 40.7673 79.7347Z" fill="#FCBF49"/>
<path d="M37.1613 32.1341L33.414 34.8842C32.9553 35.2211 32.3166 35.1149 31.9849 34.647C31.6568 34.1791 31.7591 33.5266 32.2178 33.1897L35.9652 30.4393C36.4239 30.1024 37.0625 30.2086 37.3906 30.6764C37.7223 31.1443 37.62 31.7972 37.1613 32.1341Z" fill="#FCBF49"/>
<path d="M73.5747 91.3771L70.3108 88.0486C69.912 87.6408 69.912 86.9796 70.3108 86.5722C70.713 86.1644 71.3588 86.1644 71.761 86.5722L75.0214 89.9007C75.4237 90.3085 75.4237 90.9696 75.0214 91.3771C74.6227 91.7849 73.9734 91.7849 73.5747 91.3771Z" fill="white"/>
<path d="M21.3137 66.5656L17.5663 69.3161C17.1076 69.653 16.4689 69.5468 16.1372 69.0789C15.8091 68.6107 15.9114 67.9585 16.3701 67.6213L20.1175 64.8712C20.5762 64.5343 21.2148 64.6404 21.5465 65.1083C21.8747 65.5766 21.7724 66.2291 21.3137 66.5656Z" fill="#52151E"/>
<path d="M35.2277 63.8342L31.4803 66.5846C31.0216 66.9215 30.383 66.8154 30.0513 66.3471C29.7232 65.8792 29.8255 65.2267 30.2842 64.8898L34.0316 62.1397C34.4903 61.8028 35.1289 61.909 35.4606 62.3769C35.7887 62.8448 35.6864 63.4973 35.2277 63.8342Z" fill="white"/>
</g>
<defs>
<clipPath id="clip0_627_9361">
<rect width="121.03" height="123.451" fill="white"/>
</clipPath>
</defs>
</svg>
