<svg width="18" height="18" viewBox="0 0 18 18" fill="none" xmlns="http://www.w3.org/2000/svg">
<g clip-path="url(#clip0_979_9626)">
<path d="M1.34481 7.47485H4.36789V15.5237H1.34481C1.17566 15.5237 1.01344 15.4564 0.893831 15.3369C0.774225 15.2172 0.707031 15.055 0.707031 14.8858V8.11263C0.707031 7.94348 0.774225 7.78126 0.893831 7.66165C1.01344 7.54204 1.17566 7.47485 1.34481 7.47485Z" fill="#FFD800"/>
<path d="M4.36719 7.47481L7.6071 2.29604C7.73266 2.09136 7.9091 1.92267 8.11922 1.80643C8.32935 1.69019 8.56599 1.63035 8.80613 1.63276C8.99524 1.62593 9.18381 1.65708 9.36067 1.72438C9.53754 1.79167 9.69912 1.89373 9.83588 2.02454C9.97263 2.15534 10.0818 2.31223 10.1568 2.48594C10.2319 2.65964 10.2714 2.84664 10.273 3.03587V6.74774H15.8728C16.0796 6.75445 16.2828 6.80488 16.4688 6.89571C16.6549 6.98656 16.8196 7.11574 16.952 7.27478C17.0846 7.43382 17.182 7.61911 17.2378 7.81847C17.2936 8.01783 17.3065 8.22675 17.2759 8.43147L16.2554 15.0133C16.2118 15.3651 16.0413 15.6888 15.776 15.9237C15.5105 16.1586 15.1685 16.2885 14.814 16.2889H6.44634C6.04801 16.2904 5.65484 16.1988 5.29834 16.0211L4.37994 15.5618" fill="#FFD800"/>
<path d="M4.36719 7.47485V15.5237" stroke="#EF0405" stroke-linecap="round" stroke-linejoin="round"/>
</g>
<defs>
<clipPath id="clip0_979_9626">
<rect width="18" height="18" fill="white"/>
</clipPath>
</defs>
</svg>
