<svg width="120" height="41" viewBox="0 0 120 41" fill="none" xmlns="http://www.w3.org/2000/svg">
<path d="M100.961 33.0947C101.896 33.0947 102.654 33.8522 102.654 34.7871C102.654 35.3092 102.417 35.7763 102.046 36.0869C101.533 36.6761 100.708 37.5644 99.9941 38.3252C99.5783 38.7681 99.1908 39.178 98.9072 39.4765C98.7655 39.6257 98.6489 39.7476 98.5684 39.832C98.5282 39.8741 98.4969 39.9073 98.4756 39.9297C98.465 39.9408 98.4567 39.9493 98.4512 39.955C98.4485 39.9578 98.4467 39.9604 98.4453 39.9619L98.4434 39.9629L98.4424 39.9638L97.5234 40.9248L96.6045 39.9629L96.5957 39.9541C96.59 39.9481 96.5812 39.9382 96.5703 39.9267C96.5482 39.9036 96.5158 39.8694 96.4746 39.8261C96.3914 39.7387 96.2708 39.6125 96.125 39.459C95.8334 39.1518 95.4369 38.7321 95.0166 38.2851C94.1894 37.4054 93.23 36.3744 92.8301 35.8984L92.8174 35.8838L92.8066 35.8691C92.6868 35.7177 92.5126 35.4525 92.4609 35.0918C92.4433 34.9938 92.4336 34.893 92.4336 34.79C92.4336 33.8549 93.1919 33.0966 94.127 33.0966C94.4787 33.0967 94.8055 33.204 95.0762 33.3877C95.1567 33.4251 95.2412 33.4797 95.3301 33.5586L97.5234 35.5595L99.7939 33.5586C99.8022 33.5513 99.8103 33.545 99.8174 33.539C100.119 33.2629 100.52 33.0947 100.961 33.0947Z" fill="#FFD800"/>
<path fill-rule="evenodd" clip-rule="evenodd" d="M97.4766 4.65329C105.023 4.65329 111.141 10.7718 111.141 18.3183C111.14 25.8647 105.023 31.9824 97.4766 31.9824C89.9302 31.9823 83.8128 25.8646 83.8125 18.3183C83.8125 10.7718 89.9301 4.6534 97.4766 4.65329ZM97.4766 9.98239C92.8733 9.9825 89.1416 13.715 89.1416 18.3183C89.1419 22.9215 92.8734 26.6532 97.4766 26.6533C102.08 26.6533 105.811 22.9215 105.812 18.3183C105.812 13.7149 102.08 9.98239 97.4766 9.98239Z" fill="#FFD800"/>
<path d="M61.8047 6.76755C64.494 5.06765 67.6921 4.35999 70.8477 4.76559C73.1161 5.05718 75.2606 5.91058 77.0938 7.23141C78.2877 8.09165 78.2188 9.80394 77.1436 10.8086C76.0682 11.8132 74.3913 11.707 73.0996 11.0019C72.1968 10.5091 71.2034 10.1838 70.168 10.0508C68.2432 9.80343 66.2927 10.2356 64.6523 11.2724C63.0119 12.3094 61.7839 13.8865 61.1816 15.7314C60.5795 17.5763 60.6399 19.5738 61.3525 21.3789C62.0652 23.184 63.3858 24.6841 65.0859 25.6201C66.786 26.556 68.7597 26.8691 70.666 26.5058C72.5724 26.1425 74.2925 25.1255 75.5293 23.6299C75.7568 23.3548 75.9635 23.0656 76.1523 22.7666H72.9199C71.6914 22.7666 70.6953 21.7705 70.6953 20.542C70.6954 19.3135 71.6915 18.3174 72.9199 18.3174H79.8506C79.8777 18.3174 79.9047 18.3184 79.9316 18.3193C79.9891 18.3155 80.047 18.3115 80.1055 18.3115C81.577 18.3107 82.797 19.5141 82.5127 20.958C82.0761 23.1748 81.0932 25.2629 79.6357 27.0254C77.6082 29.4772 74.7884 31.1447 71.6631 31.7402C68.5378 32.3357 65.3027 31.8224 62.5156 30.2881C59.7286 28.7537 57.5638 26.2951 56.3955 23.3359C55.2272 20.3766 55.1289 17.1016 56.1162 14.0771C57.1036 11.0527 59.1154 8.46748 61.8047 6.76755Z" fill="#FFD800"/>
<path fill-rule="evenodd" clip-rule="evenodd" d="M50.0303 13.5508C51.4341 13.5508 52.572 14.6889 52.5723 16.0927V18.957C52.5898 19.2188 52.5996 19.4884 52.5996 19.7656V28.4463C52.5995 29.3456 51.871 30.0749 50.9717 30.0752C50.4771 30.0752 50.0093 29.8499 49.7002 29.4638L48.7754 28.3105C47.3707 29.4144 45.6009 30.0752 43.6758 30.0752C39.113 30.075 35.4143 26.3762 35.4141 21.8134C35.4141 17.2505 39.1129 13.551 43.6758 13.5508C45.2187 13.5508 46.6627 13.9747 47.8984 14.7109C48.3516 14.0133 49.1364 13.5508 50.0303 13.5508ZM43.6758 18.039C41.5915 18.0392 39.9023 19.7291 39.9023 21.8134C39.9025 23.8976 41.5916 25.5867 43.6758 25.5869C45.7601 25.5869 47.45 23.8977 47.4502 21.8134C47.4502 19.729 45.7602 18.039 43.6758 18.039Z" fill="white"/>
<path d="M5.41113 6.33981C6.15214 6.33981 6.81841 6.54464 7.2998 7.04684C7.80097 7.54832 8.00681 8.23236 8.00684 8.99606V27.0293C8.00673 27.7713 7.813 28.4373 7.35645 28.9511L7.35059 28.958L7.34375 28.9648C6.85778 29.4809 6.17226 29.6845 5.41113 29.6845C4.66112 29.6844 3.99 29.4762 3.49219 28.9785L3.47949 28.9658L3.4668 28.9511C3.01019 28.4373 2.81651 27.7713 2.81641 27.0293V8.99606C2.81643 8.24202 3.00648 7.56321 3.47949 7.06052L3.48535 7.05368L3.49219 7.04684C3.99002 6.54901 4.66104 6.3399 5.41113 6.33981Z" fill="white"/>
<path d="M22.3799 12.9834C23.1009 12.9834 23.7475 13.1884 24.2236 13.6767L24.3164 13.7695C24.7614 14.2435 24.9443 14.878 24.9443 15.5791V19.0146H25.7959L29.4316 14.1279C29.7721 13.6667 30.1989 13.3235 30.7207 13.1699L30.8994 13.1162C31.3178 13.0075 31.7408 13.0071 32.1523 13.1357C32.5911 13.2729 32.9599 13.524 33.2432 13.8828C33.2454 13.8854 33.2478 13.8889 33.25 13.8916C33.2537 13.8963 33.259 13.9005 33.2627 13.9052C33.5773 14.2876 33.7314 14.7437 33.7314 15.2422C33.7313 15.7682 33.5133 16.2653 33.1777 16.7207L33.1768 16.7226L30.5 20.3281C30.8288 20.5669 31.1371 20.8531 31.4238 21.1836L31.582 21.3662C31.9508 21.8033 32.3026 22.3234 32.6387 22.9209L34.4434 26.1318C34.7414 26.6535 34.8811 27.2139 34.7559 27.7783C34.663 28.2685 34.4114 28.6841 34.0293 29.0117L34.0264 29.0146C33.6758 29.3112 33.2623 29.4953 32.8037 29.5771L32.8047 29.5781C32.7977 29.5796 32.7902 29.5805 32.7832 29.582C32.7794 29.5827 32.7753 29.5833 32.7715 29.584C32.279 29.686 31.7895 29.627 31.3223 29.4228C31.317 29.4207 31.3118 29.4182 31.3066 29.416C30.8013 29.2027 30.4147 28.8006 30.125 28.2939L28.0742 24.7119L28.0723 24.709C27.8252 24.2718 27.5976 23.9749 27.3984 23.791L27.3799 23.7744L27.3623 23.7549C27.1887 23.5669 26.9964 23.4468 26.7822 23.3799L26.7764 23.3789L26.7715 23.3759C26.5501 23.3022 26.2449 23.2559 25.8398 23.2558H24.9443V27.0898C24.9443 27.8399 24.7351 28.5109 24.2373 29.0088C23.7567 29.4893 23.1037 29.6845 22.3799 29.6845C21.656 29.6845 21.0021 29.4893 20.5215 29.0088L20.5146 29.0019L20.5088 28.9951C20.0391 28.4959 19.8458 27.8298 19.8457 27.0898V23.2558H18.9512C18.5497 23.2558 18.2294 23.3017 17.9805 23.3789C17.7847 23.4456 17.5839 23.5695 17.3799 23.7734C17.1916 23.9617 16.9686 24.2652 16.7178 24.709L16.7158 24.7119L14.665 28.2929C14.3717 28.8061 13.9729 29.2051 13.4521 29.416C12.9802 29.6255 12.4863 29.6873 11.9883 29.584C11.9844 29.5833 11.9805 29.5827 11.9766 29.582C11.9696 29.5805 11.962 29.5796 11.9551 29.5781C11.4987 29.4967 11.0835 29.3142 10.7207 29.0293L10.7002 29.0136L10.6816 28.9961C10.3247 28.6664 10.0847 28.2589 9.97363 27.7871L9.96875 27.7666L9.96582 27.7461C9.87369 27.1933 10.0227 26.6458 10.3164 26.1318L12.1514 22.9209L12.2949 22.6718C12.6308 22.1003 12.9738 21.6063 13.3252 21.1963L13.3262 21.1943C13.6223 20.8515 13.9368 20.555 14.2695 20.3095L11.6143 16.7549L11.6113 16.7519C11.2758 16.2965 11.0597 15.7985 11.0596 15.2724C11.0596 14.7796 11.1993 14.3228 11.4971 13.9355L11.5059 13.9238L11.5156 13.9131C11.8167 13.5572 12.1951 13.3046 12.6387 13.166C13.0921 13.0244 13.5574 13.0277 14.0176 13.1631C14.5487 13.3132 14.9812 13.6593 15.3262 14.1259L18.9932 19.0146H19.8457V15.5791C19.8457 14.8418 20.0375 14.1747 20.5215 13.6904C20.9989 13.192 21.6519 12.9834 22.3799 12.9834Z" fill="white"/>
<path d="M116.429 9.91891C117.011 9.80182 117.551 10.2574 117.533 10.8515L117.481 12.584C117.463 13.1943 116.868 13.6192 116.285 13.4384L112.918 12.3935C112.004 12.1098 112.072 10.7952 113.01 10.6064L116.429 9.91891Z" fill="#FFD800"/>
<path d="M52.2627 6.77731C52.573 6.26785 53.3243 6.16933 53.7754 6.57907L54.8965 7.59665C55.6026 8.23805 54.9163 9.32537 53.9609 9.07907L52.4561 8.69138C51.8574 8.53688 51.5745 7.90702 51.8789 7.4072L52.2627 6.77731Z" fill="#FFD800"/>
<path d="M115.49 0.373016C115.855 -0.117206 116.586 -0.125774 116.961 0.356414L119.373 3.45993C119.738 3.92919 119.571 4.61593 119.031 4.8652L111.85 8.17966C110.981 8.58058 110.151 7.55798 110.722 6.79001L115.49 0.373016Z" fill="#FFD800"/>
<path d="M56.5498 0.773407C57.1164 0.5684 57.7258 0.951926 57.7852 1.55173L58.2539 6.29782C58.3461 7.23228 57.1471 7.6899 56.5908 6.93259L53.7393 3.0488C53.3744 2.55177 53.5888 1.84429 54.168 1.63473L56.5498 0.773407Z" fill="#FFD800"/>
<path d="M108.083 0.779266L109.796 1.04684C110.399 1.14126 110.746 1.78565 110.494 2.34177L109.037 5.55173C108.642 6.42253 107.346 6.19133 107.275 5.23727L107.02 1.75973C106.976 1.16703 107.496 0.687799 108.083 0.779266Z" fill="#FFD800"/>
<path d="M2.5332 0.338836C3.25723 0.338836 3.9109 0.534895 4.3916 1.01559C4.86816 1.49238 5.06738 2.13219 5.06738 2.84274C5.06726 3.5664 4.872 4.21963 4.3916 4.70016C3.91093 5.18065 3.25708 5.37595 2.5332 5.37595C1.82083 5.37585 1.18106 5.17642 0.689453 4.71384L0.675781 4.70016C0.195323 4.21962 0.000118104 3.56644 0 2.84274C5.49015e-06 2.13221 0.19925 1.49238 0.675781 1.01559L0.689453 1.00192C1.18107 0.539261 1.82077 0.338936 2.5332 0.338836Z" fill="white"/>
<path d="M8.32031 0.338836C9.03078 0.338926 9.67075 0.538991 10.1475 1.01559C10.6239 1.49236 10.8232 2.13229 10.8232 2.84274C10.8231 3.55933 10.6313 4.20635 10.1611 4.68552L10.0723 4.77536C9.61426 5.2055 8.9961 5.37586 8.32031 5.37595C7.59649 5.37589 6.94253 5.18068 6.46191 4.70016C5.98154 4.21963 5.78625 3.56638 5.78613 2.84274C5.78614 2.13228 5.98548 1.49236 6.46191 1.01559C6.94255 0.534963 7.59641 0.338891 8.32031 0.338836Z" fill="white"/>
</svg>
