<svg width="211" height="185" viewBox="0 0 211 185" fill="none" xmlns="http://www.w3.org/2000/svg">
<g clip-path="url(#clip0_685_20543)">
<path d="M65.7081 132.375L59.4016 121.485C58.6973 120.272 57.2232 120.682 57.2591 122.083L57.5592 134.731C57.574 135.355 57.2568 135.872 56.7697 136.012L41.9177 140.275C41.4306 140.415 40.8844 140.146 40.568 139.604L12.0791 91.2131C11.5795 90.367 11.8522 89.2777 12.6176 89.058L28.8137 84.4085C29.304 84.2678 29.8525 84.5448 30.1689 85.0865L37.2684 97.3317C37.9695 98.5458 39.4404 98.1365 39.4121 96.7378L39.0989 82.5057C39.0842 81.8818 39.4025 81.3688 39.8895 81.229L53.2045 77.4067C53.6979 77.265 54.2464 77.5421 54.5608 78.0886L61.6461 90.368C62.3516 91.5852 63.8288 91.174 63.7918 89.7692L63.4244 75.5268C63.4097 74.903 63.7268 74.386 64.2139 74.2462L79.6131 69.8255C80.3753 69.6067 81.1874 70.3846 81.2126 71.3669L82.73 127.501C82.749 128.128 82.4287 128.646 81.9417 128.786L67.0643 133.056C66.571 133.198 66.0224 132.921 65.7081 132.375Z" fill="#252525"/>
<path d="M77.3475 76.8837L78.6219 123.92C78.6309 124.308 78.4328 124.632 78.1292 124.719L68.1762 127.576C67.8694 127.664 67.5287 127.491 67.332 127.152L54.1675 104.417C53.728 103.661 52.8117 103.915 52.8326 104.787L53.4607 131.147C53.4685 131.532 53.2704 131.855 52.9668 131.943L43.0074 134.802C42.7038 134.889 42.3642 134.72 42.1655 134.385L18.2935 93.8363C17.986 93.3137 18.1567 92.6323 18.6311 92.4961L27.7176 89.8876C28.0244 89.7996 28.3651 89.9728 28.5618 90.3121L42.4859 114.322C42.9222 115.079 43.8385 114.825 43.8208 113.952L43.208 86.0947C43.199 85.7058 43.3982 85.3862 43.6987 85.2999L52.1052 82.8867C52.4088 82.7995 52.7527 82.9718 52.9493 83.3111L66.9354 107.549C67.3728 108.309 68.2923 108.054 68.2703 107.178L67.5461 79.1123C67.5372 78.7233 67.7352 78.3997 68.0389 78.3126L76.3536 75.9257C76.828 75.7895 77.3342 76.2766 77.3475 76.8837Z" fill="#FFD800"/>
<path d="M113.506 120.713C99.8589 124.631 86.0554 115.351 81.3989 99.1305C76.7425 82.9099 83.5219 67.7216 97.169 63.8039C110.813 59.8872 124.616 69.1668 129.273 85.3873C133.929 101.608 127.15 116.796 113.506 120.713Z" fill="#252525"/>
<path d="M115.122 89.449C112.862 81.5752 107.089 77.6698 101.601 79.245C96.111 80.8212 93.2882 87.1943 95.5485 95.0681C97.8088 102.942 103.582 106.847 109.073 105.271C114.56 103.696 117.383 97.3228 115.122 89.449ZM85.1938 98.0406C81.271 84.3757 86.937 71.9034 98.5378 68.5731C110.135 65.2438 121.554 72.8116 125.477 86.4764C129.4 100.141 123.734 112.614 112.136 115.943C100.536 119.273 89.1166 111.705 85.1938 98.0406Z" fill="#FFD800"/>
<path d="M168.328 102.918L162.025 92.0273C161.32 90.814 159.846 91.2243 159.879 92.626L160.179 105.274C160.194 105.898 159.877 106.415 159.393 106.554L144.537 110.819C144.05 110.958 143.507 110.689 143.188 110.148L114.699 61.7564C114.202 60.9094 114.475 59.8201 115.237 59.6013L131.434 54.9519C131.924 54.8111 132.472 55.0882 132.789 55.6298L139.888 67.875C140.592 69.0883 142.063 68.6789 142.032 67.2812L141.722 53.0481C141.707 52.4242 142.025 51.9112 142.509 51.7723L155.827 47.9491C156.318 47.8084 156.866 48.0854 157.184 48.631L164.269 60.9104C164.971 62.1286 166.449 61.7174 166.415 60.3116L166.047 46.0693C166.029 45.4463 166.35 44.9284 166.834 44.7895L182.236 40.368C182.998 40.1492 183.807 40.9279 183.836 41.9093L185.353 98.0434C185.369 98.6713 185.052 99.1882 184.565 99.328L169.684 103.6C169.194 103.741 168.645 103.464 168.328 102.918Z" fill="#252525"/>
<path d="M179.965 47.4246L181.236 94.4614C181.248 94.8494 181.05 95.173 180.747 95.2601L170.79 98.1183C170.484 98.2063 170.143 98.0331 169.946 97.6938L156.782 74.9584C156.345 74.2017 155.426 74.4571 155.447 75.3288L156.075 101.689C156.083 102.074 155.885 102.397 155.584 102.484L145.622 105.344C145.318 105.431 144.978 105.261 144.783 104.926L120.911 64.3773C120.603 63.8547 120.771 63.1741 121.245 63.0379L130.335 60.4286C130.639 60.3414 130.982 60.5137 131.179 60.8531L145.1 84.8642C145.54 85.6199 146.456 85.3655 146.435 84.4938L145.825 56.6357C145.816 56.2468 146.013 55.928 146.316 55.8409L154.719 53.4285C155.026 53.3404 155.367 53.5137 155.564 53.853L169.55 78.0906C169.99 78.8504 170.91 78.5951 170.888 77.7194L170.163 49.6532C170.151 49.2652 170.349 48.9416 170.653 48.8544L178.968 46.4675C179.445 46.3304 179.948 46.8185 179.965 47.4246Z" fill="#FFD800"/>
</g>
<defs>
<clipPath id="clip0_685_20543">
<rect width="179" height="140.849" fill="white" transform="translate(0 49.3908) rotate(-16.0172)"/>
</clipPath>
</defs>
</svg>
