<svg width="212" height="185" viewBox="0 0 212 185" fill="none" xmlns="http://www.w3.org/2000/svg">
<g clip-path="url(#clip0_706_24842)">
<path d="M173.6 42.3399C160.036 28.2883 132.474 31.9019 106.278 49.2544C93.2583 20.6569 71.7992 2.98673 52.8504 7.71554C29.3028 13.5919 18.5521 51.8295 28.8383 93.1219C35.9436 121.644 51.228 144.161 67.763 153.424C70.0916 154.866 72.6633 155.966 75.4404 156.73L75.4768 156.741C78.2366 157.565 81.0009 157.994 83.7396 158.005C102.671 158.912 127.565 147.916 148.705 127.493C179.31 97.9261 190.456 59.8018 173.6 42.3399Z" fill="#EF0405"/>
<path d="M39.1765 36.9008L39.0549 36.8192C37.8582 36.0199 37.4006 34.4754 37.9797 33.1572C40.3712 27.7136 43.7729 22.683 48.0371 18.3222C49.0384 17.2982 50.6295 17.1373 51.8182 17.9351C53.3348 18.9534 53.5789 21.0832 52.3391 22.4258C48.6852 26.3822 45.7177 30.8475 43.5383 35.6443C42.7772 37.3194 40.7058 37.9224 39.1765 36.9008Z" fill="white"/>
<path d="M39.6819 44.684C39.096 46.1762 37.4122 46.9114 35.9205 46.3256C34.429 45.7399 33.695 44.0553 34.2805 42.5631C34.8664 41.0709 36.5505 40.3358 38.0419 40.9215C39.5333 41.5072 40.2677 43.1918 39.6819 44.684Z" fill="white"/>
<path d="M88.2281 77.1308C83.8684 92.335 73.5859 102.725 65.2616 100.338C56.9369 97.9511 53.7229 83.6909 58.0826 68.4867C62.4424 53.2823 72.7248 42.8921 81.0495 45.2791C89.3739 47.6661 92.5879 61.9264 88.2281 77.1308Z" fill="white"/>
<path d="M89.2443 72.9386C91.6704 60.7697 89.2207 49.9001 83.227 46.2396C77.6465 46.4232 71.4312 53.4515 68.6205 63.2539C65.4687 74.2453 67.7922 84.5547 73.81 86.2803C79.1767 87.8192 85.6669 82.0087 89.2443 72.9386Z" fill="#231F20"/>
<path d="M72.275 54.7699L78.6115 66.2845L74.3307 51.8121C73.6109 52.7089 72.9226 53.699 72.275 54.7699Z" fill="white"/>
<path d="M137.04 91.1268C132.681 106.331 122.398 116.721 114.074 114.334C105.749 111.947 102.535 97.687 106.895 82.4828C111.255 67.2784 121.537 56.8881 129.862 59.2751C138.186 61.6621 141.4 75.9224 137.04 91.1268Z" fill="white"/>
<path d="M138.061 86.9347C140.487 74.7659 138.037 63.8962 132.043 60.2357C126.463 60.4194 120.248 67.4476 117.437 77.2499C114.285 88.2414 116.609 98.5508 122.627 100.276C127.993 101.815 134.483 96.0048 138.061 86.9347Z" fill="#231F20"/>
<path d="M121.087 68.768L127.424 80.2825L123.143 65.8101C122.423 66.7069 121.735 67.6969 121.087 68.768Z" fill="white"/>
<path d="M69.1769 38.6441C68.7802 38.5303 68.4405 38.2362 68.2846 37.8199C68.0225 37.1217 68.3763 36.3434 69.0743 36.081C69.2473 36.0161 73.3748 34.4911 78.6815 34.6381C85.8112 34.8362 91.6361 37.9749 95.5252 43.7159C95.9436 44.3332 95.7821 45.173 95.165 45.5917C94.5477 46.0096 93.7082 45.8486 93.2904 45.2315C85.0902 33.1284 70.1722 38.5533 70.0222 38.6097C69.7406 38.7154 69.4458 38.7212 69.1769 38.6441Z" fill="#231F20"/>
<path d="M82.7048 130.137C75.8943 128.184 70.0929 124.497 65.6529 119.246C65.1713 118.677 65.2422 117.824 65.8114 117.343C66.381 116.861 67.2324 116.932 67.7139 117.501C73.467 124.305 81.3716 128.146 91.2065 128.918C98.6307 129.501 104.424 128.019 104.482 128.004C105.203 127.815 105.94 128.247 106.128 128.968C106.317 129.689 105.886 130.427 105.165 130.616C104.915 130.682 98.9452 132.219 91.0868 131.618C88.1546 131.393 85.353 130.896 82.7048 130.137Z" fill="#231F20"/>
<path d="M117.833 52.5952C117.436 52.4815 117.097 52.1874 116.941 51.7711C116.679 51.0729 117.033 50.2945 117.731 50.0321C117.904 49.9673 122.031 48.4423 127.338 48.5893C134.468 48.7875 140.292 51.926 144.181 57.667C144.6 58.2843 144.438 59.1241 143.821 59.5428C143.204 59.9608 142.364 59.7997 141.947 59.1827C133.746 47.0796 118.828 52.5045 118.678 52.5609C118.397 52.6666 118.102 52.6723 117.833 52.5952Z" fill="#231F20"/>
<path d="M50.7642 99.0502C49.5505 103.283 45.1366 105.731 40.9058 104.518C36.675 103.305 34.2291 98.8897 35.4428 94.6569C36.6567 90.4237 41.0706 87.9757 45.3014 89.1889C49.5321 90.402 51.9781 94.8171 50.7642 99.0502Z" fill="#F9696A"/>
<path d="M141.588 125.093C140.375 129.326 135.961 131.774 131.73 130.561C127.499 129.348 125.053 124.933 126.267 120.7C127.481 116.467 131.895 114.019 136.126 115.232C140.356 116.445 142.802 120.86 141.588 125.093Z" fill="#F9696A"/>
<path d="M61.9995 124.211C61.9489 124.197 61.8988 124.179 61.849 124.158C61.1613 123.87 60.8374 123.079 61.1252 122.391C64.6292 114.017 73.2477 113.299 73.613 113.273C74.3559 113.218 75.0029 113.778 75.0563 114.522C75.1098 115.265 74.5526 115.91 73.8109 115.966C73.5068 115.99 66.4656 116.622 63.6153 123.434C63.3485 124.072 62.6483 124.397 61.9995 124.211Z" fill="#231F20"/>
<path d="M178.258 100.149C167.955 100.383 164.882 102.088 159.223 110.706C158.991 100.398 157.288 97.3249 148.675 91.666C158.978 91.4315 162.051 89.7273 167.71 81.1086C167.942 91.4165 169.644 94.49 178.258 100.149Z" fill="white"/>
<path d="M203.54 75.7677C196.877 75.9192 194.89 77.0216 191.23 82.5953C191.08 75.9292 189.979 73.9412 184.408 70.2816C191.072 70.1297 193.059 69.0277 196.718 63.454C196.869 70.1202 197.97 72.1077 203.54 75.7677Z" fill="white"/>
</g>
<defs>
<clipPath id="clip0_706_24842">
<rect width="179.52" height="140.782" fill="white" transform="translate(38.8047) rotate(16)"/>
</clipPath>
</defs>
</svg>
