<svg width="188" height="155" viewBox="0 0 188 155" fill="none" xmlns="http://www.w3.org/2000/svg">
<path d="M38.1691 34.5469L37.4792 43.7542L44.1313 42.9302L39.493 47.7691L47.2853 52.7219L38.0781 52.032L38.9022 58.6842L34.0631 54.0459L29.1105 61.8382L29.8002 52.6309L23.1482 53.4551L27.7863 48.616L19.994 43.6633L29.2013 44.3531L28.3773 37.7011L33.2163 42.3392L38.1691 34.5469Z" fill="#FEE440"/>
<path d="M173.972 92.0684L167.227 89.8297L169.466 83.0848L167.276 82.3579L165.037 89.1028L158.292 86.8641L157.566 89.0534L164.31 91.2921L162.072 98.0369L164.262 98.7637L166.5 92.019L173.245 94.2577L173.972 92.0684Z" fill="#FCBF49"/>
<path d="M139.787 78.0171L128.98 110.578C123.076 128.363 113.347 141.18 87.1518 132.832C86.5922 132.654 86.0569 132.404 85.5625 132.087L85.4446 132.012C82.0703 129.848 78.2028 128.574 74.203 128.309C73.6072 128.269 73.0191 128.148 72.4546 127.954C46.1183 118.865 46.3464 102.894 52.2496 85.1093L63.0572 52.5487C63.0572 52.5487 74.6942 -5.34564 108.705 30.3382C110.665 32.3951 113.521 33.3406 116.318 32.8418C128.454 30.6773 159.853 29.207 139.787 78.0171Z" fill="#EF0405"/>
<path d="M94.0161 117.76L75.9505 111.764C66.6831 108.688 61.6642 98.6817 64.7402 89.4145L77.5982 50.6765C80.6743 41.409 90.6804 36.3901 99.9478 39.4661L118.013 45.4625C127.281 48.5385 132.3 58.5447 129.224 67.8122L116.366 106.55C113.29 115.817 103.283 120.836 94.0161 117.76Z" fill="#231F20"/>
<path d="M118.013 45.4625L99.9478 39.4661C90.6804 36.3901 80.6743 41.409 77.5982 50.6765L74.4237 60.2404C83.3325 57.0096 105.457 52.4134 126.851 74.9607L129.224 67.8121C132.3 58.5447 127.281 48.5385 118.013 45.4625Z" fill="white"/>
<path d="M109.918 42.7748L108.043 42.1523L102.364 59.2603L104.24 59.8827L109.918 42.7748Z" fill="#231F20"/>
<path d="M115.355 65.2909C115.904 65.6469 116.455 66.0161 117.006 66.402L125.295 50.0979C124.826 49.6005 124.323 49.1314 123.795 48.6883L115.355 65.2909Z" fill="#231F20"/>
<path d="M88.5106 57.5497C89.1669 57.5288 89.8375 57.5238 90.5187 57.5324L93.7863 38.5708C93.1002 38.5938 92.4203 38.6608 91.7481 38.7625L88.5106 57.5497Z" fill="#231F20"/>
<path d="M75.9509 111.762L94.0165 117.759C103.284 120.835 113.29 115.815 116.366 106.548L117.054 104.477C114.95 99.2153 110.822 94.9825 105.282 93.1438C100.782 91.65 96.0832 91.9804 91.8876 93.7433C89.5789 89.8215 86.0106 86.7472 81.5102 85.2534C76.0392 83.4375 70.2752 84.3165 65.4785 87.1896L64.7406 89.4126C61.6646 98.6798 66.6835 108.686 75.9509 111.762Z" fill="#F47CC4"/>
<path d="M91.8873 93.7434C91.5541 93.1776 91.1919 92.6319 90.8074 92.1037C88.5919 93.4925 86.477 95.8798 85.6225 99.9848C85.5193 100.481 85.8077 100.968 86.2773 101.123C86.3132 101.135 86.3503 101.145 86.3885 101.153C86.9226 101.265 87.4457 100.921 87.557 100.387C88.2702 96.9608 89.99 94.9293 91.912 93.7335C91.904 93.7369 91.8956 93.7399 91.8873 93.7434Z" fill="#231F20"/>
<path d="M79.0593 29.7552C78.8841 29.6971 78.7154 29.6103 78.5593 29.4935C77.7832 28.9118 77.6255 27.8111 78.2071 27.0347C80.2635 24.2905 86.1831 19.965 93.8633 23.233C94.756 23.6128 95.1716 24.6444 94.7917 25.5367C94.4121 26.4295 93.3823 26.8473 92.4879 26.4653C89.5024 25.1956 86.6666 25.2627 84.061 26.6671C82.1203 27.7134 81.0286 29.1271 81.0182 29.141C80.5535 29.7615 79.7567 29.9867 79.0593 29.7552Z" fill="white"/>
<path d="M98.4413 29.2756C98.348 29.2446 98.2561 29.2056 98.1665 29.1578L96.7878 28.4228C95.9315 27.9668 95.6073 26.9029 96.0638 26.047C96.5201 25.1908 97.585 24.867 98.4396 25.323L99.8184 26.0578C100.675 26.514 100.999 27.5779 100.543 28.4339C100.134 29.2002 99.2385 29.5402 98.4413 29.2756Z" fill="white"/>
<path d="M66.9595 121.744C66.9479 121.74 66.9363 121.736 66.9249 121.732C56.9487 118.193 53.8324 108.892 53.7045 108.498C53.4055 107.576 53.9109 106.585 54.8337 106.286C55.755 105.987 56.7442 106.491 57.0446 107.411C57.0835 107.527 59.8144 115.482 68.0994 118.422C69.0134 118.746 69.4917 119.75 69.1674 120.664C68.847 121.567 67.864 122.044 66.9595 121.744Z" fill="white"/>
<path d="M143.765 42.7264C140.511 42.6658 139.519 43.1633 137.621 45.8084C137.681 42.5534 137.184 41.5616 134.539 39.664C137.794 39.7245 138.786 39.2269 140.683 36.582C140.623 39.8367 141.12 40.8286 143.765 42.7264Z" fill="white"/>
<path d="M153.912 60.9855C148.971 60.8935 147.465 61.6486 144.584 65.6639C144.676 60.723 143.921 59.2174 139.906 56.3367C144.847 56.4286 146.352 55.6735 149.233 51.6583C149.141 56.5991 149.896 58.1048 153.912 60.9855Z" fill="white"/>
</svg>
