<svg width="124" height="86" viewBox="0 0 124 86" fill="none" xmlns="http://www.w3.org/2000/svg">
<g clip-path="url(#clip0_634_41404)">
<path d="M94.2688 81.72L15.6976 64.2539C7.02997 62.3271 1.56621 53.7382 3.49258 45.0724L10.024 15.6908C11.9504 7.02502 20.5379 1.56182 29.2055 3.48861L107.777 20.9547C116.445 22.8815 121.908 31.4682 119.982 40.134L113.45 69.5156C111.524 78.1814 102.937 83.6468 94.2688 81.72Z" fill="#4147D5"/>
<path d="M7.87049 46.0755L14.4142 16.6385C15.7992 10.4081 21.9732 6.47932 28.2039 7.8644L106.833 25.3433C113.063 26.7282 116.992 32.9028 115.607 39.1332L109.063 68.5702C107.678 74.8005 101.504 78.7271 95.2735 77.3421L16.6448 59.8633C10.414 58.4782 6.48551 52.3058 7.87049 46.0755Z" fill="#009340"/>
<path d="M12.1532 47.4893L18.8928 17.1713C19.6857 13.6044 23.2198 11.3558 26.7855 12.1484L106.297 29.8236C109.862 30.616 112.111 34.1501 111.318 37.7171L104.578 68.035C103.785 71.6019 100.251 73.8506 96.6863 73.0581L17.1766 55.3834C13.6089 54.5903 11.3603 51.0562 12.1532 47.4893Z" fill="white"/>
<path d="M16.5799 48.2747L23.2355 18.3346C23.5135 17.084 24.752 16.2969 26.0015 16.5746L105.135 34.1658C106.386 34.4438 107.173 35.6812 106.895 36.9318L100.24 66.8719C99.9617 68.1225 98.7239 68.9119 97.4733 68.6339L18.3394 51.0428C17.0898 50.765 16.3019 49.5253 16.5799 48.2747Z" fill="#FFD800"/>
<path d="M39.8921 41.0356C38.8968 41.7323 37.8474 41.9451 36.6851 41.6868C35.5229 41.4284 34.6625 40.791 34.0561 39.7382C33.4261 38.6457 33.2633 37.4781 33.555 36.1659C33.8467 34.8537 34.4923 33.8594 35.5275 33.1284C36.5242 32.4255 37.5745 32.2086 38.7348 32.4665C39.895 32.7245 40.7524 33.3654 41.3574 34.4244C41.9876 35.5256 42.1511 36.6998 41.8594 38.012C41.5677 39.3242 40.9235 40.3123 39.8921 41.0356ZM47.0996 31.1517C45.4672 28.6554 43.1048 27.0485 40.0759 26.3751C37.0449 25.7014 34.2243 26.1561 31.6901 27.7262C29.1438 29.3022 27.5131 31.6356 26.8407 34.6605C26.1683 37.6853 26.6569 40.4897 28.2936 42.9956C29.926 45.4919 32.2884 47.0989 35.3193 47.7727C38.3482 48.446 41.1689 47.9912 43.7052 46.4216C46.2498 44.843 47.8805 42.5097 48.5524 39.4869C49.2249 36.4621 48.7359 33.6596 47.0996 31.1517Z" fill="#252525"/>
<path d="M68.5015 33.1317L62.7301 40.5785L60.6797 31.3929L53.094 29.7066L48.4707 50.5045L55.083 51.9744L56.7086 44.6619L58.2722 51.093L62.2807 51.9841L66.4563 46.8008L64.8249 54.14L71.4372 55.6099L76.0605 34.812L68.5015 33.1317Z" fill="#252525"/>
<path d="M88.9464 48.4107L88.0101 52.6225C87.3245 52.7114 86.5428 52.6605 85.6741 52.4674C84.6084 52.2305 83.7984 51.6474 83.1963 50.6818C82.5886 49.7127 82.4451 48.5645 82.7546 47.1723C83.0623 45.7882 83.698 44.8089 84.6986 44.1758C85.7033 43.5436 86.7812 43.3673 87.9948 43.6371C88.6314 43.7786 89.2032 44.0178 89.6946 44.3468C90.195 44.6843 90.738 45.2468 91.3054 46.0194L92.168 47.1896L96.8728 42.835L96.2027 41.9038C94.4674 39.4924 92.1013 37.9407 89.1731 37.2897C86.2201 36.6333 83.4334 37.0999 80.8872 38.676C78.3324 40.2609 76.6915 42.6114 76.0136 45.6608C75.3358 48.7103 75.812 51.512 77.4295 53.9878C79.0391 56.451 81.3837 58.0411 84.3962 58.7107C87.9631 59.5037 91.0692 58.9766 93.6322 57.1414L94.037 56.8521L95.5854 49.8866L88.9464 48.4107Z" fill="#252525"/>
</g>
<defs>
<clipPath id="clip0_634_41404">
<rect width="112.755" height="62.2675" fill="white" transform="translate(13.512) rotate(12.5329)"/>
</clipPath>
</defs>
</svg>
