<svg width="163" height="113" viewBox="0 0 163 113" fill="none" xmlns="http://www.w3.org/2000/svg">
<path d="M20.9661 51.5628C16.1574 54.7235 15.2069 56.4392 15.0789 62.1922C11.9181 57.3836 10.2024 56.4334 4.44936 56.3054C9.25802 53.1447 10.2084 51.429 10.3364 45.676C13.4971 50.4847 15.2131 51.4347 20.9661 51.5628Z" fill="#FFD800"/>
<path d="M157.92 54.7878L152.058 56.4711L150.375 50.6089L148.472 51.1554L150.155 57.0175L144.293 58.7008L144.839 60.6041L150.701 58.9209L152.385 64.783L154.288 64.2366L152.604 58.3744L158.466 56.6912L157.92 54.7878Z" fill="#FFD800"/>
<path d="M50.5907 104.014C48.3084 104.67 45.8326 104.114 43.9675 102.527C42.9551 101.665 42.2064 100.582 41.749 99.398C40.5893 99.1468 39.4823 98.6061 38.5335 97.7984C37.5217 96.9383 36.7725 95.8537 36.3151 94.6697C35.1559 94.4203 34.0489 93.8796 33.0999 93.0719C32.0875 92.21 31.3384 91.1254 30.881 89.9414C29.7218 89.692 28.6148 89.1513 27.6658 88.3437C26.6534 87.4817 25.9048 86.399 25.4469 85.2131C24.2879 84.9637 23.1809 84.4229 22.2319 83.6153C19.1807 81.0197 18.5856 76.484 20.8778 73.2911C28.2009 63.0923 37.1034 53.6711 47.3394 45.2921C55.485 38.6248 64.4899 32.5949 74.1049 27.3739C86.1049 20.8544 95.9825 17.2458 100.671 15.7095L100.86 14.9319C101.354 12.8983 102.911 11.277 104.922 10.6995C106.933 10.1219 109.113 10.6703 110.611 12.1319L118.261 19.5957L128.917 18.7863C131.004 18.6282 133.027 19.6075 134.198 21.3433C135.369 23.0772 135.52 25.3195 134.593 27.1951L129.859 36.7778L133.92 46.6619C134.551 48.198 134.5 49.93 133.78 51.4188C133.054 52.917 131.726 54.0395 130.134 54.4964L130.134 54.4965C129.335 54.7259 128.509 54.7809 127.677 54.6589L117.102 53.1181L108.955 60.0347C108.315 60.5792 107.586 60.971 106.787 61.2004C105.195 61.6574 103.473 61.4108 102.063 60.5258C101.922 60.437 101.786 60.3428 101.654 60.2434C87.5059 68.0717 68.7996 81.2156 54.3348 101.363C53.4852 102.546 52.3212 103.421 50.9681 103.894C50.8441 103.938 50.7181 103.978 50.5907 104.014Z" fill="white"/>
<path d="M27.9939 81.4271C26.9226 81.8013 25.672 81.59 24.6802 80.7456C23.1338 79.4293 22.8045 77.0754 23.9445 75.4876C31.0753 65.5558 39.7516 56.3779 49.7323 48.2074C57.6946 41.6908 66.5014 35.7942 75.9089 30.6838C91.9445 21.9744 104.057 18.5944 104.565 18.4545C106.398 17.9497 108.35 19.1614 108.925 21.1624C109.499 23.1617 108.479 25.1915 106.645 25.6944C106.444 25.7522 94.5385 29.1021 79.1629 37.4749C65.0015 45.1874 44.8978 58.8698 29.544 80.2527C29.1352 80.8229 28.5923 81.216 27.9939 81.4271Z" fill="#F15BB5"/>
<path d="M33.4313 86.1519C32.3607 86.5279 31.1094 86.3148 30.1182 85.4722C28.5717 84.1559 28.2426 81.802 29.3826 80.2142C36.5132 70.2824 45.1895 61.1045 55.1702 52.9341C63.132 46.4156 71.9395 40.5208 81.347 35.4103C97.3824 26.701 109.495 23.3191 110.003 23.1792C111.836 22.6763 113.788 23.888 114.362 25.8872C114.937 27.8864 113.917 29.9159 112.083 30.421C111.882 30.4769 99.9764 33.8288 84.6008 42.2015C70.4395 49.914 50.3352 63.5946 34.982 84.9793C34.5731 85.5496 34.0304 85.9426 33.4313 86.1519Z" fill="#F23637"/>
<path d="M38.8688 90.8814C37.7983 91.2574 36.547 91.0443 35.5553 90.1999C34.0093 88.8854 33.68 86.5316 34.82 84.9438C41.9507 75.0119 50.6271 65.834 60.6078 57.6636C68.5695 51.1451 77.377 45.2503 86.7844 40.1399C102.82 31.4305 114.932 28.0487 115.44 27.9088C117.273 27.404 119.225 28.6175 119.799 30.6168C120.374 32.616 119.353 34.644 117.522 35.15C117.403 35.1823 105.469 38.5288 90.0384 46.931C75.877 54.6435 55.7728 68.3241 40.4195 89.7088C40.0101 90.2773 39.4678 90.6721 38.8688 90.8814Z" fill="#FFD800"/>
<path d="M44.2906 95.609C43.2195 95.9832 41.9687 95.7719 40.977 94.9275C39.4307 93.6112 39.1014 91.2573 40.2414 89.6695C47.372 79.7377 56.0483 70.5598 66.029 62.3894C73.9915 55.8727 82.7983 49.9762 92.2063 44.8675C108.241 36.1564 120.354 32.7762 120.862 32.6364C122.695 32.1316 124.646 33.3433 125.221 35.3444C125.795 37.3418 124.774 39.3678 122.944 39.8777C122.825 39.9099 110.89 43.2547 95.4596 51.6569C81.2982 59.3694 61.1945 73.0517 45.8407 94.4347C45.432 95.0049 44.8892 95.3979 44.2906 95.609Z" fill="#00BBF9"/>
<path d="M49.7247 100.337C48.6544 100.713 47.4034 100.502 46.4117 99.6576C44.8654 98.3413 44.5361 95.9874 45.6761 94.3996C55.6767 80.4719 68.5631 68.1738 83.9782 57.851C96.9387 49.1719 109.028 43.6914 116.887 40.6231C116.922 40.6091 116.958 40.5969 116.993 40.5829C118.738 39.972 120.712 40.9852 121.443 42.8886C122.188 44.8309 121.357 46.967 119.586 47.6578C103.328 54.0063 72.8329 69.1394 51.2754 99.1648C50.8667 99.7349 50.3239 100.128 49.7247 100.337Z" fill="#7209B7"/>
<path d="M107.988 14.8273L116.857 23.48L129.211 22.5437C130.81 22.4216 131.934 24.0866 131.224 25.5256L125.735 36.6325L130.444 48.093C131.054 49.5764 129.817 51.1605 128.23 50.9301L115.97 49.142L106.526 57.1623C105.303 58.1996 103.414 57.5127 103.144 55.932L101.055 43.7192L90.51 37.2162C89.1444 36.3734 89.2138 34.3657 90.6344 33.6206L101.604 27.8598L104.53 15.8202C104.909 14.2627 106.84 13.7082 107.988 14.8273Z" fill="#FFD800"/>
<path d="M115.717 48.2467L128.356 50.0905C128.796 50.1543 129.222 49.9829 129.496 49.6318C129.77 49.2808 129.832 48.8257 129.664 48.4154L124.809 36.6008L130.467 25.1492C130.664 24.7496 130.633 24.2919 130.384 23.9224C130.136 23.5546 129.722 23.3539 129.279 23.389L116.543 24.3546L107.4 15.4337C107.082 15.1232 106.636 15.0119 106.209 15.1347C105.781 15.2575 105.463 15.588 105.358 16.02L102.341 28.4326L91.0323 34.3712C90.638 34.5765 90.3939 34.9661 90.3782 35.4097C90.3632 35.8551 90.5798 36.2595 90.9586 36.4937L101.83 43.1991L103.984 55.7892C104.058 56.2265 104.353 56.579 104.771 56.7314C105.189 56.8839 105.642 56.803 105.981 56.5155L115.717 48.2467ZM129.346 51.6882C128.955 51.8006 128.535 51.8288 128.112 51.7682L116.23 50.036L107.078 57.8078C106.269 58.495 105.19 58.6892 104.191 58.325C103.194 57.9626 102.491 57.1214 102.312 56.075L100.288 44.2398L90.0685 37.9373C89.1648 37.3793 88.6469 36.4126 88.6836 35.3514C88.7202 34.2901 89.3035 33.3621 90.2435 32.8687L100.874 27.2874L103.71 15.619C103.961 14.5883 104.72 13.7979 105.741 13.5048C106.761 13.2118 107.824 13.479 108.584 14.2194L108.584 14.2194L117.178 22.6058L129.151 21.6969C130.209 21.6164 131.196 22.0937 131.79 22.9738C132.384 23.8539 132.458 24.948 131.988 25.9005L126.669 36.6647L131.232 47.771C131.636 48.7529 131.486 49.8387 130.833 50.6751C130.444 51.1751 129.925 51.5221 129.346 51.6882Z" fill="#231F20"/>
<path d="M114.967 44.3847C114.136 44.6232 113.283 44.6916 112.432 44.5872C111.61 44.4878 110.825 44.2331 110.098 43.8303C109.37 43.4276 108.738 42.8975 108.218 42.253C107.923 41.8887 107.98 41.3549 108.344 41.062C108.708 40.7674 109.242 40.8238 109.537 41.1882C109.919 41.6607 110.384 42.0505 110.919 42.3476C111.455 42.6448 112.032 42.8318 112.636 42.9036C113.26 42.9791 113.887 42.9303 114.499 42.7548C115.11 42.5793 115.668 42.2897 116.157 41.8926C116.63 41.5116 117.02 41.0467 117.317 40.5108C117.613 39.9749 117.8 39.3976 117.873 38.7944C117.93 38.3293 118.352 37.9983 118.817 38.0549C119.282 38.1097 119.613 38.5321 119.557 38.9972C119.457 39.8196 119.202 40.6044 118.8 41.3316C118.397 42.0589 117.867 42.6915 117.223 43.2116C116.556 43.7518 115.797 44.1462 114.967 44.3847Z" fill="#231F20"/>
<path d="M108.195 35.8335C108.58 37.1754 107.805 38.5742 106.464 38.9593C105.123 39.3444 103.723 38.5701 103.338 37.2281C102.953 35.8862 103.728 34.4874 105.069 34.1023C106.41 33.7171 107.81 34.4915 108.195 35.8335Z" fill="#F9696A"/>
<path d="M120.867 32.1941C121.252 33.5361 120.477 34.9349 119.136 35.32C117.794 35.7051 116.395 34.9307 116.01 33.5888C115.625 32.2469 116.4 30.8481 117.741 30.4629C119.082 30.0778 120.482 30.8522 120.867 32.1941Z" fill="#F9696A"/>
<path d="M108.055 32.7964C108.356 33.845 108.02 34.8589 107.305 35.0643C106.59 35.2696 105.767 34.5884 105.466 33.5399C105.165 32.4931 105.501 31.4792 106.216 31.2739C106.932 31.0685 107.754 31.7497 108.055 32.7964Z" fill="#231F20"/>
<path d="M117.102 30.1972C117.403 31.2458 117.067 32.2597 116.352 32.4651C115.637 32.6704 114.814 31.9893 114.513 30.9407C114.212 29.8939 114.548 28.88 115.263 28.6747C115.978 28.4693 116.801 29.1505 117.102 30.1972Z" fill="#231F20"/>
</svg>
