<svg width="119" height="107" viewBox="0 0 119 107" fill="none" xmlns="http://www.w3.org/2000/svg">
<g clip-path="url(#clip0_1326_29511)">
<path d="M45.9594 9.16586C56.4997 7.40756 67.4386 17.9752 73.3012 34.1374C88.3412 25.8077 103.531 25.0308 110.32 33.2827C118.757 43.5373 111.026 63.8488 93.0524 78.6497C80.6369 88.8734 66.5826 93.7921 56.2961 92.4775C54.8028 92.3526 53.3137 91.9987 51.8441 91.4297L51.8247 91.4224C50.343 90.8856 48.9881 90.1737 47.7804 89.2866C39.163 83.5176 31.8017 70.5742 29.162 54.7091C25.3405 31.7411 32.861 11.3507 45.9594 9.16586Z" fill="#EF0405"/>
<path d="M106.824 50.5668L106.904 50.5706C107.691 50.6091 108.395 50.0792 108.57 49.311C109.292 46.139 109.436 42.8193 108.982 39.5131C108.875 38.7368 108.228 38.1478 107.446 38.1112C106.447 38.0647 105.646 38.9215 105.754 39.9156C106.071 42.8451 105.921 45.7749 105.316 48.5935C105.105 49.5778 105.819 50.5177 106.824 50.5668Z" fill="white"/>
<path d="M104.065 53.8233C103.836 54.6701 104.337 55.5419 105.183 55.7703C106.03 55.9987 106.901 55.4974 107.13 54.6506C107.358 53.8038 106.858 52.932 106.011 52.7036C105.165 52.4752 104.293 52.9765 104.065 53.8233Z" fill="white"/>
<path d="M72.153 52.2719C69.1163 60.3759 70.2515 68.2932 74.6885 69.9558C79.1257 71.6185 85.1842 66.3968 88.2209 58.2928C91.2576 50.1886 90.1224 42.2713 85.6853 40.6087C81.2483 38.9461 75.1897 44.1678 72.153 52.2719Z" fill="white"/>
<path d="M73.0734 50.0984C75.9712 43.9586 80.5892 39.9784 84.4165 40.3219C86.8099 42.2206 87.2524 47.335 85.2946 52.5598C83.0993 58.4184 78.7193 62.1934 75.5118 60.9915C72.6512 59.9197 71.6911 55.251 73.0734 50.0984Z" fill="#231F20"/>
<path d="M86.4514 47.6396L79.9147 50.6371L86.5113 45.6697C86.5356 46.2984 86.5156 46.9579 86.4514 47.6396Z" fill="white"/>
<path d="M46.1375 42.522C43.1009 50.626 44.2361 58.5433 48.6731 60.2059C53.11 61.8685 59.1686 56.6468 62.2053 48.5428C65.242 40.4386 64.1068 32.5213 59.6698 30.8587C55.2328 29.1961 49.1743 34.4179 46.1375 42.522Z" fill="white"/>
<path d="M47.0577 40.3464C49.9554 34.2066 54.5736 30.2265 58.4009 30.57C60.7941 32.4686 61.2368 37.5831 59.279 42.8079C57.0837 48.6664 52.7037 52.4415 49.496 51.2395C46.6354 50.1676 45.6755 45.4991 47.0577 40.3464Z" fill="#231F20"/>
<path d="M60.4318 37.8916L53.8953 40.8892L60.4919 35.9217C60.5162 36.5504 60.4962 37.2099 60.4318 37.8916Z" fill="white"/>
<path d="M93.0677 41.5586C93.2792 41.6378 93.5243 41.6192 93.7284 41.487C94.0711 41.2655 94.1692 40.8081 93.9478 40.4653C93.8929 40.3804 92.5753 38.3654 90.1946 36.7012C86.9958 34.4656 83.4127 33.9477 79.8328 35.2044C79.4478 35.3395 79.2452 35.7613 79.3801 36.1464C79.5153 36.5312 79.9368 36.7339 80.3214 36.5988C87.8692 33.9497 92.6598 41.1945 92.7073 41.2681C92.7967 41.4063 92.9244 41.5049 93.0677 41.5586Z" fill="#231F20"/>
<path d="M57.315 77.3727C60.9451 78.7329 64.6966 79.002 68.3589 78.1403C68.7561 78.0469 69.0025 77.6492 68.9092 77.2521C68.8158 76.8547 68.4185 76.6084 68.0213 76.702C63.2758 77.8184 58.5496 76.9318 53.9747 74.0673C50.5212 71.9048 48.4574 69.366 48.4369 69.3406C48.1813 69.0229 47.7164 68.9723 47.3988 69.2281C47.0812 69.4837 47.03 69.9482 47.2852 70.2662C47.3738 70.3767 49.4975 72.9972 53.1479 75.293C54.5099 76.1495 55.9035 76.8437 57.315 77.3727Z" fill="#231F20"/>
<path d="M67.1341 31.8418C67.3456 31.921 67.5907 31.9024 67.7949 31.7702C68.1375 31.5487 68.2356 31.0913 68.0142 30.7485C67.9593 30.6636 66.6417 28.6486 64.261 26.9844C61.0621 24.7487 57.4793 24.231 53.8992 25.4876C53.5142 25.6227 53.3116 26.0445 53.4465 26.4296C53.5817 26.8144 54.0033 27.0172 54.3878 26.882C61.9356 24.2329 66.7262 31.4777 66.7737 31.5513C66.8631 31.6895 66.9908 31.7881 67.1341 31.8418Z" fill="#231F20"/>
<path d="M81.4829 74.1132C80.6375 76.3693 81.7803 78.8834 84.0354 79.7284C86.2904 80.5734 88.804 79.4294 89.6494 77.1733C90.4949 74.9169 89.3521 72.4028 87.097 71.5578C84.8419 70.7128 82.3284 71.8569 81.4829 74.1132Z" fill="#F9696A"/>
<path d="M33.0728 55.9725C32.2274 58.2287 33.3702 60.7428 35.6252 61.5878C37.8803 62.4328 40.3938 61.2888 41.2392 59.0326C42.0847 56.7763 40.9419 54.2622 38.6868 53.4172C36.4318 52.5722 33.9182 53.7162 33.0728 55.9725Z" fill="#F9696A"/>
<path d="M68.3464 81.5137C68.3734 81.5238 68.4011 81.5325 68.4298 81.5395C68.8259 81.637 69.226 81.3948 69.3236 80.9985C70.5115 76.1757 66.9566 73.0525 66.8047 72.9217C66.4958 72.6559 66.0291 72.6911 65.7632 73.0008C65.4977 73.3098 65.5324 73.7752 65.8401 74.0414C65.9661 74.1509 68.8556 76.7224 67.8894 80.6455C67.7988 81.013 68.0007 81.384 68.3464 81.5137Z" fill="#231F20"/>
<path d="M25.0811 33.0613C29.5341 36.5211 30.3297 38.2713 30.0097 43.9036C33.4696 39.4479 35.2194 38.6515 40.8495 38.97C36.3965 35.5102 35.6009 33.76 35.9211 28.1277C32.461 32.5834 30.7112 33.3798 25.0811 33.0613Z" fill="white"/>
<path d="M21.9068 14.1062C24.7869 16.3437 25.3012 17.4756 25.0943 21.1181C27.3319 18.2365 28.4636 17.7214 32.1047 17.9274C29.2249 15.6898 28.7103 14.558 28.9174 10.9156C26.6796 13.7971 25.5481 14.3121 21.9068 14.1062Z" fill="white"/>
</g>
<defs>
<clipPath id="clip0_1326_29511">
<rect width="98.2252" height="77.0292" fill="white" transform="matrix(-0.936418 -0.350888 -0.350888 0.936418 119.008 34.4668)"/>
</clipPath>
</defs>
</svg>
