<svg width="146" height="65" viewBox="0 0 146 65" fill="none" xmlns="http://www.w3.org/2000/svg">
<path d="M131.879 29.5586C133.61 29.9675 135.432 30.6839 137.119 31.8913C137.12 31.8921 137.122 31.8924 137.123 31.8932C137.13 31.898 137.14 31.9049 137.152 31.9132C137.161 31.9192 137.172 31.9277 137.185 31.9369C137.188 31.9394 137.191 31.9419 137.195 31.9444C137.196 31.9454 137.198 31.9464 137.199 31.9474L137.203 31.9492C137.194 31.9432 137.188 31.9389 137.186 31.9372L137.186 31.9374C137.189 31.9393 137.197 31.9448 137.205 31.9509C137.214 31.9572 137.227 31.9667 137.241 31.9774L140.009 34.0061L139.636 34.2359C139.924 34.5889 140.195 34.9645 140.449 35.3614L140.607 35.3253L141.375 37.1023C141.381 37.1165 141.386 37.1294 141.39 37.14C141.391 37.1425 141.393 37.1451 141.394 37.148C141.4 37.1604 141.408 37.1791 141.417 37.2005L142.466 39.7152L142.161 39.7867C142.424 41.3749 142.343 42.9537 141.993 44.437C141.699 45.68 141.21 46.9062 140.497 48.0602C139.72 49.3171 138.768 50.3218 137.794 51.1144L137.787 51.1216L137.74 51.1596L137.722 51.1736L137.705 51.1866L137.665 51.2163C137.609 51.2604 137.551 51.3031 137.495 51.3457C137.445 51.7212 137.377 52.0883 137.293 52.4438C136.74 54.7803 135.355 57.294 132.726 58.9872C129.891 60.8139 126.848 60.8766 124.528 60.3286C122.798 59.9197 120.913 59.0424 119.349 57.4754C118.827 57.4922 118.279 57.5198 117.679 57.5454C116.726 57.586 115.67 57.6184 114.615 57.5489C112.821 57.4307 110.843 57.0028 109.11 55.6815C107.214 55.8901 105.406 55.6893 103.825 55.3159L98.9299 54.1593C97.758 53.8824 96.333 53.3548 94.9779 52.3817C92.9547 52.6416 90.9194 52.4905 88.9995 52.0369C87.1685 51.6043 85.3665 50.883 83.7046 49.8015C82.0076 50.1219 80.4307 49.9723 79.1956 49.6805C77.8883 49.3716 76.3076 48.7514 74.8612 47.5888C73.003 47.9912 71.293 47.8134 70.0405 47.5175C68.9777 47.2664 67.7733 46.8185 66.6086 46.0695C64.7951 46.1556 63.0708 45.911 61.552 45.5521C60.2012 45.233 58.8544 44.7837 57.5518 44.1655L57.5339 44.1563L57.522 44.1515C56.3326 43.5815 55.1871 42.8733 54.1204 42.0102C54.1137 42.0049 54.1068 41.9997 54.1001 41.9944C54.0976 41.9923 54.0949 41.9906 54.0924 41.9885L54.0927 41.9876C54.0271 41.9357 53.9624 41.8814 53.8968 41.8269C51.6786 42.6539 49.4686 42.595 47.6849 42.1735C46.1455 41.8098 44.485 41.0759 43.0353 39.8147C42.8093 39.856 42.5823 39.8947 42.3538 39.9256L42.3434 39.9272C40.5118 40.1668 38.7225 40.072 37.0218 39.7416L36.2981 39.5856C35.8888 39.4889 35.4826 39.3755 35.079 39.2495C35.0403 39.2773 35.0029 39.3071 34.9636 39.3346L34.6584 39.5474L34.3021 39.6539L29.6603 41.0378L29.3073 41.143L28.9384 41.1331C28.1366 41.1115 27.3911 41.0024 26.7323 40.8467C24.0402 40.2107 21.6654 38.567 20.1972 36.1349L20.1885 36.1208L20.1807 36.1069C20.0582 35.8972 19.9474 35.6851 19.8435 35.4743L10.4745 33.2608C7.77495 32.623 5.38353 31.0313 3.83576 28.6268L3.79076 28.5539C2.33946 26.105 1.97564 23.2614 2.61334 20.5623L5.00381 10.4443C6.34432 4.77044 11.8772 1.24714 17.6154 2.60276C18.727 2.86538 19.9958 3.34794 21.2094 4.16733C22.6501 3.97971 24.0001 4.1112 25.1331 4.37888L25.154 4.38382L25.1747 4.38971L25.4955 4.47153L25.5155 4.47625L25.5352 4.48191C26.5301 4.75581 27.6516 5.21234 28.7372 5.94285C30.1973 5.75497 31.5536 5.89579 32.6688 6.15927C34.0357 6.48227 35.7068 7.14978 37.2021 8.42842C37.2784 8.41674 37.3545 8.40475 37.4309 8.39419C39.5629 8.08667 41.6429 8.23936 43.595 8.70056L44.0111 8.80388C45.7762 9.2646 47.5129 10.0028 49.1136 11.0891C49.9477 10.9851 50.7837 10.9478 51.6165 10.977L51.6163 10.978C52.7139 11.0047 53.8674 11.1275 55.0368 11.4038C57.2463 11.9259 59.415 12.9318 61.2202 14.4782C62.4894 14.2291 63.765 14.1294 65.0322 14.1687L65.0402 14.1686L65.0632 14.169C66.4116 14.2157 67.7345 14.4038 69.0229 14.7082C70.4741 15.051 72.063 15.5902 73.5941 16.4685C76.4209 16.1608 79.4088 16.9942 81.6555 18.8056C83.4202 18.4281 85.1986 18.5444 86.837 18.9641L86.857 18.9688L86.8767 18.9745C88.0224 19.2899 89.3377 19.848 90.5703 20.7884C92.5492 20.56 94.4781 20.7222 96.2964 21.1518C98.1958 21.6006 100.074 22.362 101.794 23.5255C103.424 23.2607 104.932 23.4158 106.127 23.6981L110.829 24.8091C111.81 25.0409 112.845 25.3734 113.879 25.8457C115.06 25.7648 116.165 25.8862 117.133 26.1147L117.151 26.119L117.168 26.1242L117.441 26.1926L117.46 26.1981L117.478 26.2024C118.48 26.4736 119.731 26.9668 120.941 27.8525L126.362 28.3343L126.591 28.3543L126.811 28.4194C127.41 28.5959 128.019 28.8328 128.624 29.1387C129.672 29.1734 130.768 29.2962 131.879 29.5586Z" fill="#009340" stroke="#252525" stroke-width="4.62339"/>
<path d="M28.7644 32.2306C28.2633 32.1122 27.9097 31.8863 27.7036 31.5527C27.5104 31.2221 27.473 30.8063 27.5914 30.3052L28.0604 28.32L12.5065 24.6452C11.9026 24.5025 11.4764 24.239 11.2281 23.8548C10.9956 23.4607 10.9491 22.9681 11.0888 22.377L13.4794 12.2583C13.6191 11.6673 13.8731 11.2524 14.2415 11.0139C14.6227 10.7784 15.096 10.7274 15.6614 10.861C16.2139 10.9915 16.6015 11.2459 16.8242 11.6241C17.0597 12.0053 17.1076 12.4915 16.968 13.0825L14.8278 22.1412L18.8753 23.0975L21.0155 14.0388C21.1551 13.4477 21.4091 13.0329 21.7775 12.7944C22.1588 12.5588 22.6257 12.5063 23.1782 12.6369C23.7435 12.7705 24.1375 13.0263 24.3602 13.4045C24.5829 13.7827 24.6244 14.2674 24.4848 14.8584L22.3446 23.9171L26.3921 24.8734L28.5323 15.8147C28.6719 15.2236 28.9259 14.8088 29.2943 14.5703C29.6755 14.3347 30.1488 14.2838 30.7142 14.4173C31.2796 14.5509 31.6736 14.8068 31.8963 15.185C32.1189 15.5632 32.1604 16.0478 32.0208 16.6389L29.5026 27.2973L28.2809 25.3196L30.2275 25.7795C30.7415 25.901 31.1015 26.1285 31.3076 26.4621C31.5137 26.7956 31.556 27.2194 31.4346 27.7334L30.6559 31.0292C30.5375 31.5303 30.3115 31.8839 29.9779 32.09C29.6572 32.2991 29.2527 32.346 28.7644 32.2306ZM38.3302 30.9702C36.9553 30.6453 35.8158 30.0709 34.9117 29.2468C34.0105 28.4098 33.3953 27.3962 33.066 26.206C32.7496 25.0188 32.7568 23.7249 33.0877 22.3243C33.3367 21.2707 33.7234 20.3514 34.2481 19.5664C34.7855 18.7844 35.4291 18.1564 36.1787 17.6823C36.9412 17.2113 37.7844 16.9153 38.7083 16.7944C39.6353 16.6607 40.6128 16.7153 41.6407 16.9581C43.0156 17.283 44.1486 17.8559 45.04 18.677C45.9441 19.5011 46.5609 20.5083 46.8902 21.6985C47.2225 22.8759 47.2217 24.1713 46.8877 25.5847C46.6388 26.6383 46.2456 27.5561 45.7081 28.3381C45.1835 29.1231 44.5384 29.7576 43.7729 30.2415C43.0233 30.7155 42.185 31.0194 41.258 31.1532C40.3341 31.274 39.3581 31.213 38.3302 30.9702ZM39.0315 28.002C39.7125 28.1629 40.3286 28.1389 40.8799 27.93C41.4313 27.7211 41.9067 27.345 42.3064 26.8018C42.7061 26.2586 43.0061 25.563 43.2064 24.715C43.507 23.4429 43.4581 22.3867 43.0597 21.5465C42.6613 20.7062 41.9545 20.1661 40.9394 19.9263C40.2713 19.7684 39.6551 19.7925 39.091 19.9983C38.5427 20.1944 38.0687 20.564 37.669 21.1072C37.2724 21.6375 36.9724 22.3332 36.769 23.1941C36.4685 24.4661 36.5159 25.5287 36.9112 26.3819C37.3096 27.2221 38.0164 27.7622 39.0315 28.002ZM50.8637 28.966C50.5296 28.8871 50.292 28.7157 50.1509 28.4517C50.0098 28.1877 49.9817 27.8758 50.0667 27.5161C50.1487 27.1691 50.2631 26.857 50.41 26.5797C50.5728 26.2926 50.7791 26.0225 51.0288 25.7694C51.2944 25.5066 51.6178 25.2574 51.999 25.0219C52.2562 24.852 52.4624 24.6972 52.6175 24.5575C52.7855 24.4208 52.9118 24.2879 52.9966 24.1587C53.0844 24.0167 53.1466 23.8685 53.183 23.7144C53.2528 23.4188 53.1967 23.1682 53.0147 22.9624C52.8327 22.7566 52.5361 22.6051 52.125 22.5079C51.7138 22.4108 51.3177 22.3647 50.9366 22.3696C50.5556 22.3746 50.1768 22.4275 49.8002 22.5285C49.3662 22.643 49.009 22.6332 48.7286 22.4992C48.4513 22.3523 48.2565 22.1434 48.1441 21.8727C48.0317 21.6019 47.9991 21.3093 48.0462 20.9949C48.1062 20.6834 48.2611 20.4012 48.5108 20.1482C48.7734 19.8982 49.1266 19.7239 49.5704 19.6253C50.158 19.4927 50.7609 19.4385 51.3793 19.4625C52.0007 19.4736 52.5684 19.5399 53.0824 19.6614C53.969 19.8708 54.713 20.1958 55.3143 20.6364C55.9285 21.0799 56.3613 21.6027 56.6124 22.2047C56.8667 22.7939 56.9133 23.429 56.7525 24.11C56.6614 24.4955 56.517 24.848 56.3194 25.1676C56.1218 25.4872 55.8551 25.7837 55.5192 26.0571C55.1863 26.3176 54.7491 26.5602 54.2076 26.785C53.7394 26.9864 53.3688 27.177 53.0957 27.3567C52.8257 27.5235 52.615 27.6976 52.4636 27.8789C52.3251 28.0632 52.2013 28.2714 52.0922 28.5034C51.9923 28.6968 51.8421 28.8445 51.6416 28.9463C51.4442 29.0354 51.1849 29.0419 50.8637 28.966ZM49.7176 33.5588C49.1265 33.4192 48.6985 33.1349 48.4335 32.706C48.1814 32.2801 48.1221 31.7845 48.2557 31.2192C48.3863 30.6666 48.658 30.2628 49.071 30.0077C49.4999 29.7427 50.0099 29.68 50.601 29.8197C51.192 29.9593 51.6136 30.2421 51.8657 30.6679C52.1209 31.081 52.1832 31.5637 52.0527 32.1162C51.9191 32.6816 51.6443 33.0983 51.2282 33.3663C50.8122 33.6343 50.3086 33.6984 49.7176 33.5588ZM63.5849 36.9368C62.7497 36.7395 61.9905 36.4788 61.3074 36.1546C60.6371 35.8334 60.0413 35.4552 59.5201 35.0201C59.1998 34.768 58.9959 34.4825 58.9085 34.1633C58.834 33.8473 58.8429 33.5509 58.9354 33.2743C59.0279 32.9977 59.1899 32.7714 59.4214 32.5955C59.6529 32.4196 59.9255 32.328 60.2393 32.3207C60.553 32.3134 60.8765 32.4373 61.2096 32.6924C61.4619 32.8877 61.7317 33.0667 62.0188 33.2295C62.3059 33.3923 62.612 33.5324 62.937 33.6499C63.2748 33.7704 63.6107 33.8702 63.9448 33.9491C64.5359 34.0887 65.0298 34.1512 65.4268 34.1364C65.8267 34.1088 66.1439 34.0006 66.3785 33.8118C66.613 33.623 66.7713 33.3552 66.8532 33.0083C66.9564 32.5714 66.8781 32.2137 66.6183 31.9353C66.3744 31.647 65.9248 31.4255 65.2695 31.2707L63.2457 30.7925C62.7832 30.6833 62.4571 30.4841 62.2677 30.1952C62.0782 29.9062 62.0365 29.5369 62.1428 29.0871C62.246 28.6503 62.447 28.345 62.7458 28.1714C63.0446 27.9978 63.4252 27.9657 63.8878 28.0749L65.5453 28.4665C66.2007 28.6214 66.7004 28.6309 67.0445 28.4951C67.3886 28.3594 67.6122 28.0731 67.7154 27.6362C67.7792 27.3663 67.7647 27.1119 67.6719 26.873C67.5822 26.6211 67.3953 26.4074 67.1112 26.2317C66.8301 26.0432 66.439 25.8898 65.9379 25.7714C65.5139 25.6712 65.0664 25.613 64.5954 25.5967C64.1275 25.5675 63.681 25.5909 63.2561 25.6669C62.8312 25.7429 62.4785 25.7138 62.1982 25.5797C61.9209 25.4328 61.7181 25.2289 61.5898 24.968C61.4645 24.6942 61.416 24.4114 61.4443 24.1196C61.4755 23.815 61.5937 23.5444 61.7988 23.308C62.0168 23.0746 62.3174 22.9218 62.7008 22.8495C63.3745 22.6967 64.075 22.6316 64.8022 22.6541C65.5423 22.6798 66.2979 22.7837 67.0688 22.9658C68.2124 23.236 69.1253 23.6212 69.8075 24.1216C70.5025 24.625 70.9696 25.2033 71.2086 25.8567C71.4477 26.5101 71.4837 27.1902 71.3168 27.8969C71.1286 28.6935 70.7364 29.3199 70.1402 29.776C69.5569 30.2351 68.8491 30.4749 68.0167 30.4953L68.0896 30.1869C68.9753 30.5725 69.6004 31.1136 69.9649 31.8102C70.3294 32.5068 70.4054 33.3048 70.1929 34.2043C70.0077 34.9881 69.6367 35.6398 69.0798 36.1594C68.5357 36.6821 67.8051 37.0182 66.888 37.1678C65.9708 37.3174 64.8698 37.2404 63.5849 36.9368ZM72.0731 38.9016C71.5077 38.768 71.1073 38.5106 70.8717 38.1293C70.6392 37.7353 70.5913 37.2491 70.7279 36.6709L73.1641 26.3594C73.3038 25.7684 73.5642 25.3551 73.9454 25.1196C74.3267 24.884 74.8 24.8331 75.3653 24.9666C75.9435 25.1032 76.344 25.3606 76.5667 25.7389C76.8022 26.1201 76.8501 26.6062 76.7105 27.1973L75.859 30.8015L81.4676 32.1266L82.3191 28.5224C82.4588 27.9313 82.7128 27.5165 83.0812 27.278C83.4624 27.0425 83.9422 26.993 84.5204 27.1296C85.0857 27.2632 85.4798 27.5191 85.7024 27.8973C85.9379 28.2785 85.9859 28.7647 85.8462 29.3557L83.4101 39.6672C83.2734 40.2454 83.013 40.6587 82.6287 40.9071C82.2603 41.1456 81.7935 41.1981 81.2281 41.0645C80.6499 40.9279 80.243 40.669 80.0075 40.2878C79.7879 39.8967 79.7463 39.4121 79.883 38.8339L80.78 35.0369L75.1714 33.7118L74.2743 37.5088C74.1377 38.087 73.8837 38.5018 73.5122 38.7532C73.1439 38.9918 72.6641 39.0412 72.0731 38.9016ZM91.0319 43.4215C89.657 43.0967 88.5175 42.5222 87.6133 41.6981C86.7122 40.8611 86.097 39.8475 85.7677 38.6573C85.4513 37.4701 85.4585 36.1762 85.7894 34.7756C86.0383 33.722 86.4251 32.8027 86.9497 32.0177C87.4872 31.2357 88.1308 30.6077 88.8804 30.1336C89.6429 29.6626 90.4861 29.3666 91.41 29.2457C92.337 29.112 93.3144 29.1666 94.3424 29.4095C95.7172 29.7343 96.8503 30.3072 97.7417 31.1283C98.6458 31.9524 99.2626 32.9596 99.5918 34.1498C99.9242 35.3272 99.9234 36.6226 99.5894 38.036C99.3405 39.0897 98.9473 40.0075 98.4098 40.7894C97.8852 41.5744 97.2401 42.2089 96.4746 42.6928C95.725 43.1668 94.8867 43.4707 93.9597 43.6045C93.0358 43.7253 92.0598 43.6643 91.0319 43.4215ZM91.7332 40.4533C92.4142 40.6142 93.0303 40.5902 93.5816 40.3813C94.1329 40.1724 94.6084 39.7963 95.0081 39.2532C95.4078 38.71 95.7078 38.0143 95.9081 37.1663C96.2087 35.8942 96.1597 34.838 95.7613 33.9978C95.3629 33.1575 94.6562 32.6174 93.6411 32.3776C92.973 32.2198 92.3568 32.2438 91.7926 32.4496C91.2444 32.6457 90.7704 33.0153 90.3707 33.5585C89.9741 34.0889 89.6741 34.7845 89.4707 35.6454C89.1702 36.9174 89.2176 37.98 89.6129 38.8332C90.0113 39.6734 90.7181 40.2135 91.7332 40.4533ZM100.962 45.5438C100.359 45.4012 99.9324 45.1377 99.6841 44.7534C99.4516 44.3593 99.4052 43.8668 99.5448 43.2757L101.89 33.3497C102.03 32.7586 102.29 32.3453 102.671 32.1098C103.068 31.8645 103.569 31.8132 104.173 31.9558L108.876 33.0669C109.852 33.2976 110.646 33.6412 111.257 34.0976C111.884 34.5443 112.315 35.0735 112.551 35.6853C112.786 36.2971 112.82 36.9564 112.653 37.6631C112.465 38.4597 112.073 39.0861 111.477 39.5422C110.893 40.0013 110.186 40.241 109.353 40.2614L109.426 39.9531C110.312 40.3387 110.937 40.8798 111.301 41.5764C111.679 42.276 111.761 43.0756 111.549 43.975C111.266 45.17 110.613 46.0127 109.588 46.5032C108.579 46.9838 107.336 47.0496 105.858 46.7005L100.962 45.5438ZM103.119 43.3062L105.991 43.9847C106.646 44.1395 107.15 44.1297 107.504 43.9554C107.873 43.7713 108.117 43.4287 108.235 42.9276C108.353 42.4265 108.287 42.0174 108.036 41.7004C107.799 41.3864 107.352 41.1521 106.697 40.9972L103.825 40.3187L103.119 43.3062ZM104.44 37.7168L106.965 38.3133C107.607 38.4651 108.103 38.4603 108.454 38.2988C108.817 38.1404 109.054 37.8234 109.167 37.348C109.279 36.8726 109.207 36.4893 108.95 36.198C108.709 35.8968 108.267 35.6704 107.625 35.5186L105.1 34.9221L104.44 37.7168ZM115.336 49.1228C114.925 49.0257 114.602 48.8409 114.368 48.5686C114.134 48.2962 114.026 47.979 114.043 47.6169C114.064 47.2419 114.237 46.8554 114.562 46.4572L116.406 44.2476L116.174 45.2306L113.292 36.3284C113.151 35.8883 113.148 35.5008 113.281 35.166C113.418 34.8184 113.652 34.5752 113.983 34.4364C114.33 34.2878 114.728 34.2666 115.178 34.3728C115.641 34.4821 115.96 34.6797 116.137 34.9656C116.329 35.2418 116.493 35.6127 116.627 36.0785L118.632 42.4943L118.053 42.3576L122.193 37.4138C122.438 37.1192 122.715 36.8658 123.023 36.6537C123.344 36.4445 123.761 36.4007 124.275 36.5221C124.687 36.6193 125.009 36.804 125.243 37.0764C125.493 37.339 125.608 37.6577 125.587 38.0327C125.582 38.3978 125.403 38.7828 125.05 39.1877L117.438 48.2357C117.208 48.5205 116.925 48.7724 116.588 48.9913C116.267 49.2004 115.85 49.2443 115.336 49.1228ZM127.707 47.1209C127.372 47.042 127.135 46.8706 126.994 46.6066C126.853 46.3426 126.825 46.0307 126.91 45.671C126.991 45.324 127.106 45.0119 127.253 44.7346C127.416 44.4475 127.622 44.1774 127.872 43.9244C128.137 43.6615 128.461 43.4123 128.842 43.1768C129.099 43.0069 129.305 42.8522 129.46 42.7124C129.628 42.5758 129.755 42.4428 129.839 42.3136C129.927 42.1716 129.989 42.0234 130.026 41.8693C130.096 41.5737 130.04 41.3231 129.858 41.1173C129.676 40.9115 129.379 40.76 128.968 40.6629C128.557 40.5657 128.16 40.5196 127.779 40.5246C127.398 40.5295 127.02 40.5824 126.643 40.6834C126.209 40.7979 125.852 40.7881 125.571 40.6541C125.294 40.5072 125.099 40.2983 124.987 40.0276C124.874 39.7568 124.842 39.4642 124.889 39.1498C124.949 38.8384 125.104 38.5561 125.354 38.3031C125.616 38.0531 125.969 37.8788 126.413 37.7802C127.001 37.6476 127.604 37.5934 128.222 37.6174C128.844 37.6285 129.411 37.6948 129.925 37.8163C130.812 38.0257 131.556 38.3507 132.157 38.7913C132.771 39.2349 133.204 39.7576 133.455 40.3596C133.71 40.9488 133.756 41.5839 133.595 42.2649C133.504 42.6504 133.36 43.0029 133.162 43.3225C132.965 43.6421 132.698 43.9386 132.362 44.212C132.029 44.4725 131.592 44.7151 131.05 44.9399C130.582 45.1413 130.212 45.3319 129.939 45.5116C129.669 45.6784 129.458 45.8525 129.306 46.0338C129.168 46.2181 129.044 46.4263 128.935 46.6583C128.835 46.8517 128.685 46.9994 128.484 47.1012C128.287 47.1903 128.028 47.1968 127.707 47.1209ZM126.56 51.7137C125.969 51.5741 125.541 51.2898 125.276 50.8609C125.024 50.435 124.965 49.9394 125.099 49.3741C125.229 48.8216 125.501 48.4177 125.914 48.1626C126.343 47.8976 126.853 47.835 127.444 47.9746C128.035 48.1142 128.456 48.397 128.709 48.8228C128.964 49.2359 129.026 49.7186 128.895 50.2711C128.762 50.8365 128.487 51.2532 128.071 51.5212C127.655 51.7892 127.151 51.8534 126.56 51.7137Z" fill="white"/>
</svg>
