<svg width="86" height="59" viewBox="0 0 86 59" fill="none" xmlns="http://www.w3.org/2000/svg">
<g clip-path="url(#clip0_685_19590)">
<path d="M83.6242 27.378C79.8175 40.2976 57.7857 53.61 37.2326 47.5541C16.6788 41.498 5.38571 18.3665 9.19241 5.4469C12.9991 -7.47253 25.5012 11.5555 46.055 17.6116C66.6081 23.6675 87.4309 14.4585 83.6242 27.378Z" fill="#EF0405"/>
<path d="M38.0169 44.8985C33.4825 43.5625 29.2419 41.2768 25.4127 38.1047C21.9411 35.2289 18.8417 31.6118 16.45 27.6448C11.9294 20.147 10.1668 11.941 11.8498 6.22922C12.3729 4.4538 12.9189 4.00588 13.0738 3.91098C13.4139 3.70253 14.143 3.87117 14.5474 3.99034C16.6809 4.61896 19.7535 6.64823 23.3114 8.99782C29.1553 12.8572 36.4284 17.6605 45.2746 20.267C54.1199 22.8732 62.8352 22.781 69.8382 22.7069C74.1012 22.6616 77.7836 22.6226 79.9185 23.2517C80.3221 23.3706 81.0266 23.6242 81.1993 23.9835C81.278 24.1472 81.4941 24.8194 80.9708 26.5955C79.2878 32.3073 73.3575 38.2466 65.4934 42.0953C61.3335 44.1319 56.7674 45.4903 52.2912 46.0244C47.3543 46.6136 42.5512 46.2346 38.0169 44.8985Z" fill="#231F20"/>
<path d="M25.407 38.1047C29.2362 41.2768 33.4768 43.5625 38.0112 44.8985C42.5455 46.2345 47.3486 46.6136 52.2855 46.0244C54.8893 45.7135 57.5238 45.1221 60.0903 44.2819C58.95 40.4044 55.664 37.0507 51.1551 35.7222C47.403 34.6166 43.6012 35.1489 40.667 36.8797C39.2394 33.5517 36.1953 30.7696 32.1857 29.5882C27.4953 28.2062 22.7288 29.3827 19.6748 32.2612C21.407 34.4162 23.3401 36.3925 25.407 38.1047Z" fill="#F15BB5"/>
<path d="M37.803 38.9995C38.7333 38.0322 40.0806 37.2051 40.6661 36.8678C40.5067 36.4979 40.3267 36.1352 40.1284 35.7803C39.5242 36.1232 38.0114 37.0371 36.9309 38.1604C36.6992 38.4013 36.7066 38.7844 36.9475 39.0161C37.027 39.0925 37.122 39.143 37.222 39.1676C37.4249 39.2174 37.648 39.1608 37.803 38.9995Z" fill="#231F20"/>
<path d="M31.5629 14.1997L29.5847 20.9137C29.1278 22.4642 30.0144 24.0915 31.5648 24.5483L38.3611 26.5508C39.9116 27.0077 41.5387 26.121 41.9956 24.5705L43.4345 19.6869C39.0863 18.2258 35.1354 16.2631 31.5629 14.1997Z" fill="white"/>
<path d="M31.5629 14.1997L30.7805 16.8551C34.353 18.9186 38.3039 20.8812 42.6521 22.3424L43.4345 19.6869C39.0863 18.2258 35.1354 16.2631 31.5629 14.1997Z" fill="#8ECAE6"/>
<path d="M59.848 22.5896C55.7277 22.3762 51.3479 21.8683 46.9112 20.7205L45.4748 25.5955C45.018 27.146 45.9036 28.773 47.4544 29.23L54.251 31.2325C55.8017 31.6895 57.4281 30.8026 57.885 29.2521L59.848 22.5896Z" fill="white"/>
<path d="M46.9112 20.7205L46.1288 23.376C50.5654 24.5238 54.9453 25.0316 59.0656 25.2451L59.848 22.5896C55.7277 22.3762 51.3479 21.8683 46.9112 20.7205Z" fill="#8ECAE6"/>
</g>
<defs>
<clipPath id="clip0_685_19590">
<rect width="77.6506" height="38.2024" fill="white" transform="translate(10.7973) rotate(16.4174)"/>
</clipPath>
</defs>
</svg>
