<svg width="138" height="131" viewBox="0 0 138 131" fill="none" xmlns="http://www.w3.org/2000/svg">
<g clip-path="url(#clip0_685_17270)">
<path d="M74.8605 32.0992L77.1722 60.1644L81.4225 61.7297L97.3895 54.3886L99.2919 82.0511L103.542 83.6164L111.188 35.666L106.938 34.1007L92.1961 44.3981L88.8749 25.6558L84.6246 24.0906L74.8605 32.0992Z" fill="#E1BA00"/>
<path d="M70.6103 30.5339L77.1722 60.1644L93.1393 52.8233L99.2919 82.0511L106.938 34.1007L87.9458 42.8328L84.6246 24.0906L70.6103 30.5339Z" fill="#FFD800"/>
</g>
<g clip-path="url(#clip1_685_17270)">
<path d="M12.5087 80.3567L43.5121 107.477L49.5694 104.793L58.8631 80.8259L89.0265 107.94L95.0838 105.256L54.2913 47.1139L48.234 49.7976L43.2367 75.622L20.6658 59.3208L14.6085 62.0045L12.5087 80.3567Z" fill="#E1BA00"/>
<path d="M6.45138 83.0405L43.5121 107.477L52.8058 83.5096L89.0265 107.94L48.234 49.7976L37.1794 78.3057L14.6085 62.0045L6.45138 83.0405Z" fill="#FFD800"/>
</g>
<defs>
<clipPath id="clip0_685_17270">
<rect width="41.2201" height="62.0342" fill="white" transform="translate(64.7812 33.2139) rotate(-24.6914)"/>
</clipPath>
<clipPath id="clip1_685_17270">
<rect width="60.294" height="90.7395" fill="white" transform="translate(3.05859 91.79) rotate(-68.8052)"/>
</clipPath>
</defs>
</svg>
