<svg width="128" height="52" viewBox="0 0 128 52" fill="none" xmlns="http://www.w3.org/2000/svg">
<g clip-path="url(#clip0_627_9735)">
<path d="M32.3913 46.2307L29.2442 39.9561C28.8924 39.2569 27.8501 39.4183 27.729 40.1914L26.6199 47.1713C26.5652 47.5156 26.2965 47.7864 25.9516 47.8421L15.436 49.5392C15.0911 49.5948 14.7486 49.4227 14.5902 49.1105L0.289996 21.2072C0.0389308 20.7193 0.33692 20.1313 0.878824 20.0438L12.3461 18.1931C12.6932 18.1371 13.0365 18.3138 13.1949 18.6259L16.7392 25.682C17.0888 26.3814 18.1289 26.2205 18.2548 25.4489L19.5194 17.5961C19.5741 17.2518 19.8432 16.9832 20.1881 16.9275L29.6154 15.4061C29.9647 15.3497 30.308 15.5263 30.4645 15.8411L33.9957 22.9154C34.3479 23.6167 35.3925 23.455 35.5132 22.6796L36.742 14.8188C36.7967 14.4745 37.0655 14.2037 37.4103 14.1481L48.3134 12.3885C48.853 12.3014 49.3231 12.7654 49.2383 13.3076L44.442 44.2928C44.3898 44.6389 44.1188 44.9101 43.774 44.9658L33.2405 46.6657C32.8911 46.7221 32.5478 46.5455 32.3913 46.2307Z" fill="#252525"/>
<path d="M46.0419 16.1766L42.025 42.1398C41.9907 42.3545 41.8228 42.524 41.6078 42.5587L34.5608 43.696C34.3436 43.7311 34.1305 43.6207 34.0323 43.4252L27.4631 30.3253C27.2435 29.8897 26.5956 29.9897 26.5193 30.4707L24.2097 45.0173C24.1751 45.2297 24.0071 45.3992 23.7922 45.4339L16.7407 46.572C16.5257 46.6067 16.3129 46.4985 16.2129 46.3056L4.23015 22.9245C4.07582 22.6232 4.2623 22.2553 4.59819 22.2011L11.0316 21.1629C11.2489 21.1278 11.462 21.2381 11.5601 21.4337L18.5123 35.2691C18.7297 35.705 19.3775 35.605 19.4561 35.1236L21.9314 19.753C21.9657 19.5384 22.1339 19.3711 22.3467 19.3367L28.2987 18.3762C28.5137 18.3415 28.729 18.4515 28.8272 18.647L35.7977 32.6104C36.0154 33.0485 36.6655 32.9482 36.7415 32.4649L39.163 16.9743C39.1972 16.7597 39.3652 16.5902 39.5801 16.5555L45.4672 15.6054C45.8031 15.5512 46.0958 15.8417 46.0419 16.1766Z" fill="#FFD800"/>
<path d="M66.018 41.9023C56.3556 43.4617 47.9566 37.7452 46.4817 28.6067C45.0069 19.4682 51.1811 11.3998 60.8436 9.84035C70.5038 8.2813 78.9028 13.9978 80.3776 23.1363C81.8525 32.2748 75.6782 40.3432 66.018 41.9023Z" fill="#252525"/>
<path d="M70.3594 24.7531C69.6435 20.3171 66.1331 17.9129 62.2479 18.5399C58.3605 19.1673 55.7846 22.5538 56.5006 26.9898C57.2165 31.4258 60.7269 33.83 64.6143 33.2027C68.4994 32.5757 71.0753 29.1891 70.3594 24.7531ZM49.1692 28.173C47.9267 20.4743 53.0639 13.853 61.2776 12.5274C69.489 11.2022 76.4483 15.8713 77.6908 23.5699C78.9333 31.2685 73.7961 37.8899 65.5846 39.2151C57.371 40.5407 50.4116 35.8716 49.1692 28.173Z" fill="#FFD800"/>
<path d="M105.047 34.505L101.902 28.23C101.55 27.5309 100.508 27.6922 100.384 28.4657L99.2753 35.4456C99.2206 35.7899 98.9518 36.0607 98.6092 36.116L88.0913 37.8135C87.7465 37.8691 87.4061 37.6966 87.2455 37.3848L72.9453 9.48154C72.6965 8.99325 72.9945 8.40522 73.5342 8.31812L85.0015 6.46744C85.3486 6.41142 85.6918 6.58808 85.8502 6.90026L89.3946 13.9563C89.7463 14.6554 90.7864 14.4944 90.9101 13.7232L92.177 5.87001C92.2317 5.52572 92.5008 5.25714 92.8434 5.20184L102.273 3.68003C102.62 3.62401 102.963 3.80066 103.122 4.11509L106.653 11.1893C107.003 11.891 108.048 11.7293 108.171 10.9536L109.4 3.09279C109.452 2.74887 109.723 2.47768 110.066 2.42238L120.971 0.662407C121.511 0.575311 121.978 1.03974 121.896 1.58152L117.1 32.5667C117.045 32.9132 116.776 33.1841 116.432 33.2397L105.896 34.9401C105.549 34.9961 105.205 34.8194 105.047 34.505Z" fill="#252525"/>
<path d="M118.698 4.45067L114.679 30.4142C114.647 30.6285 114.479 30.798 114.264 30.8327L107.215 31.9704C106.998 32.0054 106.785 31.8951 106.686 31.6995L100.117 18.5996C99.8999 18.1637 99.2497 18.2641 99.1734 18.7451L96.8639 33.2917C96.8292 33.5041 96.6613 33.6736 96.4486 33.708L89.3948 34.8463C89.1799 34.881 88.9671 34.7729 88.8693 34.5796L76.8865 11.1986C76.7322 10.8972 76.9165 10.5297 77.2524 10.4755L83.688 9.43688C83.903 9.40219 84.1183 9.51217 84.2165 9.7077L91.1664 23.5435C91.3861 23.979 92.034 23.879 92.1103 23.398L94.5878 8.02704C94.6221 7.81242 94.7881 7.64546 95.0031 7.61077L100.953 6.65055C101.17 6.61549 101.383 6.72584 101.481 6.92137L108.452 20.8848C108.672 21.3226 109.322 21.2222 109.398 20.739L111.819 5.24837C111.851 5.03412 112.019 4.86455 112.234 4.82986L118.121 3.87976C118.46 3.82519 118.75 4.11606 118.698 4.45067Z" fill="#FFD800"/>
</g>
<defs>
<clipPath id="clip0_627_9735">
<rect width="123.393" height="32.6628" fill="white" transform="translate(0 19.6597) rotate(-9.16779)"/>
</clipPath>
</defs>
</svg>
