<svg width="218" height="127" fill="none" xmlns="http://www.w3.org/2000/svg"><path d="M184.458 25.009c7.907 1.553 10.047 3.275 13.256 10.666 1.554-7.906 3.276-10.046 10.668-13.255-7.907-1.554-10.047-3.276-13.256-10.667-1.554 7.907-3.277 10.046-10.668 13.256ZM8.588 101.642l8.491-.918-.919-8.491 2.757-.299.918 8.491 8.491-.918.299 2.756-8.491.919.918 8.491-2.756.298-.919-8.491-8.49.919-.299-2.757Z" fill="#FFD800"/><path d="M173.786 108.688c3.306-.357 6.222-2.387 7.801-5.432a10.923 10.923 0 0 0 1.221-5.23c1.37-.94 2.52-2.226 3.323-3.775a10.915 10.915 0 0 0 1.221-5.23 10.29 10.29 0 0 0 3.323-3.773 10.92 10.92 0 0 0 1.221-5.233 10.29 10.29 0 0 0 3.323-3.772 10.903 10.903 0 0 0 1.221-5.233 10.29 10.29 0 0 0 3.323-3.772c2.583-4.98.955-11.175-3.706-14.102-14.89-9.349-31.416-16.854-49.12-22.303-14.088-4.335-28.954-7.39-44.182-9.072-19.007-2.104-33.722-1.557-40.613-1.07l-.657-.907a8.191 8.191 0 0 0-7.506-3.339 8.191 8.191 0 0 0-6.618 4.867l-5.97 13.724-14.244 4.588a8.192 8.192 0 0 0-5.495 6.109 8.189 8.189 0 0 0 2.584 7.796l11.207 9.92-.036 14.963a8.175 8.175 0 0 0 2.698 6.093 8.202 8.202 0 0 0 6.355 2.062 8.113 8.113 0 0 0 3.272-1.09l12.895-7.591 14.222 4.657a8.113 8.113 0 0 0 3.428.365 8.201 8.201 0 0 0 6.148-3.956c22.485 2.665 53.692 9.81 83.104 28.28a9.748 9.748 0 0 0 6.257 1.456Z" fill="#fff"/><path d="M191.143 67.447c1.587-.082 3.096-1.017 3.935-2.637 1.309-2.525.491-5.75-1.827-7.206-14.5-9.105-30.604-16.414-47.867-21.727-13.77-4.237-28.308-7.223-43.209-8.873-25.398-2.808-42.89-.783-43.622-.696-2.644.316-4.533 2.92-4.22 5.818.313 2.896 2.71 4.988 5.352 4.67.292-.032 17.5-1.987 41.864.735 22.441 2.508 55.744 9.612 86.963 29.213a4.505 4.505 0 0 0 2.631.703Z" fill="#F15BB5"/><path d="M186.596 76.449c1.587-.079 3.096-1.017 3.936-2.634 1.308-2.525.49-5.75-1.828-7.206-14.499-9.105-30.604-16.414-47.866-21.728-13.771-4.24-28.309-7.223-43.21-8.872-25.397-2.809-42.89-.786-43.623-.698-2.643.318-4.532 2.921-4.22 5.817.314 2.896 2.709 4.988 5.354 4.672.29-.034 17.5-1.986 41.864.736 22.44 2.507 55.743 9.61 86.962 29.213a4.483 4.483 0 0 0 2.631.7Z" fill="#F23637"/><path d="M182.053 85.454c1.587-.079 3.096-1.017 3.935-2.636 1.309-2.522.491-5.748-1.827-7.204-14.499-9.105-30.604-16.414-47.866-21.727-13.771-4.24-28.309-7.223-43.21-8.872-25.397-2.81-42.89-.786-43.622-.699-2.644.315-4.533 2.921-4.22 5.817.313 2.896 2.71 4.985 5.35 4.673.172-.021 17.416-1.996 41.867.735 22.44 2.508 55.743 9.61 86.962 29.213.832.52 1.744.746 2.631.7Z" fill="#FFD800"/><path d="M177.51 94.46c1.587-.082 3.097-1.018 3.936-2.637 1.308-2.525.49-5.751-1.828-7.207-14.499-9.104-30.604-16.414-47.866-21.727-13.771-4.237-28.309-7.223-43.21-8.87-25.397-2.81-42.89-.785-43.622-.698-2.644.315-4.533 2.919-4.22 5.817.312 2.894 2.708 4.98 5.35 4.673.172-.021 17.416-1.999 41.867.732 22.44 2.508 55.743 9.612 86.962 29.214a4.505 4.505 0 0 0 2.631.702Z" fill="#00BBF9"/><path d="M172.967 103.461c1.586-.078 3.096-1.014 3.936-2.633 1.308-2.525.49-5.751-1.828-7.207-20.334-12.767-43.548-21.894-68.995-27.123C84.685 62.1 66.112 61.39 54.299 61.57c-.053 0-.106.004-.158.004-2.586.132-4.61 2.49-4.55 5.344.061 2.912 2.268 5.242 4.93 5.201 24.438-.37 71.981 3.118 115.815 30.643a4.479 4.479 0 0 0 2.631.699Z" fill="#7209B7"/><path d="m52.196 23.416-6.92 15.91-16.514 5.321c-2.138.688-2.714 3.442-1.032 4.931l12.992 11.497-.042 17.35c-.006 2.246 2.435 3.646 4.37 2.507L60 72.128l16.488 5.403c2.135.697 4.22-1.192 3.734-3.385L76.47 57.207l10.23-14.01c1.325-1.815.173-4.381-2.063-4.596l-17.27-1.666-10.163-14.061c-1.316-1.82-4.113-1.516-5.009.542Z" fill="#FFD800"/><path d="M59.864 70.832 44.452 79.91a1.694 1.694 0 0 1-1.72.008 1.694 1.694 0 0 1-.861-1.489l.043-17.886L28.52 48.69a1.696 1.696 0 0 1-.54-1.634 1.689 1.689 0 0 1 1.15-1.276l17.024-5.486 7.134-16.403a1.694 1.694 0 0 1 1.386-1.018 1.693 1.693 0 0 1 1.572.698l10.478 14.497 17.804 1.717a1.69 1.69 0 0 1 1.397 1c.255.57.188 1.209-.179 1.713L75.198 56.942l3.868 17.463a1.692 1.692 0 0 1-.522 1.638 1.694 1.694 0 0 1-1.683.36l-16.997-5.57Zm-15.85 11.673a4.132 4.132 0 0 0 1.642-.55l14.489-8.53 15.977 5.234a4.039 4.039 0 0 0 4.016-.857 4.04 4.04 0 0 0 1.246-3.911l-3.636-16.416 9.916-13.577a4.045 4.045 0 0 0 .427-4.086 4.04 4.04 0 0 0-3.335-2.393L68.02 35.806l-9.85-13.628a4.044 4.044 0 0 0-3.751-1.667 4.043 4.043 0 0 0-3.308 2.43l-6.707 15.42-16.003 5.156a4.041 4.041 0 0 0-2.746 3.051 4.045 4.045 0 0 0 1.291 3.9l12.59 11.142-.04 16.814a4.04 4.04 0 0 0 2.054 3.554 4.06 4.06 0 0 0 2.464.527Z" fill="#231F20"/><path d="M58.794 65.425a8.878 8.878 0 0 0 3.394-1.078 8.932 8.932 0 0 0 2.626-2.216 8.922 8.922 0 0 0 1.603-3.04 1.187 1.187 0 0 0-2.274-.683 6.589 6.589 0 0 1-1.179 2.235 6.518 6.518 0 0 1-1.93 1.629 6.556 6.556 0 0 1-2.495.793 6.505 6.505 0 0 1-2.606-.241 6.514 6.514 0 0 1-2.235-1.178 6.594 6.594 0 0 1-1.63-1.93 1.186 1.186 0 0 0-2.075 1.153 8.932 8.932 0 0 0 2.216 2.626c.907.73 1.93 1.27 3.04 1.603a8.873 8.873 0 0 0 3.545.328Z" fill="#231F20"/><path d="M63.046 50.76A3.537 3.537 0 1 0 70.08 50a3.537 3.537 0 0 0-7.034.76Zm-18.363 1.987a3.538 3.538 0 1 0 7.034-.76 3.538 3.538 0 0 0-7.034.76Z" fill="#F9696A"/><path d="M61.622 46.747c.164 1.519 1.137 2.656 2.173 2.543 1.035-.112 1.742-1.43 1.577-2.949-.164-1.516-1.136-2.653-2.172-2.54-1.035.111-1.742 1.43-1.578 2.946Zm-13.113 1.419c.164 1.52 1.136 2.656 2.172 2.544 1.036-.112 1.742-1.43 1.578-2.95-.164-1.515-1.136-2.652-2.172-2.54-1.036.112-1.742 1.43-1.578 2.946Z" fill="#231F20"/></svg>