<svg width="92" height="93" fill="none" xmlns="http://www.w3.org/2000/svg"><g clip-path="url(#a)"><path d="M.276 46.021c0 25.422 20.442 46.025 45.657 46.025 25.215 0 45.657-20.603 45.657-46.025C91.59 20.603 71.148 0 45.933 0 20.718 0 .276 20.603.276 46.021Z" fill="#FFD800"/><path d="M45.99 80.724c7.916 0 15.334-3.125 20.897-8.8a1.6 1.6 0 0 0-.012-2.252 1.573 1.573 0 0 0-2.235.012c-4.966 5.066-11.587 7.856-18.65 7.856h-.078c-7.09-.02-13.727-2.85-18.686-7.964a1.569 1.569 0 0 0-2.23-.027 1.604 1.604 0 0 0-.028 2.252c5.555 5.73 12.989 8.899 20.936 8.922h.087Zm26.077-63.472c.288 0 .576-.08.837-.242a1.6 1.6 0 0 0 .5-2.193c-1.914-3.088-4.914-5.226-8.444-6.01a13.16 13.16 0 0 0-10.165 1.859 1.6 1.6 0 0 0-.466 2.2 1.573 1.573 0 0 0 2.187.466 10.056 10.056 0 0 1 7.765-1.416c2.693.6 4.983 2.228 6.447 4.588.296.482.814.748 1.339.748Zm-52.245.27c.545 0 1.074-.287 1.366-.796a10.132 10.132 0 0 1 6.29-4.808 10.04 10.04 0 0 1 7.808 1.15 1.572 1.572 0 0 0 2.167-.54c.45-.757.21-1.736-.54-2.19a13.177 13.177 0 0 0-10.225-1.504c-3.498.907-6.423 3.144-8.232 6.296a1.6 1.6 0 0 0 .577 2.177c.248.143.52.215.79.215Zm44.42 9.453c.438 0 .79-.358.79-.796v-5.982a.793.793 0 0 0-.79-.796.795.795 0 0 0-.79.796v5.982c0 .438.356.796.79.796Zm-2.407 1.933c.201 0 .402-.08.556-.235a.79.79 0 0 0 0-1.122l-4.192-4.23a.787.787 0 0 0-1.117 0 .802.802 0 0 0 0 1.126l4.196 4.226a.784.784 0 0 0 .557.235Zm4.818 0c.201 0 .403-.08.557-.235l4.196-4.226a.802.802 0 0 0 0-1.126.787.787 0 0 0-1.117 0l-4.197 4.23a.797.797 0 0 0 .56 1.357Zm-38.337-1.933a.795.795 0 0 1-.79-.796v-5.982c0-.438.356-.796.79-.796.439 0 .79.358.79.796v5.982a.793.793 0 0 1-.79.796Zm2.411 1.933a.797.797 0 0 1-.56-1.357l4.196-4.23a.787.787 0 0 1 1.117 0 .802.802 0 0 1 0 1.126l-4.196 4.226a.784.784 0 0 1-.557.235Zm-4.817 0a.784.784 0 0 1-.558-.235l-4.196-4.226a.802.802 0 0 1 0-1.126.787.787 0 0 1 1.117 0l4.193 4.23a.79.79 0 0 1 0 1.122.784.784 0 0 1-.557.235Z" fill="#231F20"/><path d="M60.52 54.577c0 6.173 4.963 11.18 11.086 11.18s11.09-5.007 11.09-11.18c0-6.172-4.967-11.175-11.09-11.175s-11.085 5.003-11.085 11.175Zm-51.32 0c0 6.173 4.963 11.18 11.086 11.18s11.09-5.007 11.09-11.18c0-6.172-4.967-11.175-11.09-11.175S9.2 48.405 9.2 54.577Z" fill="#F9696A"/><path d="M55.68 37.003c0 7.629 3.655 13.817 8.168 13.817 4.512 0 8.172-6.188 8.172-13.817 0-7.63-3.66-13.814-8.172-13.814-4.513 0-8.168 6.185-8.168 13.814Z" fill="#fff"/><path d="M65.504 23.472c3.182 1.11 5.689 5.348 6.344 10.729-.584 3.773-2.613 6.559-5.026 6.559-2.87 0-5.195-3.932-5.195-8.788 0-4.083 1.646-7.513 3.877-8.5Z" fill="#231F20"/><path d="M61.798 29.732a12.18 12.18 0 0 1 .797-2.857l3.597 4.74-4.394-1.883Zm-41.65 7.271c0 7.629 3.656 13.817 8.169 13.817 4.512 0 8.172-6.188 8.172-13.817 0-7.63-3.66-13.814-8.172-13.814-4.513 0-8.169 6.185-8.169 13.814Z" fill="#fff"/><path d="M29.973 23.472c3.182 1.11 5.688 5.348 6.344 10.729-.584 3.773-2.614 6.559-5.026 6.559-2.87 0-5.195-3.932-5.195-8.788 0-4.083 1.646-7.513 3.877-8.5Z" fill="#231F20"/><path d="M26.267 29.732c.161-1.042.438-2.005.797-2.857l3.597 4.74-4.395-1.883Z" fill="#fff"/></g><defs><clipPath id="a"><path fill="#fff" transform="matrix(-1 0 0 1 91.59 0)" d="M0 0h91.59v92.329H0z"/></clipPath></defs></svg>