<svg width="166" height="114" viewBox="0 0 166 114" fill="none" xmlns="http://www.w3.org/2000/svg">
<g clip-path="url(#clip0_627_9725)">
<path d="M162.178 53.0951C154.795 78.1506 112.068 103.968 72.2085 92.2235C32.3476 80.4786 10.4465 35.6187 17.829 10.5632C25.2115 -14.492 49.4574 22.41 89.3182 34.1548C129.178 45.8993 169.56 28.0399 162.178 53.0951Z" fill="#EF0405"/>
<path d="M73.7262 87.0736C64.9324 84.4826 56.7085 80.0499 49.2823 73.8981C42.5496 68.3209 36.5388 61.3061 31.9005 53.6127C23.1336 39.0719 19.7153 23.1577 22.9792 12.0806C23.9937 8.63742 25.0525 7.76874 25.353 7.58471C26.0125 7.18044 27.4264 7.50751 28.2107 7.7386C32.3483 8.95773 38.3071 12.8932 45.207 17.4498C56.5405 24.9345 70.6455 34.2497 87.8012 39.3046C104.955 44.359 121.857 44.1802 135.439 44.0365C143.706 43.9485 150.847 43.873 154.988 45.093C155.77 45.3236 157.137 45.8155 157.472 46.5121C157.624 46.8297 158.043 48.1333 157.028 51.5777C153.765 62.6549 142.264 74.1732 127.013 81.6372C118.945 85.5868 110.09 88.2213 101.409 89.257C91.8346 90.3997 82.5197 89.6646 73.7262 87.0736Z" fill="#231F20"/>
<path d="M49.281 73.8981C56.7071 80.0498 64.9311 84.4826 73.7249 87.0736C82.5184 89.6646 91.8333 90.3996 101.408 89.257C106.457 88.6541 111.567 87.5072 116.544 85.8778C114.332 78.358 107.96 71.854 99.2154 69.2775C91.9387 67.1335 84.5657 68.1658 78.8754 71.5224C76.1068 65.0681 70.2031 59.6728 62.4272 57.3816C53.3309 54.7014 44.0871 56.983 38.1642 62.5656C41.5237 66.7448 45.2726 70.5776 49.281 73.8981Z" fill="#F15BB5"/>
<path d="M73.3139 75.6334C75.1181 73.7575 77.7309 72.1535 78.8664 71.4994C78.5573 70.782 78.2082 70.0786 77.8237 69.3902C76.6519 70.0552 73.718 71.8277 71.6226 74.0062C71.1732 74.4732 71.1877 75.2163 71.6547 75.6656C71.8089 75.8137 71.9933 75.9117 72.1872 75.9593C72.5807 76.056 73.0132 75.9461 73.3139 75.6334Z" fill="#231F20"/>
<path d="M61.2188 27.5381L57.3822 40.5588C56.4963 43.5657 58.2157 46.7216 61.2224 47.6075L74.4027 51.4911C77.4097 52.3771 80.5653 50.6576 81.4513 47.6506L84.2419 38.1797C75.8092 35.3461 68.147 31.5398 61.2188 27.5381Z" fill="white"/>
<path d="M61.2188 27.5381L59.7014 32.6879C66.6296 36.6896 74.2919 40.4958 82.7245 43.3295L84.2419 38.1797C75.8092 35.3461 68.147 31.5398 61.2188 27.5381Z" fill="#8ECAE6"/>
<path d="M116.071 43.8091C108.081 43.3951 99.5866 42.4102 90.9825 40.1842L88.1968 49.6384C87.3108 52.6454 89.0285 55.8008 92.0359 56.6869L105.217 60.5706C108.224 61.4567 111.378 59.7368 112.264 56.7298L116.071 43.8091Z" fill="white"/>
<path d="M90.9825 40.1842L89.4651 45.334C98.0693 47.56 106.563 48.5448 114.554 48.9588L116.071 43.8091C108.081 43.3951 99.5866 42.4102 90.9825 40.1842Z" fill="#8ECAE6"/>
</g>
<defs>
<clipPath id="clip0_627_9725">
<rect width="150.591" height="74.0876" fill="white" transform="translate(20.9414) rotate(16.4174)"/>
</clipPath>
</defs>
</svg>
