<svg width="142" height="107" viewBox="0 0 142 107" fill="none" xmlns="http://www.w3.org/2000/svg">
<g clip-path="url(#clip0_712_23515)">
<path d="M103.447 84.9332L28.0034 69.4674C14.3605 66.6707 5.5556 53.3908 8.34031 39.8066L11.4584 24.5963C14.2431 11.0122 27.5629 2.26775 41.2058 5.0645L116.649 20.5302C130.295 23.3275 139.097 36.6069 136.313 50.191L133.194 65.4014C130.41 78.9855 117.092 87.7304 103.447 84.9332Z" fill="#EF0405"/>
<path d="M17.6562 40.1898L20.1736 27.9095C22.1081 18.4727 31.3591 12.3977 40.8375 14.3407L113.339 29.2033C122.817 31.1463 128.932 40.3712 126.997 49.8079L124.48 62.0883C122.545 71.525 113.294 77.6001 103.816 75.657L31.3146 60.7945C21.8362 58.8515 15.7217 49.6265 17.6562 40.1898Z" fill="#231F20"/>
<path d="M27.4562 61.504L23.0887 82.8092C22.6806 84.8002 24.9207 86.2728 26.5956 85.1149L53.8147 66.3049L27.4562 61.504Z" fill="#EF0405"/>
<path d="M114.044 29.3478L40.1324 14.1962C31.0583 12.336 22.1697 18.1725 20.3177 27.2068L19.7202 30.1213L126.544 52.0198L127.141 49.1053C128.993 40.071 123.118 31.208 114.044 29.3478Z" fill="white"/>
<path d="M41.2945 14.4341L38.6646 13.895L34.7085 33.1936L37.3384 33.7327L41.2945 14.4341Z" fill="#231F20"/>
<path d="M59.1773 18.1006L56.5474 17.5615L52.5913 36.8601L55.2211 37.3992L59.1773 18.1006Z" fill="#231F20"/>
<path d="M77.0617 21.7667L74.4341 21.228L70.478 40.5266L73.1055 41.0652L77.0617 21.7667Z" fill="#231F20"/>
<path d="M94.9445 25.4327L92.317 24.894L88.3608 44.1926L90.9883 44.7313L94.9445 25.4327Z" fill="#231F20"/>
<path d="M112.831 29.0992L110.204 28.5605L106.248 47.8591L108.875 48.3978L112.831 29.0992Z" fill="#231F20"/>
<path d="M83.7252 57.3585C77.8967 56.1637 72.2068 57.4469 67.9857 60.4291C65.3929 55.5875 60.422 51.7739 54.194 50.4971C44.6898 48.5488 35.545 53.1861 32.552 61.0485L99.4809 74.7687C99.3874 66.6713 92.9262 59.2447 83.7252 57.3585Z" fill="#F15BB5"/>
<path d="M63.9178 63.9896C65.2035 62.4128 67.1351 60.9943 67.9795 60.4116C67.6906 59.8735 67.3696 59.3488 67.0236 58.8383C66.1526 59.4319 63.9792 61.002 62.4894 62.8339C62.169 63.2264 62.2295 63.8035 62.6245 64.1227C62.7547 64.2281 62.9056 64.2922 63.0598 64.3165C63.3729 64.3661 63.7047 64.2527 63.9178 63.9896Z" fill="#231F20"/>
</g>
<defs>
<clipPath id="clip0_712_23515">
<rect width="127.631" height="82.1656" fill="white" transform="translate(16.5006) rotate(11.585)"/>
</clipPath>
</defs>
</svg>
