<svg width="146" height="95" viewBox="0 0 146 95" fill="none" xmlns="http://www.w3.org/2000/svg">
<g clip-path="url(#clip0_712_23528)">
<path d="M53.7352 85.7469C50.2907 71.3032 59.2236 56.7536 73.6498 53.3132L74.6846 53.0664C89.1108 49.626 103.648 58.5783 107.093 73.0221L97.1268 75.3988C94.9944 66.4575 85.9942 60.9158 77.0644 63.0454L76.0296 63.2922C67.0998 65.4218 61.5692 74.4288 63.7015 83.3702L53.7352 85.7469Z" fill="#7209B7"/>
<path d="M43.6994 88.1401C41.406 78.5233 42.9905 68.59 48.1608 60.1702C53.3294 51.7504 61.4658 45.8521 71.0716 43.5613L72.5848 43.2004C82.1907 40.9096 92.1132 42.5012 100.525 47.6822C108.939 52.8624 114.836 61.0117 117.129 70.6284L107.163 73.0052C103.741 58.6554 89.2961 49.7616 74.9646 53.1794L73.4514 53.5403C59.1199 56.9581 50.2435 71.4135 53.6657 85.7633L43.6994 88.1401Z" fill="#00BBF9"/>
<path d="M33.8982 90.4777C30.9945 78.3019 33.0002 65.7254 39.5462 55.065C46.0906 44.4051 56.3928 36.937 68.5533 34.0369L70.5349 33.5644C82.6955 30.6643 95.2592 32.6793 105.912 39.238C116.562 45.7974 124.028 56.1151 126.932 68.291L116.965 70.6677C112.284 51.0352 92.5234 38.867 72.9147 43.5433L70.9331 44.0159C51.3261 48.6918 39.1825 68.4685 43.8645 88.101L33.8982 90.4777Z" fill="#FCBF49"/>
<path d="M24.499 92.7187C22.7363 85.3271 22.4724 77.8089 23.715 70.3729C24.9151 63.1931 27.4618 56.396 31.2839 50.1701C35.1078 43.944 40.0147 38.6007 45.8714 34.2884C51.9372 29.822 58.7557 26.6647 66.1374 24.9043L68.5675 24.3248C75.9509 22.564 83.4605 22.3042 90.8874 23.5529C98.0599 24.758 104.852 27.3113 111.072 31.1421C117.293 34.973 122.633 39.8892 126.944 45.7545C131.409 51.8296 134.566 58.6578 136.329 66.0494L126.363 68.4261C120.473 43.7285 95.6139 28.4212 70.9473 34.3037L68.5172 34.8833C43.8507 40.7658 28.5754 65.6443 34.4653 90.342L24.499 92.7187Z" fill="#F23637"/>
<path d="M15.2234 94.931C13.1688 86.3156 12.861 77.5531 14.3105 68.8866C15.7083 60.5189 18.6765 52.5965 23.1323 45.3395C27.5881 38.0828 33.3076 31.8551 40.1334 26.829C47.2027 21.6237 55.1501 17.9439 63.7543 15.892L66.6262 15.2071C75.2321 13.1547 83.9832 12.8522 92.6407 14.3069C101 15.7116 108.915 18.6879 116.166 23.1527C123.417 27.6178 129.641 33.3478 134.665 40.1843C139.87 47.2639 143.549 55.2221 145.604 63.8376L135.638 66.2144C128.556 36.5182 98.6657 18.1126 69.006 25.1859L66.1341 25.8708C36.4744 32.9441 18.1077 62.858 25.1897 92.5542L15.2234 94.931Z" fill="#F15BB5"/>
<path d="M64.6236 49.4172L62.1088 50.0169C60.5922 50.3786 59.0695 49.4408 58.7074 47.9223L55.8705 36.0267C55.5084 34.5083 56.444 32.9842 57.9605 32.6225L60.4754 32.0228C61.9919 31.6611 63.5146 32.5989 63.8768 34.1174L66.7136 46.013C67.0758 47.5315 66.1401 49.0555 64.6236 49.4172Z" fill="white"/>
<path d="M66.3991 44.6916L63.1019 45.4779C62.1418 45.7069 61.1769 45.1131 60.9476 44.1515L59.5715 38.3813C59.3422 37.4197 59.9353 36.4544 60.8954 36.2254L64.1925 35.4391L66.3991 44.6916Z" fill="#231F20"/>
<path d="M59.5244 37.9198L62.3313 38.7876L59.7546 37.0817C59.6112 37.3342 59.5304 37.621 59.5244 37.9198Z" fill="white"/>
<path d="M83.2955 44.9641L80.7807 45.5638C79.2641 45.9255 77.7414 44.9877 77.3793 43.4692L74.5424 31.5736C74.1803 30.0551 75.1159 28.5311 76.6324 28.1694L79.1473 27.5697C80.6638 27.208 82.1865 28.1458 82.5487 29.6643L85.3855 41.5599C85.7477 43.0783 84.812 44.6024 83.2955 44.9641Z" fill="white"/>
<path d="M85.071 40.238L82.0313 40.9629C80.9283 41.2259 79.8213 40.5443 79.558 39.4404L78.3048 34.1853C78.0416 33.0815 78.7218 31.9734 79.8247 31.7104L82.8644 30.9855L85.071 40.238Z" fill="#231F20"/>
<path d="M78.1963 33.4662L81.0031 34.334L78.4248 32.6284C78.2831 32.8806 78.2022 33.1674 78.1963 33.4662Z" fill="white"/>
<path d="M63.3401 29.7924C63.2338 29.8177 63.1178 29.8023 63.0187 29.7402C61.6361 28.8894 60.006 28.6279 58.428 29.0043C56.8501 29.3806 55.5134 30.3495 54.6653 31.7323C54.5412 31.9336 54.2788 31.9962 54.0772 31.8725C53.8758 31.749 53.813 31.4858 53.937 31.2846C54.9055 29.707 56.4308 28.6017 58.2297 28.1727C60.0286 27.7437 61.8886 28.0417 63.4648 29.0124C63.6663 29.1359 63.7291 29.3992 63.605 29.6003C63.543 29.7009 63.4464 29.767 63.3401 29.7924Z" fill="#231F20"/>
<path d="M82.2737 25.2767C82.1674 25.3021 82.0514 25.2867 81.9523 25.2246C80.5697 24.3738 78.9396 24.1123 77.3616 24.4886C75.7836 24.865 74.447 25.8339 73.5989 27.2167C73.4748 27.418 73.2124 27.4806 73.0108 27.3569C72.8093 27.2334 72.7466 26.9701 72.8706 26.769C73.8391 25.1914 75.3644 24.0861 77.1633 23.657C78.9622 23.228 80.8222 23.5261 82.3984 24.4968C82.5999 24.6203 82.6627 24.8836 82.5386 25.0847C82.4766 25.1853 82.38 25.2514 82.2737 25.2767Z" fill="#231F20"/>
<path d="M75.7239 61.1834C71.8802 62.1 67.9084 61.4633 64.542 59.3904C62.935 58.4007 62.4327 56.2945 63.4201 54.686C64.4076 53.0777 66.5122 52.5758 68.1192 53.5654C69.9303 54.6815 72.0677 55.0243 74.1374 54.5307C76.2054 54.0375 77.9581 52.767 79.0722 50.9533C80.0597 49.345 82.1625 48.8435 83.7696 49.8332C85.3767 50.8229 85.879 52.929 84.8915 54.5375C82.8229 57.9065 79.5659 60.2671 75.7239 61.1834Z" fill="white"/>
<path d="M65.6352 53.5686C64.8894 53.7464 64.2129 54.2075 63.7818 54.91C62.9196 56.315 63.36 58.1617 64.7635 59.0264C68.0331 61.0395 71.8899 61.6578 75.6223 60.7677C79.3547 59.8776 82.5158 57.5857 84.5249 54.3136C85.3872 52.9087 84.9468 51.0621 83.5433 50.1974C82.864 49.7783 82.061 49.6499 81.2853 49.8349C80.5079 50.0203 79.8509 50.4967 79.4322 51.1777C78.2587 53.0884 76.4134 54.4269 74.2341 54.9466C72.0531 55.4667 69.8023 55.1051 67.8929 53.9296C67.1912 53.4974 66.3794 53.3911 65.6352 53.5686ZM75.8206 61.5992C71.8657 62.5424 67.7805 61.887 64.3173 59.7541C63.4428 59.2156 62.83 58.3686 62.5916 57.3691C62.3533 56.3695 62.5179 55.3371 63.0552 54.4619C64.164 52.6553 66.5343 52.09 68.339 53.2018C70.0549 54.2576 72.0774 54.582 74.0358 54.115C75.9925 53.6484 77.6509 52.4461 78.7056 50.7296C79.243 49.8544 80.0887 49.2414 81.087 49.0033C82.0853 48.7653 83.1166 48.9308 83.9911 49.4693C85.7958 50.5808 86.362 52.955 85.2532 54.7613C83.1236 58.228 79.7739 60.6565 75.8206 61.5992Z" fill="#231F20"/>
<path d="M74.5532 54.4318L73.7227 54.6299L75.3092 61.2825L76.1397 61.0845L74.5532 54.4318Z" fill="#231F20"/>
<path d="M68.8288 61.156L67.9969 60.9656L69.5143 54.2988L70.3479 54.489L68.8288 61.156Z" fill="#231F20"/>
<path d="M81.9895 58.0181L82.6476 57.4723L78.2832 52.2083L77.6268 52.7538L81.9895 58.0181Z" fill="#231F20"/>
</g>
<defs>
<clipPath id="clip0_712_23528">
<rect width="134.049" height="65.6566" fill="white" transform="translate(0 31.0962) rotate(-13.4134)"/>
</clipPath>
</defs>
</svg>
