<svg width="157" height="131" fill="none" xmlns="http://www.w3.org/2000/svg"><g clip-path="url(#a)"><path d="M126.08 19.216C114.036 9.63 92.872 15.29 74.188 31.544 61.072 10.54 42.487-1.06 28.168 4.584 10.371 11.598 5.905 42.582 18.19 73.789c8.487 21.556 22.746 37.577 36.62 43.114 1.967.887 4.09 1.482 6.338 1.793l.03.005c2.241.36 4.445.411 6.586.138 14.886-1.24 33.206-12.392 47.624-30.525 20.872-26.252 25.659-57.188 10.691-69.098Z" fill="#EF0405"/><path d="m20.484 28.795-.103-.051a2.342 2.342 0 0 1-1.217-2.751 39.43 39.43 0 0 1 6.332-12.626 2.343 2.343 0 0 1 3.784 2.763 39.373 39.373 0 0 0-5.517 11.234 2.345 2.345 0 0 1-3.279 1.431Zm1.198 6.029a2.287 2.287 0 1 1-4.44-1.1 2.287 2.287 0 0 1 4.44 1.1Zm41.27 20.359C61.11 67.512 54.144 76.688 47.394 75.68c-6.75-1.01-10.728-11.821-8.886-24.15 1.842-12.329 8.808-21.505 15.558-20.497 6.75 1.01 10.729 11.821 8.886 24.15Z" fill="#fff"/><path d="M63.316 51.803c.643-9.758-2.39-18-7.45-20.243-4.34.718-8.474 6.849-9.662 14.797-1.332 8.913 1.544 16.73 6.424 17.459 4.352.65 8.825-4.558 10.688-12.013Z" fill="#231F20"/><path d="M48.185 39.353 54.32 47.7l-4.833-10.87c-.47.774-.906 1.619-1.302 2.522Zm54.349 21.745c-1.842 12.329-8.808 21.505-15.558 20.497-6.75-1.009-10.728-11.821-8.886-24.15 1.842-12.329 8.808-21.505 15.558-20.496 6.75 1.008 10.728 11.82 8.886 24.15Z" fill="#fff"/><path d="M102.898 57.718c.643-9.758-2.389-18-7.45-20.243-4.34.718-8.474 6.849-9.662 14.797-1.332 8.913 1.544 16.73 6.424 17.459 4.352.65 8.825-4.558 10.688-12.013Z" fill="#231F20"/><path d="m87.767 45.268 6.136 8.346-4.834-10.868c-.47.774-.907 1.619-1.302 2.522Z" fill="#fff"/><path d="M44.107 27.072a1.065 1.065 0 0 1-.344-1.992c.129-.07 3.197-1.685 7.359-2.116 5.591-.58 10.465 1.274 14.095 5.36a1.065 1.065 0 0 1-1.59 1.414c-7.653-8.613-18.752-2.84-18.863-2.78a1.06 1.06 0 0 1-.657.114ZM64.089 97.17c-5.523-.825-10.435-3.11-14.444-6.755a1.064 1.064 0 0 1 1.43-1.576c5.196 4.725 11.767 6.913 19.532 6.504 5.86-.308 10.235-2.062 10.278-2.08a1.063 1.063 0 0 1 .803 1.97c-.188.078-4.695 1.893-10.897 2.232a33.11 33.11 0 0 1-6.702-.295ZM83.56 32.967a1.065 1.065 0 0 1-.344-1.992c.129-.069 3.197-1.685 7.359-2.116 5.591-.579 10.465 1.274 14.095 5.36a1.065 1.065 0 0 1-1.59 1.414c-7.653-8.613-18.751-2.84-18.863-2.78a1.053 1.053 0 0 1-.657.114Z" fill="#231F20"/><path d="M35.932 76.165a6.282 6.282 0 0 1-7.14 5.287 6.282 6.282 0 0 1-5.283-7.143 6.283 6.283 0 0 1 7.14-5.287 6.283 6.283 0 0 1 5.283 7.143Zm73.649 11.005a6.283 6.283 0 0 1-7.141 5.287 6.282 6.282 0 0 1-5.283-7.143 6.283 6.283 0 0 1 7.141-5.287 6.282 6.282 0 0 1 5.283 7.143Z" fill="#F9696A"/><path d="M47.301 94.669a1.064 1.064 0 0 1-.87-1.332c1.877-6.904 8.537-8.352 8.82-8.41a1.063 1.063 0 0 1 .431 2.084c-.235.05-5.672 1.268-7.198 6.884a1.065 1.065 0 0 1-1.183.774Z" fill="#231F20"/><path d="M135.668 63.907c-8.027 1.243-10.252 2.891-13.788 10.208-1.241-8.03-2.888-10.257-10.201-13.793 8.027-1.243 10.253-2.89 13.788-10.207 1.242 8.03 2.888 10.256 10.201 13.792Zm17.245-21.652c-5.191.804-6.631 1.87-8.917 6.601-.803-5.193-1.868-6.633-6.597-8.92 5.191-.804 6.63-1.87 8.917-6.601.803 5.193 1.868 6.633 6.597 8.92Z" fill="#fff"/></g><defs><clipPath id="a"><path fill="#fff" transform="rotate(8.499 8.2 110.344)" d="M0 0h141.484v110.953H0z"/></clipPath></defs></svg>