<svg width="163" height="88" viewBox="0 0 163 88" fill="none" xmlns="http://www.w3.org/2000/svg">
<g clip-path="url(#clip0_727_23579)">
<path d="M34.2234 48.9029L34.2532 39.947C34.2553 38.9485 32.9756 38.532 32.3926 39.3425L27.1109 46.6507C26.8504 47.0111 26.3884 47.1647 25.9638 47.0295L13.0143 42.9069C12.5896 42.7717 12.2987 42.3784 12.2982 41.9318L12.0836 1.92927C12.0787 1.22919 12.7566 0.731277 13.4239 0.943732L27.5454 5.43952C27.9728 5.57559 28.2619 5.97438 28.2625 6.421L28.2349 16.4952C28.2301 17.4929 29.507 17.9085 30.0947 17.1025L36.0561 8.89006C36.3166 8.5296 36.7777 8.37877 37.2023 8.51397L48.8116 12.21C49.2418 12.3469 49.5309 12.7457 49.5278 13.1942L49.4749 23.2816C49.472 24.2829 50.7544 24.7003 51.3382 23.887L57.2635 15.6448C57.5241 15.2844 57.986 15.1308 58.4107 15.266L71.8372 19.5405C72.5018 19.7521 72.7698 20.5512 72.361 21.1195L49.0591 53.6352C48.8005 53.9993 48.3358 54.152 47.9111 54.0168L34.9396 49.8871C34.5094 49.7502 34.2203 49.3514 34.2234 48.9029Z" fill="#252525"/>
<path d="M67.0672 22.544L47.5443 49.7908C47.3817 50.0154 47.0929 50.1118 46.8282 50.0275L38.1502 47.2647C37.8827 47.1795 37.7036 46.9312 37.7044 46.652L37.7681 27.9549C37.7688 27.3326 36.9736 27.0734 36.6098 27.5771L25.6044 42.8089C25.4426 43.0308 25.1538 43.1271 24.8891 43.0428L16.2056 40.2783C15.9408 40.194 15.7608 39.9484 15.758 39.6711L15.5781 6.15162C15.5759 5.71966 16 5.40823 16.4137 5.53992L24.3361 8.06217C24.6036 8.14733 24.7827 8.39565 24.7819 8.67481L24.7307 28.4297C24.7272 29.0512 25.5224 29.3104 25.889 28.8076L37.5575 12.733C37.7201 12.5084 38.0081 12.4148 38.27 12.4983L45.5996 14.8317C45.8644 14.916 46.0462 15.1652 46.0454 15.4444L45.9414 35.3556C45.9371 35.9799 46.735 36.24 47.0997 35.7335L58.776 19.4913C58.9387 19.2667 59.2275 19.1704 59.4922 19.2547L66.7418 21.5627C67.1554 21.6944 67.3215 22.1937 67.0672 22.544Z" fill="#FFD800"/>
<path d="M74.9986 63.3361C63.0998 59.5479 56.8289 48.2034 60.4117 36.9498C63.9944 25.6962 75.6697 20.0652 87.5686 23.8534C99.4647 27.6407 105.736 38.9852 102.153 50.2388C98.57 61.4924 86.8947 67.1234 74.9986 63.3361Z" fill="#252525"/>
<path d="M89.8138 46.3112C91.5529 40.8485 88.9406 36.0899 84.1562 34.5667C79.3691 33.0427 74.4865 35.4151 72.7473 40.8778C71.0082 46.3406 73.6205 51.0992 78.4076 52.6232C83.192 54.1464 88.0747 51.7739 89.8138 46.3112ZM63.7191 38.0035C66.7373 28.5231 76.3987 23.9425 86.5134 27.1627C96.6254 30.382 101.86 39.705 98.842 49.1855C95.8238 58.666 86.1624 63.2466 76.0505 60.0273C65.9357 56.8071 60.7008 47.484 63.7191 38.0035Z" fill="#FFD800"/>
<path d="M123.695 77.3879L123.728 68.4329C123.73 67.4343 122.45 67.0178 121.864 67.8275L116.582 75.1357C116.322 75.4961 115.86 75.6497 115.438 75.5154L102.486 71.3918C102.061 71.2566 101.773 70.8643 101.77 70.4168L101.555 30.4143C101.553 29.7151 102.231 29.2172 102.895 29.4287L117.017 33.9245C117.444 34.0606 117.733 34.4594 117.734 34.906L117.706 44.9802C117.704 45.9788 118.981 46.3944 119.566 45.5875L125.53 37.3759C125.791 37.0155 126.252 36.8647 126.674 36.999L138.286 40.6958C138.713 40.8319 139.002 41.2307 139.002 41.6801L138.949 51.7675C138.943 52.7679 140.226 53.1853 140.813 52.3729L146.738 44.1307C146.996 43.7694 147.46 43.6167 147.882 43.751L161.311 48.0264C161.976 48.238 162.241 49.0362 161.835 49.6054L138.533 82.1211C138.272 82.4843 137.81 82.6379 137.385 82.5027L124.411 78.3721C123.984 78.2361 123.695 77.8373 123.695 77.3879Z" fill="#252525"/>
<path d="M156.54 51.0294L137.014 78.2753C136.855 78.5008 136.566 78.5972 136.301 78.5129L127.62 75.7492C127.353 75.6641 127.174 75.4157 127.174 75.1366L127.238 56.4395C127.242 55.818 126.444 55.5579 126.08 56.0616L115.074 71.2935C114.913 71.5153 114.624 71.6116 114.362 71.5282L105.676 68.7628C105.411 68.6785 105.231 68.4329 105.231 68.1565L105.051 34.637C105.049 34.2051 105.47 33.8928 105.884 34.0245L113.809 36.5476C114.074 36.6319 114.256 36.8811 114.255 37.1602L114.201 56.9143C114.2 57.5366 114.995 57.7959 115.359 57.2921L127.03 41.2185C127.193 40.9939 127.478 40.8994 127.743 40.9837L135.07 43.3163C135.337 43.4015 135.516 43.6498 135.516 43.9289L135.412 63.8402C135.41 64.4653 136.208 64.7254 136.573 64.2189L148.249 47.9767C148.409 47.7513 148.698 47.6549 148.962 47.7392L156.212 50.0472C156.628 50.1798 156.792 50.6782 156.54 51.0294Z" fill="#FFD800"/>
</g>
<defs>
<clipPath id="clip0_727_23579">
<rect width="157.43" height="41.6726" fill="white" transform="translate(12.6419) rotate(17.6597)"/>
</clipPath>
</defs>
</svg>
