<svg width="211" height="185" fill="none" xmlns="http://www.w3.org/2000/svg"><g clip-path="url(#a)"><path d="m65.708 132.375-6.306-10.89c-.705-1.213-2.179-.803-2.143.598l.3 12.648c.015.624-.302 1.141-.79 1.281l-14.851 4.263c-.487.14-1.034-.129-1.35-.671l-28.489-48.39c-.5-.847-.227-1.936.539-2.156l16.196-4.65c.49-.14 1.038.137 1.355.678l7.1 12.246c.7 1.214 2.171.805 2.143-.594L39.1 82.506c-.015-.624.304-1.137.79-1.277l13.316-3.822c.493-.142 1.041.135 1.356.682l7.085 12.279c.706 1.217 2.183.806 2.146-.599l-.368-14.242c-.014-.624.303-1.141.79-1.28l15.4-4.421c.761-.22 1.573.559 1.599 1.54l1.517 56.135c.019.627-.301 1.145-.788 1.285l-14.878 4.27c-.493.142-1.042-.135-1.356-.681Z" fill="#252525"/><path d="m77.347 76.884 1.275 47.036c.009.388-.19.712-.493.799l-9.953 2.857c-.307.088-.647-.085-.844-.424l-13.164-22.735c-.44-.756-1.356-.502-1.335.37l.628 26.36c.008.385-.19.708-.494.796l-9.96 2.859c-.303.087-.643-.082-.841-.417L18.294 93.836c-.308-.522-.137-1.204.337-1.34l9.087-2.608c.306-.088.647.085.844.424l13.924 24.01c.436.757 1.353.503 1.335-.37l-.613-27.857c-.009-.39.19-.709.49-.795l8.407-2.413c.304-.088.648.085.844.424l13.986 24.238c.438.76 1.357.505 1.335-.371l-.724-28.066c-.009-.389.19-.712.493-.8l8.315-2.386c.474-.136.98.35.993.958Z" fill="#FFD800"/><path d="M113.506 120.713c-13.647 3.918-27.45-5.362-32.107-21.582-4.656-16.221 2.123-31.41 15.77-35.327 13.644-3.917 27.447 5.363 32.104 21.583 4.656 16.221-2.123 31.409-15.767 35.326Z" fill="#252525"/><path d="M115.122 89.449c-2.26-7.874-8.033-11.78-13.521-10.204-5.49 1.576-8.313 7.95-6.052 15.823 2.26 7.874 8.033 11.779 13.524 10.203 5.487-1.575 8.31-7.948 6.049-15.822Zm-29.928 8.592c-3.923-13.665 1.743-26.138 13.344-29.468 11.597-3.33 23.016 4.239 26.939 17.903 3.923 13.665-1.743 26.138-13.341 29.467-11.6 3.33-23.02-4.238-26.942-17.902Z" fill="#FFD800"/><path d="m168.328 102.918-6.303-10.89c-.705-1.214-2.179-.804-2.146.598l.3 12.648c.015.624-.302 1.141-.786 1.28l-14.856 4.265c-.487.139-1.03-.13-1.349-.671l-28.489-48.392c-.497-.847-.224-1.936.538-2.155l16.197-4.65c.49-.14 1.038.137 1.355.679l7.099 12.245c.704 1.213 2.175.804 2.144-.594l-.31-14.233c-.015-.624.303-1.137.787-1.276l13.318-3.823c.491-.14 1.039.136 1.357.682l7.085 12.28c.702 1.218 2.18.806 2.146-.6l-.368-14.242c-.018-.623.303-1.14.787-1.28l15.402-4.421c.762-.219 1.571.56 1.6 1.541l1.517 56.134c.016.628-.301 1.145-.788 1.285l-14.881 4.272c-.49.141-1.039-.136-1.356-.682Z" fill="#252525"/><path d="m179.965 47.425 1.271 47.036c.012.388-.186.712-.489.8l-9.957 2.857c-.306.088-.647-.085-.844-.424l-13.164-22.736c-.437-.756-1.356-.5-1.335.37l.628 26.361c.008.385-.19.708-.491.795l-9.962 2.86c-.304.087-.644-.083-.839-.418l-23.872-40.549c-.308-.522-.14-1.203.334-1.34l9.09-2.608c.304-.088.647.085.844.424L145.1 84.864c.44.756 1.356.501 1.335-.37l-.61-27.858c-.009-.39.188-.708.491-.795l8.403-2.413c.307-.088.648.086.845.425l13.986 24.238c.44.76 1.36.504 1.338-.372l-.725-28.066c-.012-.388.186-.711.49-.799l8.315-2.386c.477-.138.98.35.997.957Z" fill="#FFD800"/></g><defs><clipPath id="a"><path fill="#fff" transform="rotate(-16.017 175.526 24.695)" d="M0 0h179v140.849H0z"/></clipPath></defs></svg>